<?xml version="1.0" encoding="UTF-8" standalone="no"?>
<svg
   xmlns:dc="http://purl.org/dc/elements/1.1/"
   xmlns:cc="http://creativecommons.org/ns#"
   xmlns:rdf="http://www.w3.org/1999/02/22-rdf-syntax-ns#"
   xmlns:svg="http://www.w3.org/2000/svg"
   xmlns="http://www.w3.org/2000/svg"
   xmlns:xlink="http://www.w3.org/1999/xlink"
   xmlns:sodipodi="http://sodipodi.sourceforge.net/DTD/sodipodi-0.dtd"
   xmlns:inkscape="http://www.inkscape.org/namespaces/inkscape"
   width="480mm"
   height="150mm"
   viewBox="0 0 480 150"
   version="1.1"
   id="svg2146"
   inkscape:version="1.0.1 (3bc2e813f5, 2020-09-07)"
   sodipodi:docname="angular.svg">
  <title
     id="title1091">Colored Badge Template</title>
  <defs
     id="defs2140">
    <linearGradient
       inkscape:collect="always"
       id="linearGradient7053">
      <stop
         style="stop-color:#aa292b;stop-opacity:1"
         offset="0"
         id="stop7049" />
      <stop
         style="stop-color:#d53338;stop-opacity:1"
         offset="1"
         id="stop7051" />
    </linearGradient>
    <linearGradient
       inkscape:collect="always"
       id="linearGradient2974">
      <stop
         style="stop-color:#000000;stop-opacity:1"
         offset="0"
         id="stop2970" />
      <stop
         style="stop-color:#404040;stop-opacity:1"
         offset="1"
         id="stop2972" />
    </linearGradient>
    <linearGradient
       inkscape:collect="always"
       xlink:href="#linearGradient2974"
       id="linearGradient1030"
       gradientUnits="userSpaceOnUse"
       x1="-8.5265128e-14"
       y1="150"
       x2="-8.5265128e-14"
       y2="0"
       gradientTransform="scale(0.96902411,1)" />
    <linearGradient
       inkscape:collect="always"
       xlink:href="#linearGradient7053"
       id="linearGradient1038"
       x1="-8.5265128e-14"
       y1="150"
       x2="-8.5265128e-14"
       y2="0"
       gradientUnits="userSpaceOnUse"
       gradientTransform="translate(6.086914e-6,-1.5253906e-5)" />
    <linearGradient
       inkscape:collect="always"
       xlink:href="#linearGradient7053"
       id="linearGradient1038-0"
       x1="-8.5265128e-14"
       y1="150"
       x2="-8.5265128e-14"
       y2="0"
       gradientUnits="userSpaceOnUse"
       gradientTransform="matrix(0.17738398,0,0,1,123.3924,0)" />
  </defs>
  <sodipodi:namedview
     id="base"
     pagecolor="#ffffff"
     bordercolor="#666666"
     borderopacity="1.0"
     inkscape:pageopacity="0.0"
     inkscape:pageshadow="2"
     inkscape:zoom="0.22875072"
     inkscape:cx="913.34608"
     inkscape:cy="167.745"
     inkscape:document-units="mm"
     inkscape:current-layer="layer3"
     inkscape:document-rotation="0"
     showgrid="false"
     inkscape:snap-bbox="true"
     inkscape:window-width="1920"
     inkscape:window-height="1017"
     inkscape:window-x="-8"
     inkscape:window-y="-8"
     inkscape:window-maximized="1" />
  <metadata
     id="metadata2143">
    <rdf:RDF>
      <cc:Work
         rdf:about="">
        <dc:format>image/svg+xml</dc:format>
        <dc:type
           rdf:resource="http://purl.org/dc/dcmitype/StillImage" />
        <dc:title>Colored Badge Template</dc:title>
      </cc:Work>
    </rdf:RDF>
  </metadata>
  <g
     inkscape:label="Text Background"
     inkscape:groupmode="layer"
     id="layer1">
    <rect
       style="opacity:0.996;fill:url(#linearGradient1030);fill-opacity:1;stroke-width:5.18479;stroke-linecap:square;paint-order:stroke fill markers"
       id="rect7"
       width="480"
       height="150"
       x="-8.5265128e-14"
       y="0"
       ry="15.000003" />
  </g>
  <g
     inkscape:groupmode="layer"
     id="layer4"
     inkscape:label="Text">
    <text
       xml:space="preserve"
       style="font-style:normal;font-weight:normal;font-size:67.3685px;line-height:1.25;font-family:sans-serif;fill:#ffffff;fill-opacity:1;stroke:none;stroke-width:0.350875"
       x="184.14473"
       y="98.980347"
       id="text13"><tspan
         sodipodi:role="line"
         id="tspan11"
         x="184.14473"
         y="98.980347"
         style="font-size:67.3685px;fill:#ffffff;stroke-width:0.350875">Angular</tspan></text>
  </g>
  <g
     inkscape:groupmode="layer"
     id="layer3"
     inkscape:label="Logo Background">
    <rect
       style="opacity:0.996;fill:url(#linearGradient1038);fill-opacity:1;stroke-width:2.89838;stroke-linecap:square;paint-order:stroke fill markers"
       id="rect7-3"
       width="150"
       height="150"
       x="6.6757202e-06"
       y="-1.5258789e-05"
       ry="15" />
    <rect
       style="opacity:0.996;fill:url(#linearGradient1038-0);fill-opacity:1.0;stroke-width:1.22071;stroke-linecap:square;paint-order:stroke fill markers"
       id="rect7-3-0"
       width="26.607597"
       height="150"
       x="123.3924"
       y="0" />
    <g
       id="g7039"
       transform="translate(-235.95554,-109.88126)"
       style="fill:#ffffff">
      <g
         id="g7047"
         transform="matrix(0.74284477,0,0,0.74284724,343.53991,47.485171)"
         style="fill:#ffffff">
        <path
           style="fill:#ffffff;stroke-width:0.264583"
           d="m -65.439478,237.81904 c -14.323837,-7.94656 -26.239915,-14.64382 -26.480174,-14.88281 -0.356109,-0.35422 -1.299709,-7.93975 -5.106163,-41.04806 -2.568131,-22.33745 -4.693275,-40.90188 -4.722545,-41.25429 -0.0514,-0.61876 1.02302,-1.02431 31.294089,-11.81224 l 31.347299,-11.17149 8.869368,3.01984 c 57.450325,19.56065 55.166982,18.75722 55.240205,19.43711 0.104061,0.96623 -10.174843,82.29104 -10.430158,82.5215 -0.396672,0.35806 -53.471434,29.63873 -53.723785,29.63873 -0.134639,0 -11.9643,-6.50173 -26.288136,-14.44829 z m 52.839889,-0.53674 c 14.3859967,-7.95072 26.358194,-14.64799 26.604884,-14.88281 0.367091,-0.34943 1.171498,-6.19158 4.430453,-32.17695 2.190062,-17.46249 4.505722,-35.85765 5.145916,-40.87812 0.874332,-6.85663 1.088641,-9.20408 0.861211,-9.43337 -0.387649,-0.39081 -63.198398,-21.78341 -63.46835,-21.61657 -0.111172,0.0687 -0.202133,3.39694 -0.202133,7.39606 0,6.75114 0.03641,7.32241 0.509156,7.98803 0.904819,1.27399 40.8153641,86.54459 40.6397919,86.82867 -0.1100799,0.17812 -2.51835977,0.27468 -6.8504516,0.27468 -5.2936983,0 -6.7853663,-0.0765 -7.1848873,-0.36868 -0.278445,-0.2036 -2.344743,-4.61649 -4.614863,-9.85573 l -4.110665,-9.48705 -9.19404,-0.0696 -9.194041,-0.0696 v 25.40343 c 0,14.69442 0.09942,25.40343 0.235831,25.40343 0.129706,0 12.006191,-6.50514 26.392188,-14.45587 z M 1.3829816,220.25753 C 1.5514127,219.985 -38.260392,134.94029 -38.86601,134.27892 c -0.19195,-0.20962 -0.40145,-0.32867 -0.465556,-0.26457 -0.238884,0.23889 -38.331553,85.07141 -38.45664,85.64309 l -0.130259,0.59531 3.801156,-0.0302 c 2.090637,-0.0166 5.330717,-0.10589 7.200176,-0.19844 l 3.399017,-0.16827 3.877025,-9.65729 3.877024,-9.6573 h 17.566339 17.566339 l 4.157284,9.60571 c 2.286508,5.28314 4.266459,9.71488 4.399891,9.84831 0.133432,0.13343 2.025925,0.27915 4.2055417,0.32381 2.1796164,0.0447 5.1167719,0.10753 6.5270117,0.13971 1.45987829,0.0333 2.6332207,-0.0534 2.7246422,-0.2013 z M -50.337614,188.43661 c 0.0053,-0.70275 11.057671,-26.52448 11.353166,-26.52448 0.366993,0 13.036201,26.29536 12.829974,26.62904 -0.07688,0.12439 -5.550099,0.22617 -12.162708,0.22617 -9.443284,0 -12.022392,-0.071 -12.020432,-0.33073 z m 23.810006,-0.0902 c 0,-0.49534 -12.28979,-25.73056 -12.475216,-25.61596 -0.262559,0.16227 -0.310152,25.33413 -0.0484,25.59588 0.217602,0.21761 12.523611,0.23733 12.523611,0.0201 z"
           id="path7043" />
        <path
           style="fill:#ffffff;stroke-width:0.264583"
           d="m -39.227608,226.33474 v -25.40343 l 9.194041,0.0696 9.19404,0.0696 4.110665,9.48705 c 2.27012,5.23924 4.336418,9.65213 4.614863,9.85573 0.399521,0.29214 1.891189,0.36868 7.1848873,0.36868 4.33209183,0 6.7403717,-0.0966 6.8504516,-0.27468 0.1755722,-0.28408 -39.7349729,-85.55468 -40.6397919,-86.82867 -0.472744,-0.66562 -0.509156,-1.23689 -0.509156,-7.98803 0,-3.99912 0.09096,-7.32735 0.202133,-7.39606 0.269952,-0.16684 63.080701,21.22576 63.46835,21.61657 0.22743,0.22929 0.01312,2.57674 -0.861211,9.43337 -0.640194,5.02047 -2.955854,23.41563 -5.145916,40.87812 -3.258955,25.98537 -4.063362,31.82752 -4.430453,32.17695 -0.507415,0.48301 -52.631995,29.33868 -52.997072,29.33868 -0.136414,0 -0.235831,-10.70901 -0.235831,-25.40343 z m 0.176389,-38.00838 c -0.261757,-0.26175 -0.214164,-25.43361 0.0484,-25.59588 0.185426,-0.1146 12.475216,25.12062 12.475216,25.61596 0,0.21725 -12.306009,0.19753 -12.523611,-0.0201 z"
           id="path7041" />
      </g>
    </g>
  </g>
  <g
     inkscape:groupmode="layer"
     id="layer2"
     inkscape:label="Logo" />
</svg>
