<?xml version="1.0" encoding="UTF-8" standalone="no"?>
<svg
   xmlns:dc="http://purl.org/dc/elements/1.1/"
   xmlns:cc="http://creativecommons.org/ns#"
   xmlns:rdf="http://www.w3.org/1999/02/22-rdf-syntax-ns#"
   xmlns:svg="http://www.w3.org/2000/svg"
   xmlns="http://www.w3.org/2000/svg"
   xmlns:xlink="http://www.w3.org/1999/xlink"
   xmlns:sodipodi="http://sodipodi.sourceforge.net/DTD/sodipodi-0.dtd"
   xmlns:inkscape="http://www.inkscape.org/namespaces/inkscape"
   width="540mm"
   height="150mm"
   viewBox="0 0 540 150"
   version="1.1"
   id="svg2146"
   inkscape:version="1.0.1 (3bc2e813f5, 2020-09-07)"
   sodipodi:docname="hibernate.svg">
  <title
     id="title1091">Colored Badge Template</title>
  <defs
     id="defs2140">
    <linearGradient
       inkscape:collect="always"
       id="linearGradient3464">
      <stop
         style="stop-color:#59676d;stop-opacity:1"
         offset="0"
         id="stop3460" />
      <stop
         style="stop-color:#697980;stop-opacity:1"
         offset="1"
         id="stop3462" />
    </linearGradient>
    <linearGradient
       inkscape:collect="always"
       id="linearGradient2974">
      <stop
         style="stop-color:#000000;stop-opacity:1"
         offset="0"
         id="stop2970" />
      <stop
         style="stop-color:#404040;stop-opacity:1"
         offset="1"
         id="stop2972" />
    </linearGradient>
    <linearGradient
       inkscape:collect="always"
       xlink:href="#linearGradient2974"
       id="linearGradient1030"
       gradientUnits="userSpaceOnUse"
       x1="-8.5265128e-14"
       y1="150"
       x2="-8.5265128e-14"
       y2="0"
       gradientTransform="scale(1.0901521,1)" />
    <linearGradient
       inkscape:collect="always"
       xlink:href="#linearGradient3464"
       id="linearGradient1038-4"
       x1="-8.5265128e-14"
       y1="150"
       x2="-8.5265128e-14"
       y2="0"
       gradientUnits="userSpaceOnUse"
       gradientTransform="translate(6.8115233e-6)" />
    <linearGradient
       inkscape:collect="always"
       xlink:href="#linearGradient3464"
       id="linearGradient1038-0-4"
       x1="-8.5265128e-14"
       y1="150"
       x2="-8.5265128e-14"
       y2="0"
       gradientUnits="userSpaceOnUse"
       gradientTransform="matrix(0.17738398,0,0,1,123.3924,1.8017578e-5)" />
  </defs>
  <sodipodi:namedview
     id="base"
     pagecolor="#ffffff"
     bordercolor="#666666"
     borderopacity="1.0"
     inkscape:pageopacity="0.0"
     inkscape:pageshadow="2"
     inkscape:zoom="0.36428148"
     inkscape:cx="804.10448"
     inkscape:cy="493.58411"
     inkscape:document-units="mm"
     inkscape:current-layer="layer2"
     inkscape:document-rotation="0"
     showgrid="false"
     inkscape:snap-bbox="true"
     inkscape:window-width="1920"
     inkscape:window-height="1017"
     inkscape:window-x="-8"
     inkscape:window-y="-8"
     inkscape:window-maximized="1" />
  <metadata
     id="metadata2143">
    <rdf:RDF>
      <cc:Work
         rdf:about="">
        <dc:format>image/svg+xml</dc:format>
        <dc:type
           rdf:resource="http://purl.org/dc/dcmitype/StillImage" />
        <dc:title>Colored Badge Template</dc:title>
      </cc:Work>
    </rdf:RDF>
  </metadata>
  <g
     inkscape:label="Text Background"
     inkscape:groupmode="layer"
     id="layer1">
    <rect
       style="opacity:0.996;fill:url(#linearGradient1030);fill-opacity:1;stroke-width:5.49929;stroke-linecap:square;paint-order:stroke fill markers"
       id="rect7"
       width="540"
       height="150"
       x="-8.5265128e-14"
       y="0"
       ry="15.000003" />
  </g>
  <g
     inkscape:groupmode="layer"
     id="layer4"
     inkscape:label="Text">
    <text
       xml:space="preserve"
       style="font-style:normal;font-weight:normal;font-size:67.3688px;line-height:1.25;font-family:sans-serif;fill:#ffffff;fill-opacity:1;stroke:none;stroke-width:0.350876"
       x="185"
       y="98.980537"
       id="text13"><tspan
         sodipodi:role="line"
         id="tspan11"
         x="185"
         y="98.980537"
         style="font-size:67.3688px;fill:#ffffff;stroke-width:0.350876">Hibernate</tspan></text>
  </g>
  <g
     inkscape:groupmode="layer"
     id="layer3"
     inkscape:label="Logo Background" />
  <g
     inkscape:groupmode="layer"
     id="layer2"
     inkscape:label="Logo">
    <rect
       style="opacity:0.996;fill:url(#linearGradient1038-4);fill-opacity:1;stroke-width:2.89838;stroke-linecap:square;paint-order:stroke fill markers"
       id="rect7-3-1"
       width="150"
       height="150"
       x="-8.5265128e-14"
       y="0"
       ry="15" />
    <rect
       style="opacity:0.996;fill:url(#linearGradient1038-0-4);fill-opacity:1.0;stroke-width:1.22071;stroke-linecap:square;paint-order:stroke fill markers"
       id="rect7-3-0-6"
       width="26.607597"
       height="150"
       x="123.39241"
       y="1.5258789e-05" />
    <g
       id="g3444"
       transform="matrix(0.73961927,0,0,0.73961927,-55.885163,-157.70513)">
      <path
         style="fill:#b4aa74;stroke-width:0.264583"
         d="m 148.93515,360.20273 c -6.95175,-12.11532 -12.89341,-22.38504 -13.20369,-22.8216 -1.04867,-1.47546 -26.08618,-44.69065 -25.96345,-44.81337 0.16783,-0.16783 -0.99324,-2.12984 13.09606,22.12994 7.03725,12.11713 12.90679,21.99388 13.04344,21.94833 0.32814,-0.10938 24.81599,-44.35329 24.84469,-44.88864 0.0317,-0.59209 -25.36322,-44.07001 -25.74079,-44.07001 -0.17259,0 -5.84235,9.76313 -12.59945,21.69583 -11.21716,19.80894 -13.19254,23.20786 -12.63079,21.733 0.4454,-1.16939 24.52442,-43.46097 24.91556,-43.76085 0.34195,-0.26216 5.88228,-0.31783 26.33323,-0.26458 l 25.90018,0.0674 12.94124,22.07847 c 7.11769,12.14316 12.94125,22.18486 12.94125,22.31488 0,0.13003 0.22631,0.43409 0.50292,0.6757 0.44657,0.39007 25.00311,42.80924 25.48883,44.02961 0.10718,0.26929 0.10572,0.43453 -0.003,0.36718 -0.10896,-0.0673 -5.85212,-9.95265 -12.76258,-21.96737 -6.91047,-12.01471 -12.68355,-21.84466 -12.82907,-21.84434 -0.27197,5.3e-4 -25.23109,43.84246 -25.46188,44.72497 -0.0837,0.3201 4.17973,7.94051 12.23206,21.86343 6.7983,11.75463 12.54227,21.66003 12.76439,22.01202 l 0.40385,0.63996 0.39982,-0.77226 c 0.44005,-0.84997 24.94599,-43.30302 25.09898,-43.48041 0.0523,-0.0606 0.14821,-0.0571 0.21317,0.008 0.0649,0.065 -5.62791,10.05628 -12.65079,22.20295 l -12.76888,22.08485 -25.93276,0.0674 -25.93277,0.0674 z m 51.10298,-45.31119 c 7.02249,-12.36927 12.76958,-22.57946 12.77133,-22.68932 0.002,-0.10985 -11.61873,-0.16939 -25.82328,-0.13229 l -25.82645,0.0675 -12.30997,22.225 c -6.77048,12.22375 -12.36715,22.43395 -12.43705,22.68935 -0.12062,0.44074 1.16865,0.46091 25.36509,0.39687 l 25.49218,-0.0675 z m 38.96825,22.48959 c 0,-0.0728 0.0595,-0.13229 0.13229,-0.13229 0.0728,0 0.13229,0.0595 0.13229,0.13229 0,0.0728 -0.0595,0.13229 -0.13229,0.13229 -0.0728,0 -0.13229,-0.0595 -0.13229,-0.13229 z M 109.36054,292.13738 c 0,-0.0728 0.0595,-0.13229 0.13229,-0.13229 0.0728,0 0.13229,0.0595 0.13229,0.13229 0,0.0728 -0.0595,0.13229 -0.13229,0.13229 -0.0728,0 -0.13229,-0.0595 -0.13229,-0.13229 z"
         id="path3448" />
      <path
         style="fill:#545e65;stroke-width:0.264583"
         d="m 212.74407,381.41276 c -0.22212,-0.35199 -5.96609,-10.25739 -12.76439,-22.01202 -8.05233,-13.92292 -12.31576,-21.54333 -12.23206,-21.86343 0.2307,-0.88217 25.18984,-44.72435 25.46188,-44.72526 0.14552,-5.3e-4 5.68193,9.42799 12.30313,20.95216 6.62119,11.52417 12.41726,21.52237 12.88014,22.21823 0.67404,1.0133 0.77564,1.33116 0.51032,1.59652 -0.29235,0.29239 -24.33839,41.73722 -25.35535,43.7015 l -0.39982,0.77226 z m -89.8901,-66.71506 c -7.0428,-12.11714 -12.96561,-22.19413 -13.16181,-22.39333 -0.29938,-0.30396 -0.29206,-0.43362 0.0455,-0.80664 0.22123,-0.24446 5.92771,-10.20179 12.68108,-22.12741 6.75336,-11.92561 12.42006,-21.68294 12.59265,-21.68294 0.37757,0 25.77253,43.47792 25.74079,44.07001 -0.0287,0.53535 -24.51655,44.77926 -24.84469,44.88864 -0.13665,0.0455 -6.01074,-9.8312 -13.05354,-21.94833 z m 11.90657,-67.53949 c 0,-0.0728 0.0595,-0.13229 0.13229,-0.13229 0.0728,0 0.13229,0.0595 0.13229,0.13229 0,0.0728 -0.0595,0.1323 -0.13229,0.1323 -0.0728,0 -0.13229,-0.0595 -0.13229,-0.1323 z"
         id="path3446" />
    </g>
  </g>
</svg>
