<?xml version="1.0" encoding="UTF-8" standalone="no"?>
<svg
   xmlns:dc="http://purl.org/dc/elements/1.1/"
   xmlns:cc="http://creativecommons.org/ns#"
   xmlns:rdf="http://www.w3.org/1999/02/22-rdf-syntax-ns#"
   xmlns:svg="http://www.w3.org/2000/svg"
   xmlns="http://www.w3.org/2000/svg"
   xmlns:xlink="http://www.w3.org/1999/xlink"
   xmlns:sodipodi="http://sodipodi.sourceforge.net/DTD/sodipodi-0.dtd"
   xmlns:inkscape="http://www.inkscape.org/namespaces/inkscape"
   width="480mm"
   height="150mm"
   viewBox="0 0 480 150"
   version="1.1"
   id="svg2146"
   inkscape:version="1.0.1 (3bc2e813f5, 2020-09-07)"
   sodipodi:docname="node.svg">
  <title
     id="title1091">Colored Badge Template</title>
  <defs
     id="defs2140">
    <linearGradient
       inkscape:collect="always"
       id="linearGradient7111">
      <stop
         style="stop-color:#5d8501;stop-opacity:1"
         offset="0"
         id="stop7107" />
      <stop
         style="stop-color:#8ac401;stop-opacity:1"
         offset="1"
         id="stop7109" />
    </linearGradient>
    <linearGradient
       inkscape:collect="always"
       id="linearGradient2974">
      <stop
         style="stop-color:#000000;stop-opacity:1"
         offset="0"
         id="stop2970" />
      <stop
         style="stop-color:#404040;stop-opacity:1"
         offset="1"
         id="stop2972" />
    </linearGradient>
    <linearGradient
       inkscape:collect="always"
       xlink:href="#linearGradient2974"
       id="linearGradient1030"
       gradientUnits="userSpaceOnUse"
       x1="-8.5265128e-14"
       y1="150"
       x2="-8.5265128e-14"
       y2="0"
       gradientTransform="scale(0.96902411,1)" />
    <linearGradient
       inkscape:collect="always"
       xlink:href="#linearGradient7111"
       id="linearGradient1038"
       x1="-8.5265128e-14"
       y1="150"
       x2="-8.5265128e-14"
       y2="0"
       gradientUnits="userSpaceOnUse"
       gradientTransform="translate(6.086914e-6,-1.5253906e-5)" />
    <linearGradient
       inkscape:collect="always"
       xlink:href="#linearGradient7111"
       id="linearGradient1038-0"
       x1="-8.5265128e-14"
       y1="150"
       x2="-8.5265128e-14"
       y2="0"
       gradientUnits="userSpaceOnUse"
       gradientTransform="matrix(0.17738398,0,0,1,123.3924,0)" />
  </defs>
  <sodipodi:namedview
     id="base"
     pagecolor="#ffffff"
     bordercolor="#666666"
     borderopacity="1.0"
     inkscape:pageopacity="0.0"
     inkscape:pageshadow="2"
     inkscape:zoom="0.22875072"
     inkscape:cx="913.34608"
     inkscape:cy="167.745"
     inkscape:document-units="mm"
     inkscape:current-layer="layer3"
     inkscape:document-rotation="0"
     showgrid="false"
     inkscape:snap-bbox="true"
     inkscape:window-width="1920"
     inkscape:window-height="1017"
     inkscape:window-x="-8"
     inkscape:window-y="-8"
     inkscape:window-maximized="1" />
  <metadata
     id="metadata2143">
    <rdf:RDF>
      <cc:Work
         rdf:about="">
        <dc:format>image/svg+xml</dc:format>
        <dc:type
           rdf:resource="http://purl.org/dc/dcmitype/StillImage" />
        <dc:title>Colored Badge Template</dc:title>
      </cc:Work>
    </rdf:RDF>
  </metadata>
  <g
     inkscape:label="Text Background"
     inkscape:groupmode="layer"
     id="layer1">
    <rect
       style="opacity:0.996;fill:url(#linearGradient1030);fill-opacity:1;stroke-width:5.18479;stroke-linecap:square;paint-order:stroke fill markers"
       id="rect7"
       width="480"
       height="150"
       x="-8.5265128e-14"
       y="0"
       ry="15.000003" />
  </g>
  <g
     inkscape:groupmode="layer"
     id="layer4"
     inkscape:label="Text">
    <text
       xml:space="preserve"
       style="font-style:normal;font-weight:normal;font-size:67.3688px;line-height:1.25;font-family:sans-serif;fill:#ffffff;fill-opacity:1;stroke:none;stroke-width:0.350876"
       x="184.14473"
       y="99.309486"
       id="text13"><tspan
         sodipodi:role="line"
         id="tspan11"
         x="184.14473"
         y="99.309486"
         style="font-size:67.3688px;fill:#ffffff;stroke-width:0.350876">Node.js</tspan></text>
  </g>
  <g
     inkscape:groupmode="layer"
     id="layer3"
     inkscape:label="Logo Background">
    <rect
       style="opacity:0.996;fill:url(#linearGradient1038);fill-opacity:1.0;stroke-width:2.89838;stroke-linecap:square;paint-order:stroke fill markers"
       id="rect7-3"
       width="150"
       height="150"
       x="6.6757202e-06"
       y="-1.5258789e-05"
       ry="15" />
    <rect
       style="opacity:0.996;fill:url(#linearGradient1038-0);fill-opacity:1.0;stroke-width:1.22071;stroke-linecap:square;paint-order:stroke fill markers"
       id="rect7-3-0"
       width="26.607597"
       height="150"
       x="123.3924"
       y="0" />
    <g
       id="g7095"
       transform="matrix(0.47256585,0,0,0.47256585,247.21842,89.763167)">
      <path
         style="fill:#ffffff;stroke-width:0.264583"
         d="m -369.87124,74.217525 c -1.62508,-0.447842 1.4788,1.314902 -44.93934,-25.521823 -27.35951,-15.817945 -41.25469,-23.994899 -42.0168,-24.725786 -0.62628,-0.600615 -1.51925,-1.863426 -1.98438,-2.806243 l -0.8457,-1.714217 v -50.546543 -50.546546 l 0.84651,-1.71424 c 1.68041,-3.40295 -0.0575,-2.308006 45.53511,-28.689447 30.66674,-17.74485 42.28472,-24.33982 43.38111,-24.62539 1.90455,-0.49608 4.30202,-0.4975 6.19788,-0.004 2.05163,0.53438 85.57767,48.805579 87.17742,50.381392 1.31982,1.300078 2.31173,3.292875 2.70709,5.438675 0.38911,2.111872 0.40897,97.077621 0.0207,99.124798 -0.40912,2.157298 -1.25459,3.644794 -3.15781,5.555766 -1.6222,1.628796 -4.39974,3.282447 -43.42716,25.854948 -31.40683,18.164938 -42.07772,24.214771 -43.24882,24.519803 -1.84723,0.481145 -4.53821,0.489133 -6.24584,0.01855 z m 33.49338,-85.633218 c 4.08352,-2.344854 7.63293,-4.501168 7.88759,-4.79181 0.43293,-0.494097 0.46302,-1.941375 0.46302,-22.268385 0,-18.990273 -0.0507,-21.812311 -0.40078,-22.312132 -0.55296,-0.789464 -9.46392,-5.687066 -9.98414,-5.487438 -0.22597,0.08671 -0.48049,0.417312 -0.5656,0.734666 -0.0851,0.317357 -0.15638,5.600375 -0.15837,11.740042 -0.002,6.982013 -0.10049,11.222905 -0.26226,11.322889 -0.14226,0.08792 -1.32227,-0.392698 -2.62223,-1.068041 -1.76628,-0.917604 -2.51767,-1.178989 -2.97339,-1.034349 -0.76169,0.24175 -14.07533,7.900204 -15.24625,8.770154 l -0.85989,0.638871 v 9.217642 c 0,8.399055 0.0411,9.265023 0.46302,9.7512 0.81759,0.94215 15.20105,9.0479831 16.0572,9.0490732 0.52214,7.937e-4 3.21616,-1.3993363 8.20208,-4.2623822 z m -10.69939,-9.516004 c -3.13513,-1.848345 -3.175,-1.910133 -3.175,-4.920456 0,-1.375892 0.1182,-2.722478 0.26266,-2.992414 0.29857,-0.557882 4.73721,-3.178588 5.38352,-3.178588 0.45029,0 4.22307,2.143181 5.0033,2.842194 0.38629,0.346078 0.46235,0.879369 0.45897,3.218085 -0.002,1.541793 -0.0929,2.942995 -0.20156,3.113778 -0.19566,0.307618 -5.05643,3.269702 -5.33705,3.252327 -0.0802,-0.005 -1.15791,-0.605684 -2.39484,-1.334926 z m -33.31513,8.943155 c 4.99804,-2.88371 7.62781,-4.551831 7.84509,-4.976307 0.47127,-0.920724 0.46542,-17.561397 -0.007,-18.497889 -0.41458,-0.822677 -15.33181,-9.523895 -16.32762,-9.523895 -0.99581,0 -15.91304,8.701218 -16.32761,9.523895 -0.47197,0.936566 -0.47783,17.579284 -0.007,18.492917 0.21248,0.411885 2.64107,1.970164 6.94141,4.453877 9.00917,5.2033566 8.88994,5.1418463 9.67966,4.9935817 0.3761,-0.070612 4.06704,-2.0803923 8.20208,-4.4661797 z m -11.13098,-9.076249 c -1.38032,-0.80923 -2.59889,-1.611616 -2.70793,-1.783077 -0.10905,-0.17146 -0.2001,-1.573215 -0.20232,-3.115008 -0.003,-2.340534 0.0724,-2.870941 0.45897,-3.213251 0.85703,-0.758878 4.60311,-2.847028 5.10747,-2.847028 0.50789,0 4.23387,2.085049 5.07898,2.842194 0.38629,0.346078 0.46235,0.879369 0.45897,3.218085 -0.002,1.541793 -0.0929,2.942995 -0.20156,3.113778 -0.19175,0.301474 -5.04443,3.264239 -5.33705,3.2585 -0.0802,-0.0016 -1.27522,-0.664959 -2.65553,-1.474193 z m 96.36119,11.012075 c 4.72646,-2.601023 5.22827,-2.981552 4.80877,-3.64659 -0.14474,-0.229468 -3.59065,-2.319663 -7.65757,-4.644877 -4.06692,-2.325214 -7.48188,-4.35991 -7.58879,-4.521547 -0.10691,-0.161637 -0.19621,-1.614884 -0.19844,-3.229438 -0.005,-3.392485 -0.20798,-3.069032 3.14725,-5.0072 l 2.22526,-1.28543 1.6112,0.862986 c 0.88616,0.474641 2.08745,1.186862 2.66953,1.582713 l 1.05834,0.719728 0.13229,2.369921 c 0.14199,2.543714 0.30508,3.031378 1.01376,3.031378 0.4706,0 8.84419,-4.982061 9.53549,-5.673357 0.26085,-0.26085 0.43116,-1.128988 0.50775,-2.588241 0.19296,-3.67646 0.45587,-3.400656 -7.71215,-8.090517 -7.74617,-4.447646 -8.64508,-4.893053 -9.34933,-4.632555 -0.76074,0.281392 -14.14556,8.02118 -15.09604,8.7293 l -0.8599,0.640633 v 9.338236 c 0,8.561456 0.0385,9.372238 0.46302,9.746991 0.25466,0.224814 3.79677,2.330828 7.87136,4.680037 6.10816,3.5216679 7.54938,4.2510395 8.21202,4.1559271 0.44202,-0.063447 2.78481,-1.2055925 5.20618,-2.5380981 z m -149.07508,-3.598656 c 2.43295,-1.391666 4.66167,-2.763951 4.95271,-3.049524 0.49322,-0.483949 0.53465,-0.927335 0.60984,-6.526892 0.068,-5.067308 0.14716,-6.081152 0.50548,-6.47709 0.53363,-0.589654 3.88091,-2.53183 4.73143,-2.745299 0.96433,-0.242033 5.28985,2.381835 5.65546,3.430612 0.15288,0.438544 0.27175,3.232674 0.27175,6.387594 0,5.011749 0.0492,5.650717 0.46302,6.009318 0.52646,0.456245 8.40341,5.030994 9.16166,5.320874 1.20942,0.46237 1.22323,0.322675 1.22323,-12.373277 V -35.63508 l -0.59531,-0.529437 c -0.72457,-0.644392 -14.63552,-8.672502 -15.49443,-8.941945 -0.49093,-0.154009 -2.10936,0.660553 -8.20208,4.12814 -4.17476,2.376006 -7.85836,4.583602 -8.18578,4.905769 l -0.59531,0.585761 v 11.865362 c 0,11.775437 0.0496,12.500359 0.85489,12.500359 0.12095,0 2.21049,-1.138635 4.64344,-2.530301 z m 145.44949,-9.975019 1.31989,-0.863653 v -1.831814 -1.831816 l -1.42552,-0.855996 c -1.57629,-0.946528 -1.79642,-0.92924 -3.73284,0.293164 l -1.08304,0.683691 0.078,1.773613 0.078,1.773611 1.4435,0.861428 c 0.79393,0.473784 1.5692,0.861425 1.72282,0.861425 0.15363,0 0.87327,-0.388644 1.59921,-0.863653 z"
         id="path7099" />
      <path
         style="fill:#65675e;stroke-width:0.264583"
         d="m -352.76579,-11.411563 c -4.07458,-2.341493 -7.61669,-4.497363 -7.87135,-4.790821 -0.42191,-0.486177 -0.46302,-1.352145 -0.46302,-9.7512 v -9.217642 l 0.85989,-0.638871 c 1.17092,-0.86995 14.48456,-8.528404 15.24625,-8.770154 0.45572,-0.14464 1.20711,0.116745 2.97339,1.034349 1.29996,0.675343 2.47997,1.155964 2.62223,1.068041 0.16177,-0.09998 0.26,-4.340876 0.26226,-11.322889 0.002,-6.139667 0.0733,-11.422685 0.15837,-11.740042 0.0851,-0.317354 0.33963,-0.647954 0.5656,-0.734666 0.52022,-0.199628 9.43118,4.697974 9.98414,5.487438 0.35009,0.499821 0.40078,3.321859 0.40078,22.312132 0,20.32701 -0.0301,21.774288 -0.46302,22.268385 -0.82916,0.946306 -15.23912,9.0552743 -16.08967,9.0541922 -0.51996,-5.292e-4 -3.23161,-1.4112558 -8.18585,-4.2582522 z m 10.72609,-9.651598 c 1.37326,-0.811485 2.58571,-1.615157 2.69434,-1.785937 0.10863,-0.170783 0.19933,-1.571985 0.20156,-3.113778 0.003,-2.338716 -0.0727,-2.872007 -0.45897,-3.218085 -0.78023,-0.699013 -4.55301,-2.842194 -5.0033,-2.842194 -0.64631,0 -5.08495,2.620706 -5.38352,3.178588 -0.14446,0.269936 -0.26266,1.616522 -0.26266,2.992414 0,1.997932 0.0932,2.611654 0.46302,3.048095 0.40359,0.476319 4.71317,3.182916 5.10682,3.207287 0.0802,0.005 1.26945,-0.654907 2.64271,-1.46639 z m 33.45933,9.392616 c -4.07459,-2.349209 -7.6167,-4.455223 -7.87136,-4.680037 -0.4245,-0.374753 -0.46302,-1.185535 -0.46302,-9.746991 v -9.338236 l 0.8599,-0.640633 c 0.95048,-0.70812 14.3353,-8.447908 15.09604,-8.7293 0.70425,-0.260498 1.60316,0.184909 9.34933,4.632555 8.16802,4.689861 7.90511,4.414057 7.71215,8.090517 -0.0766,1.459253 -0.2469,2.327391 -0.50775,2.588241 -0.6913,0.691296 -9.06489,5.673357 -9.53549,5.673357 -0.70868,0 -0.87177,-0.487664 -1.01376,-3.031378 l -0.13229,-2.369921 -1.05834,-0.719728 c -0.58208,-0.395851 -1.78337,-1.108072 -2.66953,-1.582713 l -1.6112,-0.862986 -2.22526,1.28543 c -3.35523,1.938168 -3.15193,1.614715 -3.14725,5.0072 0.002,1.614554 0.0915,3.067801 0.19844,3.229438 0.10691,0.161637 3.52187,2.196333 7.58879,4.521547 4.06692,2.325214 7.51283,4.415409 7.65757,4.644877 0.18242,0.289189 0.16046,0.540972 -0.0716,0.820531 -0.52998,0.638588 -9.05265,5.2363025 -9.9434,5.3641571 -0.66264,0.095112 -2.10386,-0.6342592 -8.21202,-4.1559271 z m -140.83771,0.231974 c -0.23751,-0.237506 -0.3175,-3.307025 -0.3175,-12.182859 v -11.865362 l 0.59531,-0.585761 c 0.32742,-0.322167 4.01102,-2.529763 8.18578,-4.905769 6.09272,-3.467587 7.71115,-4.282149 8.20208,-4.12814 0.85891,0.269443 14.76986,8.297553 15.49443,8.941945 l 0.59531,0.529437 v 11.960024 c 0,12.695952 -0.0138,12.835647 -1.22323,12.373277 -0.75825,-0.28988 -8.6352,-4.864629 -9.16166,-5.320874 -0.41379,-0.358601 -0.46302,-0.997569 -0.46302,-6.009318 0,-3.15492 -0.11887,-5.94905 -0.27175,-6.387594 -0.36561,-1.048777 -4.69113,-3.672645 -5.65546,-3.430612 -0.85052,0.213469 -4.1978,2.155645 -4.73143,2.745299 -0.35832,0.395938 -0.43744,1.409782 -0.50548,6.47709 -0.0752,5.599557 -0.11662,6.042943 -0.60984,6.526892 -0.55454,0.544118 -9.21492,5.579825 -9.59615,5.579825 -0.12094,0 -0.36277,-0.142875 -0.53739,-0.3175 z m 147.30829,-12.185592 -1.4435,-0.861428 -0.078,-1.773611 -0.078,-1.773613 1.08304,-0.683691 c 1.93642,-1.222404 2.15655,-1.239692 3.73284,-0.293164 l 1.42552,0.855996 v 1.831816 1.831814 l -1.31989,0.863653 c -0.72594,0.475009 -1.44558,0.863653 -1.59921,0.863653 -0.15362,0 -0.92889,-0.387641 -1.72282,-0.861425 z"
         id="path7097" />
    </g>
  </g>
  <g
     inkscape:groupmode="layer"
     id="layer2"
     inkscape:label="Logo" />
</svg>
