<?xml version="1.0" encoding="UTF-8" standalone="no"?>
<svg
   xmlns:dc="http://purl.org/dc/elements/1.1/"
   xmlns:cc="http://creativecommons.org/ns#"
   xmlns:rdf="http://www.w3.org/1999/02/22-rdf-syntax-ns#"
   xmlns:svg="http://www.w3.org/2000/svg"
   xmlns="http://www.w3.org/2000/svg"
   xmlns:xlink="http://www.w3.org/1999/xlink"
   xmlns:sodipodi="http://sodipodi.sourceforge.net/DTD/sodipodi-0.dtd"
   xmlns:inkscape="http://www.inkscape.org/namespaces/inkscape"
   width="400mm"
   height="150mm"
   viewBox="0 0 400 150"
   version="1.1"
   id="svg2146"
   inkscape:version="1.0.1 (3bc2e813f5, 2020-09-07)"
   sodipodi:docname="react.svg">
  <title
     id="title1091">Colored Badge Template</title>
  <defs
     id="defs2140">
    <linearGradient
       inkscape:collect="always"
       id="linearGradient7023">
      <stop
         style="stop-color:#212121;stop-opacity:1"
         offset="0"
         id="stop7019" />
      <stop
         style="stop-color:#404040;stop-opacity:1"
         offset="1"
         id="stop7021" />
    </linearGradient>
    <linearGradient
       inkscape:collect="always"
       id="linearGradient2974">
      <stop
         style="stop-color:#000000;stop-opacity:1"
         offset="0"
         id="stop2970" />
      <stop
         style="stop-color:#404040;stop-opacity:1"
         offset="1"
         id="stop2972" />
    </linearGradient>
    <linearGradient
       inkscape:collect="always"
       xlink:href="#linearGradient2974"
       id="linearGradient1030"
       gradientUnits="userSpaceOnUse"
       x1="-8.5265128e-14"
       y1="150"
       x2="-8.5265128e-14"
       y2="0"
       gradientTransform="scale(0.80752009,1)" />
    <linearGradient
       inkscape:collect="always"
       xlink:href="#linearGradient7023"
       id="linearGradient1038"
       x1="-8.5265128e-14"
       y1="150"
       x2="-8.5265128e-14"
       y2="0"
       gradientUnits="userSpaceOnUse"
       gradientTransform="translate(6.086914e-6,-1.5253906e-5)" />
    <linearGradient
       inkscape:collect="always"
       xlink:href="#linearGradient7023"
       id="linearGradient1038-0"
       x1="-8.5265128e-14"
       y1="150"
       x2="-8.5265128e-14"
       y2="0"
       gradientUnits="userSpaceOnUse"
       gradientTransform="matrix(0.17738398,0,0,1,123.3924,0)" />
  </defs>
  <sodipodi:namedview
     id="base"
     pagecolor="#ffffff"
     bordercolor="#666666"
     borderopacity="1.0"
     inkscape:pageopacity="0.0"
     inkscape:pageshadow="2"
     inkscape:zoom="0.22875072"
     inkscape:cx="913.34608"
     inkscape:cy="167.745"
     inkscape:document-units="mm"
     inkscape:current-layer="layer3"
     inkscape:document-rotation="0"
     showgrid="false"
     inkscape:snap-bbox="true"
     inkscape:window-width="1920"
     inkscape:window-height="1017"
     inkscape:window-x="-8"
     inkscape:window-y="-8"
     inkscape:window-maximized="1" />
  <metadata
     id="metadata2143">
    <rdf:RDF>
      <cc:Work
         rdf:about="">
        <dc:format>image/svg+xml</dc:format>
        <dc:type
           rdf:resource="http://purl.org/dc/dcmitype/StillImage" />
        <dc:title>Colored Badge Template</dc:title>
      </cc:Work>
    </rdf:RDF>
  </metadata>
  <g
     inkscape:label="Text Background"
     inkscape:groupmode="layer"
     id="layer1">
    <rect
       style="opacity:0.996;fill:url(#linearGradient1030);fill-opacity:1;stroke-width:4.73304;stroke-linecap:square;paint-order:stroke fill markers"
       id="rect7"
       width="400"
       height="150"
       x="-8.5265128e-14"
       y="0"
       ry="15.000003" />
  </g>
  <g
     inkscape:groupmode="layer"
     id="layer4"
     inkscape:label="Text">
    <text
       xml:space="preserve"
       style="font-style:normal;font-weight:normal;font-size:67.3685px;line-height:1.25;font-family:sans-serif;fill:#ffffff;fill-opacity:1;stroke:none;stroke-width:0.350875"
       x="178.42085"
       y="98.980347"
       id="text13"><tspan
         sodipodi:role="line"
         id="tspan11"
         x="178.42085"
         y="98.980347"
         style="font-size:67.3685px;fill:#ffffff;stroke-width:0.350875">React</tspan></text>
  </g>
  <g
     inkscape:groupmode="layer"
     id="layer3"
     inkscape:label="Logo Background">
    <rect
       style="opacity:0.996;fill:url(#linearGradient1038);fill-opacity:1;stroke-width:2.89838;stroke-linecap:square;paint-order:stroke fill markers"
       id="rect7-3"
       width="150"
       height="150"
       x="6.6757202e-06"
       y="-1.5258789e-05"
       ry="15" />
    <rect
       style="opacity:0.996;fill:url(#linearGradient1038-0);fill-opacity:1.0;stroke-width:1.22071;stroke-linecap:square;paint-order:stroke fill markers"
       id="rect7-3-0"
       width="26.607597"
       height="150"
       x="123.3924"
       y="0" />
  </g>
  <g
     inkscape:groupmode="layer"
     id="layer2"
     inkscape:label="Logo">
    <path
       style="fill:#06bcd4;stroke-width:0.218341"
       d="m 52.535531,119.19411 c -4.316507,-1.2096 -7.254044,-4.74694 -8.352932,-10.05845 -0.392965,-1.89941 -0.433599,-2.68557 -0.331972,-6.42202 0.08013,-2.944484 0.254673,-4.998421 0.566048,-6.659411 0.247634,-1.32097 0.509107,-2.79476 0.581058,-3.27512 l 0.130815,-0.87336 -2.243338,-0.75415 C 36.443126,88.985959 31.557113,86.194059 28.511687,82.938479 26.113892,80.375239 25,77.788219 25,74.782589 c 0,-3.24075 1.146125,-5.73823 3.928386,-8.56024 2.129713,-2.16014 4.32702,-3.66907 7.752876,-5.32403 2.222311,-1.07356 7.643895,-3.16299 8.207228,-3.16299 0.295637,0 0.221804,-0.67574 -0.477097,-4.36683 -0.686407,-3.62507 -0.757748,-10.90766 -0.132927,-13.56907 1.151926,-4.90655 4.233727,-8.38677 8.383909,-9.46775 5.082682,-1.32387 12.053282,1.35333 19.140122,7.35111 3.54169,2.99743 3.11336,2.73892 3.72101,2.24577 0.28785,-0.2336 1.29494,-1.09125 2.23799,-1.90589 4.25416,-3.6749 9.5575,-6.7241 13.17757,-7.57658 7.162718,-1.68672 12.682833,1.68235 14.668913,8.95281 0.45624,1.67019 0.50558,2.31174 0.50341,6.546 -0.002,4.02254 -0.0765,5.08493 -0.52083,7.4236 -0.87692,4.61654 -0.92561,4.20971 0.55924,4.67223 2.387,0.74353 6.29133,2.35221 8.37013,3.44868 4.03048,2.12589 7.44327,5.04435 8.949,7.65276 2.03708,3.52892 2.04167,7.7112 0.0123,11.22604 -2.42739,4.2042 -8.4627,8.16495 -16.47453,10.81158 l -2.13132,0.70406 0.0984,0.77515 c 0.0542,0.42633 0.33168,2.00331 0.61682,3.5044 0.44458,2.34051 0.5186,3.397937 0.51971,7.423611 0.002,5.36817 -0.19251,6.47314 -1.68583,9.6037 -1.45563,3.05157 -3.98138,5.20073 -7.051953,6.00051 -5.11916,1.33337 -12.06772,-1.32727 -19.17469,-7.3421 -1.18343,-1.00158 -2.38704,-2.01217 -2.67467,-2.24577 -0.60713,-0.49307 -0.17724,-0.75243 -3.72064,2.24472 -3.97349,3.36093 -7.945,5.71847 -11.64955,6.91535 -2.32209,0.75022 -5.779554,0.9457 -7.617414,0.43069 z m 5.574766,-7.11685 c 3.17534,-0.97956 6.37393,-2.99016 10.728,-6.74353 0.62688,-0.54039 1.13971,-1.08078 1.1396,-1.20086 -1.1e-4,-0.12009 -0.69603,-1.05351 -1.5465,-2.07425 -0.85046,-1.02074 -2.38744,-2.961254 -3.4155,-4.312241 -1.02806,-1.35098 -1.88217,-2.45634 -1.89801,-2.45634 -0.43719,0 -4.6063,-0.58112 -7.28857,-1.01593 -2.29322,-0.37175 -3.634592,-0.50187 -3.770684,-0.36577 -0.320646,0.32065 -1.017484,4.21844 -1.291748,7.225471 -0.269346,2.95314 -0.051,6.00046 0.5624,7.84999 1.062536,3.20361 3.225427,4.19031 6.781012,3.09346 z m 37.91564,0.16675 c 2.486418,-1.03889 3.669698,-5.16773 3.187478,-11.12219 -0.23344,-2.882501 -0.93818,-6.879921 -1.27174,-7.213481 -0.1361,-0.1361 -1.477468,-0.005 -3.770688,0.36577 -2.69653,0.43712 -6.85184,1.01593 -7.29349,1.01593 -0.0185,0 -0.71763,0.90884 -1.55355,2.01966 -0.83591,1.11081 -2.37082,3.050341 -3.41089,4.310071 -1.04009,1.25972 -1.89105,2.4037 -1.89105,2.54216 0,0.31889 3.91144,3.55997 5.97169,4.94824 4.16582,2.8071 7.97007,3.99547 10.03224,3.13384 z M 76.289017,97.528039 c 0.6087,-0.69051 1.1081,-1.37828 1.1098,-1.52839 0.003,-0.202 -0.62118,-0.27293 -2.39866,-0.27293 -1.77749,0 -2.40096,0.071 -2.39867,0.27293 0.004,0.31763 2.12858,2.783857 2.39867,2.783857 0.10019,0 0.68018,-0.564957 1.28886,-1.255467 z m 6.09186,-8.92158 c 0.57924,-0.11586 0.93615,-0.56702 2.7204,-3.43888 1.12951,-1.81804 2.91165,-4.90216 3.96029,-6.85357 l 1.90662,-3.54806 -1.90662,-3.54804 c -1.04864,-1.95143 -2.83078,-5.03554 -3.96029,-6.85357 -1.78425,-2.87187 -2.14116,-3.32303 -2.7204,-3.43889 -0.86889,-0.17377 -13.89256,-0.17377 -14.76144,0 -0.57925,0.11586 -0.93615,0.56702 -2.7204,3.43889 -1.12952,1.81803 -2.91166,4.90214 -3.9603,6.85357 l -1.90662,3.54804 1.90662,3.54806 c 2.82169,5.25091 5.92806,10.16339 6.49715,10.27473 0.75576,0.14786 14.21448,0.16381 14.94499,0.0177 z m -10.25993,-5.73574 c -1.57126,-0.62973 -2.45426,-1.24728 -3.64267,-2.5476 -1.53156,-1.67577 -2.08541,-3.17594 -2.09196,-5.66633 -0.005,-1.75899 0.0675,-2.11903 0.6875,-3.43305 0.9222,-1.95441 2.39351,-3.49163 4.18702,-4.37456 1.34549,-0.66238 1.58496,-0.7077 3.73932,-0.7077 2.15435,0 2.39382,0.0453 3.73931,0.7077 1.79251,0.88244 3.2637,2.41892 4.18866,4.37456 0.62547,1.32238 0.69298,1.66287 0.68067,3.43305 -0.0105,1.50147 -0.13045,2.26304 -0.50869,3.22808 -0.69057,1.7619 -2.49622,3.66149 -4.34758,4.57375 -1.28634,0.63385 -1.68009,0.71955 -3.5281,0.76785 -1.62098,0.0423 -2.30607,-0.0362 -3.10348,-0.35575 z m -14.36975,4.37796 c 0,-0.22622 -1.87154,-3.52453 -2.16829,-3.82128 -0.26386,-0.26385 -1.095574,1.53226 -1.265086,2.73198 -0.111579,0.78968 -0.09867,0.80637 0.731946,0.94583 0.46504,0.0781 0.94378,0.17529 1.06386,0.21601 0.45298,0.15363 1.63757,0.10116 1.63757,-0.0725 z m 37.49099,-0.17736 c 0.33313,-0.0836 0.49606,-0.28189 0.48742,-0.59319 -0.0189,-0.6823 -0.93598,-3.08769 -1.17717,-3.08769 -0.22368,0 -2.30332,3.4938 -2.30332,3.86956 0,0.22284 1.80743,0.1089 2.99307,-0.18868 z m -47.290751,-3.98572 c 0.262158,-0.79304 1.100547,-2.94379 1.863087,-4.77943 0.762535,-1.83564 1.386431,-3.42875 1.386431,-3.54022 0,-0.11147 -0.623962,-1.70457 -1.38658,-3.54021 -0.762613,-1.83565 -1.561954,-3.87793 -1.776306,-4.53841 -0.214353,-0.66048 -0.523615,-1.46583 -0.687249,-1.78967 l -0.297519,-0.5888 -1.146702,0.33368 c -2.023713,0.58888 -6.550058,2.5682 -8.415987,3.68024 -3.520625,2.09818 -5.499594,4.41669 -5.499594,6.44317 0,3.27658 4.820985,6.92626 12.878039,9.74918 2.414127,0.84582 2.315017,0.89179 3.08238,-1.42953 z m 59.634394,0.50269 c 6.6084,-2.65391 10.43199,-5.90635 10.42551,-8.86822 -0.007,-3.23059 -4.91364,-6.91683 -13.01065,-9.77471 -1.54337,-0.54475 -1.96179,-0.62094 -2.16673,-0.39453 -0.13969,0.15433 -0.57947,1.214 -0.97727,2.35484 -0.39781,1.14083 -1.24845,3.32574 -1.890315,4.85533 -0.64185,1.52962 -1.16703,2.88184 -1.16703,3.00495 0,0.12312 0.52518,1.47535 1.16703,3.00495 0.641865,1.52961 1.493705,3.7145 1.892965,4.85534 0.39926,1.14084 0.81363,2.18995 0.92082,2.33136 0.24642,0.32508 1.41725,-0.008 4.80567,-1.36931 z M 56.646797,64.374219 c 0.60741,-1.03203 1.1044,-1.96545 1.1044,-2.07424 0,-0.26808 -1.04966,-0.24905 -2.4152,0.0438 l -1.126639,0.24162 0.132859,0.83082 c 0.134722,0.84248 0.90491,2.83442 1.09594,2.83442 0.0574,0 0.60121,-0.84439 1.20864,-1.87643 z m 38.65412,0.25333 c 0.65342,-1.89919 0.62021,-2.01423 -0.66079,-2.28896 -1.35911,-0.29147 -2.39101,-0.30432 -2.39101,-0.0298 0,0.18539 1.06468,2.12867 1.90327,3.47392 0.40464,0.64911 0.59293,0.45972 1.14853,-1.15517 z m -40.715676,-9.19227 c 1.310096,-0.25118 8.014816,-1.1934 8.492146,-1.1934 0.0381,0 0.91045,-1.10536 1.93851,-2.45634 1.02806,-1.35099 2.56504,-3.2915 3.4155,-4.31225 0.85047,-1.02074 1.54639,-1.95416 1.5465,-2.07424 3.4e-4,-0.38856 -3.63014,-3.39491 -6.11315,-5.06221 -3.07636,-2.06573 -6.23028,-3.34392 -8.25103,-3.34392 -3.698839,0 -5.461791,4.12484 -4.842541,11.33031 0.225509,2.62392 0.911058,6.77094 1.195368,7.23096 0.180122,0.29143 0.571109,0.27369 2.618697,-0.11891 z m 43.534894,-0.15628 c 0.34228,-0.91721 0.89548,-4.41158 1.10152,-6.95798 0.47399,-5.85802 -0.72609,-10.00123 -3.195718,-11.03312 -2.74491,-1.14689 -7.99076,1.14225 -13.85969,6.04798 -1.17934,0.98579 -2.14411,1.9024 -2.14395,2.03693 1.7e-4,0.13452 0.69615,1.07974 1.54662,2.10048 0.85045,1.02075 2.3841,2.95686 3.40809,4.30249 1.75989,2.31265 1.91127,2.45285 2.76564,2.56114 3.02942,0.38398 7.5671,1.04966 8.21827,1.20562 1.40725,0.33703 1.960278,0.26953 2.159218,-0.26354 z m -20.721318,-1.74673 c -0.004,-0.37454 -2.15531,-2.78683 -2.47133,-2.77145 -0.30098,0.0147 -2.32909,2.45729 -2.32909,2.80512 0,0.15894 0.80622,0.23925 2.40176,0.23925 1.77748,0 2.40095,-0.071 2.39866,-0.27292 z"
       id="path7010" />
  </g>
</svg>
