<?xml version="1.0" encoding="UTF-8" standalone="no"?>
<svg
   xmlns:dc="http://purl.org/dc/elements/1.1/"
   xmlns:cc="http://creativecommons.org/ns#"
   xmlns:rdf="http://www.w3.org/1999/02/22-rdf-syntax-ns#"
   xmlns:svg="http://www.w3.org/2000/svg"
   xmlns="http://www.w3.org/2000/svg"
   xmlns:xlink="http://www.w3.org/1999/xlink"
   xmlns:sodipodi="http://sodipodi.sourceforge.net/DTD/sodipodi-0.dtd"
   xmlns:inkscape="http://www.inkscape.org/namespaces/inkscape"
   width="389mm"
   height="150mm"
   viewBox="0 0 389 150"
   version="1.1"
   id="svg2146"
   inkscape:version="1.0.1 (3bc2e813f5, 2020-09-07)"
   sodipodi:docname="unity.svg">
  <title
     id="title1091">Colored Badge Template</title>
  <defs
     id="defs2140">
    <linearGradient
       inkscape:collect="always"
       id="linearGradient901">
      <stop
         style="stop-color:#186eb2;stop-opacity:1"
         offset="0"
         id="stop897" />
      <stop
         style="stop-color:#2196f3;stop-opacity:1"
         offset="1"
         id="stop899" />
    </linearGradient>
    <linearGradient
       inkscape:collect="always"
       id="linearGradient2974">
      <stop
         style="stop-color:#000000;stop-opacity:1"
         offset="0"
         id="stop2970" />
      <stop
         style="stop-color:#404040;stop-opacity:1"
         offset="1"
         id="stop2972" />
    </linearGradient>
    <linearGradient
       inkscape:collect="always"
       xlink:href="#linearGradient2974"
       id="linearGradient1030"
       gradientUnits="userSpaceOnUse"
       x1="-8.5265128e-14"
       y1="150"
       x2="-8.5265128e-14"
       y2="0"
       gradientTransform="scale(0.78531329,1)" />
    <linearGradient
       inkscape:collect="always"
       xlink:href="#linearGradient901"
       id="linearGradient1038"
       x1="-8.5265128e-14"
       y1="150"
       x2="-8.5265128e-14"
       y2="0"
       gradientUnits="userSpaceOnUse"
       gradientTransform="translate(6.086914e-6,-1.5253906e-5)" />
    <linearGradient
       inkscape:collect="always"
       xlink:href="#linearGradient901"
       id="linearGradient1038-0"
       x1="-8.5265128e-14"
       y1="150"
       x2="-8.5265128e-14"
       y2="0"
       gradientUnits="userSpaceOnUse"
       gradientTransform="matrix(0.17738398,0,0,1,123.3924,0)" />
  </defs>
  <sodipodi:namedview
     id="base"
     pagecolor="#ffffff"
     bordercolor="#666666"
     borderopacity="1.0"
     inkscape:pageopacity="0.0"
     inkscape:pageshadow="2"
     inkscape:zoom="0.26173197"
     inkscape:cx="846.48379"
     inkscape:cy="167.745"
     inkscape:document-units="mm"
     inkscape:current-layer="layer3"
     inkscape:document-rotation="0"
     showgrid="false"
     inkscape:snap-bbox="true"
     inkscape:window-width="1920"
     inkscape:window-height="1017"
     inkscape:window-x="-8"
     inkscape:window-y="-8"
     inkscape:window-maximized="1" />
  <metadata
     id="metadata2143">
    <rdf:RDF>
      <cc:Work
         rdf:about="">
        <dc:format>image/svg+xml</dc:format>
        <dc:type
           rdf:resource="http://purl.org/dc/dcmitype/StillImage" />
        <dc:title>Colored Badge Template</dc:title>
      </cc:Work>
    </rdf:RDF>
  </metadata>
  <g
     inkscape:label="Text Background"
     inkscape:groupmode="layer"
     id="layer1">
    <rect
       style="opacity:0.996;fill:url(#linearGradient1030);fill-opacity:1;stroke-width:4.66751;stroke-linecap:square;paint-order:stroke fill markers"
       id="rect7"
       width="389"
       height="150"
       x="-8.5265128e-14"
       y="0"
       ry="15.000003" />
  </g>
  <g
     inkscape:groupmode="layer"
     id="layer4"
     inkscape:label="Text">
    <text
       xml:space="preserve"
       style="font-style:normal;font-weight:normal;font-size:67.3688px;line-height:1.25;font-family:sans-serif;fill:#ffffff;fill-opacity:1;stroke:none;stroke-width:0.350876"
       x="179.1447"
       y="99.309486"
       id="text13"><tspan
         sodipodi:role="line"
         id="tspan11"
         x="179.1447"
         y="99.309486"
         style="font-size:67.3688px;fill:#ffffff;stroke-width:0.350876">Unity</tspan></text>
  </g>
  <g
     inkscape:groupmode="layer"
     id="layer3"
     inkscape:label="Logo Background">
    <rect
       style="opacity:0.996;fill:url(#linearGradient1038);fill-opacity:1;stroke-width:2.89838;stroke-linecap:square;paint-order:stroke fill markers"
       id="rect7-3"
       width="150"
       height="150"
       x="6.6757202e-06"
       y="-1.5258789e-05"
       ry="15" />
    <rect
       style="opacity:0.996;fill:url(#linearGradient1038-0);fill-opacity:1.0;stroke-width:1.22071;stroke-linecap:square;paint-order:stroke fill markers"
       id="rect7-3-0"
       width="26.607597"
       height="150"
       x="123.3924"
       y="0" />
    <circle
       style="opacity:0.996;fill:#ffffff;fill-opacity:1;stroke-width:1.35962;stroke-linecap:square;paint-order:stroke fill markers"
       id="path903"
       cx="77.5"
       cy="75"
       r="37.5" />
    <g
       id="g64"
       transform="matrix(1.4824989,0,0,1.4824989,-811.6529,215.6652)">
      <path
         style="fill:#9a9a9a;stroke-width:0.264583"
         d="m 600.29477,-61.33378 c 0.097,-0.09701 0.25576,-0.09701 0.35277,0 0.097,0.09701 0.0176,0.17639 -0.17638,0.17639 -0.19403,0 -0.27341,-0.07937 -0.17639,-0.17639 z m -15.03716,-8.505584 -14.02291,-8.123681 -0.0681,-16.961212 -0.0681,-16.961213 14.35469,-8.28615 c 8.42533,-4.86346 14.62827,-8.28562 15.01703,-8.28486 0.67395,0.001 29.36964,16.40064 29.36964,16.78449 0,0.32545 -0.99691,-0.22703 -15.39979,-8.53448 -7.52401,-4.33978 -13.81682,-7.8905 -13.98404,-7.8905 -0.16721,0 -6.58479,3.62851 -14.26129,8.06337 -7.6765,4.43485 -14.15314,8.13852 -14.39253,8.23039 -0.39756,0.15255 -0.43526,1.60488 -0.43526,16.766455 0,15.482836 0.0312,16.625879 0.46302,16.992554 0.25466,0.216218 6.53521,3.883559 13.95677,8.149648 7.42156,4.266089 13.60686,7.858106 13.7451,7.982262 0.87617,0.786865 -1.74882,-0.670896 -14.27427,-7.927073 z m 16.66875,7.822565 c 0.40846,-0.297273 3.52015,-2.113576 6.54844,-3.822348 0.10914,-0.06158 0.19844,-0.05434 0.19844,0.01611 0,0.127056 -6.47898,3.918257 -7.00292,4.097782 -0.15022,0.05147 -0.035,-0.07972 0.25604,-0.291536 z m 7.14375,-4.094927 c 0.2042,-0.207968 15.19273,-8.925575 16.40417,-9.540972 0.17639,-0.0896 0.17639,-0.04458 0,0.135062 -0.2042,0.207967 -15.19272,8.925575 -16.40417,9.540972 -0.17639,0.0896 -0.17639,0.04458 0,-0.135062 z m -17.393,-11.916544 c -4.47292,-2.580963 -8.1341,-4.837594 -8.13594,-5.014735 -0.003,-0.320342 4.46667,-3.087164 5.7871,-3.582072 0.60663,-0.22737 1.09142,-0.02566 3.93607,1.637694 1.78432,1.04335 3.3619,1.824273 3.50573,1.735383 0.15657,-0.09677 0.2615,-2.0677 0.2615,-4.911791 v -4.75017 l -1.38906,-0.87916 c -2.28421,-1.445712 -6.69154,-3.876767 -7.02831,-3.876767 -0.22753,0 -0.31388,1.044133 -0.31388,3.79545 0,3.279889 -0.0629,3.851947 -0.46302,4.211352 -0.77243,0.693824 -5.98498,3.605524 -6.20795,3.467724 -0.11451,-0.07077 -0.20819,-4.637061 -0.20819,-10.147313 v -10.018635 l 3.77031,-2.18803 c 9.83669,-5.70855 13.30024,-7.63974 13.55151,-7.55598 0.17171,0.0572 0.27297,1.59262 0.27297,4.13893 v 4.04795 l -3.17407,1.81418 c -1.74574,0.9978 -3.20707,1.91321 -3.24742,2.03425 -0.0887,0.26609 7.32857,4.548039 7.87819,4.548039 0.43672,0 7.936,-4.252909 7.936,-4.500589 0,-0.0878 -1.45851,-1.00327 -3.24114,-2.03446 l -3.24115,-1.87489 v -4.06326 c 0,-3.69896 0.0413,-4.06 0.46054,-4.02692 0.2533,0.02 4.15118,2.1631 8.66197,4.76249 l 8.20142,4.72617 0.003,9.988021 c 0.002,7.663955 -0.0717,9.98802 -0.31843,9.98802 -0.36837,0 -4.86783,-2.525969 -5.56541,-3.124393 -0.40108,-0.344069 -0.46302,-0.906039 -0.46302,-4.200958 0,-3.154783 -0.0684,-3.830016 -0.40109,-3.957667 -0.38661,-0.148357 -6.17597,2.982701 -7.99943,4.326329 l -0.8599,0.633619 v 4.865711 c 0,3.118548 0.0999,4.927478 0.27833,5.037727 0.15308,0.09461 1.7598,-0.672272 3.57049,-1.704178 1.81069,-1.031904 3.45338,-1.87619 3.65041,-1.87619 0.57719,0 5.86222,3.149455 5.86222,3.493413 0,0.374377 -16.12181,9.737386 -16.75727,9.73206 -0.24235,-0.0021 -4.10031,-2.115389 -8.57323,-4.696354 z m 16.856,-0.222478 c 4.44269,-2.56187 8.0776,-4.734761 8.07756,-4.828645 -6e-5,-0.137248 -4.55869,-2.842763 -5.33609,-3.16693 -0.11318,-0.0472 -1.68733,0.767122 -3.49812,1.809596 -1.81078,1.042474 -3.51064,1.853449 -3.77746,1.802167 -0.44778,-0.08606 -0.49065,-0.4918 -0.55672,-5.269396 -0.0646,-4.673942 -0.0261,-5.216491 0.39687,-5.591884 0.25766,-0.228651 2.26222,-1.44463 4.45459,-2.702176 2.60794,-1.49592 4.1402,-2.227321 4.43177,-2.115434 0.38946,0.149452 0.44616,0.659432 0.4497,4.045307 0.002,2.130861 0.0915,4.001066 0.19843,4.156006 0.15788,0.228798 4.64913,2.922241 5.41457,3.247162 0.11569,0.04911 0.1791,-4.280267 0.14092,-9.620839 l -0.0694,-9.710126 -7.9375,-4.59442 c -4.36563,-2.52693 -8.08969,-4.59716 -8.2757,-4.60051 -0.26184,-0.005 -0.32158,0.80906 -0.26458,3.60448 l 0.0736,3.61058 3.24115,1.87607 c 1.89477,1.09674 3.24114,2.04268 3.24114,2.27716 0,0.4353 -7.77271,5.029775 -8.50912,5.029775 -0.73789,0 -8.42421,-4.587535 -8.42421,-5.027945 0,-0.23949 1.32626,-1.17641 3.24114,-2.28966 l 3.24115,-1.8843 0.0736,-3.60113 c 0.0544,-2.66124 -0.009,-3.60113 -0.24322,-3.60113 -0.31085,0 -14.47592,8.06635 -15.90383,9.05649 l -0.7276,0.50454 v 9.491371 c 0,5.220253 0.0947,9.549894 0.21044,9.621427 0.11574,0.07153 1.48143,-0.60605 3.03487,-1.505739 l 2.82442,-1.635799 0.074,-3.940302 c 0.0594,-3.16489 0.15242,-3.989697 0.47253,-4.191307 0.29559,-0.186166 1.42334,0.343014 4.36563,2.0485 2.18189,1.264729 4.1159,2.421254 4.29781,2.570059 0.24389,0.199519 0.33073,1.61663 0.33073,5.397529 0,4.908298 -0.022,5.126979 -0.51639,5.126979 -0.28402,0 -1.9591,-0.8397 -3.72242,-1.866001 l -3.20603,-1.866003 -2.90395,1.632218 c -1.59717,0.89772 -2.85909,1.766779 -2.80427,1.931244 0.096,0.287975 15.72168,9.428958 16.11796,9.428958 0.10693,0 3.82935,-2.096074 8.27205,-4.657942 z m 17.33804,2.44135 c 0,-0.07632 0.77365,-0.571405 1.71921,-1.100193 0.94556,-0.528788 1.83491,-1.159695 1.97633,-1.402011 0.14142,-0.242319 0.26074,-0.310203 0.26517,-0.150857 0.004,0.159348 -0.20032,0.468294 -0.45498,0.686546 -0.606,0.519361 -3.50573,2.145945 -3.50573,1.966515 z"
         id="path72" />
      <path
         style="fill:#7d7d7d;stroke-width:0.264583"
         d="m 599.66166,-61.787813 c -0.20962,-0.194281 -6.45332,-3.842996 -13.87488,-8.108253 -7.42156,-4.265258 -13.70211,-7.931917 -13.95677,-8.148135 -0.43187,-0.366675 -0.46302,-1.509718 -0.46302,-16.992554 0,-15.161575 0.0377,-16.613905 0.43526,-16.766455 0.23939,-0.0919 6.71603,-3.79554 14.39253,-8.23039 7.6765,-4.43486 14.0938,-8.06337 14.26068,-8.06337 0.16688,0 6.63828,3.63896 14.38091,8.08657 7.74262,4.44762 14.25609,8.18128 14.47437,8.29704 0.34623,0.1836 0.39726,2.31667 0.39993,16.71811 l 0.003,16.507653 -0.0712,-16.479385 c -0.0593,-13.715538 -0.13241,-16.502878 -0.43616,-16.619428 -0.20072,-0.077 -2.46201,1.07471 -5.02507,2.55942 l -4.66012,2.69947 v 10.017355 c 0,9.739441 -0.0142,10.01736 -0.51355,10.01736 -0.28245,0 -0.58027,-0.107958 -0.66182,-0.239909 -0.0815,-0.13195 0.09,-0.177593 0.38126,-0.101433 0.52281,0.136718 0.52949,0.01127 0.52639,-9.880404 l -0.003,-10.018879 -8.20142,-4.72617 c -4.51079,-2.59939 -8.40867,-4.74251 -8.66197,-4.76249 -0.41925,-0.0331 -0.46054,0.32796 -0.46054,4.02692 v 4.06326 l 3.24115,1.87489 c 1.78263,1.03119 3.24114,1.9467 3.24114,2.03446 0,0.24768 -7.49928,4.500589 -7.936,4.500589 -0.54962,0 -7.96689,-4.281949 -7.87819,-4.548039 0.0403,-0.12104 1.50168,-1.03645 3.24742,-2.03425 l 3.17407,-1.81418 v -4.04795 c 0,-2.54631 -0.10126,-4.0817 -0.27297,-4.13893 -0.25127,-0.0838 -3.71482,1.84743 -13.55151,7.55598 l -3.77031,2.18803 v 10.018635 c 0,5.510252 0.0937,10.076542 0.20819,10.147313 0.22297,0.1378 5.43552,-2.7739 6.20795,-3.467724 0.40013,-0.359405 0.46302,-0.931463 0.46302,-4.211352 0,-2.751317 0.0863,-3.79545 0.31388,-3.79545 0.33677,0 4.7441,2.431055 7.02831,3.876767 l 1.38906,0.87916 v 4.75017 c 0,2.844091 -0.10493,4.815025 -0.2615,4.911791 -0.14383,0.08889 -1.72141,-0.692033 -3.50573,-1.735383 -2.84465,-1.663359 -3.32944,-1.865064 -3.93607,-1.637694 -1.32015,0.494805 -5.79043,3.261698 -5.78731,3.582072 0.003,0.331819 15.85198,9.572426 16.7979,9.79402 l 0.52917,0.123962 -0.52917,0.02909 c -0.4964,0.02729 -16.26082,-8.871831 -17.01837,-9.606983 -0.28943,-0.280869 -0.28012,-0.408805 0.0541,-0.743011 0.50215,-0.502153 6.05876,-3.640624 6.44566,-3.640624 0.15566,0 1.73389,0.833437 3.50717,1.852083 1.77327,1.018646 3.2753,1.852083 3.33783,1.852083 0.0625,0 0.0812,-2.157735 0.0416,-4.794967 l -0.0721,-4.794966 -3.82932,-2.216492 c -2.10612,-1.21907 -3.92182,-2.216491 -4.03489,-2.216491 -0.11307,0 -0.20558,1.644118 -0.20558,3.653597 0,2.520336 -0.10259,3.785121 -0.33073,4.077631 -0.57871,0.741974 -6.54558,4.019132 -6.81935,3.745362 -0.14795,-0.147947 -0.2804,-4.387911 -0.32117,-10.281208 l -0.0694,-10.029421 -4.49792,-2.5923 c -2.47385,-1.42576 -4.5881,-2.59326 -4.69834,-2.59444 -0.11023,-0.001 -0.16976,7.45867 -0.13229,16.577448 l 0.0681,16.579587 13.89063,8.037269 c 7.63984,4.420496 14.06822,8.142628 14.28529,8.271401 0.21707,0.128772 0.32905,0.299759 0.24884,0.379971 -0.0802,0.08021 -0.31734,-0.01312 -0.52696,-0.207405 z m 1.60324,-0.03104 c 0,-0.07276 0.0595,-0.132292 0.1323,-0.132292 0.0728,0 0.13229,0.05953 0.13229,0.132292 0,0.07276 -0.0595,0.132291 -0.13229,0.132291 -0.0728,0 -0.1323,-0.05953 -0.1323,-0.132291 z m 0.66146,-0.396875 c 0.0899,-0.145521 0.22305,-0.264584 0.29582,-0.264584 0.0728,0 0.0587,0.119063 -0.0312,0.264584 -0.0899,0.145521 -0.22306,0.264583 -0.29582,0.264583 -0.0728,0 -0.0587,-0.119062 0.0312,-0.264583 z m 0.66146,-0.396875 c 0,-0.07276 0.0595,-0.132292 0.13229,-0.132292 0.0728,0 0.13229,0.05953 0.13229,0.132292 0,0.07276 -0.0595,0.132291 -0.13229,0.132291 -0.0728,0 -0.13229,-0.05953 -0.13229,-0.132291 z m 0.66146,-0.396875 c 0.0899,-0.145521 0.22305,-0.264584 0.29581,-0.264584 0.0728,0 0.0587,0.119063 -0.0312,0.264584 -0.0899,0.145521 -0.22305,0.264583 -0.29581,0.264583 -0.0728,0 -0.0587,-0.119062 0.0312,-0.264583 z m 0.66146,-0.396875 c 0,-0.07276 0.0595,-0.132292 0.13229,-0.132292 0.0728,0 0.13229,0.05953 0.13229,0.132292 0,0.07276 -0.0595,0.132291 -0.13229,0.132291 -0.0728,0 -0.13229,-0.05953 -0.13229,-0.132291 z m 0.52916,-0.264584 c 0,-0.07276 0.0595,-0.132291 0.1323,-0.132291 0.0728,0 0.13229,0.05953 0.13229,0.132291 0,0.07276 -0.0595,0.132292 -0.13229,0.132292 -0.0728,0 -0.1323,-0.05953 -0.1323,-0.132292 z m 0.66146,-0.396875 c 0.0899,-0.14552 0.22305,-0.264583 0.29582,-0.264583 0.0728,0 0.0587,0.119063 -0.0312,0.264583 -0.0899,0.145521 -0.22306,0.264584 -0.29582,0.264584 -0.0728,0 -0.0587,-0.119063 0.0312,-0.264584 z m 0.66146,-0.396875 c 0,-0.07276 0.0595,-0.132291 0.13229,-0.132291 0.0728,0 0.13229,0.05953 0.13229,0.132291 0,0.07276 -0.0595,0.132292 -0.13229,0.132292 -0.0728,0 -0.13229,-0.05953 -0.13229,-0.132292 z m 0.52917,-0.264583 c 0,-0.07276 0.0595,-0.132291 0.13229,-0.132291 0.0728,0 0.13229,0.05953 0.13229,0.132291 0,0.07276 -0.0595,0.132292 -0.13229,0.132292 -0.0728,0 -0.13229,-0.05953 -0.13229,-0.132292 z m 0.66146,-0.396875 c 0.0899,-0.145521 0.22305,-0.264583 0.29581,-0.264583 0.0728,0 0.0587,0.119062 -0.0312,0.264583 -0.0899,0.145521 -0.22305,0.264584 -0.29581,0.264584 -0.0728,0 -0.0587,-0.119063 0.0312,-0.264584 z m 0.66145,-0.396875 c 0,-0.07276 0.0595,-0.132291 0.1323,-0.132291 0.0728,0 0.13229,0.05953 0.13229,0.132291 0,0.07276 -0.0595,0.132292 -0.13229,0.132292 -0.0728,0 -0.1323,-0.05953 -0.1323,-0.132292 z m 0.52917,-0.264583 c 0,-0.07276 0.0595,-0.132292 0.13229,-0.132292 0.0728,0 0.13229,0.05953 0.13229,0.132292 0,0.07276 -0.0595,0.132292 -0.13229,0.132292 -0.0728,0 -0.13229,-0.05953 -0.13229,-0.132292 z m 0.66146,-0.396875 c 0.0899,-0.145521 0.22305,-0.264583 0.29581,-0.264583 0.0728,0 0.0587,0.119062 -0.0312,0.264583 -0.0899,0.145521 -0.22305,0.264583 -0.29581,0.264583 -0.0728,0 -0.0587,-0.119062 0.0312,-0.264583 z m 0.66146,-0.396875 c 0,-0.07276 0.0595,-0.132292 0.13229,-0.132292 0.0728,0 0.13229,0.05953 0.13229,0.132292 0,0.07276 -0.0595,0.132292 -0.13229,0.132292 -0.0728,0 -0.13229,-0.05953 -0.13229,-0.132292 z m 0.66146,-0.396875 c 0.0899,-0.145521 0.22305,-0.264583 0.29581,-0.264583 0.0728,0 0.0587,0.119062 -0.0312,0.264583 -0.0899,0.145521 -0.22305,0.264583 -0.29581,0.264583 -0.0728,0 -0.0587,-0.119062 0.0312,-0.264583 z m 0.66145,-0.396875 c 0,-0.07276 0.0595,-0.132292 0.1323,-0.132292 0.0728,0 0.13229,0.05953 0.13229,0.132292 0,0.07276 -0.0595,0.132292 -0.13229,0.132292 -0.0728,0 -0.1323,-0.05953 -0.1323,-0.132292 z m 0.52917,-0.264583 c 0,-0.07276 0.0595,-0.132292 0.13229,-0.132292 0.0728,0 0.13229,0.05953 0.13229,0.132292 0,0.07276 -0.0595,0.132291 -0.13229,0.132291 -0.0728,0 -0.13229,-0.05953 -0.13229,-0.132291 z m 0.66146,-0.396875 c 0.0899,-0.145521 0.22305,-0.264584 0.29581,-0.264584 0.0728,0 0.0587,0.119063 -0.0312,0.264584 -0.0899,0.14552 -0.22305,0.264583 -0.29581,0.264583 -0.0728,0 -0.0587,-0.119063 0.0312,-0.264583 z m 0.66146,-0.396875 c 0,-0.07276 0.0595,-0.132292 0.13229,-0.132292 0.0728,0 0.13229,0.05953 0.13229,0.132292 0,0.07276 -0.0595,0.132291 -0.13229,0.132291 -0.0728,0 -0.13229,-0.05953 -0.13229,-0.132291 z m 0.52916,-0.264584 c 0,-0.07276 0.0595,-0.132291 0.1323,-0.132291 0.0728,0 0.13229,0.05953 0.13229,0.132291 0,0.07276 -0.0595,0.132292 -0.13229,0.132292 -0.0728,0 -0.1323,-0.05953 -0.1323,-0.132292 z m 0.66146,-0.396875 c 0.0899,-0.14552 0.22305,-0.264583 0.29581,-0.264583 0.0728,0 0.0587,0.119063 -0.0312,0.264583 -0.0899,0.145521 -0.22306,0.264584 -0.29582,0.264584 -0.0728,0 -0.0587,-0.119063 0.0312,-0.264584 z m 0.66146,-0.396875 c 0,-0.07276 0.0595,-0.132291 0.13229,-0.132291 0.0728,0 0.13229,0.05953 0.13229,0.132291 0,0.07276 -0.0595,0.132292 -0.13229,0.132292 -0.0728,0 -0.13229,-0.05953 -0.13229,-0.132292 z m 0.66146,-0.396875 c 0.0899,-0.14552 0.22305,-0.264583 0.29581,-0.264583 0.0728,0 0.0587,0.119063 -0.0312,0.264583 -0.0899,0.145521 -0.22305,0.264584 -0.29581,0.264584 -0.0728,0 -0.0587,-0.119063 0.0312,-0.264584 z m 0.66146,-0.396875 c 0,-0.07276 0.0595,-0.132291 0.13229,-0.132291 0.0728,0 0.13229,0.05953 0.13229,0.132291 0,0.07276 -0.0595,0.132292 -0.13229,0.132292 -0.0728,0 -0.13229,-0.05953 -0.13229,-0.132292 z m 0.52916,-0.264583 c 0,-0.07276 0.0595,-0.132292 0.1323,-0.132292 0.0728,0 0.13229,0.05953 0.13229,0.132292 0,0.07276 -0.0595,0.132292 -0.13229,0.132292 -0.0728,0 -0.1323,-0.05953 -0.1323,-0.132292 z m 0.66146,-0.396875 c 0.0899,-0.145521 0.22305,-0.264583 0.29581,-0.264583 0.0728,0 0.0587,0.119062 -0.0312,0.264583 -0.0899,0.145521 -0.22306,0.264583 -0.29582,0.264583 -0.0728,0 -0.0587,-0.119062 0.0312,-0.264583 z m 0.66146,-0.396875 c 0,-0.07276 0.0595,-0.132291 0.13229,-0.132291 0.0728,0 0.13229,0.05953 0.13229,0.132291 0,0.07276 -0.0595,0.132292 -0.13229,0.132292 -0.0728,0 -0.13229,-0.05953 -0.13229,-0.132292 z m 0.52917,-0.264583 c 0,-0.07276 0.0595,-0.132292 0.13229,-0.132292 0.0728,0 0.13229,0.05953 0.13229,0.132292 0,0.07276 -0.0595,0.132292 -0.13229,0.132292 -0.0728,0 -0.13229,-0.05953 -0.13229,-0.132292 z m 0.66146,-0.396875 c 0.0899,-0.145521 0.22305,-0.264583 0.29581,-0.264583 0.0728,0 0.0587,0.119062 -0.0312,0.264583 -0.0899,0.145521 -0.22305,0.264583 -0.29581,0.264583 -0.0728,0 -0.0587,-0.119062 0.0312,-0.264583 z m 0.66145,-0.396875 c 0,-0.07276 0.0595,-0.132292 0.1323,-0.132292 0.0728,0 0.13229,0.05953 0.13229,0.132292 0,0.07276 -0.0595,0.132292 -0.13229,0.132292 -0.0728,0 -0.1323,-0.05953 -0.1323,-0.132292 z m 0.52917,-0.264583 c 0,-0.07276 0.0595,-0.132292 0.13229,-0.132292 0.0728,0 0.13229,0.05953 0.13229,0.132292 0,0.07276 -0.0595,0.132291 -0.13229,0.132291 -0.0728,0 -0.13229,-0.05953 -0.13229,-0.132291 z m 0.79375,-0.529167 c 0,-0.07276 0.0595,-0.132292 0.13229,-0.132292 0.0728,0 0.13229,0.05953 0.13229,0.132292 0,0.07276 -0.0595,0.132292 -0.13229,0.132292 -0.0728,0 -0.13229,-0.05953 -0.13229,-0.132292 z m -19.84375,-0.245965 c 0,-0.07276 0.23813,-0.259733 0.52917,-0.415493 0.29104,-0.155761 0.52916,-0.223671 0.52916,-0.150911 0,0.07276 -0.23812,0.259734 -0.52916,0.415494 -0.29104,0.15576 -0.52917,0.223671 -0.52917,0.15091 z m 20.37292,-0.01862 c 0,-0.07276 0.0595,-0.132292 0.13229,-0.132292 0.0728,0 0.13229,0.05953 0.13229,0.132292 0,0.07276 -0.0595,0.132291 -0.13229,0.132291 -0.0728,0 -0.13229,-0.05953 -0.13229,-0.132291 z m 0.66146,-0.396875 c 0.0899,-0.145521 0.22305,-0.264584 0.29581,-0.264584 0.0728,0 0.0587,0.119063 -0.0312,0.264584 -0.0899,0.14552 -0.22305,0.264583 -0.29581,0.264583 -0.0728,0 -0.0587,-0.119063 0.0312,-0.264583 z m -19.71146,-0.396875 c 0,-0.07276 0.0595,-0.132292 0.13229,-0.132292 0.0728,0 0.13229,0.05953 0.13229,0.132292 0,0.07276 -0.0595,0.132291 -0.13229,0.132291 -0.0728,0 -0.13229,-0.05953 -0.13229,-0.132291 z m 20.37291,0 c 0,-0.07276 0.0595,-0.132292 0.1323,-0.132292 0.0728,0 0.13229,0.05953 0.13229,0.132292 0,0.07276 -0.0595,0.132291 -0.13229,0.132291 -0.0728,0 -0.1323,-0.05953 -0.1323,-0.132291 z m -19.71145,-0.396875 c 0.0899,-0.145521 0.22305,-0.264584 0.29581,-0.264584 0.0728,0 0.0587,0.119063 -0.0312,0.264584 -0.0899,0.14552 -0.22305,0.264583 -0.29581,0.264583 -0.0728,0 -0.0587,-0.119063 0.0312,-0.264583 z m 20.24062,0.132291 c 0,-0.07276 0.0595,-0.132291 0.13229,-0.132291 0.0728,0 0.13229,0.05953 0.13229,0.132291 0,0.07276 -0.0595,0.132292 -0.13229,0.132292 -0.0728,0 -0.13229,-0.05953 -0.13229,-0.132292 z m 0.66146,-0.396875 c 0.0899,-0.14552 0.22305,-0.264583 0.29581,-0.264583 0.0728,0 0.0587,0.119063 -0.0312,0.264583 -0.0899,0.145521 -0.22305,0.264584 -0.29581,0.264584 -0.0728,0 -0.0587,-0.119063 0.0312,-0.264584 z m -20.24063,-0.132291 c 0,-0.07276 0.0595,-0.132292 0.1323,-0.132292 0.0728,0 0.13229,0.05953 0.13229,0.132292 0,0.07276 -0.0595,0.132291 -0.13229,0.132291 -0.0728,0 -0.1323,-0.05953 -0.1323,-0.132291 z m 0.52917,-0.264584 c 0,-0.07276 0.0595,-0.132291 0.13229,-0.132291 0.0728,0 0.13229,0.05953 0.13229,0.132291 0,0.07276 -0.0595,0.132292 -0.13229,0.132292 -0.0728,0 -0.13229,-0.05953 -0.13229,-0.132292 z m 20.37292,0 c 0,-0.07276 0.0595,-0.132291 0.13229,-0.132291 0.0728,0 0.13229,0.05953 0.13229,0.132291 0,0.07276 -0.0595,0.132292 -0.13229,0.132292 -0.0728,0 -0.13229,-0.05953 -0.13229,-0.132292 z m -19.71146,-0.396875 c 0.0899,-0.14552 0.22305,-0.264583 0.29581,-0.264583 0.0728,0 0.0587,0.119063 -0.0312,0.264583 -0.0899,0.145521 -0.22305,0.264584 -0.29581,0.264584 -0.0728,0 -0.0587,-0.119063 0.0312,-0.264584 z m 20.24062,0.132292 c 0,-0.07276 0.0595,-0.132292 0.1323,-0.132292 0.0728,0 0.13229,0.05953 0.13229,0.132292 0,0.07276 -0.0595,0.132292 -0.13229,0.132292 -0.0728,0 -0.1323,-0.05953 -0.1323,-0.132292 z m 0.66146,-0.396875 c 0.0899,-0.145521 0.22305,-0.264583 0.29581,-0.264583 0.0728,0 0.0587,0.119062 -0.0312,0.264583 -0.0899,0.145521 -0.22306,0.264583 -0.29582,0.264583 -0.0728,0 -0.0587,-0.119062 0.0312,-0.264583 z m -20.24062,-0.132292 c 0,-0.07276 0.0595,-0.132291 0.13229,-0.132291 0.0728,0 0.13229,0.05953 0.13229,0.132291 0,0.07276 -0.0595,0.132292 -0.13229,0.132292 -0.0728,0 -0.13229,-0.05953 -0.13229,-0.132292 z m 0.52916,-0.245964 c 0,-0.07276 0.23813,-0.259734 0.52917,-0.415494 0.29104,-0.15576 0.52917,-0.223671 0.52917,-0.15091 0,0.07276 -0.23813,0.259733 -0.52917,0.415493 -0.29104,0.155761 -0.52917,0.223671 -0.52917,0.150911 z m 20.37292,-0.01862 c 0,-0.07276 0.0595,-0.132292 0.13229,-0.132292 0.0728,0 0.13229,0.05953 0.13229,0.132292 0,0.07276 -0.0595,0.132292 -0.13229,0.132292 -0.0728,0 -0.13229,-0.05953 -0.13229,-0.132292 z m 0.66146,-0.396875 c 0.0899,-0.145521 0.22305,-0.264583 0.29581,-0.264583 0.0728,0 0.0587,0.119062 -0.0312,0.264583 -0.0899,0.145521 -0.22305,0.264583 -0.29581,0.264583 -0.0728,0 -0.0587,-0.119062 0.0312,-0.264583 z m -19.71146,-0.396875 c 0,-0.07276 0.0595,-0.132292 0.13229,-0.132292 0.0728,0 0.13229,0.05953 0.13229,0.132292 0,0.07276 -0.0595,0.132292 -0.13229,0.132292 -0.0728,0 -0.13229,-0.05953 -0.13229,-0.132292 z m 20.37292,0 c 0,-0.07276 0.0595,-0.132292 0.13229,-0.132292 0.0728,0 0.13229,0.05953 0.13229,0.132292 0,0.07276 -0.0595,0.132292 -0.13229,0.132292 -0.0728,0 -0.13229,-0.05953 -0.13229,-0.132292 z m -19.84375,-0.245964 c 0,-0.07276 0.23812,-0.259734 0.52916,-0.415494 0.29105,-0.15576 0.52917,-0.223671 0.52917,-0.150911 0,0.07276 -0.23812,0.259734 -0.52917,0.415494 -0.29104,0.15576 -0.52916,0.223671 -0.52916,0.150911 z m 20.37291,-0.01862 c 0,-0.07276 0.0595,-0.132292 0.1323,-0.132292 0.0728,0 0.13229,0.05953 0.13229,0.132292 0,0.07276 -0.0595,0.132291 -0.13229,0.132291 -0.0728,0 -0.1323,-0.05953 -0.1323,-0.132291 z m 0.52917,-0.232188 c 0,-0.05494 0.20836,-0.2633 0.46302,-0.463021 0.41965,-0.329107 0.429,-0.319749 0.0999,0.0999 -0.34565,0.44073 -0.56292,0.580888 -0.56292,0.363125 z m -19.57917,-0.561562 c 0,-0.07276 0.0595,-0.132292 0.1323,-0.132292 0.0728,0 0.13229,0.05953 0.13229,0.132292 0,0.07276 -0.0595,0.132292 -0.13229,0.132292 -0.0728,0 -0.1323,-0.05953 -0.1323,-0.132292 z m 0.66146,-0.396875 c 0.0899,-0.145521 0.22305,-0.264583 0.29581,-0.264583 0.0728,0 0.0587,0.119062 -0.0312,0.264583 -0.0899,0.145521 -0.22306,0.264583 -0.29582,0.264583 -0.0728,0 -0.0587,-0.119062 0.0312,-0.264583 z m 0.66146,-0.396875 c 0,-0.07276 0.0595,-0.132292 0.13229,-0.132292 0.0728,0 0.13229,0.05953 0.13229,0.132292 0,0.07276 -0.0595,0.132292 -0.13229,0.132292 -0.0728,0 -0.13229,-0.05953 -0.13229,-0.132292 z m 0.52917,-0.264583 c 0,-0.07276 0.0595,-0.132292 0.13229,-0.132292 0.0728,0 0.13229,0.05953 0.13229,0.132292 0,0.07276 -0.0595,0.132291 -0.13229,0.132291 -0.0728,0 -0.13229,-0.05953 -0.13229,-0.132291 z m 0.66146,-0.396875 c 0.0899,-0.145521 0.22305,-0.264584 0.29581,-0.264584 0.0728,0 0.0587,0.119063 -0.0312,0.264584 -0.0899,0.14552 -0.22305,0.264583 -0.29581,0.264583 -0.0728,0 -0.0587,-0.119063 0.0312,-0.264583 z m 0.66145,-0.396875 c 0,-0.07276 0.0595,-0.132292 0.1323,-0.132292 0.0728,0 0.13229,0.05953 0.13229,0.132292 0,0.07276 -0.0595,0.132291 -0.13229,0.132291 -0.0728,0 -0.1323,-0.05953 -0.1323,-0.132291 z m 0.52917,-0.245965 c 0,-0.07276 0.23813,-0.259734 0.52917,-0.415494 0.29104,-0.15576 0.52916,-0.223671 0.52916,-0.15091 0,0.07276 -0.23812,0.259733 -0.52916,0.415494 -0.29104,0.15576 -0.52917,0.22367 -0.52917,0.15091 z m 1.32292,-0.812369 c 0,-0.07276 0.0595,-0.132291 0.13229,-0.132291 0.0728,0 0.13229,0.05953 0.13229,0.132291 0,0.07276 -0.0595,0.132292 -0.13229,0.132292 -0.0728,0 -0.13229,-0.05953 -0.13229,-0.132292 z m 0.52916,-0.245964 c 0,-0.07276 0.23813,-0.259734 0.52917,-0.415494 0.29104,-0.15576 0.52917,-0.223671 0.52917,-0.15091 0,0.07276 -0.23813,0.259733 -0.52917,0.415493 -0.29104,0.155761 -0.52917,0.223671 -0.52917,0.150911 z m 1.32292,-0.812369 c 0,-0.07276 0.0595,-0.132292 0.13229,-0.132292 0.0728,0 0.13229,0.05953 0.13229,0.132292 0,0.07276 -0.0595,0.132292 -0.13229,0.132292 -0.0728,0 -0.13229,-0.05953 -0.13229,-0.132292 z m 0.76487,-0.451432 c 0.18646,-0.248285 0.25177,-0.605472 0.14514,-0.79375 -0.15614,-0.275667 -0.12415,-0.277556 0.16432,-0.0097 0.29924,0.277873 0.27536,0.408516 -0.14514,0.79375 -0.45317,0.415176 -0.46955,0.416142 -0.16432,0.0097 z m -13.08264,-0.549651 c -0.0717,-0.186793 -0.0948,-2.478746 -0.0513,-5.093229 l 0.079,-4.753604 0.0596,4.938889 c 0.0442,3.657476 0.14545,4.973513 0.39037,5.07234 0.25904,0.104527 0.25724,0.137981 -0.008,0.15434 -0.18647,0.01148 -0.39768,-0.131943 -0.46936,-0.318736 z m 0.94069,-0.05725 c 0,-0.07276 0.0595,-0.132292 0.13229,-0.132292 0.0728,0 0.13229,0.05953 0.13229,0.132292 0,0.07276 -0.0595,0.132291 -0.13229,0.132291 -0.0728,0 -0.13229,-0.05953 -0.13229,-0.132291 z m 0.52916,-0.264584 c 0,-0.07276 0.0595,-0.132291 0.1323,-0.132291 0.0728,0 0.13229,0.05953 0.13229,0.132291 0,0.07276 -0.0595,0.132292 -0.13229,0.132292 -0.0728,0 -0.1323,-0.05953 -0.1323,-0.132292 z m 0.66146,-0.396875 c 0.0899,-0.14552 0.22305,-0.264583 0.29582,-0.264583 0.0728,0 0.0587,0.119063 -0.0312,0.264583 -0.0899,0.145521 -0.22306,0.264584 -0.29582,0.264584 -0.0728,0 -0.0587,-0.119063 0.0312,-0.264584 z m 10.45104,0.132292 c 0,-0.07276 0.0595,-0.132292 0.1323,-0.132292 0.0728,0 0.13229,0.05953 0.13229,0.132292 0,0.07276 -0.0595,0.132292 -0.13229,0.132292 -0.0728,0 -0.1323,-0.05953 -0.1323,-0.132292 z m -0.94161,-0.543764 c -0.49319,-0.395126 -0.48995,-0.40001 0.0817,-0.122981 0.32742,0.158668 0.59531,0.343829 0.59531,0.41147 0,0.202464 -0.13721,0.143997 -0.67703,-0.288489 z m -8.84797,0.0146 c 0,-0.07276 0.0595,-0.132291 0.13229,-0.132291 0.0728,0 0.13229,0.05953 0.13229,0.132291 0,0.07276 -0.0595,0.132292 -0.13229,0.132292 -0.0728,0 -0.13229,-0.05953 -0.13229,-0.132292 z m 0.52917,-0.264583 c 0,-0.07276 0.0595,-0.132292 0.13229,-0.132292 0.0728,0 0.13229,0.05953 0.13229,0.132292 0,0.07276 -0.0595,0.132292 -0.13229,0.132292 -0.0728,0 -0.13229,-0.05953 -0.13229,-0.132292 z m 0.66146,-0.396875 c 0.0899,-0.145521 0.22305,-0.264583 0.29581,-0.264583 0.0728,0 0.0587,0.119062 -0.0312,0.264583 -0.0899,0.145521 -0.22305,0.264583 -0.29581,0.264583 -0.0728,0 -0.0587,-0.119062 0.0312,-0.264583 z m 6.74687,0.132292 c 0,-0.07276 0.0595,-0.132292 0.13229,-0.132292 0.0728,0 0.13229,0.05953 0.13229,0.132292 0,0.07276 -0.0595,0.132291 -0.13229,0.132291 -0.0728,0 -0.13229,-0.05953 -0.13229,-0.132291 z m -0.94162,-0.543764 c -0.49319,-0.395126 -0.48994,-0.40001 0.0817,-0.122981 0.32742,0.158668 0.59531,0.343829 0.59531,0.41147 0,0.202464 -0.13722,0.143996 -0.67704,-0.288489 z m -5.1438,0.0146 c 0,-0.07276 0.0595,-0.132291 0.1323,-0.132291 0.0728,0 0.13229,0.05953 0.13229,0.132291 0,0.07276 -0.0595,0.132292 -0.13229,0.132292 -0.0728,0 -0.1323,-0.05953 -0.1323,-0.132292 z m 0.52917,-0.245964 c 0,-0.07276 0.23813,-0.259734 0.52917,-0.415494 0.29104,-0.15576 0.52916,-0.223671 0.52916,-0.15091 0,0.07276 -0.23812,0.259733 -0.52916,0.415493 -0.29104,0.15576 -0.52917,0.223671 -0.52917,0.150911 z m 3.70417,-0.283202 c 0,-0.07276 0.0595,-0.132292 0.13229,-0.132292 0.0728,0 0.13229,0.05953 0.13229,0.132292 0,0.07276 -0.0595,0.132291 -0.13229,0.132291 -0.0728,0 -0.13229,-0.05953 -0.13229,-0.132291 z m -0.68673,-0.437756 c -0.11696,-0.189257 -0.0726,-0.233643 0.11668,-0.116676 0.305,0.1885 0.40949,0.42214 0.18879,0.42214 -0.0642,0 -0.20163,-0.137459 -0.30547,-0.305464 z m -1.69452,-0.09141 c 0,-0.07276 0.0595,-0.132292 0.13229,-0.132292 0.0728,0 0.13229,0.05953 0.13229,0.132292 0,0.07276 -0.0595,0.132292 -0.13229,0.132292 -0.0728,0 -0.13229,-0.05953 -0.13229,-0.132292 z m 0.74414,-0.313031 c 0.19099,-0.07643 0.4192,-0.06703 0.50712,0.02088 0.0879,0.08792 -0.0684,0.150453 -0.34727,0.138965 -0.30822,-0.0127 -0.37092,-0.07539 -0.15985,-0.159851 z m 6.66419,-0.216136 c 0,-0.07276 0.0595,-0.132291 0.13229,-0.132291 0.0728,0 0.13229,0.05953 0.13229,0.132291 0,0.07276 -0.0595,0.132292 -0.13229,0.132292 -0.0728,0 -0.13229,-0.05953 -0.13229,-0.132292 z m -0.52917,-0.264583 c 0,-0.07276 0.0595,-0.132292 0.1323,-0.132292 0.0728,0 0.13229,0.05953 0.13229,0.132292 0,0.07276 -0.0595,0.132292 -0.13229,0.132292 -0.0728,0 -0.1323,-0.05953 -0.1323,-0.132292 z m -0.68672,-0.437756 c -0.11697,-0.189256 -0.0726,-0.233643 0.11668,-0.116676 0.168,0.103833 0.30546,0.241292 0.30546,0.305464 0,0.2207 -0.23364,0.116211 -0.42214,-0.188788 z m -0.63619,-0.355994 c 0,-0.07276 0.0595,-0.132292 0.13229,-0.132292 0.0728,0 0.13229,0.05953 0.13229,0.132292 0,0.07276 -0.0595,0.132292 -0.13229,0.132292 -0.0728,0 -0.13229,-0.05953 -0.13229,-0.132292 z m -0.94162,-0.543764 c -0.49319,-0.395126 -0.48994,-0.40001 0.0817,-0.122981 0.32742,0.158668 0.59531,0.343829 0.59531,0.41147 0,0.202464 -0.13721,0.143997 -0.67703,-0.288489 z m -0.91047,-0.514569 c 0,-0.07276 0.0595,-0.132292 0.1323,-0.132292 0.0728,0 0.13229,0.05953 0.13229,0.132292 0,0.07276 -0.0595,0.132291 -0.13229,0.132291 -0.0728,0 -0.1323,-0.05953 -0.1323,-0.132291 z m -0.8275,-0.595313 c -0.3291,-0.419645 -0.31974,-0.429003 0.0999,-0.0999 0.25466,0.199721 0.46302,0.40808 0.46302,0.463021 0,0.217763 -0.21727,0.0776 -0.56292,-0.363125 z m -0.49635,-4.353221 c -0.0722,-2.139611 -0.0386,-3.79704 0.0748,-3.683177 0.11341,0.113863 0.17252,1.864453 0.13136,3.8902 l -0.0749,3.683177 z m -8.33344,0.582909 c 0.0899,-0.145521 0.22305,-0.264583 0.29582,-0.264583 0.0728,0 0.0587,0.119062 -0.0312,0.264583 -0.0899,0.145521 -0.22306,0.264583 -0.29582,0.264583 -0.0728,0 -0.0587,-0.119062 0.0312,-0.264583 z m 0.66146,-0.378256 c 0,-0.07276 0.23813,-0.259734 0.52917,-0.415494 0.29104,-0.15576 0.52916,-0.223671 0.52916,-0.15091 0,0.07276 -0.23812,0.259733 -0.52916,0.415493 -0.29104,0.15576 -0.52917,0.223671 -0.52917,0.150911 z m 1.32292,-0.812369 c 0,-0.07276 0.0595,-0.132292 0.13229,-0.132292 0.0728,0 0.13229,0.05953 0.13229,0.132292 0,0.07276 -0.0595,0.132292 -0.13229,0.132292 -0.0728,0 -0.13229,-0.05953 -0.13229,-0.132292 z m 0.66146,-0.396875 c 0.0899,-0.145521 0.22305,-0.264583 0.29581,-0.264583 0.0728,0 0.0587,0.119062 -0.0312,0.264583 -0.0899,0.145521 -0.22305,0.264583 -0.29581,0.264583 -0.0728,0 -0.0587,-0.119062 0.0312,-0.264583 z m 0.66145,-0.396875 c 0,-0.07276 0.0595,-0.132292 0.1323,-0.132292 0.0728,0 0.13229,0.05953 0.13229,0.132292 0,0.07276 -0.0595,0.132292 -0.13229,0.132292 -0.0728,0 -0.1323,-0.05953 -0.1323,-0.132292 z m 0.52917,-0.264583 c 0,-0.07276 0.0595,-0.132292 0.13229,-0.132292 0.0728,0 0.13229,0.05953 0.13229,0.132292 0,0.07276 -0.0595,0.132291 -0.13229,0.132291 -0.0728,0 -0.13229,-0.05953 -0.13229,-0.132291 z m 0.66146,-0.396875 c 0.0899,-0.145521 0.22305,-0.264584 0.29581,-0.264584 0.0728,0 0.0587,0.119063 -0.0312,0.264584 -0.0899,0.145521 -0.22305,0.264583 -0.29581,0.264583 -0.0728,0 -0.0587,-0.119062 0.0312,-0.264583 z m 0.66146,-0.396875 c 0,-0.07276 0.0595,-0.132292 0.13229,-0.132292 0.0728,0 0.13229,0.05953 0.13229,0.132292 0,0.07276 -0.0595,0.132291 -0.13229,0.132291 -0.0728,0 -0.13229,-0.05953 -0.13229,-0.132291 z m 0.52916,-0.245965 c 0,-0.07276 0.23813,-0.259733 0.52917,-0.415494 0.29104,-0.15576 0.52917,-0.22367 0.52917,-0.15091 0,0.07276 -0.23813,0.259734 -0.52917,0.415494 -0.29104,0.15576 -0.52917,0.223671 -0.52917,0.15091 z m 1.32292,-0.812369 c 0,-0.07276 0.0595,-0.132291 0.13229,-0.132291 0.0728,0 0.13229,0.05953 0.13229,0.132291 0,0.07276 -0.0595,0.132292 -0.13229,0.132292 -0.0728,0 -0.13229,-0.05953 -0.13229,-0.132292 z m 0.52917,-0.264583 c 0,-0.07276 0.0595,-0.132292 0.13229,-0.132292 0.0728,0 0.13229,0.05953 0.13229,0.132292 0,0.07276 -0.0595,0.132292 -0.13229,0.132292 -0.0728,0 -0.13229,-0.05953 -0.13229,-0.132292 z m -11.55347,-30.735758 c 0.097,-0.097 0.25576,-0.097 0.35277,0 0.097,0.097 0.0176,0.17639 -0.17638,0.17639 -0.19403,0 -0.27341,-0.0794 -0.17639,-0.17639 z"
         id="path70" />
      <path
         style="fill:#4c4c4c;stroke-width:0.264583"
         d="m 600.15401,-61.694663 c -0.0439,-0.122034 -6.44957,-3.90162 -14.23494,-8.399082 l -14.15521,-8.177198 -0.0681,-16.57864 c -0.0375,-9.118247 0.0221,-16.577677 0.13229,-16.576497 0.11024,0.001 2.22449,1.16868 4.69834,2.59444 l 4.49792,2.5923 0.0694,10.029417 c 0.0408,5.893297 0.17322,10.133261 0.32117,10.281208 0.27377,0.27377 6.24064,-3.003388 6.81935,-3.745362 0.22814,-0.29251 0.33073,-1.557295 0.33073,-4.077631 0,-2.009479 0.0925,-3.653597 0.20558,-3.653597 0.11307,0 1.92877,0.997421 4.03489,2.216491 l 3.82932,2.216492 0.0721,4.794966 c 0.0397,2.637232 0.021,4.794967 -0.0416,4.794967 -0.0625,0 -1.56456,-0.833437 -3.33783,-1.852083 -1.77328,-1.018646 -3.35151,-1.852083 -3.50717,-1.852083 -0.3869,0 -5.94351,3.138471 -6.44566,3.640624 -0.33421,0.334206 -0.34352,0.462142 -0.0541,0.743011 0.60987,0.591838 16.4714,9.636397 16.88608,9.628777 0.54387,-0.01 17.00428,-9.572008 17.12547,-9.948352 0.085,-0.264112 -5.67683,-3.799477 -6.19232,-3.799477 -0.10861,0 -1.64339,0.833437 -3.41061,1.852083 -1.76723,1.018646 -3.34932,1.852083 -3.51576,1.852083 -0.21638,0 -0.30261,-1.419111 -0.30261,-4.979862 v -4.979866 l 4.15143,-2.412936 c 2.28329,-1.327119 4.24782,-2.353371 4.36563,-2.280563 0.1178,0.07281 0.21419,1.779032 0.21419,3.791614 0,3.105634 0.0701,3.739845 0.46302,4.192031 0.54859,0.631251 5.49772,3.494583 6.04022,3.494583 0.31822,0 0.37592,-1.537542 0.37592,-10.01736 v -10.017355 l 4.66013,-2.69947 c 2.56306,-1.48471 4.82525,-2.6361 5.02708,-2.55865 0.30746,0.11798 0.36696,2.8166 0.36696,16.644566 0,15.389822 -0.0312,16.530624 -0.46302,16.901834 -0.25466,0.218943 -5.99943,3.586432 -12.76615,7.483311 -6.76671,3.896878 -13.0175,7.513624 -13.89062,8.037213 -1.68101,1.00806 -2.17221,1.183931 -2.30152,0.824053 z m 15.13381,-8.511601 13.89063,-8.048524 0.0681,-16.454423 c 0.0492,-11.865299 -0.0133,-16.454429 -0.22388,-16.454429 -0.16061,0 -2.30323,1.15772 -4.76137,2.57271 l -4.46936,2.57271 -0.0693,9.925291 c -0.0634,9.085082 -0.10722,9.932593 -0.51754,10.011557 -0.49666,0.09558 -5.97352,-2.938565 -6.49705,-3.59932 -0.22846,-0.288348 -0.33073,-1.547151 -0.33073,-4.071016 0,-2.757593 -0.0811,-3.64849 -0.33072,-3.632777 -0.18191,0.01146 -1.99761,0.999382 -4.0349,2.195401 l -3.70417,2.174582 -0.0721,4.816056 c -0.0397,2.648831 -7.2e-4,4.816057 0.0865,4.816057 0.0873,0 1.58561,-0.833437 3.32966,-1.852083 1.74406,-1.018646 3.29691,-1.852083 3.4508,-1.852083 0.66523,0 6.56217,3.595459 6.56431,4.002359 0.002,0.287891 -2.84604,2.074053 -8.5967,5.392375 l -8.59895,4.961887 v 5.420257 c 0,5.036867 0.0327,5.410766 0.46302,5.286094 0.25466,-0.07379 6.7138,-3.755993 14.35364,-8.182681 z"
         id="path68" />
      <path
         style="fill:#040404;stroke-width:0.264583"
         d="m 600.47116,-61.554265 c 0,-0.07276 0.0595,-0.132292 0.13229,-0.132292 0.0728,0 0.13229,0.05953 0.13229,0.132292 0,0.07276 -0.0595,0.132292 -0.13229,0.132292 -0.0728,0 -0.13229,-0.05953 -0.13229,-0.132292 z m 0,-5.755412 v -5.420257 l 8.59895,-4.961887 c 5.75066,-3.318322 8.59821,-5.104484 8.5967,-5.392375 -0.002,-0.4069 -5.89908,-4.002359 -6.56431,-4.002359 -0.15389,0 -1.70674,0.833437 -3.4508,1.852083 -1.74405,1.018646 -3.2424,1.852083 -3.32966,1.852083 -0.0873,0 -0.12621,-2.167226 -0.0865,-4.816057 l 0.0721,-4.816056 3.70417,-2.174582 c 2.03729,-1.196019 3.85299,-2.18395 4.0349,-2.195401 0.24962,-0.01572 0.33072,0.875184 0.33072,3.632777 0,2.523865 0.10227,3.782668 0.33073,4.071016 0.52353,0.660755 6.00039,3.694901 6.49705,3.59932 0.41032,-0.07896 0.45413,-0.926475 0.51754,-10.011557 l 0.0693,-9.925291 4.46936,-2.57271 c 2.45814,-1.41499 4.60076,-2.57271 4.76137,-2.57271 0.21059,0 0.27303,4.58913 0.22388,16.454429 l -0.0681,16.454423 -13.89063,8.048524 c -7.63984,4.426688 -14.09898,8.108894 -14.35364,8.182681 -0.43027,0.124672 -0.46302,-0.249227 -0.46302,-5.286094 z"
         id="path66" />
    </g>
  </g>
  <g
     inkscape:groupmode="layer"
     id="layer2"
     inkscape:label="Logo" />
</svg>
