<?xml version="1.0" encoding="UTF-8" standalone="no"?>
<svg
   xmlns:dc="http://purl.org/dc/elements/1.1/"
   xmlns:cc="http://creativecommons.org/ns#"
   xmlns:rdf="http://www.w3.org/1999/02/22-rdf-syntax-ns#"
   xmlns:svg="http://www.w3.org/2000/svg"
   xmlns="http://www.w3.org/2000/svg"
   xmlns:xlink="http://www.w3.org/1999/xlink"
   xmlns:sodipodi="http://sodipodi.sourceforge.net/DTD/sodipodi-0.dtd"
   xmlns:inkscape="http://www.inkscape.org/namespaces/inkscape"
   width="450mm"
   height="150mm"
   viewBox="0 0 450 150"
   version="1.1"
   id="svg2146"
   inkscape:version="1.0.1 (3bc2e813f5, 2020-09-07)"
   sodipodi:docname="docker.svg">
  <title
     id="title1091">Colored Badge Template</title>
  <defs
     id="defs2140">
    <linearGradient
       inkscape:collect="always"
       id="linearGradient981">
      <stop
         style="stop-color:#1c75b9;stop-opacity:1"
         offset="0"
         id="stop977" />
      <stop
         style="stop-color:#2495ec;stop-opacity:1"
         offset="1"
         id="stop979" />
    </linearGradient>
    <linearGradient
       inkscape:collect="always"
       id="linearGradient2974">
      <stop
         style="stop-color:#000000;stop-opacity:1"
         offset="0"
         id="stop2970" />
      <stop
         style="stop-color:#404040;stop-opacity:1"
         offset="1"
         id="stop2972" />
    </linearGradient>
    <linearGradient
       inkscape:collect="always"
       xlink:href="#linearGradient2974"
       id="linearGradient1030"
       gradientUnits="userSpaceOnUse"
       x1="-8.5265128e-14"
       y1="150"
       x2="-8.5265128e-14"
       y2="0"
       gradientTransform="scale(0.90846008,1)" />
    <linearGradient
       inkscape:collect="always"
       xlink:href="#linearGradient981"
       id="linearGradient1038"
       x1="-8.5265128e-14"
       y1="150"
       x2="-8.5265128e-14"
       y2="0"
       gradientUnits="userSpaceOnUse"
       gradientTransform="translate(6.086914e-6,-1.5253906e-5)" />
    <linearGradient
       inkscape:collect="always"
       xlink:href="#linearGradient981"
       id="linearGradient1038-0"
       x1="-8.5265128e-14"
       y1="150"
       x2="-8.5265128e-14"
       y2="0"
       gradientUnits="userSpaceOnUse"
       gradientTransform="matrix(0.17738398,0,0,1,123.3924,0)" />
  </defs>
  <sodipodi:namedview
     id="base"
     pagecolor="#ffffff"
     bordercolor="#666666"
     borderopacity="1.0"
     inkscape:pageopacity="0.0"
     inkscape:pageshadow="2"
     inkscape:zoom="0.32"
     inkscape:cx="804.10448"
     inkscape:cy="493.58411"
     inkscape:document-units="mm"
     inkscape:current-layer="layer1"
     inkscape:document-rotation="0"
     showgrid="false"
     inkscape:snap-bbox="true"
     inkscape:window-width="1920"
     inkscape:window-height="1017"
     inkscape:window-x="-8"
     inkscape:window-y="-8"
     inkscape:window-maximized="1" />
  <metadata
     id="metadata2143">
    <rdf:RDF>
      <cc:Work
         rdf:about="">
        <dc:format>image/svg+xml</dc:format>
        <dc:type
           rdf:resource="http://purl.org/dc/dcmitype/StillImage" />
        <dc:title>Colored Badge Template</dc:title>
      </cc:Work>
    </rdf:RDF>
  </metadata>
  <g
     inkscape:label="Text Background"
     inkscape:groupmode="layer"
     id="layer1">
    <rect
       style="opacity:0.996;fill:url(#linearGradient1030);fill-opacity:1;stroke-width:5.02015;stroke-linecap:square;paint-order:stroke fill markers"
       id="rect7"
       width="450"
       height="150"
       x="-8.5265128e-14"
       y="0"
       ry="15.000003" />
  </g>
  <g
     inkscape:groupmode="layer"
     id="layer4"
     inkscape:label="Text">
    <text
       xml:space="preserve"
       style="font-style:normal;font-weight:normal;font-size:67.3688px;line-height:1.25;font-family:sans-serif;fill:#ffffff;fill-opacity:1;stroke:none;stroke-width:0.350876"
       x="178.42102"
       y="98.980537"
       id="text13"><tspan
         sodipodi:role="line"
         id="tspan11"
         x="178.42102"
         y="98.980537"
         style="font-size:67.3688px;fill:#ffffff;stroke-width:0.350876">Docker</tspan></text>
  </g>
  <g
     inkscape:groupmode="layer"
     id="layer3"
     inkscape:label="Logo Background">
    <rect
       style="opacity:0.996;fill:url(#linearGradient1038);fill-opacity:1;stroke-width:2.89838;stroke-linecap:square;paint-order:stroke fill markers"
       id="rect7-3"
       width="150"
       height="150"
       x="6.6757202e-06"
       y="-1.5258789e-05"
       ry="15" />
    <rect
       style="opacity:0.996;fill:url(#linearGradient1038-0);fill-opacity:1;stroke-width:1.22071;stroke-linecap:square;paint-order:stroke fill markers"
       id="rect7-3-0"
       width="26.607597"
       height="150"
       x="123.3924"
       y="0" />
  </g>
  <g
     inkscape:groupmode="layer"
     id="layer2"
     inkscape:label="Logo">
    <path
       style="fill:#ffffff;stroke-width:0.0997154"
       d="m 63.304983,109.3373 c -3.34805,-0.21503 -6.79427,-0.71432 -9.57268,-1.3869 -6.78649,-1.64283 -11.06383,-4.27874 -14.5338,-8.956495 -4.16102,-5.60931 -6.66405,-14.12008 -6.78112,-23.05709 -0.0236,-1.80316 -0.0183,-1.8572 0.23521,-2.39772 0.34303,-0.73136 0.75823,-1.18867 1.40399,-1.54639 l 0.53037,-0.29381 34.00294,-0.052 c 32.196677,-0.0492 34.058467,-0.0615 35.048067,-0.23203 2.0695,-0.35658 4.5685,-1.12594 4.88124,-1.50277 0.0792,-0.0955 -0.0213,-0.37163 -0.39036,-1.07274 -0.61324,-1.16486 -1.12322,-2.69596 -1.34995,-4.05295 -0.23349,-1.39753 -0.16139,-4.11349 0.14704,-5.53898 0.30931,-1.42951 0.83128,-2.93044 1.51299,-4.35067 0.56808,-1.18348 1.6931,-3.0098 2.02243,-3.28312 0.12809,-0.10631 0.32417,-0.0246 1.21553,0.50624 3.61403,2.15246 6.23605,5.65228 7.18443,9.58959 0.14767,0.61308 0.29597,1.14758 0.32954,1.18778 0.0336,0.0402 0.32324,0.0304 0.64368,-0.0218 1.36917,-0.22284 3.44954,-0.30939 4.86907,-0.20258 2.31365,0.17409 4.09421,0.61475 5.66665,1.40244 0.75436,0.37788 1.93321,1.22979 2.03054,1.46738 0.0726,0.17724 -0.3876,1.42196 -0.87374,2.36328 -0.57493,1.11325 -1.43733,2.24963 -2.47996,3.26789 -2.6425,2.58068 -6.13085,3.95145 -10.51682,4.13265 l -1.51279,0.0625 -0.37106,0.90708 c -1.35533,3.31324 -3.10045,6.91816 -4.5459,9.39046 -8.24453,14.10138 -21.117407,21.892685 -38.873867,23.528345 -1.97894,0.18229 -7.96282,0.26812 -9.92167,0.14232 z M 41.123873,69.460855 c -0.10662,-0.10663 -0.22101,-0.34221 -0.25418,-0.52351 -0.0332,-0.1813 -0.0469,-2.09479 -0.0305,-4.25219 l 0.0298,-3.92256 0.27978,-0.24058 0.27977,-0.24057 h 4.61776 c 4.52067,0 4.62328,0.004 4.88049,0.20667 l 0.26274,0.20667 v 4.28054 c 0,4.14758 -0.006,4.28673 -0.19943,4.47997 -0.19384,0.19383 -0.33239,0.19943 -4.93591,0.19943 -4.55823,0 -4.74378,-0.007 -4.93035,-0.19387 z m 12.16527,0 c -0.10663,-0.10663 -0.22125,-0.34221 -0.25472,-0.52351 -0.0335,-0.1813 -0.0472,-2.09479 -0.0305,-4.25221 l 0.0304,-3.92257 0.27978,-0.24056 0.27978,-0.24056 h 4.62564 4.62564 l 0.27978,0.24057 0.27978,0.24058 0.0298,3.92256 c 0.0164,2.1574 0.003,4.07089 -0.0305,4.25219 -0.0332,0.1813 -0.14755,0.41688 -0.25418,0.52351 -0.18657,0.18657 -0.37212,0.19387 -4.93035,0.19387 -4.55823,0 -4.74378,-0.007 -4.93035,-0.19387 z m 12.36471,0 c -0.10663,-0.10663 -0.22101,-0.34221 -0.25418,-0.52351 -0.0332,-0.1813 -0.0469,-2.09479 -0.0305,-4.25219 l 0.0298,-3.92256 0.27978,-0.24058 0.27977,-0.24057 h 4.62564 4.62565 l 0.27978,0.24056 0.27977,0.24056 0.0303,3.92257 c 0.0167,2.15742 0.003,4.07091 -0.0305,4.25221 -0.0335,0.1813 -0.14809,0.41688 -0.25472,0.52351 -0.18657,0.18657 -0.37211,0.19387 -4.93034,0.19387 -4.55823,0 -4.74378,-0.007 -4.93035,-0.19387 z m 12.16695,-0.0689 c -0.20162,-0.25631 -0.20667,-0.36494 -0.20667,-4.44188 v -4.17915 l 0.24475,-0.24475 0.24476,-0.24476 h 4.69569 4.69568 l 0.24476,0.24476 0.24476,0.24475 v 4.17915 c 0,4.07694 -0.005,4.18557 -0.20667,4.44188 l -0.20667,0.26274 h -4.77186 -4.77186 z m 12.36303,0.0689 c -0.10663,-0.10663 -0.22126,-0.34221 -0.25472,-0.52351 -0.0335,-0.1813 -0.0472,-2.09479 -0.0305,-4.25221 l 0.0304,-3.92257 0.27978,-0.24056 0.27978,-0.24056 h 4.62564 4.62564 l 0.279777,0.24057 0.27978,0.24058 0.0298,3.92256 c 0.0164,2.1574 0.003,4.07089 -0.0305,4.25219 -0.0332,0.1813 -0.14755,0.41688 -0.25418,0.52351 -0.186577,0.18657 -0.372117,0.19387 -4.930347,0.19387 -4.55823,0 -4.74377,-0.007 -4.93035,-0.19387 z m -36.86976,-11.31457 -0.27978,-0.24056 -0.0304,-3.92257 c -0.0167,-2.15742 -0.003,-4.07091 0.0305,-4.25221 0.0335,-0.1813 0.14809,-0.41688 0.25472,-0.52351 0.18657,-0.18657 0.37211,-0.19387 4.93034,-0.19387 4.55824,0 4.74378,0.007 4.93035,0.19387 0.10663,0.10663 0.22125,0.34221 0.25472,0.52351 0.0335,0.1813 0.0472,2.09479 0.0305,4.25221 l -0.0304,3.92257 -0.27978,0.24056 -0.27978,0.24056 h -4.62562 -4.62565 z m 12.36471,-10e-6 -0.27978,-0.24058 -0.0298,-3.92255 c -0.0164,-2.15741 -0.003,-4.0709 0.0305,-4.2522 0.0332,-0.1813 0.14755,-0.41688 0.25418,-0.52351 0.18657,-0.18657 0.37212,-0.19387 4.93035,-0.19387 4.55823,0 4.74377,0.007 4.93035,0.19387 0.10663,0.10663 0.22125,0.34221 0.25472,0.52351 0.0335,0.1813 0.0472,2.09479 0.0305,4.25221 l -0.0303,3.92257 -0.27978,0.24056 -0.27978,0.24056 h -4.62564 -4.62564 z m 12.18292,-0.001 -0.24757,-0.24758 v -4.17915 c 0,-4.07695 0.005,-4.18558 0.20667,-4.44189 l 0.20667,-0.26273 h 4.77186 4.77186 l 0.20667,0.26274 c 0.20158,0.25627 0.20667,0.36512 0.20667,4.4263 0,3.95038 -0.01,4.17562 -0.19057,4.39897 l -0.19056,0.23541 -4.74706,0.0277 -4.74706,0.0277 -0.24758,-0.24758 z m -0.0409,-11.3884 c -0.20162,-0.25631 -0.20667,-0.36494 -0.20667,-4.44188 v -4.17915 l 0.24475,-0.24475 0.24476,-0.24526 h 4.69569 4.69568 l 0.24476,0.24476 0.24476,0.24475 v 4.17915 c 0,4.07694 -0.005,4.18557 -0.20667,4.44188 l -0.20667,0.26274 h -4.77186 -4.77186 z"
       id="path962"
       sodipodi:nodetypes="sssssscsssssssssssssssssscssssssscccsscsssssssscccccccsssssscsscccccccssssccsscccccccsscccsssscccccccssssssccscsssssccccccccsssssssccccccccsscccssscccccsscccccccsscccs" />
  </g>
</svg>
