<?xml version="1.0" encoding="UTF-8" standalone="no"?>
<svg
   xmlns:dc="http://purl.org/dc/elements/1.1/"
   xmlns:cc="http://creativecommons.org/ns#"
   xmlns:rdf="http://www.w3.org/1999/02/22-rdf-syntax-ns#"
   xmlns:svg="http://www.w3.org/2000/svg"
   xmlns="http://www.w3.org/2000/svg"
   xmlns:xlink="http://www.w3.org/1999/xlink"
   xmlns:sodipodi="http://sodipodi.sourceforge.net/DTD/sodipodi-0.dtd"
   xmlns:inkscape="http://www.inkscape.org/namespaces/inkscape"
   width="445mm"
   height="150mm"
   viewBox="0 0 445 150"
   version="1.1"
   id="svg2146"
   inkscape:version="1.0.1 (3bc2e813f5, 2020-09-07)"
   sodipodi:docname="gitlab.svg">
  <title
     id="title1091">Colored Badge Template</title>
  <defs
     id="defs2140">
    <linearGradient
       inkscape:collect="always"
       id="linearGradient2974">
      <stop
         style="stop-color:#000000;stop-opacity:1"
         offset="0"
         id="stop2970" />
      <stop
         style="stop-color:#404040;stop-opacity:1"
         offset="1"
         id="stop2972" />
    </linearGradient>
    <linearGradient
       inkscape:collect="always"
       xlink:href="#linearGradient2974"
       id="linearGradient1030"
       gradientUnits="userSpaceOnUse"
       x1="-8.5265128e-14"
       y1="150"
       x2="-8.5265128e-14"
       y2="0"
       gradientTransform="scale(0.89836605,1)" />
    <linearGradient
       inkscape:collect="always"
       xlink:href="#linearGradient1138"
       id="linearGradient1038-4"
       x1="-8.5265128e-14"
       y1="150"
       x2="-8.5265128e-14"
       y2="0"
       gradientUnits="userSpaceOnUse"
       gradientTransform="translate(6.8115233e-6)" />
    <linearGradient
       inkscape:collect="always"
       xlink:href="#linearGradient1138"
       id="linearGradient1038-0-4"
       x1="-8.5265128e-14"
       y1="150"
       x2="-8.5265128e-14"
       y2="0"
       gradientUnits="userSpaceOnUse"
       gradientTransform="matrix(0.17738398,0,0,1,123.3924,1.8017578e-5)" />
    <linearGradient
       inkscape:collect="always"
       id="linearGradient1138">
      <stop
         style="stop-color:#d3d3d3;stop-opacity:1"
         offset="0"
         id="stop1134" />
      <stop
         style="stop-color:#ffffff;stop-opacity:1"
         offset="1"
         id="stop1136" />
    </linearGradient>
  </defs>
  <sodipodi:namedview
     id="base"
     pagecolor="#ffffff"
     bordercolor="#666666"
     borderopacity="1.0"
     inkscape:pageopacity="0.0"
     inkscape:pageshadow="2"
     inkscape:zoom="0.43703673"
     inkscape:cx="804.10448"
     inkscape:cy="493.58411"
     inkscape:document-units="mm"
     inkscape:current-layer="layer1"
     inkscape:document-rotation="0"
     showgrid="false"
     inkscape:snap-bbox="true"
     inkscape:window-width="1920"
     inkscape:window-height="1017"
     inkscape:window-x="-8"
     inkscape:window-y="-8"
     inkscape:window-maximized="1" />
  <metadata
     id="metadata2143">
    <rdf:RDF>
      <cc:Work
         rdf:about="">
        <dc:format>image/svg+xml</dc:format>
        <dc:type
           rdf:resource="http://purl.org/dc/dcmitype/StillImage" />
        <dc:title>Colored Badge Template</dc:title>
      </cc:Work>
    </rdf:RDF>
  </metadata>
  <g
     inkscape:label="Text Background"
     inkscape:groupmode="layer"
     id="layer1">
    <rect
       style="opacity:0.996;fill:url(#linearGradient1030);fill-opacity:1;stroke-width:4.99218;stroke-linecap:square;paint-order:stroke fill markers"
       id="rect7"
       width="445"
       height="150"
       x="-8.5265128e-14"
       y="0"
       ry="15.000003" />
  </g>
  <g
     inkscape:groupmode="layer"
     id="layer4"
     inkscape:label="Text">
    <text
       xml:space="preserve"
       style="font-style:normal;font-weight:normal;font-size:67.3688px;line-height:1.25;font-family:sans-serif;fill:#ffffff;fill-opacity:1;stroke:none;stroke-width:0.350876"
       x="185"
       y="98.980537"
       id="text13"><tspan
         sodipodi:role="line"
         id="tspan11"
         x="185"
         y="98.980537"
         style="font-size:67.3688px;fill:#ffffff;stroke-width:0.350876">GitLab</tspan></text>
  </g>
  <g
     inkscape:groupmode="layer"
     id="layer3"
     inkscape:label="Logo Background" />
  <g
     inkscape:groupmode="layer"
     id="layer2"
     inkscape:label="Logo">
    <rect
       style="opacity:0.996;fill:url(#linearGradient1038-4);fill-opacity:1;stroke-width:2.89838;stroke-linecap:square;paint-order:stroke fill markers"
       id="rect7-3-1"
       width="150"
       height="150"
       x="-8.5265128e-14"
       y="0"
       ry="15" />
    <rect
       style="opacity:0.996;fill:url(#linearGradient1038-0-4);fill-opacity:1;stroke-width:1.22071;stroke-linecap:square;paint-order:stroke fill markers"
       id="rect7-3-0-6"
       width="26.607597"
       height="150"
       x="123.39241"
       y="1.5258789e-05" />
    <g
       id="g3503"
       transform="matrix(0.54707232,0,0,0.54707232,137.69393,1.4155731)">
      <path
         style="fill:#faa126;stroke-width:0.264583"
         d="m -136.21397,195.91497 c -11.70076,-8.50304 -31.80816,-23.11796 -44.68312,-32.47761 -26.18328,-19.03433 -24.83345,-17.88695 -25.07225,-21.31199 -0.12207,-1.75076 -0.005,-2.15921 5.21063,-18.19513 2.93452,-9.0223 5.3783,-16.52323 5.43061,-16.66875 0.0523,-0.14552 0.10522,0.0331 0.11757,0.39687 0.0155,0.45791 12.09724,16.14097 39.26057,50.96352 21.58096,27.66614 39.67321,50.8238 40.205,51.46146 0.8152,0.97751 1.04111,1.11366 1.44001,0.86786 0.43742,-0.26954 79.235442,-100.99088 80.207262,-102.52266 0.426693,-0.67255 0.529976,-0.39059 5.669655,15.47812 4.576803,14.13083 5.23385,16.37219 5.225521,17.8256 -0.0108,1.88277 -0.763013,3.67697 -2.035373,4.85474 -1.306827,1.20968 -88.995425,64.78803 -89.357005,64.78803 -0.18973,0 -9.91832,-6.95703 -21.61908,-15.46006 z m -12.2562,-88.42677 c -0.24307,-0.63344 -0.0536,-0.68208 0.32091,-0.0824 0.17763,0.28443 0.21562,0.51713 0.0844,0.51713 -0.13118,0 -0.31359,-0.19563 -0.40535,-0.43474 z m 67.370097,0.0646 c 0.187639,-0.20361 0.382849,-0.33059 0.433803,-0.28219 0.156934,0.14908 -0.240808,0.65237 -0.515562,0.65237 -0.142672,0 -0.105879,-0.16658 0.08176,-0.37018 z m 47.04012,-0.42357 c 0,-0.19402 0.07937,-0.2734 0.176389,-0.17638 0.09701,0.097 0.09701,0.25576 0,0.35277 -0.09701,0.097 -0.176389,0.0176 -0.176389,-0.17639 z m -161.131247,-0.5292 c 0,-0.19403 0.0794,-0.2734 0.17639,-0.17639 0.097,0.097 0.097,0.25576 0,0.35278 -0.097,0.097 -0.17639,0.0176 -0.17639,-0.17639 z m 114.56458,0 c 0,-0.19403 0.07937,-0.2734 0.17639,-0.17639 0.09701,0.097 0.09701,0.25576 0,0.35278 -0.09701,0.097 -0.17639,0.0176 -0.17639,-0.17639 z m -68.2625,-0.26459 c 0,-0.19402 0.0794,-0.2734 0.17639,-0.17638 0.097,0.097 0.097,0.25576 0,0.35277 -0.097,0.097 -0.17639,0.0176 -0.17639,-0.17639 z m 114.194167,-1.21708 c -0.255768,-0.81139 -0.417407,-1.52287 -0.359199,-1.58108 0.05821,-0.0582 0.315098,0.55803 0.570865,1.36941 0.255768,0.81139 0.417407,1.52288 0.359199,1.58109 -0.05821,0.0582 -0.315098,-0.55803 -0.570865,-1.36942 z m -160.231667,0.68792 c 0,-0.19403 0.0794,-0.2734 0.17639,-0.17639 0.097,0.097 0.097,0.25576 0,0.35278 -0.097,0.097 -0.17639,0.0176 -0.17639,-0.17639 z m 114.564583,0 c 0,-0.19403 0.07937,-0.2734 0.17639,-0.17639 0.09701,0.097 0.09701,0.25576 0,0.35278 -0.09701,0.097 -0.17639,0.0176 -0.17639,-0.17639 z m -68.791663,-0.26459 c 0,-0.19402 0.0794,-0.2734 0.17639,-0.17638 0.097,0.097 0.097,0.25576 0,0.35277 -0.097,0.097 -0.17639,0.0176 -0.17639,-0.17639 z m -45.50834,-0.52916 c 0,-0.19403 0.0794,-0.2734 0.17639,-0.17639 0.097,0.097 0.097,0.25576 0,0.35278 -0.097,0.097 -0.17639,0.0176 -0.17639,-0.17639 z m 114.564587,0 c 0,-0.19403 0.07937,-0.2734 0.176389,-0.17639 0.09701,0.097 0.09701,0.25576 0,0.35278 -0.09701,0.097 -0.176389,0.0176 -0.176389,-0.17639 z m -69.320837,-0.26459 c 0,-0.19402 0.0794,-0.2734 0.17639,-0.17638 0.097,0.097 0.097,0.25576 0,0.35277 -0.097,0.097 -0.17639,0.0176 -0.17639,-0.17639 z m -44.97916,-0.52916 c 0,-0.19403 0.0794,-0.2734 0.17639,-0.17639 0.097,0.097 0.097,0.25576 0,0.35278 -0.097,0.097 -0.17639,0.0176 -0.17639,-0.17639 z m 114.56458,0 c 0,-0.19403 0.07937,-0.2734 0.17639,-0.17639 0.09701,0.097 0.09701,0.25576 0,0.35278 -0.09701,0.097 -0.17639,0.0176 -0.17639,-0.17639 z m -70.22042,-1.48167 c -0.25576,-0.81139 -0.4174,-1.52287 -0.35919,-1.58108 0.0582,-0.0582 0.31509,0.55803 0.57086,1.36941 0.25577,0.81139 0.41741,1.52288 0.3592,1.58109 -0.0582,0.0582 -0.3151,-0.55803 -0.57087,-1.36942 z m -44.07958,0.68792 c 0,-0.19403 0.0794,-0.2734 0.17639,-0.17639 0.097,0.097 0.097,0.25576 0,0.35278 -0.097,0.097 -0.17639,0.0176 -0.17639,-0.17639 z m 114.564583,0 c 0,-0.19403 0.07937,-0.2734 0.17639,-0.17639 0.09701,0.097 0.09701,0.25576 0,0.35278 -0.09701,0.097 -0.17639,0.0176 -0.17639,-0.17639 z m 44.185417,-0.52917 c 0,-0.19403 0.07937,-0.2734 0.17639,-0.17639 0.09701,0.097 0.09701,0.25577 0,0.35278 -0.09701,0.097 -0.17639,0.0176 -0.17639,-0.17639 z m -158.44516,-0.26458 c 0,-0.21828 0.16048,-0.8136 0.35662,-1.32292 0.19614,-0.50932 0.35661,-0.74745 0.35661,-0.52917 0,0.21829 -0.16047,0.8136 -0.35661,1.32292 -0.19614,0.50932 -0.35662,0.74745 -0.35662,0.52917 z m 114.524327,0 c 0,-0.19403 0.07937,-0.2734 0.176389,-0.17639 0.09701,0.097 0.09701,0.25576 0,0.35278 -0.09701,0.097 -0.176389,0.0176 -0.176389,-0.17639 z m 43.65625,-0.52917 c 0,-0.19403 0.07937,-0.2734 0.176389,-0.17639 0.09701,0.097 0.09701,0.25577 0,0.35278 -0.09701,0.097 -0.176389,0.0176 -0.176389,-0.17639 z m -43.391667,-0.26458 c 0,-0.19403 0.07937,-0.2734 0.17639,-0.17639 0.09701,0.097 0.09701,0.25576 0,0.35278 -0.09701,0.097 -0.17639,0.0176 -0.17639,-0.17639 z m 43.127083,-0.52917 c 0,-0.19403 0.07937,-0.2734 0.17639,-0.17639 0.09701,0.097 0.09701,0.25577 0,0.35278 -0.09701,0.097 -0.17639,0.0176 -0.17639,-0.17639 z m -42.8625,-0.26458 c 0,-0.19403 0.07937,-0.2734 0.17639,-0.17639 0.09701,0.097 0.09701,0.25576 0,0.35278 -0.09701,0.097 -0.17639,0.0176 -0.17639,-0.17639 z m -71.966663,-0.52917 c 0,-0.19403 0.0794,-0.2734 0.17639,-0.17639 0.097,0.097 0.097,0.25577 0,0.35278 -0.097,0.097 -0.17639,0.0176 -0.17639,-0.17639 z m 114.56458,0 c 0,-0.19403 0.07937,-0.2734 0.17639,-0.17639 0.09701,0.097 0.09701,0.25577 0,0.35278 -0.09701,0.097 -0.17639,0.0176 -0.17639,-0.17639 z m -42.293074,-0.26458 c 0,-0.21828 0.160477,-0.813595 0.356616,-1.322918 0.196138,-0.509323 0.356616,-0.747448 0.356616,-0.529167 0,0.218281 -0.160478,0.813594 -0.356616,1.322917 -0.196139,0.509318 -0.356616,0.747448 -0.356616,0.529168 z M -193.07454,99.985445 c 0,-0.194027 0.0794,-0.273402 0.17639,-0.17639 0.097,0.09701 0.097,0.255765 0,0.352775 -0.097,0.097 -0.17639,0.0176 -0.17639,-0.176385 z m 42.06875,-0.264583 c 0,-0.194027 0.0794,-0.273402 0.17639,-0.17639 0.097,0.09701 0.097,0.255765 0,0.352779 -0.097,0.09701 -0.17639,0.01764 -0.17639,-0.176389 z m 114.564587,0 c 0,-0.194027 0.07937,-0.273402 0.176389,-0.17639 0.09701,0.09701 0.09701,0.255765 0,0.352779 -0.09701,0.09701 -0.176389,0.01764 -0.176389,-0.176389 z M -192.80995,99.191695 c 0,-0.194027 0.0794,-0.273402 0.17639,-0.17639 0.097,0.09701 0.097,0.255765 0,0.35278 -0.097,0.09701 -0.17639,0.01764 -0.17639,-0.17639 z m 41.53958,-0.264583 c 0,-0.194027 0.0794,-0.273402 0.17639,-0.17639 0.097,0.09701 0.097,0.255765 0,0.352779 -0.097,0.09701 -0.17639,0.01764 -0.17639,-0.176389 z m 114.564583,0 c 0,-0.194027 0.07937,-0.273402 0.17639,-0.17639 0.09701,0.09701 0.09701,0.255765 0,0.352779 -0.09701,0.09701 -0.17639,0.01764 -0.17639,-0.176389 z M -192.54537,98.397945 c 0,-0.194027 0.0794,-0.273402 0.17639,-0.17639 0.097,0.09701 0.097,0.255765 0,0.35278 -0.097,0.09701 -0.17639,0.01764 -0.17639,-0.17639 z m 41.01042,-0.264583 c 0,-0.194027 0.0794,-0.273402 0.17639,-0.17639 0.097,0.09702 0.097,0.255765 0,0.352779 -0.097,0.09701 -0.17639,0.01764 -0.17639,-0.176389 z m 114.56458,0 c 0,-0.194027 0.07938,-0.273402 0.17639,-0.17639 0.09701,0.09702 0.09701,0.255765 0,0.352779 -0.09701,0.09701 -0.17639,0.01764 -0.17639,-0.176389 z m -155.31042,-0.529167 c 0,-0.194027 0.0794,-0.273402 0.17639,-0.17639 0.097,0.09701 0.097,0.255765 0,0.35278 -0.097,0.09701 -0.17639,0.01764 -0.17639,-0.17639 z m 114.564587,0 c 0,-0.194027 0.07937,-0.273402 0.176389,-0.17639 0.09701,0.09701 0.09701,0.255765 0,0.35278 -0.09701,0.09701 -0.176389,0.01764 -0.176389,-0.17639 z m -74.083337,-0.264583 c 0,-0.194027 0.0794,-0.273402 0.17639,-0.17639 0.097,0.09701 0.097,0.255765 0,0.352779 -0.097,0.09701 -0.17639,0.01764 -0.17639,-0.176389 z m 114.564587,0 c 0,-0.194027 0.07937,-0.273402 0.176389,-0.17639 0.09701,0.09701 0.09701,0.255765 0,0.352779 -0.09701,0.09701 -0.176389,0.01764 -0.176389,-0.176389 z M -192.0162,96.810445 c 0,-0.194027 0.0794,-0.273402 0.17639,-0.17639 0.097,0.09701 0.097,0.255765 0,0.35278 -0.097,0.09701 -0.17639,0.01764 -0.17639,-0.17639 z m 114.56458,0 c 0,-0.194027 0.07937,-0.273402 0.17639,-0.17639 0.09701,0.09701 0.09701,0.255765 0,0.35278 -0.09702,0.09701 -0.17639,0.01764 -0.17639,-0.17639 z m -74.6125,-0.264583 c 0,-0.194027 0.0794,-0.273402 0.17639,-0.17639 0.097,0.09701 0.097,0.255765 0,0.352779 -0.097,0.09701 -0.17639,0.01764 -0.17639,-0.176389 z m 114.564583,0 c 0,-0.194027 0.07937,-0.273402 0.17639,-0.17639 0.09701,0.09701 0.09701,0.255765 0,0.352779 -0.09701,0.09701 -0.17639,0.01764 -0.17639,-0.176389 z M -191.75162,96.016695 c 0,-0.194027 0.0794,-0.273402 0.17639,-0.17639 0.097,0.09701 0.097,0.255765 0,0.35278 -0.097,0.09701 -0.17639,0.01764 -0.17639,-0.17639 z m 114.564583,0 c 0,-0.194027 0.07937,-0.273402 0.17639,-0.17639 0.09701,0.09701 0.09701,0.255765 0,0.35278 -0.09701,0.09701 -0.17639,0.01764 -0.17639,-0.17639 z M -152.3287,95.752112 c 0,-0.194027 0.0794,-0.273402 0.17639,-0.17639 0.097,0.09701 0.097,0.255765 0,0.352779 -0.097,0.09701 -0.17639,0.01764 -0.17639,-0.176389 z m 114.194163,-1.217084 c -0.255767,-0.811387 -0.417406,-1.522872 -0.359198,-1.581081 0.05821,-0.05821 0.315098,0.558028 0.570865,1.369415 0.255767,0.811387 0.417407,1.522873 0.359198,1.581081 -0.05821,0.05821 -0.315097,-0.558028 -0.570865,-1.369415 z m -153.352503,0.687917 c 0,-0.194027 0.0794,-0.273402 0.17639,-0.17639 0.097,0.09701 0.097,0.255765 0,0.35278 -0.097,0.09701 -0.17639,0.01764 -0.17639,-0.17639 z m 114.564587,0 c 0,-0.194027 0.07937,-0.273402 0.176389,-0.17639 0.09701,0.09701 0.09701,0.255765 0,0.35278 -0.09701,0.09701 -0.176389,0.01764 -0.176389,-0.17639 z m -75.670837,-0.264583 c 0,-0.194027 0.0794,-0.273402 0.17639,-0.17639 0.097,0.09701 0.097,0.255765 0,0.352779 -0.097,0.09701 -0.17639,0.01764 -0.17639,-0.176389 z m -38.62916,-0.529167 c 0,-0.194027 0.0794,-0.273402 0.17639,-0.17639 0.097,0.09701 0.097,0.255765 0,0.35278 -0.097,0.09701 -0.17639,0.01764 -0.17639,-0.17639 z m 114.56458,0 c 0,-0.194027 0.07937,-0.273402 0.17639,-0.17639 0.09701,0.09701 0.09701,0.255765 0,0.35278 -0.09701,0.09701 -0.17639,0.01764 -0.17639,-0.17639 z m -76.2,-0.264583 c 0,-0.194027 0.0794,-0.273402 0.17639,-0.17639 0.097,0.09702 0.097,0.255765 0,0.352779 -0.097,0.09701 -0.17639,0.01764 -0.17639,-0.176389 z m -38.1,-0.529167 c 0,-0.194027 0.0794,-0.273402 0.17639,-0.17639 0.097,0.09701 0.097,0.255765 0,0.35278 -0.097,0.09701 -0.17639,0.01764 -0.17639,-0.17639 z m 114.564583,0 c 0,-0.194027 0.07937,-0.273402 0.17639,-0.17639 0.09701,0.09701 0.09701,0.255765 0,0.35278 -0.09701,0.09701 -0.17639,0.01764 -0.17639,-0.17639 z m -76.729163,-0.264583 c 0,-0.194027 0.0794,-0.273402 0.17639,-0.17639 0.097,0.09701 0.097,0.255765 0,0.35278 -0.097,0.09701 -0.17639,0.01764 -0.17639,-0.17639 z m -37.53058,-0.529167 c 0,-0.218281 0.16048,-0.813594 0.35662,-1.322917 0.19614,-0.509322 0.35661,-0.747447 0.35661,-0.529166 0,0.218281 -0.16047,0.813594 -0.35661,1.322916 -0.19614,0.509323 -0.35662,0.747448 -0.35662,0.529167 z m 114.524327,0 c 0,-0.194027 0.07937,-0.273402 0.176389,-0.17639 0.09701,0.09701 0.09701,0.255765 0,0.35278 -0.09701,0.09701 -0.176389,0.01764 -0.176389,-0.17639 z m -77.628747,-1.481667 c -0.25577,-0.811387 -0.41741,-1.522872 -0.3592,-1.581081 0.0582,-0.05821 0.3151,0.558028 0.57086,1.369415 0.25577,0.811387 0.41741,1.522873 0.3592,1.581081 -0.0582,0.05821 -0.3151,-0.558027 -0.57086,-1.369415 z m 114.934997,0.9525 c 0,-0.194026 0.07938,-0.273401 0.176389,-0.176389 0.09701,0.09701 0.09701,0.255764 0,0.352779 -0.09701,0.09701 -0.176389,0.01764 -0.176389,-0.17639 z M -75.86412,92.047945 c 0,-0.194027 0.07937,-0.273402 0.17639,-0.17639 0.09701,0.09701 0.09701,0.255765 0,0.35278 -0.09701,0.09701 -0.17639,0.01764 -0.17639,-0.17639 z m 36.777083,-0.529167 c 0,-0.194026 0.07937,-0.273401 0.17639,-0.176389 0.09701,0.09701 0.09701,0.255764 0,0.352779 -0.09702,0.09701 -0.17639,0.01764 -0.17639,-0.17639 z m -36.5125,-0.264583 c 0,-0.194027 0.07937,-0.273402 0.17639,-0.17639 0.09701,0.09701 0.09701,0.255765 0,0.35278 -0.09701,0.09701 -0.17639,0.01764 -0.17639,-0.17639 z m 36.247917,-0.529167 c 0,-0.194026 0.07937,-0.273401 0.17639,-0.176389 0.09701,0.09701 0.09701,0.255764 0,0.352779 -0.09701,0.09701 -0.17639,0.01764 -0.17639,-0.17639 z m -35.983333,-0.264583 c 0,-0.194027 0.07937,-0.273402 0.176389,-0.17639 0.09701,0.09701 0.09701,0.255765 0,0.35278 -0.09701,0.09701 -0.176389,0.01764 -0.176389,-0.17639 z M -189.89954,90.195862 c 0,-0.194027 0.0794,-0.273402 0.17639,-0.17639 0.097,0.09702 0.097,0.255765 0,0.35278 -0.097,0.09701 -0.17639,0.01764 -0.17639,-0.17639 z m 150.283337,-0.264584 c 0,-0.194026 0.07937,-0.273401 0.176389,-0.176389 0.09701,0.09701 0.09701,0.255764 0,0.352779 -0.09701,0.09701 -0.176389,0.01764 -0.176389,-0.17639 z m -35.413908,-0.264583 c 0,-0.218281 0.160478,-0.813594 0.356616,-1.322916 0.196138,-0.509323 0.356616,-0.747448 0.356616,-0.529167 0,0.218281 -0.160478,0.813594 -0.356616,1.322917 -0.196138,0.509322 -0.356616,0.747447 -0.356616,0.529166 z M -189.63495,89.402112 c 0,-0.194027 0.0794,-0.273402 0.17639,-0.17639 0.097,0.09701 0.097,0.255765 0,0.35278 -0.097,0.09701 -0.17639,0.01764 -0.17639,-0.17639 z m 35.18958,-0.264583 c 0,-0.194027 0.0794,-0.273402 0.17639,-0.17639 0.097,0.09701 0.097,0.255765 0,0.352779 -0.097,0.09701 -0.17639,0.01764 -0.17639,-0.176389 z m 114.564583,0 c 0,-0.194027 0.07937,-0.273402 0.17639,-0.17639 0.09701,0.09701 0.09701,0.255765 0,0.352779 -0.09701,0.09701 -0.17639,0.01764 -0.17639,-0.176389 z M -189.37037,88.608362 c 0,-0.194027 0.0794,-0.273402 0.17639,-0.17639 0.097,0.09701 0.097,0.255765 0,0.35278 -0.097,0.09701 -0.17639,0.01764 -0.17639,-0.17639 z m 34.66042,-0.264583 c 0,-0.194027 0.0794,-0.273402 0.17639,-0.17639 0.097,0.09701 0.097,0.255765 0,0.352779 -0.097,0.09701 -0.17639,0.01764 -0.17639,-0.176389 z m 114.56458,0 c 0,-0.194027 0.07937,-0.273402 0.17639,-0.17639 0.09701,0.09701 0.09701,0.255765 0,0.352779 -0.09701,0.09701 -0.17639,0.01764 -0.17639,-0.176389 z m -148.96042,-0.529167 c 0,-0.194027 0.0794,-0.273402 0.17639,-0.17639 0.097,0.09701 0.097,0.255765 0,0.35278 -0.097,0.09701 -0.17639,0.01764 -0.17639,-0.17639 z m 34.13125,-0.264583 c 0,-0.194027 0.0794,-0.273402 0.17639,-0.17639 0.097,0.09701 0.097,0.255765 0,0.352779 -0.097,0.09701 -0.17639,0.01764 -0.17639,-0.176389 z m 114.564587,0 c 0,-0.194027 0.07937,-0.273402 0.176389,-0.17639 0.09701,0.09701 0.09701,0.255765 0,0.352779 -0.09701,0.09701 -0.176389,0.01764 -0.176389,-0.176389 z M -188.8412,87.020862 c 0,-0.194027 0.0794,-0.273402 0.17639,-0.17639 0.097,0.09701 0.097,0.255765 0,0.35278 -0.097,0.09701 -0.17639,0.01764 -0.17639,-0.17639 z m 114.56458,0 c 0,-0.194027 0.07937,-0.273402 0.17639,-0.17639 0.09701,0.09701 0.09701,0.255765 0,0.35278 -0.09701,0.09701 -0.17639,0.01764 -0.17639,-0.17639 z m -80.9625,-0.264583 c 0,-0.194027 0.0794,-0.273402 0.17639,-0.17639 0.097,0.09701 0.097,0.255765 0,0.352779 -0.097,0.09701 -0.17639,0.01764 -0.17639,-0.176389 z m 114.564583,0 c 0,-0.194027 0.07937,-0.273402 0.17639,-0.17639 0.09701,0.09701 0.09701,0.255765 0,0.352779 -0.09701,0.09701 -0.17639,0.01764 -0.17639,-0.176389 z M -188.57662,86.227112 c 0,-0.194027 0.0794,-0.273402 0.17639,-0.17639 0.097,0.09702 0.097,0.255765 0,0.35278 -0.097,0.09701 -0.17639,0.01764 -0.17639,-0.17639 z m 114.564583,0 c 0,-0.194027 0.07938,-0.273402 0.17639,-0.17639 0.09701,0.09702 0.09701,0.255765 0,0.35278 -0.09701,0.09701 -0.17639,0.01764 -0.17639,-0.17639 z M -155.5037,85.962529 c 0,-0.194027 0.0794,-0.273402 0.17639,-0.17639 0.097,0.09701 0.097,0.255765 0,0.352779 -0.097,0.09701 -0.17639,0.01764 -0.17639,-0.176389 z m 114.56458,0 c 0,-0.194027 0.07938,-0.273402 0.17639,-0.17639 0.09701,0.09701 0.09701,0.255765 0,0.352779 -0.09701,0.09701 -0.17639,0.01764 -0.17639,-0.176389 z m -147.37292,-0.529167 c 0,-0.194027 0.0794,-0.273402 0.17639,-0.17639 0.097,0.09701 0.097,0.255765 0,0.35278 -0.097,0.09701 -0.17639,0.01764 -0.17639,-0.17639 z m 114.564587,0 c 0,-0.194027 0.07937,-0.273402 0.176389,-0.17639 0.09701,0.09701 0.09701,0.255765 0,0.35278 -0.09701,0.09701 -0.176389,0.01764 -0.176389,-0.17639 z m -82.020837,-0.264583 c 0,-0.194027 0.0794,-0.273402 0.17639,-0.17639 0.097,0.09701 0.097,0.255765 0,0.352779 -0.097,0.09701 -0.17639,0.01764 -0.17639,-0.176389 z m 114.324057,-0.817804 c -0.178922,-0.597188 -0.276606,-1.134504 -0.217075,-1.194035 0.05953,-0.05953 0.25463,0.38037 0.433551,0.977559 0.178922,0.597188 0.276606,1.134504 0.217075,1.194035 -0.05953,0.05953 -0.25463,-0.38037 -0.433551,-0.977559 z m -146.603217,0.288637 c 0,-0.194027 0.0794,-0.273402 0.17639,-0.17639 0.097,0.09701 0.097,0.255765 0,0.35278 -0.097,0.09701 -0.17639,0.01764 -0.17639,-0.17639 z m 114.56458,0 c 0,-0.194027 0.07937,-0.273402 0.17639,-0.17639 0.09701,0.09701 0.09701,0.255765 0,0.35278 -0.09702,0.09701 -0.17639,0.01764 -0.17639,-0.17639 z m -82.55,-0.264583 c 0,-0.194027 0.0794,-0.273402 0.17639,-0.17639 0.097,0.09701 0.097,0.255765 0,0.352779 -0.097,0.09701 -0.17639,0.01764 -0.17639,-0.176389 z m -31.70899,-0.529167 c 0,-0.218281 0.21967,-0.992188 0.48816,-1.719792 0.26848,-0.727604 0.48815,-1.144323 0.48815,-0.926041 0,0.218281 -0.21967,0.992187 -0.48815,1.719791 -0.26849,0.727604 -0.48816,1.144323 -0.48816,0.926042 z m 114.523573,0 c 0,-0.194027 0.07937,-0.273402 0.17639,-0.17639 0.09701,0.09701 0.09701,0.255765 0,0.35278 -0.09701,0.09701 -0.17639,0.01764 -0.17639,-0.17639 z m -83.079163,-0.264583 c 0,-0.194027 0.0794,-0.273402 0.17639,-0.17639 0.097,0.09701 0.097,0.255765 0,0.352779 -0.097,0.09701 -0.17639,0.01764 -0.17639,-0.176389 z m 83.343747,-0.529167 c 0,-0.194027 0.07937,-0.273402 0.176389,-0.17639 0.09701,0.09701 0.09701,0.255765 0,0.35278 -0.09701,0.09701 -0.176389,0.01764 -0.176389,-0.17639 z m -83.608337,-0.264583 c 0,-0.194027 0.0794,-0.273402 0.17639,-0.17639 0.097,0.09701 0.097,0.255765 0,0.352779 -0.097,0.09701 -0.17639,0.01764 -0.17639,-0.176389 z m 114.564587,-0.264584 c 0,-0.194027 0.07937,-0.273402 0.176389,-0.176389 0.09701,0.09701 0.09701,0.255764 0,0.352779 -0.09701,0.09701 -0.176389,0.01764 -0.176389,-0.17639 z M -72.68912,82.258362 c 0,-0.194027 0.07937,-0.273402 0.17639,-0.17639 0.09701,0.09702 0.09701,0.255765 0,0.35278 -0.09701,0.09701 -0.17639,0.01764 -0.17639,-0.17639 z m -84.1375,-0.264583 c 0,-0.194027 0.0794,-0.273402 0.17639,-0.17639 0.097,0.09701 0.097,0.255765 0,0.352779 -0.097,0.09701 -0.17639,0.01764 -0.17639,-0.176389 z m 114.564583,-0.264584 c 0,-0.194027 0.07937,-0.273402 0.17639,-0.176389 0.09701,0.09701 0.09701,0.255764 0,0.352779 -0.09701,0.09701 -0.17639,0.01764 -0.17639,-0.17639 z m -30.1625,-0.264583 c 0,-0.194027 0.07937,-0.273402 0.17639,-0.17639 0.09701,0.09701 0.09701,0.255765 0,0.35278 -0.09701,0.09701 -0.17639,0.01764 -0.17639,-0.17639 z m -84.907193,-1.082387 c -0.17893,-0.597188 -0.27661,-1.134504 -0.21708,-1.194035 0.0595,-0.05953 0.25463,0.38037 0.43355,0.977559 0.17893,0.597188 0.27661,1.134504 0.21708,1.194035 -0.0595,0.05953 -0.25463,-0.38037 -0.43355,-0.977559 z m 114.80511,0.55322 c 0,-0.194027 0.07937,-0.273402 0.17639,-0.176389 0.09701,0.09701 0.09701,0.255764 0,0.352779 -0.09701,0.09701 -0.17639,0.01764 -0.17639,-0.17639 z m -29.633333,-0.264583 c 0,-0.194027 0.07937,-0.273402 0.176389,-0.17639 0.09701,0.09701 0.09701,0.255765 0,0.35278 -0.09701,0.09701 -0.176389,0.01764 -0.176389,-0.17639 z M -186.72454,80.406279 c 0,-0.194027 0.0794,-0.273402 0.17639,-0.17639 0.097,0.09701 0.097,0.255765 0,0.352779 -0.097,0.09701 -0.17639,0.01764 -0.17639,-0.176389 z m 143.933337,-0.264584 c 0,-0.194027 0.07938,-0.273402 0.176389,-0.176389 0.09701,0.09701 0.09701,0.255764 0,0.352779 -0.09701,0.09701 -0.176389,0.01764 -0.176389,-0.17639 z m -29.063154,-0.264583 c 0,-0.218281 0.219668,-0.992187 0.488154,-1.719792 0.268486,-0.727604 0.488153,-1.144322 0.488153,-0.926041 0,0.218281 -0.219667,0.992187 -0.488153,1.719791 -0.268486,0.727605 -0.488154,1.144323 -0.488154,0.926042 z M -186.45995,79.612529 c 0,-0.194027 0.0794,-0.273402 0.17639,-0.17639 0.097,0.09701 0.097,0.255765 0,0.352779 -0.097,0.09701 -0.17639,0.01764 -0.17639,-0.176389 z m 143.404163,-0.264584 c 0,-0.194027 0.07937,-0.273402 0.17639,-0.176389 0.09701,0.09701 0.09701,0.255764 0,0.352779 -0.09702,0.09701 -0.17639,0.01764 -0.17639,-0.17639 z M -186.19537,78.818779 c 0,-0.194027 0.0794,-0.273402 0.17639,-0.17639 0.097,0.09701 0.097,0.255765 0,0.352779 -0.097,0.09701 -0.17639,0.01764 -0.17639,-0.176389 z m 28.31042,-0.264584 c 0,-0.194026 0.0794,-0.273401 0.17639,-0.176389 0.097,0.09701 0.097,0.255764 0,0.352779 -0.097,0.09701 -0.17639,0.01764 -0.17639,-0.17639 z m 114.56458,0 c 0,-0.194026 0.07937,-0.273401 0.17639,-0.176389 0.09701,0.09701 0.09701,0.255764 0,0.352779 -0.09701,0.09701 -0.17639,0.01764 -0.17639,-0.17639 z m -142.61042,-0.529166 c 0,-0.194027 0.0794,-0.273402 0.17639,-0.17639 0.097,0.09701 0.097,0.255765 0,0.35278 -0.097,0.09701 -0.17639,0.01764 -0.17639,-0.17639 z m 27.78125,-0.264584 c 0,-0.194026 0.0794,-0.273401 0.17639,-0.176389 0.097,0.09701 0.097,0.255764 0,0.352779 -0.097,0.09701 -0.17639,0.01764 -0.17639,-0.17639 z m 114.564587,0 c 0,-0.194026 0.07937,-0.273401 0.176389,-0.176389 0.09701,0.09701 0.09701,0.255764 0,0.352779 -0.09701,0.09701 -0.176389,0.01764 -0.176389,-0.17639 z M -185.6662,77.231279 c 0,-0.194027 0.0794,-0.273402 0.17639,-0.17639 0.097,0.09701 0.097,0.255765 0,0.35278 -0.097,0.09701 -0.17639,0.01764 -0.17639,-0.17639 z m 27.25208,-0.264584 c 0,-0.194026 0.0794,-0.273401 0.17639,-0.176389 0.097,0.09701 0.097,0.255764 0,0.352779 -0.097,0.09701 -0.17639,0.01764 -0.17639,-0.17639 z m 114.564583,0 c 0,-0.194026 0.07937,-0.273401 0.17639,-0.176389 0.09701,0.09701 0.09701,0.255764 0,0.352779 -0.09701,0.09701 -0.17639,0.01764 -0.17639,-0.17639 z M -185.40162,76.437529 c 0,-0.194027 0.0794,-0.273402 0.17639,-0.17639 0.097,0.09701 0.097,0.255765 0,0.35278 -0.097,0.09701 -0.17639,0.01764 -0.17639,-0.17639 z m 114.564583,0 c 0,-0.194027 0.07937,-0.273402 0.17639,-0.17639 0.09701,0.09701 0.09701,0.255765 0,0.35278 -0.09701,0.09701 -0.17639,0.01764 -0.17639,-0.17639 z M -158.6787,76.172945 c 0,-0.194026 0.0794,-0.273401 0.17639,-0.176389 0.097,0.09701 0.097,0.255764 0,0.352779 -0.097,0.09701 -0.17639,0.01764 -0.17639,-0.17639 z m 114.56458,0 c 0,-0.194026 0.07937,-0.273401 0.17639,-0.176389 0.09701,0.09701 0.09701,0.255764 0,0.352779 -0.09701,0.09701 -0.17639,0.01764 -0.17639,-0.17639 z m -141.02292,-0.529166 c 0,-0.194027 0.0794,-0.273402 0.17639,-0.17639 0.097,0.09701 0.097,0.255765 0,0.35278 -0.097,0.09701 -0.17639,0.01764 -0.17639,-0.17639 z m 114.564587,0 c 0,-0.194027 0.07937,-0.273402 0.176389,-0.17639 0.09701,0.09701 0.09701,0.255765 0,0.35278 -0.09701,0.09701 -0.176389,0.01764 -0.176389,-0.17639 z m -88.370837,-0.264584 c 0,-0.194026 0.0794,-0.273401 0.17639,-0.176389 0.097,0.09701 0.097,0.255764 0,0.352779 -0.097,0.09701 -0.17639,0.01764 -0.17639,-0.17639 z m 114.564587,0 c 0,-0.194026 0.07937,-0.273401 0.176389,-0.176389 0.09701,0.09701 0.09701,0.255764 0,0.352779 -0.09701,0.09701 -0.176389,0.01764 -0.176389,-0.17639 z M -184.87245,74.850029 c 0,-0.194027 0.0794,-0.273402 0.17639,-0.17639 0.097,0.09701 0.097,0.255765 0,0.35278 -0.097,0.09701 -0.17639,0.01764 -0.17639,-0.17639 z m 114.56458,0 c 0,-0.194027 0.07937,-0.273402 0.17639,-0.17639 0.09701,0.09701 0.09701,0.255765 0,0.35278 -0.09701,0.09701 -0.17639,0.01764 -0.17639,-0.17639 z m -88.9,-0.264584 c 0,-0.194026 0.0794,-0.273401 0.17639,-0.176389 0.097,0.09701 0.097,0.255764 0,0.352779 -0.097,0.09701 -0.17639,0.01764 -0.17639,-0.17639 z m 114.324053,-0.817803 c -0.178922,-0.597188 -0.276606,-1.134504 -0.217074,-1.194035 0.05953,-0.05953 0.254629,0.38037 0.433551,0.977558 0.178922,0.597189 0.276606,1.134505 0.217075,1.194036 -0.05953,0.05953 -0.25463,-0.38037 -0.433552,-0.977559 z m -139.683043,0.288637 c 0,-0.218281 0.21967,-0.992188 0.48816,-1.719792 0.26848,-0.727604 0.48815,-1.144323 0.48815,-0.926041 0,0.218281 -0.21967,0.992187 -0.48815,1.719791 -0.26849,0.727604 -0.48816,1.144323 -0.48816,0.926042 z m 114.523573,0 c 0,-0.194027 0.07938,-0.273402 0.17639,-0.17639 0.09701,0.09701 0.09701,0.255765 0,0.35278 -0.09701,0.09701 -0.17639,0.01764 -0.17639,-0.17639 z m -89.429163,-0.264583 c 0,-0.194027 0.0794,-0.273402 0.17639,-0.17639 0.097,0.09701 0.097,0.255765 0,0.352779 -0.097,0.09701 -0.17639,0.01764 -0.17639,-0.176389 z m 89.693747,-0.529167 c 0,-0.194027 0.07937,-0.273402 0.176389,-0.17639 0.09701,0.09701 0.09701,0.255765 0,0.35278 -0.09701,0.09701 -0.176389,0.01764 -0.176389,-0.17639 z m -89.958337,-0.264583 c 0,-0.194027 0.0794,-0.273402 0.17639,-0.17639 0.097,0.09701 0.097,0.255765 0,0.352779 -0.097,0.09701 -0.17639,0.01764 -0.17639,-0.176389 z m 90.22292,-0.529167 c 0,-0.194027 0.07937,-0.273402 0.17639,-0.17639 0.09701,0.09701 0.09701,0.255765 0,0.35278 -0.09702,0.09701 -0.17639,0.01764 -0.17639,-0.17639 z m -90.4875,-0.264583 c 0,-0.194027 0.0794,-0.273402 0.17639,-0.17639 0.097,0.09701 0.097,0.255765 0,0.352779 -0.097,0.09701 -0.17639,0.01764 -0.17639,-0.176389 z m 114.564583,-0.264584 c 0,-0.194027 0.07937,-0.273402 0.17639,-0.17639 0.09701,0.09701 0.09701,0.255765 0,0.35278 -0.09701,0.09701 -0.17639,0.01764 -0.17639,-0.17639 z m -23.8125,-0.264583 c 0,-0.194027 0.07937,-0.273402 0.17639,-0.17639 0.09701,0.09701 0.09701,0.255765 0,0.35278 -0.09701,0.09701 -0.17639,0.01764 -0.17639,-0.17639 z M -160.2662,71.410446 c 0,-0.194027 0.0794,-0.273402 0.17639,-0.17639 0.097,0.09701 0.097,0.255765 0,0.352779 -0.097,0.09701 -0.17639,0.01764 -0.17639,-0.176389 z m 114.56458,-0.264584 c 0,-0.194027 0.07937,-0.273402 0.17639,-0.17639 0.09701,0.09701 0.09701,0.255765 0,0.35278 -0.09701,0.09701 -0.17639,0.01764 -0.17639,-0.17639 z m -23.283333,-0.264583 c 0,-0.194027 0.07937,-0.273402 0.176389,-0.17639 0.09701,0.09701 0.09701,0.255765 0,0.35278 -0.09701,0.09701 -0.176389,0.01764 -0.176389,-0.17639 z M -183.54954,70.616696 c 0,-0.194027 0.0794,-0.273402 0.17639,-0.17639 0.097,0.09701 0.097,0.255765 0,0.352779 -0.097,0.09701 -0.17639,0.01764 -0.17639,-0.176389 z m 22.64834,-1.217084 c -0.25577,-0.811387 -0.41741,-1.522873 -0.3592,-1.581081 0.0582,-0.05821 0.3151,0.558028 0.57086,1.369415 0.25577,0.811387 0.41741,1.522872 0.3592,1.581081 -0.0582,0.05821 -0.3151,-0.558028 -0.57086,-1.369415 z m 114.934997,0.9525 c 0,-0.194027 0.07937,-0.273402 0.176389,-0.17639 0.09701,0.09702 0.09701,0.255765 0,0.35278 -0.09701,0.09701 -0.176389,0.01764 -0.176389,-0.17639 z M -68.72037,70.087529 c 0,-0.194027 0.07937,-0.273402 0.17639,-0.17639 0.09701,0.09701 0.09701,0.255765 0,0.35278 -0.09701,0.09701 -0.17639,0.01764 -0.17639,-0.17639 z m -114.56458,-0.264583 c 0,-0.194027 0.0794,-0.273402 0.17639,-0.17639 0.097,0.09701 0.097,0.255765 0,0.352779 -0.097,0.09701 -0.17639,0.01764 -0.17639,-0.176389 z m 137.054163,-0.264584 c 0,-0.194027 0.07937,-0.273402 0.17639,-0.17639 0.09701,0.09701 0.09701,0.255765 0,0.35278 -0.09701,0.09701 -0.17639,0.01764 -0.17639,-0.17639 z m -22.184741,-0.264583 c 0,-0.218281 0.160478,-0.813594 0.356616,-1.322917 0.196139,-0.509323 0.356616,-0.747448 0.356616,-0.529166 0,0.218281 -0.160477,0.813593 -0.356616,1.322916 -0.196138,0.509323 -0.356616,0.747448 -0.356616,0.529167 z M -183.02037,69.029196 c 0,-0.194027 0.0794,-0.273402 0.17639,-0.17639 0.097,0.09701 0.097,0.255765 0,0.352779 -0.097,0.09701 -0.17639,0.01764 -0.17639,-0.176389 z m 136.525,-0.264584 c 0,-0.194027 0.07937,-0.273402 0.17639,-0.176389 0.09701,0.09701 0.09701,0.255764 0,0.352779 -0.09701,0.09701 -0.17639,0.01764 -0.17639,-0.17639 z m -136.26042,-0.529166 c 0,-0.194027 0.0794,-0.273402 0.17639,-0.17639 0.097,0.09701 0.097,0.255765 0,0.352779 -0.097,0.09701 -0.17639,0.01764 -0.17639,-0.176389 z m 135.995837,-0.264584 c 0,-0.194027 0.07938,-0.273402 0.176389,-0.176389 0.09701,0.09701 0.09701,0.255764 0,0.352779 -0.09701,0.09701 -0.176389,0.01764 -0.176389,-0.17639 z M -182.4912,67.441696 c 0,-0.194027 0.0794,-0.273402 0.17639,-0.17639 0.097,0.09701 0.097,0.255765 0,0.352779 -0.097,0.09701 -0.17639,0.01764 -0.17639,-0.176389 z m 20.90208,-0.264584 c 0,-0.194027 0.0794,-0.273402 0.17639,-0.176389 0.097,0.09701 0.097,0.255764 0,0.352779 -0.097,0.09701 -0.17639,0.01764 -0.17639,-0.17639 z m 114.564583,0 c 0,-0.194027 0.07937,-0.273402 0.17639,-0.176389 0.09701,0.09701 0.09701,0.255764 0,0.352779 -0.09702,0.09701 -0.17639,0.01764 -0.17639,-0.17639 z M -182.22662,66.647946 c 0,-0.194027 0.0794,-0.273402 0.17639,-0.17639 0.097,0.09701 0.097,0.255765 0,0.352779 -0.097,0.09701 -0.17639,0.01764 -0.17639,-0.176389 z m 114.564583,0 c 0,-0.194027 0.07937,-0.273402 0.17639,-0.17639 0.09701,0.09701 0.09701,0.255765 0,0.352779 -0.09701,0.09701 -0.17639,0.01764 -0.17639,-0.176389 z M -161.8537,66.383362 c 0,-0.194027 0.0794,-0.273402 0.17639,-0.176389 0.097,0.09701 0.097,0.255764 0,0.352779 -0.097,0.09701 -0.17639,0.01764 -0.17639,-0.17639 z m 114.56458,0 c 0,-0.194027 0.07937,-0.273402 0.17639,-0.176389 0.09701,0.09701 0.09701,0.255764 0,0.352779 -0.09701,0.09701 -0.17639,0.01764 -0.17639,-0.17639 z m -134.67292,-0.529166 c 0,-0.194027 0.0794,-0.273402 0.17639,-0.17639 0.097,0.09701 0.097,0.255765 0,0.352779 -0.097,0.09701 -0.17639,0.01764 -0.17639,-0.176389 z m 114.564587,0 c 0,-0.194027 0.07937,-0.273402 0.176389,-0.17639 0.09701,0.09701 0.09701,0.255765 0,0.352779 -0.09701,0.09701 -0.176389,0.01764 -0.176389,-0.176389 z m -94.720837,-0.264584 c 0,-0.194027 0.0794,-0.273402 0.17639,-0.176389 0.097,0.09701 0.097,0.255764 0,0.352779 -0.097,0.09701 -0.17639,0.01764 -0.17639,-0.17639 z m 114.564587,0 c 0,-0.194027 0.07937,-0.273402 0.176389,-0.176389 0.09701,0.09701 0.09701,0.255764 0,0.352779 -0.09701,0.09701 -0.176389,0.01764 -0.176389,-0.17639 z M -181.69745,65.060446 c 0,-0.194027 0.0794,-0.273402 0.17639,-0.17639 0.097,0.09701 0.097,0.255765 0,0.352779 -0.097,0.09701 -0.17639,0.01764 -0.17639,-0.176389 z m 114.56458,0 c 0,-0.194027 0.07937,-0.273402 0.17639,-0.17639 0.09701,0.09701 0.09701,0.255765 0,0.352779 -0.09701,0.09701 -0.17639,0.01764 -0.17639,-0.176389 z m -95.25,-0.264584 c 0,-0.194027 0.0794,-0.273402 0.17639,-0.176389 0.097,0.09701 0.097,0.255764 0,0.352779 -0.097,0.09701 -0.17639,0.01764 -0.17639,-0.17639 z m 114.194167,-1.217083 c -0.255768,-0.811387 -0.417407,-1.522873 -0.359199,-1.581081 0.05821,-0.05821 0.315098,0.558027 0.570865,1.369414 0.255768,0.811388 0.417407,1.522873 0.359199,1.581082 -0.05821,0.05821 -0.315098,-0.558028 -0.570865,-1.369415 z m -133.203907,0.687917 c 0,-0.218282 0.16048,-0.813594 0.35661,-1.322917 0.19614,-0.509323 0.35662,-0.747448 0.35662,-0.529167 0,0.218282 -0.16048,0.813594 -0.35662,1.322917 -0.19613,0.509323 -0.35661,0.747448 -0.35661,0.529167 z m 114.524323,0 c 0,-0.194027 0.07937,-0.273402 0.17639,-0.17639 0.09701,0.09701 0.09701,0.255765 0,0.352779 -0.09701,0.09701 -0.17639,0.01764 -0.17639,-0.176389 z m -95.779163,-0.264584 c 0,-0.194027 0.0794,-0.273402 0.17639,-0.176389 0.097,0.09701 0.097,0.255764 0,0.352779 -0.097,0.09701 -0.17639,0.01764 -0.17639,-0.17639 z m 96.043747,-0.529166 c 0,-0.194027 0.07937,-0.273402 0.176389,-0.17639 0.09701,0.09701 0.09701,0.255765 0,0.35278 -0.09701,0.09701 -0.176389,0.01764 -0.176389,-0.17639 z m -96.308337,-0.264584 c 0,-0.194026 0.0794,-0.273401 0.17639,-0.176389 0.097,0.09701 0.097,0.255764 0,0.352779 -0.097,0.09701 -0.17639,0.01764 -0.17639,-0.17639 z m 96.57292,-0.529166 c 0,-0.194027 0.07937,-0.273402 0.17639,-0.17639 0.09701,0.09701 0.09701,0.255765 0,0.35278 -0.09701,0.09701 -0.17639,0.01764 -0.17639,-0.17639 z m -96.8375,-0.264584 c 0,-0.194026 0.0794,-0.273401 0.17639,-0.176389 0.097,0.09701 0.097,0.255764 0,0.352779 -0.097,0.09701 -0.17639,0.01764 -0.17639,-0.17639 z m 97.102083,-0.529166 c 0,-0.194027 0.07938,-0.273402 0.17639,-0.17639 0.09701,0.09702 0.09701,0.255765 0,0.35278 -0.09701,0.09701 -0.17639,0.01764 -0.17639,-0.17639 z M -180.63912,61.620862 c 0,-0.194026 0.0794,-0.273401 0.17639,-0.176389 0.097,0.09701 0.097,0.255764 0,0.352779 -0.097,0.09701 -0.17639,0.01764 -0.17639,-0.17639 z m 17.19792,0 c 0,-0.194026 0.0794,-0.273401 0.17639,-0.176389 0.097,0.09701 0.097,0.255764 0,0.352779 -0.097,0.09701 -0.17639,0.01764 -0.17639,-0.17639 z m 114.56458,-0.264583 c 0,-0.194027 0.07938,-0.273402 0.17639,-0.17639 0.09701,0.09701 0.09701,0.255765 0,0.35278 -0.09701,0.09701 -0.17639,0.01764 -0.17639,-0.17639 z m -16.933333,-0.264583 c 0,-0.194027 0.07937,-0.273402 0.176389,-0.17639 0.09701,0.09701 0.09701,0.255765 0,0.35278 -0.09701,0.09701 -0.176389,0.01764 -0.176389,-0.17639 z M -180.37454,60.827112 c 0,-0.194026 0.0794,-0.273401 0.17639,-0.176389 0.097,0.09701 0.097,0.255764 0,0.352779 -0.097,0.09701 -0.17639,0.01764 -0.17639,-0.17639 z m 16.66875,0 c 0,-0.194026 0.0794,-0.273401 0.17639,-0.176389 0.097,0.09701 0.097,0.255764 0,0.352779 -0.097,0.09701 -0.17639,0.01764 -0.17639,-0.17639 z m 114.564587,-0.264583 c 0,-0.194027 0.07937,-0.273402 0.176389,-0.17639 0.09701,0.09701 0.09701,0.255765 0,0.35278 -0.09701,0.09701 -0.176389,0.01764 -0.176389,-0.17639 z M -65.54537,60.297946 c 0,-0.194027 0.07937,-0.273402 0.17639,-0.17639 0.09701,0.09701 0.09701,0.255765 0,0.35278 -0.09702,0.09701 -0.17639,0.01764 -0.17639,-0.17639 z m -114.56458,-0.264584 c 0,-0.194026 0.0794,-0.273401 0.17639,-0.176389 0.097,0.09701 0.097,0.255764 0,0.352779 -0.097,0.09701 -0.17639,0.01764 -0.17639,-0.17639 z m 16.13958,0 c 0,-0.194026 0.0794,-0.273401 0.17639,-0.176389 0.097,0.09701 0.097,0.255764 0,0.352779 -0.097,0.09701 -0.17639,0.01764 -0.17639,-0.17639 z m 114.564583,-0.264583 c 0,-0.194027 0.07937,-0.273402 0.17639,-0.17639 0.09701,0.09702 0.09701,0.255765 0,0.35278 -0.09701,0.09701 -0.17639,0.01764 -0.17639,-0.17639 z m -15.875,-0.264583 c 0,-0.194027 0.07937,-0.273402 0.17639,-0.17639 0.09701,0.09701 0.09701,0.255765 0,0.35278 -0.09701,0.09701 -0.17639,0.01764 -0.17639,-0.17639 z M -179.84537,59.239612 c 0,-0.194026 0.0794,-0.273401 0.17639,-0.176389 0.097,0.09701 0.097,0.255764 0,0.352779 -0.097,0.09701 -0.17639,0.01764 -0.17639,-0.17639 z m 15.24,-1.217083 c -0.25577,-0.811387 -0.41741,-1.522873 -0.3592,-1.581081 0.0582,-0.05821 0.3151,0.558027 0.57087,1.369415 0.25576,0.811387 0.4174,1.522872 0.35919,1.581081 -0.0582,0.05821 -0.31509,-0.558028 -0.57086,-1.369415 z m 114.935,0.9525 c 0,-0.194027 0.07937,-0.273402 0.17639,-0.17639 0.09701,0.09701 0.09701,0.255765 0,0.35278 -0.09701,0.09701 -0.17639,0.01764 -0.17639,-0.17639 z m -15.305574,-0.264583 c 0,-0.218281 0.160477,-0.813594 0.356616,-1.322917 0.196138,-0.509323 0.356616,-0.747448 0.356616,-0.529166 0,0.218281 -0.160478,0.813593 -0.356616,1.322916 -0.196139,0.509323 -0.356616,0.747448 -0.356616,0.529167 z M -179.58079,58.445863 c 0,-0.194027 0.0794,-0.273402 0.17639,-0.17639 0.097,0.09701 0.097,0.255765 0,0.352779 -0.097,0.09701 -0.17639,0.01764 -0.17639,-0.176389 z m 129.645837,-0.264584 c 0,-0.194027 0.07937,-0.273402 0.176389,-0.17639 0.09701,0.09701 0.09701,0.255765 0,0.35278 -0.09701,0.09701 -0.176389,0.01764 -0.176389,-0.17639 z M -179.3162,57.652113 c 0,-0.194027 0.0794,-0.273402 0.17639,-0.17639 0.097,0.09701 0.097,0.255765 0,0.352779 -0.097,0.09701 -0.17639,0.01764 -0.17639,-0.176389 z m 129.116663,-0.264584 c 0,-0.194027 0.07937,-0.273402 0.17639,-0.17639 0.09701,0.09701 0.09701,0.255765 0,0.35278 -0.09701,0.09701 -0.17639,0.01764 -0.17639,-0.17639 z M -179.05162,56.858363 c 0,-0.194027 0.0794,-0.273402 0.17639,-0.17639 0.097,0.09701 0.097,0.255765 0,0.352779 -0.097,0.09701 -0.17639,0.01764 -0.17639,-0.176389 z m 128.5875,-0.264584 c 0,-0.194027 0.07937,-0.273402 0.17639,-0.17639 0.09701,0.09701 0.09701,0.255765 0,0.35278 -0.09701,0.09701 -0.17639,0.01764 -0.17639,-0.17639 z m -128.32292,-0.529166 c 0,-0.194027 0.0794,-0.273402 0.17639,-0.17639 0.097,0.09701 0.097,0.255765 0,0.352779 -0.097,0.09701 -0.17639,0.01764 -0.17639,-0.176389 z m 114.564587,0 c 0,-0.194027 0.07937,-0.273402 0.176389,-0.17639 0.09701,0.09701 0.09701,0.255765 0,0.352779 -0.09701,0.09701 -0.176389,0.01764 -0.176389,-0.176389 z M -165.29329,55.800029 c 0,-0.194027 0.0794,-0.273402 0.17639,-0.17639 0.097,0.09702 0.097,0.255765 0,0.35278 -0.097,0.09701 -0.17639,0.01764 -0.17639,-0.17639 z m 114.564587,0 c 0,-0.194027 0.07938,-0.273402 0.176389,-0.17639 0.09701,0.09702 0.09701,0.255765 0,0.35278 -0.09701,0.09701 -0.176389,0.01764 -0.176389,-0.17639 z M -178.52245,55.270863 c 0,-0.194027 0.0794,-0.273402 0.17639,-0.17639 0.097,0.09701 0.097,0.255765 0,0.352779 -0.097,0.09701 -0.17639,0.01764 -0.17639,-0.176389 z m 114.56458,0 c 0,-0.194027 0.07937,-0.273402 0.17639,-0.17639 0.09701,0.09701 0.09701,0.255765 0,0.352779 -0.09701,0.09701 -0.17639,0.01764 -0.17639,-0.176389 z m -101.6,-0.264584 c 0,-0.194027 0.0794,-0.273402 0.17639,-0.17639 0.097,0.09701 0.097,0.255765 0,0.35278 -0.097,0.09701 -0.17639,0.01764 -0.17639,-0.17639 z m 114.564583,0 c 0,-0.194027 0.07937,-0.273402 0.17639,-0.17639 0.09701,0.09701 0.09701,0.255765 0,0.35278 -0.09702,0.09701 -0.17639,0.01764 -0.17639,-0.17639 z M -178.21761,54.477113 c 0,-0.218282 0.16048,-0.813594 0.35661,-1.322917 0.19614,-0.509323 0.35662,-0.747448 0.35662,-0.529167 0,0.218282 -0.16048,0.813594 -0.35662,1.322917 -0.19613,0.509323 -0.35661,0.747448 -0.35661,0.529167 z m 114.524323,0 c 0,-0.194027 0.07937,-0.273402 0.17639,-0.17639 0.09701,0.09701 0.09701,0.255765 0,0.352779 -0.09701,0.09701 -0.17639,0.01764 -0.17639,-0.176389 z M -165.82245,54.212529 c 0,-0.194027 0.0794,-0.273402 0.17639,-0.176389 0.097,0.09701 0.097,0.255764 0,0.352779 -0.097,0.09701 -0.17639,0.01764 -0.17639,-0.17639 z M -51.4984,53.394726 c -0.178922,-0.597188 -0.276606,-1.134504 -0.217075,-1.194035 0.05953,-0.05953 0.25463,0.38037 0.433552,0.977558 0.178922,0.597189 0.276606,1.134504 0.217074,1.194036 -0.05953,0.05953 -0.254629,-0.380371 -0.433551,-0.977559 z m -11.930303,0.288637 c 0,-0.194027 0.07937,-0.273402 0.176389,-0.17639 0.09701,0.09701 0.09701,0.255765 0,0.352779 -0.09701,0.09701 -0.176389,0.01764 -0.176389,-0.176389 z M -166.08704,53.418779 c 0,-0.194027 0.0794,-0.273402 0.17639,-0.176389 0.097,0.09701 0.097,0.255764 0,0.352779 -0.097,0.09701 -0.17639,0.01764 -0.17639,-0.17639 z m 102.92292,-0.529166 c 0,-0.194027 0.07937,-0.273402 0.17639,-0.17639 0.09701,0.09701 0.09701,0.255765 0,0.352779 -0.09701,0.09701 -0.17639,0.01764 -0.17639,-0.176389 z m -103.1875,-0.264584 c 0,-0.194027 0.0794,-0.273402 0.17639,-0.176389 0.097,0.09701 0.097,0.255764 0,0.352779 -0.097,0.09701 -0.17639,0.01764 -0.17639,-0.17639 z m 103.452083,-0.529166 c 0,-0.194027 0.07937,-0.273402 0.17639,-0.17639 0.09701,0.09701 0.09701,0.255765 0,0.352779 -0.09702,0.09701 -0.17639,0.01764 -0.17639,-0.176389 z M -177.46412,51.831279 c 0,-0.194027 0.0794,-0.273402 0.17639,-0.176389 0.097,0.09701 0.097,0.255764 0,0.352779 -0.097,0.09701 -0.17639,0.01764 -0.17639,-0.17639 z m 10.84792,0 c 0,-0.194027 0.0794,-0.273402 0.17639,-0.176389 0.097,0.09701 0.097,0.255764 0,0.352779 -0.097,0.09701 -0.17639,0.01764 -0.17639,-0.17639 z m 114.56458,-0.264583 c 0,-0.194027 0.07937,-0.273402 0.17639,-0.17639 0.09701,0.09701 0.09701,0.255765 0,0.35278 -0.09701,0.09701 -0.17639,0.01764 -0.17639,-0.17639 z m -10.583333,-0.264583 c 0,-0.194027 0.07938,-0.273402 0.176389,-0.17639 0.09701,0.09701 0.09701,0.255765 0,0.352779 -0.09701,0.09701 -0.176389,0.01764 -0.176389,-0.176389 z M -177.19954,51.037529 c 0,-0.194027 0.0794,-0.273402 0.17639,-0.176389 0.097,0.09701 0.097,0.255764 0,0.352779 -0.097,0.09701 -0.17639,0.01764 -0.17639,-0.17639 z m 10.31875,0 c 0,-0.194027 0.0794,-0.273402 0.17639,-0.176389 0.097,0.09701 0.097,0.255764 0,0.352779 -0.097,0.09701 -0.17639,0.01764 -0.17639,-0.17639 z m 114.564587,-0.264583 c 0,-0.194027 0.07937,-0.273402 0.176389,-0.17639 0.09701,0.09701 0.09701,0.255765 0,0.35278 -0.09701,0.09701 -0.176389,0.01764 -0.176389,-0.17639 z M -62.37037,50.508363 c 0,-0.194027 0.07937,-0.273402 0.17639,-0.17639 0.09701,0.09701 0.09701,0.255765 0,0.352779 -0.09701,0.09701 -0.17639,0.01764 -0.17639,-0.176389 z m -114.56458,-0.264584 c 0,-0.194027 0.0794,-0.273402 0.17639,-0.176389 0.097,0.09701 0.097,0.255764 0,0.352779 -0.097,0.09701 -0.17639,0.01764 -0.17639,-0.17639 z m 9.78958,0 c 0,-0.194027 0.0794,-0.273402 0.17639,-0.176389 0.097,0.09701 0.097,0.255764 0,0.352779 -0.097,0.09701 -0.17639,0.01764 -0.17639,-0.17639 z m 114.564583,-0.264583 c 0,-0.194027 0.07937,-0.273402 0.17639,-0.17639 0.09701,0.09702 0.09701,0.255765 0,0.35278 -0.09701,0.09701 -0.17639,0.01764 -0.17639,-0.17639 z m -9.525,-0.264583 c 0,-0.194027 0.07937,-0.273402 0.17639,-0.17639 0.09701,0.09701 0.09701,0.255765 0,0.352779 -0.09701,0.09701 -0.17639,0.01764 -0.17639,-0.176389 z M -176.67037,49.450029 c 0,-0.194027 0.0794,-0.273402 0.17639,-0.176389 0.097,0.09701 0.097,0.255764 0,0.352779 -0.097,0.09701 -0.17639,0.01764 -0.17639,-0.17639 z m 9.26042,0 c 0,-0.194027 0.0794,-0.273402 0.17639,-0.176389 0.097,0.09701 0.097,0.255764 0,0.352779 -0.097,0.09701 -0.17639,0.01764 -0.17639,-0.17639 z m 114.56458,-0.264583 c 0,-0.194027 0.07938,-0.273402 0.17639,-0.17639 0.09701,0.09701 0.09701,0.255765 0,0.35278 -0.09701,0.09701 -0.17639,0.01764 -0.17639,-0.17639 z m -8.95482,-0.264583 c 0,-0.218282 0.219667,-0.992188 0.488153,-1.719792 0.268486,-0.727604 0.488154,-1.144323 0.488154,-0.926042 0,0.218282 -0.219668,0.992188 -0.488154,1.719792 -0.268486,0.727604 -0.488153,1.144323 -0.488153,0.926042 z m -114.6056,-0.264584 c 0,-0.194026 0.0794,-0.273401 0.17639,-0.176389 0.097,0.09701 0.097,0.255764 0,0.352779 -0.097,0.09701 -0.17639,0.01764 -0.17639,-0.17639 z m 8.73125,0 c 0,-0.194026 0.0794,-0.273401 0.17639,-0.176389 0.097,0.09701 0.097,0.255764 0,0.352779 -0.097,0.09701 -0.17639,0.01764 -0.17639,-0.17639 z m 114.564587,-0.264583 c 0,-0.194027 0.07937,-0.273402 0.176389,-0.17639 0.09701,0.09701 0.09701,0.255765 0,0.35278 -0.09701,0.09701 -0.176389,0.01764 -0.176389,-0.17639 z M -176.1412,47.862529 c 0,-0.194026 0.0794,-0.273401 0.17639,-0.176389 0.097,0.09701 0.097,0.255764 0,0.352779 -0.097,0.09701 -0.17639,0.01764 -0.17639,-0.17639 z m 7.8619,-1.11503 c -0.24094,-0.753449 -0.39416,-1.413823 -0.34049,-1.467496 0.0537,-0.05367 0.30045,0.513151 0.54838,1.25961 0.24793,0.746458 0.40115,1.406832 0.34049,1.467495 -0.0607,0.06066 -0.30743,-0.506158 -0.54838,-1.259609 z m 114.904763,0.850447 c 0,-0.194027 0.07937,-0.273402 0.17639,-0.17639 0.09701,0.09701 0.09701,0.255765 0,0.35278 -0.09701,0.09701 -0.17639,0.01764 -0.17639,-0.17639 z M -175.87662,47.068779 c 0,-0.194026 0.0794,-0.273401 0.17639,-0.176389 0.097,0.09701 0.097,0.255764 0,0.352779 -0.097,0.09701 -0.17639,0.01764 -0.17639,-0.17639 z m 122.2375,-0.264583 c 0,-0.194027 0.07937,-0.273402 0.17639,-0.17639 0.09701,0.09701 0.09701,0.255765 0,0.35278 -0.09701,0.09701 -0.17639,0.01764 -0.17639,-0.17639 z m -121.97292,-0.529167 c 0,-0.194026 0.0794,-0.273401 0.17639,-0.176389 0.097,0.09701 0.097,0.255764 0,0.352779 -0.097,0.09701 -0.17639,0.01764 -0.17639,-0.17639 z m 121.708337,-0.264583 c 0,-0.194027 0.07937,-0.273402 0.176389,-0.17639 0.09701,0.09702 0.09701,0.255765 0,0.35278 -0.09701,0.09701 -0.176389,0.01764 -0.176389,-0.17639 z M -175.34745,45.481279 c 0,-0.194026 0.0794,-0.273401 0.17639,-0.176389 0.097,0.09701 0.097,0.255764 0,0.352779 -0.097,0.09701 -0.17639,0.01764 -0.17639,-0.17639 z m 114.56458,0.09467 c 0,-0.141962 0.185161,-0.489227 0.411472,-0.771702 0.387977,-0.484269 0.393486,-0.475827 0.09645,0.147868 -0.385712,0.809897 -0.507923,0.959998 -0.507922,0.623834 z m 6.285444,-0.915513 c -0.248322,-0.432676 -0.841399,-0.956112 -1.317947,-1.163188 -0.476552,-0.207076 -0.674154,-0.381164 -0.439116,-0.386861 0.529468,-0.01283 1.728015,0.907865 2.109311,1.620324 0.457928,0.855644 0.143111,0.792838 -0.352248,-0.07027 z m -120.329394,-0.16528 c 0.15689,-0.324088 0.55041,-0.717608 0.87449,-0.874493 0.54796,-0.265255 0.55531,-0.257905 0.10487,0.104871 -0.26641,0.214561 -0.65993,0.608081 -0.87449,0.87449 -0.36277,0.450437 -0.37012,0.44309 -0.10487,-0.104868 z m 5.82937,0.324665 c 0,-0.07276 0.0595,-0.132292 0.13229,-0.132292 0.0728,0 0.13229,0.05953 0.13229,0.132292 0,0.07276 -0.0595,0.132292 -0.13229,0.132292 -0.0728,0 -0.13229,-0.05953 -0.13229,-0.132292 z m -0.56292,-0.859896 c -0.32911,-0.419645 -0.31975,-0.429003 0.0999,-0.0999 0.44073,0.345644 0.58088,0.562917 0.36312,0.562917 -0.0549,0 -0.2633,-0.208359 -0.46302,-0.463021 z m 109.57125,0.06615 c 0,-0.07276 0.05953,-0.132292 0.132292,-0.132292 0.07276,0 0.132291,0.05953 0.132291,0.132292 0,0.07276 -0.05953,0.132292 -0.132291,0.132292 -0.07276,0 -0.132292,-0.05953 -0.132292,-0.132292 z m 0.661458,-0.396875 c 0.08994,-0.145521 0.223052,-0.264583 0.295812,-0.264583 0.07276,0 0.05871,0.119062 -0.03123,0.264583 -0.08994,0.145521 -0.223052,0.264583 -0.295812,0.264583 -0.07276,0 -0.05871,-0.119062 0.03123,-0.264583 z M -170.32037,43.496905 c 0,-0.07276 0.0595,-0.132292 0.13229,-0.132292 0.0728,0 0.13229,0.05953 0.13229,0.132292 0,0.07276 -0.0595,0.132291 -0.13229,0.132291 -0.0728,0 -0.13229,-0.05953 -0.13229,-0.132291 z m -2.82222,-0.308682 c 0.097,-0.09701 0.25576,-0.09701 0.35278,0 0.097,0.09701 0.0176,0.17639 -0.17639,0.17639 -0.19403,0 -0.27341,-0.07937 -0.17639,-0.17639 z m 2.11666,0 c 0.097,-0.09701 0.25577,-0.09701 0.35278,0 0.097,0.09701 0.0176,0.17639 -0.17639,0.17639 -0.19402,0 -0.2734,-0.07937 -0.17639,-0.17639 z m 112.44792,0 c 0.09701,-0.09701 0.255765,-0.09701 0.35278,0 0.09701,0.09701 0.01764,0.17639 -0.17639,0.17639 -0.194027,0 -0.273402,-0.07937 -0.17639,-0.17639 z"
         id="path3509" />
      <path
         style="fill:#fa6c25;stroke-width:0.264583"
         d="m -116.68678,208.92183 c -0.95391,-1.20374 -19.00692,-24.33163 -40.11779,-51.39531 -28.46411,-36.49037 -38.37862,-49.37764 -38.36489,-49.86816 0.0102,-0.3638 0.18974,-1.07818 0.39901,-1.5875 0.22572,-0.54938 0.32256,-0.657 0.23808,-0.26458 -0.0783,0.3638 -0.21395,0.98888 -0.3014,1.38906 l -0.159,0.7276 h 23.05183 23.05182 l 0.0209,-0.7276 0.0209,-0.7276 0.26608,0.7286 0.26608,0.72861 33.75586,-0.0671 33.755866,-0.0671 0.86139,-2.51354 c 0.473766,-1.38245 0.870742,-2.38557 0.882169,-2.22915 0.01143,0.15641 -0.276879,1.15953 -0.640681,2.22915 -0.363802,1.06962 -0.661458,2.10316 -0.661458,2.29675 0,0.29076 4.015968,0.34023 23.084896,0.28439 l 23.084893,-0.0676 -0.06374,-0.66146 -0.06374,-0.66145 0.271727,0.64418 c 0.149447,0.3543 0.213649,0.79553 0.142666,0.98051 -0.123499,0.32183 -77.179258,99.16421 -79.331248,101.76124 -0.57278,0.69123 -1.19315,1.25677 -1.37861,1.25677 -0.18546,0 -1.11768,-0.98487 -2.0716,-2.18861 z m 2.64152,0.79955 c 0.14973,-0.47294 7.61111,-23.42373 16.580853,-51.00175 8.96974,-27.57802 16.30862,-50.22966 16.30862,-50.33698 0,-0.25731 -66.612843,-0.254 -66.747993,0.003 -0.0826,0.15725 31.80227,98.70569 32.82937,101.46771 0.35794,0.96253 0.69632,0.91903 1.02915,-0.1323 z M -149.1537,106.07086 c 0,-0.19403 0.0794,-0.2734 0.17639,-0.17639 0.097,0.097 0.097,0.25577 0,0.35278 -0.097,0.097 -0.17639,0.0176 -0.17639,-0.17639 z m 114.56458,0 c 0,-0.19403 0.07937,-0.2734 0.17639,-0.17639 0.09701,0.097 0.09701,0.25577 0,0.35278 -0.09701,0.097 -0.17639,0.0176 -0.17639,-0.17639 z m -114.82917,-0.79375 c 0,-0.19403 0.0794,-0.2734 0.17639,-0.17639 0.097,0.097 0.097,0.25577 0,0.35278 -0.097,0.097 -0.17639,0.0176 -0.17639,-0.17639 z m 114.564587,0 c 0,-0.19403 0.07938,-0.2734 0.176389,-0.17639 0.09701,0.097 0.09701,0.25577 0,0.35278 -0.09701,0.097 -0.176389,0.0176 -0.176389,-0.17639 z m -159.543747,-0.52917 c 0,-0.19402 0.0794,-0.2734 0.17639,-0.17638 0.097,0.097 0.097,0.25576 0,0.35277 -0.097,0.097 -0.17639,0.0176 -0.17639,-0.17639 z m 44.71458,-0.26458 c 0,-0.19403 0.0794,-0.2734 0.17639,-0.17639 0.097,0.097 0.097,0.25577 0,0.35278 -0.097,0.097 -0.17639,0.0176 -0.17639,-0.17639 z m 114.564583,0 c 0,-0.19403 0.07937,-0.2734 0.17639,-0.17639 0.09701,0.097 0.09701,0.25577 0,0.35278 -0.09702,0.097 -0.17639,0.0176 -0.17639,-0.17639 z m -159.014583,-0.52917 c 0,-0.19402 0.0794,-0.2734 0.17639,-0.17638 0.097,0.097 0.097,0.25576 0,0.35277 -0.097,0.097 -0.17639,0.0176 -0.17639,-0.17639 z m 44.18542,-0.26458 c 0,-0.19403 0.0794,-0.2734 0.17639,-0.17639 0.097,0.097 0.097,0.25577 0,0.35278 -0.097,0.097 -0.17639,0.0176 -0.17639,-0.17639 z m 113.800228,-2.41065 c -0.478981,-1.461295 -0.824571,-2.703204 -0.76798,-2.759796 0.05659,-0.05659 0.494787,1.092716 0.973767,2.554016 0.478981,1.4613 0.824572,2.7032 0.76798,2.7598 -0.05659,0.0566 -0.494787,-1.09272 -0.973767,-2.55402 z m -157.721068,1.88148 c 0,-0.19402 0.0794,-0.2734 0.17639,-0.17638 0.097,0.097 0.097,0.25576 0,0.35277 -0.097,0.097 -0.17639,0.0176 -0.17639,-0.17639 z m 43.65625,-0.26458 c 0,-0.19403 0.0794,-0.2734 0.17639,-0.17639 0.097,0.097 0.097,0.25577 0,0.35278 -0.097,0.097 -0.17639,0.0176 -0.17639,-0.17639 z m -43.39166,-0.52917 c 0,-0.19402 0.0794,-0.2734 0.17639,-0.17638 0.097,0.097 0.097,0.25576 0,0.35277 -0.097,0.097 -0.17639,0.0176 -0.17639,-0.17639 z m 114.56458,0 c 0,-0.19402 0.07937,-0.2734 0.17639,-0.17638 0.09701,0.097 0.09701,0.25576 0,0.35277 -0.09701,0.097 -0.17639,0.0176 -0.17639,-0.17639 z m -71.4375,-0.26458 c 0,-0.19403 0.0794,-0.2734 0.17639,-0.17639 0.097,0.097 0.097,0.25577 0,0.35278 -0.097,0.097 -0.17639,0.0176 -0.17639,-0.17639 z m -42.8625,-0.52917 c 0,-0.19402 0.0794,-0.2734 0.17639,-0.17638 0.097,0.097 0.097,0.25576 0,0.35277 -0.097,0.097 -0.17639,0.0176 -0.17639,-0.17639 z m 114.564583,0 c 0,-0.19402 0.07937,-0.2734 0.17639,-0.17638 0.09701,0.097 0.09701,0.25576 0,0.35277 -0.09701,0.097 -0.17639,0.0176 -0.17639,-0.17639 z m -72.862833,-3.072575 c -0.55253,-1.678789 -0.95851,-3.098435 -0.90218,-3.154764 0.0563,-0.05633 0.55448,1.271135 1.10702,2.949924 0.55253,1.678789 0.95851,3.098435 0.90218,3.154765 -0.0563,0.0563 -0.55449,-1.27114 -1.10702,-2.949925 z m -41.4171,2.400985 c -0.011,-0.15109 0.38762,-1.46078 0.8859,-2.910414 0.49829,-1.449636 0.91501,-2.512075 0.92605,-2.360982 0.011,0.151095 -0.38762,1.460783 -0.8859,2.910416 -0.49829,1.449636 -0.91501,2.51208 -0.92605,2.36098 z m 114.544517,-0.12216 c 0,-0.19402 0.07937,-0.2734 0.176389,-0.17638 0.09701,0.097 0.09701,0.25576 0,0.35277 -0.09701,0.097 -0.176389,0.0176 -0.176389,-0.17639 z m 0.264583,-0.793745 c 0,-0.194027 0.07937,-0.273402 0.17639,-0.17639 0.09701,0.09701 0.09701,0.255765 0,0.352775 -0.09701,0.097 -0.17639,0.0176 -0.17639,-0.176385 z m 0.264583,-0.79375 c 0,-0.194027 0.07938,-0.273402 0.17639,-0.17639 0.09701,0.09701 0.09701,0.255765 0,0.35278 -0.09701,0.09701 -0.17639,0.01764 -0.17639,-0.17639 z m 0.284766,-0.670245 c -0.01111,-0.150355 0.446985,-1.638636 1.017969,-3.307292 0.570984,-1.668658 1.047234,-2.910903 1.058333,-2.760551 0.01111,0.150355 -0.446985,1.638636 -1.017969,3.307292 -0.570984,1.668658 -1.047234,2.910903 -1.058333,2.760551 z m 40.461068,-0.652672 c 0,-0.194027 0.07937,-0.273402 0.176389,-0.176389 0.09701,0.09701 0.09701,0.255764 0,0.352779 -0.09701,0.09701 -0.176389,0.01764 -0.176389,-0.17639 z m -0.264584,-0.79375 c 0,-0.194027 0.07937,-0.273402 0.17639,-0.176389 0.09701,0.09701 0.09701,0.255764 0,0.352779 -0.09701,0.09701 -0.17639,0.01764 -0.17639,-0.17639 z m -0.264583,-0.79375 c 0,-0.194027 0.07937,-0.273402 0.17639,-0.176389 0.09701,0.09701 0.09701,0.255764 0,0.352779 -0.09701,0.09701 -0.17639,0.01764 -0.17639,-0.17639 z m -0.264583,-0.79375 c 0,-0.194027 0.07937,-0.273402 0.176389,-0.176389 0.09701,0.09701 0.09701,0.255764 0,0.352779 -0.09701,0.09701 -0.176389,0.01764 -0.176389,-0.17639 z M -191.22245,94.958362 c 0,-0.194027 0.0794,-0.273402 0.17639,-0.17639 0.097,0.09701 0.097,0.255765 0,0.352779 -0.097,0.09701 -0.17639,0.01764 -0.17639,-0.176389 z m 38.36458,-0.264584 c 0,-0.194027 0.0794,-0.273402 0.17639,-0.176389 0.097,0.09701 0.097,0.255764 0,0.352779 -0.097,0.09701 -0.17639,0.01764 -0.17639,-0.17639 z m 114.564583,0 c 0,-0.194027 0.07937,-0.273402 0.17639,-0.176389 0.09701,0.09701 0.09701,0.255764 0,0.352779 -0.09701,0.09701 -0.17639,0.01764 -0.17639,-0.17639 z M -190.95787,94.164612 c 0,-0.194027 0.0794,-0.273402 0.17639,-0.17639 0.097,0.09702 0.097,0.255765 0,0.352779 -0.097,0.09701 -0.17639,0.01764 -0.17639,-0.176389 z m 37.83542,-0.264584 c 0,-0.194026 0.0794,-0.273401 0.17639,-0.176389 0.097,0.09701 0.097,0.255764 0,0.352779 -0.097,0.09701 -0.17639,0.01764 -0.17639,-0.17639 z m 114.56458,0 c 0,-0.194026 0.07937,-0.273401 0.17639,-0.176389 0.09701,0.09701 0.09701,0.255764 0,0.352779 -0.09701,0.09701 -0.17639,0.01764 -0.17639,-0.17639 z m -152.13542,-0.529166 c 0,-0.194027 0.0794,-0.273402 0.17639,-0.17639 0.097,0.09701 0.097,0.255765 0,0.35278 -0.097,0.09701 -0.17639,0.01764 -0.17639,-0.17639 z m 37.30625,-0.264584 c 0,-0.194026 0.0794,-0.273401 0.17639,-0.176389 0.097,0.09701 0.097,0.255764 0,0.352779 -0.097,0.09701 -0.17639,0.01764 -0.17639,-0.17639 z m 113.800235,-2.410647 c -0.478981,-1.461299 -0.824572,-2.703209 -0.76798,-2.7598 0.05659,-0.05659 0.494787,1.092716 0.973767,2.554012 0.478981,1.461299 0.824571,2.703208 0.76798,2.7598 -0.05659,0.05659 -0.494787,-1.092716 -0.973767,-2.554012 z M -190.4287,92.577112 c 0,-0.194027 0.0794,-0.273402 0.17639,-0.17639 0.097,0.09701 0.097,0.255765 0,0.35278 -0.097,0.09701 -0.17639,0.01764 -0.17639,-0.17639 z m 36.77708,-0.264584 c 0,-0.194026 0.0794,-0.273401 0.17639,-0.176389 0.097,0.09701 0.097,0.255764 0,0.352779 -0.097,0.09701 -0.17639,0.01764 -0.17639,-0.17639 z m -36.5125,-0.529166 c 0,-0.194027 0.0794,-0.273402 0.17639,-0.17639 0.097,0.09701 0.097,0.255765 0,0.35278 -0.097,0.09701 -0.17639,0.01764 -0.17639,-0.17639 z m 114.564583,0 c 0,-0.194027 0.07937,-0.273402 0.17639,-0.17639 0.09701,0.09701 0.09701,0.255765 0,0.35278 -0.09701,0.09701 -0.17639,0.01764 -0.17639,-0.17639 z M -153.9162,91.518778 c 0,-0.194026 0.0794,-0.273401 0.17639,-0.176389 0.097,0.09701 0.097,0.255764 0,0.352779 -0.097,0.09701 -0.17639,0.01764 -0.17639,-0.17639 z m -35.96327,-0.407008 c -0.011,-0.151096 0.38762,-1.460783 0.8859,-2.910417 0.49829,-1.449636 0.91501,-2.512076 0.92605,-2.360983 0.011,0.151096 -0.38762,1.460784 -0.8859,2.910417 -0.49829,1.449636 -0.91501,2.512076 -0.92605,2.360983 z m 114.544517,-0.122158 c 0,-0.194027 0.07937,-0.273402 0.176389,-0.17639 0.09701,0.09701 0.09701,0.255765 0,0.35278 -0.09701,0.09701 -0.176389,0.01764 -0.176389,-0.17639 z m -78.845837,-0.264584 c 0,-0.194026 0.0794,-0.273401 0.17639,-0.176389 0.097,0.09701 0.097,0.255764 0,0.352779 -0.097,0.09701 -0.17639,0.01764 -0.17639,-0.17639 z m 79.11042,-0.529166 c 0,-0.194027 0.07937,-0.273402 0.17639,-0.17639 0.09701,0.09702 0.09701,0.255765 0,0.35278 -0.09701,0.09701 -0.17639,0.01764 -0.17639,-0.17639 z m -80.27117,-3.07258 c -0.55253,-1.678789 -0.95851,-3.098435 -0.90218,-3.154765 0.0563,-0.05633 0.55449,1.271136 1.10702,2.949925 0.55253,1.678789 0.95851,3.098434 0.90218,3.154764 -0.0563,0.05633 -0.55449,-1.271135 -1.10702,-2.949924 z m 80.535753,2.27883 c 0,-0.194027 0.07937,-0.273402 0.17639,-0.17639 0.09701,0.09701 0.09701,0.255765 0,0.35278 -0.09701,0.09701 -0.17639,0.01764 -0.17639,-0.17639 z m 0.264584,-0.79375 c 0,-0.194027 0.07937,-0.273402 0.176389,-0.17639 0.09701,0.09701 0.09701,0.255765 0,0.35278 -0.09701,0.09701 -0.176389,0.01764 -0.176389,-0.17639 z m 0.284654,-0.671592 c -0.01103,-0.151096 0.387615,-1.460783 0.885899,-2.910417 0.498285,-1.449636 0.915004,-2.512075 0.926042,-2.360982 0.01103,0.151095 -0.387615,1.460783 -0.885899,2.910416 -0.498285,1.449636 -0.915003,2.512076 -0.926042,2.360983 z m 33.582012,-0.651325 c 0,-0.194027 0.07937,-0.273402 0.17639,-0.17639 0.09701,0.09701 0.09701,0.255765 0,0.35278 -0.09701,0.09701 -0.17639,0.01764 -0.17639,-0.17639 z m -0.264583,-0.79375 c 0,-0.194027 0.07938,-0.273402 0.17639,-0.17639 0.09701,0.09701 0.09701,0.255765 0,0.35278 -0.09701,0.09701 -0.17639,0.01764 -0.17639,-0.17639 z m -0.264583,-0.79375 c 0,-0.194027 0.07937,-0.273402 0.176389,-0.17639 0.09701,0.09701 0.09701,0.255765 0,0.35278 -0.09701,0.09701 -0.176389,0.01764 -0.176389,-0.17639 z M -188.04745,85.168779 c 0,-0.194027 0.0794,-0.273402 0.17639,-0.17639 0.097,0.09701 0.097,0.255765 0,0.352779 -0.097,0.09701 -0.17639,0.01764 -0.17639,-0.176389 z m 146.579163,-0.264584 c 0,-0.194027 0.07937,-0.273402 0.17639,-0.17639 0.09701,0.09701 0.09701,0.255765 0,0.35278 -0.09701,0.09701 -0.17639,0.01764 -0.17639,-0.17639 z M -187.78287,84.375029 c 0,-0.194027 0.0794,-0.273402 0.17639,-0.17639 0.097,0.09701 0.097,0.255765 0,0.352779 -0.097,0.09701 -0.17639,0.01764 -0.17639,-0.176389 z m 146.05,-0.264584 c 0,-0.194027 0.07937,-0.273402 0.17639,-0.176389 0.09701,0.09701 0.09701,0.255764 0,0.352779 -0.09701,0.09701 -0.17639,0.01764 -0.17639,-0.17639 z m -145.78542,-0.529166 c 0,-0.194027 0.0794,-0.273402 0.17639,-0.17639 0.097,0.09701 0.097,0.255765 0,0.352779 -0.097,0.09701 -0.17639,0.01764 -0.17639,-0.176389 z m 30.95625,-0.264584 c 0,-0.194027 0.0794,-0.273402 0.17639,-0.176389 0.097,0.09701 0.097,0.255764 0,0.352779 -0.097,0.09701 -0.17639,0.01764 -0.17639,-0.17639 z m 113.668416,-2.807996 c -0.552529,-1.678789 -0.958511,-3.098435 -0.902178,-3.154765 0.05633,-0.05633 0.554487,1.271135 1.107019,2.949924 0.552529,1.67879 0.958511,3.098435 0.902179,3.154765 -0.05633,0.05633 -0.554488,-1.271135 -1.10702,-2.949924 z m -144.360076,2.27883 c 0,-0.194027 0.0794,-0.273402 0.17639,-0.17639 0.097,0.09701 0.097,0.255765 0,0.352779 -0.097,0.09701 -0.17639,0.01764 -0.17639,-0.176389 z m 30.42708,-0.264584 c 0,-0.194027 0.0794,-0.273402 0.17639,-0.176389 0.097,0.09701 0.097,0.255764 0,0.352779 -0.097,0.09701 -0.17639,0.01764 -0.17639,-0.17639 z m -30.1625,-0.529166 c 0,-0.194027 0.0794,-0.273402 0.17639,-0.17639 0.097,0.09701 0.097,0.255765 0,0.352779 -0.097,0.09701 -0.17639,0.01764 -0.17639,-0.176389 z m 114.564583,0 c 0,-0.194027 0.07937,-0.273402 0.17639,-0.17639 0.09701,0.09701 0.09701,0.255765 0,0.352779 -0.09701,0.09701 -0.17639,0.01764 -0.17639,-0.176389 z M -157.0912,81.729195 c 0,-0.194027 0.0794,-0.273402 0.17639,-0.176389 0.097,0.09701 0.097,0.255764 0,0.352779 -0.097,0.09701 -0.17639,0.01764 -0.17639,-0.17639 z m -29.61327,-0.407008 c -0.011,-0.151096 0.38762,-1.460783 0.8859,-2.910417 0.49829,-1.449636 0.91501,-2.512076 0.92605,-2.360983 0.011,0.151096 -0.38762,1.460783 -0.8859,2.910417 -0.49829,1.449636 -0.91501,2.512076 -0.92605,2.360983 z m 114.544517,-0.122158 c 0,-0.194027 0.07937,-0.273402 0.176389,-0.17639 0.09701,0.09701 0.09701,0.255765 0,0.352779 -0.09701,0.09701 -0.176389,0.01764 -0.176389,-0.176389 z m -85.195837,-0.264584 c 0,-0.194027 0.0794,-0.273402 0.17639,-0.176389 0.097,0.09701 0.097,0.255764 0,0.352779 -0.097,0.09701 -0.17639,0.01764 -0.17639,-0.17639 z m 85.46042,-0.529166 c 0,-0.194027 0.07937,-0.273402 0.17639,-0.17639 0.09701,0.09701 0.09701,0.255765 0,0.352779 -0.09701,0.09701 -0.17639,0.01764 -0.17639,-0.176389 z m -85.725,-0.264584 c 0,-0.194027 0.0794,-0.273402 0.17639,-0.176389 0.097,0.09701 0.097,0.255764 0,0.352779 -0.097,0.09701 -0.17639,0.01764 -0.17639,-0.17639 z m 85.989583,-0.529166 c 0,-0.194027 0.07937,-0.273402 0.17639,-0.17639 0.09701,0.09701 0.09701,0.255765 0,0.352779 -0.09701,0.09701 -0.17639,0.01764 -0.17639,-0.176389 z m -87.150333,-3.07258 c -0.55253,-1.678789 -0.95851,-3.098435 -0.90218,-3.154765 0.0563,-0.05633 0.55448,1.271135 1.10702,2.949925 0.55253,1.678789 0.95851,3.098434 0.90218,3.154764 -0.0563,0.05633 -0.55449,-1.271135 -1.10702,-2.949924 z m 87.414917,2.27883 c 0,-0.194027 0.07937,-0.273402 0.176389,-0.17639 0.09701,0.09701 0.09701,0.255765 0,0.352779 -0.09701,0.09701 -0.176389,0.01764 -0.176389,-0.176389 z m 0.264583,-0.79375 c 0,-0.194027 0.07937,-0.273402 0.17639,-0.17639 0.09701,0.09701 0.09701,0.255765 0,0.35278 -0.09701,0.09701 -0.17639,0.01764 -0.17639,-0.17639 z m 0.284655,-0.671592 c -0.01103,-0.151096 0.387614,-1.460783 0.885899,-2.910417 0.498284,-1.449636 0.915003,-2.512076 0.926041,-2.360983 0.01103,0.151096 -0.387614,1.460783 -0.885899,2.910417 -0.498284,1.449636 -0.915003,2.512076 -0.926041,2.360983 z m 26.702845,-0.651325 c 0,-0.194027 0.07937,-0.273402 0.17639,-0.17639 0.09701,0.09701 0.09701,0.255765 0,0.35278 -0.09701,0.09701 -0.17639,0.01764 -0.17639,-0.17639 z m -0.264583,-0.79375 c 0,-0.194027 0.07937,-0.273402 0.176389,-0.17639 0.09701,0.09701 0.09701,0.255765 0,0.35278 -0.09701,0.09701 -0.176389,0.01764 -0.176389,-0.17639 z M -184.87245,75.379195 c 0,-0.194026 0.0794,-0.273401 0.17639,-0.176389 0.097,0.09701 0.097,0.255764 0,0.352779 -0.097,0.09701 -0.17639,0.01764 -0.17639,-0.17639 z m 140.229163,-0.264583 c 0,-0.194027 0.07937,-0.273402 0.17639,-0.17639 0.09701,0.09701 0.09701,0.255765 0,0.35278 -0.09701,0.09701 -0.17639,0.01764 -0.17639,-0.17639 z M -184.60787,74.585445 c 0,-0.194026 0.0794,-0.273401 0.17639,-0.176389 0.097,0.09701 0.097,0.255764 0,0.352779 -0.097,0.09701 -0.17639,0.01764 -0.17639,-0.17639 z m 139.7,-0.264583 c 0,-0.194027 0.07938,-0.273402 0.17639,-0.17639 0.09701,0.09702 0.09701,0.255765 0,0.35278 -0.09701,0.09701 -0.17639,0.01764 -0.17639,-0.17639 z m -139.43542,-0.529166 c 0,-0.194027 0.0794,-0.273402 0.17639,-0.17639 0.097,0.09701 0.097,0.255765 0,0.352779 -0.097,0.09701 -0.17639,0.01764 -0.17639,-0.176389 z m 139.170837,-0.264584 c 0,-0.194027 0.07937,-0.273402 0.176389,-0.17639 0.09701,0.09701 0.09701,0.255765 0,0.35278 -0.09701,0.09701 -0.176389,0.01764 -0.176389,-0.17639 z M -184.0787,72.997946 c 0,-0.194027 0.0794,-0.273402 0.17639,-0.17639 0.097,0.09701 0.097,0.255765 0,0.352779 -0.097,0.09701 -0.17639,0.01764 -0.17639,-0.176389 z m 24.07708,-0.264584 c 0,-0.194027 0.0794,-0.273402 0.17639,-0.17639 0.097,0.09701 0.097,0.255765 0,0.35278 -0.097,0.09701 -0.17639,0.01764 -0.17639,-0.17639 z m 113.800231,-2.410648 c -0.47898,-1.461299 -0.824571,-2.703208 -0.767979,-2.7598 0.05659,-0.05659 0.494786,1.092716 0.973767,2.554013 0.47898,1.461299 0.824571,2.703208 0.767979,2.7598 -0.05659,0.05659 -0.494786,-1.092716 -0.973767,-2.554013 z m -137.612731,1.881482 c 0,-0.194027 0.0794,-0.273402 0.17639,-0.17639 0.097,0.09701 0.097,0.255765 0,0.352779 -0.097,0.09701 -0.17639,0.01764 -0.17639,-0.176389 z m 23.54792,-0.264584 c 0,-0.194027 0.0794,-0.273402 0.17639,-0.17639 0.097,0.09701 0.097,0.255765 0,0.35278 -0.097,0.09701 -0.17639,0.01764 -0.17639,-0.17639 z m -23.26342,-0.408842 c -0.011,-0.152104 0.32831,-1.283197 0.75392,-2.513541 0.4256,-1.230345 0.78279,-2.112545 0.79375,-1.960441 0.011,0.152103 -0.32831,1.283197 -0.75392,2.513541 -0.4256,1.230345 -0.78279,2.112545 -0.79375,1.960441 z m 114.544667,-0.120324 c 0,-0.194027 0.07937,-0.273402 0.176389,-0.17639 0.09701,0.09701 0.09701,0.255765 0,0.352779 -0.09701,0.09701 -0.176389,0.01764 -0.176389,-0.176389 z m -91.545837,-0.264584 c 0,-0.194027 0.0794,-0.273402 0.17639,-0.17639 0.097,0.09701 0.097,0.255765 0,0.35278 -0.097,0.09701 -0.17639,0.01764 -0.17639,-0.17639 z m 91.81042,-0.529166 c 0,-0.194027 0.07937,-0.273402 0.17639,-0.17639 0.09701,0.09701 0.09701,0.255765 0,0.352779 -0.09701,0.09701 -0.17639,0.01764 -0.17639,-0.176389 z m -92.075,-0.264584 c 0,-0.194027 0.0794,-0.273402 0.17639,-0.17639 0.097,0.09702 0.097,0.255765 0,0.35278 -0.097,0.09701 -0.17639,0.01764 -0.17639,-0.17639 z m 92.339583,-0.529166 c 0,-0.194027 0.07937,-0.273402 0.17639,-0.17639 0.09701,0.09701 0.09701,0.255765 0,0.352779 -0.09701,0.09701 -0.17639,0.01764 -0.17639,-0.176389 z m -92.604163,-0.264584 c 0,-0.194027 0.0794,-0.273402 0.17639,-0.17639 0.097,0.09701 0.097,0.255765 0,0.35278 -0.097,0.09701 -0.17639,0.01764 -0.17639,-0.17639 z m 92.868747,-0.529166 c 0,-0.194027 0.07937,-0.273402 0.176389,-0.17639 0.09701,0.09701 0.09701,0.255765 0,0.352779 -0.09701,0.09701 -0.176389,0.01764 -0.176389,-0.176389 z m -93.133337,-0.264584 c 0,-0.194027 0.0794,-0.273402 0.17639,-0.176389 0.097,0.09701 0.097,0.255764 0,0.352779 -0.097,0.09701 -0.17639,0.01764 -0.17639,-0.17639 z m 93.39792,-0.529166 c 0,-0.194027 0.07937,-0.273402 0.17639,-0.17639 0.09701,0.09701 0.09701,0.255765 0,0.352779 -0.09701,0.09701 -0.17639,0.01764 -0.17639,-0.176389 z m -94.55867,-3.07258 c -0.55253,-1.678789 -0.95851,-3.098435 -0.90218,-3.154765 0.0563,-0.05633 0.55449,1.271135 1.10702,2.949924 0.55253,1.67879 0.95851,3.098435 0.90218,3.154765 -0.0563,0.05633 -0.55449,-1.271135 -1.10702,-2.949924 z m 94.843436,2.402334 c -0.01111,-0.150354 0.446984,-1.638635 1.017968,-3.307291 0.570984,-1.668658 1.047234,-2.910904 1.058334,-2.760551 0.01111,0.150354 -0.446985,1.638636 -1.017969,3.307291 -0.570984,1.668658 -1.047234,2.910904 -1.058333,2.760551 z m 20.352734,-0.652671 c 0,-0.194027 0.07937,-0.273402 0.17639,-0.17639 0.09701,0.09701 0.09701,0.255765 0,0.35278 -0.09701,0.09701 -0.17639,0.01764 -0.17639,-0.17639 z m -134.67292,-0.529167 c 0,-0.194027 0.0794,-0.273402 0.17639,-0.176389 0.097,0.09701 0.097,0.255764 0,0.352779 -0.097,0.09701 -0.17639,0.01764 -0.17639,-0.17639 z m 134.408337,-0.264583 c 0,-0.194027 0.07937,-0.273402 0.176389,-0.17639 0.09701,0.09701 0.09701,0.255765 0,0.35278 -0.09701,0.09701 -0.176389,0.01764 -0.176389,-0.17639 z M -181.69745,65.589612 c 0,-0.194027 0.0794,-0.273402 0.17639,-0.176389 0.097,0.09701 0.097,0.255764 0,0.352779 -0.097,0.09701 -0.17639,0.01764 -0.17639,-0.17639 z m 133.879163,-0.264583 c 0,-0.194027 0.07937,-0.273402 0.17639,-0.17639 0.09701,0.09701 0.09701,0.255765 0,0.35278 -0.09701,0.09701 -0.17639,0.01764 -0.17639,-0.17639 z M -181.43287,64.795862 c 0,-0.194027 0.0794,-0.273402 0.17639,-0.176389 0.097,0.09701 0.097,0.255764 0,0.352779 -0.097,0.09701 -0.17639,0.01764 -0.17639,-0.17639 z m 133.35,-0.264583 c 0,-0.194027 0.07937,-0.273402 0.17639,-0.17639 0.09701,0.09701 0.09701,0.255765 0,0.35278 -0.09701,0.09701 -0.17639,0.01764 -0.17639,-0.17639 z m -133.08542,-0.529167 c 0,-0.194027 0.0794,-0.273402 0.17639,-0.176389 0.097,0.09701 0.097,0.255764 0,0.352779 -0.097,0.09701 -0.17639,0.01764 -0.17639,-0.17639 z m 132.820837,-0.264583 c 0,-0.194027 0.07937,-0.273402 0.176389,-0.17639 0.09701,0.09702 0.09701,0.255765 0,0.35278 -0.09701,0.09701 -0.176389,0.01764 -0.176389,-0.17639 z M -180.9037,63.208362 c 0,-0.194026 0.0794,-0.273401 0.17639,-0.176389 0.097,0.09701 0.097,0.255764 0,0.352779 -0.097,0.09701 -0.17639,0.01764 -0.17639,-0.17639 z m 132.291663,-0.264583 c 0,-0.194027 0.07937,-0.273402 0.17639,-0.17639 0.09701,0.09701 0.09701,0.255765 0,0.35278 -0.09701,0.09701 -0.17639,0.01764 -0.17639,-0.17639 z M -180.61905,62.536771 c -0.011,-0.151096 0.38762,-1.460784 0.8859,-2.910417 0.49828,-1.449636 0.915,-2.512076 0.92604,-2.360983 0.011,0.151096 -0.38761,1.460783 -0.8859,2.910417 -0.49828,1.449636 -0.915,2.512076 -0.92604,2.360983 z m 130.978078,-2.79739 c -0.478981,-1.461299 -0.824571,-2.703208 -0.76798,-2.7598 0.05659,-0.05659 0.494787,1.092716 0.973767,2.554013 0.478981,1.461299 0.824572,2.703208 0.76798,2.7598 -0.05659,0.05659 -0.494787,-1.092716 -0.973767,-2.554013 z m -114.064818,1.616898 c 0,-0.194027 0.0794,-0.273402 0.17639,-0.17639 0.097,0.09701 0.097,0.255765 0,0.35278 -0.097,0.09701 -0.17639,0.01764 -0.17639,-0.17639 z m 98.16042,-0.529167 c 0,-0.194026 0.07937,-0.273401 0.17639,-0.176389 0.09701,0.09701 0.09701,0.255764 0,0.352779 -0.09702,0.09701 -0.17639,0.01764 -0.17639,-0.17639 z m -98.425,-0.264583 c 0,-0.194027 0.0794,-0.273402 0.17639,-0.17639 0.097,0.09701 0.097,0.255765 0,0.35278 -0.097,0.09701 -0.17639,0.01764 -0.17639,-0.17639 z m 98.689583,-0.529167 c 0,-0.194026 0.07937,-0.273401 0.17639,-0.176389 0.09701,0.09701 0.09701,0.255764 0,0.352779 -0.09701,0.09701 -0.17639,0.01764 -0.17639,-0.17639 z m -98.954163,-0.264583 c 0,-0.194027 0.0794,-0.273402 0.17639,-0.17639 0.097,0.09702 0.097,0.255765 0,0.35278 -0.097,0.09701 -0.17639,0.01764 -0.17639,-0.17639 z m 99.218747,-0.529167 c 0,-0.194026 0.07937,-0.273401 0.176389,-0.176389 0.09701,0.09701 0.09701,0.255764 0,0.352779 -0.09701,0.09701 -0.176389,0.01764 -0.176389,-0.17639 z m -99.483337,-0.264583 c 0,-0.194027 0.0794,-0.273402 0.17639,-0.17639 0.097,0.09701 0.097,0.255765 0,0.35278 -0.097,0.09701 -0.17639,0.01764 -0.17639,-0.17639 z m 99.74792,-0.529166 c 0,-0.194027 0.07937,-0.273402 0.17639,-0.17639 0.09701,0.09701 0.09701,0.255765 0,0.352779 -0.09701,0.09701 -0.17639,0.01764 -0.17639,-0.176389 z m -100.0125,-0.264584 c 0,-0.194027 0.0794,-0.273402 0.17639,-0.17639 0.097,0.09701 0.097,0.255765 0,0.35278 -0.097,0.09701 -0.17639,0.01764 -0.17639,-0.17639 z m 100.277083,-0.529166 c 0,-0.194027 0.07937,-0.273402 0.17639,-0.17639 0.09701,0.09701 0.09701,0.255765 0,0.352779 -0.09701,0.09701 -0.17639,0.01764 -0.17639,-0.176389 z M -165.0287,57.387529 c 0,-0.194027 0.0794,-0.273402 0.17639,-0.17639 0.097,0.09701 0.097,0.255765 0,0.35278 -0.097,0.09701 -0.17639,0.01764 -0.17639,-0.17639 z m 100.826318,-0.407008 c -0.01103,-0.151096 0.387615,-1.460783 0.885899,-2.910417 0.498285,-1.449636 0.915003,-2.512076 0.926042,-2.360983 0.01103,0.151096 -0.387615,1.460783 -0.885899,2.910417 -0.498285,1.449636 -0.915004,2.512076 -0.926042,2.360983 z M -178.78704,56.593779 c 0,-0.194027 0.0794,-0.273402 0.17639,-0.17639 0.097,0.09701 0.097,0.255765 0,0.35278 -0.097,0.09701 -0.17639,0.01764 -0.17639,-0.17639 z m 12.59758,-2.807996 c -0.55253,-1.678789 -0.95851,-3.098435 -0.90218,-3.154765 0.0563,-0.05633 0.55449,1.271135 1.10702,2.949924 0.55253,1.67879 0.95851,3.098435 0.90218,3.154765 -0.0563,0.05633 -0.55448,-1.271135 -1.10702,-2.949924 z m 115.460757,2.543413 c 0,-0.194027 0.07938,-0.273402 0.176389,-0.17639 0.09701,0.09701 0.09701,0.255765 0,0.35278 -0.09701,0.09701 -0.176389,0.01764 -0.176389,-0.17639 z M -178.52245,55.800029 c 0,-0.194027 0.0794,-0.273402 0.17639,-0.17639 0.097,0.09702 0.097,0.255765 0,0.35278 -0.097,0.09701 -0.17639,0.01764 -0.17639,-0.17639 z m 127.529163,-0.264583 c 0,-0.194027 0.07937,-0.273402 0.17639,-0.17639 0.09701,0.09701 0.09701,0.255765 0,0.35278 -0.09702,0.09701 -0.17639,0.01764 -0.17639,-0.17639 z M -178.25787,55.006279 c 0,-0.194027 0.0794,-0.273402 0.17639,-0.17639 0.097,0.09701 0.097,0.255765 0,0.35278 -0.097,0.09701 -0.17639,0.01764 -0.17639,-0.17639 z m 127,-0.264583 c 0,-0.194027 0.07937,-0.273402 0.17639,-0.17639 0.09701,0.09701 0.09701,0.255765 0,0.35278 -0.09701,0.09701 -0.17639,0.01764 -0.17639,-0.17639 z m -126.73542,-0.529167 c 0,-0.194027 0.0794,-0.273402 0.17639,-0.176389 0.097,0.09701 0.097,0.255764 0,0.352779 -0.097,0.09701 -0.17639,0.01764 -0.17639,-0.17639 z m 126.470837,-0.264583 c 0,-0.194027 0.07937,-0.273402 0.176389,-0.17639 0.09701,0.09702 0.09701,0.255765 0,0.35278 -0.09701,0.09701 -0.176389,0.01764 -0.176389,-0.17639 z M -177.7287,53.418779 c 0,-0.194027 0.0794,-0.273402 0.17639,-0.176389 0.097,0.09701 0.097,0.255764 0,0.352779 -0.097,0.09701 -0.17639,0.01764 -0.17639,-0.17639 z m 125.941663,-0.264583 c 0,-0.194027 0.07937,-0.273402 0.17639,-0.17639 0.09701,0.09701 0.09701,0.255765 0,0.35278 -0.09701,0.09701 -0.17639,0.01764 -0.17639,-0.17639 z M -177.44405,52.747187 c -0.011,-0.151095 0.38762,-1.460783 0.8859,-2.910416 0.49828,-1.449636 0.915,-2.512076 0.92604,-2.360983 0.011,0.151096 -0.38761,1.460783 -0.8859,2.910417 -0.49828,1.449636 -0.915,2.512075 -0.92604,2.360982 z M -52.94779,49.55245 c -0.55253,-1.67879 -0.958512,-3.098435 -0.902179,-3.154765 0.05633,-0.05633 0.554487,1.271135 1.107019,2.949924 0.55253,1.678789 0.958512,3.098435 0.902179,3.154765 -0.05633,0.05633 -0.554487,-1.271135 -1.107019,-2.949924 z m -9.42258,1.485079 c 0,-0.194027 0.07937,-0.273402 0.17639,-0.176389 0.09701,0.09701 0.09701,0.255764 0,0.352779 -0.09701,0.09701 -0.17639,0.01764 -0.17639,-0.17639 z m 0.264583,-0.79375 c 0,-0.194027 0.07937,-0.273402 0.17639,-0.176389 0.09701,0.09701 0.09701,0.255764 0,0.352779 -0.09701,0.09701 -0.17639,0.01764 -0.17639,-0.17639 z M -167.40995,49.979196 c 0,-0.194027 0.0794,-0.273402 0.17639,-0.17639 0.097,0.09702 0.097,0.255765 0,0.35278 -0.097,0.09701 -0.17639,0.01764 -0.17639,-0.17639 z m 105.568747,-0.529167 c 0,-0.194027 0.07937,-0.273402 0.176389,-0.176389 0.09701,0.09701 0.09701,0.255764 0,0.352779 -0.09701,0.09701 -0.176389,0.01764 -0.176389,-0.17639 z M -167.67454,49.185446 c 0,-0.194027 0.0794,-0.273402 0.17639,-0.17639 0.097,0.09701 0.097,0.255765 0,0.35278 -0.097,0.09701 -0.17639,0.01764 -0.17639,-0.17639 z m 106.09792,-0.529167 c 0,-0.194026 0.07937,-0.273401 0.17639,-0.176389 0.09701,0.09701 0.09701,0.255764 0,0.352779 -0.09701,0.09701 -0.17639,0.01764 -0.17639,-0.17639 z m -106.3625,-0.264583 c 0,-0.194027 0.0794,-0.273402 0.17639,-0.17639 0.097,0.09701 0.097,0.255765 0,0.35278 -0.097,0.09701 -0.17639,0.01764 -0.17639,-0.17639 z m 106.627083,-0.529167 c 0,-0.194026 0.07937,-0.273401 0.17639,-0.176389 0.09701,0.09701 0.09701,0.255764 0,0.352779 -0.09701,0.09701 -0.17639,0.01764 -0.17639,-0.17639 z M -168.2037,47.597946 c 0,-0.194027 0.0794,-0.273402 0.17639,-0.17639 0.097,0.09701 0.097,0.255765 0,0.35278 -0.097,0.09701 -0.17639,0.01764 -0.17639,-0.17639 z m 107.156247,-0.529167 c 0,-0.194026 0.07937,-0.273401 0.176389,-0.176389 0.09701,0.09701 0.09701,0.255764 0,0.352779 -0.09701,0.09701 -0.176389,0.01764 -0.176389,-0.17639 z M -175.61204,46.804196 c 0,-0.194027 0.0794,-0.273402 0.17639,-0.17639 0.097,0.09701 0.097,0.255765 0,0.35278 -0.097,0.09701 -0.17639,0.01764 -0.17639,-0.17639 z m 7.14375,0 c 0,-0.194027 0.0794,-0.273402 0.17639,-0.17639 0.097,0.09701 0.097,0.255765 0,0.35278 -0.097,0.09701 -0.17639,0.01764 -0.17639,-0.17639 z m 107.708068,-0.529167 c -0.008,-0.218281 0.10087,-0.575468 0.241935,-0.79375 0.312558,-0.48365 0.312558,-0.06591 0,0.661459 -0.149934,0.348916 -0.232344,0.39398 -0.241935,0.132291 z M -175.34745,46.010446 c 0,-0.194027 0.0794,-0.273402 0.17639,-0.17639 0.097,0.09702 0.097,0.255765 0,0.35278 -0.097,0.09701 -0.17639,0.01764 -0.17639,-0.17639 z m 6.61458,0 c 0,-0.194027 0.0794,-0.273402 0.17639,-0.17639 0.097,0.09702 0.097,0.255765 0,0.35278 -0.097,0.09701 -0.17639,0.01764 -0.17639,-0.17639 z m 114.290552,-0.816557 c -0.189892,-0.458441 -0.711933,-1.057127 -1.160092,-1.330412 -0.44816,-0.273288 -0.6925,-0.497332 -0.542978,-0.497875 0.739436,-0.0027 2.565384,2.144755 2.164516,2.545625 -0.06391,0.0639 -0.271555,-0.2589 -0.461446,-0.717338 z m -120.633512,0.109305 c -0.009,-0.403336 1.5282,-1.94069 1.93154,-1.931541 0.17071,0.0039 1.2e-4,0.199629 -0.37909,0.435015 -0.3792,0.235387 -0.88205,0.738233 -1.11743,1.117439 -0.23539,0.379206 -0.43115,0.549796 -0.43502,0.379087 z m 5.94029,-0.369337 c -0.0956,-0.30108 -0.55007,-0.776886 -1.01002,-1.057344 -0.45995,-0.280456 -0.67828,-0.510368 -0.48519,-0.510911 0.41947,-0.0011 1.89788,1.424932 1.89788,1.830742 0,0.465762 -0.21628,0.324779 -0.40267,-0.262487 z M -60.037245,44.52358 c 0.366083,-0.697351 1.864085,-1.430435 2.866236,-1.402662 0.861682,0.02387 0.643435,0.13057 -0.737936,0.360744 -0.529394,0.08821 -1.291074,0.484918 -1.692624,0.881565 -0.584078,0.576948 -0.671208,0.609018 -0.435676,0.160353 z M -172.37089,43.182228 c 0.25466,-0.06655 0.67138,-0.06655 0.92604,0 0.25466,0.06655 0.0463,0.121002 -0.46302,0.121002 -0.50932,0 -0.71768,-0.05445 -0.46302,-0.121002 z"
         id="path3507" />
      <path
         style="fill:#e14228;stroke-width:0.264583"
         d="m -115.07441,209.85367 c -1.0271,-2.76201 -32.91196,-101.31045 -32.82937,-101.4677 0.13515,-0.25732 66.747993,-0.26063 66.747993,-0.003 0,0.10732 -7.33888,22.75896 -16.30862,50.33698 -8.969743,27.57802 -16.431123,50.52881 -16.580853,51.00175 -0.33283,1.05133 -0.67121,1.09482 -1.02915,0.13229 z m -79.85221,-102.30448 c 0,-0.55294 19.76574,-61.532539 20.25317,-62.483365 1.26219,-2.462172 4.79089,-2.181836 5.78011,0.459201 1.11027,2.964188 20.00422,61.394044 20.00422,61.863364 0,0.53226 -0.099,0.53455 -23.01875,0.53455 -19.65177,0 -23.01875,-0.0547 -23.01875,-0.37375 z m 114.563372,0.0445 c -0.0019,-0.4978 20.130158,-62.417164 20.471569,-62.963849 0.378613,-0.606253 1.768004,-1.265208 2.667664,-1.265208 1.025811,0 2.196367,0.693153 2.64913,1.568699 0.411975,0.79667 20.146319,61.397018 20.297005,62.328178 0.08502,0.52534 -0.08101,0.52965 -22.999261,0.59676 -18.380773,0.0538 -23.085142,-9e-5 -23.086107,-0.26458 z"
         id="path3505" />
    </g>
  </g>
</svg>
