<?xml version="1.0" encoding="UTF-8" standalone="no"?>
<svg
   xmlns:dc="http://purl.org/dc/elements/1.1/"
   xmlns:cc="http://creativecommons.org/ns#"
   xmlns:rdf="http://www.w3.org/1999/02/22-rdf-syntax-ns#"
   xmlns:svg="http://www.w3.org/2000/svg"
   xmlns="http://www.w3.org/2000/svg"
   xmlns:xlink="http://www.w3.org/1999/xlink"
   xmlns:sodipodi="http://sodipodi.sourceforge.net/DTD/sodipodi-0.dtd"
   xmlns:inkscape="http://www.inkscape.org/namespaces/inkscape"
   width="434mm"
   height="150mm"
   viewBox="0 0 434 150"
   version="1.1"
   id="svg2146"
   inkscape:version="1.0.1 (3bc2e813f5, 2020-09-07)"
   sodipodi:docname="gradle.svg">
  <title
     id="title1091">Colored Badge Template</title>
  <defs
     id="defs2140">
    <linearGradient
       inkscape:collect="always"
       id="linearGradient2167">
      <stop
         style="stop-color:#016533;stop-opacity:1"
         offset="0"
         id="stop2163" />
      <stop
         style="stop-color:#81b815;stop-opacity:1"
         offset="1"
         id="stop2165" />
    </linearGradient>
    <linearGradient
       inkscape:collect="always"
       id="linearGradient2974">
      <stop
         style="stop-color:#000000;stop-opacity:1"
         offset="0"
         id="stop2970" />
      <stop
         style="stop-color:#404040;stop-opacity:1"
         offset="1"
         id="stop2972" />
    </linearGradient>
    <linearGradient
       inkscape:collect="always"
       xlink:href="#linearGradient2974"
       id="linearGradient1030"
       gradientUnits="userSpaceOnUse"
       x1="-8.5265128e-14"
       y1="150"
       x2="-8.5265128e-14"
       y2="0"
       gradientTransform="scale(0.87615928,1)" />
    <linearGradient
       inkscape:collect="always"
       xlink:href="#linearGradient2167"
       id="linearGradient1038-4"
       x1="-6.8115232e-06"
       y1="150"
       x2="-8.5265128e-14"
       y2="0"
       gradientUnits="userSpaceOnUse"
       gradientTransform="translate(6.8115233e-6)" />
    <linearGradient
       inkscape:collect="always"
       xlink:href="#linearGradient2167"
       id="linearGradient1038-0-4"
       x1="5.7943904e-05"
       y1="150"
       x2="5.7943904e-05"
       y2="-2.7587889e-06"
       gradientUnits="userSpaceOnUse"
       gradientTransform="matrix(0.17738398,0,0,1,123.3924,1.8017578e-5)" />
  </defs>
  <sodipodi:namedview
     id="base"
     pagecolor="#ffffff"
     bordercolor="#666666"
     borderopacity="1.0"
     inkscape:pageopacity="0.0"
     inkscape:pageshadow="2"
     inkscape:zoom="0.35484626"
     inkscape:cx="804.10448"
     inkscape:cy="493.58411"
     inkscape:document-units="mm"
     inkscape:current-layer="layer2"
     inkscape:document-rotation="0"
     showgrid="false"
     inkscape:snap-bbox="true"
     inkscape:window-width="1920"
     inkscape:window-height="1017"
     inkscape:window-x="-8"
     inkscape:window-y="-8"
     inkscape:window-maximized="1" />
  <metadata
     id="metadata2143">
    <rdf:RDF>
      <cc:Work
         rdf:about="">
        <dc:format>image/svg+xml</dc:format>
        <dc:type
           rdf:resource="http://purl.org/dc/dcmitype/StillImage" />
        <dc:title>Colored Badge Template</dc:title>
      </cc:Work>
    </rdf:RDF>
  </metadata>
  <g
     inkscape:label="Text Background"
     inkscape:groupmode="layer"
     id="layer1">
    <rect
       style="opacity:0.996;fill:url(#linearGradient1030);fill-opacity:1;stroke-width:4.93009;stroke-linecap:square;paint-order:stroke fill markers"
       id="rect7"
       width="434"
       height="150"
       x="-8.5265128e-14"
       y="0"
       ry="15.000003" />
  </g>
  <g
     inkscape:groupmode="layer"
     id="layer4"
     inkscape:label="Text">
    <text
       xml:space="preserve"
       style="font-style:normal;font-weight:normal;font-size:67.3688px;line-height:1.25;font-family:sans-serif;fill:#ffffff;fill-opacity:1;stroke:none;stroke-width:0.350876"
       x="185"
       y="98.980537"
       id="text13"><tspan
         sodipodi:role="line"
         id="tspan11"
         x="185"
         y="98.980537"
         style="font-size:67.3688px;fill:#ffffff;stroke-width:0.350876">Gradle</tspan></text>
  </g>
  <g
     inkscape:groupmode="layer"
     id="layer3"
     inkscape:label="Logo Background" />
  <g
     inkscape:groupmode="layer"
     id="layer2"
     inkscape:label="Logo">
    <rect
       style="opacity:0.996;fill:url(#linearGradient1038-4);fill-opacity:1;stroke-width:2.89838;stroke-linecap:square;paint-order:stroke fill markers"
       id="rect7-3-1"
       width="150"
       height="150"
       x="-8.5265128e-14"
       y="0"
       ry="15" />
    <rect
       style="opacity:0.996;fill:url(#linearGradient1038-0-4);fill-opacity:1.0;stroke-width:1.22071;stroke-linecap:square;paint-order:stroke fill markers"
       id="rect7-3-0-6"
       width="26.607597"
       height="150"
       x="123.39241"
       y="1.5258789e-05" />
    <path
       style="fill:#ffffff;stroke-width:0.240938"
       d="m 89.444592,111.34613 c -3.558295,-4.08124 -6.837728,-6.77842 -10.296913,-8.46865 -3.511354,-1.71575 -6.058185,-1.93136 -8.702726,-0.73676 -2.569631,1.16074 -4.968121,4.23084 -6.494197,8.31265 -0.472732,1.26439 -0.944894,2.46153 -1.049244,2.66031 -0.156301,0.29773 -0.979194,0.37295 -4.67062,0.42691 l -4.480918,0.0655 -0.252201,-1.02926 c -1.186125,-4.84062 -2.581291,-7.28794 -4.919101,-8.6288 -2.867162,-1.64447 -5.987985,-0.46456 -8.310934,3.14217 -0.469422,0.72884 -1.245426,2.4636 -1.724438,3.85502 l -0.870933,2.52985 -5.792924,0.0645 c -4.447509,0.0494 -5.851595,-0.006 -6.045496,-0.24093 -0.756153,-0.91434 -1.130164,-13.444737 -0.552062,-18.496291 0.876834,-7.66193 2.982043,-14.12491 6.160836,-18.91367 1.362665,-2.0528 4.505659,-5.25674 6.377516,-6.50113 1.984559,-1.31933 5.005001,-2.78329 5.416593,-2.62535 0.169811,0.0652 0.758603,1.10612 1.308445,2.31324 1.806818,3.96669 3.910877,7.44345 5.448283,9.00278 1.944418,1.97215 3.537125,2.59595 6.274586,2.45749 2.677361,-0.13541 4.964441,-1.26762 7.642082,-3.78317 1.941448,-1.82392 3.901066,-4.0886 3.706355,-4.28332 -0.0565,-0.0566 -1.144944,0.71177 -2.41861,1.70739 -1.273675,0.99563 -3.212223,2.25444 -4.307908,2.79737 -3.870896,1.91809 -6.737808,1.81583 -8.886647,-0.31699 -2.180579,-2.16435 -8.321864,-13.58295 -8.563255,-15.92185 -0.251381,-2.43559 1.021614,-4.07203 4.443698,-5.71234 2.211559,-1.06007 6.875559,-2.53442 10.369723,-3.27798 2.802922,-0.59646 3.517155,-0.65209 8.365245,-0.65146 4.599699,4.9e-4 5.635224,0.0728 7.830533,0.54624 5.488823,1.18363 10.365303,3.28951 15.386394,6.64454 5.200061,3.47462 7.852073,4.4734 11.877956,4.4734 1.83068,0 2.75944,-0.1312 4.22606,-0.59695 4.4394,-1.40985 8.39704,-5.40092 9.74492,-9.82729 0.66838,-2.1949 0.56618,-5.09986 -0.23707,-6.73797 -0.785,-1.60091 -2.41563,-3.33103 -3.93011,-4.1699 -1.18717,-0.65757 -1.47833,-0.71376 -3.69803,-0.71376 -2.2185,0 -2.54039,0.062 -4.06278,0.78305 -0.90938,0.43067 -1.89338,0.78304 -2.1867,0.78304 -0.75434,0 -1.41482,-0.80081 -2.436517,-2.95428 -0.806584,-1.70002 -0.859954,-1.93597 -0.586993,-2.59497 0.955384,-2.30648 5.32406,-4.014686 9.63441,-3.76715 6.27067,0.3601 10.94574,3.2775 13.96991,8.71768 4.4106,7.9342 3.71603,17.37554 -2.17991,29.63182 -2.01644,4.19169 -4.47446,8.35285 -7.00761,11.86314 -4.78582,6.63189 -6.00671,8.45587 -7.05774,10.54414 -2.2373,4.44515 -3.08977,8.088191 -3.07267,13.131171 0.006,1.78897 0.13059,3.99008 0.27672,4.89135 0.14613,0.90128 0.20212,1.74154 0.12441,1.86727 -0.0827,0.13383 -2.52045,0.22862 -5.879715,0.22862 h -5.738444 z m 6.010265,-33.417641 c 1.270055,-0.35274 3.092633,-1.6769 3.919637,-2.84772 0.838966,-1.18781 0.703536,-1.43231 -1.128075,-2.03651 -1.259715,-0.41555 -1.259975,-0.41542 -1.484836,0.8322 -0.217731,1.208 -0.922144,2.02123 -2.160359,2.4941 -1.705497,0.65134 -3.337574,-0.0181 -4.219748,-1.731 -0.403602,-0.78364 -0.329591,-1.78688 0.209911,-2.84504 0.264521,-0.51884 0.400052,-1.01625 0.301171,-1.10535 -0.431282,-0.38865 -3.488764,-1.22547 -3.701215,-1.01301 -0.407842,0.40783 -0.524142,2.62712 -0.206971,3.94927 0.767803,3.20049 4.89372,5.29649 8.470485,4.30306 z"
       id="path2144" />
  </g>
</svg>
