<?xml version="1.0" encoding="UTF-8" standalone="no"?>
<svg
   xmlns:dc="http://purl.org/dc/elements/1.1/"
   xmlns:cc="http://creativecommons.org/ns#"
   xmlns:rdf="http://www.w3.org/1999/02/22-rdf-syntax-ns#"
   xmlns:svg="http://www.w3.org/2000/svg"
   xmlns="http://www.w3.org/2000/svg"
   xmlns:xlink="http://www.w3.org/1999/xlink"
   xmlns:sodipodi="http://sodipodi.sourceforge.net/DTD/sodipodi-0.dtd"
   xmlns:inkscape="http://www.inkscape.org/namespaces/inkscape"
   width="450mm"
   height="150mm"
   viewBox="0 0 450 150"
   version="1.1"
   id="svg2146"
   inkscape:version="1.0.1 (3bc2e813f5, 2020-09-07)"
   sodipodi:docname="heroku.svg">
  <title
     id="title1091">Colored Badge Template</title>
  <defs
     id="defs2140">
    <linearGradient
       inkscape:collect="always"
       id="linearGradient1075">
      <stop
         style="stop-color:#613792;stop-opacity:1"
         offset="0"
         id="stop1071" />
      <stop
         style="stop-color:#7f48c0;stop-opacity:1"
         offset="1"
         id="stop1073" />
    </linearGradient>
    <linearGradient
       inkscape:collect="always"
       id="linearGradient2974">
      <stop
         style="stop-color:#000000;stop-opacity:1"
         offset="0"
         id="stop2970" />
      <stop
         style="stop-color:#404040;stop-opacity:1"
         offset="1"
         id="stop2972" />
    </linearGradient>
    <linearGradient
       inkscape:collect="always"
       xlink:href="#linearGradient2974"
       id="linearGradient1030"
       gradientUnits="userSpaceOnUse"
       x1="-8.5265128e-14"
       y1="150"
       x2="-8.5265128e-14"
       y2="0"
       gradientTransform="scale(0.9084601,1)" />
    <linearGradient
       inkscape:collect="always"
       xlink:href="#linearGradient1075"
       id="linearGradient1038"
       x1="-8.5265128e-14"
       y1="150"
       x2="-8.5265128e-14"
       y2="0"
       gradientUnits="userSpaceOnUse"
       gradientTransform="translate(6.086914e-6,-1.5253906e-5)" />
    <linearGradient
       inkscape:collect="always"
       xlink:href="#linearGradient1075"
       id="linearGradient1038-0"
       x1="-8.5265128e-14"
       y1="150"
       x2="-8.5265128e-14"
       y2="0"
       gradientUnits="userSpaceOnUse"
       gradientTransform="matrix(0.17738398,0,0,1,123.3924,0)" />
  </defs>
  <sodipodi:namedview
     id="base"
     pagecolor="#ffffff"
     bordercolor="#666666"
     borderopacity="1.0"
     inkscape:pageopacity="0.0"
     inkscape:pageshadow="2"
     inkscape:zoom="0.32"
     inkscape:cx="804.10448"
     inkscape:cy="493.58411"
     inkscape:document-units="mm"
     inkscape:current-layer="layer3"
     inkscape:document-rotation="0"
     showgrid="false"
     inkscape:snap-bbox="true"
     inkscape:window-width="1920"
     inkscape:window-height="1017"
     inkscape:window-x="-8"
     inkscape:window-y="-8"
     inkscape:window-maximized="1" />
  <metadata
     id="metadata2143">
    <rdf:RDF>
      <cc:Work
         rdf:about="">
        <dc:format>image/svg+xml</dc:format>
        <dc:type
           rdf:resource="http://purl.org/dc/dcmitype/StillImage" />
        <dc:title>Colored Badge Template</dc:title>
      </cc:Work>
    </rdf:RDF>
  </metadata>
  <g
     inkscape:label="Text Background"
     inkscape:groupmode="layer"
     id="layer1">
    <rect
       style="opacity:0.996;fill:url(#linearGradient1030);fill-opacity:1;stroke-width:5.02015;stroke-linecap:square;paint-order:stroke fill markers"
       id="rect7"
       width="450"
       height="150"
       x="-8.5265128e-14"
       y="0"
       ry="15.000003" />
  </g>
  <g
     inkscape:groupmode="layer"
     id="layer4"
     inkscape:label="Text">
    <text
       xml:space="preserve"
       style="font-style:normal;font-weight:normal;font-size:67.3688px;line-height:1.25;font-family:sans-serif;fill:#ffffff;fill-opacity:1;stroke:none;stroke-width:0.350876"
       x="178.42102"
       y="98.980537"
       id="text13"><tspan
         sodipodi:role="line"
         id="tspan11"
         x="178.42102"
         y="98.980537"
         style="font-size:67.3688px;fill:#ffffff;stroke-width:0.350876">Heroku</tspan></text>
  </g>
  <g
     inkscape:groupmode="layer"
     id="layer3"
     inkscape:label="Logo Background">
    <rect
       style="opacity:0.996;fill:url(#linearGradient1038);fill-opacity:1;stroke-width:2.89838;stroke-linecap:square;paint-order:stroke fill markers"
       id="rect7-3"
       width="150"
       height="150"
       x="6.6757202e-06"
       y="-1.5258789e-05"
       ry="15" />
    <rect
       style="opacity:0.996;fill:url(#linearGradient1038-0);fill-opacity:1.0;stroke-width:1.22071;stroke-linecap:square;paint-order:stroke fill markers"
       id="rect7-3-0"
       width="26.607597"
       height="150"
       x="123.3924"
       y="0" />
    <g
       id="g1063"
       transform="matrix(0.83997143,0,0,0.83997143,149.55611,-198.63146)"
       style="fill:#ffffff">
      <path
         style="fill:#ffffff;stroke-width:0.264583"
         d="m -126.82202,384.78863 c -3.23996,-1.03594 -5.7008,-3.20027 -7.17357,-6.30922 l -0.84269,-1.77888 v -50.93229 -50.93229 l 0.84269,-1.77888 c 1.49272,-3.15106 3.95124,-5.29176 7.26015,-6.3216 1.53766,-0.47858 3.13117,-0.49848 39.91903,-0.49848 36.787863,0 38.381369,0.0199 39.919035,0.49848 3.308908,1.02984 5.767422,3.17054 7.260145,6.3216 l 0.842693,1.77888 v 50.93229 50.93229 l -0.842693,1.77888 c -1.492723,3.15106 -3.951237,5.29176 -7.260145,6.3216 -1.538658,0.47889 -3.110944,0.49792 -40.008753,0.48425 -36.415652,-0.0135 -38.485392,-0.0392 -39.915892,-0.49663 z m 78.040891,-0.0194 c 4.64131,-0.60285 8.266477,-3.80361 9.448718,-8.34254 0.357335,-1.37191 0.405582,-7.39793 0.405582,-50.65846 0,-53.71257 0.08945,-50.56087 -1.518833,-53.51581 -0.897093,-1.64826 -3.091555,-3.66321 -4.94394,-4.53953 -0.788948,-0.37323 -2.247186,-0.79611 -3.240527,-0.93972 -2.44498,-0.35349 -73.927581,-0.35349 -76.372561,0 -4.56035,0.65932 -8.13222,3.86197 -9.29772,8.3366 -0.35734,1.37191 -0.40558,7.39793 -0.40558,50.65846 0,42.7225 0.0514,49.29864 0.39561,50.62019 1.20509,4.62663 4.67306,7.71834 9.39397,8.37475 2.14673,0.29849 73.839931,0.30418 76.135281,0.006 z m -25.811532,-16.19142 c -0.242276,-0.24228 -0.3175,-6.00105 -0.3175,-24.30598 0,-23.63061 -0.0079,-23.99858 -0.53201,-24.66483 -1.822842,-2.31737 -8.301995,-2.18153 -17.988822,0.37713 -3.234994,0.85448 -12.310767,3.84374 -16.271877,5.35942 -1.30968,0.50114 -2.46916,0.8269 -2.57661,0.72391 -0.14038,-0.13455 -0.28565,-30.64531 -0.20459,-42.96783 0.003,-0.43649 0.44718,-0.46287 6.68381,-0.39688 l 6.680726,0.0707 0.06853,13.69219 c 0.06412,12.81274 0.09811,13.69187 0.529166,13.68732 0.253352,-0.003 1.770327,-0.42438 3.371056,-0.93712 1.600729,-0.51274 4.696354,-1.30691 6.879167,-1.76482 3.644852,-0.76462 4.389815,-0.8337 9.128124,-0.84652 5.824387,-0.0158 7.24313,0.24179 10.374307,1.88328 3.154778,1.65387 5.343519,4.41706 6.457516,8.15234 0.437375,1.46654 0.480218,3.48962 0.562266,26.55121 0.06644,18.67515 0.01143,25.05697 -0.218366,25.33386 -0.414219,0.4991 -12.129579,0.54794 -12.62489,0.0526 z m 12.377907,-24.75177 c -0.005,-26.5302 -0.0024,-26.47834 -1.430634,-29.59788 -0.856104,-1.86998 -3.213804,-4.32574 -5.123611,-5.33671 -2.050545,-1.08547 -3.809447,-1.56659 -7.067497,-1.9332 -4.76936,-0.53667 -12.228858,0.47555 -18.917414,2.56701 -1.673489,0.52329 -3.399895,0.96899 -3.836458,0.99043 l -0.79375,0.039 -0.06851,-13.82926 -0.06851,-13.82926 -6.281492,0.0709 -6.28149,0.0709 -0.0677,21.15184 c -0.0373,11.63352 0.0238,21.24333 0.13557,21.35515 0.11181,0.11182 1.45198,-0.27233 2.97815,-0.85367 11.278952,-4.29631 20.703482,-6.78201 26.727692,-7.04938 4.119449,-0.18283 5.849368,0.21935 7.107613,1.65241 l 0.821838,0.93602 v 24.06788 24.06787 h 6.085416 6.085417 l -0.0046,-24.5401 z m -50.105636,24.12159 c -0.27276,-0.71081 -0.17582,-25.07734 0.1015,-25.51065 0.20252,-0.31646 1.5688,0.9162 6.74282,6.08339 3.56885,3.56415 6.488827,6.60115 6.488827,6.7489 0,0.28629 -12.720137,13.09687 -13.004407,13.09687 -0.0925,0 -0.24041,-0.18833 -0.32874,-0.41851 z m 6.7826,-6.39235 c 3.31176,-3.30941 6.021381,-6.13809 6.021381,-6.28596 0,-0.14787 -2.797971,-3.06492 -6.217711,-6.48234 l -6.21771,-6.21349 v 12.49945 c 0,6.8747 0.0884,12.49945 0.19633,12.49945 0.10798,0 2.90595,-2.7077 6.21771,-6.01711 z m 24.843446,-61.95255 c -0.279008,-0.17677 0.108734,-0.93751 1.719792,-3.37416 1.898089,-2.87077 4.655698,-7.82488 6.605886,-11.86763 l 0.765797,-1.5875 7.209895,-0.0704 c 7.161353,-0.0699 7.209896,-0.0667 7.209896,0.48304 0,1.51761 -6.887461,13.08878 -9.336307,15.68531 l -0.912632,0.96767 -6.451052,-0.004 c -3.548076,-0.002 -6.613152,-0.10676 -6.811275,-0.23229 z m 14.603013,-1.82222 c 3.355326,-4.3605 8.980018,-14.1151 8.446613,-14.6485 -0.129561,-0.12956 -3.245432,-0.20371 -6.924153,-0.16478 l -6.68859,0.0708 -2.459373,4.81929 c -1.352656,2.65062 -3.394893,6.22249 -4.538305,7.9375 -1.143413,1.71502 -2.11863,3.20751 -2.167149,3.31665 -0.04852,0.10914 2.891305,0.19844 6.532948,0.19844 h 6.621169 z"
         id="path1069" />
      <path
         style="fill:#ffffff;stroke-width:0.264583"
         d="m -124.91641,384.76318 c -3.64884,-0.50734 -6.89373,-2.73049 -8.45647,-5.7937 -1.39514,-2.73472 -1.33311,-0.25916 -1.33311,-53.20124 0,-53.71257 -0.0894,-50.56087 1.51883,-53.51581 0.8971,-1.64826 3.09156,-3.66321 4.94394,-4.53953 0.78895,-0.37323 2.24719,-0.79611 3.24053,-0.93972 2.44498,-0.35349 73.927581,-0.35349 76.372561,0 4.560348,0.65932 8.132223,3.86197 9.297718,8.3366 0.357335,1.37191 0.405582,7.39793 0.405582,50.65846 0,53.71257 0.08945,50.56087 -1.518833,53.51581 -0.900263,1.65408 -3.093278,3.66403 -4.962649,4.54838 -0.79924,0.3781 -2.317006,0.79966 -3.372818,0.9368 -2.29535,0.29813 -73.988551,0.29244 -76.135281,-0.006 z m 77.805622,-0.67767 c 2.884966,-0.84361 5.523129,-3.11995 6.818601,-5.88343 l 0.7039,-1.50155 v -50.93229 -50.93229 l -0.7039,-1.50155 c -1.295472,-2.76348 -3.933635,-5.03982 -6.818601,-5.88343 -1.283623,-0.37535 -5.523624,-0.42023 -39.705622,-0.42023 -34.182,0 -38.422,0.0449 -39.70562,0.42023 -2.88497,0.84361 -5.52313,3.11995 -6.8186,5.88343 l -0.7039,1.50155 v 50.93229 50.93229 l 0.69722,1.48696 c 1.26954,2.70756 3.58521,4.77058 6.46734,5.76174 1.54739,0.53215 2.03948,0.53889 39.949392,0.54765 34.303342,0.008 38.535439,-0.0358 39.81979,-0.41137 z m -27.883126,-15.09755 c -0.09946,-0.0995 -0.18083,-11.06437 -0.18083,-24.36646 v -24.18563 l -0.75194,-0.75194 c -1.126641,-1.12664 -2.575275,-1.40927 -6.39181,-1.24703 -5.839999,0.24826 -13.974608,2.36818 -25.696496,6.69664 -2.1276,0.78565 -4.04963,1.42845 -4.27117,1.42845 -0.22154,0 -0.47507,-0.18833 -0.5634,-0.41852 -0.0883,-0.23018 -0.1606,-10.11531 -0.1606,-21.96696 v -21.54845 l 0.67868,-0.25803 c 1.02523,-0.38979 12.895171,-0.33669 13.291321,0.0595 0.238709,0.23871 0.3175,3.69282 0.3175,13.91893 0,12.84518 0.02574,13.59154 0.46302,13.4234 1.575139,-0.60566 7.169856,-2.12116 9.798486,-2.65422 6.669791,-1.35257 12.680603,-1.43545 16.778512,-0.23136 3.870211,1.13719 6.980245,3.61674 8.558479,6.82347 1.749219,3.55414 1.717855,2.97183 1.642962,30.5028 l -0.0675,24.8151 -6.632191,0.0706 c -3.647704,0.0388 -6.713564,-0.0108 -6.81302,-0.11024 z m 13.026143,-0.46277 c 0.229801,-0.27689 0.284808,-6.65871 0.218366,-25.33386 -0.08205,-23.06159 -0.124891,-25.08467 -0.562266,-26.55121 -1.113997,-3.73528 -3.302738,-6.49847 -6.457516,-8.15234 -3.131177,-1.64149 -4.54992,-1.89904 -10.374307,-1.88328 -4.738309,0.0128 -5.483272,0.0819 -9.128124,0.84652 -2.182813,0.45791 -5.278438,1.25208 -6.879167,1.76482 -1.600729,0.51274 -3.117704,0.93444 -3.371056,0.93712 -0.431054,0.005 -0.465042,-0.87458 -0.529166,-13.68732 l -0.06853,-13.69219 -6.680723,-0.0707 c -6.23663,-0.066 -6.68094,-0.0396 -6.68381,0.39688 -0.0811,12.32252 0.0642,42.83328 0.20459,42.96783 0.10745,0.10299 1.26693,-0.22277 2.57661,-0.72391 3.96111,-1.51568 13.03688,-4.50494 16.271874,-5.35942 9.686827,-2.55866 16.16598,-2.6945 17.988822,-0.37713 0.524073,0.66625 0.53201,1.03422 0.53201,24.66483 0,18.30493 0.07522,24.0637 0.3175,24.30598 0.495311,0.49531 12.210671,0.44647 12.62489,-0.0526 z m -50.601419,0.19374 c -0.097,-0.097 -0.17639,-6.17294 -0.17639,-13.50205 0,-11.96444 0.0432,-13.34224 0.42283,-13.48792 0.30384,-0.1166 2.31407,1.7279 7.14375,6.5548 3.69651,3.69437 6.720924,6.83162 6.720924,6.97165 0,0.35813 -13.283024,13.63991 -13.641194,13.63991 -0.16144,0 -0.3729,-0.0794 -0.46992,-0.17639 z m 7.16382,-6.7669 c 3.52997,-3.52776 6.418127,-6.535 6.418127,-6.68275 0,-0.14775 -2.919977,-3.18475 -6.488827,-6.7489 -5.17402,-5.16719 -6.5403,-6.39985 -6.74282,-6.08339 -0.27732,0.43331 -0.37426,24.79984 -0.1015,25.51065 0.0883,0.23018 0.23626,0.41851 0.32874,0.41851 0.0925,0 3.0563,-2.88635 6.58628,-6.41412 z M -81.419,299.73301 c -0.07823,-0.20386 0.627023,-1.48378 1.567222,-2.84427 2.041099,-2.95352 4.961943,-8.12132 6.669336,-11.79995 0.888412,-1.91411 1.396825,-2.70758 1.805043,-2.8171 0.756568,-0.20299 13.367905,-0.19668 14.128175,0.007 0.888923,0.23822 0.753428,0.90399 -0.820475,4.03143 -2.055411,4.08423 -5.28383,9.2085 -7.815085,12.40441 l -1.100183,1.38906 h -7.1459 c -5.883124,0 -7.171037,-0.0655 -7.288133,-0.37065 z m 14.899615,-0.86161 c 2.448846,-2.59653 9.336307,-14.1677 9.336307,-15.68531 0,-0.54971 -0.04854,-0.55296 -7.209896,-0.48304 l -7.209895,0.0704 -0.765797,1.5875 c -1.950188,4.04275 -4.707797,8.99686 -6.605886,11.86763 -1.611058,2.43665 -1.9988,3.19739 -1.719792,3.37416 0.198123,0.12553 3.263199,0.23006 6.811275,0.23228 l 6.451052,0.004 0.912632,-0.96767 z"
         id="path1067" />
      <path
         style="fill:#ffffff;stroke-width:0.264583"
         d="m -126.87997,383.94923 c -2.88213,-0.99116 -5.1978,-3.05418 -6.46734,-5.76174 l -0.69722,-1.48696 v -50.93229 -50.93229 l 0.7039,-1.50155 c 1.29547,-2.76348 3.93363,-5.03982 6.8186,-5.88343 1.28362,-0.37535 5.52362,-0.42023 39.70562,-0.42023 34.181998,0 38.421999,0.0449 39.705622,0.42023 2.884966,0.84361 5.523129,3.11995 6.818601,5.88343 l 0.7039,1.50155 v 50.93229 50.93229 l -0.7039,1.50155 c -1.295472,2.76348 -3.933635,5.03982 -6.818601,5.88343 -1.284351,0.37557 -5.516448,0.41929 -39.81979,0.41137 -37.909912,-0.009 -38.402002,-0.0155 -39.949392,-0.54765 z m 65.39877,-39.73672 c 0.07489,-27.53097 0.106257,-26.94866 -1.642962,-30.5028 -2.815849,-5.72137 -9.53804,-8.40941 -18.85027,-7.53776 -4.851982,0.45416 -12.502147,2.14524 -16.285207,3.59987 -0.437276,0.16814 -0.46302,-0.57822 -0.46302,-13.4234 0,-10.22611 -0.07879,-13.68022 -0.3175,-13.91893 -0.39615,-0.39615 -12.266091,-0.44925 -13.291321,-0.0595 l -0.67868,0.25803 v 21.54845 c 0,11.85165 0.0723,21.73678 0.1606,21.96696 0.0883,0.23019 0.34186,0.41852 0.5634,0.41852 0.22154,0 2.14357,-0.6428 4.27117,-1.42845 11.721888,-4.32846 19.856497,-6.44838 25.696496,-6.69664 3.816535,-0.16224 5.265169,0.12039 6.39181,1.24703 l 0.75194,0.75194 v 24.18563 c 0,13.30209 0.08137,24.267 0.18083,24.36646 0.09946,0.0994 3.165316,0.14906 6.81302,0.11024 l 6.632191,-0.0706 z m -43.65071,17.99015 c 3.67061,-3.68095 6.673834,-6.80722 6.673834,-6.94725 0,-0.14003 -3.024414,-3.27728 -6.720924,-6.97165 -4.82968,-4.8269 -6.83991,-6.6714 -7.14375,-6.5548 -0.37963,0.14568 -0.42283,1.52348 -0.42283,13.48792 0,7.32911 0.0794,13.40504 0.17639,13.50205 0.097,0.097 0.30848,0.17639 0.46992,0.17639 0.16144,0 3.29676,-3.01169 6.96736,-6.69266 z m 39.247126,-63.48806 c 2.531255,-3.19591 5.759674,-8.32018 7.815085,-12.40441 1.573903,-3.12744 1.709398,-3.79321 0.820475,-4.03143 -0.76027,-0.20375 -13.371607,-0.21006 -14.128175,-0.007 -0.408218,0.10952 -0.916631,0.90299 -1.805043,2.8171 -1.707393,3.67863 -4.628237,8.84642 -6.669336,11.79995 -0.940199,1.36049 -1.645449,2.64041 -1.567222,2.84427 0.117096,0.30515 1.405009,0.37065 7.288133,0.37065 h 7.1459 l 1.100183,-1.38907 z"
         id="path1065" />
    </g>
  </g>
  <g
     inkscape:groupmode="layer"
     id="layer2"
     inkscape:label="Logo" />
</svg>
