<?xml version="1.0" encoding="UTF-8" standalone="no"?>
<svg
   xmlns:dc="http://purl.org/dc/elements/1.1/"
   xmlns:cc="http://creativecommons.org/ns#"
   xmlns:rdf="http://www.w3.org/1999/02/22-rdf-syntax-ns#"
   xmlns:svg="http://www.w3.org/2000/svg"
   xmlns="http://www.w3.org/2000/svg"
   xmlns:xlink="http://www.w3.org/1999/xlink"
   xmlns:sodipodi="http://sodipodi.sourceforge.net/DTD/sodipodi-0.dtd"
   xmlns:inkscape="http://www.inkscape.org/namespaces/inkscape"
   width="434mm"
   height="150mm"
   viewBox="0 0 434 150"
   version="1.1"
   id="svg2146"
   inkscape:version="1.0.1 (3bc2e813f5, 2020-09-07)"
   sodipodi:docname="maven.svg">
  <title
     id="title1091">Colored Badge Template</title>
  <defs
     id="defs2140">
    <linearGradient
       inkscape:collect="always"
       id="linearGradient2249">
      <stop
         style="stop-color:#0d59b3;stop-opacity:1"
         offset="0"
         id="stop2245" />
      <stop
         style="stop-color:#117bf8;stop-opacity:1"
         offset="1"
         id="stop2247" />
    </linearGradient>
    <linearGradient
       inkscape:collect="always"
       id="linearGradient2974">
      <stop
         style="stop-color:#000000;stop-opacity:1"
         offset="0"
         id="stop2970" />
      <stop
         style="stop-color:#404040;stop-opacity:1"
         offset="1"
         id="stop2972" />
    </linearGradient>
    <linearGradient
       inkscape:collect="always"
       xlink:href="#linearGradient2974"
       id="linearGradient1030"
       gradientUnits="userSpaceOnUse"
       x1="-8.5265128e-14"
       y1="150"
       x2="-8.5265128e-14"
       y2="0"
       gradientTransform="scale(0.87615928,1)" />
    <linearGradient
       inkscape:collect="always"
       xlink:href="#linearGradient2249"
       id="linearGradient1038-4"
       x1="-6.8115232e-06"
       y1="150"
       x2="-8.5265128e-14"
       y2="0"
       gradientUnits="userSpaceOnUse"
       gradientTransform="translate(6.8115233e-6)" />
    <linearGradient
       inkscape:collect="always"
       xlink:href="#linearGradient2249"
       id="linearGradient1038-0-4"
       x1="5.7943904e-05"
       y1="150"
       x2="5.7943904e-05"
       y2="-2.7587889e-06"
       gradientUnits="userSpaceOnUse"
       gradientTransform="matrix(0.17738398,0,0,1,123.3924,1.8017578e-5)" />
  </defs>
  <sodipodi:namedview
     id="base"
     pagecolor="#ffffff"
     bordercolor="#666666"
     borderopacity="1.0"
     inkscape:pageopacity="0.0"
     inkscape:pageshadow="2"
     inkscape:zoom="0.35484626"
     inkscape:cx="804.10448"
     inkscape:cy="493.58411"
     inkscape:document-units="mm"
     inkscape:current-layer="layer4"
     inkscape:document-rotation="0"
     showgrid="false"
     inkscape:snap-bbox="true"
     inkscape:window-width="1920"
     inkscape:window-height="1017"
     inkscape:window-x="-8"
     inkscape:window-y="-8"
     inkscape:window-maximized="1" />
  <metadata
     id="metadata2143">
    <rdf:RDF>
      <cc:Work
         rdf:about="">
        <dc:format>image/svg+xml</dc:format>
        <dc:type
           rdf:resource="http://purl.org/dc/dcmitype/StillImage" />
        <dc:title>Colored Badge Template</dc:title>
      </cc:Work>
    </rdf:RDF>
  </metadata>
  <g
     inkscape:label="Text Background"
     inkscape:groupmode="layer"
     id="layer1">
    <rect
       style="opacity:0.996;fill:url(#linearGradient1030);fill-opacity:1;stroke-width:4.93009;stroke-linecap:square;paint-order:stroke fill markers"
       id="rect7"
       width="434"
       height="150"
       x="-8.5265128e-14"
       y="0"
       ry="15.000003" />
  </g>
  <g
     inkscape:groupmode="layer"
     id="layer4"
     inkscape:label="Text">
    <text
       xml:space="preserve"
       style="font-style:normal;font-weight:normal;font-size:67.3688px;line-height:1.25;font-family:sans-serif;fill:#ffffff;fill-opacity:1;stroke:none;stroke-width:0.350876"
       x="185"
       y="98.980537"
       id="text13"><tspan
         sodipodi:role="line"
         id="tspan11"
         x="185"
         y="98.980537"
         style="font-size:67.3688px;fill:#ffffff;stroke-width:0.350876">Maven</tspan></text>
  </g>
  <g
     inkscape:groupmode="layer"
     id="layer3"
     inkscape:label="Logo Background" />
  <g
     inkscape:groupmode="layer"
     id="layer2"
     inkscape:label="Logo">
    <rect
       style="opacity:0.996;fill:url(#linearGradient1038-4);fill-opacity:1;stroke-width:2.89838;stroke-linecap:square;paint-order:stroke fill markers"
       id="rect7-3-1"
       width="150"
       height="150"
       x="-8.5265128e-14"
       y="0"
       ry="15" />
    <rect
       style="opacity:0.996;fill:url(#linearGradient1038-0-4);fill-opacity:1.0;stroke-width:1.22071;stroke-linecap:square;paint-order:stroke fill markers"
       id="rect7-3-0-6"
       width="26.607597"
       height="150"
       x="123.39241"
       y="1.5258789e-05" />
    <g
       id="g2183"
       transform="matrix(0.74159577,0,0,0.74159577,-61.197108,-126.62985)">
      <path
         style="fill:#fae5d5;stroke-width:0.688763"
         d="m 175.86495,275.59807 c 0.005,-1.8941 0.13893,-2.58721 0.29725,-1.54025 0.15831,1.04696 0.15408,2.59668 -0.009,3.44382 -0.16349,0.84713 -0.29302,-0.009 -0.28785,-1.90357 z m -4.41743,-18.76879 c -0.85673,-1.09242 -0.83237,-1.11678 0.26005,-0.26005 0.66293,0.51991 1.20533,1.06231 1.20533,1.20534 0,0.56688 -0.5656,0.20202 -1.46538,-0.94529 z m 52.43384,-26.99329 c 0,-0.35647 0.30639,-0.83748 0.68087,-1.06892 0.39044,-0.2413 0.5059,0.0352 0.2707,0.64811 -0.45789,1.19323 -0.95157,1.41154 -0.95157,0.42081 z m -80.53088,-3.19748 c 0.033,-0.80237 0.19625,-0.96558 0.41612,-0.41613 0.19897,0.4972 0.1745,1.09126 -0.0544,1.32013 -0.22887,0.22887 -0.39166,-0.17793 -0.36176,-0.904 z m 83.97469,-0.54703 c 0,-0.14303 0.5424,-0.68543 1.20534,-1.20534 1.09242,-0.85673 1.11678,-0.83237 0.26005,0.26005 -0.89978,1.1473 -1.46539,1.51216 -1.46539,0.94529 z m 18.06763,-6.62759 c 0,-1.32586 0.14175,-1.86827 0.31499,-1.20533 0.17324,0.66293 0.17324,1.74773 0,2.41067 -0.17324,0.66293 -0.31499,0.12053 -0.31499,-1.20534 z m -19.78953,-3.44381 c 0.68565,-0.75764 1.40161,-1.37753 1.59102,-1.37753 0.18941,0 -0.21661,0.61989 -0.90226,1.37753 -0.68566,0.75764 -1.40162,1.37753 -1.59103,1.37753 -0.18941,0 0.21661,-0.61989 0.90227,-1.37753 z m 11.9242,-8.0469 c 0.4972,-0.19896 1.09126,-0.17449 1.32013,0.0544 0.22887,0.22887 -0.17793,0.39166 -0.904,0.36175 -0.80237,-0.033 -0.96557,-0.19625 -0.41613,-0.41612 z"
         id="path2243" />
      <path
         style="fill:#f5d9d6;stroke-width:0.688763"
         d="m 151.00677,224.62962 c 0.014,-1.13646 0.1684,-1.51799 0.34303,-0.84785 0.17463,0.67014 0.16314,1.59997 -0.0255,2.06629 -0.18867,0.46631 -0.33155,-0.082 -0.31751,-1.21844 z"
         id="path2241" />
      <path
         style="fill:#f5caaf;stroke-width:0.688763"
         d="m 169.60336,246.67003 c 0.014,-1.13646 0.1684,-1.51799 0.34304,-0.84785 0.17463,0.67015 0.16314,1.59998 -0.0255,2.06629 -0.18867,0.46632 -0.33155,-0.082 -0.31752,-1.21844 z M 151.61563,228.7048 c 0.0331,-0.80237 0.19626,-0.96558 0.41613,-0.41613 0.19896,0.4972 0.17449,1.09126 -0.0544,1.32013 -0.22887,0.22887 -0.39166,-0.17793 -0.36175,-0.904 z m 60.55676,0.83049 c 0,-0.14302 0.5424,-0.68543 1.20533,-1.20533 1.09242,-0.85674 1.11678,-0.83237 0.26005,0.26004 -0.89978,1.14731 -1.46538,1.51217 -1.46538,0.94529 z m -61.19115,-9.38263 c 0,-0.94705 0.15633,-1.33448 0.34741,-0.86096 0.19107,0.47353 0.19107,1.24839 0,1.72191 -0.19108,0.47352 -0.34741,0.0861 -0.34741,-0.86095 z"
         id="path2239" />
      <path
         style="fill:#e2bac7;stroke-width:0.688763"
         d="m 178.98263,309.22133 c 0.4972,-0.19896 1.09126,-0.1745 1.32013,0.0543 0.22887,0.22886 -0.17793,0.39165 -0.90401,0.36175 -0.80236,-0.0331 -0.96557,-0.19626 -0.41612,-0.41613 z m 4.13257,0 c 0.49721,-0.19896 1.09126,-0.1745 1.32013,0.0543 0.22887,0.22886 -0.17793,0.39165 -0.904,0.36175 -0.80237,-0.0331 -0.96557,-0.19626 -0.41613,-0.41613 z m 5.94367,-4.97494 c 0.21215,-0.34326 1.00529,-0.46208 1.76256,-0.26405 1.89516,0.4956 1.72468,0.88815 -0.38572,0.88815 -0.96941,0 -1.58899,-0.28084 -1.37684,-0.6241 z m 8.99388,-5.57476 c 0.68566,-0.75764 1.40162,-1.37753 1.59103,-1.37753 0.18941,0 -0.21661,0.61989 -0.90227,1.37753 -0.68565,0.75764 -1.40162,1.37752 -1.59103,1.37752 -0.18941,0 0.21661,-0.61988 0.90227,-1.37752 z m -7.73548,-0.47731 c 0.67015,-0.17463 1.59998,-0.16315 2.06629,0.0256 0.46632,0.18868 -0.082,0.33155 -1.21844,0.31752 -1.13646,-0.014 -1.51799,-0.16841 -0.84785,-0.34304 z m -18.09313,-5.98161 c 0,-0.14302 0.5424,-0.68542 1.20534,-1.20533 1.09241,-0.85674 1.11677,-0.83237 0.26004,0.26005 -0.89978,1.1473 -1.46538,1.51216 -1.46538,0.94528 z"
         id="path2237" />
      <path
         style="fill:#e6aaae;stroke-width:0.688763"
         d="m 229.39146,247.44313 c 0,-0.14303 0.5424,-0.68543 1.20534,-1.20534 1.09242,-0.85673 1.11678,-0.83237 0.26005,0.26005 -0.89978,1.1473 -1.46539,1.51216 -1.46539,0.94529 z"
         id="path2235" />
      <path
         style="fill:#f0b08b;stroke-width:0.688763"
         d="m 170.50223,250.45822 c -0.23412,-0.37882 -0.0974,-0.68876 0.30374,-0.68876 0.40117,0 0.72941,0.30994 0.72941,0.68876 0,0.37882 -0.13668,0.68877 -0.30373,0.68877 -0.16706,0 -0.49529,-0.30995 -0.72942,-0.68877 z m 45.80274,-25.13984 c 1.28508,-1.32587 2.49148,-2.41067 2.68089,-2.41067 0.18941,0 -0.70705,1.0848 -1.99213,2.41067 -1.28508,1.32587 -2.49148,2.41067 -2.68089,2.41067 -0.18941,0 0.70705,-1.0848 1.99213,-2.41067 z m 12.74211,-1.65218 c 1.13646,-1.24001 2.64609,-2.56876 3.35474,-2.95277 2.09545,-1.13551 0.74638,0.46058 -2.50335,2.96174 l -2.91768,2.2456 z m -7.92077,-3.16916 c 0.88971,-0.94705 1.77262,-1.72191 1.96203,-1.72191 0.18941,0 -0.38356,0.77486 -1.27327,1.72191 -0.88971,0.94705 -1.77262,1.72191 -1.96203,1.72191 -0.18941,0 0.38356,-0.77486 1.27327,-1.72191 z m -70.11954,-3.44382 c 0.014,-1.13645 0.1684,-1.51799 0.34303,-0.84784 0.17463,0.67014 0.16314,1.59997 -0.0255,2.06629 -0.18867,0.46631 -0.33155,-0.082 -0.31751,-1.21845 z m -6.96753,-0.0574 c 0.0331,-0.80237 0.19626,-0.96558 0.41613,-0.41613 0.19896,0.4972 0.17449,1.09126 -0.0544,1.32013 -0.22887,0.22887 -0.39166,-0.17793 -0.36175,-0.904 z"
         id="path2233" />
      <path
         style="fill:#b89ec4;stroke-width:0.688763"
         d="m 181.04892,309.22133 c 0.4972,-0.19896 1.09125,-0.1745 1.32012,0.0543 0.22887,0.22886 -0.17793,0.39165 -0.904,0.36175 -0.80237,-0.0331 -0.96557,-0.19626 -0.41612,-0.41613 z"
         id="path2231" />
      <path
         style="fill:#ee9a5c;stroke-width:0.688763"
         d="m 166.71404,296.34529 c 0,-0.14302 0.5424,-0.68542 1.20533,-1.20534 1.09242,-0.85673 1.11678,-0.83237 0.26005,0.26005 -0.89978,1.14731 -1.46538,1.51217 -1.46538,0.94529 z m 4.24133,-43.82078 c 0,-0.94705 0.15633,-1.33448 0.3474,-0.86095 0.19107,0.47352 0.19107,1.24838 0,1.72191 -0.19107,0.47352 -0.3474,0.0861 -0.3474,-0.86096 z m -5.45906,-18.5966 c 0,-1.32586 0.14174,-1.86826 0.31498,-1.20533 0.17325,0.66293 0.17325,1.74774 0,2.41067 -0.17324,0.66293 -0.31498,0.12053 -0.31498,-1.20534 z m 59.76257,-6.5737 c 0,-0.0799 0.41326,-0.48823 0.91835,-0.90742 0.68626,-0.56954 0.91836,-0.53283 0.91836,0.14526 0,0.49907 -0.41326,0.90741 -0.91836,0.90741 -0.50509,0 -0.91835,-0.0654 -0.91835,-0.14525 z m -73.64325,-1.40447 c 0.0331,-0.80236 0.19626,-0.96557 0.41613,-0.41612 0.19896,0.4972 0.17449,1.09126 -0.0544,1.32013 -0.22887,0.22887 -0.39166,-0.17793 -0.36175,-0.90401 z m 76.95792,-0.0687 c 0.4972,-0.19896 1.09126,-0.17449 1.32014,0.0544 0.22887,0.22887 -0.17794,0.39166 -0.90401,0.36175 -0.80237,-0.033 -0.96557,-0.19626 -0.41613,-0.41613 z m 3.57296,-5.31285 c 0,-0.17694 1.00732,-1.02808 2.23848,-1.89142 1.58823,-1.11373 1.95482,-1.21647 1.26198,-0.35368 -0.98569,1.22749 -3.50046,2.84039 -3.50046,2.2451 z m -88.10727,-1.50605 c 0.0331,-0.80237 0.19626,-0.96558 0.41613,-0.41613 0.19896,0.4972 0.17449,1.09126 -0.0544,1.32013 -0.22887,0.22887 -0.39166,-0.17793 -0.36175,-0.904 z m 14.75402,-3.04204 c 1.47963,-1.51528 2.84521,-2.75505 3.03462,-2.75505 0.18941,0 -0.86622,1.23977 -2.34585,2.75505 -1.47963,1.51528 -2.84521,2.75505 -3.03462,2.75505 -0.18941,0 0.86622,-1.23977 2.34585,-2.75505 z m -7.86639,-1.7793 c 0.033,-0.80237 0.19625,-0.96558 0.41613,-0.41613 0.19896,0.4972 0.17449,1.09126 -0.0544,1.32013 -0.22887,0.22887 -0.39166,-0.17793 -0.36175,-0.904 z m 6.7454,-6.31366 c -0.85674,-1.09242 -0.83238,-1.11678 0.26004,-0.26005 1.14731,0.89978 1.51217,1.46538 0.94529,1.46538 -0.14303,0 -0.68543,-0.5424 -1.20533,-1.20533 z"
         id="path2229" />
      <path
         style="fill:#d57886;stroke-width:0.688763"
         d="m 216.86459,263.76298 c 0.49719,-0.19896 1.09125,-0.1745 1.32013,0.0543 0.22887,0.22888 -0.17794,0.39166 -0.904,0.36176 -0.80238,-0.0331 -0.96558,-0.19626 -0.41613,-0.41613 z m 5.63924,-3.23336 c 0,-0.14302 0.5424,-0.68543 1.20534,-1.20533 1.09242,-0.85674 1.11678,-0.83237 0.26005,0.26004 -0.89978,1.14731 -1.46539,1.51217 -1.46539,0.94529 z m -78.41022,-21.0916 c 0,-0.94705 0.15634,-1.33448 0.34741,-0.86096 0.19107,0.47353 0.19107,1.24839 0,1.72191 -0.19107,0.47353 -0.34741,0.0861 -0.34741,-0.86095 z"
         id="path2227" />
      <path
         style="fill:#f29224;stroke-width:0.688763"
         d="m 229.80804,225.77957 c -0.21125,-0.34181 0.26263,-1.20529 1.05308,-1.91886 0.79043,-0.71356 2.4075,-2.53716 3.59349,-4.05243 l 2.15632,-2.75506 -2.74878,2.00161 c -1.51183,1.10088 -3.5979,2.78297 -4.6357,3.73798 -1.0378,0.95501 -2.00022,1.604 -2.1387,1.44221 -0.13849,-0.16179 -0.71314,-1.68891 -1.277,-3.3936 -0.99082,-2.9955 -0.97107,-3.15669 0.58899,-4.80686 0.88781,-0.93908 1.6142,-1.42745 1.6142,-1.08527 0,0.34218 0.69737,-0.005 1.54971,-0.77211 0.85235,-0.76684 3.00093,-2.37101 4.77463,-3.56482 3.77187,-2.53871 3.5062,-2.90468 4.67567,6.44086 0.42663,3.40938 0.911,6.85418 1.07637,7.65511 0.28297,1.37052 4.7e-4,1.4632 -4.79876,1.57448 -2.80469,0.065 -5.27227,-0.16143 -5.48352,-0.50324 z m -82.22755,-4.43768 c -2.88164,-1.44723 -2.93867,-1.54262 -2.54805,-4.26204 0.21976,-1.52992 0.50221,-3.86648 0.62766,-5.19235 0.34213,-3.6158 1.41385,-5.77625 3.39005,-6.83387 1.41682,-0.75827 1.98269,-0.77811 2.80184,-0.0983 0.56454,0.46853 1.3235,0.66829 1.68655,0.44391 0.36306,-0.22438 0.76407,-0.17358 0.89113,0.11289 0.12706,0.28648 1.54917,1.68316 3.16024,3.10373 1.61108,1.42057 2.76246,2.58286 2.55863,2.58286 -0.20383,0 -0.0668,0.56764 0.30449,1.26142 0.56157,1.0493 -0.14334,2.06274 -4.19195,6.02668 -4.0873,4.00182 -4.7991,4.47266 -4.44294,2.93892 0.23326,-1.00448 0.21009,-3.32905 -0.0515,-5.16572 l -0.47557,-3.33939 -0.49451,2.79098 c -0.27197,1.53504 -0.42588,3.78213 -0.34201,4.99353 0.0839,1.2114 0.13472,2.18332 0.11301,2.15982 -0.0217,-0.0235 -1.3659,-0.70889 -2.98709,-1.52309 z"
         id="path2225" />
      <path
         style="fill:#9f6398;stroke-width:0.688763"
         d="m 172.66383,308.65869 c 0.21805,-0.56823 0.4851,-1.03315 0.59346,-1.03315 0.10835,0 0.3754,0.46492 0.59345,1.03315 0.23908,0.62302 0.004,1.03314 -0.59345,1.03314 -0.59695,0 -0.83254,-0.41012 -0.59346,-1.03314 z m 3.00413,0.34438 c 0,-0.37882 0.32823,-0.68876 0.72941,-0.68876 0.40117,0 0.53785,0.30994 0.30373,0.68876 -0.23412,0.37882 -0.56236,0.68876 -0.72941,0.68876 -0.16705,0 -0.30373,-0.30994 -0.30373,-0.68876 z m 16.81586,-4.22776 c -0.29706,-0.48065 -0.20093,-0.62258 0.23796,-0.35133 0.405,0.2503 0.89333,0.0657 1.08519,-0.41015 0.24967,-0.61929 0.36429,-0.63207 0.40321,-0.0449 0.0786,1.18528 -1.14032,1.75465 -1.72636,0.80642 z"
         id="path2223" />
      <path
         style="fill:#d65a59;stroke-width:0.688763"
         d="m 219.57659,250.69083 c 0.47352,-0.19107 1.24838,-0.19107 1.72191,0 0.47352,0.19107 0.0861,0.3474 -0.86096,0.3474 -0.94705,0 -1.33447,-0.15633 -0.86095,-0.3474 z"
         id="path2221" />
      <path
         style="fill:#f49000;stroke-width:0.688763"
         d="m 231.11337,222.90771 c 1.47963,-1.51528 2.84521,-2.75505 3.03462,-2.75505 0.18941,0 -0.86623,1.23977 -2.34586,2.75505 -1.47963,1.51528 -2.84521,2.75505 -3.03462,2.75505 -0.18941,0 0.86623,-1.23977 2.34586,-2.75505 z m -3.7882,1.85077 c 0,-0.11854 1.00732,-1.12585 2.23848,-2.23848 l 2.23848,-2.02296 -2.02296,2.23848 c -1.88568,2.08657 -2.454,2.55507 -2.454,2.02296 z M 150.2381,221.1284 c 0.0331,-0.80236 0.19626,-0.96557 0.41613,-0.41612 0.19897,0.4972 0.1745,1.09126 -0.0544,1.32013 -0.22887,0.22887 -0.39165,-0.17794 -0.36175,-0.90401 z m 1.45743,-2.00889 c 0.014,-1.13646 0.1684,-1.51799 0.34303,-0.84784 0.17463,0.67014 0.16315,1.59997 -0.0255,2.06629 -0.18867,0.46631 -0.33155,-0.082 -0.31751,-1.21845 z m -1.45743,-0.74616 c 0.0331,-0.80237 0.19626,-0.96557 0.41613,-0.41612 0.19897,0.4972 0.1745,1.09125 -0.0544,1.32012 -0.22887,0.22887 -0.39165,-0.17793 -0.36175,-0.904 z m -5.39078,-3.38641 c 0.008,-1.51528 0.14869,-2.05407 0.31344,-1.19731 0.16475,0.85676 0.15849,2.09653 -0.0139,2.75505 -0.17239,0.65852 -0.30718,-0.0425 -0.29954,-1.55774 z m 84.19976,-1.03315 c 0.68566,-0.75764 1.40162,-1.37752 1.59103,-1.37752 0.18941,0 -0.21661,0.61988 -0.90227,1.37752 -0.68565,0.75764 -1.40162,1.37753 -1.59103,1.37753 -0.18941,0 0.21661,-0.61989 0.90227,-1.37753 z m -68.83201,-1.86439 c -0.37378,-0.98163 -0.29466,-1.06074 0.38557,-0.38557 0.47071,0.46721 0.68234,1.02298 0.47028,1.23504 -0.21207,0.21206 -0.59719,-0.1702 -0.85585,-0.84947 z m -14.79831,-1.29244 c 0.0331,-0.80237 0.19626,-0.96558 0.41613,-0.41613 0.19897,0.4972 0.1745,1.09126 -0.0544,1.32013 -0.22887,0.22887 -0.39165,-0.17793 -0.36175,-0.904 z m 11.95565,-2.52546 -2.02296,-2.23848 2.23848,2.02296 c 1.23116,1.11262 2.23848,2.11994 2.23848,2.23848 0,0.53211 -0.56832,0.0636 -2.454,-2.02296 z m -10.1274,-2.66833 c 0.46721,-0.47071 1.02298,-0.68234 1.23504,-0.47028 0.21206,0.21206 -0.1702,0.59719 -0.84948,0.85585 -0.98162,0.37378 -1.06073,0.29466 -0.38556,-0.38557 z"
         id="path2219" />
      <path
         style="fill:#e87725;stroke-width:0.688763"
         d="m 159.75313,294.19967 c -2.05895,-1.07258 -3.47855,-2.39114 -4.04394,-3.75613 -0.47919,-1.15685 -1.13386,-2.10336 -1.45483,-2.10336 -0.32097,0 -0.42051,-0.42495 -0.22121,-0.94433 0.19931,-0.51938 -0.0678,-1.3745 -0.59353,-1.90025 -0.52576,-0.52575 -0.82769,-1.34057 -0.67098,-1.81072 0.15671,-0.47014 -0.0691,-0.8548 -0.50187,-0.8548 -0.43275,0 -0.59688,-0.30731 -0.36475,-0.68292 0.40078,-0.64846 -1.62061,-8.23175 -2.38829,-8.95976 -0.19973,-0.18941 -0.44033,-1.58405 -0.53466,-3.09921 -0.0943,-1.51515 -0.42697,-2.83998 -0.7392,-2.94405 -0.31222,-0.10408 -0.42586,-1.15552 -0.25252,-2.33655 0.20219,-1.37761 0.0586,-1.98874 -0.40062,-1.70493 -0.47299,0.29232 -0.58563,-0.52793 -0.33208,-2.41827 0.25747,-1.91961 0.14418,-2.71263 -0.34439,-2.41068 -0.4867,0.3008 -0.60556,-0.46342 -0.35852,-2.30523 0.20325,-1.51536 0.0963,-2.75501 -0.23771,-2.75478 -0.33399,2.4e-4 -0.50104,-1.53202 -0.37121,-3.40501 l 0.23605,-3.40544 3.55214,1.74616 c 3.36024,1.65182 3.56129,1.90085 3.72129,4.60933 0.093,1.57474 0.42566,2.94868 0.7392,3.05319 0.31353,0.10451 0.42823,1.15631 0.2549,2.33734 -0.19274,1.31319 -0.0503,1.98363 0.36664,1.72593 0.40819,-0.25227 0.55131,0.26126 0.35662,1.27969 -0.17885,0.93559 -0.0566,1.70282 0.27169,1.70496 0.32827,0.002 0.64756,1.31047 0.70952,2.9074 0.062,1.59693 0.40435,3.00073 0.76085,3.11957 0.3565,0.11883 0.50213,0.9801 0.32362,1.91394 -0.19611,1.02587 -0.004,1.69788 0.48514,1.69788 0.44533,0 0.63544,0.28196 0.42245,0.62658 -0.49356,0.7986 1.0621,7.63857 1.73729,7.63857 0.27829,0 0.34388,0.61989 0.14576,1.37753 -0.20938,0.80065 -0.0211,1.37752 0.44951,1.37752 0.44536,0 0.63786,0.27811 0.42778,0.61802 -0.52622,0.85145 0.34824,4.94398 0.97379,4.55737 0.27797,-0.1718 0.35027,0.49919 0.16066,1.49107 -0.18961,0.99189 -0.0674,1.63371 0.27169,1.42628 0.33904,-0.20744 0.67188,0.67633 0.73966,1.96392 0.0678,1.28759 0.0678,2.32665 0,2.30901 -0.0678,-0.0176 -1.55095,-0.77582 -3.29594,-1.68484 z m 6.61653,0.5076 c -0.37882,-0.28193 -0.75732,-1.43946 -0.84111,-2.57227 -0.0838,-1.13282 -0.43831,-2.155 -0.78783,-2.27151 -0.34952,-0.11651 -0.47728,-0.81686 -0.2839,-1.55633 0.19337,-0.73948 0.083,-1.34521 -0.24531,-1.34607 -0.3283,-6.9e-4 -0.63313,-0.99443 -0.67741,-2.20792 -0.0443,-1.21349 -0.38666,-2.3084 -0.76085,-2.43313 -0.37419,-0.12473 -0.52548,-1.03689 -0.3362,-2.02703 0.22075,-1.15479 0.0844,-1.63973 -0.38026,-1.35254 -0.45145,0.27901 -0.58857,-0.0717 -0.36391,-0.93078 0.19826,-0.75816 0.0434,-1.37848 -0.34413,-1.37848 -0.38754,0 -0.54251,-0.61988 -0.34438,-1.37752 0.19812,-0.75764 0.0431,-1.37753 -0.34438,-1.37753 -0.38754,0 -0.54251,-0.61988 -0.34439,-1.37752 0.19813,-0.75764 0.0571,-1.37753 -0.31335,-1.37753 -0.37047,0 -0.52546,-0.77486 -0.34442,-1.72191 0.18104,-0.94705 0.0121,-1.7219 -0.37541,-1.7219 -0.38751,0 -0.54247,-0.61989 -0.34434,-1.37753 0.19812,-0.75764 0.0916,-1.37968 -0.23667,-1.38232 -0.3283,-0.003 -0.66503,-1.47174 -0.74828,-3.26468 -0.0833,-1.79294 -0.42564,-3.35132 -0.76085,-3.46305 -0.33521,-0.11174 -0.46342,-0.96721 -0.2849,-1.90104 0.17851,-0.93383 0.0215,-1.69788 -0.34898,-1.69788 -0.37045,0 -0.52542,-0.77486 -0.34438,-1.72191 0.18212,-0.95272 0.006,-1.7219 -0.39428,-1.7219 -0.3979,0 -0.58294,-0.77486 -0.41121,-1.72191 0.17173,-0.94705 0.0585,-1.72191 -0.25169,-1.72191 -0.31016,0 -0.43728,-1.0848 -0.28249,-2.41067 0.15478,-1.32587 -1.9e-4,-2.41067 -0.34438,-2.41067 -0.3442,0 -0.49917,-1.0848 -0.34439,-2.41067 0.15479,-1.32587 -1.8e-4,-2.41067 -0.34438,-2.41067 -0.3442,0 -0.49917,-1.0848 -0.34438,-2.41067 0.15479,-1.32587 0.0151,-2.4101 -0.31049,-2.40941 -0.32556,6.9e-4 -0.48692,-1.85897 -0.35856,-4.13258 0.15041,-2.66441 -0.0332,-4.13383 -0.51658,-4.13383 -1.60974,0 -0.61508,-2.02211 2.17731,-4.4264 1.60998,-1.38622 3.54713,-3.082 4.30476,-3.76839 1.92259,-1.7418 3.82765,-2.35212 3.33505,-1.06843 -0.21064,0.54893 -0.0928,0.99806 0.26196,0.99806 0.35472,0 0.63164,0.5424 0.61537,1.20534 -0.052,2.11974 1.11516,8.43737 1.55865,8.43658 0.85006,-0.002 0.44801,12.03279 -0.43311,12.96426 -0.47353,0.50059 -0.86096,1.39074 -0.86096,1.97811 0,0.96293 0.1524,0.96354 1.54972,0.006 0.85234,-0.58397 1.47113,-1.39995 1.37507,-1.81329 -0.11989,-0.5159 0.22895,-0.49947 1.11266,0.0524 0.77482,0.48388 1.15512,1.30942 0.95527,2.07366 -0.18262,0.69834 -0.0428,1.26971 0.31064,1.26971 0.82461,0 -0.0347,7.51992 -1.08319,9.47903 -0.94677,1.76904 0.15287,2.77067 1.66449,1.51614 0.82534,-0.68497 1.00297,-0.56957 1.00297,0.65159 0,0.81619 -0.4491,2.55883 -0.998,3.87253 -0.5489,1.3137 -0.70387,2.38855 -0.34438,2.38855 0.35949,0 0.88608,0 1.17019,0 0.28412,0 0.51657,-0.28412 0.51657,-0.63137 0,-1.4507 1.11869,-1.60098 1.48518,-0.19951 0.21857,0.8358 0.5937,1.52103 0.83363,1.52273 0.23994,0.002 0.4967,1.15831 0.57059,2.57025 0.0739,1.41193 0.39851,2.65521 0.72138,2.76283 0.32287,0.10763 0.46096,1.27559 0.30687,2.59548 -0.15409,1.31988 0.003,2.39979 0.3482,2.39979 0.3456,0 0.61197,1.70439 0.59193,3.78752 -0.02,2.08314 -0.30407,3.78783 -0.63118,3.7882 -0.32711,3.7e-4 -0.45828,0.93051 -0.29148,2.06696 0.16679,1.13646 0.11495,2.06629 -0.11521,2.06629 -0.69932,0 -2.08464,4.28574 -1.62547,5.02869 0.26323,0.42591 0.0765,0.47634 -0.48316,0.13046 -0.6679,-0.41278 -0.79075,-0.24723 -0.45869,0.61812 0.2694,0.70204 0.1771,1.01106 -0.22733,0.7611 -0.37448,-0.23143 -0.68087,-0.0306 -0.68087,0.44636 0,0.67447 -0.18367,0.6835 -0.82652,0.0406 -1.2763,-1.2763 -2.05782,-0.97752 -1.274,0.48705 0.53164,0.99338 0.41163,1.66396 -0.49234,2.75109 -0.65744,0.79063 -1.50528,1.20685 -1.8841,0.92491 z m 64.73635,-59.83606 c -6.45829,-4.27864 -6.33723,-4.12102 -4.59193,-5.9788 0.83185,-0.88547 1.27716,-1.84523 0.98959,-2.13281 -0.28758,-0.28758 -0.21294,-0.46034 0.16588,-0.38391 0.37882,0.0764 3.57404,0.10226 7.10047,0.0574 4.95348,-0.063 6.28498,-0.27737 5.85449,-0.94251 -0.30647,-0.47353 -1.03503,-4.33944 -1.61903,-8.59093 -0.86053,-6.26475 -0.89317,-7.79468 -0.17219,-8.07134 0.48929,-0.18776 0.88961,-0.0229 0.88961,0.36641 0,0.38929 0.23246,0.5837 0.51658,0.43203 0.48959,-0.26137 2.90859,1.87662 2.9438,2.60183 0.0758,1.56244 0.93977,4.48027 1.32655,4.48027 0.61821,0 0.53331,5.04868 -0.0929,5.52301 -0.25943,0.1965 -0.58706,1.12633 -0.72809,2.06629 -0.14103,0.93995 -1.09628,3.3362 -2.12278,5.32501 -1.02651,1.9888 -1.70619,3.616 -1.5104,3.616 0.19579,0 -0.2639,0.61989 -1.02154,1.37753 -0.75764,0.75764 -1.37752,1.84244 -1.37752,2.41067 0,1.69264 -1.47297,1.20781 -6.55061,-2.15614 z m -10.49628,-7.91017 c -1.23116,-0.78845 -2.23848,-1.64853 -2.23848,-1.91127 0,-0.64857 6.1133,-6.61101 6.38935,-6.23168 0.70916,0.97447 1.87581,4.34242 1.87581,5.41522 0,0.69343 -0.46151,1.64379 -1.02556,2.11192 -0.56406,0.46813 -0.85571,1.12596 -0.64811,1.46186 0.70464,1.14014 -2.104,0.59426 -4.35301,-0.84605 z"
         id="path2217" />
      <path
         style="fill:#b94e6f;stroke-width:0.688763"
         d="m 183.80397,297.51236 c 0.4972,-0.19896 1.09126,-0.1745 1.32013,0.0543 0.22887,0.22886 -0.17793,0.39165 -0.90401,0.36175 -0.80236,-0.0331 -0.96557,-0.19626 -0.41612,-0.41613 z"
         id="path2215" />
      <path
         style="fill:#e26628;stroke-width:0.688763"
         d="m 232.14651,243.66384 c 0,-0.32754 -2.47954,-2.24829 -5.5101,-4.26834 -3.03056,-2.02004 -5.5101,-3.8827 -5.5101,-4.13924 0,-0.25653 0.84607,-1.38985 1.88016,-2.51847 l 1.88016,-2.05205 5.70689,3.79785 c 5.48491,3.65014 5.66601,3.85384 4.65613,5.2371 -0.57791,0.79158 -1.34989,2.13661 -1.71551,2.98895 -0.67014,1.56224 -1.38763,2.05562 -1.38763,0.9542 z m -15.7283,-11.91345 -2.9862,-2.11221 2.19348,-2.2631 2.19349,-2.2631 2.9729,1.8251 2.97289,1.82511 -1.73081,1.82973 c -0.95193,1.00635 -1.67731,2.0834 -1.61195,2.39345 0.25668,1.21751 -1.14993,0.78364 -4.0038,-1.23498 z M 143.98486,221.1858 c 0,-0.56823 0.30022,-1.03314 0.66715,-1.03314 0.36693,0 0.48874,0.46491 0.27069,1.03314 -0.21805,0.56823 -0.51827,1.03315 -0.66715,1.03315 -0.14888,0 -0.27069,-0.46492 -0.27069,-1.03315 z"
         id="path2213" />
      <path
         style="fill:#e66f10;stroke-width:0.688763"
         d="m 166.02528,295.65161 c 0,-0.65663 0.28873,-1.01541 0.64163,-0.79731 0.3529,0.21811 1.12776,-0.29748 1.72191,-1.14575 0.59415,-0.84826 1.08027,-1.21742 1.08027,-0.82034 0,0.39708 -0.77486,1.44989 -1.72191,2.3396 -1.4706,1.38156 -1.7219,1.44341 -1.7219,0.4238 z m -4.09978,-5.27794 c -0.8318,-3.08267 -1.38473,-5.73248 -1.22875,-5.88847 0.15598,-0.15598 0.95983,2.24293 1.78632,5.33091 0.82649,3.08797 1.37942,5.73778 1.22874,5.88846 -0.15068,0.15068 -0.95452,-2.24822 -1.78631,-5.3309 z m 3.11583,1.70551 c -0.25334,-1.00939 -0.32779,-1.96808 -0.16544,-2.13044 0.16235,-0.16235 0.50247,0.53069 0.75581,1.54007 0.25334,1.00939 0.32778,1.96809 0.16543,2.13044 -0.16235,0.16235 -0.50246,-0.53068 -0.7558,-1.54007 z m -9.92438,-1.35783 c -1.15401,-2.53278 -0.93385,-3.07311 0.31398,-0.77056 0.58271,1.07524 0.93059,2.08387 0.77307,2.24139 -0.15752,0.15752 -0.64669,-0.50435 -1.08705,-1.47083 z m 15.76079,0.27009 c -0.0171,-0.2465 0.74071,-2.10616 1.68405,-4.13258 0.94335,-2.02642 1.70421,-3.21948 1.69079,-2.65125 -0.0242,1.02612 -3.31528,7.64152 -3.37484,6.78383 z m -6.86438,-3.05303 c 0.0331,-0.80238 0.19626,-0.96558 0.41613,-0.41613 0.19896,0.49719 0.17449,1.09125 -0.0544,1.32013 -0.22887,0.22887 -0.39166,-0.17794 -0.36175,-0.904 z m -10.64511,-1.34676 c -0.66464,-1.73203 -0.46857,-2.17894 0.34337,-0.78267 0.40203,0.69135 0.58586,1.40209 0.40853,1.57942 -0.17734,0.17734 -0.51569,-0.1812 -0.7519,-0.79675 z m 9.60679,-2.08886 c -0.25334,-1.00939 -0.32779,-1.96809 -0.16544,-2.13044 0.16235,-0.16235 0.50247,0.53068 0.75581,1.54007 0.25334,1.00939 0.32779,1.96809 0.16543,2.13044 -0.16235,0.16235 -0.50246,-0.53068 -0.7558,-1.54007 z m -3.09426,-2.07449 c 0.0331,-0.80237 0.19626,-0.96557 0.41613,-0.41613 0.19897,0.4972 0.1745,1.09126 -0.0544,1.32014 -0.22887,0.22886 -0.39165,-0.17794 -0.36175,-0.90401 z m 14.54392,-1.32013 c 0.014,-1.13646 0.1684,-1.51799 0.34304,-0.84784 0.17463,0.67014 0.16314,1.59997 -0.0255,2.06628 -0.18867,0.46632 -0.33155,-0.082 -0.31752,-1.21844 z m -23.74825,-2.57184 c -0.64982,-2.06145 -1.16482,-4.18577 -1.14444,-4.7207 0.0204,-0.53494 0.63544,0.88705 1.36682,3.15997 0.73138,2.27291 1.24638,4.39723 1.14444,4.7207 -0.10193,0.32347 -0.717,-1.09851 -1.36682,-3.15997 z m 10.95796,0.76384 c -0.57419,-2.87094 -0.0177,-3.42738 0.60267,-0.60267 0.26151,1.19064 0.3319,2.30836 0.15642,2.48384 -0.17547,0.17548 -0.51706,-0.67105 -0.75909,-1.88117 z m -3.07956,-2.08616 c -0.44994,-1.94925 -0.69278,-3.66938 -0.53964,-3.82252 0.15314,-0.15315 0.65824,1.30473 1.12244,3.23972 0.46419,1.93499 0.70703,3.65514 0.53963,3.82253 -0.1674,0.1674 -0.67249,-1.29048 -1.12243,-3.23973 z m 16.58414,-1.27156 c 0,-1.32587 0.14174,-1.86827 0.31498,-1.20533 0.17325,0.66293 0.17325,1.74773 0,2.41067 -0.17324,0.66293 -0.31498,0.12053 -0.31498,-1.20534 z m -14.56944,-1.09054 c 0.033,-0.80237 0.19625,-0.96557 0.41613,-0.41613 0.19896,0.4972 0.17449,1.09126 -0.0544,1.32013 -0.22887,0.22887 -0.39166,-0.17793 -0.36175,-0.904 z m -0.68877,-2.75505 c 0.0331,-0.80237 0.19626,-0.96558 0.41613,-0.41613 0.19897,0.4972 0.1745,1.09126 -0.0544,1.32013 -0.22887,0.22887 -0.39165,-0.17793 -0.36175,-0.904 z m -11.38069,-2.04716 c -0.25931,-1.38224 -0.33372,-2.65092 -0.16536,-2.81928 0.16836,-0.16837 0.51828,0.82481 0.77759,2.20705 0.25931,1.38224 0.33372,2.65092 0.16536,2.81928 -0.16837,0.16837 -0.51828,-0.82481 -0.77759,-2.20705 z m 8.68002,1.07141 c 0,-0.94705 0.15633,-1.33448 0.3474,-0.86095 0.19107,0.47352 0.19107,1.24838 0,1.7219 -0.19107,0.47353 -0.3474,0.0861 -0.3474,-0.86095 z m 17.27011,-1.37753 c 0,-1.32586 0.14175,-1.86826 0.31499,-1.20533 0.17324,0.66293 0.17324,1.74774 0,2.41067 -0.17324,0.66293 -0.31499,0.12053 -0.31499,-1.20534 z m -15.20382,-0.68876 c 0,-0.94705 0.15633,-1.33448 0.3474,-0.86095 0.19107,0.47352 0.19107,1.24838 0,1.72191 -0.19107,0.47352 -0.3474,0.0861 -0.3474,-0.86096 z m -3.16992,-2.44894 c -0.25931,-1.38223 -0.33372,-2.65091 -0.16536,-2.81927 0.16837,-0.16837 0.51828,0.8248 0.77759,2.20705 0.25931,1.38223 0.33372,2.65091 0.16536,2.81928 -0.16837,0.16836 -0.51828,-0.82481 -0.77759,-2.20706 z m 2.42678,-0.70789 c 0.033,-0.80237 0.19626,-0.96557 0.41613,-0.41613 0.19896,0.4972 0.17449,1.09126 -0.0544,1.32014 -0.22887,0.22886 -0.39166,-0.17794 -0.36175,-0.90401 z m 14.84012,-1.06184 c -0.24202,-1.21012 -0.31241,-2.32785 -0.15642,-2.48384 0.15599,-0.15599 0.49758,0.69054 0.75909,1.88117 0.26151,1.19064 0.3319,2.30836 0.15642,2.48384 -0.17548,0.17548 -0.51707,-0.67106 -0.75909,-1.88117 z m -25.78043,-0.25829 c 0.014,-1.13646 0.1684,-1.51799 0.34303,-0.84784 0.17463,0.67014 0.16315,1.59997 -0.0255,2.06629 -0.18867,0.46631 -0.33155,-0.082 -0.31751,-1.21845 z m 9.85279,-3.09943 c -0.26463,-1.56633 -0.33668,-2.99234 -0.1601,-3.16892 0.17657,-0.17657 0.52757,0.97049 0.77999,2.54903 0.25241,1.57855 0.32446,3.00456 0.1601,3.16893 -0.16437,0.16436 -0.51536,-0.98271 -0.77999,-2.54904 z m -2.75505,-1.37753 c -0.26463,-1.56633 -0.33668,-2.99234 -0.1601,-3.16892 0.17657,-0.17657 0.52756,0.9705 0.77998,2.54904 0.25242,1.57854 0.32447,3.00455 0.16011,3.16892 -0.16437,0.16436 -0.51536,-0.9827 -0.77999,-2.54904 z m -7.76098,0 c 0,-1.32586 0.14174,-1.86826 0.31499,-1.20533 0.17324,0.66293 0.17324,1.74774 0,2.41067 -0.17325,0.66293 -0.31499,0.12053 -0.31499,-1.20534 z m 23.64982,-0.10371 c 1.06386,-1.46006 1.44343,-1.62726 1.89555,-0.83501 0.31092,0.54485 0.41288,1.36638 0.22657,1.82563 -0.18632,0.45925 -0.36323,0.24456 -0.39313,-0.47708 -0.0535,-1.29027 -0.0794,-1.29027 -1.5568,0 l -1.50242,1.31208 z m -1.4216,-1.42388 c 0.56646,-1.40841 1.02992,-3.22853 1.02992,-4.04472 0,-1.26037 -0.16039,-1.35087 -1.0644,-0.60061 -0.83403,0.69218 -0.79676,0.41271 0.17219,-1.29131 l 1.23659,-2.17469 0.22844,1.82881 c 0.32041,2.56509 -0.40601,5.95408 -1.6115,7.51826 -0.89482,1.16107 -0.89373,1.00818 0.009,-1.23574 z m -22.91698,-3.29375 c 0,-1.32586 0.14174,-1.86827 0.31498,-1.20533 0.17325,0.66293 0.17325,1.74773 0,2.41067 -0.17324,0.66293 -0.31498,0.12053 -0.31498,-1.20534 z m 10.2804,0.68877 c 0,-0.94705 0.15633,-1.33448 0.3474,-0.86096 0.19107,0.47353 0.19107,1.24839 0,1.72191 -0.19107,0.47353 -0.3474,0.0861 -0.3474,-0.86095 z m -2.77941,-1.03315 c -0.0568,-0.75764 -0.26269,-2.15238 -0.45761,-3.09943 l -0.35441,-1.72191 0.73776,1.68965 c 0.40577,0.9293 0.61169,2.32405 0.45761,3.09943 -0.27293,1.37343 -0.28281,1.37426 -0.38335,0.0323 z m 2.09064,-2.41067 c 0,-0.94705 0.15633,-1.33448 0.34741,-0.86095 0.19107,0.47352 0.19107,1.24838 0,1.72191 -0.19108,0.47352 -0.34741,0.0861 -0.34741,-0.86096 z m 11.68327,-0.15517 c 0.45115,-0.84299 1.0413,-3.24505 1.31145,-5.33792 0.47403,-3.6724 0.49432,-3.70227 0.58148,-0.85584 0.0843,2.75296 -1.40229,7.72646 -2.30945,7.72646 -0.22207,0 -0.0346,-0.68972 0.41652,-1.5327 z m -21.92647,-2.94426 c 0.005,-1.8941 0.13894,-2.58721 0.29725,-1.54025 0.15832,1.04697 0.15409,2.59668 -0.009,3.44382 -0.16349,0.84713 -0.29302,-0.009 -0.28785,-1.90357 z m 8.91672,-4.47696 c 0,-1.32587 0.14175,-1.86827 0.31499,-1.20533 0.17324,0.66293 0.17324,1.74773 0,2.41067 -0.17324,0.66293 -0.31499,0.12053 -0.31499,-1.20534 z m 13.66984,-3.15683 c 0.0331,-0.80237 0.19626,-0.96558 0.41613,-0.41613 0.19896,0.4972 0.17449,1.09126 -0.0544,1.32013 -0.22887,0.22887 -0.39166,-0.17793 -0.36175,-0.904 z m -14.3586,-1.66451 c 0,-1.32587 0.14174,-1.86827 0.31499,-1.20533 0.17324,0.66293 0.17324,1.74773 0,2.41067 -0.17325,0.66293 -0.31499,0.12053 -0.31499,-1.20534 z m 79.7367,1.80624 c 0,-0.14302 0.5424,-0.68542 1.20533,-1.20533 1.09242,-0.85673 1.11678,-0.83237 0.26005,0.26004 -0.89978,1.14731 -1.46538,1.51217 -1.46538,0.94529 z m -70.23272,-0.7731 c 0,-0.37881 0.30045,-1.15367 0.66767,-1.7219 0.36721,-0.56823 0.66767,-0.7232 0.66767,-0.34438 0,0.37882 -0.30046,1.15367 -0.66767,1.7219 -0.36722,0.56823 -0.66767,0.7232 -0.66767,0.34438 z m 2.43687,-1.13436 c 1.29591,-1.7761 2.36337,-1.97127 2.36337,-0.4321 0,0.4196 -0.2073,0.5556 -0.46067,0.30223 -0.25338,-0.25337 -1.08444,0.0824 -1.8468,0.74616 -1.384,1.20499 -1.38409,1.20404 -0.0559,-0.61629 z m -0.84433,-7.13079 c 0.002,-3.03056 0.1236,-4.18465 0.26909,-2.56465 0.1455,1.61999 0.14346,4.09954 -0.005,5.5101 -0.148,1.41056 -0.26705,0.0851 -0.26455,-2.94545 z m -11.78528,2.41067 c 0,-1.32587 0.14174,-1.86827 0.31498,-1.20533 0.17324,0.66293 0.17324,1.74773 0,2.41067 -0.17324,0.66293 -0.31498,0.12053 -0.31498,-1.20534 z m 85.2468,0 c 0.40547,-0.75764 0.8922,-1.37753 1.08161,-1.37753 0.18941,0 0.0126,0.61989 -0.39285,1.37753 -0.40547,0.75764 -0.8922,1.37753 -1.08161,1.37753 -0.18941,0 -0.0126,-0.61989 0.39285,-1.37753 z m -16.53031,-1.63757 c 0,-0.14303 0.5424,-0.68543 1.20533,-1.20534 1.09242,-0.85673 1.11678,-0.83237 0.26005,0.26005 -0.89978,1.14731 -1.46538,1.51216 -1.46538,0.94529 z m 19.42421,-3.51304 c 0.82417,-1.69638 1.61662,-2.96619 1.76101,-2.8218 0.31159,0.31159 -2.47146,5.90612 -2.93805,5.90612 -0.17679,0 0.35288,-1.38794 1.17704,-3.08432 z m -88.77584,-1.39264 c 0.004,-2.27291 0.13245,-3.11971 0.28575,-1.88176 0.15329,1.23795 0.15012,3.09761 -0.007,4.13258 -0.15716,1.03497 -0.28258,0.0221 -0.27872,-2.25082 z m 67.9741,3.57268 c 0,-0.11854 1.00732,-1.12585 2.23848,-2.23848 l 2.23848,-2.02296 -2.02296,2.23848 c -1.88568,2.08658 -2.454,2.55507 -2.454,2.02296 z m -2.41067,-8.04964 c 3.39359,-3.40937 6.32512,-6.19886 6.51453,-6.19886 0.18941,0 -2.43218,2.78949 -5.82576,6.19886 -3.39359,3.40938 -6.32512,6.19887 -6.51453,6.19887 -0.18941,0 2.43218,-2.78949 5.82576,-6.19887 z m 6.54325,5.98335 c 0,-0.11854 1.00732,-1.12585 2.23848,-2.23848 l 2.23848,-2.02296 -2.02296,2.23848 c -1.88568,2.08658 -2.454,2.55507 -2.454,2.02296 z m 1.03315,-3.91706 c 0.68565,-0.75764 1.40161,-1.37752 1.59102,-1.37752 0.18941,0 -0.21661,0.61988 -0.90226,1.37752 -0.68566,0.75764 -1.40162,1.37753 -1.59103,1.37753 -0.18941,0 0.21661,-0.61989 0.90227,-1.37753 z m -62.13724,-4.25238 c -0.45031,-2.36951 -0.70619,-4.42074 -0.56863,-4.5583 0.39998,-0.39998 1.9557,7.1615 1.65749,8.05611 -0.14857,0.44571 -0.63855,-1.12831 -1.08886,-3.49781 z m 80.26857,1.72175 c 0.29392,-1.44156 0.46712,-1.61475 0.66784,-0.66783 0.14904,0.70317 -0.0296,1.57902 -0.39684,1.94632 -0.43126,0.43126 -0.52725,-0.0216 -0.271,-1.27849 z m 0.91839,-4.357 c 0,-0.94704 0.15634,-1.33447 0.34741,-0.86095 0.19107,0.47352 0.19107,1.24838 0,1.72191 -0.19107,0.47352 -0.34741,0.0861 -0.34741,-0.86096 z m -83.27001,-3.82125 c -0.46975,-0.50999 -0.57971,-1.09684 -0.24436,-1.3041 0.33535,-0.20726 0.80448,0.13066 1.0425,0.75093 0.56973,1.48469 0.25854,1.70037 -0.79814,0.55317 z m 82.00392,-1.51666 c -0.71345,-2.28728 -0.69333,-2.42986 0.17584,-1.24588 0.82224,1.12003 1.39221,3.82874 0.80566,3.82874 -0.0967,0 -0.5384,-1.16228 -0.9815,-2.58286 z"
         id="path2211" />
      <path
         style="fill:#dc552b;stroke-width:0.688763"
         d="m 221.64288,245.20747 c -4.76028,-3.20456 -5.42623,-4.2671 -3.61601,-5.76945 0.56823,-0.47159 1.03315,-1.25124 1.03315,-1.73255 0,-1.30695 1.96881,-1.8119 3.6197,-0.92837 1.42737,0.7639 7.83706,5.14768 9.05261,6.19134 0.73683,0.63263 -2.98264,5.01522 -4.43352,5.22395 -0.55373,0.0797 -3.0989,-1.26355 -5.65593,-2.98492 z m -9.53934,-7.24503 c -1.66682,-1.19039 -3.12067,-2.23613 -3.23077,-2.32387 -0.45463,-0.36229 2.7545,-5.06221 3.70576,-5.42725 0.8684,-0.33323 6.48149,2.67452 6.48149,3.47309 0,0.73611 -1.87276,3.43977 -2.93877,4.24263 -0.66927,0.50406 -1.0384,1.2052 -0.8203,1.5581 0.66074,1.06912 -0.0267,0.74177 -3.19741,-1.5227 z m -68.10813,-13.42836 c 0.0194,-3.61929 0.90572,-4.18745 4.11084,-2.63512 2.46725,1.19495 2.70712,1.50812 1.93079,2.52081 -0.48755,0.63598 -2.04874,1.3653 -3.46932,1.6207 -2.49258,0.44813 -2.58249,0.39548 -2.57231,-1.50639 z"
         id="path2209" />
      <path
         style="fill:#d43e42;stroke-width:0.688763"
         d="m 209.83874,250.58285 c -0.19176,-0.31027 0.56481,-0.43007 1.68126,-0.26621 1.11646,0.16386 2.02991,0.41773 2.02991,0.56414 0,0.52482 -3.36988,0.25429 -3.71117,-0.29793 z m 7.71461,0.0936 c 0.4972,-0.19896 1.09125,-0.17449 1.32013,0.0544 0.22887,0.22887 -0.17794,0.39166 -0.904,0.36175 -0.80238,-0.033 -0.96558,-0.19625 -0.41613,-0.41612 z m -10.75331,-4.83297 c -1.01923,-3.32093 -0.52595,-3.81421 0.55101,-0.55101 0.45433,1.37663 0.69211,2.63691 0.5284,2.80061 -0.1637,0.16371 -0.64944,-0.84861 -1.07941,-2.2496 z m -62.7608,-10.25108 c 0.0331,-0.80237 0.19626,-0.96558 0.41613,-0.41613 0.19896,0.4972 0.17449,1.09126 -0.0544,1.32013 -0.22887,0.22887 -0.39166,-0.17793 -0.36175,-0.904 z"
         id="path2207" />
      <path
         style="fill:#d8462d;stroke-width:0.688763"
         d="m 217.87884,250.46755 c -2.6967,-0.22283 -4.70746,-0.78073 -5.43422,-1.50776 -1.07901,-1.07942 -0.98931,-1.37787 1.3872,-4.61532 2.53456,-3.45276 2.54416,-3.45791 3.90825,-2.09383 2.4212,2.42121 8.90087,6.21835 9.77278,5.72694 0.57514,-0.32414 0.62524,-0.24439 0.1567,0.24942 -1.58398,1.66943 -5.59475,2.58727 -9.79071,2.24055 z m 10.82386,-3.02442 c 0,-0.14303 0.5424,-0.68543 1.20533,-1.20534 1.09242,-0.85673 1.11678,-0.83237 0.26005,0.26005 -0.89978,1.1473 -1.46538,1.51216 -1.46538,0.94529 z m -19.28536,-1.11748 c 0,-0.37882 -0.42281,-0.68877 -0.93957,-0.68877 -1.19284,0 -3.4281,-5.75065 -2.89191,-7.44003 0.22193,-0.69924 1.39543,-2.17826 2.60776,-3.28671 1.21234,-1.10845 1.78449,-1.46548 1.27146,-0.79339 -0.51304,0.67209 -0.81115,1.31625 -0.66246,1.43146 5.30305,4.10923 5.38977,4.14401 6.92612,2.77766 0.80305,-0.71419 -0.17161,0.94857 -2.1659,3.69501 -3.66814,5.05156 -4.1455,5.54727 -4.1455,4.30477 z m 7.57639,-6.45892 c 0,-0.14302 0.5424,-0.68542 1.20533,-1.20533 1.09242,-0.85673 1.11678,-0.83237 0.26005,0.26005 -0.89978,1.1473 -1.46538,1.51216 -1.46538,0.94528 z M 144.4315,233.4562 c -0.24565,-0.24565 -0.44664,-1.91745 -0.44664,-3.71512 v -3.26848 l 2.75467,-0.46539 c 1.51507,-0.25597 3.05536,-0.98059 3.42287,-1.61026 0.48905,-0.83791 0.67382,-0.0982 0.68915,2.75919 0.0115,2.14723 0.197,4.36285 0.41217,4.92359 0.27999,0.72964 -0.0627,0.99838 -1.20533,0.94513 -0.87811,-0.0409 -2.4029,0.13988 -3.38841,0.40178 -0.98552,0.26191 -1.99283,0.27521 -2.23848,0.0296 z"
         id="path2205" />
      <path
         style="fill:#cc2633;stroke-width:0.688763"
         d="m 164.97354,308.97299 c -0.2239,-0.36227 0.23109,-0.65868 1.01109,-0.65868 1.66306,0 1.83083,0.38302 0.40708,0.92937 -0.55609,0.21339 -1.19427,0.0916 -1.41817,-0.27069 z m -1.00826,-3.75053 c -0.46813,-0.56406 -1.04848,-0.93149 -1.28967,-0.81652 -0.89234,0.42535 -3.35528,-2.84918 -2.80847,-3.73393 0.57473,-0.92994 -1.04213,-4.75544 -2.00991,-4.75544 -0.30596,0 -0.55629,-0.46491 -0.55629,-1.03314 0,-1.29616 -0.16534,-1.31866 3.54019,0.48163 1.71482,0.83312 3.11786,1.91792 3.11786,2.41067 0,0.49274 0.24352,0.8959 0.54117,0.8959 0.29764,0 0.58578,0.5424 0.64031,1.20533 0.0545,0.66294 0.30121,2.36762 0.54817,3.7882 0.47067,2.70741 -0.23764,3.34747 -1.72336,1.5573 z m 51.3279,-40.95442 c -0.22238,-0.35981 0.30173,-0.9968 1.16468,-1.41552 1.43902,-0.69825 1.46613,-0.67834 0.32717,0.24026 -0.93293,0.75243 -1.01859,1.09101 -0.34438,1.36114 0.60789,0.24355 0.63278,0.37712 0.0772,0.41395 -0.45117,0.0299 -1.00226,-0.24002 -1.22463,-0.59983 z m 2.90588,0.19805 c 0.47353,-0.19107 1.24839,-0.19107 1.72191,0 0.47353,0.19107 0.0861,0.34741 -0.86095,0.34741 -0.94705,0 -1.33448,-0.15634 -0.86096,-0.34741 z m -2.8382,-7.45144 c -7.06844,-4.81417 -6.92206,-4.62475 -5.23328,-6.77167 1.35297,-1.72002 1.53441,-1.76593 3.05124,-0.77207 1.83804,1.20433 11.20922,2.43425 12.76883,1.67585 1.64489,-0.79988 2.98095,-0.0687 2.0107,1.10035 -0.44102,0.53139 -0.61196,0.96617 -0.37987,0.96617 0.23208,0 -0.11739,0.66412 -0.77662,1.47583 -3.29093,4.05216 -5.17193,6.09661 -5.57471,6.05913 -0.24488,-0.0228 -2.88471,-1.7029 -5.86629,-3.73359 z m -2.31441,-6.31945 c -0.46631,-0.18867 -1.39614,-0.20015 -2.06629,-0.0255 -0.67014,0.17463 -0.28861,0.329 0.84785,0.34304 1.13646,0.014 1.68475,-0.12885 1.21844,-0.31752 z m -9.98996,-1.81156 c -2.85745,-1.80034 -3.41124,-1.93672 -4.47111,-1.10109 -0.66533,0.52457 0.13379,-0.67344 1.77583,-2.66224 1.64204,-1.9888 2.72421,-3.62075 2.40483,-3.62655 -0.69837,-0.0127 1.26278,-1.34134 2.00215,-1.35643 0.28411,-0.006 0.51657,0.45437 0.51657,1.02259 0,0.56823 0.24353,1.03315 0.54117,1.03315 0.29765,0 0.58355,0.5424 0.63534,1.20533 0.0518,0.66294 0.30861,2.48242 0.57069,4.04329 0.26208,1.56087 0.20863,2.98619 -0.11877,3.16738 -0.32741,0.18118 -2.06292,-0.59526 -3.8567,-1.72543 z m -50.5688,-0.17703 c -0.22432,-0.58457 -0.25395,-1.21675 -0.0659,-1.40484 0.1881,-0.1881 0.50732,0.29018 0.70937,1.06285 0.42921,1.64127 -0.0477,1.89471 -0.64351,0.34199 z m 55.39566,-1.28449 c -0.23208,-1.214 -0.0413,-1.78524 0.59635,-1.78524 1.05482,0 1.21181,1.25605 0.33073,2.6462 -0.42776,0.6749 -0.67789,0.44262 -0.92708,-0.86096 z m -62.14417,-2.64619 c -0.1478,-0.47352 -0.46578,-2.81903 -0.70661,-5.21223 -0.24083,-2.3932 -0.57778,-4.71778 -0.74878,-5.16572 -0.18474,-0.48394 0.46015,-0.88547 1.58918,-0.98946 1.04505,-0.0963 2.51983,-0.25123 3.27728,-0.34438 1.01213,-0.12447 1.43188,0.28708 1.58349,1.55254 0.11347,0.94705 0.39055,2.18682 0.61575,2.75505 0.2252,0.56823 0.34365,1.86603 0.26323,2.884 -0.0804,1.01797 0.17511,2.45126 0.56784,3.18509 0.63431,1.18522 0.42806,1.38151 -1.84672,1.75757 -3.65726,0.6046 -4.2923,0.54621 -4.59466,-0.42246 z"
         id="path2203" />
      <path
         style="fill:#702d83;stroke-width:0.688763"
         d="m 167.7755,316.62528 c -0.2497,-0.40402 -0.15936,-0.73458 0.20075,-0.73458 0.36011,0 0.84922,-0.77486 1.08691,-1.72191 0.2377,-0.94705 0.74417,-1.72191 1.1255,-1.72191 0.38133,0 0.18104,1.00732 -0.4451,2.23848 -1.43963,2.83075 -1.42588,2.8172 -1.96806,1.93992 z m 2.03797,-8.31097 c -0.23412,-0.37882 0.0575,-0.68877 0.64812,-0.68877 0.59058,0 1.07379,0.30995 1.07379,0.68877 0,0.37882 -0.29165,0.68876 -0.64812,0.68876 -0.35646,0 -0.83967,-0.30994 -1.07379,-0.68876 z m -4.64915,-1.14492 c 0.47353,-0.19107 1.24838,-0.19107 1.72191,0 0.47352,0.19107 0.0861,0.34741 -0.86095,0.34741 -0.94705,0 -1.33448,-0.15634 -0.86096,-0.34741 z m 3.61601,-1.61013 c 0,-0.37882 0.30994,-0.68877 0.68876,-0.68877 0.37882,0 0.68876,0.30995 0.68876,0.68877 0,0.37881 -0.30994,0.68876 -0.68876,0.68876 -0.37882,0 -0.68876,-0.30995 -0.68876,-0.68876 z m -0.41628,-3.27163 c -0.20517,-0.66293 -0.66036,-1.74353 -1.01153,-2.40132 -0.95168,-1.78267 -0.78107,-2.93844 0.62109,-4.20737 1.77041,-1.6022 2.02741,-1.47148 2.83679,1.44297 1.17477,4.23015 0.94823,6.37106 -0.67416,6.37106 -0.76953,0 -1.56702,-0.5424 -1.77219,-1.20534 z"
         id="path2201" />
      <path
         style="fill:#852574;stroke-width:0.688763"
         d="m 183.7211,305.38739 c -2.53513,-1.60834 -4.60817,-3.07996 -4.60676,-3.27029 0.001,-0.19032 0.62814,-1.37208 1.3927,-2.62612 0.95912,-1.57314 1.75914,-2.16879 2.58029,-1.92114 5.79004,1.74619 11.78345,1.75581 14.47627,0.0233 l 1.86668,-1.201 -1.32558,1.49905 c -1.4342,1.62188 -7.97272,5.85917 -7.97272,5.16671 0,-0.23229 -0.46151,-0.0393 -1.02556,0.42879 -1.30024,1.0791 -0.71621,2.0664 1.2384,2.09353 1.47639,0.0205 1.47923,0.0379 0.13154,0.80209 -0.75764,0.42963 -1.55042,1.03949 -1.76173,1.35524 -0.21131,0.31576 -2.4584,-0.74181 -4.99353,-2.35014 z m -9.89202,-2.49959 c -1.38461,-1.15635 -2.89975,-5.21163 -3.30688,-8.85091 -0.0945,-0.84442 -0.44755,-1.94131 -0.78462,-2.43754 -0.33708,-0.49622 0.16199,-0.035 1.10904,1.02494 1.857,2.07837 2.75135,2.41968 2.76134,1.05381 0.003,-0.47353 0.74231,-2.38084 1.64188,-4.23849 1.70018,-3.51091 2.01291,-3.41435 2.84953,0.87984 0.12003,0.61609 0.26567,1.12017 0.32364,1.12017 0.058,0 0.2036,0.50407 0.32363,1.12017 0.12004,0.61609 0.42715,1.77838 0.68248,2.58286 0.25533,0.80448 0.19082,1.46269 -0.14337,1.46269 -0.65822,0 -3.2565,4.83574 -3.05313,5.68229 0.0683,0.28412 -0.20414,0.51657 -0.60531,0.51657 -0.40118,0 -0.53786,0.30995 -0.30374,0.68877 0.60655,0.98141 0.21587,0.82321 -1.49449,-0.60517 z"
         id="path2199" />
      <path
         style="fill:#b71f47;stroke-width:0.688763"
         d="m 199.64536,291.62177 c 0.79268,-0.97824 0.25071,-1.55616 -4.40642,-4.69876 l -5.31027,-3.58334 -1.31391,1.6393 c -0.72265,0.90162 -0.30219,-0.22035 0.93436,-2.49327 1.23655,-2.27292 2.49344,-4.23589 2.79309,-4.36216 0.29965,-0.12628 0.54482,-0.63446 0.54482,-1.12929 0,-0.49483 1.00731,-2.0228 2.23848,-3.39547 l 2.23848,-2.49578 6.19734,4.13707 c 3.40854,2.27539 6.3001,4.44533 6.42568,4.82208 0.61591,1.84771 -5.89396,9.54184 -10.21235,12.07015 -0.87637,0.5131 -0.89599,0.43563 -0.1293,-0.51053 z m -13.51931,-8.45022 c 0.43223,-0.94865 0.65804,-1.83677 0.5018,-1.97362 -0.15624,-0.13683 -1.56095,-1.04375 -3.12157,-2.01536 -2.10973,-1.31348 -3.03718,-1.5669 -3.61601,-0.98806 -0.42817,0.42817 -0.7785,0.54551 -0.7785,0.26074 0,-0.90335 5.05343,-10.41159 5.81418,-10.9396 0.40099,-0.27831 0.43737,-0.51077 0.0808,-0.51657 -0.86028,-0.014 1.82729,-2.03163 2.71451,-2.03786 0.37882,-0.003 2.16652,1.07931 3.97267,2.40438 l 3.28391,2.40921 -1.36599,1.46622 c -0.7513,0.80643 -1.20345,1.72923 -1.00479,2.05068 0.19867,0.32145 0.033,0.58445 -0.36819,0.58445 -0.40118,0 -0.72942,0.31942 -0.72942,0.70983 0,0.71496 -5.53545,10.31038 -5.9479,10.31038 -0.12179,0 0.13221,-0.77617 0.56445,-1.72482 z"
         id="path2197" />
      <path
         style="fill:#a91f55;stroke-width:0.688763"
         d="m 183.72752,292.64495 c 1.38787,-2.55703 3.24374,-5.52773 4.12416,-6.60156 0.88041,-1.07383 1.39581,-2.28401 1.14534,-2.68929 -0.56096,-0.90765 -0.006,-0.58637 6.46775,3.7479 4.47968,2.99897 4.90464,3.4737 4.16691,4.65498 -0.45183,0.72349 -1.0694,1.16222 -1.37241,0.97496 -0.303,-0.18726 -0.5509,-0.0879 -0.5509,0.2208 0,1.33776 -9.79652,4.30893 -14.2788,4.3306 l -2.22545,0.0108 z m -5.56208,-2.65052 -1.80572,-5.37065 1.36497,-2.61876 c 0.75073,-1.44032 1.15573,-2.61875 0.9,-2.61875 -0.25573,0 0.11462,-0.42381 0.823,-0.94179 1.12565,-0.8231 1.66673,-0.7146 4.29352,0.86095 2.37223,1.42287 2.91953,2.09301 2.59731,3.18027 -0.22454,0.75764 -0.48882,1.76809 -0.58729,2.24545 -0.0985,0.47736 -0.54783,1.23672 -0.99858,1.68747 -0.45075,0.45075 -0.81954,1.01797 -0.81954,1.26051 0,0.24253 -0.89144,2.07109 -1.98097,4.06346 l -1.98098,3.62249 z"
         id="path2195" />
      <path
         style="fill:#7c277a;stroke-width:0.688763"
         d="m 171.55728,308.56683 c -0.012,-0.42934 -0.71927,-0.97174 -1.57162,-1.20532 -1.229,-0.3368 -1.34842,-0.5543 -0.57706,-1.05097 0.82274,-0.52974 0.7962,-0.80273 -0.17219,-1.77112 -1.50448,-1.50448 -1.45725,-1.60391 0.57706,-1.21503 1.50432,0.28757 1.72878,0.0797 1.77628,-1.64523 0.0314,-1.14102 0.22395,-1.53831 0.45612,-0.94125 0.22096,0.56823 0.89386,1.39559 1.49534,1.83858 1.19714,0.88169 1.43068,2.25226 0.56694,3.32715 -0.30441,0.37882 -0.99795,1.30865 -1.54121,2.06629 -0.54326,0.75763 -0.99761,1.02624 -1.00966,0.5969 z m 4.65626,-0.7691 c -0.50273,-0.60598 -0.47327,-0.86095 0.0995,-0.86095 0.44756,0 0.62219,-0.30994 0.38807,-0.68876 -0.23412,-0.37882 -0.0458,-0.68876 0.41853,-0.68876 0.46431,0 0.65233,-0.19187 0.41783,-0.42638 -0.42498,-0.42498 1.11201,-2.32868 1.88009,-2.32868 0.2223,0 2.16029,1.16229 4.30666,2.58286 4.29456,2.84236 4.47134,2.66822 -3.12157,3.07483 -2.31937,0.12421 -3.93831,-0.12077 -4.3891,-0.66416 z m -3.64502,-13.94744 c 0.23413,-0.37882 0.56236,-0.68877 0.72941,-0.68877 0.16706,0 0.30374,0.30995 0.30374,0.68877 0,0.37882 -0.32824,0.68876 -0.72941,0.68876 -0.40118,0 -0.53786,-0.30994 -0.30374,-0.68876 z"
         id="path2193" />
      <path
         style="fill:#c61f37;stroke-width:0.688763"
         d="m 207.35105,284.63632 c 0,-0.14302 0.5424,-0.68542 1.20533,-1.20534 1.09242,-0.85673 1.11678,-0.83237 0.26005,0.26005 -0.89978,1.14731 -1.46538,1.51217 -1.46538,0.94529 z m 2.50416,-3.67627 c 0.27367,-1.04654 -0.9704,-2.18835 -6.04869,-5.55147 -6.12151,-4.05399 -6.44979,-4.18384 -7.72416,-3.05537 -0.93748,0.83015 -0.79075,0.3641 0.49632,-1.57648 1.00499,-1.51528 2.03512,-3.21997 2.28919,-3.7882 0.25406,-0.56823 0.65444,-1.18811 0.88973,-1.37752 0.97602,-0.78569 3.51371,-4.82134 3.03174,-4.82134 -0.2876,0 0.0787,-0.45506 0.81406,-1.01124 0.73534,-0.55618 1.11861,-1.0211 0.85171,-1.03315 -0.2669,-0.012 0.29219,-0.79936 1.24242,-1.74958 0.95301,-0.95301 1.50892,-2.08165 1.2398,-2.51709 -0.301,-0.48704 -0.18329,-0.60117 0.3073,-0.29796 0.69554,0.42987 1.08757,-0.34026 0.8981,-1.76427 -0.0795,-0.59747 11.89388,7.57366 12.14258,8.2866 0.10568,0.30295 -1.08372,1.05199 -2.64312,1.66454 -3.17798,1.24834 -3.08908,2.55472 0.17384,2.55472 h 2.11852 l -1.6426,1.28014 c -0.90343,0.70408 -2.64992,1.79684 -3.88108,2.42836 -2.59253,1.32983 -2.86199,2.15026 -0.75827,2.30873 1.64328,0.12378 3.54039,1.55917 2.0607,1.55917 -0.47694,0 -0.6756,0.30994 -0.44148,0.68876 0.23413,0.37882 0.11833,0.68876 -0.25732,0.68876 -0.37564,0 -0.88988,0.65185 -1.14275,1.44855 -0.38161,1.20236 -3.18517,5.77695 -4.10281,6.69459 -0.14205,0.14205 -0.10323,-0.33461 0.0863,-1.05925 z m -18.59327,-13.83982 c -2.80728,-2.04251 -3.55425,-2.30577 -4.63223,-1.63256 -1.1839,0.73935 -1.22354,0.66725 -0.50283,-0.91454 0.43031,-0.94444 1.04259,-1.71717 1.3606,-1.71717 0.31801,0 0.57821,-0.43909 0.57821,-0.97575 0,-0.53666 0.2505,-1.07906 0.55666,-1.20534 0.53753,-0.22169 5.23529,-6.81685 5.27719,-7.40861 0.0114,-0.16027 0.89339,-1.16416 1.96009,-2.23086 1.16108,-1.16108 1.73872,-2.28805 1.43929,-2.80803 -0.27509,-0.47772 -0.24654,-0.63881 0.0634,-0.35798 0.31,0.28083 0.97357,0.17037 1.47461,-0.24546 0.68418,-0.56782 1.68597,-0.30188 4.02376,1.06816 1.71205,1.00331 3.1128,1.9695 3.1128,2.14708 0,0.17759 -1.55184,2.79904 -3.44853,5.82545 -1.89669,3.02642 -3.21395,5.512 -2.92724,5.52352 0.28671,0.0115 -0.0276,0.34051 -0.69853,0.73109 -0.6709,0.39058 -1.04004,1.00104 -0.82031,1.35658 0.21973,0.35554 0.10889,0.64643 -0.24633,0.64643 -0.35522,0 -1.03376,0.93649 -1.50786,2.08107 -0.4741,1.14459 -1.0541,2.18705 -1.2889,2.3166 -0.23478,0.12953 -1.93303,-0.86032 -3.77388,-2.19968 z m -42.37894,-20.02952 -2.33387,-1.24348 2.24778,-0.44955 c 3.30642,-0.66129 3.45311,-0.60724 3.45311,1.27235 0,2.02741 -0.28463,2.06297 -3.36702,0.42068 z"
         id="path2191" />
      <path
         style="fill:#6d0374;stroke-width:0.688763"
         d="m 163.33706,325.87776 c 0,-0.37882 1.05473,-2.70339 2.34383,-5.16572 1.28911,-2.46233 2.34384,-4.16702 2.34384,-3.7882 0,0.37882 -1.05473,2.7034 -2.34384,5.16572 -1.2891,2.46233 -2.34383,4.16702 -2.34383,3.7882 z m 6.82079,-14.04334 c 0,-0.33684 0.63522,-1.34416 1.4116,-2.23848 l 1.41159,-1.62601 -1.0849,2.23847 c -1.06756,2.2027 -1.73829,2.83011 -1.73829,1.62602 z m 5.49629,-1.12609 c -0.47918,-0.57738 -0.69722,-1.22382 -0.48452,-1.43651 0.2127,-0.21271 0.73269,0.2597 1.15553,1.04978 0.90217,1.68573 0.56726,1.87876 -0.67101,0.38673 z m 3.9742,-2.20351 c 1.23117,-0.15278 3.2458,-0.15278 4.47696,0 1.23116,0.15279 0.22385,0.2778 -2.23848,0.2778 -2.46233,0 -3.46964,-0.12501 -2.23848,-0.2778 z m -11.53678,-1.56804 c -0.62077,-0.40118 -0.70573,-0.67188 -0.21284,-0.67822 0.45117,-0.006 1.01186,0.2994 1.24599,0.67822 0.52849,0.85512 0.29005,0.85512 -1.03315,0 z m 22.0184,-0.3012 1.6999,-0.94116 -1.6999,-0.26971 c -1.32615,-0.21042 -1.11149,-0.3487 0.97638,-0.62895 l 2.67627,-0.35923 -1.85372,1.59451 c -1.01955,0.87698 -2.22387,1.58352 -2.67627,1.57009 -0.4524,-0.0134 -0.0576,-0.44792 0.87734,-0.96555 z m 6.81933,-7.51075 c 0.42192,-0.50838 0.53736,-1.20575 0.25653,-1.54972 -0.28083,-0.34396 -0.22917,-0.39562 0.11479,-0.1148 0.34397,0.28083 1.11883,0.13524 1.72191,-0.32353 0.60309,-0.45878 0.34512,0.009 -0.57326,1.03912 -1.67651,1.88081 -2.95663,2.68 -1.51997,0.94893 z m -7.31389,-0.23923 c 0.66294,-0.17323 1.74774,-0.17323 2.41067,0 0.66294,0.17325 0.12054,0.315 -1.20533,0.315 -1.32587,0 -1.86827,-0.14175 -1.20534,-0.315 z m -18.08002,-5.29536 c 0,-0.14302 0.5424,-0.68543 1.20533,-1.20534 1.09242,-0.85673 1.11678,-0.83237 0.26005,0.26005 -0.89978,1.14731 -1.46538,1.51217 -1.46538,0.94529 z"
         id="path2189" />
      <path
         style="fill:#c90018;stroke-width:0.688763"
         d="m 172.99299,326.83082 c -2.01043,-6.07105 -3.53641,-11.15721 -3.39104,-11.30256 0.14536,-0.14537 1.90919,4.70293 3.91963,10.77397 2.01044,6.07105 3.53641,11.1572 3.39105,11.30256 -0.14536,0.14536 -1.9092,-4.70293 -3.91964,-10.77397 z m -9.51079,-15.22066 c 1.44586,-2.31956 1.44426,-2.43325 -0.0398,-2.82107 -1.08667,-0.28398 -1.09067,-0.32286 -0.0406,-0.39489 0.64058,-0.0439 1.35676,0.23089 1.59152,0.61073 0.2841,0.45969 0.85551,0.4612 1.70882,0.005 1.09222,-0.58454 1.35063,-0.37361 1.74565,1.42491 0.25501,1.16106 0.27919,2.29548 0.0537,2.52094 -0.22546,0.22546 -0.41467,-0.0291 -0.42047,-0.56581 -0.006,-0.53667 -0.30107,-1.43523 -0.65616,-1.9968 -0.53924,-0.85281 -1.01327,-0.68258 -2.87691,1.03314 l -2.23129,2.0539 z m 0.067,-6.2231 -1.31208,-1.54971 1.54972,1.31208 c 0.85234,0.72165 1.54971,1.41902 1.54971,1.54972 0,0.55118 -0.55431,0.14426 -1.78735,-1.31209 z m 2.35524,-0.74098 c -0.25626,-1.25687 -0.16026,-1.70976 0.271,-1.2785 0.3673,0.36731 0.54587,1.24315 0.39683,1.94632 -0.20072,0.94693 -0.37392,0.77373 -0.66783,-0.66782 z m -7.7999,-2.66126 c -1.8941,-1.12696 -2.87606,-1.86855 -2.18215,-1.64796 0.69392,0.22058 1.90787,0.40105 2.69766,0.40105 0.78979,0 1.24254,0.19345 1.0061,0.42989 -0.23644,0.23644 0.25431,1.00099 1.09054,1.69899 2.09123,1.74556 1.4271,1.52132 -2.61215,-0.88197 z m 0.68876,-4.00196 c -0.58768,-1.13646 -0.91354,-2.06629 -0.72413,-2.06629 0.18941,0 0.82521,0.92983 1.4129,2.06629 0.58768,1.13646 0.91355,2.06629 0.72414,2.06629 -0.18941,0 -0.82522,-0.92983 -1.41291,-2.06629 z m 5.2201,-0.40177 c 0.0331,-0.80238 0.19626,-0.96558 0.41613,-0.41613 0.19896,0.49719 0.17449,1.09125 -0.0544,1.32013 -0.22887,0.22887 -0.39166,-0.17794 -0.36175,-0.904 z m 50.5697,-26.45998 c -1.21168,-0.52068 -1.14459,-0.59777 0.55722,-0.64035 1.12421,-0.0281 1.75642,0.24014 1.50907,0.64035 -0.23413,0.37882 -0.48488,0.66698 -0.55723,0.64035 -0.0723,-0.0266 -0.75142,-0.31478 -1.50906,-0.64035 z m 4.71609,-5.3938 c 0.62777,-0.69368 0.93409,-1.46854 0.68072,-1.72191 -0.25337,-0.25338 0.10992,-0.46068 0.80732,-0.46068 1.13825,0 1.10247,0.17619 -0.34965,1.72191 -1.8459,1.96487 -2.87745,2.38232 -1.13839,0.46068 z m 3.89344,-6.65955 c 0.88971,-0.94705 1.77263,-1.72191 1.96204,-1.72191 0.18941,0 -0.38356,0.77486 -1.27327,1.72191 -0.88971,0.94705 -1.77262,1.72191 -1.96203,1.72191 -0.18941,0 0.38356,-0.77486 1.27326,-1.72191 z m -30.99433,-4.04824 c 0,-0.14303 0.54241,-0.68543 1.20534,-1.20534 1.09242,-0.85673 1.11678,-0.83237 0.26005,0.26005 -0.89978,1.1473 -1.46539,1.51216 -1.46539,0.94529 z m 35.68653,-4.34304 c 0.4972,-0.19896 1.09126,-0.17449 1.32013,0.0544 0.22887,0.22887 -0.17793,0.39166 -0.904,0.36175 -0.80237,-0.033 -0.96557,-0.19625 -0.41613,-0.41612 z m -32.24271,-0.4783 c 0,-0.14303 0.5424,-0.68543 1.20533,-1.20534 1.09242,-0.85673 1.11679,-0.83237 0.26005,0.26005 -0.89978,1.1473 -1.46538,1.51216 -1.46538,0.94529 z m 4.12501,-5.2405 c 1.19596,-1.51002 2.53418,-2.96781 2.97383,-3.23953 0.43966,-0.27172 -0.39517,0.96375 -1.85518,2.74549 -1.46,1.78174 -2.79823,3.23953 -2.97384,3.23953 -0.1756,0 0.65923,-1.23547 1.85519,-2.74549 z m -47.4627,0.96619 c 0.033,-0.80237 0.19626,-0.96558 0.41613,-0.41613 0.19896,0.4972 0.17449,1.09126 -0.0544,1.32013 -0.22887,0.22887 -0.39166,-0.17793 -0.36175,-0.904 z m -7.42437,-3.7308 c 0,-2.08351 0.12912,-2.93585 0.28693,-1.8941 0.15782,1.04176 0.15782,2.74644 0,3.7882 -0.15781,1.04175 -0.28693,0.18941 -0.28693,-1.8941 z m 6.84103,-1.37753 c 0,-1.32587 0.14174,-1.86827 0.31499,-1.20533 0.17324,0.66293 0.17324,1.74773 0,2.41067 -0.17325,0.66293 -0.31499,0.12053 -0.31499,-1.20534 z m -0.68876,-5.5101 c 0,-1.32587 0.14174,-1.86827 0.31498,-1.20533 0.17325,0.66293 0.17325,1.74773 0,2.41067 -0.17324,0.66293 -0.31498,0.12053 -0.31498,-1.20534 z"
         id="path2187" />
      <path
         style="fill:#16085c;stroke-width:0.688763"
         d="m 159.6285,332.79255 c 1.78028,-3.58385 3.35208,-6.40088 3.4929,-6.26006 0.42517,0.42517 -5.51572,12.77615 -6.14541,12.77615 -0.32139,0 0.87224,-2.93225 2.65251,-6.51609 z"
         id="path2185" />
    </g>
  </g>
</svg>
