<?xml version="1.0" encoding="UTF-8" standalone="no"?>
<svg
   xmlns:dc="http://purl.org/dc/elements/1.1/"
   xmlns:cc="http://creativecommons.org/ns#"
   xmlns:rdf="http://www.w3.org/1999/02/22-rdf-syntax-ns#"
   xmlns:svg="http://www.w3.org/2000/svg"
   xmlns="http://www.w3.org/2000/svg"
   xmlns:xlink="http://www.w3.org/1999/xlink"
   xmlns:sodipodi="http://sodipodi.sourceforge.net/DTD/sodipodi-0.dtd"
   xmlns:inkscape="http://www.inkscape.org/namespaces/inkscape"
   width="509mm"
   height="150mm"
   viewBox="0 0 509 150"
   version="1.1"
   id="svg2146"
   inkscape:version="1.0.1 (3bc2e813f5, 2020-09-07)"
   sodipodi:docname="swagger.svg">
  <title
     id="title1091">Colored Badge Template</title>
  <defs
     id="defs2140">
    <linearGradient
       inkscape:collect="always"
       id="linearGradient908">
      <stop
         style="stop-color:#709d34;stop-opacity:1"
         offset="0"
         id="stop904" />
      <stop
         style="stop-color:#80b43c;stop-opacity:1"
         offset="1"
         id="stop906" />
    </linearGradient>
    <linearGradient
       inkscape:collect="always"
       id="linearGradient2974">
      <stop
         style="stop-color:#000000;stop-opacity:1"
         offset="0"
         id="stop2970" />
      <stop
         style="stop-color:#404040;stop-opacity:1"
         offset="1"
         id="stop2972" />
    </linearGradient>
    <linearGradient
       inkscape:collect="always"
       xlink:href="#linearGradient2974"
       id="linearGradient1030"
       gradientUnits="userSpaceOnUse"
       x1="-8.5265128e-14"
       y1="150"
       x2="-8.5265128e-14"
       y2="0"
       gradientTransform="scale(1.0275693,1)" />
    <linearGradient
       inkscape:collect="always"
       xlink:href="#linearGradient908"
       id="linearGradient1038"
       x1="-8.5265128e-14"
       y1="150"
       x2="-8.5265128e-14"
       y2="0"
       gradientUnits="userSpaceOnUse"
       gradientTransform="translate(6.086914e-6,-1.5253906e-5)" />
    <linearGradient
       inkscape:collect="always"
       xlink:href="#linearGradient908"
       id="linearGradient1038-0"
       x1="-8.5265128e-14"
       y1="150"
       x2="-8.5265128e-14"
       y2="0"
       gradientUnits="userSpaceOnUse"
       gradientTransform="matrix(0.17738398,0,0,1,123.3924,0)" />
  </defs>
  <sodipodi:namedview
     id="base"
     pagecolor="#ffffff"
     bordercolor="#666666"
     borderopacity="1.0"
     inkscape:pageopacity="0.0"
     inkscape:pageshadow="2"
     inkscape:zoom="0.38391123"
     inkscape:cx="804.10448"
     inkscape:cy="493.58411"
     inkscape:document-units="mm"
     inkscape:current-layer="layer1"
     inkscape:document-rotation="0"
     showgrid="false"
     inkscape:snap-bbox="true"
     inkscape:window-width="1920"
     inkscape:window-height="1017"
     inkscape:window-x="-8"
     inkscape:window-y="-8"
     inkscape:window-maximized="1" />
  <metadata
     id="metadata2143">
    <rdf:RDF>
      <cc:Work
         rdf:about="">
        <dc:format>image/svg+xml</dc:format>
        <dc:type
           rdf:resource="http://purl.org/dc/dcmitype/StillImage" />
        <dc:title>Colored Badge Template</dc:title>
      </cc:Work>
    </rdf:RDF>
  </metadata>
  <g
     inkscape:label="Text Background"
     inkscape:groupmode="layer"
     id="layer1">
    <rect
       style="opacity:0.996;fill:url(#linearGradient1030);fill-opacity:1;stroke-width:5.33911;stroke-linecap:square;paint-order:stroke fill markers"
       id="rect7"
       width="509"
       height="150"
       x="-8.5265128e-14"
       y="0"
       ry="15.000003" />
  </g>
  <g
     inkscape:groupmode="layer"
     id="layer4"
     inkscape:label="Text">
    <text
       xml:space="preserve"
       style="font-style:normal;font-weight:normal;font-size:67.3688px;line-height:1.25;font-family:sans-serif;fill:#ffffff;fill-opacity:1;stroke:none;stroke-width:0.350876"
       x="180.59209"
       y="98.980537"
       id="text13"><tspan
         sodipodi:role="line"
         id="tspan11"
         x="180.59209"
         y="98.980537"
         style="font-size:67.3688px;fill:#ffffff;stroke-width:0.350876">Swagger</tspan></text>
  </g>
  <g
     inkscape:groupmode="layer"
     id="layer3"
     inkscape:label="Logo Background">
    <rect
       style="opacity:0.996;fill:url(#linearGradient1038);fill-opacity:1;stroke-width:2.89838;stroke-linecap:square;paint-order:stroke fill markers"
       id="rect7-3"
       width="150"
       height="150"
       x="6.6757202e-06"
       y="-1.5258789e-05"
       ry="15" />
    <rect
       style="opacity:0.996;fill:url(#linearGradient1038-0);fill-opacity:1;stroke-width:1.22071;stroke-linecap:square;paint-order:stroke fill markers"
       id="rect7-3-0"
       width="26.607597"
       height="150"
       x="123.3924"
       y="0" />
    <g
       id="g898"
       transform="matrix(1.6802258,0,0,1.6802258,-242.27227,-316.40869)">
      <path
         style="fill:#83e82b;stroke-width:0.264583"
         d="m 186.40954,262.53154 c 0.097,-0.097 0.25576,-0.097 0.35278,0 0.097,0.097 0.0176,0.17639 -0.17639,0.17639 -0.19403,0 -0.27341,-0.0794 -0.17639,-0.17639 z m 4.49791,0 c 0.097,-0.097 0.25577,-0.097 0.35278,0 0.097,0.097 0.0176,0.17639 -0.17639,0.17639 -0.19402,0 -0.2734,-0.0794 -0.17639,-0.17639 z m -8.46666,-0.52917 c 0.097,-0.097 0.25576,-0.097 0.35278,0 0.097,0.097 0.0176,0.17639 -0.17639,0.17639 -0.19403,0 -0.27341,-0.0794 -0.17639,-0.17639 z m 12.43541,0 c 0.097,-0.097 0.25577,-0.097 0.35278,0 0.097,0.097 0.0176,0.17639 -0.17639,0.17639 -0.19402,0 -0.2734,-0.0794 -0.17639,-0.17639 z m -13.49375,-0.26458 c 0.097,-0.097 0.25577,-0.097 0.35278,0 0.097,0.097 0.0176,0.17639 -0.17639,0.17639 -0.19402,0 -0.2734,-0.0794 -0.17639,-0.17639 z m 14.55209,0 c 0.097,-0.097 0.25576,-0.097 0.35278,0 0.097,0.097 0.0176,0.17639 -0.17639,0.17639 -0.19403,0 -0.27341,-0.0794 -0.17639,-0.17639 z m -15.61042,-0.26458 c 0.097,-0.097 0.25577,-0.097 0.35278,0 0.097,0.097 0.0176,0.17639 -0.17639,0.17639 -0.19403,0 -0.2734,-0.0794 -0.17639,-0.17639 z m 16.66875,0 c 0.097,-0.097 0.25576,-0.097 0.35278,0 0.097,0.097 0.0176,0.17639 -0.17639,0.17639 -0.19403,0 -0.2734,-0.0794 -0.17639,-0.17639 z m -17.4625,-0.26459 c 0.097,-0.097 0.25577,-0.097 0.35278,0 0.097,0.097 0.0176,0.17639 -0.17639,0.17639 -0.19403,0 -0.2734,-0.0794 -0.17639,-0.17639 z m 18.25625,0 c 0.097,-0.097 0.25577,-0.097 0.35278,0 0.097,0.097 0.0176,0.17639 -0.17639,0.17639 -0.19403,0 -0.2734,-0.0794 -0.17639,-0.17639 z m -19.13819,-0.22048 c 0,-0.0728 0.0595,-0.13229 0.13229,-0.13229 0.0728,0 0.13229,0.0595 0.13229,0.13229 0,0.0728 -0.0595,0.13229 -0.13229,0.13229 -0.0728,0 -0.13229,-0.0595 -0.13229,-0.13229 z m 19.93194,-0.0441 c 0.097,-0.097 0.25577,-0.097 0.35278,0 0.097,0.097 0.0176,0.17639 -0.17639,0.17639 -0.19403,0 -0.2734,-0.0794 -0.17639,-0.17639 z m -20.46111,-0.22048 c 0,-0.0728 0.0595,-0.1323 0.13229,-0.1323 0.0728,0 0.13229,0.0595 0.13229,0.1323 0,0.0728 -0.0595,0.13229 -0.13229,0.13229 -0.0728,0 -0.13229,-0.0595 -0.13229,-0.13229 z m 21.16667,0 c 0,-0.0728 0.0595,-0.1323 0.13229,-0.1323 0.0728,0 0.13229,0.0595 0.13229,0.1323 0,0.0728 -0.0595,0.13229 -0.13229,0.13229 -0.0728,0 -0.13229,-0.0595 -0.13229,-0.13229 z m -21.96042,-0.26459 c 0,-0.0728 0.0595,-0.13229 0.13229,-0.13229 0.0728,0 0.13229,0.0595 0.13229,0.13229 0,0.0728 -0.0595,0.13229 -0.13229,0.13229 -0.0728,0 -0.13229,-0.0595 -0.13229,-0.13229 z m 22.75417,0 c 0,-0.0728 0.0595,-0.13229 0.13229,-0.13229 0.0728,0 0.13229,0.0595 0.13229,0.13229 0,0.0728 -0.0595,0.13229 -0.13229,0.13229 -0.0728,0 -0.13229,-0.0595 -0.13229,-0.13229 z m -23.28334,-0.26458 c 0,-0.0728 0.0595,-0.13229 0.1323,-0.13229 0.0728,0 0.13229,0.0595 0.13229,0.13229 0,0.0728 -0.0595,0.13229 -0.13229,0.13229 -0.0728,0 -0.1323,-0.0595 -0.1323,-0.13229 z m 23.8125,0 c 0,-0.0728 0.0595,-0.13229 0.1323,-0.13229 0.0728,0 0.13229,0.0595 0.13229,0.13229 0,0.0728 -0.0595,0.13229 -0.13229,0.13229 -0.0728,0 -0.1323,-0.0595 -0.1323,-0.13229 z m -24.34166,-0.26459 c 0,-0.0728 0.0595,-0.13229 0.13229,-0.13229 0.0728,0 0.13229,0.0595 0.13229,0.13229 0,0.0728 -0.0595,0.1323 -0.13229,0.1323 -0.0728,0 -0.13229,-0.0595 -0.13229,-0.1323 z m 24.87083,0 c 0,-0.0728 0.0595,-0.13229 0.13229,-0.13229 0.0728,0 0.13229,0.0595 0.13229,0.13229 0,0.0728 -0.0595,0.1323 -0.13229,0.1323 -0.0728,0 -0.13229,-0.0595 -0.13229,-0.1323 z m -17.27775,-0.55285 c -5.26603,-0.95177 -9.836,-3.41742 -13.9393,-7.52072 -5.31556,-5.31556 -7.94128,-11.5693 -7.94128,-18.91393 0,-7.34462 2.62572,-13.59835 7.94128,-18.91392 3.1397,-3.1397 5.70666,-4.83068 9.49081,-6.25207 7.61459,-2.86015 16.24099,-2.05716 23.37397,2.17579 2.97039,1.76273 7.27662,6.06896 9.03935,9.03935 5.15179,8.68132 5.15179,19.22039 0,27.90171 -1.76273,2.97039 -6.06896,7.27662 -9.03935,9.03935 -5.65278,3.35455 -12.51384,4.60326 -18.92548,3.44444 z m -3.14808,-11.5386 c 0.17462,-0.17463 0.3175,-0.80566 0.3175,-1.4023 0,-1.3039 -0.35687,-1.71979 -1.47573,-1.71979 -1.30748,0 -1.51917,-0.49923 -1.72773,-4.07453 -0.22902,-3.92619 -0.5205,-5.08847 -1.64608,-6.56382 l -0.86637,-1.13561 0.86286,-1.1307 c 1.14525,-1.50074 1.3979,-2.5022 1.58377,-6.27763 0.18221,-3.70095 0.4544,-4.36562 1.78777,-4.36562 1.18303,0 1.52889,-0.49072 1.4307,-2.02997 l -0.0815,-1.27733 -1.92167,0.0171 c -1.48973,0.0132 -2.08077,0.13584 -2.62949,0.54551 -1.44674,1.08015 -1.73516,1.75825 -1.97739,4.64895 -0.58141,6.93845 -0.72974,7.38187 -2.6416,7.89667 l -1.01631,0.27367 v 1.69939 1.6994 l 1.01631,0.27367 c 0.55898,0.15051 1.20693,0.48428 1.43989,0.74171 0.61927,0.68427 0.96957,2.52865 0.97691,5.14356 0.015,5.34903 1.32889,7.25765 5.04678,7.33134 0.66212,0.0131 1.34673,-0.11901 1.52136,-0.29363 z m 19.64712,0.0531 c 1.07446,-0.29848 2.19805,-1.36409 2.62243,-2.48708 0.15943,-0.4219 0.40425,-2.56503 0.54405,-4.7625 0.28971,-4.55411 0.50768,-5.08445 2.33216,-5.67416 l 1.1009,-0.35584 v -1.68448 -1.68449 l -1.01631,-0.27367 c -0.55898,-0.15051 -1.20693,-0.48428 -1.4399,-0.74171 -0.59515,-0.65764 -0.96906,-2.50184 -0.97844,-4.82585 -0.0107,-2.65007 -0.41967,-5.0083 -1.00927,-5.81941 -0.71247,-0.98015 -2.60883,-1.85419 -4.01266,-1.84946 -1.71779,0.006 -1.90644,0.2009 -1.81127,1.87308 l 0.0814,1.43016 1.18436,0.1323 c 1.39201,0.15548 1.84827,0.79273 1.85444,2.59011 0.008,2.31569 0.58836,6.27058 1.05418,7.18326 0.2645,0.51824 0.72291,1.1611 1.01869,1.42859 0.53758,0.48616 0.53745,0.48676 -0.3614,1.66432 -1.14221,1.49638 -1.37067,2.40476 -1.58846,6.31601 -0.1953,3.50729 -0.50945,4.36562 -1.59781,4.36562 -1.29142,0 -1.6963,0.43376 -1.6963,1.8173 0,0.69823 0.0794,1.34888 0.17639,1.4459 0.26443,0.26442 2.47154,0.20961 3.54282,-0.088 z m -17.23216,-13.66192 c 0.3016,-0.38343 0.54837,-0.96268 0.54837,-1.28724 0,-0.32455 -0.24677,-0.9038 -0.54837,-1.28723 -1.12476,-1.4299 -3.68496,-0.56133 -3.68496,1.25016 0,1.88218 2.53073,2.79168 3.68496,1.32431 z m 7.20827,0.25926 c 0.30893,-0.27959 0.48385,-0.80566 0.48385,-1.45521 0,-1.31243 -0.72966,-2.07566 -1.98437,-2.07566 -0.57327,0 -1.12763,0.20159 -1.45521,0.52917 -0.32758,0.32758 -0.52917,0.88194 -0.52917,1.4552 0,1.23591 0.76556,1.98438 2.02969,1.98438 0.53424,0 1.18909,-0.19705 1.45521,-0.43788 z m 7.27982,-0.13741 c 1.33636,-1.25544 0.37162,-3.39346 -1.53122,-3.39346 -1.11386,0 -2.08975,0.92668 -2.08975,1.98437 0,0.32456 0.24677,0.90381 0.54837,1.28724 0.71002,0.90264 2.17946,0.96091 3.0726,0.12185 z m -22.93555,24.78466 c 0,-0.0728 0.0595,-0.13229 0.13229,-0.13229 0.0728,0 0.13229,0.0595 0.13229,0.13229 0,0.0728 -0.0595,0.1323 -0.13229,0.1323 -0.0728,0 -0.13229,-0.0595 -0.13229,-0.1323 z m 28.04583,0 c 0,-0.0728 0.0595,-0.13229 0.13229,-0.13229 0.0728,0 0.13229,0.0595 0.13229,0.13229 0,0.0728 -0.0595,0.1323 -0.13229,0.1323 -0.0728,0 -0.13229,-0.0595 -0.13229,-0.1323 z m -28.575,-0.26458 c 0,-0.0728 0.0595,-0.13229 0.13229,-0.13229 0.0728,0 0.13229,0.0595 0.13229,0.13229 0,0.0728 -0.0595,0.13229 -0.13229,0.13229 -0.0728,0 -0.13229,-0.0595 -0.13229,-0.13229 z m 29.10417,0 c 0,-0.0728 0.0595,-0.13229 0.13229,-0.13229 0.0728,0 0.13229,0.0595 0.13229,0.13229 0,0.0728 -0.0595,0.13229 -0.13229,0.13229 -0.0728,0 -0.13229,-0.0595 -0.13229,-0.13229 z m -29.63334,-0.26458 c 0,-0.0728 0.0595,-0.13229 0.13229,-0.13229 0.0728,0 0.1323,0.0595 0.1323,0.13229 0,0.0728 -0.0595,0.13229 -0.1323,0.13229 -0.0728,0 -0.13229,-0.0595 -0.13229,-0.13229 z m 30.1625,0 c 0,-0.0728 0.0595,-0.13229 0.13229,-0.13229 0.0728,0 0.1323,0.0595 0.1323,0.13229 0,0.0728 -0.0595,0.13229 -0.1323,0.13229 -0.0728,0 -0.13229,-0.0595 -0.13229,-0.13229 z m -30.95625,-0.52917 c 0,-0.0728 0.0595,-0.13229 0.1323,-0.13229 0.0728,0 0.13229,0.0595 0.13229,0.13229 0,0.0728 -0.0595,0.13229 -0.13229,0.13229 -0.0728,0 -0.1323,-0.0595 -0.1323,-0.13229 z m 31.75,0 c 0,-0.0728 0.0595,-0.13229 0.1323,-0.13229 0.0728,0 0.13229,0.0595 0.13229,0.13229 0,0.0728 -0.0595,0.13229 -0.13229,0.13229 -0.0728,0 -0.1323,-0.0595 -0.1323,-0.13229 z m -32.43672,-0.43775 c -0.11697,-0.18926 -0.0726,-0.23365 0.11668,-0.11668 0.305,0.1885 0.40948,0.42214 0.18878,0.42214 -0.0642,0 -0.20163,-0.13746 -0.30546,-0.30546 z m 33.09818,0.0409 c 0.0899,-0.14552 0.22305,-0.26459 0.29581,-0.26459 0.0728,0 0.0587,0.11907 -0.0312,0.26459 -0.0899,0.14552 -0.22306,0.26458 -0.29582,0.26458 -0.0728,0 -0.0587,-0.11906 0.0312,-0.26458 z m -33.89193,-0.57005 c -0.11697,-0.18926 -0.0726,-0.23364 0.11668,-0.11668 0.305,0.1885 0.40948,0.42214 0.18878,0.42214 -0.0642,0 -0.20163,-0.13746 -0.30546,-0.30546 z m 34.68568,0.0409 c 0.0899,-0.14552 0.22305,-0.26458 0.29581,-0.26458 0.0728,0 0.0587,0.11906 -0.0312,0.26458 -0.0899,0.14552 -0.22306,0.26458 -0.29582,0.26458 -0.0728,0 -0.0587,-0.11906 0.0312,-0.26458 z m -35.88479,-0.99219 c -0.32911,-0.41964 -0.31975,-0.429 0.0999,-0.0999 0.25466,0.19972 0.46302,0.40808 0.46302,0.46302 0,0.21776 -0.21728,0.0776 -0.56292,-0.36313 z m 36.81083,0.36313 c 0,-0.0549 0.20836,-0.2633 0.46302,-0.46302 0.41965,-0.32911 0.42901,-0.31975 0.0999,0.0999 -0.34564,0.44073 -0.56292,0.58089 -0.56292,0.36313 z m -39.30057,-2.61209 -1.31297,-1.38906 1.38906,1.31297 c 0.76399,0.72214 1.38907,1.34721 1.38907,1.38907 0,0.19742 -0.24512,-0.0222 -1.46516,-1.31298 z m 42.0787,0.0661 c 0.71666,-0.7276 1.36255,-1.32292 1.43532,-1.32292 0.0728,0 -0.45407,0.59532 -1.17074,1.32292 -0.71666,0.7276 -1.36255,1.32292 -1.43532,1.32292 -0.0728,0 0.45407,-0.59532 1.17074,-1.32292 z m -44.35146,-2.57969 c -0.32911,-0.41964 -0.31975,-0.429 0.0999,-0.0999 0.25466,0.19972 0.46302,0.40808 0.46302,0.46302 0,0.21776 -0.21728,0.0776 -0.56292,-0.36313 z m 46.33583,0.36313 c 0,-0.0549 0.20836,-0.2633 0.46302,-0.46302 0.41965,-0.32911 0.42901,-0.31975 0.0999,0.0999 -0.34564,0.44073 -0.56292,0.58089 -0.56292,0.36313 z m -47.25339,-1.52849 c -0.11696,-0.18925 -0.0726,-0.23364 0.11668,-0.11667 0.305,0.1885 0.40949,0.42214 0.18879,0.42214 -0.0642,0 -0.20163,-0.13746 -0.30547,-0.30547 z m 48.44402,0.0409 c 0.0899,-0.14552 0.22305,-0.26458 0.29581,-0.26458 0.0728,0 0.0587,0.11906 -0.0312,0.26458 -0.0899,0.14552 -0.22305,0.26459 -0.29581,0.26459 -0.0728,0 -0.0587,-0.11907 0.0312,-0.26459 z m -48.97318,-0.83463 c -0.11697,-0.18925 -0.0726,-0.23364 0.11667,-0.11667 0.305,0.1885 0.40949,0.42214 0.18879,0.42214 -0.0642,0 -0.20163,-0.13746 -0.30546,-0.30547 z m 49.50235,0.0409 c 0.0899,-0.14552 0.22305,-0.26458 0.29581,-0.26458 0.0728,0 0.0587,0.11906 -0.0312,0.26458 -0.0899,0.14552 -0.22305,0.26459 -0.29581,0.26459 -0.0728,0 -0.0587,-0.11907 0.0312,-0.26459 z m -50.03152,-0.83463 c -0.11697,-0.18925 -0.0726,-0.23364 0.11668,-0.11667 0.305,0.1885 0.40948,0.42214 0.18878,0.42214 -0.0642,0 -0.20163,-0.13746 -0.30546,-0.30547 z m 50.42839,0.17317 c 0,-0.0728 0.0595,-0.13229 0.13229,-0.13229 0.0728,0 0.13229,0.0595 0.13229,0.13229 0,0.0728 -0.0595,0.1323 -0.13229,0.1323 -0.0728,0 -0.13229,-0.0595 -0.13229,-0.1323 z m -50.8,-0.79375 c 0,-0.0728 0.0595,-0.13229 0.13229,-0.13229 0.0728,0 0.13229,0.0595 0.13229,0.13229 0,0.0728 -0.0595,0.1323 -0.13229,0.1323 -0.0728,0 -0.13229,-0.0595 -0.13229,-0.1323 z m 51.32917,0 c 0,-0.0728 0.0595,-0.13229 0.13229,-0.13229 0.0728,0 0.13229,0.0595 0.13229,0.13229 0,0.0728 -0.0595,0.1323 -0.13229,0.1323 -0.0728,0 -0.13229,-0.0595 -0.13229,-0.1323 z m -51.59375,-0.52916 c 0,-0.0728 0.0595,-0.13229 0.13229,-0.13229 0.0728,0 0.13229,0.0595 0.13229,0.13229 0,0.0728 -0.0595,0.13229 -0.13229,0.13229 -0.0728,0 -0.13229,-0.0595 -0.13229,-0.13229 z m 51.85833,0 c 0,-0.0728 0.0595,-0.13229 0.13229,-0.13229 0.0728,0 0.13229,0.0595 0.13229,0.13229 0,0.0728 -0.0595,0.13229 -0.13229,0.13229 -0.0728,0 -0.13229,-0.0595 -0.13229,-0.13229 z m -52.12292,-0.52917 c 0,-0.0728 0.0595,-0.13229 0.1323,-0.13229 0.0728,0 0.13229,0.0595 0.13229,0.13229 0,0.0728 -0.0595,0.13229 -0.13229,0.13229 -0.0728,0 -0.1323,-0.0595 -0.1323,-0.13229 z m 52.3875,0 c 0,-0.0728 0.0595,-0.13229 0.13229,-0.13229 0.0728,0 0.1323,0.0595 0.1323,0.13229 0,0.0728 -0.0595,0.13229 -0.1323,0.13229 -0.0728,0 -0.13229,-0.0595 -0.13229,-0.13229 z m -52.65208,-0.52917 c 0,-0.0728 0.0595,-0.13229 0.13229,-0.13229 0.0728,0 0.13229,0.0595 0.13229,0.13229 0,0.0728 -0.0595,0.1323 -0.13229,0.1323 -0.0728,0 -0.13229,-0.0595 -0.13229,-0.1323 z m 52.91667,0 c 0,-0.0728 0.0595,-0.13229 0.13229,-0.13229 0.0728,0 0.13229,0.0595 0.13229,0.13229 0,0.0728 -0.0595,0.1323 -0.13229,0.1323 -0.0728,0 -0.13229,-0.0595 -0.13229,-0.1323 z m -53.18125,-0.52916 c 0,-0.0728 0.0595,-0.13229 0.13229,-0.13229 0.0728,0 0.13229,0.0595 0.13229,0.13229 0,0.0728 -0.0595,0.13229 -0.13229,0.13229 -0.0728,0 -0.13229,-0.0595 -0.13229,-0.13229 z m 53.44583,0 c 0,-0.0728 0.0595,-0.13229 0.13229,-0.13229 0.0728,0 0.13229,0.0595 0.13229,0.13229 0,0.0728 -0.0595,0.13229 -0.13229,0.13229 -0.0728,0 -0.13229,-0.0595 -0.13229,-0.13229 z m -53.71042,-0.52917 c 0,-0.0728 0.0595,-0.13229 0.13229,-0.13229 0.0728,0 0.1323,0.0595 0.1323,0.13229 0,0.0728 -0.0595,0.13229 -0.1323,0.13229 -0.0728,0 -0.13229,-0.0595 -0.13229,-0.13229 z m 53.975,0 c 0,-0.0728 0.0595,-0.13229 0.1323,-0.13229 0.0728,0 0.13229,0.0595 0.13229,0.13229 0,0.0728 -0.0595,0.13229 -0.13229,0.13229 -0.0728,0 -0.1323,-0.0595 -0.1323,-0.13229 z m -54.23958,-0.52917 c 0,-0.0728 0.0595,-0.13229 0.13229,-0.13229 0.0728,0 0.13229,0.0595 0.13229,0.13229 0,0.0728 -0.0595,0.1323 -0.13229,0.1323 -0.0728,0 -0.13229,-0.0595 -0.13229,-0.1323 z m 54.50417,0 c 0,-0.0728 0.0595,-0.13229 0.13229,-0.13229 0.0728,0 0.13229,0.0595 0.13229,0.13229 0,0.0728 -0.0595,0.1323 -0.13229,0.1323 -0.0728,0 -0.13229,-0.0595 -0.13229,-0.1323 z m -54.76875,-0.52916 c 0,-0.0728 0.0595,-0.13229 0.13229,-0.13229 0.0728,0 0.13229,0.0595 0.13229,0.13229 0,0.0728 -0.0595,0.13229 -0.13229,0.13229 -0.0728,0 -0.13229,-0.0595 -0.13229,-0.13229 z m 55.03333,0 c 0,-0.0728 0.0595,-0.13229 0.13229,-0.13229 0.0728,0 0.13229,0.0595 0.13229,0.13229 0,0.0728 -0.0595,0.13229 -0.13229,0.13229 -0.0728,0 -0.13229,-0.0595 -0.13229,-0.13229 z m -55.29792,-0.79375 c 0,-0.0728 0.0595,-0.13229 0.1323,-0.13229 0.0728,0 0.13229,0.0595 0.13229,0.13229 0,0.0728 -0.0595,0.13229 -0.13229,0.13229 -0.0728,0 -0.1323,-0.0595 -0.1323,-0.13229 z m 55.5625,0 c 0,-0.0728 0.0595,-0.13229 0.1323,-0.13229 0.0728,0 0.13229,0.0595 0.13229,0.13229 0,0.0728 -0.0595,0.13229 -0.13229,0.13229 -0.0728,0 -0.1323,-0.0595 -0.1323,-0.13229 z m -55.82708,-0.66146 c 0,-0.19403 0.0794,-0.2734 0.17639,-0.17639 0.097,0.097 0.097,0.25576 0,0.35278 -0.097,0.097 -0.17639,0.0176 -0.17639,-0.17639 z m 56.09167,0 c 0,-0.19403 0.0794,-0.2734 0.17639,-0.17639 0.097,0.097 0.097,0.25576 0,0.35278 -0.097,0.097 -0.17639,0.0176 -0.17639,-0.17639 z m -56.35625,-0.79375 c 0,-0.19403 0.0794,-0.2734 0.17639,-0.17639 0.097,0.097 0.097,0.25577 0,0.35278 -0.097,0.097 -0.17639,0.0176 -0.17639,-0.17639 z m 56.62083,0 c 0,-0.19403 0.0794,-0.2734 0.17639,-0.17639 0.097,0.097 0.097,0.25577 0,0.35278 -0.097,0.097 -0.17639,0.0176 -0.17639,-0.17639 z m -56.88542,-0.79375 c 0,-0.19403 0.0794,-0.2734 0.17639,-0.17639 0.097,0.097 0.097,0.25576 0,0.35278 -0.097,0.097 -0.17639,0.0176 -0.17639,-0.17639 z m 57.15,0 c 0,-0.19403 0.0794,-0.2734 0.17639,-0.17639 0.097,0.097 0.097,0.25576 0,0.35278 -0.097,0.097 -0.17639,0.0176 -0.17639,-0.17639 z m -57.41458,-1.05833 c 0,-0.19403 0.0794,-0.27341 0.17639,-0.17639 0.097,0.097 0.097,0.25576 0,0.35278 -0.097,0.097 -0.17639,0.0176 -0.17639,-0.17639 z m 57.67917,0 c 0,-0.19403 0.0794,-0.27341 0.17639,-0.17639 0.097,0.097 0.097,0.25576 0,0.35278 -0.097,0.097 -0.17639,0.0176 -0.17639,-0.17639 z m -57.94375,-1.05834 c 0,-0.19402 0.0794,-0.2734 0.17639,-0.17639 0.097,0.097 0.097,0.25577 0,0.35278 -0.097,0.097 -0.17639,0.0176 -0.17639,-0.17639 z m 58.20833,0 c 0,-0.19402 0.0794,-0.2734 0.17639,-0.17639 0.097,0.097 0.097,0.25577 0,0.35278 -0.097,0.097 -0.17639,0.0176 -0.17639,-0.17639 z m -58.7375,-3.96875 c 0,-0.19402 0.0794,-0.2734 0.17639,-0.17639 0.097,0.097 0.097,0.25577 0,0.35278 -0.097,0.097 -0.17639,0.0176 -0.17639,-0.17639 z m 59.26667,0 c 0,-0.19402 0.0794,-0.2734 0.17639,-0.17639 0.097,0.097 0.097,0.25577 0,0.35278 -0.097,0.097 -0.17639,0.0176 -0.17639,-0.17639 z m -59.26667,-4.49791 c 0,-0.19403 0.0794,-0.27341 0.17639,-0.17639 0.097,0.097 0.097,0.25576 0,0.35278 -0.097,0.097 -0.17639,0.0176 -0.17639,-0.17639 z m 59.26667,0 c 0,-0.19403 0.0794,-0.27341 0.17639,-0.17639 0.097,0.097 0.097,0.25576 0,0.35278 -0.097,0.097 -0.17639,0.0176 -0.17639,-0.17639 z m -58.7375,-3.96875 c 0,-0.19403 0.0794,-0.27341 0.17639,-0.17639 0.097,0.097 0.097,0.25576 0,0.35278 -0.097,0.097 -0.17639,0.0176 -0.17639,-0.17639 z m 58.20833,0 c 0,-0.19403 0.0794,-0.27341 0.17639,-0.17639 0.097,0.097 0.097,0.25576 0,0.35278 -0.097,0.097 -0.17639,0.0176 -0.17639,-0.17639 z m -57.94375,-1.05834 c 0,-0.19402 0.0794,-0.2734 0.17639,-0.17639 0.097,0.097 0.097,0.25577 0,0.35278 -0.097,0.097 -0.17639,0.0176 -0.17639,-0.17639 z m 57.67917,0 c 0,-0.19402 0.0794,-0.2734 0.17639,-0.17639 0.097,0.097 0.097,0.25577 0,0.35278 -0.097,0.097 -0.17639,0.0176 -0.17639,-0.17639 z m -57.41459,-1.05833 c 0,-0.19403 0.0794,-0.2734 0.17639,-0.17639 0.097,0.097 0.097,0.25576 0,0.35278 -0.097,0.097 -0.17639,0.0176 -0.17639,-0.17639 z m 57.15,0.13229 c 0,-0.0728 0.0595,-0.13229 0.1323,-0.13229 0.0728,0 0.13229,0.0595 0.13229,0.13229 0,0.0728 -0.0595,0.13229 -0.13229,0.13229 -0.0728,0 -0.1323,-0.0595 -0.1323,-0.13229 z m -56.88541,-0.92604 c 0,-0.19403 0.0794,-0.2734 0.17639,-0.17639 0.097,0.097 0.097,0.25576 0,0.35278 -0.097,0.097 -0.17639,0.0176 -0.17639,-0.17639 z m 56.62083,0 c 0,-0.19403 0.0794,-0.2734 0.17639,-0.17639 0.097,0.097 0.097,0.25576 0,0.35278 -0.097,0.097 -0.17639,0.0176 -0.17639,-0.17639 z m -56.35625,-0.79375 c 0,-0.19403 0.0794,-0.2734 0.17639,-0.17639 0.097,0.097 0.097,0.25576 0,0.35278 -0.097,0.097 -0.17639,0.0176 -0.17639,-0.17639 z m 56.09167,0 c 0,-0.19403 0.0794,-0.2734 0.17639,-0.17639 0.097,0.097 0.097,0.25576 0,0.35278 -0.097,0.097 -0.17639,0.0176 -0.17639,-0.17639 z m -55.82709,-0.66146 c 0,-0.0728 0.0595,-0.13229 0.1323,-0.13229 0.0728,0 0.13229,0.0595 0.13229,0.13229 0,0.0728 -0.0595,0.13229 -0.13229,0.13229 -0.0728,0 -0.1323,-0.0595 -0.1323,-0.13229 z m 55.5625,0 c 0,-0.0728 0.0595,-0.13229 0.1323,-0.13229 0.0728,0 0.13229,0.0595 0.13229,0.13229 0,0.0728 -0.0595,0.13229 -0.13229,0.13229 -0.0728,0 -0.1323,-0.0595 -0.1323,-0.13229 z m -55.29791,-0.79375 c 0,-0.0728 0.0595,-0.13229 0.13229,-0.13229 0.0728,0 0.13229,0.0595 0.13229,0.13229 0,0.0728 -0.0595,0.13229 -0.13229,0.13229 -0.0728,0 -0.13229,-0.0595 -0.13229,-0.13229 z m 55.03333,0 c 0,-0.0728 0.0595,-0.13229 0.13229,-0.13229 0.0728,0 0.13229,0.0595 0.13229,0.13229 0,0.0728 -0.0595,0.13229 -0.13229,0.13229 -0.0728,0 -0.13229,-0.0595 -0.13229,-0.13229 z m -54.76875,-0.52917 c 0,-0.0728 0.0595,-0.13229 0.13229,-0.13229 0.0728,0 0.13229,0.0595 0.13229,0.13229 0,0.0728 -0.0595,0.1323 -0.13229,0.1323 -0.0728,0 -0.13229,-0.0595 -0.13229,-0.1323 z m 54.50417,0 c 0,-0.0728 0.0595,-0.13229 0.13229,-0.13229 0.0728,0 0.13229,0.0595 0.13229,0.13229 0,0.0728 -0.0595,0.1323 -0.13229,0.1323 -0.0728,0 -0.13229,-0.0595 -0.13229,-0.1323 z m -54.23959,-0.52916 c 0,-0.0728 0.0595,-0.13229 0.13229,-0.13229 0.0728,0 0.1323,0.0595 0.1323,0.13229 0,0.0728 -0.0595,0.13229 -0.1323,0.13229 -0.0728,0 -0.13229,-0.0595 -0.13229,-0.13229 z m 53.975,0 c 0,-0.0728 0.0595,-0.13229 0.1323,-0.13229 0.0728,0 0.13229,0.0595 0.13229,0.13229 0,0.0728 -0.0595,0.13229 -0.13229,0.13229 -0.0728,0 -0.1323,-0.0595 -0.1323,-0.13229 z m -53.71041,-0.52917 c 0,-0.0728 0.0595,-0.13229 0.13229,-0.13229 0.0728,0 0.13229,0.0595 0.13229,0.13229 0,0.0728 -0.0595,0.13229 -0.13229,0.13229 -0.0728,0 -0.13229,-0.0595 -0.13229,-0.13229 z m 53.44583,0 c 0,-0.0728 0.0595,-0.13229 0.13229,-0.13229 0.0728,0 0.13229,0.0595 0.13229,0.13229 0,0.0728 -0.0595,0.13229 -0.13229,0.13229 -0.0728,0 -0.13229,-0.0595 -0.13229,-0.13229 z m -53.18125,-0.52917 c 0,-0.0728 0.0595,-0.13229 0.13229,-0.13229 0.0728,0 0.13229,0.0595 0.13229,0.13229 0,0.0728 -0.0595,0.1323 -0.13229,0.1323 -0.0728,0 -0.13229,-0.0595 -0.13229,-0.1323 z m 52.91667,0 c 0,-0.0728 0.0595,-0.13229 0.13229,-0.13229 0.0728,0 0.13229,0.0595 0.13229,0.13229 0,0.0728 -0.0595,0.1323 -0.13229,0.1323 -0.0728,0 -0.13229,-0.0595 -0.13229,-0.1323 z m -52.65209,-0.52916 c 0,-0.0728 0.0595,-0.13229 0.1323,-0.13229 0.0728,0 0.13229,0.0595 0.13229,0.13229 0,0.0728 -0.0595,0.13229 -0.13229,0.13229 -0.0728,0 -0.1323,-0.0595 -0.1323,-0.13229 z m 52.3875,0 c 0,-0.0728 0.0595,-0.13229 0.13229,-0.13229 0.0728,0 0.1323,0.0595 0.1323,0.13229 0,0.0728 -0.0595,0.13229 -0.1323,0.13229 -0.0728,0 -0.13229,-0.0595 -0.13229,-0.13229 z m -52.12291,-0.52917 c 0,-0.0728 0.0595,-0.13229 0.13229,-0.13229 0.0728,0 0.13229,0.0595 0.13229,0.13229 0,0.0728 -0.0595,0.13229 -0.13229,0.13229 -0.0728,0 -0.13229,-0.0595 -0.13229,-0.13229 z m 51.85833,0 c 0,-0.0728 0.0595,-0.13229 0.13229,-0.13229 0.0728,0 0.13229,0.0595 0.13229,0.13229 0,0.0728 -0.0595,0.13229 -0.13229,0.13229 -0.0728,0 -0.13229,-0.0595 -0.13229,-0.13229 z m -51.59375,-0.52917 c 0,-0.0728 0.0595,-0.13229 0.13229,-0.13229 0.0728,0 0.13229,0.0595 0.13229,0.13229 0,0.0728 -0.0595,0.1323 -0.13229,0.1323 -0.0728,0 -0.13229,-0.0595 -0.13229,-0.1323 z m 51.32917,0 c 0,-0.0728 0.0595,-0.13229 0.13229,-0.13229 0.0728,0 0.13229,0.0595 0.13229,0.13229 0,0.0728 -0.0595,0.1323 -0.13229,0.1323 -0.0728,0 -0.13229,-0.0595 -0.13229,-0.1323 z m -50.9323,-0.66145 c 0.0899,-0.14552 0.22306,-0.26459 0.29582,-0.26459 0.0728,0 0.0587,0.11907 -0.0312,0.26459 -0.0899,0.14552 -0.22305,0.26458 -0.29581,0.26458 -0.0728,0 -0.0587,-0.11906 0.0312,-0.26458 z m 50.40313,-0.1323 c 0,-0.0728 0.0595,-0.13229 0.13229,-0.13229 0.0728,0 0.13229,0.0595 0.13229,0.13229 0,0.0728 -0.0595,0.1323 -0.13229,0.1323 -0.0728,0 -0.13229,-0.0595 -0.13229,-0.1323 z m -49.87396,-0.66145 c 0.0899,-0.14552 0.22305,-0.26459 0.29581,-0.26459 0.0728,0 0.0587,0.11907 -0.0312,0.26459 -0.0899,0.14552 -0.22306,0.26458 -0.29582,0.26458 -0.0728,0 -0.0587,-0.11906 0.0312,-0.26458 z m 49.45182,-0.0409 c -0.11697,-0.18926 -0.0726,-0.23365 0.11668,-0.11668 0.168,0.10383 0.30546,0.24129 0.30546,0.30546 0,0.2207 -0.23364,0.11622 -0.42214,-0.18878 z m -48.92265,-0.75287 c 0.0899,-0.14552 0.22305,-0.26459 0.29581,-0.26459 0.0728,0 0.0587,0.11907 -0.0312,0.26459 -0.0899,0.14552 -0.22305,0.26458 -0.29581,0.26458 -0.0728,0 -0.0587,-0.11906 0.0312,-0.26458 z m 48.28646,-0.1323 c 0,-0.0728 0.0595,-0.13229 0.13229,-0.13229 0.0728,0 0.13229,0.0595 0.13229,0.13229 0,0.0728 -0.0595,0.1323 -0.13229,0.1323 -0.0728,0 -0.13229,-0.0595 -0.13229,-0.1323 z m -47.625,-0.76135 c 0,-0.0549 0.20836,-0.2633 0.46302,-0.46302 0.41964,-0.32911 0.429,-0.31975 0.0999,0.0999 -0.34564,0.44072 -0.56291,0.58088 -0.56291,0.36312 z m 46.7975,-0.36312 c -0.32911,-0.41965 -0.31975,-0.42901 0.0999,-0.0999 0.44073,0.34564 0.58089,0.56292 0.36313,0.56292 -0.0549,0 -0.2633,-0.20836 -0.46302,-0.46302 z m -44.28396,-2.4474 c 0.71666,-0.7276 1.36255,-1.32292 1.43531,-1.32292 0.0728,0 -0.45406,0.59532 -1.17073,1.32292 -0.71666,0.7276 -1.36255,1.32292 -1.43531,1.32292 -0.0728,0 0.45406,-0.59532 1.17073,-1.32292 z m 42.0588,-0.0661 -1.31297,-1.38906 1.38906,1.31297 c 1.29074,1.22004 1.5104,1.46516 1.31298,1.46516 -0.0419,0 -0.66693,-0.62508 -1.38907,-1.38907 z m -2.39644,-2.11666 -0.50403,-0.59532 0.59531,0.50403 c 0.32743,0.27722 0.59532,0.54511 0.59532,0.59532 0,0.21173 -0.21294,0.0554 -0.6866,-0.50403 z m -37.4134,0.23083 c 0,-0.0549 0.20836,-0.2633 0.46302,-0.46302 0.41964,-0.32911 0.429,-0.31975 0.0999,0.0999 -0.34564,0.44072 -0.56291,0.58088 -0.56291,0.36312 z m 1.4552,-1.22302 c 0.0899,-0.14552 0.22306,-0.26458 0.29582,-0.26458 0.0728,0 0.0587,0.11906 -0.0312,0.26458 -0.0899,0.14552 -0.22305,0.26458 -0.29581,0.26458 -0.0728,0 -0.0587,-0.11906 0.0312,-0.26458 z m 34.79271,0.13229 c 0,-0.0728 0.0595,-0.13229 0.1323,-0.13229 0.0728,0 0.13229,0.0595 0.13229,0.13229 0,0.0728 -0.0595,0.13229 -0.13229,0.13229 -0.0728,0 -0.1323,-0.0595 -0.1323,-0.13229 z m -33.99895,-0.66146 c 0.0899,-0.14552 0.22305,-0.26458 0.29581,-0.26458 0.0728,0 0.0587,0.11906 -0.0312,0.26458 -0.0899,0.14552 -0.22305,0.26459 -0.29581,0.26459 -0.0728,0 -0.0587,-0.11907 0.0312,-0.26459 z m 33.04765,-0.0409 c -0.11697,-0.18925 -0.0726,-0.23364 0.11667,-0.11667 0.305,0.1885 0.40949,0.42214 0.18879,0.42214 -0.0642,0 -0.20163,-0.13746 -0.30546,-0.30547 z m -32.2539,-0.48828 c 0.0899,-0.14552 0.22305,-0.26459 0.29581,-0.26459 0.0728,0 0.0587,0.11907 -0.0312,0.26459 -0.0899,0.14552 -0.22305,0.26458 -0.29581,0.26458 -0.0728,0 -0.0587,-0.11906 0.0312,-0.26458 z m 31.6177,0.13229 c 0,-0.0728 0.0595,-0.13229 0.1323,-0.13229 0.0728,0 0.13229,0.0595 0.13229,0.13229 0,0.0728 -0.0595,0.13229 -0.13229,0.13229 -0.0728,0 -0.1323,-0.0595 -0.1323,-0.13229 z m -30.95625,-0.52917 c 0,-0.0728 0.0595,-0.13229 0.13229,-0.13229 0.0728,0 0.1323,0.0595 0.1323,0.13229 0,0.0728 -0.0595,0.13229 -0.1323,0.13229 -0.0728,0 -0.13229,-0.0595 -0.13229,-0.13229 z m 30.1625,0 c 0,-0.0728 0.0595,-0.13229 0.13229,-0.13229 0.0728,0 0.1323,0.0595 0.1323,0.13229 0,0.0728 -0.0595,0.13229 -0.1323,0.13229 -0.0728,0 -0.13229,-0.0595 -0.13229,-0.13229 z m -29.63333,-0.26458 c 0,-0.0728 0.0595,-0.13229 0.13229,-0.13229 0.0728,0 0.13229,0.0595 0.13229,0.13229 0,0.0728 -0.0595,0.13229 -0.13229,0.13229 -0.0728,0 -0.13229,-0.0595 -0.13229,-0.13229 z m 29.10417,0 c 0,-0.0728 0.0595,-0.13229 0.13229,-0.13229 0.0728,0 0.13229,0.0595 0.13229,0.13229 0,0.0728 -0.0595,0.13229 -0.13229,0.13229 -0.0728,0 -0.13229,-0.0595 -0.13229,-0.13229 z m -28.575,-0.26459 c 0,-0.0728 0.0595,-0.13229 0.13229,-0.13229 0.0728,0 0.13229,0.0595 0.13229,0.13229 0,0.0728 -0.0595,0.1323 -0.13229,0.1323 -0.0728,0 -0.13229,-0.0595 -0.13229,-0.1323 z m 28.04583,0 c 0,-0.0728 0.0595,-0.13229 0.13229,-0.13229 0.0728,0 0.13229,0.0595 0.13229,0.13229 0,0.0728 -0.0595,0.1323 -0.13229,0.1323 -0.0728,0 -0.13229,-0.0595 -0.13229,-0.1323 z M 175.20884,206.484 c 0,-0.0728 0.0595,-0.13229 0.13229,-0.13229 0.0728,0 0.1323,0.0595 0.1323,0.13229 0,0.0728 -0.0595,0.13229 -0.1323,0.13229 -0.0728,0 -0.13229,-0.0595 -0.13229,-0.13229 z m 26.9875,0 c 0,-0.0728 0.0595,-0.13229 0.1323,-0.13229 0.0728,0 0.13229,0.0595 0.13229,0.13229 0,0.0728 -0.0595,0.13229 -0.13229,0.13229 -0.0728,0 -0.1323,-0.0595 -0.1323,-0.13229 z m -26.45833,-0.26458 c 0,-0.0728 0.0595,-0.13229 0.13229,-0.13229 0.0728,0 0.13229,0.0595 0.13229,0.13229 0,0.0728 -0.0595,0.13229 -0.13229,0.13229 -0.0728,0 -0.13229,-0.0595 -0.13229,-0.13229 z m 25.92917,0 c 0,-0.0728 0.0595,-0.13229 0.13229,-0.13229 0.0728,0 0.13229,0.0595 0.13229,0.13229 0,0.0728 -0.0595,0.13229 -0.13229,0.13229 -0.0728,0 -0.13229,-0.0595 -0.13229,-0.13229 z m -25.4,-0.26459 c 0,-0.0728 0.0595,-0.13229 0.13229,-0.13229 0.0728,0 0.13229,0.0595 0.13229,0.13229 0,0.0728 -0.0595,0.1323 -0.13229,0.1323 -0.0728,0 -0.13229,-0.0595 -0.13229,-0.1323 z m 24.87083,0 c 0,-0.0728 0.0595,-0.13229 0.13229,-0.13229 0.0728,0 0.13229,0.0595 0.13229,0.13229 0,0.0728 -0.0595,0.1323 -0.13229,0.1323 -0.0728,0 -0.13229,-0.0595 -0.13229,-0.1323 z m -24.34167,-0.26458 c 0,-0.0728 0.0595,-0.13229 0.1323,-0.13229 0.0728,0 0.13229,0.0595 0.13229,0.13229 0,0.0728 -0.0595,0.13229 -0.13229,0.13229 -0.0728,0 -0.1323,-0.0595 -0.1323,-0.13229 z m 23.8125,0 c 0,-0.0728 0.0595,-0.13229 0.1323,-0.13229 0.0728,0 0.13229,0.0595 0.13229,0.13229 0,0.0728 -0.0595,0.13229 -0.13229,0.13229 -0.0728,0 -0.1323,-0.0595 -0.1323,-0.13229 z m -23.28333,-0.26458 c 0,-0.0728 0.0595,-0.13229 0.13229,-0.13229 0.0728,0 0.13229,0.0595 0.13229,0.13229 0,0.0728 -0.0595,0.13229 -0.13229,0.13229 -0.0728,0 -0.13229,-0.0595 -0.13229,-0.13229 z m 22.75417,0 c 0,-0.0728 0.0595,-0.13229 0.13229,-0.13229 0.0728,0 0.13229,0.0595 0.13229,0.13229 0,0.0728 -0.0595,0.13229 -0.13229,0.13229 -0.0728,0 -0.13229,-0.0595 -0.13229,-0.13229 z m -21.96042,-0.26459 c 0,-0.0728 0.0595,-0.13229 0.13229,-0.13229 0.0728,0 0.13229,0.0595 0.13229,0.13229 0,0.0728 -0.0595,0.1323 -0.13229,0.1323 -0.0728,0 -0.13229,-0.0595 -0.13229,-0.1323 z m 21.16667,0 c 0,-0.0728 0.0595,-0.13229 0.13229,-0.13229 0.0728,0 0.13229,0.0595 0.13229,0.13229 0,0.0728 -0.0595,0.1323 -0.13229,0.1323 -0.0728,0 -0.13229,-0.0595 -0.13229,-0.1323 z m -20.54931,-0.30868 c 0.097,-0.097 0.25577,-0.097 0.35278,0 0.097,0.097 0.0176,0.17639 -0.17639,0.17639 -0.19403,0 -0.2734,-0.0794 -0.17639,-0.17639 z m 19.84375,0 c 0.097,-0.097 0.25577,-0.097 0.35278,0 0.097,0.097 0.0176,0.17639 -0.17639,0.17639 -0.19403,0 -0.2734,-0.0794 -0.17639,-0.17639 z m -19.05,-0.26458 c 0.097,-0.097 0.25576,-0.097 0.35278,0 0.097,0.097 0.0176,0.17639 -0.17639,0.17639 -0.19403,0 -0.2734,-0.0794 -0.17639,-0.17639 z m 18.25625,0 c 0.097,-0.097 0.25577,-0.097 0.35278,0 0.097,0.097 0.0176,0.17639 -0.17639,0.17639 -0.19403,0 -0.2734,-0.0794 -0.17639,-0.17639 z m -17.4625,-0.26458 c 0.097,-0.097 0.25577,-0.097 0.35278,0 0.097,0.097 0.0176,0.17639 -0.17639,0.17639 -0.19403,0 -0.2734,-0.0794 -0.17639,-0.17639 z m 16.66875,0 c 0.097,-0.097 0.25576,-0.097 0.35278,0 0.097,0.097 0.0176,0.17639 -0.17639,0.17639 -0.19403,0 -0.2734,-0.0794 -0.17639,-0.17639 z m -15.61042,-0.26459 c 0.097,-0.097 0.25577,-0.097 0.35278,0 0.097,0.097 0.0176,0.17639 -0.17639,0.17639 -0.19402,0 -0.2734,-0.0794 -0.17639,-0.17639 z m 14.55209,0 c 0.097,-0.097 0.25576,-0.097 0.35278,0 0.097,0.097 0.0176,0.17639 -0.17639,0.17639 -0.19403,0 -0.27341,-0.0794 -0.17639,-0.17639 z m -13.49375,-0.26458 c 0.097,-0.097 0.25576,-0.097 0.35278,0 0.097,0.097 0.0176,0.17639 -0.17639,0.17639 -0.19403,0 -0.27341,-0.0794 -0.17639,-0.17639 z m 12.43541,0 c 0.097,-0.097 0.25577,-0.097 0.35278,0 0.097,0.097 0.0176,0.17639 -0.17639,0.17639 -0.19402,0 -0.2734,-0.0794 -0.17639,-0.17639 z m -1.67569,-0.22049 c 0,-0.0728 0.0595,-0.13229 0.13229,-0.13229 0.0728,0 0.13229,0.0595 0.13229,0.13229 0,0.0728 -0.0595,0.1323 -0.13229,0.1323 -0.0728,0 -0.13229,-0.0595 -0.13229,-0.1323 z m -6.79097,-0.30868 c 0.097,-0.097 0.25576,-0.097 0.35278,0 0.097,0.097 0.0176,0.17639 -0.17639,0.17639 -0.19403,0 -0.27341,-0.0794 -0.17639,-0.17639 z m 4.49791,0 c 0.097,-0.097 0.25577,-0.097 0.35278,0 0.097,0.097 0.0176,0.17639 -0.17639,0.17639 -0.19402,0 -0.2734,-0.0794 -0.17639,-0.17639 z"
         id="path902" />
      <path
         style="fill:#1d3e46;stroke-width:0.264583"
         d="m 185.24816,262.45338 c -2.31699,-0.29514 -5.78622,-1.24358 -8.03867,-2.19765 -9.90438,-4.19519 -16.80614,-13.65572 -17.924,-24.56918 -0.84788,-8.27765 2.17729,-16.96605 8.06572,-23.16504 2.54474,-2.67894 4.80856,-4.33695 8.25451,-6.04555 8.4824,-4.20582 17.55972,-4.29805 25.98743,-0.26406 3.39596,1.6255 5.37584,3.03476 8.16901,5.81461 2.75647,2.74333 4.14763,4.69889 5.80313,8.15753 3.93499,8.22086 3.93499,17.29567 0,25.51653 -3.95954,8.27217 -10.77396,13.78531 -19.90076,16.10052 -2.79261,0.7084 -7.60841,1.00997 -10.41637,0.65229 z m 8.34711,-3.05977 c 2.96575,-0.51719 6.42476,-1.81984 9.19047,-3.4611 2.97039,-1.76273 7.27662,-6.06896 9.03935,-9.03935 5.15179,-8.68132 5.15179,-19.22039 0,-27.90171 -1.76273,-2.97039 -6.06896,-7.27662 -9.03935,-9.03935 -8.68132,-5.15179 -19.22039,-5.15179 -27.90171,0 -2.97039,1.76273 -7.27662,6.06896 -9.03935,9.03935 -5.15179,8.68132 -5.15179,19.22039 0,27.90171 1.76273,2.97039 6.06896,7.27662 9.03935,9.03935 5.65135,3.3537 12.28774,4.58126 18.71124,3.4611 z M 177.15396,247.8668 c -1.20949,-0.35038 -2.36934,-1.80734 -2.71247,-3.40728 -0.16004,-0.74624 -0.29389,-2.39274 -0.29745,-3.65888 -0.007,-2.61491 -0.35764,-4.45929 -0.97691,-5.14356 -0.23296,-0.25743 -0.88091,-0.5912 -1.43989,-0.74171 l -1.01631,-0.27367 v -1.6994 -1.69939 l 1.01631,-0.27367 c 1.91186,-0.5148 2.06019,-0.95822 2.6416,-7.89667 0.24223,-2.8907 0.53065,-3.5688 1.97739,-4.64895 0.54872,-0.40967 1.13976,-0.53229 2.62949,-0.54551 l 1.92167,-0.0171 0.0815,1.27733 c 0.0982,1.53925 -0.24767,2.02997 -1.4307,2.02997 -1.33337,0 -1.60556,0.66467 -1.78777,4.36562 -0.18587,3.77543 -0.43852,4.77689 -1.58377,6.27763 l -0.86286,1.1307 0.86637,1.13561 c 1.12558,1.47535 1.41706,2.63763 1.64608,6.56382 0.20856,3.5753 0.42025,4.07453 1.72773,4.07453 1.11886,0 1.47573,0.41589 1.47573,1.71979 0,0.59664 -0.14288,1.22767 -0.3175,1.4023 -0.36598,0.36597 -2.33867,0.38175 -3.55822,0.0285 z m 19.66252,0.11266 c -0.097,-0.097 -0.17639,-0.74767 -0.17639,-1.4459 0,-1.38354 0.40488,-1.8173 1.6963,-1.8173 1.08836,0 1.40251,-0.85833 1.59781,-4.36562 0.21779,-3.91125 0.44625,-4.81963 1.58846,-6.31601 0.89885,-1.17756 0.89898,-1.17816 0.3614,-1.66432 -0.29578,-0.26749 -0.75419,-0.91035 -1.01869,-1.42859 -0.46582,-0.91268 -1.04622,-4.86757 -1.05418,-7.18326 -0.006,-1.79738 -0.46243,-2.43463 -1.85444,-2.59011 l -1.18436,-0.1323 -0.0814,-1.43016 c -0.0952,-1.67218 0.0935,-1.86728 1.81127,-1.87308 1.40383,-0.005 3.30019,0.86931 4.01266,1.84946 0.5896,0.81111 0.99859,3.16934 1.00927,5.81941 0.009,2.32401 0.38329,4.16821 0.97844,4.82585 0.23297,0.25743 0.88092,0.5912 1.4399,0.74171 l 1.01631,0.27367 v 1.68449 1.68448 l -1.1009,0.35584 c -1.82448,0.58971 -2.04245,1.12005 -2.33216,5.67416 -0.1398,2.19747 -0.38462,4.3406 -0.54405,4.7625 -0.42438,1.12299 -1.54797,2.1886 -2.62243,2.48708 -1.07128,0.29761 -3.27839,0.35242 -3.54282,0.088 z m -16.79902,-13.66514 c -1.26618,-1.34779 -0.30545,-3.35639 1.60538,-3.35639 1.07571,0 2.05267,0.94445 2.05267,1.98437 0,0.32456 -0.24677,0.90381 -0.54837,1.28724 -0.73247,0.93118 -2.27501,0.97323 -3.10968,0.0848 z m 7.36222,0.0832 c -0.32758,-0.32758 -0.52917,-0.88194 -0.52917,-1.45521 0,-0.57326 0.20159,-1.12762 0.52917,-1.4552 0.32758,-0.32758 0.88194,-0.52917 1.45521,-0.52917 1.25471,0 1.98437,0.76323 1.98437,2.07566 0,0.64955 -0.17492,1.17562 -0.48385,1.45521 -0.67902,0.6145 -2.30001,0.56444 -2.95573,-0.0913 z m 7.16295,-0.16797 c -1.11911,-1.42271 -0.24802,-3.27161 1.54138,-3.27161 1.22561,0 2.14358,0.86567 2.14358,2.02145 0,1.81149 -2.5602,2.68006 -3.68496,1.25016 z"
         id="path900" />
    </g>
  </g>
  <g
     inkscape:groupmode="layer"
     id="layer2"
     inkscape:label="Logo" />
</svg>
