<?xml version="1.0" encoding="UTF-8" standalone="no"?>
<svg
   xmlns:dc="http://purl.org/dc/elements/1.1/"
   xmlns:cc="http://creativecommons.org/ns#"
   xmlns:rdf="http://www.w3.org/1999/02/22-rdf-syntax-ns#"
   xmlns:svg="http://www.w3.org/2000/svg"
   xmlns="http://www.w3.org/2000/svg"
   xmlns:xlink="http://www.w3.org/1999/xlink"
   xmlns:sodipodi="http://sodipodi.sourceforge.net/DTD/sodipodi-0.dtd"
   xmlns:inkscape="http://www.inkscape.org/namespaces/inkscape"
   width="574mm"
   height="150mm"
   viewBox="0 0 574 150"
   version="1.1"
   id="svg2146"
   inkscape:version="1.0.1 (3bc2e813f5, 2020-09-07)"
   sodipodi:docname="thymeleaf.svg">
  <title
     id="title1091">Colored Badge Template</title>
  <defs
     id="defs2140">
    <linearGradient
       inkscape:collect="always"
       id="linearGradient935">
      <stop
         style="stop-color:#5da326;stop-opacity:1"
         offset="0"
         id="stop931" />
      <stop
         style="stop-color:#68b629;stop-opacity:1"
         offset="1"
         id="stop933" />
    </linearGradient>
    <linearGradient
       inkscape:collect="always"
       id="linearGradient2974">
      <stop
         style="stop-color:#000000;stop-opacity:1"
         offset="0"
         id="stop2970" />
      <stop
         style="stop-color:#404040;stop-opacity:1"
         offset="1"
         id="stop2972" />
    </linearGradient>
    <linearGradient
       inkscape:collect="always"
       xlink:href="#linearGradient2974"
       id="linearGradient1030"
       gradientUnits="userSpaceOnUse"
       x1="-8.5265128e-14"
       y1="150"
       x2="-8.5265128e-14"
       y2="0"
       gradientTransform="scale(1.1587913,1)" />
    <linearGradient
       inkscape:collect="always"
       xlink:href="#linearGradient935"
       id="linearGradient1038"
       x1="-8.5265128e-14"
       y1="150"
       x2="-8.5265128e-14"
       y2="0"
       gradientUnits="userSpaceOnUse"
       gradientTransform="translate(6.086914e-6,-1.5253906e-5)" />
    <linearGradient
       inkscape:collect="always"
       xlink:href="#linearGradient935"
       id="linearGradient1038-0"
       x1="-8.5265128e-14"
       y1="150"
       x2="-8.5265128e-14"
       y2="0"
       gradientUnits="userSpaceOnUse"
       gradientTransform="matrix(0.17738398,0,0,1,123.3924,0)" />
  </defs>
  <sodipodi:namedview
     id="base"
     pagecolor="#ffffff"
     bordercolor="#666666"
     borderopacity="1.0"
     inkscape:pageopacity="0.0"
     inkscape:pageshadow="2"
     inkscape:zoom="0.36428148"
     inkscape:cx="804.10448"
     inkscape:cy="511.67089"
     inkscape:document-units="mm"
     inkscape:current-layer="layer2"
     inkscape:document-rotation="0"
     showgrid="false"
     inkscape:snap-bbox="true"
     inkscape:window-width="1920"
     inkscape:window-height="1017"
     inkscape:window-x="-8"
     inkscape:window-y="-8"
     inkscape:window-maximized="1" />
  <metadata
     id="metadata2143">
    <rdf:RDF>
      <cc:Work
         rdf:about="">
        <dc:format>image/svg+xml</dc:format>
        <dc:type
           rdf:resource="http://purl.org/dc/dcmitype/StillImage" />
        <dc:title>Colored Badge Template</dc:title>
      </cc:Work>
    </rdf:RDF>
  </metadata>
  <g
     inkscape:label="Text Background"
     inkscape:groupmode="layer"
     id="layer1">
    <rect
       style="opacity:0.996;fill:url(#linearGradient1030);fill-opacity:1;stroke-width:5.66978;stroke-linecap:square;paint-order:stroke fill markers"
       id="rect7"
       width="574"
       height="150"
       x="-8.5265128e-14"
       y="0"
       ry="15.000003" />
  </g>
  <g
     inkscape:groupmode="layer"
     id="layer4"
     inkscape:label="Text">
    <text
       xml:space="preserve"
       style="font-style:normal;font-weight:normal;font-size:67.3688px;line-height:1.25;font-family:sans-serif;fill:#ffffff;fill-opacity:1;stroke:none;stroke-width:0.350876"
       x="185"
       y="98.980537"
       id="text13"><tspan
         sodipodi:role="line"
         id="tspan11"
         x="185"
         y="98.980537"
         style="font-size:67.3688px;fill:#ffffff;stroke-width:0.350876">Thymeleaf</tspan></text>
  </g>
  <g
     inkscape:groupmode="layer"
     id="layer3"
     inkscape:label="Logo Background">
    <rect
       style="opacity:0.996;fill:url(#linearGradient1038);fill-opacity:1;stroke-width:2.89838;stroke-linecap:square;paint-order:stroke fill markers"
       id="rect7-3"
       width="150"
       height="150"
       x="6.6757202e-06"
       y="-1.5258789e-05"
       ry="15" />
    <rect
       style="opacity:0.996;fill:url(#linearGradient1038-0);fill-opacity:1;stroke-width:1.22071;stroke-linecap:square;paint-order:stroke fill markers"
       id="rect7-3-0"
       width="26.607597"
       height="150"
       x="123.3924"
       y="0" />
  </g>
  <g
     inkscape:groupmode="layer"
     id="layer2"
     inkscape:label="Logo">
    <g
       id="g2192"
       transform="matrix(0.36955915,0,0,0.36955915,22.607968,-37.16683)">
      <path
         style="fill:#aba79d;stroke-width:0.264583"
         d="m 23.033492,438.67812 c 0.181901,-0.0734 0.479557,-0.0734 0.661458,0 0.181901,0.0734 0.03307,0.13345 -0.330729,0.13345 -0.363802,0 -0.51263,-0.0601 -0.330729,-0.13345 z m 236.272918,0 c 0.18191,-0.0734 0.47956,-0.0734 0.66146,0 0.1819,0.0734 0.0331,0.13345 -0.33073,0.13345 -0.3638,0 -0.51263,-0.0601 -0.33073,-0.13345 z M 20.453804,438.32193 c -3.619461,-0.62195 -8.283195,-3.95057 -10.9207875,-7.79446 -1.3244446,-1.93017 -2.5615714,-4.75795 -2.5502829,-5.82933 0.0065,-0.61699 0.1423108,-0.40747 0.6098619,0.94088 1.2157135,3.50593 3.3116475,6.5175 6.1207435,8.79465 1.680272,1.3621 5.202522,3.1913 6.740465,3.50049 0.509323,0.10239 1.104636,0.28795 1.322917,0.41235 0.455344,0.25948 0.315015,0.25689 -1.322917,-0.0246 z m 240.770836,0.0154 c 0.21828,-0.1193 0.8136,-0.30067 1.32292,-0.40307 1.53794,-0.30919 5.06019,-2.13839 6.74046,-3.50049 0.86961,-0.70493 2.15785,-1.99317 2.86278,-2.86277 1.3621,-1.68027 3.1913,-5.20252 3.50049,-6.74046 0.29538,-1.46927 0.63682,-1.85357 0.47014,-0.52917 -0.63252,5.02572 -5.81475,11.11485 -11.33991,13.32434 -1.48671,0.59454 -4.41436,1.18028 -3.55688,0.71162 z M 6.6954705,423.50752 c 0,-0.19403 0.079375,-0.27341 0.1763889,-0.17639 0.097014,0.097 0.097014,0.25576 0,0.35278 -0.097014,0.097 -0.1763889,0.0176 -0.1763889,-0.17639 z m -0.222807,-1.5875 c 0,-0.36381 0.060053,-0.51263 0.1334521,-0.33073 0.073399,0.1819 0.073399,0.47955 0,0.66146 -0.073399,0.1819 -0.1334521,0.0331 -0.1334521,-0.33073 z m 269.8750065,0 c 0,-0.36381 0.0601,-0.51263 0.13346,-0.33073 0.0734,0.1819 0.0734,0.47955 0,0.66146 -0.0734,0.1819 -0.13346,0.0331 -0.13346,-0.33073 z M 102.47464,376.2436 c -8.476962,-1.28404 -15.982303,-4.85662 -21.720941,-10.33928 -3.758848,-3.59118 -5.063953,-6.56705 -5.08091,-11.58535 -0.01993,-5.89967 1.808782,-10.55835 5.971905,-15.21354 6.480107,-7.24603 12.211741,-11.91952 28.238276,-23.02506 15.72853,-10.89904 16.32162,-11.31271 21.56355,-15.04022 39.85745,-28.34251 73.56818,-58.70195 100.36782,-90.38993 3.65319,-4.31955 4.08728,-4.7728 4.21586,-4.40194 0.0403,0.11622 -1.13299,2.70202 -2.6073,5.74621 -4.02557,8.31212 -8.45134,17.7446 -14.32857,30.53802 -14.9792,32.60633 -21.68628,46.24745 -30.05095,61.11875 -9.27964,16.49802 -20.27524,32.8791 -29.57014,44.05313 -3.65258,4.39102 -10.52121,11.25253 -14.26839,14.25361 -9.82249,7.86672 -20.31347,12.85287 -30.10039,14.30609 -3.40525,0.50563 -9.21877,0.4962 -12.62982,-0.0205 z m 13.1452,-0.50663 c 6.84287,-1.01607 15.44701,-4.55035 22.70584,-9.32676 11.84038,-7.79114 21.29829,-18.04349 34.46403,-37.35895 14.40638,-21.1356 24.21946,-39.55056 43.98979,-82.55 8.22708,-17.89349 11.08839,-24.01459 14.40864,-30.82396 3.0613,-6.27831 3.64369,-7.54063 3.47897,-7.54063 -0.0585,0 -1.81492,1.9943 -3.90324,4.43178 -24.37888,28.45483 -52.91079,54.66124 -87.5434,80.40816 -9.61665,7.14931 -15.38028,11.23022 -33.86666,23.97908 -7.99582,5.5142 -13.800001,9.79989 -17.859379,13.187 -3.311332,2.76295 -9.019503,8.45486 -11.134641,11.10291 -3.388984,4.24287 -5.076862,11.19781 -3.975375,16.38066 0.68316,3.21449 1.762353,5.10281 4.404231,7.70629 5.74235,5.65891 13.951355,9.47417 22.876614,10.63227 2.20101,0.28559 9.42386,0.14792 11.95458,-0.22785 z M 69.199893,349.22574 c -3.186962,-6.74984 -4.777934,-14.79914 -4.484365,-22.68802 0.170066,-4.57002 0.652108,-7.56269 1.790671,-11.11705 3.596185,-11.22655 11.005333,-18.99227 24.820208,-26.0147 5.190649,-2.63853 8.307822,-3.98513 14.984693,-6.47327 37.11696,-13.8317 66.13611,-29.72297 98.425,-53.89884 3.63802,-2.72392 7.49345,-5.62727 8.56763,-6.45188 1.07417,-0.82461 2.01398,-1.43835 2.08846,-1.36387 0.21995,0.21995 -3.05578,3.74921 -10.60059,11.42105 -15.45283,15.71299 -32.13627,30.59058 -50.45863,44.99687 -11.24165,8.83895 -25.09819,18.87841 -46.30208,33.54717 -16.51371,11.42411 -24.521111,17.98507 -31.007033,25.40597 -3.270736,3.74223 -5.302985,8.54746 -5.903814,13.95949 -0.09289,0.83674 -0.260771,1.52135 -0.373058,1.52135 -0.112289,0 -0.808482,-1.27992 -1.547092,-2.84427 z M 6.4726635,185.11792 c 0,-0.3638 0.060053,-0.51263 0.1334521,-0.33073 0.073399,0.18191 0.073399,0.47956 0,0.66146 -0.073399,0.1819 -0.1334521,0.0331 -0.1334521,-0.33073 z m 269.8750065,0 c 0,-0.3638 0.0601,-0.51263 0.13346,-0.33073 0.0734,0.18191 0.0734,0.47956 0,0.66146 -0.0734,0.1819 -0.13346,0.0331 -0.13346,-0.33073 z M 6.6954705,183.53042 c 0,-0.19402 0.079375,-0.2734 0.1763889,-0.17639 0.097014,0.097 0.097014,0.25577 0,0.35278 -0.097014,0.097 -0.1763889,0.0176 -0.1763889,-0.17639 z M 275.78138,182.69724 c -1.09556,-4.27972 -3.75594,-8.18206 -7.277,-10.67416 -1.9685,-1.39324 -2.9669,-1.91107 -5.16307,-2.67783 -1.34476,-0.46951 -1.5467,-0.60227 -0.92604,-0.60881 0.43656,-0.005 1.57148,0.32355 2.52203,0.72922 5.44659,2.32444 10.31931,7.97419 11.10351,12.87414 0.26747,1.67122 0.1266,1.86533 -0.25943,0.35744 z M 6.9827336,182.3398 c -0.010463,-0.99299 1.1981353,-3.85958 2.3515136,-5.5774 1.2426968,-1.85084 3.5809898,-4.21206 5.4225218,-5.47568 1.930172,-1.32445 4.757943,-2.56157 5.829327,-2.55028 0.61699,0.007 0.407466,0.14231 -0.94088,0.60986 -5.762218,1.9981 -10.0545198,6.2904 -12.0526205,12.05262 -0.4675511,1.34834 -0.603361,1.55787 -0.6098619,0.94088 z M 21.600332,168.53737 c 0.09701,-0.097 0.255764,-0.097 0.352778,0 0.09701,0.097 0.01764,0.17639 -0.176389,0.17639 -0.194028,0 -0.273403,-0.0794 -0.176389,-0.17639 z m 239.447918,0 c 0.097,-0.097 0.25577,-0.097 0.35278,0 0.097,0.097 0.0176,0.17639 -0.17639,0.17639 -0.19402,0 -0.2734,-0.0794 -0.17639,-0.17639 z M 23.033492,168.27394 c 0.181901,-0.0734 0.479557,-0.0734 0.661458,0 0.181901,0.0734 0.03307,0.13346 -0.330729,0.13346 -0.363802,0 -0.51263,-0.0601 -0.330729,-0.13346 z m 236.272918,0 c 0.18191,-0.0734 0.47956,-0.0734 0.66146,0 0.1819,0.0734 0.0331,0.13346 -0.33073,0.13346 -0.3638,0 -0.51263,-0.0601 -0.33073,-0.13346 z"
         id="path2196" />
      <path
         style="fill:#005e0e;stroke-width:0.264583"
         d="m 22.967346,438.58279 c -4.984721,-0.972 -9.205206,-3.40765 -12.072855,-6.96721 -1.5861504,-1.96886 -2.6407395,-3.96708 -3.5809653,-6.78515 l -0.7503468,-2.24896 v -119.0625 -119.0625 l 0.7503468,-2.24896 c 2.253248,-6.75349 6.3867873,-10.88703 13.1402783,-13.14028 l 2.248959,-0.75035 H 141.50068 260.2986 l 2.24896,0.75035 c 7.68228,2.56313 12.37086,7.99709 13.78294,15.97411 0.14732,0.83221 0.21479,48.232 0.17023,119.59167 -0.0707,113.33732 -0.0935,118.26761 -0.553,119.53596 -2.14289,5.91591 -4.26887,8.83595 -8.35671,11.47805 -1.46988,0.95004 -2.43905,1.38835 -5.70492,2.58006 -1.27251,0.46434 -5.82949,0.48424 -119.59167,0.52242 -65.047812,0.0217 -118.745001,-0.0532 -119.327084,-0.16671 z m 92.137114,-62.3187 c 9.78692,-1.45322 20.2779,-6.43937 30.10039,-14.30609 3.74718,-3.00108 10.61581,-9.86259 14.26839,-14.25361 9.2949,-11.17403 20.2905,-27.55511 29.57014,-44.05313 8.36467,-14.8713 15.07175,-28.51242 30.05095,-61.11875 5.87723,-12.79342 10.303,-22.2259 14.32857,-30.53802 1.47431,-3.04419 2.64759,-5.62999 2.6073,-5.74621 -0.12858,-0.37086 -0.56267,0.0824 -4.21586,4.40194 -13.8142,16.33395 -30.37309,33.23072 -47.45204,48.42027 -18.2183,16.20285 -38.64785,32.15549 -61.38245,47.93115 -1.89177,1.3127 -7.78537,5.39814 -13.09688,9.07873 -16.026535,11.10554 -21.758169,15.77903 -28.238276,23.02506 -4.163123,4.65519 -5.991839,9.31387 -5.971905,15.21354 0.01696,5.0183 1.322062,7.99417 5.08091,11.58535 5.738638,5.48266 13.243979,9.05524 21.720941,10.33928 3.41105,0.51669 9.22457,0.52612 12.62982,0.0205 z M 71.120043,350.54866 c 0.600829,-5.41203 2.633078,-10.21726 5.903814,-13.95949 6.485922,-7.4209 14.493323,-13.98186 31.007033,-25.40597 21.20389,-14.66876 35.06043,-24.70822 46.30208,-33.54717 18.32236,-14.40629 35.0058,-29.28388 50.45863,-44.99687 7.54481,-7.67184 10.82054,-11.2011 10.60059,-11.42105 -0.0745,-0.0745 -1.01429,0.53926 -2.08846,1.36387 -37.62842,28.88624 -66.96707,45.43513 -106.99263,60.35072 -6.676871,2.48814 -9.794044,3.83474 -14.984693,6.47327 -13.814875,7.02243 -21.224023,14.78815 -24.820208,26.0147 -1.138563,3.55436 -1.620605,6.54703 -1.790671,11.11705 -0.218162,5.86258 0.518586,11.3032 2.328881,17.19792 0.828384,2.69739 3.332631,8.33437 3.702576,8.33437 0.112287,0 0.280165,-0.68461 0.373058,-1.52135 z"
         id="path2194" />
    </g>
  </g>
</svg>
