<?xml version="1.0" encoding="UTF-8" standalone="no"?>
<svg
   xmlns:dc="http://purl.org/dc/elements/1.1/"
   xmlns:cc="http://creativecommons.org/ns#"
   xmlns:rdf="http://www.w3.org/1999/02/22-rdf-syntax-ns#"
   xmlns:svg="http://www.w3.org/2000/svg"
   xmlns="http://www.w3.org/2000/svg"
   xmlns:xlink="http://www.w3.org/1999/xlink"
   xmlns:sodipodi="http://sodipodi.sourceforge.net/DTD/sodipodi-0.dtd"
   xmlns:inkscape="http://www.inkscape.org/namespaces/inkscape"
   width="347mm"
   height="150mm"
   viewBox="0 0 347 150"
   version="1.1"
   id="svg2146"
   inkscape:version="1.0.1 (3bc2e813f5, 2020-09-07)"
   sodipodi:docname="vite.svg">
  <title
     id="title1091">Colored Badge Template</title>
  <defs
     id="defs2140">
    <linearGradient
       inkscape:collect="always"
       id="linearGradient2114">
      <stop
         style="stop-color:#ae17fb;stop-opacity:1"
         offset="0"
         id="stop2110" />
      <stop
         style="stop-color:#5bc6fd;stop-opacity:1"
         offset="1"
         id="stop2112" />
    </linearGradient>
    <linearGradient
       inkscape:collect="always"
       id="linearGradient2974">
      <stop
         style="stop-color:#000000;stop-opacity:1"
         offset="0"
         id="stop2970" />
      <stop
         style="stop-color:#404040;stop-opacity:1"
         offset="1"
         id="stop2972" />
    </linearGradient>
    <linearGradient
       inkscape:collect="always"
       xlink:href="#linearGradient2974"
       id="linearGradient1030"
       gradientUnits="userSpaceOnUse"
       x1="-8.5265128e-14"
       y1="150"
       x2="-8.5265128e-14"
       y2="0"
       gradientTransform="scale(0.70052364,1)" />
    <linearGradient
       inkscape:collect="always"
       xlink:href="#linearGradient2114"
       id="linearGradient1038-4"
       x1="123.3924"
       y1="1.5258789e-05"
       x2="-8.5265128e-14"
       y2="0"
       gradientUnits="userSpaceOnUse"
       gradientTransform="translate(6.8115233e-6)" />
    <linearGradient
       inkscape:collect="always"
       xlink:href="#linearGradient2114"
       id="linearGradient1038-0-4"
       x1="5.7943904e-05"
       y1="-2.7587889e-06"
       x2="-695.62311"
       y2="-1.8017578e-05"
       gradientUnits="userSpaceOnUse"
       gradientTransform="matrix(0.17738398,0,0,1,123.3924,1.8017578e-5)" />
  </defs>
  <sodipodi:namedview
     id="base"
     pagecolor="#ffffff"
     bordercolor="#666666"
     borderopacity="1.0"
     inkscape:pageopacity="0.0"
     inkscape:pageshadow="2"
     inkscape:zoom="0.35484626"
     inkscape:cx="804.10448"
     inkscape:cy="493.58411"
     inkscape:document-units="mm"
     inkscape:current-layer="layer1"
     inkscape:document-rotation="0"
     showgrid="false"
     inkscape:snap-bbox="true"
     inkscape:window-width="1920"
     inkscape:window-height="1017"
     inkscape:window-x="-8"
     inkscape:window-y="-8"
     inkscape:window-maximized="1" />
  <metadata
     id="metadata2143">
    <rdf:RDF>
      <cc:Work
         rdf:about="">
        <dc:format>image/svg+xml</dc:format>
        <dc:type
           rdf:resource="http://purl.org/dc/dcmitype/StillImage" />
        <dc:title>Colored Badge Template</dc:title>
      </cc:Work>
    </rdf:RDF>
  </metadata>
  <g
     inkscape:label="Text Background"
     inkscape:groupmode="layer"
     id="layer1">
    <rect
       style="opacity:0.996;fill:url(#linearGradient1030);fill-opacity:1;stroke-width:4.40834;stroke-linecap:square;paint-order:stroke fill markers"
       id="rect7"
       width="347"
       height="150"
       x="-8.5265128e-14"
       y="0"
       ry="15.000003" />
  </g>
  <g
     inkscape:groupmode="layer"
     id="layer4"
     inkscape:label="Text">
    <text
       xml:space="preserve"
       style="font-style:normal;font-weight:normal;font-size:67.3688px;line-height:1.25;font-family:sans-serif;fill:#ffffff;fill-opacity:1;stroke:none;stroke-width:0.350876"
       x="185"
       y="98.980537"
       id="text13"><tspan
         sodipodi:role="line"
         id="tspan11"
         x="185"
         y="98.980537"
         style="font-size:67.3688px;fill:#ffffff;stroke-width:0.350876">Vite</tspan></text>
  </g>
  <g
     inkscape:groupmode="layer"
     id="layer3"
     inkscape:label="Logo Background" />
  <g
     inkscape:groupmode="layer"
     id="layer2"
     inkscape:label="Logo">
    <rect
       style="opacity:0.996;fill:url(#linearGradient1038-4);fill-opacity:1;stroke-width:2.89838;stroke-linecap:square;paint-order:stroke fill markers"
       id="rect7-3-1"
       width="150"
       height="150"
       x="-8.5265128e-14"
       y="0"
       ry="15" />
    <rect
       style="opacity:0.996;fill:url(#linearGradient1038-0-4);fill-opacity:1;stroke-width:1.22071;stroke-linecap:square;paint-order:stroke fill markers"
       id="rect7-3-0-6"
       width="26.607597"
       height="150"
       x="123.39241"
       y="1.5258789e-05" />
    <g
       id="g2080"
       transform="matrix(1.263453,0,0,1.263453,232.31714,-166.24402)">
      <path
         style="fill:#f6e253;stroke-width:0.264583"
         d="m -122.38232,201.83894 c 0.0127,-0.30823 0.0754,-0.37092 0.15985,-0.15985 0.0764,0.19099 0.067,0.4192 -0.0209,0.50712 -0.0879,0.0879 -0.15045,-0.0684 -0.13896,-0.34727 z m 0.26458,-1.32292 c 0.0127,-0.30822 0.0754,-0.37092 0.15985,-0.15985 0.0764,0.191 0.067,0.4192 -0.0209,0.50712 -0.0879,0.0879 -0.15045,-0.0684 -0.13896,-0.34727 z m 0.28547,-1.16857 c 0,-0.36381 0.06,-0.51263 0.13345,-0.33073 0.0734,0.1819 0.0734,0.47955 0,0.66146 -0.0734,0.1819 -0.13345,0.0331 -0.13345,-0.33073 z m -6.1768,-0.44533 c 0.19099,-0.0764 0.4192,-0.067 0.50712,0.0209 0.0879,0.0879 -0.0684,0.15045 -0.34727,0.13896 -0.30823,-0.0127 -0.37092,-0.0754 -0.15985,-0.15985 z m 1.85208,-0.52916 c 0.191,-0.0764 0.4192,-0.067 0.50712,0.0209 0.0879,0.0879 -0.0683,0.15046 -0.34727,0.13897 -0.30822,-0.0127 -0.37092,-0.0754 -0.15985,-0.15985 z m -2.81903,-0.61301 c 0,-0.36381 0.0601,-0.51263 0.13345,-0.33073 0.0734,0.1819 0.0734,0.47955 0,0.66146 -0.0734,0.1819 -0.13345,0.0331 -0.13345,-0.33073 z m 5.46486,-0.18074 c 0.191,-0.0764 0.4192,-0.067 0.50712,0.0209 0.0879,0.0879 -0.0683,0.15046 -0.34726,0.13897 -0.30823,-0.0127 -0.37092,-0.0754 -0.15986,-0.15985 z m -5.20028,-1.14218 c 0,-0.3638 0.0601,-0.51263 0.13345,-0.33073 0.0734,0.1819 0.0734,0.47956 0,0.66146 -0.0734,0.1819 -0.13345,0.0331 -0.13345,-0.33073 z m 0.26459,-1.32292 c 0,-0.3638 0.0601,-0.51263 0.13345,-0.33073 0.0734,0.18191 0.0734,0.47956 0,0.66146 -0.0734,0.1819 -0.13345,0.0331 -0.13345,-0.33073 z m 0.3803,-1.71979 c 0.0731,-0.58208 0.30017,-1.71318 0.50459,-2.51354 0.28713,-1.12421 0.34143,-1.21449 0.23875,-0.39688 -0.0731,0.58209 -0.30017,1.71318 -0.50459,2.51355 -0.28713,1.12421 -0.34143,1.21448 -0.23875,0.39687 z m 18.11313,-3.37491 c -0.008,-0.10994 2.06725,-4.36183 4.61145,-9.44862 2.70457,-5.40743 4.56095,-9.41781 4.46961,-9.65583 -0.20914,-0.54501 -0.72381,-0.51712 -4.59752,0.24919 -3.87398,0.76636 -4.84045,0.81344 -5.30121,0.25825 -0.39661,-0.47788 -0.49468,-0.0149 1.97798,-9.33805 0.97787,-3.68705 1.737,-6.74466 1.68697,-6.79469 -0.0916,-0.0916 -27.27799,3.83001 -27.40234,3.95279 -0.25744,0.25417 -1.91765,22.79783 -1.91765,26.03933 0,1.5745 0.0233,1.63025 0.68016,1.63025 0.37409,0 2.32902,-0.37361 4.34429,-0.83024 2.01527,-0.45664 3.84454,-0.76102 4.06503,-0.67641 0.6115,0.23466 0.89212,1.02238 0.67813,1.90352 -0.19132,0.78783 -0.19257,0.78677 -0.16739,-0.14231 0.0308,-1.13758 -0.21114,-1.57748 -0.86773,-1.57748 -0.27318,0 -2.00015,0.35719 -3.8377,0.79375 -3.87533,0.9207 -4.7809,0.97926 -5.11396,0.33073 -0.1461,-0.28449 -0.003,-4.39061 0.37048,-10.64948 1.02502,-17.16577 1.14044,-18.60306 1.5247,-18.98732 0.19926,-0.19926 5.95808,-1.43771 13.16359,-2.83088 7.04515,-1.36216 13.28561,-2.58248 13.86769,-2.71183 1.58283,-0.35171 1.98438,-0.18483 1.98438,0.82471 0,0.77636 -1.41013,6.0079 -4.10055,15.21291 -1.2967,4.43656 -1.42097,4.32655 3.79382,3.35829 2.16916,-0.40276 4.21472,-0.69227 4.5457,-0.64335 1.40988,0.20836 1.29494,0.53493 -3.66637,10.41718 -2.62746,5.23353 -4.78366,9.42554 -4.79156,9.31559 z m -17.17052,-1.2553 c 0,-0.3638 0.0601,-0.51263 0.13345,-0.33073 0.0734,0.18191 0.0734,0.47956 0,0.66146 -0.0734,0.1819 -0.13345,0.0331 -0.13345,-0.33073 z"
         id="path2098" />
      <path
         style="fill:#5bc6fd;stroke-width:0.264583"
         d="m -160.41907,168.99259 c -1.88731,-3.31394 -3.50842,-6.23475 -3.60247,-6.49067 -0.24416,-0.6644 0.21087,-1.68465 0.9745,-2.185 0.61919,-0.40571 1.22759,-0.32677 11.19045,1.45186 5.79462,1.03449 10.65473,1.92412 10.80025,1.97696 0.14552,0.0528 -0.86651,0.0779 -2.24896,0.0556 l -2.51354,-0.0404 -3.70416,2.74911 c -2.0373,1.51201 -4.62381,3.41701 -5.74782,4.23333 -2.14521,1.55799 -2.33401,1.91285 -1.78541,3.35578 0.67999,1.78851 -0.17826,0.48522 -3.36284,-5.10662 z"
         id="path2096" />
      <path
         style="fill:#6b9cfc;stroke-width:0.264583"
         d="m -151.09146,185.32993 c -2.73269,-4.79922 -5.25105,-9.41289 -5.59636,-10.25261 -0.99481,-2.41916 -0.92488,-2.63307 1.417,-4.33389 1.12401,-0.81632 3.71052,-2.72132 5.74782,-4.23333 l 3.70416,-2.74911 2.54292,0.0591 c 2.35822,0.0548 7.29205,0.69186 7.57878,0.97859 0.17132,0.17131 -0.68764,13.69355 -0.88219,13.8881 -0.0855,0.0855 -0.25951,0.15548 -0.38666,0.15548 -0.2172,0 -1.64999,1.03035 -8.91899,6.41383 -1.63711,1.21246 -2.97657,2.36109 -2.97657,2.55252 0,0.19143 0.65142,1.67536 1.4476,3.29762 0.79618,1.62227 1.41236,2.94957 1.3693,2.94957 -0.0431,0 -2.31412,-3.92663 -5.04681,-8.72585 z m 43.43877,-21.61188 c 0.1819,-0.0734 0.47955,-0.0734 0.66146,0 0.1819,0.0734 0.0331,0.13345 -0.33073,0.13345 -0.36381,0 -0.51263,-0.06 -0.33073,-0.13345 z m 1.60403,-0.27009 c 0.191,-0.0764 0.4192,-0.067 0.50712,0.0209 0.0879,0.0879 -0.0683,0.15046 -0.34726,0.13897 -0.30823,-0.0127 -0.37092,-0.0754 -0.15986,-0.15985 z m 1.32292,-0.26459 c 0.191,-0.0764 0.4192,-0.067 0.50712,0.0209 0.0879,0.0879 -0.0683,0.15045 -0.34727,0.13897 -0.30822,-0.0127 -0.37092,-0.0754 -0.15985,-0.15986 z"
         id="path2094" />
      <path
         style="fill:#f6d52a;stroke-width:0.264583"
         d="m -126.88024,188.34519 c 0.0127,-0.30823 0.0754,-0.37092 0.15985,-0.15985 0.0764,0.19099 0.067,0.4192 -0.0209,0.50712 -0.0879,0.0879 -0.15045,-0.0684 -0.13896,-0.34727 z m 0.26458,-1.32292 c 0.0127,-0.30822 0.0754,-0.37092 0.15985,-0.15985 0.0764,0.191 0.067,0.4192 -0.0209,0.50712 -0.0879,0.0879 -0.15046,-0.0684 -0.13897,-0.34727 z m -0.25891,-1.24675 c -0.33468,-0.5573 -0.32904,-0.56294 0.12656,-0.12656 0.26226,0.2512 0.41989,0.51367 0.35028,0.58328 -0.0696,0.0696 -0.28418,-0.13592 -0.47684,-0.45672 z m -4.57409,0.16202 c 0.191,-0.0764 0.4192,-0.067 0.50712,0.0209 0.0879,0.0879 -0.0684,0.15045 -0.34726,0.13896 -0.30823,-0.0127 -0.37092,-0.0754 -0.15986,-0.15985 z m 1.05834,-0.26458 c 0.19099,-0.0764 0.4192,-0.067 0.50712,0.0209 0.0879,0.0879 -0.0684,0.15046 -0.34727,0.13897 -0.30823,-0.0127 -0.37092,-0.0754 -0.15985,-0.15985 z m 2.38125,-0.52917 c 0.19099,-0.0764 0.4192,-0.067 0.50712,0.0209 0.0879,0.0879 -0.0684,0.15045 -0.34727,0.13896 -0.30823,-0.0127 -0.37092,-0.0754 -0.15985,-0.15985 z m -8.33777,-1.93593 c 0,-0.80036 0.0496,-1.12778 0.11022,-0.7276 0.0606,0.40018 0.0606,1.05503 0,1.45521 -0.0606,0.40018 -0.11022,0.0728 -0.11022,-0.72761 z m 0.22595,-3.04271 c -0.0682,-1.62576 1.40146,-20.71434 1.61073,-20.92103 0.12543,-0.12387 27.31159,-4.0469 27.40402,-3.95446 0.05,0.05 -0.7091,3.10764 -1.68697,6.79469 -2.47266,9.32317 -2.37459,8.86017 -1.97798,9.33805 0.46076,0.55519 1.42723,0.50811 5.30121,-0.25825 3.87669,-0.7669 4.38832,-0.79436 4.59843,-0.24682 0.0868,0.22627 -0.36801,1.4396 -1.01664,2.71198 -1.46593,2.87565 -1.56677,2.70231 -0.14196,-0.24402 0.66155,-1.36799 0.9652,-2.2824 0.80959,-2.43801 -0.15561,-0.1556 -1.61943,0.0135 -3.90286,0.45092 -5.06392,0.97001 -6.16739,0.90099 -6.16739,-0.38578 0,-0.24637 -0.17161,-0.51379 -0.38135,-0.59428 -0.20974,-0.0805 -2.26357,0.1384 -4.56407,0.48641 -2.30049,0.34801 -6.32583,0.94244 -8.94521,1.32095 -2.61937,0.37851 -5.88617,0.85449 -7.25954,1.05772 -1.37337,0.20323 -2.59376,0.30973 -2.71198,0.23667 -0.11821,-0.0731 -0.22382,0.023 -0.23469,0.2135 -0.0959,1.68124 -0.70758,7.04612 -0.73334,6.43176 z"
         id="path2092" />
      <path
         style="fill:#876bfb;stroke-width:0.264583"
         d="m -134.04488,215.48703 c -0.15576,-0.29104 -0.22367,-0.52917 -0.15091,-0.52917 0.0728,0 0.25973,0.23813 0.41549,0.52917 0.15576,0.29104 0.22367,0.52917 0.15091,0.52917 -0.0728,0 -0.25973,-0.23813 -0.41549,-0.52917 z m -1.5875,-2.91042 c -0.29696,-0.58208 -0.48039,-1.05833 -0.40763,-1.05833 0.0728,0 0.37526,0.47625 0.67221,1.05833 0.29696,0.58209 0.48039,1.05834 0.40763,1.05834 -0.0728,0 -0.37525,-0.47625 -0.67221,-1.05834 z m -4.38699,-7.73906 c -3.9606,-6.96217 -8.84218,-16.33472 -8.84218,-16.97685 0,-0.22009 1.33946,-1.39217 2.97657,-2.60463 7.45699,-5.52271 8.66724,-6.38312 9.05946,-6.44068 0.3686,-0.0541 0.39956,0.30561 0.26043,3.02543 -0.0868,1.69776 -0.21305,3.35717 -0.28046,3.68758 -0.19137,0.93805 0.3281,1.64821 1.20562,1.64821 0.42217,0 2.27104,-0.35718 4.10859,-0.79375 1.83755,-0.43656 3.56736,-0.79375 3.84401,-0.79375 0.98763,0 1.01377,0.77258 0.16742,4.94949 -0.44838,2.21289 -0.86308,3.9756 -0.92155,3.91713 -0.0585,-0.0585 0.0424,-1.10569 0.22411,-2.32716 0.18172,-1.22147 0.28065,-2.37011 0.21985,-2.55253 -0.0692,-0.20746 -1.09835,0.40475 -2.74824,1.63478 -2.67142,1.99159 -6.94564,5.14697 -9.70465,7.16431 -0.83089,0.60754 -1.5155,1.27333 -1.52135,1.47955 -0.01,0.3451 2.51979,5.33241 4.8758,9.61308 0.54063,0.98226 0.92527,1.78594 0.85476,1.78594 -0.0705,0 -1.7707,-2.88727 -3.77819,-6.41615 z m 11.04335,-8.13594 c 0,-0.3638 0.0601,-0.51263 0.13345,-0.33073 0.0734,0.18191 0.0734,0.47956 0,0.66146 -0.0734,0.1819 -0.13345,0.0331 -0.13345,-0.33073 z m 0.26458,-1.32291 c 0,-0.36381 0.0601,-0.51263 0.13345,-0.33073 0.0734,0.1819 0.0734,0.47955 0,0.66146 -0.0734,0.1819 -0.13345,0.0331 -0.13345,-0.33073 z m 27.47489,-3.96875 c 0.15576,-0.29105 0.34274,-0.52917 0.4155,-0.52917 0.0728,0 0.005,0.23812 -0.15091,0.52917 -0.15576,0.29104 -0.34274,0.52916 -0.4155,0.52916 -0.0728,0 -0.005,-0.23812 0.15091,-0.52916 z m 1.32292,-2.38125 c 0.15576,-0.29105 0.342733,-0.52917 0.415494,-0.52917 0.07276,0 0.0048,0.23812 -0.150911,0.52917 -0.15576,0.29104 -0.342733,0.52916 -0.415493,0.52916 -0.0728,0 -0.005,-0.23812 0.15091,-0.52916 z m 1.455208,-2.64584 c 0.225756,-0.43656 0.469996,-0.79375 0.542756,-0.79375 0.07276,0 -0.05242,0.35719 -0.278172,0.79375 -0.225756,0.43657 -0.469996,0.79375 -0.542756,0.79375 -0.07276,0 0.05242,-0.35718 0.278172,-0.79375 z m 1.455209,-2.64583 c 0.296957,-0.58208 0.599453,-1.05833 0.672213,-1.05833 0.07276,0 -0.110672,0.47625 -0.40763,1.05833 -0.296958,0.58208 -0.599453,1.05833 -0.672214,1.05833 -0.07276,0 0.110673,-0.47625 0.407631,-1.05833 z m -6.321847,-6.67084 c 3.06192,-6.119 3.18608,-6.57908 1.82957,-6.77955 -0.33098,-0.0489 -2.37654,0.24059 -4.5457,0.64335 -5.20856,0.96711 -5.08461,1.07529 -3.81614,-3.3307 0.51524,-1.78968 0.97723,-3.2944 1.02665,-3.34382 0.16588,-0.16589 21.438623,-4.33094 22.119994,-4.33094 0.417531,0 1.618176,1.10166 1.467083,1.34613 -0.08343,0.13499 -0.33119,0.0659 -0.550588,-0.15348 -0.527825,-0.52782 -2.194189,-0.50641 -3.596896,0.0462 -0.621409,0.24482 -2.260928,1.27903 -3.643376,2.29824 -1.382448,1.01921 -3.644636,2.68655 -5.027084,3.7052 -1.382448,1.01864 -2.596813,1.97601 -2.698593,2.12748 -0.10178,0.15148 -0.0125,0.46609 0.19844,0.69916 0.21092,0.23306 0.38349,0.69047 0.38349,1.01646 0,0.53431 -5.7083,11.93333 -5.97587,11.93333 -0.0615,0 1.21154,-2.64469 2.82902,-5.87709 z m 7.454517,4.68646 c 2.089164,-4.08222 10.495177,-19.15361 10.593324,-18.99308 0.116158,0.18997 -10.340586,19.16614 -10.799765,19.59866 -0.109879,0.1035 -0.01699,-0.16901 0.206441,-0.60558 z"
         id="path2090" />
      <path
         style="fill:#944efb;stroke-width:0.264583"
         d="m -123.19696,230.2038 c 0,-0.0549 0.20836,-0.2633 0.46302,-0.46302 0.41964,-0.32911 0.429,-0.31975 0.0999,0.0999 -0.34564,0.44073 -0.56291,0.58088 -0.56291,0.36312 z m -2.57833,-0.49542 c -0.37432,-0.47273 -0.9012,-1.52135 -0.76441,-1.52135 0.0635,0 0.36134,0.41672 0.66185,0.92604 0.54604,0.92547 0.59667,1.21934 0.10256,0.59531 z m 3.90124,-1.52135 c 0.29696,-0.58208 0.59946,-1.05833 0.67222,-1.05833 0.0728,0 -0.11068,0.47625 -0.40763,1.05833 -0.29696,0.58208 -0.59946,1.05833 -0.67222,1.05833 -0.0728,0 0.11068,-0.47625 0.40763,-1.05833 z m -5.42396,-1.05833 c -0.22575,-0.43657 -0.35093,-0.79375 -0.27817,-0.79375 0.0728,0 0.317,0.35718 0.54276,0.79375 0.22575,0.43656 0.35093,0.79375 0.27817,0.79375 -0.0728,0 -0.317,-0.35719 -0.54276,-0.79375 z m 6.61459,-1.05834 c 0.22575,-0.43656 0.46999,-0.79375 0.54275,-0.79375 0.0728,0 -0.0524,0.35719 -0.27817,0.79375 -0.22575,0.43657 -0.46999,0.79375 -0.54275,0.79375 -0.0728,0 0.0524,-0.35718 0.27817,-0.79375 z m -7.67292,-0.79375 c -0.22575,-0.43656 -0.35093,-0.79375 -0.27817,-0.79375 0.0728,0 0.317,0.35719 0.54276,0.79375 0.22575,0.43657 0.35093,0.79375 0.27817,0.79375 -0.0728,0 -0.317,-0.35718 -0.54276,-0.79375 z m 8.99583,-1.5875 c 0.22576,-0.43656 0.47,-0.79375 0.54276,-0.79375 0.0728,0 -0.0524,0.35719 -0.27817,0.79375 -0.22576,0.43657 -0.47,0.79375 -0.54276,0.79375 -0.0728,0 0.0524,-0.35718 0.27817,-0.79375 z m -10.05416,-0.26458 c -0.22576,-0.43656 -0.35093,-0.79375 -0.27817,-0.79375 0.0728,0 0.317,0.35719 0.54275,0.79375 0.22576,0.43656 0.35093,0.79375 0.27817,0.79375 -0.0728,0 -0.317,-0.35719 -0.54275,-0.79375 z m 11.24479,-1.85208 c 0.29696,-0.58209 0.59945,-1.05834 0.67221,-1.05834 0.0728,0 -0.11067,0.47625 -0.40763,1.05834 -0.29695,0.58208 -0.59945,1.05833 -0.67221,1.05833 -0.0728,0 0.11067,-0.47625 0.40763,-1.05833 z m -12.30312,0 c -0.22576,-0.43657 -0.35094,-0.79375 -0.27818,-0.79375 0.0728,0 0.317,0.35718 0.54276,0.79375 0.22575,0.43656 0.35093,0.79375 0.27817,0.79375 -0.0728,0 -0.317,-0.35719 -0.54275,-0.79375 z m -4.38705,-8.00365 c -5.10759,-9.38371 -7.12439,-13.27385 -7.11169,-13.7175 0.006,-0.20436 0.69046,-0.86863 1.52135,-1.47617 2.86114,-2.09201 7.07301,-5.20238 9.7128,-7.17267 3.15862,-2.35753 3.08379,-2.44715 2.24468,2.68836 -0.8772,5.36861 -0.70848,5.67556 2.57123,4.67797 2.95285,-0.89818 3.68357,-0.96645 3.98195,-0.37205 0.17106,0.3408 -0.0946,2.13507 -0.8755,5.91321 -1.1754,5.68672 -1.45533,6.49588 -0.76662,2.21593 0.22488,-1.39747 0.37232,-2.6505 0.32765,-2.78451 -0.0797,-0.23898 -10.06048,6.93233 -11.27865,8.10381 l -0.62027,0.59649 2.14001,4.13622 c 1.177,2.27492 2.09353,4.13622 2.03671,4.13622 -0.0568,0 -1.80445,-3.12539 -3.88365,-6.94531 z m 18.01309,5.6224 c 0.29695,-0.58209 0.59945,-1.05834 0.67221,-1.05834 0.0728,0 -0.11067,0.47625 -0.40763,1.05834 -0.29696,0.58208 -0.59945,1.05833 -0.67221,1.05833 -0.0728,0 0.11067,-0.47625 0.40763,-1.05833 z m 1.19062,-2.11667 c 0.22576,-0.43656 0.47,-0.79375 0.54276,-0.79375 0.0728,0 -0.0524,0.35719 -0.27818,0.79375 -0.22575,0.43656 -0.46999,0.79375 -0.54275,0.79375 -0.0728,0 0.0524,-0.35719 0.27817,-0.79375 z m 1.32292,-2.38125 c 0.22575,-0.43656 0.46999,-0.79375 0.54275,-0.79375 0.0728,0 -0.0524,0.35719 -0.27817,0.79375 -0.22575,0.43656 -0.46999,0.79375 -0.54275,0.79375 -0.0728,0 0.0524,-0.35719 0.27817,-0.79375 z m 1.19062,-2.11667 c 0.29696,-0.58208 0.59946,-1.05833 0.67222,-1.05833 0.0728,0 -0.11068,0.47625 -0.40763,1.05833 -0.29696,0.58209 -0.59946,1.05834 -0.67222,1.05834 -0.0728,0 0.11068,-0.47625 0.40763,-1.05834 z m -11.62077,0.11025 c 0.0127,-0.30823 0.0754,-0.37092 0.15985,-0.15986 0.0764,0.191 0.067,0.4192 -0.0209,0.50712 -0.0879,0.0879 -0.15045,-0.0684 -0.13896,-0.34726 z m 0.28547,-1.16858 c 0,-0.3638 0.0601,-0.51263 0.13345,-0.33073 0.0734,0.1819 0.0734,0.47956 0,0.66146 -0.0734,0.1819 -0.13345,0.0331 -0.13345,-0.33073 z m 12.65822,-1.32292 c 0.29696,-0.58208 0.59945,-1.05833 0.67221,-1.05833 0.0728,0 -0.11067,0.47625 -0.40763,1.05833 -0.29695,0.58209 -0.59945,1.05834 -0.67221,1.05834 -0.0728,0 0.11067,-0.47625 0.40763,-1.05834 z m -12.39364,0 c 0,-0.3638 0.0601,-0.51263 0.13345,-0.33073 0.0734,0.18191 0.0734,0.47956 0,0.66146 -0.0734,0.1819 -0.13345,0.0331 -0.13345,-0.33073 z m 13.58426,-2.11666 c 0.22576,-0.43657 0.47,-0.79375 0.54276,-0.79375 0.0728,0 -0.0524,0.35718 -0.27817,0.79375 -0.22576,0.43656 -0.47,0.79375 -0.54276,0.79375 -0.0728,0 0.0524,-0.35719 0.27817,-0.79375 z m 1.32292,-2.38125 c 0.22576,-0.43657 0.47,-0.79375 0.54276,-0.79375 0.0728,0 -0.0524,0.35718 -0.27817,0.79375 -0.22576,0.43656 -0.47,0.79375 -0.54276,0.79375 -0.0728,0 0.0524,-0.35719 0.27817,-0.79375 z m -5.12963,-6.41615 c 1.61836,-3.23784 5.48841,-10.78548 8.60011,-16.77254 3.11171,-5.98706 5.65765,-11.1569 5.65765,-11.48854 0,-0.33164 -0.17257,-0.79367 -0.38349,-1.02673 -0.21092,-0.23307 -0.30022,-0.54768 -0.19844,-0.69916 0.10178,-0.15147 1.345911,-1.13101 2.764739,-2.17677 1.418828,-1.04575 3.681016,-2.71309 5.027084,-3.70519 1.346067,-0.9921 2.955821,-2.00414 3.57723,-2.24896 1.388345,-0.54698 3.067616,-0.57551 3.582268,-0.0608 0.211351,0.21135 0.457983,0.31057 0.548065,0.22048 0.09009,-0.0901 0.163791,0.22027 0.163791,0.68967 0,0.46941 -0.09944,0.79201 -0.220983,0.71689 -0.121542,-0.0751 -0.42056,0.28195 -0.66449,0.79347 -0.831131,1.7429 -19.294864,35.42643 -19.564734,35.69208 -0.14783,0.14553 0.33849,-0.87671 1.08071,-2.27162 4.04532,-7.60278 5.639931,-10.71546 5.784447,-11.29125 0.180657,-0.7198 0.625512,-1.00054 -4.935787,3.11483 -4.90688,3.63111 -6.66365,4.89501 -7.1583,5.15002 -0.47337,0.24403 -3.29003,5.1243 -5.38654,9.33292 -0.52556,1.05503 -1.01411,1.91823 -1.08568,1.91823 -0.0716,0 1.194,-2.64914 2.81235,-5.88698 z m 6.58484,3.77031 c 0.29696,-0.58208 0.59945,-1.05833 0.67221,-1.05833 0.0728,0 -0.11067,0.47625 -0.40763,1.05833 -0.29695,0.58209 -0.59945,1.05834 -0.67221,1.05834 -0.0728,0 0.11067,-0.47625 0.40763,-1.05834 z m 1.32292,-2.38125 c 0.29695,-0.58208 0.59945,-1.05833 0.67221,-1.05833 0.0728,0 -0.11067,0.47625 -0.40763,1.05833 -0.29696,0.58209 -0.59945,1.05834 -0.67221,1.05834 -0.0728,0 0.11067,-0.47625 0.40763,-1.05834 z"
         id="path2088" />
      <path
         style="fill:#f6c718;stroke-width:0.264583"
         d="m -127.06108,189.88859 c 0.82147,-2.71125 0.83876,-3.92465 0.0631,-4.43285 -0.57933,-0.37959 -0.92684,-0.33947 -4.66393,0.53843 -2.22088,0.52173 -4.21369,0.88116 -4.42846,0.79874 -0.41479,-0.15917 -0.41583,-0.12106 0.20556,-7.5538 0.39634,-4.74089 0.5407,-5.83739 0.7514,-5.70718 0.1075,0.0664 1.31912,-0.0455 2.69249,-0.24871 1.37337,-0.20323 4.64017,-0.67921 7.25954,-1.05772 2.61938,-0.37851 6.64472,-0.97294 8.94521,-1.32095 2.3005,-0.34801 4.35433,-0.56689 4.56407,-0.48641 0.20974,0.0805 0.38135,0.34791 0.38135,0.59428 0,1.28677 1.10347,1.35579 6.16739,0.38578 2.27409,-0.43561 3.74755,-0.60623 3.90196,-0.45181 0.35733,0.35733 -7.05428,15.74482 -8.00869,16.6271 -0.1954,0.18063 -0.23055,0.16545 -0.11079,-0.0479 0.32423,-0.57749 -0.32364,-0.63145 -2.79718,-0.23299 -2.72384,0.43878 -6.82545,1.03365 -11.05894,1.60391 -2.18968,0.29495 -2.87118,0.48869 -3.21741,0.91464 -0.53871,0.66273 -0.8348,0.69817 -0.64671,0.0774 z"
         id="path2086" />
      <path
         style="fill:#ae17fb;stroke-width:0.264583"
         d="m -124.81261,230.39321 c -0.46624,-0.1247 -5.45572,-8.67908 -8.43622,-14.46372 -1.50132,-2.91381 -1.82181,-3.73478 -1.5744,-4.0329 0.27351,-0.32955 10.39373,-7.86159 11.32502,-8.42871 0.45329,-0.27604 0.32805,0.76082 -0.91393,7.56587 -0.49582,2.71668 -0.90149,5.18304 -0.90149,5.48079 0,0.71273 0.89199,1.1968 1.55323,0.84291 0.2722,-0.14567 2.36733,-3.9301 4.65586,-8.40983 5.2841,-10.3435 7.70283,-14.70736 8.33162,-15.03187 0.49176,-0.25378 2.25626,-1.52347 7.15512,-5.14864 5.564236,-4.11754 5.116582,-3.83518 4.935308,-3.11293 -0.486841,1.93973 -23.242488,43.22366 -24.428448,44.31879 -0.63595,0.58723 -0.86545,0.64391 -1.70167,0.42024 z"
         id="path2084" />
      <path
         style="fill:#f4b40f;stroke-width:0.264583"
         d="m -125.04174,216.95104 c -0.25817,-0.31107 0.0504,-2.11558 1.5551,-9.09422 1.03245,-4.78838 1.87718,-8.93572 1.87718,-9.2163 0,-0.6644 -0.49706,-1.14617 -1.1774,-1.14119 -0.29832,0.002 -1.4949,0.29983 -2.65906,0.66143 -2.47242,0.76795 -3.00177,0.80748 -3.21937,0.24044 -0.18628,-0.48545 1.1739,-6.9645 1.56492,-7.45427 0.14522,-0.18191 0.18511,-0.33073 0.0886,-0.33073 -0.0965,0 0.10601,-0.30349 0.44995,-0.67442 0.53351,-0.57536 1.03055,-0.72913 3.38415,-1.04693 4.26454,-0.57584 8.33933,-1.16723 11.03961,-1.60221 2.38938,-0.3849 3.13415,-0.34085 2.82038,0.16684 -0.0837,0.13546 -0.0881,0.2463 -0.01,0.2463 0.0784,0 0.38549,-0.47625 0.68245,-1.05833 0.29696,-0.58209 0.59155,-1.05834 0.65466,-1.05834 0.24843,0 -14.44467,29.88602 -15.24722,31.01309 -0.57641,0.8095 -1.30507,0.95038 -1.8043,0.34884 z"
         id="path2082" />
    </g>
  </g>
</svg>
