<?xml version="1.0" encoding="UTF-8" standalone="no"?>
<svg
   xmlns:dc="http://purl.org/dc/elements/1.1/"
   xmlns:cc="http://creativecommons.org/ns#"
   xmlns:rdf="http://www.w3.org/1999/02/22-rdf-syntax-ns#"
   xmlns:svg="http://www.w3.org/2000/svg"
   xmlns="http://www.w3.org/2000/svg"
   xmlns:xlink="http://www.w3.org/1999/xlink"
   xmlns:sodipodi="http://sodipodi.sourceforge.net/DTD/sodipodi-0.dtd"
   xmlns:inkscape="http://www.inkscape.org/namespaces/inkscape"
   width="365mm"
   height="150mm"
   viewBox="0 0 365 150"
   version="1.1"
   id="svg2146"
   inkscape:version="1.0.1 (3bc2e813f5, 2020-09-07)"
   sodipodi:docname="cpp.svg">
  <title
     id="title1091">Colored Badge Template</title>
  <defs
     id="defs2140">
    <linearGradient
       inkscape:collect="always"
       id="linearGradient1785">
      <stop
         style="stop-color:#0e3c80;stop-opacity:1"
         offset="0"
         id="stop1781" />
      <stop
         style="stop-color:#6892cd;stop-opacity:1"
         offset="1"
         id="stop1783" />
    </linearGradient>
    <linearGradient
       inkscape:collect="always"
       id="Text_Background_Gradient-7">
      <stop
         style="stop-color:#000000;stop-opacity:1"
         offset="0"
         id="stop1022" />
      <stop
         style="stop-color:#404040;stop-opacity:1"
         offset="1"
         id="stop1024" />
    </linearGradient>
    <linearGradient
       inkscape:collect="always"
       xlink:href="#Text_Background_Gradient-7"
       id="linearGradient1030"
       gradientUnits="userSpaceOnUse"
       x1="-8.5265128e-14"
       y1="150"
       x2="-8.5265128e-14"
       y2="0"
       gradientTransform="scale(0.73686207,0.99999996)" />
    <linearGradient
       inkscape:collect="always"
       xlink:href="#linearGradient1785"
       id="linearGradient1038"
       x1="-8.5265128e-14"
       y1="150"
       x2="-8.5265128e-14"
       y2="0"
       gradientUnits="userSpaceOnUse" />
    <linearGradient
       inkscape:collect="always"
       xlink:href="#linearGradient1785"
       id="linearGradient1038-0"
       x1="-8.5265128e-14"
       y1="150"
       x2="-8.5265128e-14"
       y2="0"
       gradientUnits="userSpaceOnUse"
       gradientTransform="matrix(0.17738398,0,0,1,123.3924,0)" />
  </defs>
  <sodipodi:namedview
     id="base"
     pagecolor="#ffffff"
     bordercolor="#666666"
     borderopacity="1.0"
     inkscape:pageopacity="0.0"
     inkscape:pageshadow="2"
     inkscape:zoom="0.31512336"
     inkscape:cx="33.242033"
     inkscape:cy="582.33292"
     inkscape:document-units="mm"
     inkscape:current-layer="layer1"
     inkscape:document-rotation="0"
     showgrid="false"
     inkscape:snap-bbox="true"
     inkscape:window-width="1920"
     inkscape:window-height="1017"
     inkscape:window-x="-8"
     inkscape:window-y="-8"
     inkscape:window-maximized="1" />
  <metadata
     id="metadata2143">
    <rdf:RDF>
      <cc:Work
         rdf:about="">
        <dc:format>image/svg+xml</dc:format>
        <dc:type
           rdf:resource="http://purl.org/dc/dcmitype/StillImage" />
        <dc:title>Colored Badge Template</dc:title>
      </cc:Work>
    </rdf:RDF>
  </metadata>
  <g
     inkscape:label="Text Background"
     inkscape:groupmode="layer"
     id="layer1">
    <rect
       style="opacity:0.996;fill:url(#linearGradient1030);fill-opacity:1;stroke-width:4.52122;stroke-linecap:square;paint-order:stroke fill markers"
       id="rect7"
       width="365"
       height="150"
       x="-8.5265128e-14"
       y="0"
       ry="15" />
  </g>
  <g
     inkscape:groupmode="layer"
     id="layer4"
     inkscape:label="Text" />
  <g
     inkscape:groupmode="layer"
     id="layer3"
     inkscape:label="Logo Background">
    <rect
       style="opacity:0.996;fill:url(#linearGradient1038);fill-opacity:1;stroke-width:2.89838;stroke-linecap:square;paint-order:stroke fill markers"
       id="rect7-3"
       width="150"
       height="150"
       x="-8.6153307e-14"
       y="2.8421709e-14"
       ry="15" />
    <rect
       style="opacity:0.996;fill:url(#linearGradient1038-0);fill-opacity:1;stroke-width:1.22071;stroke-linecap:square;paint-order:stroke fill markers"
       id="rect7-3-0"
       width="26.607597"
       height="150"
       x="123.3924"
       y="0" />
    <text
       xml:space="preserve"
       style="font-style:normal;font-weight:normal;font-size:66.3642px;line-height:1.25;font-family:sans-serif;fill:#ffffff;fill-opacity:1;stroke:none;stroke-width:0.345644"
       x="181.2737"
       y="99.125061"
       id="text13-4"><tspan
         sodipodi:role="line"
         id="tspan11-5"
         x="181.2737"
         y="99.125061"
         style="font-size:66.3642px;fill:#ffffff;stroke-width:0.345644">C++</tspan></text>
  </g>
  <g
     inkscape:groupmode="layer"
     id="layer2"
     inkscape:label="Logo">
    <circle
       style="opacity:0.996;fill:#ffffff;fill-opacity:1;stroke-width:2.90271;stroke-linecap:square;paint-order:stroke fill markers"
       id="path1752"
       cx="77.199097"
       cy="75.082428"
       r="41.140766" />
    <g
       id="g1769"
       transform="matrix(1.0986528,0,0,1.0986476,-8.4402655,-183.20496)">
      <path
         style="fill:#6892cd;stroke-width:0.264583"
         d="m 76.046932,280.35484 c 0.09701,-0.097 0.255765,-0.097 0.352779,0 0.09701,0.097 0.01764,0.17639 -0.176389,0.17639 -0.194027,0 -0.273402,-0.0794 -0.17639,-0.17639 z m 3.704167,0 c 0.09701,-0.097 0.255764,-0.097 0.352779,0 0.09701,0.097 0.01764,0.17639 -0.17639,0.17639 -0.194027,0 -0.273402,-0.0794 -0.176389,-0.17639 z m -4.982986,-0.33968 c -1.565661,-0.64484 -34.263274,-19.75309 -34.975216,-20.43926 -0.46418,-0.44739 -1.119024,-1.48163 -1.455208,-2.29832 l -0.611243,-1.48489 V 234.8906 213.98852 l 0.821657,-1.44863 c 0.451912,-0.79674 1.225818,-1.77228 1.719792,-2.16786 0.493974,-0.39558 8.555684,-5.1392 17.914911,-10.54137 18.512929,-10.68571 18.555342,-10.70583 21.338404,-10.12208 2.103771,0.44127 35.17993,19.49809 36.95127,21.28946 1.17943,1.19277 2.07749,2.85819 1.54125,2.85819 -0.13796,0 -0.25082,-0.18233 -0.25082,-0.40518 0,-0.22285 -0.17744,-0.47327 -0.39432,-0.55649 -0.36964,-0.14185 -14.67458,7.87421 -15.87756,8.8973 -0.63845,0.54298 -11.596087,6.88103 -11.896375,6.88103 -0.116237,0 -2.844917,1.5069 -6.063732,3.34866 -11.98462,6.85741 -16.43837,9.41731 -16.533649,9.50311 -0.330515,0.29762 0.423545,1.57155 1.665163,2.81317 2.563842,2.56384 5.801363,3.90795 9.412968,3.90795 4.377542,0 8.081584,-1.90921 11.000703,-5.67019 l 0.812067,-1.04627 5.404554,3.12323 c 2.972504,1.71778 5.618071,3.32817 5.879041,3.57863 0.45468,0.43638 0.4307,0.52088 -0.57446,2.02408 -3.561535,5.32618 -9.367075,9.4217 -15.793916,11.14181 -2.308418,0.61784 -3.124216,0.70309 -6.727989,0.70309 -3.603773,0 -4.419571,-0.0853 -6.727989,-0.70309 -6.367823,-1.70432 -11.768716,-5.47211 -15.659341,-10.92433 -1.100455,-1.54215 -1.253071,-1.6611 -1.777513,-1.3854 -0.315535,0.16588 -3.758621,2.14021 -7.651304,4.38739 -4.915935,2.8379 -7.077604,4.22422 -7.077604,4.53904 0,0.24928 0.386953,0.82358 0.859896,1.27622 0.472943,0.45264 8.539427,5.25005 17.925521,10.66091 17.086417,9.84992 18.859612,10.91211 16.801042,10.06426 z m 10.57488,-19.17489 c 4.819299,-1.4483 9.38062,-4.24574 12.445964,-7.63306 1.876274,-2.07335 3.434013,-4.40491 3.136373,-4.6944 -0.29301,-0.28499 -10.760747,-6.34616 -10.959925,-6.34616 -0.08249,0 -0.558785,0.5456 -1.058429,1.21244 -2.525837,3.37107 -6.411521,5.25708 -10.831571,5.25738 -3.147452,2.1e-4 -5.299324,-0.68086 -7.85087,-2.48482 -4.760585,-3.36575 -6.79412,-9.84439 -4.856721,-15.47302 2.077926,-6.0369 8.572915,-9.94372 14.783941,-8.89275 3.049804,0.51606 5.712227,1.98828 7.910949,4.37447 l 1.811025,1.96543 5.606024,-3.23217 c 3.083311,-1.7777 5.607907,-3.39565 5.610207,-3.59545 0.007,-0.60199 -2.275783,-3.60557 -4.152851,-5.46426 -9.019386,-8.93106 -23.150915,-10.26865 -33.778612,-3.19722 -9.950957,6.62114 -14.39663,19.12588 -10.82546,30.44975 2.407693,7.63458 8.811786,14.28832 16.427251,17.06762 3.686384,1.34536 5.310889,1.58782 9.976575,1.48898 3.672769,-0.0778 4.547532,-0.18411 6.60613,-0.80276 z m -4.489463,19.20886 c 0.145521,-0.13795 7.944115,-4.67912 17.330209,-10.0915 9.386091,-5.41239 17.404151,-10.15881 17.817901,-10.54761 0.41375,-0.3888 1.04083,-1.27246 1.39352,-1.96369 0.7411,-1.45247 0.95989,-1.60517 0.62453,-0.43584 -0.29595,1.03194 -1.33929,2.41275 -2.44724,3.23879 -1.06932,0.79724 -33.416895,19.45965 -34.319926,19.80032 -0.418121,0.15774 -0.565708,0.15756 -0.398994,-5.3e-4 z m 37.45943,-24.80766 c 0.0127,-0.30822 0.0754,-0.37092 0.15985,-0.15985 0.0764,0.19099 0.067,0.4192 -0.0209,0.50712 -0.0879,0.0879 -0.15046,-0.0684 -0.13897,-0.34727 z M 98.873505,239.36688 c -0.08833,-0.23018 -0.160599,-0.88503 -0.160599,-1.45521 0,-1.02948 -0.0072,-1.03669 -1.036694,-1.03669 -1.709518,0 -1.873723,-0.15238 -1.873723,-1.73879 0,-1.61172 0.353951,-1.96538 1.966981,-1.96538 0.935257,0 0.943436,-0.01 0.943436,-1.13771 0,-1.44566 0.341688,-1.77271 1.852084,-1.77271 1.51039,0 1.85208,0.32705 1.85208,1.77271 0,1.12785 0.008,1.13771 0.94344,1.13771 1.61303,0 1.96698,0.35366 1.96698,1.96538 0,1.58641 -0.16421,1.73879 -1.87372,1.73879 -1.02949,0 -1.0367,0.007 -1.0367,1.03669 0,1.73107 -0.141,1.87373 -1.85208,1.87373 -1.151894,0 -1.570645,-0.10362 -1.691485,-0.41852 z m 2.595885,-0.007 c 0.28956,-0.11111 0.41852,-0.50244 0.41852,-1.27 0,-1.40091 0.34906,-1.7444 1.7727,-1.7444 h 1.13771 v -1.30909 -1.30909 l -1.38906,-0.08 -1.38906,-0.08 -0.08,-1.38907 -0.08,-1.38906 h -1.29526 -1.295264 l -0.07997,1.38906 -0.07997,1.38907 -1.389063,0.08 -1.389063,0.08 v 1.30909 1.30909 h 1.137709 c 1.42499,0 1.772708,0.34339 1.772708,1.75066 0,0.64497 0.139534,1.17196 0.330729,1.24911 0.478804,0.1932 1.412474,0.20041 1.896594,0.0146 z m 8.75895,0.10775 c -0.0659,-0.18921 -0.15377,-0.82027 -0.19524,-1.40236 -0.0751,-1.05344 -0.0809,-1.05869 -1.26603,-1.13689 -1.40875,-0.093 -1.85208,-0.55673 -1.85208,-1.93749 0,-1.31268 0.55488,-1.82041 1.98945,-1.82041 h 1.15789 l 0.08,-1.38906 0.08,-1.38906 h 1.5875 1.5875 l 0.08,1.38906 0.08,1.38906 h 1.1579 c 1.43457,0 1.98944,0.50773 1.98944,1.82041 0,1.38076 -0.44333,1.84454 -1.85208,1.93749 l -1.19063,0.0786 -0.13229,1.32292 -0.13229,1.32291 -1.52455,0.0795 c -1.07143,0.0558 -1.56018,-0.0228 -1.64439,-0.26459 z m 2.72148,-0.28307 c 0.15333,-0.18475 0.31674,-0.86936 0.36312,-1.52135 l 0.0843,-1.18544 1.32292,-0.13229 1.32291,-0.13229 v -1.19063 -1.19062 l -1.32291,-0.13229 c -1.24324,-0.12433 -1.32729,-0.1801 -1.39547,-0.92604 -0.17249,-1.88715 -0.24672,-1.98438 -1.51495,-1.98438 -1.26823,0 -1.34246,0.0972 -1.51495,1.98438 -0.0682,0.74594 -0.15223,0.80171 -1.39547,0.92604 l -1.32291,0.13229 v 1.19062 1.19063 l 1.32291,0.13229 1.32292,0.13229 0.0843,1.18544 c 0.10524,1.47924 0.4112,1.85727 1.50316,1.85727 0.47369,0 0.9867,-0.15116 1.14004,-0.33592 z m 5.36314,-24.42467 c 0.0127,-0.30822 0.0754,-0.37092 0.15985,-0.15985 0.0764,0.19099 0.067,0.4192 -0.0209,0.50712 -0.0879,0.0879 -0.15046,-0.0684 -0.13897,-0.34727 z"
         id="path1775" />
      <path
         style="fill:#184d96;stroke-width:0.264583"
         d="m 76.487905,280.39894 c 0,-0.0728 0.05953,-0.13229 0.132292,-0.13229 0.07276,0 0.132291,0.0595 0.132291,0.13229 0,0.0728 -0.05953,0.13229 -0.132291,0.13229 -0.07276,0 -0.132292,-0.0595 -0.132292,-0.13229 z m 2.910417,0 c 0,-0.0728 0.05953,-0.13229 0.132291,-0.13229 0.07276,0 0.132292,0.0595 0.132292,0.13229 0,0.0728 -0.05953,0.13229 -0.132292,0.13229 -0.07276,0 -0.132291,-0.0595 -0.132291,-0.13229 z m -4.134946,-0.39188 c -0.126875,-0.12002 -7.910211,-4.6453 -17.296305,-10.05616 -9.386094,-5.41086 -17.452578,-10.20827 -17.925521,-10.66091 -0.472943,-0.45264 -0.859896,-1.02694 -0.859896,-1.27622 0,-0.31482 2.161669,-1.70114 7.077604,-4.53904 3.892683,-2.24718 7.335769,-4.22151 7.651304,-4.38739 0.524442,-0.2757 0.677058,-0.15675 1.777513,1.3854 3.890625,5.45222 9.291518,9.22001 15.659341,10.92433 2.308418,0.61784 3.124216,0.70309 6.727989,0.70309 3.603773,0 4.419571,-0.0853 6.727989,-0.70309 6.426841,-1.72011 12.232381,-5.81563 15.793916,-11.14181 1.00516,-1.5032 1.02914,-1.5877 0.57446,-2.02408 -0.26097,-0.25046 -2.906537,-1.86085 -5.879041,-3.57863 l -5.404554,-3.12323 -0.812067,1.04627 c -2.062768,2.65766 -4.782423,4.54284 -7.658589,5.30867 -1.740464,0.46343 -4.943764,0.46343 -6.684228,0 -2.082236,-0.55444 -4.478959,-1.95454 -6.070854,-3.54643 -1.241618,-1.24162 -1.995678,-2.51555 -1.665163,-2.81317 0.09528,-0.0858 4.549029,-2.6457 16.533649,-9.50311 3.218815,-1.84176 5.947495,-3.34866 6.063732,-3.34866 0.300288,0 11.257925,-6.33805 11.896375,-6.88103 1.20298,-1.02309 15.50792,-9.03915 15.87756,-8.8973 0.21688,0.0832 0.39432,0.32372 0.39432,0.53444 0,0.21072 0.14882,0.43274 0.33073,0.49337 0.26085,0.087 0.33072,4.52144 0.33072,20.99028 v 20.88004 l -0.84547,1.45803 c -0.46501,0.80192 -1.17938,1.77486 -1.5875,2.16209 -0.40811,0.38723 -8.00484,4.89287 -16.881609,10.01253 -8.876772,5.11966 -16.675365,9.63371 -17.330209,10.03122 -0.654844,0.39751 -1.347544,0.67024 -1.539333,0.60608 -0.191788,-0.0642 0.22493,-0.38781 0.926042,-0.71921 2.796505,-1.32187 33.875219,-19.44323 34.678399,-20.22026 0.47294,-0.45755 0.85553,-0.97737 0.85019,-1.15515 -0.009,-0.29702 -13.84888,-8.42407 -14.6532,-8.6046 -0.19424,-0.0436 -0.89236,0.67078 -1.55137,1.5875 -7.437639,10.34624 -20.780847,14.26349 -32.650762,9.58549 -4.380663,-1.72644 -9.019003,-5.35489 -12.041882,-9.42005 l -1.34533,-1.8092 -1.21919,0.68024 c -4.880595,2.72309 -13.783438,7.95438 -13.784995,8.10004 -0.0072,0.67316 3.505031,2.86052 18.367763,11.43919 9.247034,5.33733 17.183918,9.86028 17.63752,10.051 0.579408,0.24363 0.708112,0.39153 0.432681,0.49722 -0.21563,0.0827 -0.495856,0.0522 -0.622729,-0.0678 z m 6.110071,-32.42516 c 0.856424,-0.22307 2.16136,-0.728 2.89986,-1.12207 1.632259,-0.87099 4.724765,-3.85326 4.604094,-4.43999 -0.0475,-0.23096 -2.451555,-1.78892 -5.342337,-3.46213 l -5.255967,-3.0422 -5.438021,3.12837 c -2.990914,1.7206 -5.487723,3.27746 -5.548466,3.45969 -0.163809,0.49143 3.036729,3.53013 4.59277,4.36054 2.784705,1.48612 6.42669,1.91517 9.488067,1.11779 z m 20.883023,-8.21502 c 0.0883,-0.23018 0.1606,-0.88503 0.1606,-1.45521 0,-1.02948 0.007,-1.03669 1.0367,-1.03669 1.70951,0 1.87372,-0.15238 1.87372,-1.73879 0,-1.61172 -0.35395,-1.96538 -1.96698,-1.96538 -0.93526,0 -0.94344,-0.01 -0.94344,-1.13771 0,-1.44566 -0.34169,-1.77271 -1.85208,-1.77271 -1.510396,0 -1.852084,0.32705 -1.852084,1.77271 0,1.12785 -0.0082,1.13771 -0.943436,1.13771 -1.61303,0 -1.966981,0.35366 -1.966981,1.96538 0,1.58641 0.164205,1.73879 1.873723,1.73879 1.029481,0 1.036694,0.007 1.036694,1.03669 0,1.73107 0.141007,1.87373 1.852084,1.87373 1.15189,0 1.57064,-0.10362 1.69148,-0.41852 z m 11.2731,-1.03669 0.13229,-1.32292 1.19063,-0.0786 c 1.40875,-0.093 1.85208,-0.55673 1.85208,-1.93749 0,-1.31268 -0.55487,-1.82041 -1.98944,-1.82041 h -1.1579 l -0.08,-1.38906 -0.08,-1.38906 h -1.5875 -1.5875 l -0.08,1.38906 -0.08,1.38906 h -1.15789 c -1.43457,0 -1.98945,0.50773 -1.98945,1.82041 0,1.38076 0.44333,1.84454 1.85208,1.93749 1.18512,0.0782 1.19098,0.0834 1.26603,1.13689 0.1226,1.72075 0.15983,1.75448 1.83963,1.66695 l 1.52455,-0.0795 z"
         id="path1773" />
      <path
         style="fill:#0e3c80;stroke-width:0.264583"
         d="m 76.223322,280.26665 c -0.363802,-0.11651 -0.482865,-0.22837 -0.264584,-0.24857 0.218282,-0.0202 0.0083,-0.20559 -0.466585,-0.41197 -0.474903,-0.20639 -8.429215,-4.74215 -17.676249,-10.07948 -14.862732,-8.57867 -18.374959,-10.76603 -18.367763,-11.43919 0.0016,-0.14566 8.9044,-5.37695 13.784995,-8.10004 l 1.21919,-0.68024 1.34533,1.8092 c 5.052603,6.79472 12.619727,10.91309 20.843255,11.34383 9.34851,0.48967 18.344518,-3.85163 23.849389,-11.50927 0.65901,-0.91672 1.35713,-1.6311 1.55137,-1.5875 0.80432,0.18053 14.64429,8.30758 14.6532,8.6046 0.005,0.17778 -0.37725,0.6976 -0.85019,1.15515 -0.80733,0.78104 -31.860354,18.88507 -34.726567,20.24571 -0.727604,0.34541 -1.144323,0.64104 -0.926041,0.65697 0.841536,0.0614 -0.987984,0.45263 -2.116667,0.45263 -0.654844,0 -1.488281,-0.0953 -1.852083,-0.21183 z m -1.559817,-32.69788 c -0.785138,-0.21113 -2.035294,-0.70823 -2.778125,-1.10466 -1.556041,-0.83041 -4.756579,-3.86911 -4.59277,-4.36054 0.06074,-0.18223 2.557552,-1.73909 5.548466,-3.45969 l 5.438021,-3.12837 5.255967,3.0422 c 2.890782,1.67321 5.294834,3.23117 5.342337,3.46213 0.120671,0.58673 -2.971835,3.569 -4.604094,4.43999 -2.779319,1.48306 -6.585342,1.92226 -9.609802,1.10894 z"
         id="path1771" />
    </g>
  </g>
</svg>
