<?xml version="1.0" encoding="UTF-8" standalone="no"?>
<svg
   xmlns:dc="http://purl.org/dc/elements/1.1/"
   xmlns:cc="http://creativecommons.org/ns#"
   xmlns:rdf="http://www.w3.org/1999/02/22-rdf-syntax-ns#"
   xmlns:svg="http://www.w3.org/2000/svg"
   xmlns="http://www.w3.org/2000/svg"
   xmlns:xlink="http://www.w3.org/1999/xlink"
   xmlns:sodipodi="http://sodipodi.sourceforge.net/DTD/sodipodi-0.dtd"
   xmlns:inkscape="http://www.inkscape.org/namespaces/inkscape"
   width="362mm"
   height="150mm"
   viewBox="0 0 362 150"
   version="1.1"
   id="svg2146"
   inkscape:version="1.0.1 (3bc2e813f5, 2020-09-07)"
   sodipodi:docname="csharp.svg">
  <title
     id="title1091">Colored Badge Template</title>
  <defs
     id="defs2140">
    <linearGradient
       inkscape:collect="always"
       id="linearGradient1750">
      <stop
         style="stop-color:#220162;stop-opacity:1"
         offset="0"
         id="stop1746" />
      <stop
         style="stop-color:#9c6bd6;stop-opacity:1"
         offset="1"
         id="stop1748" />
    </linearGradient>
    <linearGradient
       inkscape:collect="always"
       id="Text_Background_Gradient-7">
      <stop
         style="stop-color:#000000;stop-opacity:1"
         offset="0"
         id="stop1022" />
      <stop
         style="stop-color:#595959;stop-opacity:1"
         offset="1"
         id="stop1024" />
    </linearGradient>
    <linearGradient
       inkscape:collect="always"
       xlink:href="#Text_Background_Gradient-7"
       id="linearGradient1030"
       gradientUnits="userSpaceOnUse"
       x1="-8.5265128e-14"
       y1="150"
       x2="-8.5265128e-14"
       y2="0"
       gradientTransform="scale(0.73080569,0.99999996)" />
    <linearGradient
       inkscape:collect="always"
       xlink:href="#linearGradient1750"
       id="linearGradient1038"
       x1="-8.5265128e-14"
       y1="150"
       x2="-8.5265128e-14"
       y2="0"
       gradientUnits="userSpaceOnUse" />
    <linearGradient
       inkscape:collect="always"
       xlink:href="#linearGradient1750"
       id="linearGradient1038-0"
       x1="-8.5265128e-14"
       y1="150"
       x2="-8.5265128e-14"
       y2="0"
       gradientUnits="userSpaceOnUse"
       gradientTransform="matrix(0.17738398,0,0,1,123.3924,0)" />
  </defs>
  <sodipodi:namedview
     id="base"
     pagecolor="#ffffff"
     bordercolor="#666666"
     borderopacity="1.0"
     inkscape:pageopacity="0.0"
     inkscape:pageshadow="2"
     inkscape:zoom="0.32350236"
     inkscape:cx="88.775841"
     inkscape:cy="582.33292"
     inkscape:document-units="mm"
     inkscape:current-layer="layer4"
     inkscape:document-rotation="0"
     showgrid="false"
     inkscape:snap-bbox="true"
     inkscape:window-width="1920"
     inkscape:window-height="1017"
     inkscape:window-x="-8"
     inkscape:window-y="-8"
     inkscape:window-maximized="1" />
  <metadata
     id="metadata2143">
    <rdf:RDF>
      <cc:Work
         rdf:about="">
        <dc:format>image/svg+xml</dc:format>
        <dc:type
           rdf:resource="http://purl.org/dc/dcmitype/StillImage" />
        <dc:title>Colored Badge Template</dc:title>
      </cc:Work>
    </rdf:RDF>
  </metadata>
  <g
     inkscape:label="Text Background"
     inkscape:groupmode="layer"
     id="layer1">
    <rect
       style="opacity:0.996;fill:url(#linearGradient1030);fill-opacity:1;stroke-width:4.50259;stroke-linecap:square;paint-order:stroke fill markers"
       id="rect7"
       width="362"
       height="150"
       x="-8.5265128e-14"
       y="0"
       ry="15" />
  </g>
  <g
     inkscape:groupmode="layer"
     id="layer4"
     inkscape:label="Text">
    <text
       xml:space="preserve"
       style="font-style:normal;font-weight:normal;font-size:104.065px;line-height:1.25;font-family:sans-serif;fill:#ffffff;fill-opacity:1;stroke:none;stroke-width:0.542002"
       x="179.15651"
       y="113.59001"
       id="text13-5"><tspan
         sodipodi:role="line"
         id="tspan11-4"
         x="179.15651"
         y="113.59001"
         style="font-size:104.065px;fill:#ffffff;stroke-width:0.542002">C#</tspan></text>
  </g>
  <g
     inkscape:groupmode="layer"
     id="layer3"
     inkscape:label="Logo Background">
    <rect
       style="opacity:0.996;fill:url(#linearGradient1038);fill-opacity:1;stroke-width:2.89838;stroke-linecap:square;paint-order:stroke fill markers"
       id="rect7-3"
       width="150"
       height="150"
       x="-8.6153307e-14"
       y="2.8421709e-14"
       ry="15" />
    <rect
       style="opacity:0.996;fill:url(#linearGradient1038-0);fill-opacity:1;stroke-width:1.22071;stroke-linecap:square;paint-order:stroke fill markers"
       id="rect7-3-0"
       width="26.607597"
       height="150"
       x="123.3924"
       y="0" />
  </g>
  <g
     inkscape:groupmode="layer"
     id="layer2"
     inkscape:label="Logo">
    <circle
       style="opacity:0.996;fill:#ffffff;fill-opacity:1;stroke-width:2.90271;stroke-linecap:square;paint-order:stroke fill markers"
       id="path1752"
       cx="77.199097"
       cy="75.082428"
       r="41.140766" />
    <g
       id="g1173"
       transform="matrix(1.2596337,0,0,1.2596337,-37.068832,-242.1087)">
      <path
         style="fill:#9c6bd6;stroke-width:0.264583"
         d="m 89.455392,291.26445 c 0.09701,-0.097 0.255764,-0.097 0.352779,0 0.09701,0.097 0.01764,0.17639 -0.17639,0.17639 -0.194026,0 -0.273401,-0.0794 -0.176389,-0.17639 z m 2.645833,0 c 0.09701,-0.097 0.255765,-0.097 0.35278,0 0.09701,0.097 0.01764,0.17639 -0.17639,0.17639 -0.194027,0 -0.273402,-0.0794 -0.17639,-0.17639 z m -4.272571,-0.36738 c -1.514457,-0.60738 -29.390606,-16.8749 -30.261833,-17.65973 -1.972009,-1.77643 -1.933999,-1.35161 -1.933999,-21.61629 v -17.99167 l 0.723747,-1.37265 c 0.398061,-0.75496 1.114113,-1.67041 1.591226,-2.03432 0.477113,-0.36391 7.575497,-4.53147 15.774188,-9.26123 16.051411,-9.25995 16.211312,-9.33401 18.702605,-8.66189 0.574009,0.15486 7.770682,4.15917 15.992612,8.89846 15.08467,8.69513 16.89469,9.89747 17.32052,11.50559 l 0.17515,0.66146 -0.53403,-0.66146 c -0.4334,-0.53681 -0.6235,-0.60731 -1.00878,-0.37409 -0.2611,0.15805 -2.61786,1.51936 -5.23724,3.02512 -2.61937,1.50576 -5.17921,3.05949 -5.68854,3.45274 -1.15271,0.89001 -9.80169,5.86275 -11.39367,6.5508 -0.64572,0.27909 -3.019505,1.57605 -5.275078,2.88214 -2.255573,1.3061 -4.929738,2.82972 -5.942587,3.38582 -1.012852,0.5561 -3.810821,2.15419 -6.217709,3.55132 -3.389102,1.96726 -4.395468,2.67505 -4.46175,3.13799 -0.0637,0.4449 0.376116,1.05847 1.719792,2.39924 2.884823,2.87858 6.465683,4.24883 10.197121,3.90203 3.466949,-0.32222 6.783837,-2.06482 8.913741,-4.68304 0.64124,-0.78826 1.35561,-1.46358 1.5875,-1.50071 0.50058,-0.0802 10.59467,5.74882 10.96102,6.3296 0.59337,0.94069 -4.08484,6.37173 -7.46427,8.66545 -2.40474,1.63216 -6.126933,3.31286 -8.895983,4.01684 -3.504142,0.89087 -9.0345,0.85188 -12.570747,-0.0886 -4.829102,-1.28434 -8.605175,-3.45125 -12.056434,-6.91861 -1.175679,-1.18117 -2.638631,-2.89171 -3.251005,-3.80122 -0.612374,-0.9095 -1.237916,-1.65364 -1.390094,-1.65364 -0.152177,0 -2.707584,1.39652 -5.678683,3.10339 -3.598646,2.06739 -5.401997,3.24951 -5.401997,3.54109 0,0.78619 1.902535,2.1835 6.879505,5.0526 2.691949,1.55185 9.240235,5.32329 14.551746,8.38098 5.31151,3.0577 9.835885,5.6776 10.054167,5.82201 0.496144,0.32823 0.315664,0.33368 -0.480211,0.0145 z M 98.23074,276.77398 c 3.16791,-0.95023 7.00211,-2.9895 9.41349,-5.00668 2.13246,-1.78384 5.53547,-5.80926 5.53547,-6.5479 0,-0.31774 -1.6381,-1.40987 -5.32808,-3.55226 l -5.32808,-3.09346 -0.67411,0.88931 c -2.636779,3.47851 -6.60282,5.50935 -10.772997,5.51638 -3.738658,0.006 -6.621865,-1.21145 -9.389147,-3.96561 -1.523131,-1.51591 -1.829902,-1.99984 -2.587644,-4.08199 -1.092069,-3.00084 -1.318773,-5.44738 -0.734755,-7.92929 1.432247,-6.08665 6.564934,-10.20021 12.740227,-10.21058 3.639315,-0.006 6.890086,1.46278 9.517426,4.30055 l 1.69339,1.82902 5.49035,-3.1756 c 3.01969,-1.74658 5.52564,-3.28149 5.56878,-3.41091 0.29723,-0.89169 -4.66387,-6.30709 -7.57225,-8.26566 -2.30464,-1.552 -5.53605,-3.02471 -8.233528,-3.75243 -1.925521,-0.51946 -2.876807,-0.60557 -6.614584,-0.59876 -3.64518,0.007 -4.707446,0.10246 -6.436934,0.58066 -4.432755,1.22566 -8.048827,3.25863 -11.342728,6.37694 -3.904002,3.69587 -6.379051,7.94814 -7.668895,13.17557 -0.863352,3.49897 -0.799953,8.77595 0.148763,12.3821 1.169102,4.44387 3.071194,7.70263 6.76512,11.59037 3.284699,3.45705 7.929249,6.15368 12.334616,7.16152 1.008938,0.23082 2.072558,0.47516 2.3636,0.54298 0.291041,0.0678 2.374635,0.0866 4.630208,0.0417 3.542917,-0.0705 4.425114,-0.17886 6.482292,-0.79593 z m -5.159375,14.25059 c 0,-0.0562 0.482981,-0.34854 1.073293,-0.6497 2.052479,-1.04709 28.697642,-16.46282 29.525142,-17.08195 0.45805,-0.34271 1.09676,-1.16834 1.41935,-1.83474 0.3226,-0.66639 0.64607,-1.1521 0.71883,-1.07933 0.27928,0.27927 -1.05323,2.52895 -1.85983,3.13995 -1.1963,0.9062 -29.617932,17.27872 -30.307986,17.45917 -0.312841,0.0818 -0.568799,0.10278 -0.568799,0.0466 z m 32.829225,-21.69849 c 0.0127,-0.30822 0.0754,-0.37092 0.15985,-0.15985 0.0764,0.191 0.067,0.4192 -0.0209,0.50712 -0.0879,0.0879 -0.15045,-0.0684 -0.13896,-0.34727 z m -16.37214,-10.21732 c -0.17463,-0.17463 -0.3175,-1.00807 -0.3175,-1.85209 v -1.53458 h -1.40464 c -1.74106,0 -2.37613,-0.4133 -2.25608,-1.46825 0.0864,-0.75934 0.13592,-0.78433 1.80864,-0.913 l 1.71979,-0.13229 0.0794,-1.52136 0.0793,-1.52135 h -1.41785 c -1.75384,0 -2.38956,-0.41132 -2.26928,-1.46825 0.0864,-0.75934 0.13592,-0.78433 1.80864,-0.913 l 1.71979,-0.13229 0.13229,-1.71979 0.13229,-1.7198 0.98327,-0.0816 c 1.0989,-0.0912 1.1963,0.0797 1.3282,2.33054 l 0.0698,1.19063 h 1.45521 1.45521 l 0.13229,-1.71979 0.13229,-1.7198 h 1.05833 1.05834 l 0.13229,1.7198 0.13229,1.71979 1.58115,0.0811 c 1.63962,0.0841 1.97981,0.30651 1.98668,1.29862 0.005,0.78111 -0.73276,1.13379 -2.37301,1.13379 h -1.35352 l 0.0794,1.52135 0.0793,1.52136 1.58115,0.0811 c 1.63962,0.0841 1.97981,0.30651 1.98668,1.29862 0.005,0.77941 -0.7322,1.13379 -2.35981,1.13379 h -1.34031 v 1.53458 c 0,1.63295 -0.2945,2.16959 -1.19063,2.16959 -0.89612,0 -1.19062,-0.53664 -1.19062,-2.16959 v -1.53458 h -1.5875 -1.5875 v 1.57819 c 0,1.28952 -0.0936,1.62829 -0.51177,1.85209 -0.67256,0.35993 -1.16219,0.34618 -1.55198,-0.0436 z m 1.58864,-1.99761 0.0782,-1.78593 1.8284,-0.0792 c 2.1587,-0.0935 2.26293,0.004 2.2686,2.12973 0.004,1.4453 0.0371,1.52135 0.6655,1.52135 0.62417,0 0.66146,-0.0808 0.66146,-1.43357 0,-2.19858 0.0644,-2.2706 2.03026,-2.2706 1.70833,0 1.70902,-2.6e-4 1.62534,-0.7276 -0.0799,-0.69453 -0.1619,-0.73362 -1.80351,-0.8599 l -1.7198,-0.13229 -0.0826,-1.30538 c -0.15031,-2.37461 -0.0293,-2.53108 1.95732,-2.53108 h 1.73233 l -0.0837,-0.7276 c -0.0799,-0.69453 -0.1619,-0.73362 -1.80351,-0.8599 l -1.7198,-0.13229 -0.13229,-1.71979 c -0.11533,-1.49931 -0.20013,-1.71979 -0.66146,-1.71979 -0.44043,0 -0.54086,0.19964 -0.59894,1.19062 -0.14394,2.45624 -0.1029,2.41386 -2.25324,2.32654 l -1.91032,-0.0776 -0.13229,-1.71979 c -0.11533,-1.49931 -0.20013,-1.71979 -0.66146,-1.71979 -0.44043,0 -0.54086,0.19964 -0.59894,1.19062 -0.13711,2.33964 -0.14323,2.34716 -1.98263,2.43482 -1.58275,0.0754 -1.65526,0.10912 -1.73548,0.80633 -0.0829,0.72058 -0.0687,0.7276 1.46844,0.7276 0.85445,0 1.69487,0.14272 1.86966,0.3175 0.34846,0.34847 0.4291,2.80151 0.10865,3.30554 -0.1104,0.17365 -0.91225,0.35225 -1.78188,0.39687 -1.50498,0.0772 -1.58518,0.11619 -1.66487,0.80874 -0.0829,0.72058 -0.0687,0.7276 1.46844,0.7276 0.85445,0 1.69487,0.14272 1.86966,0.3175 0.17462,0.17463 0.3175,1.00807 0.3175,1.85209 0,1.45288 0.0346,1.53458 0.64937,1.53458 0.61757,0 0.6532,-0.0874 0.7276,-1.78594 z m 0.0601,-3.85441 c -0.0785,-0.20462 -0.10657,-1.07307 -0.0623,-1.9299 l 0.0804,-1.55788 1.91032,-0.0776 c 1.81605,-0.0738 1.91805,-0.0468 2.06701,0.5467 0.0862,0.34335 0.1195,1.2117 0.074,1.92966 l -0.0826,1.30538 -1.92205,0.0778 c -1.46136,0.0592 -1.95627,-0.0113 -2.06481,-0.29421 z m 3.53705,-1.56955 0.0794,-1.52135 h -1.60071 -1.6007 v 1.6007 1.60071 l 1.52135,-0.0794 1.52136,-0.0794 z m 11.18633,-17.55069 c 0.0127,-0.30822 0.0754,-0.37092 0.15985,-0.15985 0.0764,0.19099 0.067,0.4192 -0.0209,0.50712 -0.0879,0.0879 -0.15045,-0.0684 -0.13896,-0.34727 z"
         id="path1179" />
      <path
         style="fill:#450a8e;stroke-width:0.264583"
         d="m 89.896365,291.30855 c 0,-0.0728 0.05953,-0.13229 0.132291,-0.13229 0.07276,0 0.132292,0.0595 0.132292,0.13229 0,0.0728 -0.05953,0.13229 -0.132292,0.13229 -0.07276,0 -0.132291,-0.0595 -0.132291,-0.13229 z m 1.675693,-0.0441 c 0.09701,-0.097 0.255765,-0.097 0.35278,0 0.09701,0.097 0.01764,0.17639 -0.17639,0.17639 -0.194027,0 -0.273402,-0.0794 -0.17639,-0.17639 z m -4.58611,-1.15778 c -29.622434,-17.05714 -30.162501,-17.3878 -30.162501,-18.46736 0,-0.30761 1.709456,-1.43208 5.401997,-3.55341 2.971099,-1.70687 5.526506,-3.10339 5.678683,-3.10339 0.152178,0 0.77772,0.74414 1.390094,1.65364 0.612374,0.90951 2.075326,2.62005 3.251005,3.80122 3.451259,3.46736 7.227332,5.63427 12.056434,6.91861 3.536247,0.94049 9.066605,0.97948 12.570747,0.0886 2.76905,-0.70398 6.491243,-2.38468 8.895983,-4.01684 3.37943,-2.29372 8.05764,-7.72476 7.46427,-8.66545 -0.36635,-0.58078 -10.46044,-6.40976 -10.96102,-6.3296 -0.23189,0.0371 -0.94626,0.71245 -1.5875,1.50071 -4.852461,5.96497 -13.559071,6.32078 -19.110862,0.78101 -1.343676,-1.34077 -1.783491,-1.95434 -1.719792,-2.39924 0.06628,-0.46294 1.072648,-1.17073 4.46175,-3.13799 2.406888,-1.39713 5.204857,-2.99522 6.217709,-3.55132 1.012849,-0.5561 3.687014,-2.07972 5.942587,-3.38582 2.255573,-1.30609 4.629358,-2.60305 5.275078,-2.88214 1.51857,-0.65632 10.18968,-5.63472 11.38665,-6.53748 1.0284,-0.77562 11.09367,-6.64626 11.39507,-6.64626 0.10602,0 0.41481,0.32743 0.68621,0.72761 0.46959,0.69242 0.49345,1.59866 0.49345,18.74011 v 18.0125 l -0.76788,1.51777 c -0.42233,0.83477 -1.13671,1.79395 -1.5875,2.1315 -0.72761,0.54482 -24.528356,14.34042 -29.048431,16.83731 -0.973765,0.5379 -1.83895,0.90954 -1.922637,0.82585 -0.08369,-0.0837 0.19191,-0.29682 0.612433,-0.47364 0.420526,-0.17682 7.238835,-4.04777 15.151805,-8.60211 14.59204,-8.39851 16.8755,-9.9152 16.08477,-10.68362 -0.4701,-0.45684 -9.938,-5.96036 -10.25382,-5.96036 -0.1278,0 -0.68107,0.68461 -1.22949,1.52135 -1.52261,2.3231 -5.77224,6.34715 -8.21895,7.78268 -4.71919,2.76884 -8.575627,3.80412 -14.009884,3.76102 -3.08978,-0.0245 -4.139882,-0.14445 -6.331114,-0.72313 -6.114957,-1.6149 -11.200729,-5.11207 -15.140998,-10.41155 l -1.417213,-1.90608 -5.091796,2.93054 c -2.800488,1.61179 -5.263684,3.09215 -5.473769,3.28969 -0.643056,0.60465 0.482605,1.47902 6.061726,4.70853 15.648777,9.0584 24.667361,14.21877 25.182856,14.40947 0.319543,0.1182 0.471334,0.27622 0.337315,0.35114 -0.134019,0.0749 -1.01758,-0.30942 -1.963465,-0.85408 z m 6.380033,-25.91759 c 2.425031,-0.44967 4.999713,-1.90185 6.817859,-3.84546 0.89033,-0.95176 1.61878,-1.89173 1.61878,-2.08882 0,-0.38693 -9.839293,-6.23688 -10.490083,-6.23688 -0.373746,0 -10.277284,5.59505 -10.78565,6.0934 -0.359462,0.35238 1.092096,2.29857 2.622603,3.51628 2.915353,2.31953 6.574149,3.23686 10.216491,2.56148 z m 17.714449,-5.03671 c 0.41816,-0.2238 0.51177,-0.56257 0.51177,-1.85209 v -1.57819 h 1.5875 1.5875 v 1.53458 c 0,1.63295 0.2945,2.16959 1.19062,2.16959 0.89613,0 1.19063,-0.53664 1.19063,-2.16959 v -1.53458 h 1.34031 c 1.62761,0 2.36519,-0.35438 2.35981,-1.13379 -0.007,-0.99211 -0.34706,-1.21448 -1.98668,-1.29862 l -1.58115,-0.0811 -0.0793,-1.52136 -0.0794,-1.52135 h 1.35352 c 1.64025,0 2.37841,-0.35268 2.37301,-1.13379 -0.007,-0.99211 -0.34706,-1.21448 -1.98668,-1.29862 l -1.58115,-0.0811 -0.13229,-1.71979 -0.13229,-1.7198 h -1.05834 -1.05833 l -0.13229,1.7198 -0.13229,1.71979 h -1.45521 -1.45521 l -0.0698,-1.19063 c -0.1319,-2.25082 -0.2293,-2.42172 -1.3282,-2.33054 l -0.98327,0.0816 -0.13229,1.7198 -0.13229,1.71979 -1.71979,0.13229 c -1.67272,0.12867 -1.72223,0.15366 -1.80864,0.913 -0.12028,1.05693 0.51544,1.46825 2.26928,1.46825 h 1.41785 l -0.0793,1.52135 -0.0794,1.52136 -1.71979,0.13229 c -1.67272,0.12867 -1.72223,0.15366 -1.80864,0.913 -0.12005,1.05495 0.51502,1.46825 2.25608,1.46825 h 1.40464 v 1.53458 c 0,2.00719 0.57385,2.58909 1.86948,1.8957 z m 0.51177,-7.38583 v -1.6007 h 1.6007 1.60071 l -0.0794,1.52135 -0.0793,1.52136 -1.52136,0.0794 -1.52135,0.0794 z"
         id="path1177" />
      <path
         style="fill:#220162;stroke-width:0.264583"
         d="m 89.49949,291.17626 c -0.436563,-0.11109 -0.674688,-0.22361 -0.529167,-0.25005 0.145521,-0.0264 -0.0063,-0.15685 -0.337315,-0.2898 -0.535998,-0.21526 -10.098948,-5.69275 -25.203766,-14.43627 -5.579121,-3.22951 -6.704782,-4.10388 -6.061726,-4.70853 0.210085,-0.19754 2.673281,-1.6779 5.473769,-3.28969 l 5.091796,-2.93054 1.417213,1.90608 c 3.940269,5.29948 9.026041,8.79665 15.140998,10.41155 2.191232,0.57868 3.241334,0.69862 6.331114,0.72313 5.434257,0.0431 9.290694,-0.99218 14.009884,-3.76102 2.44671,-1.43553 6.69634,-5.45958 8.21895,-7.78268 0.54842,-0.83674 1.10169,-1.52135 1.22949,-1.52135 0.31582,0 9.78372,5.50352 10.25382,5.96036 0.79073,0.76842 -1.49273,2.28511 -16.08477,10.68362 -7.91297,4.55434 -14.759063,8.44246 -15.213543,8.64026 -0.454482,0.1978 -0.707268,0.37838 -0.561747,0.40129 0.380754,0.06 -1.22215,0.44561 -1.852084,0.44561 -0.291041,0 -0.886354,-0.0909 -1.322916,-0.20197 z m -1.002366,-27.02493 c -1.784911,-0.34211 -3.802158,-1.29411 -5.347634,-2.52373 -1.530507,-1.21771 -2.982065,-3.1639 -2.622603,-3.51628 0.508366,-0.49835 10.411904,-6.0934 10.78565,-6.0934 0.65079,0 10.490083,5.84995 10.490083,6.23688 0,0.19709 -0.72845,1.13706 -1.61878,2.08882 -3.069938,3.28178 -7.277763,4.65275 -11.686716,3.80771 z"
         id="path1175" />
    </g>
  </g>
</svg>
