<?xml version="1.0" encoding="UTF-8" standalone="no"?>
<svg
   xmlns:dc="http://purl.org/dc/elements/1.1/"
   xmlns:cc="http://creativecommons.org/ns#"
   xmlns:rdf="http://www.w3.org/1999/02/22-rdf-syntax-ns#"
   xmlns:svg="http://www.w3.org/2000/svg"
   xmlns="http://www.w3.org/2000/svg"
   xmlns:xlink="http://www.w3.org/1999/xlink"
   xmlns:sodipodi="http://sodipodi.sourceforge.net/DTD/sodipodi-0.dtd"
   xmlns:inkscape="http://www.inkscape.org/namespaces/inkscape"
   width="422mm"
   height="150mm"
   viewBox="0 0 422 150"
   version="1.1"
   id="svg2146"
   inkscape:version="1.0.1 (3bc2e813f5, 2020-09-07)"
   sodipodi:docname="css3.svg">
  <title
     id="title1091">Colored Badge Template</title>
  <defs
     id="defs2140">
    <linearGradient
       inkscape:collect="always"
       id="linearGradient2163">
      <stop
         style="stop-color:#3f2ee0;stop-opacity:1"
         offset="0"
         id="stop2159" />
      <stop
         style="stop-color:#4851ec;stop-opacity:1"
         offset="1"
         id="stop2161" />
    </linearGradient>
    <linearGradient
       inkscape:collect="always"
       id="Text_Background_Gradient-7">
      <stop
         style="stop-color:#000000;stop-opacity:1"
         offset="0"
         id="stop1022" />
      <stop
         style="stop-color:#595959;stop-opacity:1"
         offset="1"
         id="stop1024" />
    </linearGradient>
    <linearGradient
       inkscape:collect="always"
       xlink:href="#Text_Background_Gradient-7"
       id="linearGradient1030"
       gradientUnits="userSpaceOnUse"
       x1="-8.5265128e-14"
       y1="150"
       x2="-8.5265128e-14"
       y2="0"
       gradientTransform="scale(0.85193366,1)" />
    <linearGradient
       inkscape:collect="always"
       xlink:href="#linearGradient2163"
       id="linearGradient1038"
       x1="-8.5265128e-14"
       y1="150"
       x2="-8.5265128e-14"
       y2="0"
       gradientUnits="userSpaceOnUse"
       gradientTransform="translate(6.086914e-6,-1.5253906e-5)" />
    <linearGradient
       inkscape:collect="always"
       xlink:href="#linearGradient2163"
       id="linearGradient1038-0"
       x1="-8.5265128e-14"
       y1="150"
       x2="-8.5265128e-14"
       y2="0"
       gradientUnits="userSpaceOnUse"
       gradientTransform="matrix(0.17738398,0,0,1,123.3924,0)" />
  </defs>
  <sodipodi:namedview
     id="base"
     pagecolor="#ffffff"
     bordercolor="#666666"
     borderopacity="1.0"
     inkscape:pageopacity="0.0"
     inkscape:pageshadow="2"
     inkscape:zoom="0.23483311"
     inkscape:cx="989.84857"
     inkscape:cy="167.745"
     inkscape:document-units="mm"
     inkscape:current-layer="layer1"
     inkscape:document-rotation="0"
     showgrid="false"
     inkscape:snap-bbox="true"
     inkscape:window-width="1920"
     inkscape:window-height="1017"
     inkscape:window-x="-8"
     inkscape:window-y="-8"
     inkscape:window-maximized="1" />
  <metadata
     id="metadata2143">
    <rdf:RDF>
      <cc:Work
         rdf:about="">
        <dc:format>image/svg+xml</dc:format>
        <dc:type
           rdf:resource="http://purl.org/dc/dcmitype/StillImage" />
        <dc:title>Colored Badge Template</dc:title>
      </cc:Work>
    </rdf:RDF>
  </metadata>
  <g
     inkscape:label="Text Background"
     inkscape:groupmode="layer"
     id="layer1">
    <rect
       style="opacity:0.996;fill:url(#linearGradient1030);fill-opacity:1;stroke-width:4.86145;stroke-linecap:square;paint-order:stroke fill markers"
       id="rect7"
       width="422"
       height="150"
       x="-8.5265128e-14"
       y="0"
       ry="15.000002" />
  </g>
  <g
     inkscape:groupmode="layer"
     id="layer4"
     inkscape:label="Text">
    <text
       xml:space="preserve"
       style="font-style:normal;font-weight:normal;font-size:104.065px;line-height:1.25;font-family:sans-serif;fill:#ffffff;fill-opacity:1;stroke:none;stroke-width:0.542002"
       x="179.15631"
       y="113.59063"
       id="text13"><tspan
         sodipodi:role="line"
         id="tspan11"
         x="179.15631"
         y="113.59063"
         style="font-size:104.065px;fill:#ffffff;stroke-width:0.542002">CSS</tspan></text>
  </g>
  <g
     inkscape:groupmode="layer"
     id="layer3"
     inkscape:label="Logo Background">
    <rect
       style="opacity:0.996;fill:url(#linearGradient1038);fill-opacity:1;stroke-width:2.89838;stroke-linecap:square;paint-order:stroke fill markers"
       id="rect7-3"
       width="150"
       height="150"
       x="6.6757202e-06"
       y="-1.5258789e-05"
       ry="15" />
    <rect
       style="opacity:0.996;fill:url(#linearGradient1038-0);fill-opacity:1;stroke-width:1.22071;stroke-linecap:square;paint-order:stroke fill markers"
       id="rect7-3-0"
       width="26.607597"
       height="150"
       x="123.3924"
       y="0" />
  </g>
  <g
     inkscape:groupmode="layer"
     id="layer2"
     inkscape:label="Logo">
    <g
       id="g2147"
       transform="matrix(1.5747972,0,0,1.5748031,-27.393077,176.13565)"
       style="fill:#ffffff">
      <path
         style="fill:#ffffff;stroke-width:0.264583"
         d="m 64.642272,-32.647528 c 0.09701,-0.09701 0.255764,-0.09701 0.352779,0 0.09701,0.09701 0.01764,0.17639 -0.17639,0.17639 -0.194027,0 -0.273402,-0.07937 -0.176389,-0.17639 z m 1.058333,0 c 0.09701,-0.09701 0.255765,-0.09701 0.352779,0 0.09701,0.09701 0.01764,0.17639 -0.176389,0.17639 -0.194027,0 -0.273402,-0.07937 -0.17639,-0.17639 z m -1.940277,-0.220485 c 0,-0.07276 0.05953,-0.132292 0.132292,-0.132292 0.07276,0 0.132291,0.05953 0.132291,0.132292 0,0.07276 -0.05953,0.132292 -0.132291,0.132292 -0.07276,0 -0.132292,-0.05953 -0.132292,-0.132292 z m 2.910417,0 c 0,-0.07276 0.05953,-0.132292 0.132291,-0.132292 0.07276,0 0.132292,0.05953 0.132292,0.132292 0,0.07276 -0.05953,0.132292 -0.132292,0.132292 -0.07276,0 -0.132291,-0.05953 -0.132291,-0.132292 z m -14.137351,-2.897129 c -9.961145,-2.785835 -10.468899,-2.990268 -10.468899,-4.215001 0,-0.290785 -1.071563,-12.522057 -2.38125,-27.180606 -2.172192,-24.312047 -2.554628,-29.189153 -2.228016,-28.413352 0.0613,0.145611 1.236684,12.873502 2.611961,28.284204 1.375277,15.410704 2.59579,28.114744 2.712249,28.231203 0.11646,0.116459 4.735974,1.468686 10.265588,3.00495 11.09098,3.081345 10.855165,3.009648 9.921551,3.016562 -0.363802,0.0027 -5.058735,-1.224886 -10.433184,-2.72796 z m 14.798809,2.611821 c 0.145521,-0.06118 4.782013,-1.360477 10.303314,-2.887324 5.521304,-1.526844 10.139006,-2.876354 10.261563,-2.998912 0.122555,-0.122555 1.349825,-12.833263 2.727262,-28.246017 1.377436,-15.412752 2.554631,-28.142456 2.615985,-28.288229 0.06136,-0.145774 0.122182,0.151675 0.135165,0.660998 0.02687,1.054107 -4.686355,54.587453 -4.885385,55.488719 -0.07138,0.32322 -0.33673,0.697592 -0.589675,0.831937 -0.703908,0.373867 -19.755532,5.594742 -20.329109,5.570955 -0.277037,-0.01148 -0.384641,-0.07095 -0.23912,-0.132127 z M 58.33637,-46.397405 c -3.929063,-1.094904 -7.226565,-2.070582 -7.327783,-2.168173 -0.260876,-0.251524 -1.110624,-10.240328 -0.914601,-10.751156 0.138847,-0.361828 0.64641,-0.411755 3.540774,-0.348287 l 3.378693,0.07409 0.209075,1.852084 c 0.114991,1.018646 0.293585,2.267378 0.396875,2.774963 l 0.1878,0.922877 3.69802,0.98747 3.698021,0.98747 3.578021,-0.960691 c 1.967913,-0.528381 3.715287,-1.090383 3.883059,-1.248892 0.296527,-0.280154 0.885587,-5.27694 0.885587,-7.512103 v -1.110469 H 61.808349 c -9.100466,0 -11.803598,-0.07475 -12.017363,-0.332322 -0.433211,-0.521986 -0.902362,-6.294017 -0.546437,-6.722881 0.236728,-0.28524 2.671831,-0.353131 12.66605,-0.353131 h 12.372978 l 0.153392,-1.124479 c 0.08437,-0.618463 0.230627,-2.087303 0.325022,-3.264089 l 0.171628,-2.139609 -6.820189,-0.175495 c -3.751106,-0.09652 -9.71564,-0.175494 -13.254522,-0.175494 h -6.434332 l -0.126952,-0.595313 c -0.266493,-1.249655 -0.618378,-6.159525 -0.453201,-6.323539 0.09526,-0.09459 7.915627,-0.257657 17.378596,-0.362377 14.952527,-0.16547 17.247547,-0.139619 17.52727,0.197429 0.480406,0.578853 -2.652427,35.388861 -3.22244,35.805665 -0.217236,0.158847 -3.347781,1.099719 -6.956769,2.09083 -3.608985,0.991108 -6.680856,1.838991 -6.826377,1.884188 -0.145521,0.04519 -3.479271,-0.81366 -7.408333,-1.908566 z m 14.191152,-0.411559 c 5.904592,-1.637837 6.874481,-1.9782 6.974009,-2.447396 0.134625,-0.63464 3.044214,-33.342888 3.044214,-34.221632 v -0.590756 l -17.131771,0.06808 -17.131771,0.06808 0.03619,1.058333 c 0.0199,0.582083 0.117579,1.962059 0.217053,3.066613 l 0.180863,2.00828 13.14136,0.184716 c 7.227747,0.101594 13.235048,0.278406 13.349557,0.392915 0.114509,0.114509 0.0731,1.687505 -0.09203,3.495546 -0.220387,2.413171 -0.411517,3.375295 -0.718743,3.618076 -0.321202,0.253824 -3.274849,0.330729 -12.702162,0.330729 H 49.410658 l 0.174735,2.050521 c 0.0961,1.127786 0.242148,2.553033 0.324543,3.167216 l 0.149807,1.116692 11.855529,0.07393 c 6.520542,0.04066 11.939498,0.157988 12.042124,0.260726 0.217736,0.217974 -0.38957,8.017232 -0.687578,8.830143 -0.163938,0.447191 -0.892281,0.732187 -3.888012,1.521354 -2.027457,0.534096 -3.999196,0.971082 -4.381643,0.971082 -0.821555,0 -7.32906,-1.750058 -7.631275,-2.052273 -0.114524,-0.114525 -0.278659,-1.0986 -0.364744,-2.186831 -0.274828,-3.474207 0.05576,-3.16923 -3.435315,-3.16923 h -3.037668 l 0.0079,1.256771 c 0.01132,1.809173 0.716763,8.816465 0.906702,9.006404 0.142658,0.142658 13.433172,3.941357 13.996604,4.000513 0.124736,0.0131 3.313073,-0.832271 7.085193,-1.878597 z"
         id="path2153" />
      <path
         style="fill:#ffffff;stroke-width:0.264583"
         d="m 65.171438,-32.647528 c 0.09701,-0.09701 0.255765,-0.09701 0.35278,0 0.09701,0.09701 0.01764,0.17639 -0.17639,0.17639 -0.194027,0 -0.273402,-0.07937 -0.17639,-0.17639 z m -1.543402,-0.388511 c -0.291041,-0.129069 -5.053396,-1.489327 -10.583009,-3.022791 -5.529614,-1.533467 -10.149128,-2.883405 -10.265588,-2.999864 -0.225142,-0.225142 -5.286338,-56.133412 -5.098575,-56.321175 0.191035,-0.191035 0.357742,1.542417 2.804375,29.160577 1.31425,14.835547 2.415589,26.996966 2.447421,27.025375 0.03183,0.02841 4.879908,1.386787 10.773501,3.018612 5.893594,1.631826 10.753313,3.001844 10.799374,3.044484 0.242866,0.224824 -0.422265,0.296667 -0.877499,0.09478 z m 2.535685,0.09118 c -0.206105,-0.07088 4.556395,-1.493822 10.583333,-3.16208 6.026936,-1.668259 10.982828,-3.055636 11.013091,-3.083066 0.03026,-0.02743 1.131602,-12.189325 2.44742,-27.026438 2.449994,-27.626011 2.616351,-29.354304 2.807157,-29.163498 0.193691,0.193692 -4.885248,56.107987 -5.117642,56.340381 -0.122557,0.122558 -4.740259,1.469456 -10.261563,2.993107 -5.521301,1.523653 -10.276856,2.873822 -10.567897,3.000378 -0.291042,0.126553 -0.697797,0.172101 -0.903899,0.101216 z m -0.639503,-4.729755 c -0.09701,-0.09701 -0.17639,-1.580253 -0.17639,-3.296087 V -44.0904 l -1.785937,-0.526656 c -0.982266,-0.28966 -4.226719,-1.199078 -7.209896,-2.02093 -2.983177,-0.821851 -5.51456,-1.579422 -5.625295,-1.683491 -0.325251,-0.305665 -1.191082,-10.683898 -0.934665,-11.20331 0.200714,-0.40658 0.660946,-0.463021 3.775529,-0.463021 2.16136,0 3.613128,0.107077 3.716356,0.274103 0.09317,0.150757 0.271026,1.357427 0.395229,2.681489 0.124203,1.324062 0.322888,2.499638 0.441522,2.61239 0.255301,0.242644 6.146636,1.840352 6.786052,1.840352 0.396274,0 0.441105,-0.510927 0.441105,-5.027084 v -5.027083 h -7.772811 c -6.168483,0 -7.83346,-0.07308 -8.066644,-0.354047 -0.161607,-0.194723 -0.433528,-1.872461 -0.604267,-3.728304 -0.263057,-2.859282 -0.253442,-3.410338 0.063,-3.610653 0.205389,-0.130016 3.978852,-0.238216 8.385476,-0.240444 l 8.012042,-0.0041 -0.07454,-3.108854 -0.07454,-3.108854 -8.516139,-0.06979 c -7.821391,-0.0641 -8.527144,-0.107266 -8.651039,-0.529167 -0.0742,-0.252658 -0.269616,-1.87285 -0.434269,-3.600428 -0.222083,-2.330147 -0.222382,-3.21812 -0.0012,-3.439583 0.206119,-0.206344 2.987923,-0.322122 9.008246,-0.37492 l 8.710041,-0.07639 0.07445,-3.098613 0.07445,-3.098613 11.310937,-0.06899 c 10.970583,-0.06691 11.310938,-0.05382 11.310938,0.435034 0,1.160568 -4.257096,48.032367 -4.373034,48.148305 -0.11644,0.11644 -17.522512,5.040825 -17.874014,5.056772 -0.08489,0.0038 -0.233717,-0.07237 -0.330729,-0.169389 z m 7.046862,-8.698415 c 3.608988,-0.991111 6.739533,-1.931983 6.956769,-2.09083 0.570013,-0.416804 3.702846,-35.226812 3.22244,-35.805665 -0.279723,-0.337048 -2.574743,-0.362899 -17.52727,-0.197429 -9.462969,0.10472 -17.283338,0.26779 -17.378596,0.362377 -0.165177,0.164014 0.186708,5.073884 0.453201,6.323539 l 0.126952,0.595313 h 6.434332 c 3.538882,0 9.503416,0.07897 13.254522,0.175494 l 6.820189,0.175495 -0.171628,2.139609 c -0.09439,1.176786 -0.240654,2.645626 -0.325022,3.264089 l -0.153392,1.124479 H 61.910599 c -9.994219,0 -12.429322,0.06789 -12.66605,0.353131 -0.355925,0.428864 0.113226,6.200895 0.546437,6.722881 0.213765,0.257572 2.916897,0.332322 12.017363,0.332322 h 11.741562 v 1.110469 c 0,2.235163 -0.58906,7.231949 -0.885587,7.512103 -0.167772,0.158509 -1.915146,0.720511 -3.883059,1.248892 l -3.578021,0.960691 -3.698021,-0.98747 -3.69802,-0.98747 -0.1878,-0.922877 c -0.10329,-0.507585 -0.281884,-1.756317 -0.396875,-2.774963 l -0.209075,-1.852084 -3.378693,-0.07409 c -2.894364,-0.06347 -3.401927,-0.01355 -3.540774,0.348287 -0.196023,0.510828 0.653725,10.499632 0.914601,10.751156 0.26783,0.258231 14.422545,4.174125 14.736116,4.07674 0.145521,-0.0452 3.217392,-0.89308 6.826377,-1.884188 z m -35.269085,-49.46582 c 0,-0.07276 0.05953,-0.132292 0.132291,-0.132292 0.07276,0 0.132292,0.05953 0.132292,0.132292 0,0.07276 -0.05953,0.132291 -0.132292,0.132291 -0.07276,0 -0.132291,-0.05953 -0.132291,-0.132291 z m 55.827083,0 c 0,-0.07276 0.05953,-0.132292 0.132292,-0.132292 0.07276,0 0.132291,0.05953 0.132291,0.132292 0,0.07276 -0.05953,0.132291 -0.132291,0.132291 -0.07276,0 -0.132292,-0.05953 -0.132292,-0.132291 z"
         id="path2151" />
      <path
         style="fill:#ffffff;stroke-width:0.264583"
         d="m 64.394627,-32.95636 c 0.075,-0.121354 -4.740004,-1.571315 -10.700009,-3.222141 -5.960006,-1.650828 -10.837012,-3.069587 -10.837793,-3.152799 -0.01158,-1.234239 -5.029579,-55.846 -5.161801,-56.176817 -0.175544,-0.439211 1.246441,-0.463021 27.652804,-0.463021 26.406351,0 27.828351,0.02381 27.652834,0.463021 -0.101766,0.254661 -1.309838,13.018901 -2.684602,28.364976 -1.374767,15.346077 -2.524633,27.924694 -2.555259,27.952483 -0.03063,0.02779 -4.986811,1.415463 -11.013747,3.083722 -6.026938,1.668258 -10.789438,3.099853 -10.583333,3.181318 0.206102,0.08147 -0.138311,0.15752 -0.765363,0.169008 -0.627052,0.01148 -1.07873,-0.0784 -1.003731,-0.19975 z m 10.411074,-7.017324 c 4.838028,-1.353804 8.853495,-2.518545 8.92326,-2.58831 0.115938,-0.115938 4.373034,-46.987737 4.373034,-48.148305 0,-0.488854 -0.340355,-0.501944 -11.310938,-0.435034 l -11.310937,0.06899 -0.07445,3.098613 -0.07445,3.098613 -8.710038,0.07639 c -6.020323,0.0528 -8.802127,0.168576 -9.008246,0.37492 -0.221221,0.221463 -0.220922,1.109436 0.0012,3.439583 0.164653,1.727578 0.360074,3.34777 0.434269,3.600428 0.123895,0.421901 0.829648,0.465071 8.651039,0.529167 l 8.516136,0.06979 0.07454,3.108854 0.07454,3.108854 -8.012042,0.0041 c -4.406624,0.0022 -8.180087,0.110428 -8.385476,0.240445 -0.316439,0.200315 -0.326054,0.751371 -0.063,3.610652 0.170739,1.855843 0.44266,3.533582 0.604267,3.728304 0.233184,0.280973 1.898161,0.354048 8.066644,0.354048 h 7.772811 v 5.027083 c 0,4.516157 -0.04483,5.027084 -0.441105,5.027084 -0.639416,0 -6.530751,-1.597708 -6.786052,-1.840352 -0.118634,-0.112752 -0.317319,-1.288328 -0.441522,-2.61239 -0.124203,-1.324062 -0.302056,-2.530732 -0.395229,-2.681489 -0.103228,-0.167026 -1.554996,-0.274103 -3.716356,-0.274103 -3.114583,0 -3.574815,0.05644 -3.775529,0.463021 -0.256417,0.519412 0.609414,10.897645 0.934665,11.20331 0.110735,0.104069 2.642118,0.86164 5.625295,1.683491 2.983177,0.821852 6.22763,1.73127 7.209896,2.02093 l 1.785937,0.526656 v 3.119699 c 0,2.876664 0.08894,3.484446 0.507119,3.465476 0.08489,-0.0039 4.112726,-1.114661 8.950754,-2.468462 z"
         id="path2149" />
    </g>
  </g>
</svg>
