<?xml version="1.0" encoding="UTF-8" standalone="no"?>
<svg
   xmlns:dc="http://purl.org/dc/elements/1.1/"
   xmlns:cc="http://creativecommons.org/ns#"
   xmlns:rdf="http://www.w3.org/1999/02/22-rdf-syntax-ns#"
   xmlns:svg="http://www.w3.org/2000/svg"
   xmlns="http://www.w3.org/2000/svg"
   xmlns:xlink="http://www.w3.org/1999/xlink"
   xmlns:sodipodi="http://sodipodi.sourceforge.net/DTD/sodipodi-0.dtd"
   xmlns:inkscape="http://www.inkscape.org/namespaces/inkscape"
   width="362mm"
   height="150mm"
   viewBox="0 0 362 150"
   version="1.1"
   id="svg2146"
   inkscape:version="1.0.1 (3bc2e813f5, 2020-09-07)"
   sodipodi:docname="java.svg">
  <title
     id="title1091">Colored Badge Template</title>
  <defs
     id="defs2140">
    <linearGradient
       inkscape:collect="always"
       id="linearGradient1103">
      <stop
         style="stop-color:#800000;stop-opacity:1"
         offset="0"
         id="stop1099" />
      <stop
         style="stop-color:#ff0000;stop-opacity:1"
         offset="1"
         id="stop1101" />
    </linearGradient>
    <linearGradient
       inkscape:collect="always"
       id="Text_Background_Gradient-7">
      <stop
         style="stop-color:#000000;stop-opacity:1"
         offset="0"
         id="stop1022" />
      <stop
         style="stop-color:#404040;stop-opacity:1"
         offset="1"
         id="stop1024" />
    </linearGradient>
    <linearGradient
       inkscape:collect="always"
       xlink:href="#Text_Background_Gradient-7"
       id="linearGradient1030"
       gradientUnits="userSpaceOnUse"
       x1="-8.5265128e-14"
       y1="150"
       x2="-8.5265128e-14"
       y2="0"
       gradientTransform="scale(0.73080575,1)" />
    <linearGradient
       inkscape:collect="always"
       xlink:href="#linearGradient1103"
       id="linearGradient1038"
       x1="-8.5265128e-14"
       y1="150"
       x2="-8.5265128e-14"
       y2="0"
       gradientUnits="userSpaceOnUse" />
    <linearGradient
       inkscape:collect="always"
       xlink:href="#linearGradient1103"
       id="linearGradient1038-0"
       x1="-8.5265128e-14"
       y1="150"
       x2="-8.5265128e-14"
       y2="0"
       gradientUnits="userSpaceOnUse"
       gradientTransform="matrix(0.17738398,0,0,1,123.3924,0)" />
  </defs>
  <sodipodi:namedview
     id="base"
     pagecolor="#ffffff"
     bordercolor="#666666"
     borderopacity="1.0"
     inkscape:pageopacity="0.0"
     inkscape:pageshadow="2"
     inkscape:zoom="0.32350236"
     inkscape:cx="320.73524"
     inkscape:cy="582.33292"
     inkscape:document-units="mm"
     inkscape:current-layer="layer1"
     inkscape:document-rotation="0"
     showgrid="false"
     inkscape:snap-bbox="true"
     inkscape:window-width="1920"
     inkscape:window-height="1017"
     inkscape:window-x="-8"
     inkscape:window-y="-8"
     inkscape:window-maximized="1" />
  <metadata
     id="metadata2143">
    <rdf:RDF>
      <cc:Work
         rdf:about="">
        <dc:format>image/svg+xml</dc:format>
        <dc:type
           rdf:resource="http://purl.org/dc/dcmitype/StillImage" />
        <dc:title>Colored Badge Template</dc:title>
      </cc:Work>
    </rdf:RDF>
  </metadata>
  <g
     inkscape:label="Text Background"
     inkscape:groupmode="layer"
     id="layer1">
    <rect
       style="opacity:0.996;fill:url(#linearGradient1030);fill-opacity:1;stroke-width:4.5026;stroke-linecap:square;paint-order:stroke fill markers"
       id="rect7"
       width="362"
       height="150"
       x="-8.5265128e-14"
       y="0"
       ry="15" />
    <text
       xml:space="preserve"
       style="font-style:normal;font-weight:normal;font-size:67.3684px;line-height:1.25;font-family:sans-serif;fill:#ffffff;fill-opacity:1;stroke:none;stroke-width:0.350875"
       x="183.55263"
       y="98.980247"
       id="text13-8"><tspan
         sodipodi:role="line"
         id="tspan11-2"
         x="183.55263"
         y="98.980247"
         style="font-size:67.3684px;fill:#ffffff;stroke-width:0.350875">Java</tspan></text>
  </g>
  <g
     inkscape:groupmode="layer"
     id="layer4"
     inkscape:label="Text" />
  <g
     inkscape:groupmode="layer"
     id="layer3"
     inkscape:label="Logo Background">
    <rect
       style="opacity:0.996;fill:url(#linearGradient1038);fill-opacity:1;stroke-width:2.89838;stroke-linecap:square;paint-order:stroke fill markers"
       id="rect7-3"
       width="150"
       height="150"
       x="-8.6153307e-14"
       y="2.8421709e-14"
       ry="15" />
    <rect
       style="opacity:0.996;fill:url(#linearGradient1038-0);fill-opacity:1;stroke-width:1.22071;stroke-linecap:square;paint-order:stroke fill markers"
       id="rect7-3-0"
       width="26.607597"
       height="150"
       x="123.3924"
       y="0" />
  </g>
  <g
     inkscape:groupmode="layer"
     id="layer2"
     inkscape:label="Logo">
    <g
       id="g146"
       transform="matrix(0.97725893,0,0,0.97726341,0.03771626,1.9593312)"
       style="fill:#ffffff">
      <g
         id="g158"
         transform="matrix(0.48861452,0,0,0.48861452,43.653909,43.908812)"
         style="fill:#ffffff">
        <path
           style="fill:#ffffff;stroke-width:0.264583"
           d="m 54.02284,167.68508 c -13.20377,-0.70786 -21.27508,-1.57614 -27.78747,-2.98928 -2.7628,-0.59951 -5.36302,-1.34335 -5.21463,-1.49174 0.0605,-0.0605 2.12318,0.1269 4.58368,0.4165 40.69879,4.79033 93.72809,0.007 113.72625,-10.25898 1.29852,-0.66657 2.84633,-1.58142 3.43958,-2.03301 1.77105,-1.34814 1.81464,-1.3561 1.35119,-0.24689 -0.56827,1.36005 -2.04508,3.1082 -3.81904,4.52072 -1.8369,1.46264 -6.9346,3.98711 -10.57025,5.23458 -9.94785,3.4133 -25.39561,5.75307 -44.62077,6.7584 -4.43178,0.23175 -27.21279,0.29748 -31.08854,0.0897 z M 41.58743,157.51327 c -13.10534,-0.60623 -29.65202,-2.30478 -41.14270958,-4.2234 -5.92448002,-0.98921 -8.91997002,-2.07103 -10.31055002,-3.72364 -1.3285004,-1.57884 -0.4609804,-3.44877 2.61995,-5.64728 5.71234,-4.07624 17.8249596,-7.86196 24.9224696,-7.78937 2.89135,0.0296 3.23345,0.37815 0.73034,0.74416 -4.34909,0.63592 -11.0137196,2.83403 -13.6371896,4.49779 -4.73018998,2.99979 -3.18838,5.14405 5.3322696,7.4158 17.99239,4.79709 60.06076,5.63301 93.13333,1.85062 21.24378,-2.42958 30.94302,-5.84105 30.37756,-10.68457 -0.0598,-0.51259 -0.026,-0.93198 0.0752,-0.93198 0.43717,0 1.82637,1.92888 1.82637,2.53589 0,4.45307 -12.40342,9.46695 -31.35313,12.67397 -9.90633,1.67654 -20.56904,2.76835 -32.27916,3.30522 -6.67006,0.3058 -23.46033,0.29294 -30.29479,-0.0232 z M 56.2718,137.2715 c -15.04417,-1.16701 -26.59568,-5.54485 -26.58963,-10.07706 0.002,-1.68732 1.89244,-3.43718 5.26953,-4.8783 2.25208,-0.96105 2.46314,-0.9603 1.98057,0.007 -0.96406,1.93251 1.19612,3.57873 5.72838,4.36546 5.61013,0.97382 11.11171,1.34561 19.82886,1.34 9.31403,-0.006 12.09984,-0.25775 21.92867,-1.98166 l 4.33422,-0.76019 5.24668,2.56784 c 2.88568,1.41231 5.25137,2.63103 5.2571,2.70826 0.0137,0.18486 -0.99384,0.56982 -5.21693,1.99329 -5.80286,1.95597 -12.14529,3.35839 -19.11432,4.22652 -3.15333,0.39281 -15.66432,0.72068 -18.65313,0.48883 z m -7.4896,-23.65913 c -15.83078,-1.23097 -26.12312,-4.92436 -25.34098,-9.09355 0.29808,-1.5889 2.71232,-3.56541 6.23249,-5.10248 2.51869,-1.09977 2.8582,-1.11334 2.12593,-0.085 -1.43737,2.01859 -0.82784,3.80469 1.718,5.03424 1.85839,0.89754 3.2668,1.16515 8.99583,1.7093 16.5413,1.57111 30.72917,0.94506 48.15416,-2.12482 2.0373,-0.35892 3.94792,-0.70717 4.24583,-0.77389 0.36697,-0.0822 1.17569,0.35568 2.50757,1.35763 1.08125,0.81341 2.71274,1.8472 3.62553,2.29732 0.91279,0.45012 1.65962,0.89886 1.65962,0.9972 0,0.19697 -2.58894,0.92423 -6.91291,1.94194 -5.96984,1.40508 -15.44587,2.8867 -22.98501,3.5938 -4.01073,0.37617 -20.22628,0.54373 -24.02606,0.24826 z m 64.77189,-1.95143 c 0,-0.0596 0.92274,-0.61115 2.05052,-1.22566 5.86155,-3.19381 12.49947,-8.26156 15.76452,-12.03549 4.65754,-5.38346 6.42225,-10.91933 4.9851,-15.6382 -1.61632,-5.30715 -6.39662,-8.96324 -12.15565,-9.29696 -1.93119,-0.11191 -4.55888,0.18928 -5.84264,0.66969 -0.37565,0.14058 -0.38695,0.10264 -0.0814,-0.27318 1.03438,-1.27221 6.59693,-2.43855 10.62538,-2.22789 9.15751,0.47888 15.875,6.69641 15.875,14.6935 0,4.61174 -3.1487,10.29514 -7.87582,14.21587 -5.00533,4.15147 -10.75586,7.14665 -19.09387,9.94507 -3.72799,1.2512 -4.25114,1.39559 -4.25114,1.17325 z M 39.47076,91.2189 C 28.15363,90.80622 17.47972,89.56794 12.29946,88.06676 8.3085204,86.91023 6.6624304,85.87758 6.6624304,84.53045 c 0,-1.07722 1.12367,-1.93521 4.8947896,-3.73745 6.09783,-2.9142 13.63143,-5.25615 20.34785,-6.32547 3.50065,-0.55734 7.24562,-0.94626 7.03652,-0.73076 -0.0728,0.075 -1.79916,0.63547 -3.83645,1.24549 -2.0373,0.61003 -5.22338,1.70511 -7.08018,2.4335 -7.07569,2.77566 -8.83803,5.10317 -5.22295,6.89787 3.18487,1.58112 9.35271,2.29711 21.56354,2.5032 19.21371,0.32428 40.53456,-1.20578 61.11875,-4.38611 1.74625,-0.26981 3.21411,-0.45699 3.26192,-0.41597 0.0478,0.041 -0.48798,0.40018 -1.19063,0.79814 -0.70264,0.39795 -2.18658,1.24518 -3.29764,1.88272 -2.25979,1.2967 -5.52578,2.12871 -13.8549,3.5295 -14.12083,2.37484 -34.71276,3.58523 -50.93229,2.99379 z"
           id="path150" />
        <path
           style="fill:#ffffff;stroke-width:0.264583"
           d="m 76.1392,76.923513 c 2.70254,-4.1458 3.34293,-5.81087 3.5173,-9.14529 0.21917,-4.19076 -0.64991,-6.40121 -4.32578,-11.00243 -4.443,-5.56148 -6.89088,-9.91547 -8.08485,-14.38041 -0.79466,-2.97164 -0.84579,-8.00055 -0.10762,-10.58333 2.92845,-10.24629 13.30244,-19.19676 30.77716,-26.5539428 3.84166,-1.6174 11.12979,-4.19729 11.50447,-4.0724 0.13229,0.0441 -1.70076,1.26783 -4.07344,2.7194 C 89.94338,13.328483 81.02546,21.326133 78.53095,27.953443 c -2.02864,5.3896 -0.6875,9.79058 5.73138,18.80757 1.76105,2.47385 3.47854,5.09323 3.81665,5.82083 2.37454,5.11002 1.7699,10.2233 -1.8293,15.46988 -1.78582,2.60321 -6.67946,7.16255 -9.83415,9.16237 l -0.79375,0.50317 z M 59.43756,65.877163 C 43.5181,50.775263 37.18118,40.401633 38.42268,31.475523 39.4547,24.055613 44.53322,18.106373 61.20199,4.7906102 66.22246,0.78004024 71.63171,-3.6799298 73.22255,-5.1204298 83.6013,-14.51836 88.45407,-23.78361 88.45407,-34.2015 c 0,-2.22807 -0.33976,-5.75055 -0.68905,-7.14375 -0.22017,-0.87817 0.89247,0.5549 1.74547,2.24816 1.79979,3.57267 2.83602,8.82833 2.50415,12.7008 -1.05811,12.34684 -9.36128,24.5489102 -25.65328,37.69924 -4.29145,3.463913 -7.73955,6.659773 -10.10662,9.367283 -8.43347,9.64641 -9.95105,18.70088 -4.86077,29.0012 1.55709,3.15079 2.61995,4.83455 8.51785,13.49375 3.38338,4.96741 4.63308,7.01145 4.28672,7.01145 -0.12581,0 -2.26824,-1.93476 -4.76098,-4.29947 z"
           id="path148"
           sodipodi:nodetypes="ssssssscssssscsssssssssssssss" />
      </g>
    </g>
  </g>
</svg>
