<?xml version="1.0" encoding="UTF-8" standalone="no"?>
<svg
   xmlns:dc="http://purl.org/dc/elements/1.1/"
   xmlns:cc="http://creativecommons.org/ns#"
   xmlns:rdf="http://www.w3.org/1999/02/22-rdf-syntax-ns#"
   xmlns:svg="http://www.w3.org/2000/svg"
   xmlns="http://www.w3.org/2000/svg"
   xmlns:xlink="http://www.w3.org/1999/xlink"
   xmlns:sodipodi="http://sodipodi.sourceforge.net/DTD/sodipodi-0.dtd"
   xmlns:inkscape="http://www.inkscape.org/namespaces/inkscape"
   width="491mm"
   height="150mm"
   viewBox="0 0 491 150"
   version="1.1"
   id="svg2146"
   inkscape:version="1.0.1 (3bc2e813f5, 2020-09-07)"
   sodipodi:docname="javascript.svg">
  <title
     id="title1091">Colored Badge Template</title>
  <defs
     id="defs2140">
    <linearGradient
       inkscape:collect="always"
       id="linearGradient2104">
      <stop
         style="stop-color:#d9b82c;stop-opacity:1"
         offset="0"
         id="stop2100" />
      <stop
         style="stop-color:#fcd538;stop-opacity:1"
         offset="1"
         id="stop2102" />
    </linearGradient>
    <linearGradient
       inkscape:collect="always"
       id="Text_Background_Gradient-7">
      <stop
         style="stop-color:#000000;stop-opacity:1"
         offset="0"
         id="stop1022" />
      <stop
         style="stop-color:#404040;stop-opacity:1"
         offset="1"
         id="stop1024" />
    </linearGradient>
    <linearGradient
       inkscape:collect="always"
       xlink:href="#Text_Background_Gradient-7"
       id="linearGradient1030"
       gradientUnits="userSpaceOnUse"
       x1="-8.5265128e-14"
       y1="150"
       x2="-8.5265128e-14"
       y2="0"
       gradientTransform="scale(0.99123087,1)" />
    <linearGradient
       inkscape:collect="always"
       xlink:href="#linearGradient2104"
       id="linearGradient1038"
       x1="-8.5265128e-14"
       y1="150"
       x2="-8.5265128e-14"
       y2="0"
       gradientUnits="userSpaceOnUse"
       gradientTransform="translate(6.086914e-6,-1.5253906e-5)" />
    <linearGradient
       inkscape:collect="always"
       xlink:href="#linearGradient2104"
       id="linearGradient1038-0"
       x1="-8.5265128e-14"
       y1="150"
       x2="-8.5265128e-14"
       y2="0"
       gradientUnits="userSpaceOnUse"
       gradientTransform="matrix(0.17738398,0,0,1,123.3924,0)" />
  </defs>
  <sodipodi:namedview
     id="base"
     pagecolor="#ffffff"
     bordercolor="#666666"
     borderopacity="1.0"
     inkscape:pageopacity="0.0"
     inkscape:pageshadow="2"
     inkscape:zoom="0.22875072"
     inkscape:cx="913.34608"
     inkscape:cy="167.745"
     inkscape:document-units="mm"
     inkscape:current-layer="layer4"
     inkscape:document-rotation="0"
     showgrid="false"
     inkscape:snap-bbox="true"
     inkscape:window-width="1920"
     inkscape:window-height="1017"
     inkscape:window-x="-8"
     inkscape:window-y="-8"
     inkscape:window-maximized="1" />
  <metadata
     id="metadata2143">
    <rdf:RDF>
      <cc:Work
         rdf:about="">
        <dc:format>image/svg+xml</dc:format>
        <dc:type
           rdf:resource="http://purl.org/dc/dcmitype/StillImage" />
        <dc:title>Colored Badge Template</dc:title>
      </cc:Work>
    </rdf:RDF>
  </metadata>
  <g
     inkscape:label="Text Background"
     inkscape:groupmode="layer"
     id="layer1">
    <rect
       style="opacity:0.996;fill:url(#linearGradient1030);fill-opacity:1;stroke-width:5.24386;stroke-linecap:square;paint-order:stroke fill markers"
       id="rect7"
       width="491"
       height="150"
       x="-8.5265128e-14"
       y="0"
       ry="15.000002" />
  </g>
  <g
     inkscape:groupmode="layer"
     id="layer4"
     inkscape:label="Text">
    <text
       xml:space="preserve"
       style="font-style:normal;font-weight:normal;font-size:53.112px;line-height:1.25;font-family:sans-serif;fill:#ffffff;fill-opacity:1;stroke:none;stroke-width:0.276623"
       x="183.85892"
       y="93.548668"
       id="text13"><tspan
         sodipodi:role="line"
         id="tspan11"
         x="183.85892"
         y="93.548668"
         style="font-size:53.112px;fill:#ffffff;stroke-width:0.276623">JavaScript</tspan></text>
  </g>
  <g
     inkscape:groupmode="layer"
     id="layer3"
     inkscape:label="Logo Background">
    <rect
       style="opacity:0.996;fill:url(#linearGradient1038);fill-opacity:1;stroke-width:2.89838;stroke-linecap:square;paint-order:stroke fill markers"
       id="rect7-3"
       width="150"
       height="150"
       x="6.6757202e-06"
       y="-1.5258789e-05"
       ry="15" />
    <rect
       style="opacity:0.996;fill:url(#linearGradient1038-0);fill-opacity:1;stroke-width:1.22071;stroke-linecap:square;paint-order:stroke fill markers"
       id="rect7-3-0"
       width="26.607597"
       height="150"
       x="123.3924"
       y="0" />
  </g>
  <g
     inkscape:groupmode="layer"
     id="layer2"
     inkscape:label="Logo">
    <g
       id="g2088"
       transform="matrix(1.2817443,0,0,1.2817443,-292.88811,-198.4825)"
       style="fill:#ffffff">
      <path
         style="fill:#ffffff;stroke-width:0.264583"
         d="m 283.23866,251.46326 c -1.67349,-0.48666 -7.6687,-2.18853 -13.32268,-3.78192 -5.65399,-1.5934 -10.40354,-3.02065 -10.55456,-3.17167 -0.15104,-0.15104 -1.32547,-12.03702 -2.61029,-26.41773 -1.28464,-14.37873 -2.68865,-30.0071 -3.12004,-34.7297 -0.43138,-4.7226 -0.72568,-8.68143 -0.65401,-8.79739 0.17549,-0.28396 68.82214,-0.27133 68.99767,0.0127 0.076,0.12295 -0.5645,8.07037 -1.4233,17.66094 -0.8588,9.59056 -2.22737,24.99786 -3.04127,34.23843 -0.81389,9.24058 -1.537,17.0655 -1.60691,17.38872 -0.0699,0.32322 -0.33406,0.69611 -0.58701,0.82864 -1.02709,0.53816 -27.27865,7.70967 -28.12319,7.68282 -0.50144,-0.0159 -2.28092,-0.42716 -3.95441,-0.91383 z m 18.25625,-3.30571 c 7.3488,-2.0532 13.49701,-3.872 13.66269,-4.04176 0.17948,-0.18391 0.69043,-4.69337 1.26412,-11.15659 3.79617,-42.76796 4.9341,-55.4708 5.07806,-56.68697 l 0.16444,-1.38907 h -34.18657 -34.18656 l 0.1624,1.25677 c 0.16726,1.29431 1.19168,12.67646 4.28042,47.55886 1.02048,11.52468 1.90287,20.23929 2.06712,20.41512 0.37022,0.39631 27.41103,8.02925 27.93555,7.8855 0.21828,-0.0598 6.40953,-1.78866 13.75833,-3.84186 z m -17.52595,-12.61869 c -1.61964,-0.36549 -19.35929,-5.37759 -19.48854,-5.50623 -0.21949,-0.21843 -0.37256,-6.90193 -0.17601,-7.68503 0.10311,-0.41082 0.34981,-0.63319 0.70248,-0.63319 0.29896,0 3.10542,0.71438 6.23657,1.5875 3.13114,0.87313 5.85999,1.5875 6.06411,1.5875 0.31408,0 0.38157,-2.73461 0.43912,-17.79323 l 0.068,-17.79323 3.41888,-0.0744 c 2.55746,-0.0556 3.47306,0.011 3.63396,0.26458 0.11831,0.18643 0.21692,10.534 0.21915,22.9946 0.004,23.76822 0.0265,23.30932 -1.11773,23.05111 z m 0.59262,-23.23277 v -22.60626 h -3.175 -3.175 v 17.73539 c 0,15.87786 -0.0435,17.75209 -0.41571,17.89491 -0.22865,0.0877 -3.09753,-0.57922 -6.3753,-1.48211 -3.27777,-0.90291 -6.12679,-1.57748 -6.33116,-1.49905 -0.29254,0.11225 -0.37072,0.86196 -0.36753,3.52433 0.002,1.85996 0.0915,3.51132 0.19844,3.6697 0.21861,0.32386 19.13328,5.65646 19.44282,5.48151 0.10914,-0.0617 0.19844,-10.28498 0.19844,-22.71842 z m 5.60916,23.11374 c -0.36279,-0.3628 -0.45142,-7.52863 -0.1,-8.08211 0.23629,-0.3721 0.8757,-0.56668 7.65852,-2.33056 2.65835,-0.69131 4.99598,-1.38756 5.19475,-1.54723 0.24284,-0.19508 0.41762,-1.2233 0.53281,-3.13458 0.1519,-2.52037 0.12241,-2.84427 -0.25891,-2.84427 -0.23667,0 -3.05637,0.47625 -6.26599,1.05833 -6.62871,1.20216 -6.69981,1.20873 -6.91812,0.63982 -0.2098,-0.54673 -0.2098,-29.04332 0,-29.59005 0.14291,-0.3724 1.38016,-0.41852 11.22918,-0.41852 6.85832,0 11.12885,0.0975 11.22704,0.25641 0.21409,0.34639 -0.35679,7.13217 -0.66252,7.87519 -0.24204,0.58825 -0.27596,0.59131 -7.32842,0.66146 l -7.08525,0.0705 -0.0714,5.6224 -0.0714,5.6224 0.73287,-0.001 c 0.40307,-6.5e-4 3.05458,-0.29781 5.89224,-0.6604 5.95379,-0.76077 6.84317,-0.79853 7.03498,-0.2987 0.0766,0.19953 -0.22483,4.94892 -0.66976,10.55422 -0.44494,5.6053 -0.80897,10.41992 -0.80897,10.69916 0,1.15139 -0.56937,1.37122 -9.78958,3.77979 -5.02047,1.31148 -9.13408,2.38469 -9.14136,2.38492 -0.007,2.2e-4 -0.1561,-0.14248 -0.33073,-0.3171 z m 9.78212,-2.61327 c 4.60891,-1.19449 8.50646,-2.25006 8.66124,-2.34571 0.37071,-0.22912 2.04979,-21.65028 1.72088,-21.95455 -0.13261,-0.12267 -2.86049,0.11502 -6.06195,0.5282 -3.20145,0.41318 -6.14825,0.75628 -6.54843,0.76245 l -0.72761,0.0112 v -6.05711 c 0,-5.27921 0.0538,-6.07773 0.41852,-6.2177 0.23018,-0.0883 3.43784,-0.1606 7.12813,-0.1606 3.75221,0 6.7753,-0.10628 6.85864,-0.24111 0.082,-0.13261 0.28504,-1.81143 0.4513,-3.73071 0.25446,-2.93746 0.24382,-3.52663 -0.0673,-3.72359 -0.40978,-0.25947 -20.32013,-0.33679 -20.9854,-0.0815 -0.37467,0.14377 -0.41852,1.69632 -0.41852,14.81666 0,14.61444 0.002,14.65607 0.54418,14.65607 0.29929,0 3.28083,-0.49112 6.62563,-1.09138 3.3448,-0.60026 6.15625,-1.01659 6.24765,-0.92518 0.24381,0.2438 0.0786,6.0157 -0.18631,6.51076 -0.15062,0.28145 -2.19219,0.9353 -6.13315,1.96429 -3.24906,0.84832 -6.17527,1.64426 -6.50269,1.76874 -0.57783,0.21969 -0.59531,0.33399 -0.59531,3.89296 0,2.01664 0.0807,3.7473 0.1793,3.84591 0.0986,0.0986 0.3665,0.12629 0.59531,0.0615 0.22881,-0.0648 4.18694,-1.09512 8.79584,-2.28962 z"
         id="path2094" />
      <path
         style="fill:#ffffff;stroke-width:0.264583"
         d="m 287.76882,246.51166 c -0.44238,-0.44239 -0.42199,-65.31209 0.0207,-65.75475 0.46963,-0.46962 27.28575,-0.4568 27.66773,0.0132 0.18288,0.22503 0.1517,1.59912 -0.0976,4.29948 -0.20148,2.18281 -1.32105,14.74391 -2.48791,27.91354 -1.16687,13.16964 -2.19559,24.75111 -2.28606,25.7366 -0.0905,0.9855 -0.25966,1.85064 -0.376,1.92254 -0.11634,0.0719 -5.01202,1.44141 -10.8793,3.04334 -5.86727,1.60194 -10.80209,2.95992 -10.96626,3.01773 -0.16417,0.0578 -0.43206,-0.0285 -0.59531,-0.19171 z m 11.87401,-13.15965 c 9.22021,-2.40857 9.78958,-2.6284 9.78958,-3.77979 0,-0.27924 0.36403,-5.09386 0.80897,-10.69916 0.44493,-5.6053 0.74632,-10.35469 0.66976,-10.55422 -0.19181,-0.49983 -1.08119,-0.46207 -7.03498,0.2987 -2.83766,0.36259 -5.48917,0.65975 -5.89224,0.66036 l -0.73287,0.001 0.0714,-5.62239 0.0714,-5.6224 7.08525,-0.0705 c 7.05246,-0.0702 7.08638,-0.0732 7.32842,-0.66146 0.30573,-0.74302 0.87661,-7.5288 0.66252,-7.87519 -0.0982,-0.15884 -4.36872,-0.25637 -11.22704,-0.25637 -9.84902,0 -11.08627,0.0461 -11.22918,0.41852 -0.2098,0.54673 -0.2098,29.04332 0,29.59005 0.21831,0.56891 0.28941,0.56234 6.91812,-0.63982 3.20962,-0.58208 6.02932,-1.05833 6.26599,-1.05833 0.38132,0 0.41081,0.3239 0.25891,2.84427 -0.11519,1.91128 -0.28997,2.9395 -0.53281,3.13458 -0.19877,0.15967 -2.5364,0.85592 -5.19475,1.54723 -6.78282,1.76388 -7.42223,1.95846 -7.65852,2.33056 -0.35146,0.55348 -0.26283,7.71931 0.1,8.08211 0.17463,0.17462 0.32346,0.31732 0.33073,0.3171 0.007,-2.3e-4 4.12089,-1.07344 9.14136,-2.38492 z"
         id="path2092" />
      <path
         style="fill:#ffffff;stroke-width:0.264583"
         d="m 273.71366,248.26444 c -7.49432,-2.11406 -13.755,-3.9818 -13.91263,-4.15053 -0.16425,-0.17583 -1.04664,-8.89044 -2.06712,-20.41512 -3.08874,-34.8824 -4.11316,-46.26455 -4.28042,-47.55886 l -0.1624,-1.25677 h 34.18656 34.18657 l -0.16444,1.38907 c -0.14396,1.21617 -1.28189,13.91901 -5.07806,56.68697 -0.57369,6.46322 -1.08464,10.97268 -1.26412,11.15659 -0.22548,0.23104 -15.05091,4.49339 -27.42102,7.88362 -0.21828,0.0598 -6.5286,-1.62092 -14.02292,-3.73497 z m 25.61673,-4.5788 c 5.86728,-1.60193 10.76296,-2.97144 10.8793,-3.04334 0.11634,-0.0719 0.28554,-0.93704 0.376,-1.92254 0.0905,-0.98549 1.11919,-12.56696 2.28606,-25.7366 1.16686,-13.16963 2.28643,-25.73073 2.48791,-27.91354 0.24926,-2.70036 0.28044,-4.07445 0.0976,-4.29948 -0.38199,-0.47003 -27.19811,-0.48285 -27.66774,-0.0132 -0.44266,0.44266 -0.46305,65.31236 -0.0207,65.75475 0.16325,0.16325 0.43114,0.24952 0.59531,0.19171 0.16417,-0.0578 5.09899,-1.41579 10.96626,-3.01773 z m -14.2437,-31.19789 c -0.002,-12.4606 -0.10084,-22.80817 -0.21915,-22.9946 -0.1609,-0.25357 -1.0765,-0.32023 -3.63396,-0.26458 l -3.41888,0.0744 -0.068,17.79323 c -0.0575,15.05862 -0.12504,17.79323 -0.43912,17.79323 -0.20412,0 -2.93297,-0.71437 -6.06411,-1.5875 -3.13115,-0.87312 -5.93761,-1.5875 -6.23657,-1.5875 -0.35267,0 -0.59937,0.22237 -0.70248,0.63319 -0.19655,0.7831 -0.0435,7.4666 0.17601,7.68503 0.12925,0.12864 17.8689,5.14074 19.48854,5.50623 1.14423,0.25821 1.12198,0.71711 1.11773,-23.05111 z"
         id="path2090" />
    </g>
  </g>
</svg>
