<?xml version="1.0" encoding="UTF-8" standalone="no"?>
<svg
   xmlns:dc="http://purl.org/dc/elements/1.1/"
   xmlns:cc="http://creativecommons.org/ns#"
   xmlns:rdf="http://www.w3.org/1999/02/22-rdf-syntax-ns#"
   xmlns:svg="http://www.w3.org/2000/svg"
   xmlns="http://www.w3.org/2000/svg"
   xmlns:xlink="http://www.w3.org/1999/xlink"
   xmlns:sodipodi="http://sodipodi.sourceforge.net/DTD/sodipodi-0.dtd"
   xmlns:inkscape="http://www.inkscape.org/namespaces/inkscape"
   width="447mm"
   height="150mm"
   viewBox="0 0 447 150"
   version="1.1"
   id="svg2146"
   inkscape:version="1.0.1 (3bc2e813f5, 2020-09-07)"
   sodipodi:docname="mysql.svg">
  <title
     id="title1091">Colored Badge Template</title>
  <defs
     id="defs2140">
    <linearGradient
       inkscape:collect="always"
       id="linearGradient1508">
      <stop
         style="stop-color:#de851b;stop-opacity:1"
         offset="0"
         id="stop1504" />
      <stop
         style="stop-color:#ff991f;stop-opacity:1"
         offset="1"
         id="stop1506" />
    </linearGradient>
    <linearGradient
       inkscape:collect="always"
       id="linearGradient2974">
      <stop
         style="stop-color:#000000;stop-opacity:1"
         offset="0"
         id="stop2970" />
      <stop
         style="stop-color:#404040;stop-opacity:1"
         offset="1"
         id="stop2972" />
    </linearGradient>
    <linearGradient
       inkscape:collect="always"
       xlink:href="#linearGradient2974"
       id="linearGradient1030"
       gradientUnits="userSpaceOnUse"
       x1="-8.5265128e-14"
       y1="150"
       x2="-8.5265128e-14"
       y2="0"
       gradientTransform="scale(0.90240364,1)" />
    <linearGradient
       inkscape:collect="always"
       xlink:href="#linearGradient1508"
       id="linearGradient1038"
       x1="-8.5265128e-14"
       y1="150"
       x2="-8.5265128e-14"
       y2="0"
       gradientUnits="userSpaceOnUse"
       gradientTransform="translate(6.086914e-6,-1.5253906e-5)" />
    <linearGradient
       inkscape:collect="always"
       xlink:href="#linearGradient1508"
       id="linearGradient1038-0"
       x1="-8.5265128e-14"
       y1="150"
       x2="-8.5265128e-14"
       y2="0"
       gradientUnits="userSpaceOnUse"
       gradientTransform="matrix(0.17738398,0,0,1,123.3924,0)" />
  </defs>
  <sodipodi:namedview
     id="base"
     pagecolor="#ffffff"
     bordercolor="#666666"
     borderopacity="1.0"
     inkscape:pageopacity="0.0"
     inkscape:pageshadow="2"
     inkscape:zoom="0.22041347"
     inkscape:cx="507.44736"
     inkscape:cy="1533.442"
     inkscape:document-units="mm"
     inkscape:current-layer="layer3"
     inkscape:document-rotation="0"
     showgrid="false"
     inkscape:snap-bbox="true"
     inkscape:window-width="1920"
     inkscape:window-height="1017"
     inkscape:window-x="-8"
     inkscape:window-y="-8"
     inkscape:window-maximized="1" />
  <metadata
     id="metadata2143">
    <rdf:RDF>
      <cc:Work
         rdf:about="">
        <dc:format>image/svg+xml</dc:format>
        <dc:type
           rdf:resource="http://purl.org/dc/dcmitype/StillImage" />
        <dc:title>Colored Badge Template</dc:title>
      </cc:Work>
    </rdf:RDF>
  </metadata>
  <g
     inkscape:label="Text Background"
     inkscape:groupmode="layer"
     id="layer1">
    <rect
       style="opacity:0.996;fill:url(#linearGradient1030);fill-opacity:1;stroke-width:5.0034;stroke-linecap:square;paint-order:stroke fill markers"
       id="rect7"
       width="447"
       height="150"
       x="-8.5265128e-14"
       y="0"
       ry="15.000003" />
  </g>
  <g
     inkscape:groupmode="layer"
     id="layer4"
     inkscape:label="Text">
    <text
       xml:space="preserve"
       style="font-style:normal;font-weight:normal;font-size:67.3689px;line-height:1.25;font-family:sans-serif;fill:#ffffff;fill-opacity:1;stroke:none;stroke-width:0.350876"
       x="184.14452"
       y="98.980659"
       id="text13"><tspan
         sodipodi:role="line"
         id="tspan11"
         x="184.14452"
         y="98.980659"
         style="font-size:67.3689px;fill:#ffffff;stroke-width:0.350876">MySQL</tspan></text>
  </g>
  <g
     inkscape:groupmode="layer"
     id="layer3"
     inkscape:label="Logo Background">
    <rect
       style="opacity:0.996;fill:url(#linearGradient1038);fill-opacity:1;stroke-width:2.89838;stroke-linecap:square;paint-order:stroke fill markers"
       id="rect7-3"
       width="150"
       height="150"
       x="6.6757202e-06"
       y="-1.5258789e-05"
       ry="15" />
    <rect
       style="opacity:0.996;fill:url(#linearGradient1038-0);fill-opacity:1.0;stroke-width:1.22071;stroke-linecap:square;paint-order:stroke fill markers"
       id="rect7-3-0"
       width="26.607597"
       height="150"
       x="123.3924"
       y="0" />
  </g>
  <g
     inkscape:groupmode="layer"
     id="layer2"
     inkscape:label="Logo">
    <path
       style="fill:#0c4e66;fill-opacity:0.905882;stroke-width:0.192711"
       d="m 124.54374,122.53585 c -2.45687,-2.16889 -5.60406,-4.18194 -9.63306,-6.16165 -3.0363,-1.49194 -4.39102,-2.28757 -6.28029,-3.68846 -3.29324,-2.44192 -4.73493,-4.07411 -5.8744,-6.65067 -0.7591,-1.71645 -0.73768,-1.73974 2.65151,-2.88473 3.37644,-1.14068 5.21107,-1.45691 9.14877,-1.57698 3.79987,-0.11586 3.92285,-0.1596 3.08339,-1.09668 -0.42005,-0.4689 -4.70614,-3.467455 -9.16085,-6.408955 -2.26653,-1.49662 -4.86913,-2.61628 -9.141117,-3.93258 -1.08952,-0.3357 -2.38499,-0.81464 -2.87881,-1.0643 -1.61073,-0.81432 -3.0538,-3.04744 -5.54125,-8.57491 -0.8308,-1.84614 -2.29974,-5.02842 -3.26433,-7.07173 -0.96458,-2.0433 -2.15304,-4.73163 -2.64101,-5.97406 -4.61441,-11.74862 -15.65371,-23.43731 -27.546865,-29.16731 -3.895585,-1.87685 -5.20688,-2.22591 -9.34652,-2.48804 -2.211402,-0.14003 -3.784695,-0.3287 -4.143301,-0.49686 -0.317974,-0.14911 -1.118227,-0.73039 -1.77834,-1.29174 -1.568072,-1.33345 -3.570989,-2.46536 -6.599693,-3.72971 -3.093793,-1.29151 -4.166964,-1.51649 -5.221359,-1.0946 -1.962462,0.78522 -1.659697,3.04333 0.845465,6.30568 2.820964,3.67361 4.66508,6.36669 5.428245,7.9272 0.466513,0.95393 1.577724,3.94577 2.46936,6.64856 2.106241,6.38456 3.06642,8.29851 5.417068,10.79794 1.954785,2.07851 1.979471,2.84866 0.246888,7.70238 -1.373701,3.84833 -1.572065,5.06502 -1.570948,9.63558 7.29e-4,3.00477 0.08239,4.35545 0.341074,5.64161 0.677791,3.37 2.282449,7.13382 3.495483,8.19888 0.630295,0.55341 1.553508,0.96452 1.742208,0.77582 0.04184,-0.0418 0.261535,-1.58408 0.488217,-3.42722 0.435601,-3.54183 1.057958,-6.08102 1.844787,-7.52669 0.630621,-1.15866 2.707148,-3.75875 3.001873,-3.75875 0.128044,0 0.461487,0.65219 0.740986,1.44932 1.493054,4.25816 4.835757,10.78839 8.007892,15.64403 2.489553,3.8108 4.17415,5.950245 6.17981,7.848405 1.01632,0.96185 1.75797,1.74882 1.64811,1.74882 -0.32739,0 -1.96194,-1.29787 -3.50537,-2.78335 -0.79493,-0.7651 -2.139097,-1.96287 -2.987031,-2.661705 -1.771274,-1.45983 -4.454848,-4.1585 -5.763833,-5.79626 -0.494076,-0.61816 -1.598793,-2.52601 -2.454935,-4.23965 -1.671093,-3.34488 -1.658895,-3.3233 -1.799702,-3.1825 -0.124361,0.12436 -0.590015,2.64054 -0.973583,5.26077 -0.169931,1.16085 -0.437279,2.41829 -0.594107,2.79433 -0.438918,1.05243 -1.388847,1.91159 -2.467814,2.23201 -2.626735,0.78006 -5.295127,-1.21479 -7.484453,-5.59525 -2.463379,-4.92879 -3.25257,-12.72665 -1.89185,-18.69303 0.778325,-3.41274 1.410165,-5.83087 1.763373,-6.74864 0.204745,-0.532 0.372264,-1.11409 0.372264,-1.29352 0,-0.17943 -0.455281,-0.83667 -1.011736,-1.46055 -1.184735,-1.32826 -3.088531,-4.60828 -4.103882,-7.0705 -0.925364,-2.24401 -2.687066,-7.27273 -3.082644,-8.79931 -0.48862,-1.88565 -1.206991,-3.08794 -4.241896,-7.0994 -3.557269,-4.70191 -4.410127,-6.33753 -4.417156,-8.47132 -0.0058,-1.68874 0.556219,-3.12189 1.656719,-4.22638 1.099341,-1.10334 2.1138,-1.44727 4.216027,-1.42937 2.392714,0.0204 4.488551,0.63001 7.814779,2.27316 2.458244,1.21436 3.554901,1.91903 5.386016,3.46087 l 0.90351,0.76078 2.824322,0.17141 c 4.572079,0.27748 8.760089,1.47384 12.170842,3.47675 9.7779,5.74194 17.43587,12.83517 23.24866,21.53419 2.32681,3.48215 2.98785,4.70087 4.30616,7.93905 1.72828,4.24522 3.28799,7.69721 5.9413,13.14955 3.65236,7.50529 3.51804,7.3131 5.720697,8.18513 2.46895,0.97744 6.47542,2.86341 7.8684,3.70389 3.01261,1.81772 8.44121,5.88963 10.96231,8.22264 1.40872,1.303608 3.68565,4.203315 3.55925,4.532715 -0.15442,0.4024 -3.53635,1.25854 -6.53083,1.65329 -1.52689,0.20129 -3.57585,0.59082 -4.55324,0.86563 -0.97739,0.2748 -2.16498,0.55281 -2.63906,0.61779 -0.47409,0.065 -0.86199,0.2101 -0.86199,0.32248 0,0.44801 1.08568,1.72952 2.13079,2.51515 0.60779,0.45688 2.04637,1.37905 3.19685,2.04926 3.63509,2.11763 6.49017,4.54581 9.00544,7.65891 0.60537,0.74925 1.40225,1.5923 1.77084,1.87344 0.64478,0.49179 2.20836,3.18328 1.84928,3.18328 -0.0916,0 -0.74937,-0.5145 -1.46171,-1.14334 z M 49.027401,47.072545 c -0.480928,-0.95186 -1.274302,-2.19534 -1.763055,-2.76329 -1.24751,-1.44963 -1.356855,-1.69213 -0.827062,-1.83414 0.235949,-0.0632 0.867196,-0.11618 1.40277,-0.11763 1.270111,-0.004 2.400406,0.78955 3.103732,2.1775 0.45902,0.90584 0.479353,1.05161 0.274398,1.96744 -0.121961,0.54498 -0.467203,1.28361 -0.768864,1.64495 l -0.547509,0.65583 z"
       id="path1488" />
  </g>
</svg>
