<?xml version="1.0" encoding="UTF-8" standalone="no"?>
<svg
   xmlns:dc="http://purl.org/dc/elements/1.1/"
   xmlns:cc="http://creativecommons.org/ns#"
   xmlns:rdf="http://www.w3.org/1999/02/22-rdf-syntax-ns#"
   xmlns:svg="http://www.w3.org/2000/svg"
   xmlns="http://www.w3.org/2000/svg"
   xmlns:xlink="http://www.w3.org/1999/xlink"
   xmlns:sodipodi="http://sodipodi.sourceforge.net/DTD/sodipodi-0.dtd"
   xmlns:inkscape="http://www.inkscape.org/namespaces/inkscape"
   width="602mm"
   height="150mm"
   viewBox="0 0 602 150"
   version="1.1"
   id="svg2146"
   inkscape:version="1.0.1 (3bc2e813f5, 2020-09-07)"
   sodipodi:docname="postgresql.svg">
  <title
     id="title1091">Colored Badge Template</title>
  <defs
     id="defs2140">
    <linearGradient
       inkscape:collect="always"
       id="linearGradient2974">
      <stop
         style="stop-color:#000000;stop-opacity:1"
         offset="0"
         id="stop2970" />
      <stop
         style="stop-color:#404040;stop-opacity:1"
         offset="1"
         id="stop2972" />
    </linearGradient>
    <linearGradient
       inkscape:collect="always"
       xlink:href="#linearGradient2974"
       id="linearGradient1030"
       gradientUnits="userSpaceOnUse"
       x1="-8.5265128e-14"
       y1="150"
       x2="-8.5265128e-14"
       y2="0"
       gradientTransform="scale(1.2153177,1)" />
    <linearGradient
       inkscape:collect="always"
       xlink:href="#linearGradient1138"
       id="linearGradient1038"
       x1="-8.5265128e-14"
       y1="150"
       x2="-8.5265128e-14"
       y2="0"
       gradientUnits="userSpaceOnUse"
       gradientTransform="translate(6.086914e-6,-1.5253906e-5)" />
    <linearGradient
       inkscape:collect="always"
       xlink:href="#linearGradient1138"
       id="linearGradient1038-0"
       x1="-8.5265128e-14"
       y1="150"
       x2="-8.5265128e-14"
       y2="0"
       gradientUnits="userSpaceOnUse"
       gradientTransform="matrix(0.17738398,0,0,1,123.3924,0)" />
    <linearGradient
       inkscape:collect="always"
       id="linearGradient1138">
      <stop
         style="stop-color:#d3d3d3;stop-opacity:1"
         offset="0"
         id="stop1134" />
      <stop
         style="stop-color:#ffffff;stop-opacity:1"
         offset="1"
         id="stop1136" />
    </linearGradient>
  </defs>
  <sodipodi:namedview
     id="base"
     pagecolor="#ffffff"
     bordercolor="#666666"
     borderopacity="1.0"
     inkscape:pageopacity="0.0"
     inkscape:pageshadow="2"
     inkscape:zoom="0.22041347"
     inkscape:cx="507.44736"
     inkscape:cy="1533.442"
     inkscape:document-units="mm"
     inkscape:current-layer="layer3"
     inkscape:document-rotation="0"
     showgrid="false"
     inkscape:snap-bbox="true"
     inkscape:window-width="1920"
     inkscape:window-height="1017"
     inkscape:window-x="-8"
     inkscape:window-y="-8"
     inkscape:window-maximized="1" />
  <metadata
     id="metadata2143">
    <rdf:RDF>
      <cc:Work
         rdf:about="">
        <dc:format>image/svg+xml</dc:format>
        <dc:type
           rdf:resource="http://purl.org/dc/dcmitype/StillImage" />
        <dc:title>Colored Badge Template</dc:title>
      </cc:Work>
    </rdf:RDF>
  </metadata>
  <g
     inkscape:label="Text Background"
     inkscape:groupmode="layer"
     id="layer1">
    <rect
       style="opacity:0.996;fill:url(#linearGradient1030);fill-opacity:1;stroke-width:5.80644;stroke-linecap:square;paint-order:stroke fill markers"
       id="rect7"
       width="602"
       height="150"
       x="-8.5265128e-14"
       y="0"
       ry="15.000003" />
  </g>
  <g
     inkscape:groupmode="layer"
     id="layer4"
     inkscape:label="Text">
    <text
       xml:space="preserve"
       style="font-style:normal;font-weight:normal;font-size:67.3689px;line-height:1.25;font-family:sans-serif;fill:#ffffff;fill-opacity:1;stroke:none;stroke-width:0.350876"
       x="184.14452"
       y="98.980659"
       id="text13"><tspan
         sodipodi:role="line"
         id="tspan11"
         x="184.14452"
         y="98.980659"
         style="font-size:67.3689px;fill:#ffffff;stroke-width:0.350876">PostgreSQL</tspan></text>
  </g>
  <g
     inkscape:groupmode="layer"
     id="layer3"
     inkscape:label="Logo Background">
    <rect
       style="opacity:0.996;fill:url(#linearGradient1038);fill-opacity:1.0;stroke-width:2.89838;stroke-linecap:square;paint-order:stroke fill markers"
       id="rect7-3"
       width="150"
       height="150"
       x="6.6757202e-06"
       y="-1.5258789e-05"
       ry="15" />
    <rect
       style="opacity:0.996;fill:url(#linearGradient1038-0);fill-opacity:1.0;stroke-width:1.22071;stroke-linecap:square;paint-order:stroke fill markers"
       id="rect7-3-0"
       width="26.607597"
       height="150"
       x="123.3924"
       y="0" />
  </g>
  <g
     inkscape:groupmode="layer"
     id="layer2"
     inkscape:label="Logo">
    <g
       id="g1524"
       transform="matrix(0.30539686,0,0,0.30539686,23.143205,-50.980335)">
      <path
         style="fill:#336791;fill-opacity:1;stroke-width:0.264583"
         d="m 193.76153,581.32299 c 0.47555,-0.0589 1.18992,-0.0577 1.5875,0.003 0.39757,0.0603 0.008,0.10853 -0.86464,0.10705 -0.87312,-0.003 -1.19841,-0.0509 -0.72286,-0.10975 z m -6.07465,-0.34883 c -5.90602,-0.68868 -12.86779,-4.05805 -17.56447,-8.50085 -5.22926,-4.94657 -8.13186,-9.89515 -11.53506,-19.66587 -4.21999,-12.11578 -5.46501,-21.18791 -6.31695,-46.03015 -0.15457,-4.50711 -0.32051,-8.23421 -0.36875,-8.28246 -0.0482,-0.0482 -1.32155,0.34314 -2.82957,0.86974 -6.1586,2.15058 -11.57255,3.03974 -18.50854,3.03974 -5.33475,0 -8.30415,-0.29157 -13.46977,-1.32263 -7.8889,-1.57462 -14.30419,-4.52598 -18.647161,-8.57864 -0.869841,-0.8117 -1.666279,-1.47581 -1.769859,-1.47581 -0.103581,0 -1.059711,0.62508 -2.124736,1.38906 -6.040998,4.33346 -13.048724,6.28685 -19.756329,5.50704 -3.599119,-0.41842 -6.449084,-1.29109 -9.957125,-3.04891 C 52.790517,488.83733 42.458069,474.41513 32.242123,449.37579 22.754068,426.12052 12.864442,389.72668 7.9711262,360.05848 6.6228792,351.88405 6.2282535,348.48707 6.2713561,345.4267 l 0.038005,-2.69843 0.2187592,3.23357 c 0.8996798,13.29852 7.3956117,44.46247 14.1615407,67.93935 5.936774,20.59982 11.39468,35.38391 18.070314,48.94791 11.27044,22.90005 23.378837,34.06571 37.654015,34.72234 6.421618,0.29539 12.397743,-1.55939 18.007833,-5.58899 1.136629,-0.81641 2.212261,-1.48439 2.390288,-1.48439 0.17803,0 0.974469,0.66371 1.769862,1.47491 3.706407,3.78006 10.055307,6.87568 17.321167,8.44551 11.95642,2.58327 22.65708,2.14423 32.67402,-1.34057 2.4907,-0.86649 3.56662,-1.13276 3.70067,-0.91586 0.10396,0.1682 0.27015,3.24535 0.36933,6.8381 0.46181,16.72917 1.42555,28.06887 3.09344,36.39851 0.85526,4.27127 3.39908,12.31413 5.37637,16.99858 5.34154,12.65478 14.33503,20.15376 26.62055,22.19679 3.78754,0.62987 3.76159,0.82466 -0.0506,0.38013 z m 10.96974,0.0926 c 0.25743,-0.0671 0.61461,-0.0627 0.79375,0.01 0.17913,0.0725 -0.0315,0.12734 -0.46806,0.12197 -0.43656,-0.005 -0.58313,-0.0647 -0.32569,-0.13179 z m 1.91319,-0.2635 c 3.93746,-0.51091 12.38143,-2.5001 16.63484,-3.91877 21.94408,-7.31914 33.18236,-24.24962 37.5844,-56.62083 0.82608,-6.07475 1.25089,-11.4316 2.0115,-25.36499 0.14988,-2.74565 0.39392,-5.21893 0.5423,-5.49619 0.2518,-0.47049 0.50279,-0.4928 3.76296,-0.3345 8.17741,0.39707 20.51805,-1.19907 28.85414,-3.73198 7.58095,-2.30347 15.70508,-6.67945 22.40341,-12.06739 4.50448,-3.62327 8.23645,-8.21642 9.55035,-11.75417 0.73895,-1.98968 1.0605,-2.37951 0.72601,-0.88016 -0.86074,3.85817 -5.65761,9.71283 -11.63449,14.20013 -7.78545,5.84511 -16.00227,9.79008 -24.93442,11.97123 -7.53316,1.83953 -14.77729,2.66448 -23.01702,2.62115 -2.88715,-0.0152 -5.29128,0.0143 -5.34252,0.0655 -0.15259,0.15259 -0.61861,6.55987 -0.91988,12.64737 -0.47792,9.65707 -1.28318,17.20601 -2.66712,25.00312 -4.93797,27.82049 -16.1594,43.16111 -36.62113,50.06404 -5.54583,1.87095 -14.07722,3.81159 -16.43741,3.73904 -0.8354,-0.0257 -1.01008,-0.0759 -0.49592,-0.14264 z m -8.74131,-8.03188 c -7.28582,-0.82658 -13.54882,-3.82685 -18.54999,-8.88632 -2.92446,-2.95854 -5.15279,-6.21887 -7.39042,-10.81307 -2.75276,-5.65184 -3.77574,-9.57953 -4.72046,-18.12396 -1.03897,-9.39691 -1.41044,-16.89622 -1.77582,-35.85104 -0.17392,-9.02229 -0.34025,-16.43784 -0.36963,-16.47899 -0.0294,-0.0412 -1.1509,0.74932 -2.49227,1.75661 -5.53531,4.15668 -11.58773,6.66633 -19.32781,8.01432 -2.92982,0.51025 -11.33621,0.43426 -15.00476,-0.13563 -7.62764,-1.18492 -12.62912,-2.99112 -16.56416,-5.98188 -4.88633,-3.71377 -5.52463,-9.21081 -1.50827,-12.98926 2.54481,-2.39407 5.62287,-3.61391 13.65247,-5.41049 8.90387,-1.9922 12.04558,-3.14059 14.32874,-5.23759 1.35082,-1.24068 6.4189,-7.41936 6.4189,-7.82552 0,-0.14379 -0.56555,-0.33151 -1.25677,-0.41716 -6.07984,-0.75335 -9.04961,-1.49771 -13.37753,-3.35301 l -3.12492,-1.3396 -1.92346,2.07723 c -6.83958,7.38631 -14.47822,16.02794 -20.546072,23.24389 -5.816788,6.91737 -8.326541,9.18086 -12.521343,11.29271 -8.277281,4.16714 -16.81538,2.10745 -24.905115,-6.00802 -11.476202,-11.51269 -22.447952,-35.54872 -32.545573,-71.29824 -5.628092,-19.92563 -10.734978,-43.49327 -12.699199,-58.6052 -1.892689,-14.5616 -0.550344,-31.66561 3.459178,-44.07647 3.005526,-9.30314 7.183575,-16.28931 13.607402,-22.75313 6.124562,-6.16268 12.150479,-9.86784 21.025935,-12.92823 18.561505,-6.40028 44.89236,-4.87125 73.034487,4.24111 l 5.82182,1.88509 2.13492,-1.32412 c 11.24593,-6.97495 25.11881,-10.14274 40.72561,-9.29946 6.06186,0.32754 9.74737,0.77893 15.30624,1.87467 l 4.19373,0.82665 3.08231,-0.95071 c 15.69668,-4.84147 34.6859,-6.5395 50.62426,-4.52687 20.03865,2.5304 37.33143,10.74447 50.62833,24.04849 6.853,6.85665 9.34426,10.28748 10.98222,15.12408 1.85941,5.49061 2.50783,11.13887 2.28965,19.94535 -0.84352,34.04711 -18.52594,84.06113 -43.38193,122.70404 -1.7776,2.76359 -1.77226,2.83536 0.27675,3.71651 2.67947,1.15227 5.37155,1.50576 11.4349,1.5015 6.27494,-0.004 9.44954,-0.3401 17.69555,-1.87115 7.03558,-1.30632 10.14865,-1.18119 12.66198,0.50893 0.69212,0.46543 1.60059,1.41506 2.04623,2.13898 0.70832,1.15063 0.80145,1.5364 0.80145,3.31931 0,1.79349 -0.10848,2.23627 -0.97748,3.98974 -2.97383,6.00058 -14.27673,14.05413 -24.50338,17.4592 -10.84183,3.60988 -25.66214,4.87009 -35.18881,2.99219 -1.28437,-0.25318 -2.28535,-0.33442 -2.41007,-0.19562 -0.11732,0.13058 -0.41323,2.02335 -0.65758,4.20617 -1.86804,16.68758 -4.96431,40.31768 -6.53505,49.87396 -3.17351,19.30754 -10.23475,29.28141 -24.97763,35.28038 -8.6864,3.53457 -19.88223,5.46691 -26.99756,4.65963 z m 12.60456,-1.01274 c 3.83616,-0.70303 9.57692,-2.23832 12.64276,-3.38116 10.3864,-3.8717 16.80825,-9.34985 21.19886,-18.08361 1.50639,-2.99652 3.49308,-9.12003 4.33493,-13.36146 1.41377,-7.12285 4.03887,-26.1188 6.36203,-46.0375 1.53376,-13.1503 1.45038,-12.57597 1.84787,-12.72851 0.18629,-0.0715 1.57694,0.1389 3.09033,0.46753 2.46939,0.5362 3.47082,0.59739 9.76309,0.5965 7.44681,-0.001 10.37352,-0.27376 16.80105,-1.56556 6.16484,-1.23901 9.91192,-2.507 15.00595,-5.07793 6.07364,-3.06536 12.07158,-7.45598 15.08199,-11.04034 2.19167,-2.60955 2.96441,-4.31542 3.06549,-6.76732 0.10302,-2.49875 -0.57307,-3.9409 -2.44809,-5.22192 -2.70401,-1.84743 -5.33818,-1.92095 -13.9043,-0.38807 -7.75266,1.38731 -11.06411,1.73636 -16.53646,1.74304 -4.88783,0.006 -7.62619,-0.33163 -10.43281,-1.28622 -2.27851,-0.77497 -3.27102,-1.40624 -3.06305,-1.9482 0.0862,-0.22468 1.38801,-2.37996 2.89288,-4.78951 19.93753,-31.92349 34.70083,-69.28073 40.10532,-101.48308 2.75743,-16.43006 2.66229,-29.41596 -0.2807,-38.30877 -1.22558,-3.70339 -2.52092,-6.01518 -5.11638,-9.13113 -12.32371,-14.79524 -28.14709,-24.37208 -47.2563,-28.60111 -12.13659,-2.68593 -25.55284,-3.13926 -39.4119,-1.33171 -7.10435,0.92658 -14.94813,2.60211 -20.33736,4.34434 l -2.98772,0.96586 -2.43203,-0.54014 c -6.45246,-1.43304 -11.87651,-2.09484 -18.96849,-2.31436 -14.65179,-0.45354 -27.07984,2.47244 -37.84712,8.91048 l -3.07262,1.83719 -4.34482,-1.45866 c -13.31609,-4.47054 -27.37243,-7.39023 -40.195859,-8.34923 -5.139634,-0.38437 -15.961918,-0.15979 -20.108333,0.41729 -15.449153,2.15012 -26.814957,7.43877 -35.547041,16.54047 -10.115521,10.54369 -15.40261,24.44019 -16.861881,44.31948 -0.425667,5.79877 -0.16245,16.23643 0.543792,21.56354 2.345707,17.69346 8.335651,44.30918 14.856539,66.01355 11.752016,39.11585 24.632653,62.82755 37.719561,69.43715 7.225876,3.64946 14.359149,2.86499 21.098465,-2.32028 2.268106,-1.74509 3.999552,-3.53993 8.086582,-8.38265 7.659225,-9.07541 21.952805,-25.07423 22.850515,-25.57661 0.20866,-0.11677 1.14532,0.1798 2.26971,0.71865 4.09955,1.96466 8.24757,3.11412 13.2307,3.66636 2.1896,0.24266 2.80718,0.40051 2.87139,0.7339 0.0975,0.50612 -4.59945,6.44438 -6.48848,8.20329 -2.48817,2.3168 -5.07305,3.29249 -14.58758,5.50623 -3.2544,0.7572 -6.52862,1.58756 -7.27604,1.84524 -5.80064,1.99985 -8.70113,4.9725 -8.70113,8.91761 0,7.22884 11.13114,12.77829 26.57111,13.24707 6.63239,0.20137 11.5056,-0.48387 16.8867,-2.37449 4.13237,-1.45189 9.01481,-4.19175 12.20756,-6.85046 0.67504,-0.56213 1.40058,-1.02205 1.61231,-1.02205 0.33006,0 0.40887,2.0287 0.55246,14.22135 0.33804,28.70319 1.77804,45.26526 4.55183,52.35268 1.07903,2.75704 3.57617,7.6798 4.95003,9.75826 5.3632,8.11376 12.3022,12.4682 22.29561,13.99111 1.8709,0.28512 10.14295,-0.0984 12.85908,-0.59613 z m -12.31699,-8.25495 c -5.90588,-0.81738 -10.70002,-3.63453 -14.33158,-8.42153 -1.77504,-2.33979 -4.66512,-7.86532 -5.62426,-10.75293 -1.04654,-3.15082 -2.07545,-10.80413 -2.66623,-19.83224 -0.85023,-12.99286 -1.25177,-36.49007 -0.8677,-50.77589 0.19558,-7.27499 0.17598,-9.60661 -0.0923,-10.9802 -1.25853,-6.44337 -4.89685,-11.49067 -10.03292,-13.91832 -2.76936,-1.30898 -4.92078,-1.79191 -7.36674,-1.65362 -1.43018,0.0809 -2.11179,0.0216 -2.19323,-0.19059 -0.30001,-0.78183 3.84995,-12.28371 7.11359,-19.71575 5.15682,-11.74323 6.87498,-17.49522 8.02326,-26.85984 0.61217,-4.99252 0.6142,-15.12991 0.004,-20.89746 -0.95973,-9.07397 -2.74584,-18.88221 -4.22551,-23.20389 -2.54727,-7.43988 -7.77075,-12.49615 -15.10507,-14.62155 -8.95355,-2.59464 -20.52496,-0.67423 -33.81236,5.61153 -1.71153,0.80966 -3.1824,1.40158 -3.26861,1.31538 -0.37029,-0.3703 1.18128,-11.31832 2.41506,-17.04089 6.09125,-28.25247 19.95076,-46.55481 40.34564,-53.27886 6.78228,-2.23607 12.08505,-2.9998 20.6375,-2.9723 18.21294,0.0585 34.26622,4.89304 49.08021,14.78062 4.67775,3.12217 8.40575,6.24911 13.52774,11.34672 6.55363,6.52242 11.21711,12.49581 16.10278,20.62583 3.54614,5.90094 8.45652,16.54579 7.89258,17.10972 -0.12153,0.12154 -2.06551,0.10409 -4.31995,-0.0388 -6.34079,-0.40182 -13.35402,0.29814 -17.85732,1.78227 -6.92816,2.28328 -12.02142,6.8829 -14.51021,13.10389 -1.3855,3.46322 -1.61015,4.95021 -1.611,10.66365 -7.9e-4,5.72107 0.28408,7.96169 1.71595,13.49375 2.84207,10.98045 8.33157,23.36816 18.13025,40.91312 1.41151,2.52737 3.67386,6.8574 5.02744,9.62229 2.75993,5.63758 4.86061,8.98667 8.79573,14.02292 1.47815,1.89177 2.68865,3.62101 2.69,3.84275 0.002,0.25993 -0.68978,0.6606 -1.94594,1.12775 -5.38953,2.00426 -9.00152,6.11885 -10.50155,11.96283 -0.39303,1.53121 -0.60946,3.58033 -0.78247,7.40834 -0.54991,12.16663 -6.93896,62.02852 -9.01804,70.37916 -3.16605,12.71651 -8.61501,18.87543 -20.24858,22.88686 -7.86632,2.71243 -15.77895,3.89453 -21.12032,3.15526 z m -65.76189,-80.04147 c -3.36602,-0.39694 -5.51987,-0.77612 -8.07898,-1.42229 -2.919,-0.73704 -6.20852,-2.15335 -6.20852,-2.67309 0,-0.52818 2.2849,-1.26622 7.67292,-2.47843 13.40042,-3.01486 16.94671,-4.83378 22.21349,-11.3935 7.87257,-9.80519 8.7898,-10.43399 12.59457,-8.63401 2.97866,1.40916 4.88628,4.45527 5.08804,8.12467 0.13408,2.43836 -0.0561,2.96031 -2.00273,5.4967 -4.86259,6.3358 -11.78467,10.70343 -19.56824,12.34699 -2.50205,0.52833 -9.42482,0.90251 -11.71055,0.63296 z M 73.849379,478.47767 C 65.434907,474.93466 56.251904,460.74961 47.268125,437.4174 39.07549,416.1399 30.612414,384.34674 26.076974,357.80877 24.191241,346.77489 23.671845,339.1551 24.201379,330.29285 c 1.654176,-27.68415 12.364205,-44.31829 32.863799,-51.04197 7.230554,-2.37156 12.811334,-3.15731 22.590048,-3.1806 9.233665,-0.022 15.449915,0.61824 25.547694,2.63122 7.22715,1.44073 18.77001,4.62692 18.77001,5.1811 0,0.14629 -1.03181,1.4211 -2.29291,2.83291 -10.16323,11.37776 -16.95819,26.14489 -20.7213,45.03255 -2.411125,12.10182 -3.108773,22.31159 -2.392027,35.00636 0.224179,3.97059 0.289907,9.17388 0.192175,15.21354 -0.140899,8.70714 -0.295886,10.97831 -1.366565,20.02535 -0.89475,7.56047 -0.207034,14.57305 2.107491,21.4899 2.354516,7.03637 5.868306,12.7289 11.178676,18.11005 l 2.52303,2.55667 -0.76584,0.91624 c -0.42122,0.50394 -2.50039,2.80626 -4.62038,5.11626 -4.86871,5.3051 -10.556724,11.77847 -16.01208,18.22292 -7.28694,8.60812 -9.758551,10.46975 -14.132349,10.64456 -1.929609,0.0771 -2.472253,-0.004 -3.821472,-0.57224 z m 184.399601,-8.10398 c -2.54747,-0.29034 -4.58868,-0.74507 -5.68855,-1.26727 l -0.92604,-0.43968 -0.0787,-2.11506 c -0.10911,-2.93312 0.34145,-5.28428 1.3714,-7.15637 1.23204,-2.23943 2.57192,-3.00814 7.84467,-4.50059 0.22337,-0.0632 1.05108,0.30055 1.83935,0.8084 2.1624,1.39316 5.08724,2.51531 8.47013,3.24968 2.76492,0.60021 3.63453,0.66185 9.525,0.67518 6.90388,0.0156 9.87382,-0.25619 17.15053,-1.5696 2.08399,-0.37615 3.86993,-0.6011 3.96875,-0.4999 0.2758,0.28245 -1.91828,2.12102 -4.80148,4.02344 -8.06971,5.32467 -15.54342,7.69009 -27.82718,8.80726 -3.3172,0.30168 -8.12512,0.29482 -10.84791,-0.0155 z M 135.93433,444.97101 c -13.4054,-1.74108 -25.22149,-12.83551 -28.73134,-26.9766 -1.38214,-5.56857 -1.56666,-10.04991 -0.70299,-17.07297 0.2853,-2.31999 0.66333,-5.82551 0.84005,-7.79005 0.37836,-4.20617 0.45757,-20.66912 0.13507,-28.07444 l -0.22593,-5.18799 1.97301,-1.31963 c 2.4509,-1.63926 7.46244,-4.19493 10.76594,-5.49016 8.18557,-3.20938 16.78493,-4.35902 21.97446,-2.93774 5.58414,1.52935 8.84594,5.46967 10.41612,12.58288 3.39682,15.38819 4.18965,29.51618 2.27172,40.48125 -1.14249,6.53177 -2.77742,11.46256 -6.79903,20.50521 -2.30481,5.18242 -5.63439,14.0075 -6.91911,18.3392 -0.44513,1.50083 -0.87823,2.84028 -0.96246,2.97656 -0.17694,0.28629 -1.65808,0.27326 -4.03551,-0.0355 z m 6.43173,-79.7413 c 2.744,-0.82582 5.41937,-3.42931 5.41937,-5.27376 0,-1.8192 -1.61892,-3.2357 -4.93994,-4.32226 -1.67596,-0.54834 -2.62726,-0.68319 -4.98193,-0.70617 -3.38264,-0.033 -4.9829,0.42936 -6.10622,1.76435 -0.95494,1.13488 -0.78594,2.63462 0.50871,4.5144 2.39376,3.47563 6.49355,5.10883 10.10001,4.02344 z m 118.69,73.25444 c -0.30697,-0.39024 -0.55813,-0.91132 -0.55813,-1.15794 0,-0.24662 0.65947,-1.71117 1.46548,-3.25456 1.84755,-3.53777 3.86128,-9.62408 4.66019,-14.08505 0.54821,-3.06107 0.61443,-4.22572 0.6017,-10.58333 -0.0131,-6.55162 -0.0968,-7.83457 -1.00906,-15.47813 -1.60305,-13.4309 -1.5867,-18.24682 0.10059,-29.63333 1.22885,-8.29281 1.3395,-9.36289 1.58672,-15.34583 0.27022,-6.5393 0.13587,-7.59891 -1.62697,-12.83229 -3.58391,-10.63961 -10.87616,-23.30867 -19.24428,-33.43371 -3.55915,-4.30641 -10.98934,-11.72175 -14.71249,-14.68307 -6.00408,-4.77553 -11.20623,-8.15274 -17.42607,-11.3129 -2.84343,-1.44468 -4.11016,-2.21909 -3.92795,-2.40131 0.3576,-0.35759 6.63805,-1.38891 12.00824,-1.97188 5.19383,-0.56383 17.02082,-0.64356 21.6489,-0.14594 22.17346,2.38409 39.90473,11.32311 52.66352,26.5497 3.48586,4.16009 4.26413,5.74026 5.32347,10.80848 0.67879,3.2477 0.95009,13.02794 0.51006,18.38854 -2.5345,30.87659 -17.95137,73.64362 -38.81132,107.66422 -1.15281,1.88011 -2.23066,3.46326 -2.39524,3.51812 -0.16459,0.0549 -0.5504,-0.21954 -0.85736,-0.60979 z m -8.73671,-13.6449 c -0.99926,-2.08687 -3.50332,-6.83041 -5.56457,-10.54119 -12.86297,-23.15664 -18.59103,-38.45061 -18.58023,-49.60937 0.004,-3.88011 0.55705,-6.59099 1.82437,-8.9386 3.13222,-5.80217 11.59652,-8.52867 23.73741,-7.64624 2.38941,0.17367 4.54771,0.39379 4.79622,0.48915 0.4027,0.15453 0.43521,0.5068 0.29897,3.23974 -0.0841,1.6865 -0.62537,6.28105 -1.20289,10.21011 -2.10657,14.33182 -2.10939,17.67363 -0.0294,34.79271 0.71559,5.88957 0.98451,15.83814 0.52692,19.49326 -0.59521,4.75446 -2.7325,11.88769 -3.65335,12.19311 -0.21467,0.0712 -0.99472,-1.26279 -2.15345,-3.68268 z m -7.02288,-63.83895 c 3.75248,-1.68217 6.10287,-5.76447 4.18671,-7.27172 -0.9875,-0.77677 -2.56057,-1.13981 -4.90454,-1.13188 -2.6242,0.009 -4.71404,0.44484 -6.755,1.40919 -1.80549,0.85308 -2.72571,1.80374 -2.72571,2.81589 0,1.84012 2.81622,4.24482 5.64261,4.81809 1.46193,0.29651 2.92637,0.0909 4.55593,-0.63957 z m 77.66401,97.59342 c 0.0127,-0.30822 0.0754,-0.37092 0.15986,-0.15985 0.0764,0.19099 0.067,0.4192 -0.0209,0.50712 -0.0879,0.0879 -0.15047,-0.0684 -0.13899,-0.34727 z m -0.0209,-7.25399 c 0,-0.19403 0.0794,-0.2734 0.1764,-0.17639 0.097,0.097 0.097,0.25576 0,0.35278 -0.097,0.097 -0.1764,0.0176 -0.1764,-0.17639 z m -0.4304,-1.25677 c -1.11437,-3.45835 -4.39234,-7.19437 -7.77168,-8.85762 -4.55713,-2.24294 -9.03058,-2.47593 -17.4625,-0.90949 -7.86543,1.46119 -14.54425,2.16245 -14.90538,1.56502 -0.066,-0.10914 1.24132,-2.57968 2.90509,-5.4901 3.66007,-6.40247 10.76164,-20.53381 13.96122,-27.78125 12.47571,-28.25895 20.41128,-56.7598 22.13562,-79.50054 0.45633,-6.01833 0.18863,-16.68096 -0.52498,-20.90884 -1.06074,-6.28446 -3.02363,-11.71421 -5.67441,-15.69645 -2.01213,-3.02284 -5.80208,-7.35591 -10.12071,-11.57114 -15.04961,-14.6892 -33.42828,-23.16869 -56.45979,-26.04924 l -3.0427,-0.38055 2.77812,0.11578 c 1.52797,0.0637 4.50453,0.42039 6.61458,0.79269 20.72556,3.65684 38.01394,12.55035 51.94644,26.72236 7.53957,7.66917 10.85345,12.68495 12.87365,19.48522 5.41361,18.22287 1.28879,49.58461 -11.1139,84.50113 -6.54347,18.42142 -13.9092,34.32487 -25.01948,54.01988 -0.42436,0.75229 -0.6903,1.44908 -0.59097,1.54843 0.30623,0.30621 8.01785,-0.64657 13.31156,-1.64464 9.0837,-1.71265 14.18248,-1.46728 18.75213,0.90242 3.30181,1.71224 6.94859,5.90135 7.58195,8.70952 0.20931,0.92811 0.0855,1.23241 -0.17386,0.42741 z M 6.0799424,337.17202 c -2.34e-4,-2.91042 0.038422,-4.13714 0.085903,-2.72605 0.047481,1.41108 0.047672,3.79233 4.26e-4,5.29166 -0.047247,1.49933 -0.086095,0.34481 -0.086329,-2.56561 z m 0.2894014,-9.65729 c 0.2006851,-8.64754 2.3798729,-19.24924 5.7104582,-27.78125 9.654332,-24.73166 30.48015,-39.11837 59.772441,-41.29148 5.275548,-0.39138 15.900231,-0.19083 21.429025,0.40448 9.978892,1.07448 21.961922,3.57773 32.411462,6.77074 2.47385,0.75593 4.71213,1.4344 4.97395,1.50772 0.27519,0.0771 2.17292,-0.70743 4.49792,-1.85938 6.6487,-3.29418 12.88573,-5.36208 20.02917,-6.6407 5.88031,-1.05254 9.34439,-1.32869 16.40416,-1.30771 7.14274,0.0212 11.66417,0.31941 18.25625,1.20401 5.89225,0.79069 6.58028,0.75833 11.45096,-0.53867 6.71903,-1.78919 17.20575,-3.53097 20.81722,-3.45761 l 1.73078,0.0352 -2.24896,0.22653 c -7.16573,0.72179 -16.52332,2.45556 -22.84359,4.23246 l -2.86756,0.8062 -2.44174,-0.41621 c -9.95888,-1.69756 -25.55542,-2.20664 -33.77553,-1.10245 -9.43837,1.26783 -17.42132,3.72306 -25.13272,7.72981 l -3.32052,1.7253 -4.3524,-1.36442 c -20.9875,-6.57928 -42.446144,-9.15093 -59.518019,-7.13276 -13.754229,1.62597 -26.392034,6.5932 -35.757428,14.0543 C 16.640425,285.2324 8.2403721,303.69001 6.5086806,328.44081 l -0.2406508,3.43958 z M 224.45154,254.3026 c 0.32912,-0.0633 0.80537,-0.0609 1.05833,0.005 0.25297,0.0662 -0.0163,0.118 -0.59839,0.11506 -0.58209,-0.003 -0.78906,-0.0571 -0.45994,-0.1204 z m 19.70837,0.005 c 0.25467,-0.0666 0.67138,-0.0666 0.92605,0 0.25466,0.0665 0.0463,0.121 -0.46303,0.121 -0.50932,0 -0.71768,-0.0545 -0.46302,-0.121 z m -15.47338,-0.27395 c 0.47555,-0.0589 1.18992,-0.0577 1.5875,0.003 0.39757,0.0604 0.008,0.10855 -0.86464,0.10707 -0.87312,-0.001 -1.19841,-0.0509 -0.72286,-0.10977 z m 10.58333,0 c 0.47555,-0.0589 1.18992,-0.0577 1.5875,0.003 0.39758,0.0604 0.008,0.10855 -0.86463,0.10707 -0.87313,-0.001 -1.19842,-0.0509 -0.72287,-0.10977 z"
         id="path1528" />
      <path
         style="fill:#070707;stroke-width:0.264583"
         d="m 188.0021,580.68209 c -12.81352,-2.3286 -21.50126,-9.52979 -26.88513,-22.28485 -1.97729,-4.68445 -4.52111,-12.72731 -5.37637,-16.99858 -1.66789,-8.32964 -2.63163,-19.66934 -3.09344,-36.39851 -0.0992,-3.59275 -0.26537,-6.6699 -0.36933,-6.8381 -0.13405,-0.2169 -1.20997,0.0494 -3.70067,0.91586 -10.01694,3.4848 -20.7176,3.92384 -32.67402,1.34057 -7.26586,-1.56983 -13.61476,-4.66545 -17.321167,-8.44551 -0.795393,-0.8112 -1.591832,-1.47491 -1.769862,-1.47491 -0.178027,0 -1.253659,0.66798 -2.390288,1.48439 -5.61009,4.0296 -11.586215,5.88438 -18.007833,5.58899 C 60.242525,496.82758 46.619444,482.34091 33.933517,452.39806 24.393554,429.8807 14.809466,395.88617 9.1682857,364.55639 6.9996465,352.51229 6.2457928,345.53553 6.2374445,337.43209 6.1965914,297.77729 22.349929,271.79723 52.956312,262.29226 c 3.775787,-1.17259 10.286905,-2.54202 14.395789,-3.02776 17.071875,-2.01817 38.530519,0.55348 59.518019,7.13276 l 4.3524,1.36442 3.32052,-1.7253 c 7.7114,-4.00675 15.69435,-6.46198 25.13272,-7.72981 8.22011,-1.10419 23.81665,-0.59511 33.77553,1.10245 l 2.44174,0.41621 2.86756,-0.8062 c 6.19727,-1.74232 14.67952,-3.33505 22.04984,-4.14034 9.9303,-1.08499 18.5528,-1.08172 27.64896,0.0105 17.54688,2.10694 33.06789,7.85203 45.79938,16.95258 7.74247,5.53439 16.80125,14.48421 20.91341,20.66192 2.65078,3.98224 4.61367,9.41199 5.67441,15.69645 0.71361,4.22788 0.98131,14.89051 0.52498,20.90884 -1.72434,22.74074 -9.65991,51.24159 -22.13562,79.50054 -3.19958,7.24744 -10.30115,21.37878 -13.96122,27.78125 -1.66377,2.91042 -2.97108,5.38096 -2.90509,5.4901 0.36113,0.59743 7.03995,-0.10383 14.90538,-1.56502 10.88953,-2.023 16.55286,-0.99943 21.44183,3.87533 1.90712,1.90159 2.18051,2.32813 4.0567,6.32962 0.41799,0.89147 0.39767,8.21796 -0.0251,9.04768 -0.1779,0.34914 -0.57433,1.28963 -0.88095,2.09 -1.32924,3.46948 -5.08032,8.05175 -9.50415,11.61016 -6.69833,5.38794 -14.82247,9.76392 -22.40341,12.06739 -8.3361,2.53291 -20.67674,4.12905 -28.85414,3.73198 -3.26017,-0.1583 -3.51116,-0.13599 -3.76296,0.3345 -0.14838,0.27726 -0.39242,2.75055 -0.5423,5.49619 -0.76061,13.93339 -1.18542,19.29024 -2.0115,25.36499 -4.40149,32.36722 -15.67685,49.3518 -37.58441,56.61509 -4.85703,1.61033 -10.88107,3.03289 -16.32724,3.85569 -4.32711,0.65374 -9.0966,0.63432 -12.8753,-0.0524 z m 15.21354,-8.32967 c 5.29224,-0.81896 11.03615,-2.37932 15.61042,-4.24064 14.74288,-5.99897 21.80412,-15.97284 24.97763,-35.28038 1.57074,-9.55628 4.66701,-33.18638 6.53505,-49.87396 0.24435,-2.18282 0.54026,-4.07559 0.65758,-4.20617 0.12472,-0.1388 1.1257,-0.0576 2.41007,0.19562 9.52667,1.8779 24.34698,0.61769 35.18881,-2.99219 10.22665,-3.40507 21.52955,-11.45862 24.50338,-17.4592 0.869,-1.75347 0.97748,-2.19625 0.97748,-3.98974 0,-1.78291 -0.0931,-2.16868 -0.80145,-3.31931 -0.44564,-0.72392 -1.35411,-1.67355 -2.04623,-2.13898 -2.51333,-1.69012 -5.6264,-1.81525 -12.66198,-0.50893 -8.24601,1.53105 -11.42061,1.86674 -17.69555,1.87115 -6.06335,0.004 -8.75543,-0.34923 -11.4349,-1.5015 -2.04901,-0.88115 -2.05435,-0.95292 -0.27675,-3.71651 13.89886,-21.60816 26.13168,-47.84951 33.88926,-72.69779 6.10286,-19.54806 9.13361,-35.51379 9.49267,-50.00625 0.21818,-8.80648 -0.43024,-14.45474 -2.28965,-19.94535 -1.63796,-4.8366 -4.12922,-8.26743 -10.98222,-15.12408 -8.15575,-8.16011 -17.23379,-14.07544 -28.34182,-18.46777 -12.10941,-4.78831 -26.9396,-7.02109 -41.76708,-6.28832 -11.19609,0.55331 -21.67919,2.31525 -31.14369,5.23447 l -3.08231,0.95071 -4.19373,-0.82665 c -12.61922,-2.48744 -25.07725,-2.67652 -35.54686,-0.53953 -7.53203,1.53739 -14.47467,4.2366 -20.48499,7.96432 l -2.13492,1.32412 -5.82182,-1.88509 c -28.142127,-9.11236 -54.472982,-10.64139 -73.034487,-4.24111 -8.875456,3.06039 -14.901373,6.76555 -21.025935,12.92823 -6.423827,6.46382 -10.601876,13.44999 -13.607402,22.75313 -4.009522,12.41086 -5.351867,29.51487 -3.459178,44.07647 1.964221,15.11193 7.071107,38.67957 12.699199,58.6052 12.556746,44.45578 26.615188,71.01421 41.056864,77.56238 5.515081,2.50066 11.09101,2.41354 16.393824,-0.25612 4.194802,-2.11185 6.704555,-4.37534 12.521343,-11.29271 6.067852,-7.21595 13.706492,-15.85758 20.546072,-23.24389 l 1.92346,-2.07723 3.12492,1.3396 c 4.32792,1.8553 7.29769,2.59966 13.37753,3.35301 0.69122,0.0856 1.25677,0.27337 1.25677,0.41716 0,0.40616 -5.06808,6.58484 -6.4189,7.82552 -2.28316,2.097 -5.42487,3.24539 -14.32874,5.23759 -8.0296,1.79658 -11.10766,3.01642 -13.65247,5.41049 -4.01636,3.77845 -3.37806,9.27549 1.50827,12.98926 3.93504,2.99076 8.93652,4.79696 16.56416,5.98188 3.66855,0.56989 12.07494,0.64588 15.00476,0.13563 7.74008,-1.34799 13.7925,-3.85764 19.32781,-8.01432 1.34137,-1.00729 2.46289,-1.79777 2.49227,-1.75661 0.0294,0.0412 0.19571,7.4567 0.36963,16.47899 0.36538,18.95482 0.73685,26.45413 1.77582,35.85104 0.94472,8.54443 1.9677,12.47212 4.72046,18.12396 2.23763,4.5942 4.46596,7.85453 7.39042,10.81307 5.00117,5.05947 11.26417,8.05974 18.54999,8.88632 2.69202,0.30544 7.958,0.11166 11.38714,-0.41899 z"
         id="path1526" />
    </g>
  </g>
</svg>
