<?xml version="1.0" encoding="UTF-8" standalone="no"?>
<svg
   xmlns:dc="http://purl.org/dc/elements/1.1/"
   xmlns:cc="http://creativecommons.org/ns#"
   xmlns:rdf="http://www.w3.org/1999/02/22-rdf-syntax-ns#"
   xmlns:svg="http://www.w3.org/2000/svg"
   xmlns="http://www.w3.org/2000/svg"
   xmlns:xlink="http://www.w3.org/1999/xlink"
   xmlns:sodipodi="http://sodipodi.sourceforge.net/DTD/sodipodi-0.dtd"
   xmlns:inkscape="http://www.inkscape.org/namespaces/inkscape"
   width="561mm"
   height="150mm"
   viewBox="0 0 561 150"
   version="1.1"
   id="svg2146"
   inkscape:version="1.0.1 (3bc2e813f5, 2020-09-07)"
   sodipodi:docname="python.svg">
  <title
     id="title1091">Colored Badge Template</title>
  <defs
     id="defs2140">
    <linearGradient
       inkscape:collect="always"
       id="linearGradient1785">
      <stop
         style="stop-color:#0e3c80;stop-opacity:1"
         offset="0"
         id="stop1781" />
      <stop
         style="stop-color:#6892cd;stop-opacity:1"
         offset="1"
         id="stop1783" />
    </linearGradient>
    <linearGradient
       inkscape:collect="always"
       id="Text_Background_Gradient-7">
      <stop
         style="stop-color:#000000;stop-opacity:1"
         offset="0"
         id="stop1022" />
      <stop
         style="stop-color:#595959;stop-opacity:1"
         offset="1"
         id="stop1024" />
    </linearGradient>
    <linearGradient
       inkscape:collect="always"
       xlink:href="#Text_Background_Gradient-7"
       id="linearGradient1030"
       gradientUnits="userSpaceOnUse"
       x1="-8.5265128e-14"
       y1="150"
       x2="-8.5265128e-14"
       y2="0"
       gradientTransform="scale(1.1325468,0.99999996)" />
    <linearGradient
       inkscape:collect="always"
       xlink:href="#linearGradient1785"
       id="linearGradient1038"
       x1="-8.5265128e-14"
       y1="150"
       x2="-8.5265128e-14"
       y2="0"
       gradientUnits="userSpaceOnUse" />
    <linearGradient
       inkscape:collect="always"
       xlink:href="#linearGradient1785"
       id="linearGradient1038-0"
       x1="-8.5265128e-14"
       y1="150"
       x2="-8.5265128e-14"
       y2="0"
       gradientUnits="userSpaceOnUse"
       gradientTransform="matrix(0.17738398,0,0,1,123.3924,0)" />
  </defs>
  <sodipodi:namedview
     id="base"
     pagecolor="#ffffff"
     bordercolor="#666666"
     borderopacity="1.0"
     inkscape:pageopacity="0.0"
     inkscape:pageshadow="2"
     inkscape:zoom="0.32350236"
     inkscape:cx="726.30832"
     inkscape:cy="582.33292"
     inkscape:document-units="mm"
     inkscape:current-layer="layer4"
     inkscape:document-rotation="0"
     showgrid="false"
     inkscape:snap-bbox="true"
     inkscape:window-width="1920"
     inkscape:window-height="1017"
     inkscape:window-x="-8"
     inkscape:window-y="-8"
     inkscape:window-maximized="1" />
  <metadata
     id="metadata2143">
    <rdf:RDF>
      <cc:Work
         rdf:about="">
        <dc:format>image/svg+xml</dc:format>
        <dc:type
           rdf:resource="http://purl.org/dc/dcmitype/StillImage" />
        <dc:title>Colored Badge Template</dc:title>
      </cc:Work>
    </rdf:RDF>
  </metadata>
  <g
     inkscape:label="Text Background"
     inkscape:groupmode="layer"
     id="layer1">
    <rect
       style="opacity:0.996;fill:url(#linearGradient1030);fill-opacity:1;stroke-width:5.6052;stroke-linecap:square;paint-order:stroke fill markers"
       id="rect7"
       width="561"
       height="150"
       x="-8.5265128e-14"
       y="0"
       ry="15.000001" />
  </g>
  <g
     inkscape:groupmode="layer"
     id="layer4"
     inkscape:label="Text">
    <text
       xml:space="preserve"
       style="font-style:normal;font-weight:normal;font-size:104.065px;line-height:1.25;font-family:sans-serif;fill:#ffffff;fill-opacity:1;stroke:none;stroke-width:0.542001"
       x="174.8374"
       y="113.59"
       id="text13"><tspan
         sodipodi:role="line"
         id="tspan11"
         x="174.8374"
         y="113.59"
         style="font-size:104.065px;fill:#ffffff;stroke-width:0.542001">Python</tspan></text>
  </g>
  <g
     inkscape:groupmode="layer"
     id="layer3"
     inkscape:label="Logo Background">
    <rect
       style="opacity:0.996;fill:url(#linearGradient1038);fill-opacity:1;stroke-width:2.89838;stroke-linecap:square;paint-order:stroke fill markers"
       id="rect7-3"
       width="150"
       height="150"
       x="-8.6153307e-14"
       y="2.8421709e-14"
       ry="15" />
    <rect
       style="opacity:0.996;fill:url(#linearGradient1038-0);fill-opacity:1;stroke-width:1.22071;stroke-linecap:square;paint-order:stroke fill markers"
       id="rect7-3-0"
       width="26.607597"
       height="150"
       x="123.3924"
       y="0" />
    <g
       id="g1801"
       transform="matrix(0.74167173,0,0,0.74167199,9.2044408,-148.16133)"
       style="fill:#ffffff">
      <path
         style="fill:#ffffff;stroke-width:0.264583"
         d="m 82.482155,368.16813 c -14.415883,-1.29504 -23.246659,-5.98959 -25.553574,-13.58461 -0.514977,-1.69544 -0.529172,-2.33276 -0.439311,-19.72244 0.08414,-16.28324 0.137033,-18.11942 0.563358,-19.55788 0.922414,-3.1123 1.975684,-4.91354 4.102746,-7.01625 2.220029,-2.19463 4.494792,-3.48826 7.965323,-4.52979 1.959512,-0.58807 2.236327,-0.59756 22.092708,-0.75755 21.540505,-0.17356 20.674855,-0.11915 24.397065,-1.53348 4.5442,-1.72666 8.00947,-5.83163 9.76933,-11.57278 0.72313,-2.35906 0.72769,-2.42306 0.87505,-12.29328 l 0.14814,-9.92187 h 6.87916 c 6.02811,0 7.0592,0.0613 8.33438,0.49536 2.7121,0.92321 4.58167,2.10027 6.77583,4.26599 4.19778,4.14337 6.70229,10.0019 7.94065,18.57466 0.56676,3.92356 0.64194,15.10338 0.12685,18.86503 -1.65167,12.06195 -6.88005,19.84772 -15.24021,22.69479 l -2.11666,0.72083 -25.00313,0.1323 -25.003122,0.13229 v 2.11666 2.11667 l 16.271872,0.13229 16.27188,0.13229 0.20879,4.63021 c 0.11483,2.54662 0.17339,6.53521 0.13013,8.86354 -0.0771,4.15061 -0.0954,4.26887 -0.93779,6.05196 -2.71195,5.74072 -10.57219,9.30453 -23.08134,10.465 -2.791442,0.25896 -12.976323,0.3248 -15.478125,0.10006 z m 18.388545,-1.00584 c 11.85077,-1.47708 19.2849,-5.79308 20.30495,-11.78835 0.11014,-0.64735 0.16533,-4.65957 0.12266,-8.91606 l -0.0776,-7.73906 -5.87553,0.018 -5.87553,0.018 -10.980204,11.62192 c -6.039114,6.39205 -12.170833,12.87042 -13.626041,14.39638 l -2.645833,2.77447 1.852083,0.10507 c 3.618839,0.20528 13.544002,-0.0844 16.801045,-0.49034 z m 4.23333,-9.15029 c -2.97649,-1.34735 -4.39372,-4.19765 -3.71435,-7.47019 0.7775,-3.74517 4.57947,-5.81566 8.5143,-4.63676 3.57012,1.06963 5.35171,5.6317 3.57135,9.14506 -1.53275,3.02474 -5.29318,4.35524 -8.3713,2.96189 z m 4.21205,-0.23708 c 3.35608,-0.96251 5.1987,-4.91912 3.76099,-8.07589 -0.70458,-1.54705 -2.34146,-2.90839 -3.96556,-3.298 -4.95791,-1.18938 -8.94406,4.18669 -6.39702,8.62757 1.36825,2.38561 4.01708,3.48755 6.60159,2.74632 z m -29.347466,9.38661 c 0,-0.0728 -0.05953,-0.13229 -0.132292,-0.13229 -0.07276,0 -0.132292,0.0595 -0.132292,0.13229 0,0.0728 0.05953,0.13229 0.132292,0.13229 0.07276,0 0.132292,-0.0595 0.132292,-0.13229 z m 60.053656,-34.834 c 0.65856,-0.15597 2.14988,-0.74012 3.31405,-1.2981 7.77502,-3.72653 11.90058,-11.83987 12.8508,-25.27246 0.3702,-5.23317 -0.18568,-15.64011 -0.82262,-15.40074 -0.11143,0.0419 -3.22054,3.28607 -6.90914,7.20933 -3.68859,3.92326 -11.83269,12.55529 -18.09798,19.18229 -6.26529,6.627 -12.20166,12.9108 -13.19193,13.96399 l -1.80048,1.9149 9.62005,0.0889 c 10.65308,0.0984 13.26808,0.0309 15.03725,-0.38808 z"
         id="path1807" />
      <path
         style="fill:#ffffff;stroke-width:0.264583"
         d="m 84.069655,367.65263 -1.852083,-0.10507 2.645833,-2.77447 c 1.455208,-1.52596 7.586927,-8.00433 13.626041,-14.39638 l 10.980204,-11.62192 5.87553,-0.018 5.87553,-0.018 0.0776,7.73906 c 0.0427,4.25649 -0.0125,8.26871 -0.12266,8.91606 -1.02005,5.99527 -8.45418,10.31127 -20.30495,11.78835 -3.257043,0.40596 -13.182206,0.69562 -16.801045,0.49034 z m 25.863555,-9.46755 c 4.62071,-1.64897 5.76296,-7.89233 2.02873,-11.0887 -2.7466,-2.35098 -7.40352,-1.88976 -9.48403,0.9393 -1.42084,1.93204 -1.64907,4.91976 -0.54141,7.08731 1.40861,2.75644 4.99981,4.13157 7.99671,3.06209 z m -30.22918,8.97645 c 0,-0.0728 0.05953,-0.13229 0.132292,-0.13229 0.07276,0 0.132292,0.0595 0.132292,0.13229 0,0.0728 -0.05953,0.13229 -0.132292,0.13229 -0.07276,0 -0.132292,-0.0595 -0.132292,-0.13229 z m 45.28099,-34.44592 -9.62005,-0.0889 1.80048,-1.9149 c 0.99027,-1.05319 6.92664,-7.33699 13.19193,-13.96399 6.26529,-6.627 14.40939,-15.25903 18.09798,-19.18229 3.6886,-3.92326 6.79771,-7.16746 6.90914,-7.20933 0.63694,-0.23937 1.19282,10.16757 0.82262,15.40074 -0.95022,13.43259 -5.07578,21.54593 -12.8508,25.27246 -3.71138,1.77885 -4.13244,1.81754 -18.3513,1.68618 z m 31.77948,-31.43533 c 0.003,-0.58208 0.0571,-0.78905 0.12041,-0.45993 0.0633,0.32911 0.0609,0.80536 -0.005,1.05833 -0.0662,0.25296 -0.118,-0.0163 -0.11506,-0.5984 z m -0.0667,-1.32291 c 0,-0.0728 0.0595,-0.1323 0.13229,-0.1323 0.0728,0 0.13229,0.0595 0.13229,0.1323 0,0.0728 -0.0595,0.13229 -0.13229,0.13229 -0.0728,0 -0.13229,-0.0595 -0.13229,-0.13229 z"
         id="path1805" />
      <path
         style="fill:#ffffff;stroke-width:0.264583"
         d="m 37.138857,333.80349 c -4.02333,-1.08212 -8.511162,-4.76783 -10.839865,-8.90242 -3.69111,-6.55353 -5.609401,-17.88012 -4.829955,-28.51857 0.523391,-7.14361 1.587178,-11.62915 3.85832,-16.26888 2.332706,-4.76551 5.169698,-7.73263 9.265216,-9.69021 3.989685,-1.907 2.555337,-1.81872 29.622776,-1.82322 13.393721,-0.002 24.506409,-0.10186 24.694858,-0.22141 0.244869,-0.15534 0.320366,-0.81477 0.264583,-2.31105 l -0.07805,-2.0937 -16.271874,-0.13229 -16.271875,-0.13229 v -8.99583 -8.99584 l 0.775534,-1.5875 c 1.435436,-2.9383 4.644718,-5.56718 8.930764,-7.31561 11.046642,-4.50632 33.838481,-4.44212 44.402341,0.12508 3.22712,1.39522 4.93103,2.49695 7.02872,4.5447 1.9347,1.88865 3.20716,3.94979 3.80185,6.15829 0.21163,0.78596 0.29592,6.36141 0.28387,18.77874 -0.0191,19.65475 -0.0309,19.8116 -1.76009,23.34943 -1.98915,4.06965 -6.06652,7.09183 -11.47237,8.50341 -2.19666,0.57359 -2.71347,0.59103 -22.224995,0.75004 -21.997674,0.17927 -21.15608,0.11515 -24.752654,1.88574 -5.176795,2.54853 -8.536188,7.84707 -9.372761,14.78303 -0.14873,1.23311 -0.270417,5.90631 -0.270417,10.3849 v 8.14288 l -6.680729,-0.0174 c -4.948956,-0.0129 -7.04946,-0.11658 -8.103195,-0.4 z m 35.628359,-78.57474 c 2.786134,-1.16384 4.229479,-4.19497 3.383394,-7.10539 -0.762577,-2.62318 -2.928316,-4.20747 -5.728528,-4.19056 -4.602366,0.0278 -7.288289,5.02496 -4.834287,8.99421 1.427316,2.30863 4.672359,3.349 7.179421,2.30174 z"
         id="path1803" />
    </g>
  </g>
  <g
     inkscape:groupmode="layer"
     id="layer2"
     inkscape:label="Logo" />
</svg>
