<?xml version="1.0" encoding="UTF-8" standalone="no"?>
<svg
   xmlns:dc="http://purl.org/dc/elements/1.1/"
   xmlns:cc="http://creativecommons.org/ns#"
   xmlns:rdf="http://www.w3.org/1999/02/22-rdf-syntax-ns#"
   xmlns:svg="http://www.w3.org/2000/svg"
   xmlns="http://www.w3.org/2000/svg"
   xmlns:xlink="http://www.w3.org/1999/xlink"
   xmlns:sodipodi="http://sodipodi.sourceforge.net/DTD/sodipodi-0.dtd"
   xmlns:inkscape="http://www.inkscape.org/namespaces/inkscape"
   width="367mm"
   height="150mm"
   viewBox="0 0 367 150"
   version="1.1"
   id="svg2146"
   inkscape:version="1.0.1 (3bc2e813f5, 2020-09-07)"
   sodipodi:docname="sass.svg">
  <title
     id="title1091">Colored Badge Template</title>
  <defs
     id="defs2140">
    <linearGradient
       inkscape:collect="always"
       id="linearGradient2186">
      <stop
         style="stop-color:#8f466b;stop-opacity:1"
         offset="0"
         id="stop2182" />
      <stop
         style="stop-color:#ce659a;stop-opacity:1"
         offset="1"
         id="stop2184" />
    </linearGradient>
    <linearGradient
       inkscape:collect="always"
       id="Text_Background_Gradient-7">
      <stop
         style="stop-color:#000000;stop-opacity:1"
         offset="0"
         id="stop1022" />
      <stop
         style="stop-color:#404040;stop-opacity:1"
         offset="1"
         id="stop1024" />
    </linearGradient>
    <linearGradient
       inkscape:collect="always"
       xlink:href="#Text_Background_Gradient-7"
       id="linearGradient1030"
       gradientUnits="userSpaceOnUse"
       x1="-8.5265128e-14"
       y1="150"
       x2="-8.5265128e-14"
       y2="0"
       gradientTransform="scale(0.74089963,1)" />
    <linearGradient
       inkscape:collect="always"
       xlink:href="#linearGradient2186"
       id="linearGradient1038"
       x1="-8.5265128e-14"
       y1="150"
       x2="-8.5265128e-14"
       y2="0"
       gradientUnits="userSpaceOnUse"
       gradientTransform="translate(6.086914e-6,-1.5253906e-5)" />
    <linearGradient
       inkscape:collect="always"
       xlink:href="#linearGradient2186"
       id="linearGradient1038-0"
       x1="-8.5265128e-14"
       y1="150"
       x2="-8.5265128e-14"
       y2="0"
       gradientUnits="userSpaceOnUse"
       gradientTransform="matrix(0.17738398,0,0,1,123.3924,0)" />
  </defs>
  <sodipodi:namedview
     id="base"
     pagecolor="#ffffff"
     bordercolor="#666666"
     borderopacity="1.0"
     inkscape:pageopacity="0.0"
     inkscape:pageshadow="2"
     inkscape:zoom="0.23483311"
     inkscape:cx="989.84857"
     inkscape:cy="167.745"
     inkscape:document-units="mm"
     inkscape:current-layer="layer1"
     inkscape:document-rotation="0"
     showgrid="false"
     inkscape:snap-bbox="true"
     inkscape:window-width="1920"
     inkscape:window-height="1017"
     inkscape:window-x="-8"
     inkscape:window-y="-8"
     inkscape:window-maximized="1" />
  <metadata
     id="metadata2143">
    <rdf:RDF>
      <cc:Work
         rdf:about="">
        <dc:format>image/svg+xml</dc:format>
        <dc:type
           rdf:resource="http://purl.org/dc/dcmitype/StillImage" />
        <dc:title>Colored Badge Template</dc:title>
      </cc:Work>
    </rdf:RDF>
  </metadata>
  <g
     inkscape:label="Text Background"
     inkscape:groupmode="layer"
     id="layer1">
    <rect
       style="opacity:0.996;fill:url(#linearGradient1030);fill-opacity:1;stroke-width:4.5336;stroke-linecap:square;paint-order:stroke fill markers"
       id="rect7"
       width="367"
       height="150"
       x="-8.5265128e-14"
       y="0"
       ry="15.000001" />
  </g>
  <g
     inkscape:groupmode="layer"
     id="layer4"
     inkscape:label="Text">
    <text
       xml:space="preserve"
       style="font-style:normal;font-weight:normal;font-size:66.1925px;line-height:1.25;font-family:sans-serif;fill:#ffffff;fill-opacity:1;stroke:none;stroke-width:0.34475"
       x="180.66934"
       y="98.997879"
       id="text13"><tspan
         sodipodi:role="line"
         id="tspan11"
         x="180.66934"
         y="98.997879"
         style="font-size:66.1925px;fill:#ffffff;stroke-width:0.34475">Sass</tspan></text>
  </g>
  <g
     inkscape:groupmode="layer"
     id="layer3"
     inkscape:label="Logo Background">
    <rect
       style="opacity:0.996;fill:url(#linearGradient1038);fill-opacity:1;stroke-width:2.89838;stroke-linecap:square;paint-order:stroke fill markers"
       id="rect7-3"
       width="150"
       height="150"
       x="6.6757202e-06"
       y="-1.5258789e-05"
       ry="15" />
    <rect
       style="opacity:0.996;fill:url(#linearGradient1038-0);fill-opacity:1;stroke-width:1.22071;stroke-linecap:square;paint-order:stroke fill markers"
       id="rect7-3-0"
       width="26.607597"
       height="150"
       x="123.3924"
       y="0" />
  </g>
  <g
     inkscape:groupmode="layer"
     id="layer2"
     inkscape:label="Logo">
    <path
       style="fill:#ffffff;stroke-width:0.387474"
       d="m 36.966185,112.15897 c -2.323486,-0.69628 -4.099684,-3.48656 -4.115207,-6.46471 -0.02724,-5.21904 4.143429,-9.935958 13.262497,-14.999669 1.43849,-0.798779 2.613143,-1.655273 2.6103,-1.903324 -0.003,-0.248037 -2.392319,-2.107442 -5.309986,-4.131979 C 36.712392,80.00921 32.658033,76.081656 30.929254,72.565221 29.801978,70.272276 29.669077,69.67574 29.806942,67.528055 c 0.509563,-7.937121 9.197659,-17.022802 22.672395,-23.70993 12.631329,-6.268545 22.866519,-7.838236 31.703526,-4.8621 6.394789,2.153632 9.452267,6.929723 8.407541,13.133446 -1.059469,6.2913 -6.417837,13.038555 -12.863507,16.197691 -5.389021,2.641268 -8.582036,3.364568 -14.917777,3.379213 -4.904168,0.01171 -5.597268,-0.07337 -7.223798,-0.882517 -2.322787,-1.155538 -4.594176,-3.426926 -4.594176,-4.594146 0,-1.097078 0.431529,-1.150868 1.323732,-0.164993 0.923229,1.020149 3.901159,2.226284 6.278148,2.542785 2.624506,0.349481 8.258471,-0.6376 12.084945,-2.117295 11.657413,-4.507913 18.543386,-15.980866 12.402712,-20.664571 -2.59872,-1.982123 -8.93243,-2.767621 -14.485146,-1.796416 -9.008578,1.575653 -21.843442,8.135536 -28.049628,14.336154 -1.394336,1.393088 -3.144865,3.659805 -3.890059,5.037165 -1.208201,2.233118 -1.354212,2.818921 -1.348474,5.410325 0.0045,2.083131 0.209978,3.283716 0.725237,4.239735 1.103246,2.046959 4.292923,5.231691 8.565206,8.551931 2.131109,1.65621 4.297461,3.465983 4.8141,4.021705 0.516647,0.555721 1.236086,1.010409 1.598727,1.010409 1.344259,0 9.710925,-4.977709 11.207936,-6.668099 2.074049,-2.341976 5.336199,-4.22304 7.372388,-4.251129 2.196914,-0.03032 3.097704,0.917446 3.42562,3.604244 0.231369,1.895782 0.348069,2.094921 1.291557,2.203965 2.061973,0.238298 2.096271,0.74411 0.491671,7.25204 -1.086918,4.408339 -1.366062,6.120005 -1.049636,6.436422 0.316434,0.316418 0.813941,-0.328852 1.870836,-2.426432 2.292629,-4.550071 7.793566,-17.101549 8.093403,-18.466637 0.360518,-1.641477 1.540046,-2.409693 3.688691,-2.402429 2.845853,0.01025 3.004246,0.260514 2.177376,3.448571 -0.499239,1.924822 -0.626042,3.270286 -0.430891,4.5717 0.288826,1.925994 1.163185,3.985474 1.692065,3.985474 0.293851,0 2.864395,-4.418356 4.733994,-8.136946 0.482146,-0.958991 1.163658,-2.702629 1.514457,-3.87473 0.726549,-2.427603 1.603797,-3.085061 4.128437,-3.094082 2.38062,-0.0088 2.71985,0.627319 1.89778,3.557088 -0.469,1.67144 -0.59335,2.985961 -0.41212,4.355823 0.30769,2.325413 1.49265,5.177784 2.27585,5.478336 0.30629,0.117597 1.80688,-0.165967 3.33462,-0.629998 3.9752,-1.207424 9.31323,-0.978704 12.6157,0.540549 4.36166,2.006525 6.92099,5.383952 6.94698,9.167666 0.0175,2.554207 -1.05656,4.56465 -3.12013,5.83998 -1.93915,1.198462 -2.41178,0.450855 -0.72238,-1.142633 1.55199,-1.46388 1.9215,-2.548915 1.62384,-4.768198 -0.42981,-3.204488 -3.99833,-6.036533 -8.7317,-6.929652 -2.69852,-0.509181 -7.24496,-0.301491 -9.26683,0.423318 l -1.2585,0.451158 0.24162,2.599795 c 0.28863,3.105447 -0.1511,4.176499 -2.66664,6.495234 -1.94989,1.797308 -5.64995,3.356843 -7.100487,2.992793 -2.886857,-0.72456 -1.880204,-5.684014 1.994537,-9.826406 1.39185,-1.487986 1.75947,-2.138371 1.59063,-2.814047 -0.34689,-1.388227 -2.07764,-6.118207 -2.33167,-6.372232 -0.12638,-0.126384 -0.540463,0.337047 -0.920069,1.029973 -0.379591,0.692928 -1.623597,2.76531 -2.764464,4.605295 -2.073152,3.343627 -2.074052,3.346454 -1.646762,5.215495 0.983573,4.302325 0.0763,7.219037 -2.868951,9.223764 -2.877278,1.958381 -7.874244,2.960011 -9.025205,1.809041 -0.966011,-0.965996 -0.375361,-2.200271 3.022307,-6.315813 1.917988,-2.323248 3.487271,-4.544741 3.487271,-4.936662 0,-0.391907 -0.340329,-1.379645 -0.756273,-2.194958 -0.415936,-0.815313 -0.960467,-2.293414 -1.210076,-3.284668 -0.249601,-0.991268 -0.611019,-1.899457 -0.803155,-2.018197 -0.192143,-0.118768 -0.730202,0.712434 -1.195699,1.847074 -1.392506,3.394283 -6.403196,13.384633 -7.838221,15.627921 -1.42562,2.228593 -3.251252,3.483413 -4.494141,3.088943 -1.042616,-0.33091 -1.913751,-2.160293 -1.913751,-4.018876 0,-0.850447 -0.146813,-1.636995 -0.326243,-1.747905 -0.179439,-0.110857 -0.976496,1.096478 -1.771221,2.68302 -1.639564,3.273101 -2.876161,4.447411 -4.683351,4.447411 -2.941787,0 -4.960838,-3.592981 -5.007975,-8.911891 -0.01612,-1.81144 0.117885,-4.208933 0.297773,-5.327757 0.259455,-1.61418 0.218528,-2.034233 -0.198158,-2.034233 -0.900183,0 -4.395074,2.525795 -4.314704,3.118275 0.042,0.309501 0.295344,1.73967 0.56305,3.178172 1.542815,8.290514 -4.19636,16.951374 -12.501788,18.866114 -2.023154,0.46642 -4.760354,0.47176 -6.293659,0.0117 z m 8.140787,-6.24625 c 2.056918,-0.95865 4.99584,-4.09566 6.032418,-6.439038 1.019343,-2.304383 1.361517,-6.583957 0.606355,-7.58372 -0.507766,-0.67222 -0.73429,-0.581174 -4.005493,1.609888 -5.831462,3.905917 -8.707301,7.42146 -8.692264,10.62574 0.0075,1.56075 0.327121,2.08852 1.55492,2.56627 1.137326,0.44254 2.32278,0.23748 4.504064,-0.77914 z M 66.69599,96.112437 c 1.63994,-2.502854 5.934723,-14.851225 5.531102,-15.903049 -0.396728,-1.033812 -1.868579,-0.641115 -3.312603,0.883835 -2.770403,2.925639 -4.686577,7.81277 -4.686577,11.952921 0,3.648248 1.150346,5.077418 2.468078,3.066293 z m 22.668436,-0.788978 c 1.585812,-1.720408 1.968906,-2.527226 1.199929,-2.527226 -0.381294,0 -2.327797,2.030029 -3.400533,3.546461 -0.423263,0.598328 -0.415471,0.715733 0.04763,0.715733 0.304606,0 1.273489,-0.780735 2.153076,-1.734968 z m 13.063184,-2.003562 c 0.53617,-0.351311 1.2275,-1.127288 1.53627,-1.724396 0.71429,-1.381241 0.74825,-3.836434 0.053,-3.836434 -0.92951,0 -3.36642,3.912924 -3.36642,5.405392 0,0.96092 0.48324,1.00319 1.77708,0.155438 z"
       id="path2179" />
  </g>
</svg>
