<?xml version="1.0" encoding="UTF-8" standalone="no"?>
<svg
   xmlns:dc="http://purl.org/dc/elements/1.1/"
   xmlns:cc="http://creativecommons.org/ns#"
   xmlns:rdf="http://www.w3.org/1999/02/22-rdf-syntax-ns#"
   xmlns:svg="http://www.w3.org/2000/svg"
   xmlns="http://www.w3.org/2000/svg"
   xmlns:xlink="http://www.w3.org/1999/xlink"
   xmlns:sodipodi="http://sodipodi.sourceforge.net/DTD/sodipodi-0.dtd"
   xmlns:inkscape="http://www.inkscape.org/namespaces/inkscape"
   width="451mm"
   height="150mm"
   viewBox="0 0 451 150"
   version="1.1"
   id="svg2146"
   inkscape:version="1.0.1 (3bc2e813f5, 2020-09-07)"
   sodipodi:docname="sass.svg">
  <title
     id="title1091">Colored Badge Template</title>
  <defs
     id="defs2140">
    <linearGradient
       inkscape:collect="always"
       id="linearGradient2186">
      <stop
         style="stop-color:#8f466b;stop-opacity:1"
         offset="0"
         id="stop2182" />
      <stop
         style="stop-color:#ce659a;stop-opacity:1"
         offset="1"
         id="stop2184" />
    </linearGradient>
    <linearGradient
       inkscape:collect="always"
       id="Text_Background_Gradient-7">
      <stop
         style="stop-color:#000000;stop-opacity:1"
         offset="0"
         id="stop1022" />
      <stop
         style="stop-color:#595959;stop-opacity:1"
         offset="1"
         id="stop1024" />
    </linearGradient>
    <linearGradient
       inkscape:collect="always"
       xlink:href="#Text_Background_Gradient-7"
       id="linearGradient1030"
       gradientUnits="userSpaceOnUse"
       x1="-8.5265128e-14"
       y1="150"
       x2="-8.5265128e-14"
       y2="0"
       gradientTransform="scale(0.91047888,1)" />
    <linearGradient
       inkscape:collect="always"
       xlink:href="#linearGradient2186"
       id="linearGradient1038"
       x1="-8.5265128e-14"
       y1="150"
       x2="-8.5265128e-14"
       y2="0"
       gradientUnits="userSpaceOnUse"
       gradientTransform="translate(6.086914e-6,-1.5253906e-5)" />
    <linearGradient
       inkscape:collect="always"
       xlink:href="#linearGradient2186"
       id="linearGradient1038-0"
       x1="-8.5265128e-14"
       y1="150"
       x2="-8.5265128e-14"
       y2="0"
       gradientUnits="userSpaceOnUse"
       gradientTransform="matrix(0.17738398,0,0,1,123.3924,0)" />
  </defs>
  <sodipodi:namedview
     id="base"
     pagecolor="#ffffff"
     bordercolor="#666666"
     borderopacity="1.0"
     inkscape:pageopacity="0.0"
     inkscape:pageshadow="2"
     inkscape:zoom="0.23483311"
     inkscape:cx="989.84857"
     inkscape:cy="167.745"
     inkscape:document-units="mm"
     inkscape:current-layer="layer2"
     inkscape:document-rotation="0"
     showgrid="false"
     inkscape:snap-bbox="true"
     inkscape:window-width="1920"
     inkscape:window-height="1017"
     inkscape:window-x="-8"
     inkscape:window-y="-8"
     inkscape:window-maximized="1" />
  <metadata
     id="metadata2143">
    <rdf:RDF>
      <cc:Work
         rdf:about="">
        <dc:format>image/svg+xml</dc:format>
        <dc:type
           rdf:resource="http://purl.org/dc/dcmitype/StillImage" />
        <dc:title>Colored Badge Template</dc:title>
      </cc:Work>
    </rdf:RDF>
  </metadata>
  <g
     inkscape:label="Text Background"
     inkscape:groupmode="layer"
     id="layer1">
    <rect
       style="opacity:0.996;fill:url(#linearGradient1030);fill-opacity:1;stroke-width:5.02572;stroke-linecap:square;paint-order:stroke fill markers"
       id="rect7"
       width="451"
       height="150"
       x="-8.5265128e-14"
       y="0"
       ry="15.000001" />
  </g>
  <g
     inkscape:groupmode="layer"
     id="layer4"
     inkscape:label="Text">
    <text
       xml:space="preserve"
       style="font-style:normal;font-weight:normal;font-size:104.065px;line-height:1.25;font-family:sans-serif;fill:#ffffff;fill-opacity:1;stroke:none;stroke-width:0.542002"
       x="178.19106"
       y="113.59063"
       id="text13"><tspan
         sodipodi:role="line"
         id="tspan11"
         x="178.19106"
         y="113.59063"
         style="font-size:104.065px;fill:#ffffff;stroke-width:0.542002">Sass</tspan></text>
  </g>
  <g
     inkscape:groupmode="layer"
     id="layer3"
     inkscape:label="Logo Background">
    <rect
       style="opacity:0.996;fill:url(#linearGradient1038);fill-opacity:1.0;stroke-width:2.89838;stroke-linecap:square;paint-order:stroke fill markers"
       id="rect7-3"
       width="150"
       height="150"
       x="6.6757202e-06"
       y="-1.5258789e-05"
       ry="15" />
    <rect
       style="opacity:0.996;fill:url(#linearGradient1038-0);fill-opacity:1;stroke-width:1.22071;stroke-linecap:square;paint-order:stroke fill markers"
       id="rect7-3-0"
       width="26.607597"
       height="150"
       x="123.3924"
       y="0" />
  </g>
  <g
     inkscape:groupmode="layer"
     id="layer2"
     inkscape:label="Logo">
    <path
       style="fill:#ffffff;stroke-width:0.516631"
       d="m 22.718587,124.54529 c -3.097971,-0.92838 -5.466228,-4.64875 -5.486926,-8.61962 -0.03632,-6.95872 5.524556,-13.24794 17.683276,-19.999554 1.91798,-1.065038 3.48418,-2.20703 3.48039,-2.537765 -0.004,-0.330716 -3.18975,-2.809922 -7.07996,-5.509305 C 22.380197,81.678942 16.974403,76.442204 14.669371,71.753625 13.16634,68.696365 12.989139,67.900983 13.172959,65.037404 13.852374,54.454576 25.436467,42.340336 43.402727,33.424166 c 16.84172,-8.35806 30.4886,-10.45098 42.27124,-6.4828 8.52636,2.87151 12.602985,9.23963 11.21002,17.51126 -1.41262,8.3884 -8.55709,17.38474 -17.15129,21.59692 -7.18534,3.521691 -11.44268,4.486091 -19.89031,4.505618 -6.53887,0.01562 -7.463,-0.09783 -9.6317,-1.17669 -3.09704,-1.540717 -6.12555,-4.569234 -6.12555,-6.125528 0,-1.46277 0.57537,-1.53449 1.76497,-0.21999 1.23097,1.360199 5.20153,2.968379 8.37084,3.39038 3.49933,0.465974 11.01126,-0.850133 16.11321,-2.82306 15.54317,-6.01055 24.72444,-21.30782 16.5369,-27.55276 -3.46495,-2.64283 -11.90987,-3.69016 -19.31347,-2.39522 -12.0114,2.10087 -29.1245,10.84738 -37.39939,19.11487 -1.85911,1.85745 -4.19314,4.87974 -5.18673,6.71622 -1.61093,2.97749 -1.80561,3.75856 -1.79796,7.213766 0.006,2.777508 0.27997,4.378288 0.96698,5.652979 1.47099,2.729279 5.72388,6.975588 11.42024,11.402574 2.84147,2.20828 5.72993,4.621311 6.41878,5.362273 0.68886,0.740962 1.64811,1.347212 2.13163,1.347212 1.79234,0 12.94786,-6.636945 14.94387,-8.890798 2.76539,-3.122634 7.11491,-5.63072 9.82982,-5.668171 2.92921,-0.04042 4.13026,1.22326 4.56748,4.805658 0.30849,2.527709 0.46409,2.793227 1.72207,2.938619 2.74929,0.317731 2.79502,0.992147 0.65556,9.669387 -1.44922,5.877784 -1.82141,8.160005 -1.39951,8.581895 0.42191,0.42189 1.08525,-0.43847 2.49444,-3.235243 3.05683,-6.06676 10.39139,-22.802063 10.79117,-24.622181 0.48069,-2.188636 2.05339,-3.212923 4.91824,-3.203238 3.79446,0.01367 4.00565,0.347352 2.90316,4.598094 -0.66565,2.56643 -0.83472,4.360382 -0.57452,6.0956 0.3851,2.567992 1.55091,5.313965 2.25608,5.313965 0.3918,0 3.819183,-5.891141 6.311973,-10.84926 0.64286,-1.278655 1.55154,-3.603506 2.01927,-5.166307 0.96873,-3.236804 2.13839,-4.113414 5.50454,-4.125442 3.17412,-0.01172 3.62643,0.836425 2.53034,4.742783 -0.62531,2.228587 -0.79112,3.981281 -0.54947,5.807764 0.41023,3.10055 1.99016,6.903712 3.03442,7.304448 0.40839,0.156796 2.40915,-0.22129 4.44612,-0.839998 5.30026,-1.609899 12.41761,-1.304938 16.82089,0.720732 5.81553,2.675366 9.22796,7.178602 9.26261,12.223554 0.0234,3.405609 -1.40875,6.086199 -4.16016,7.786639 -2.58552,1.59795 -3.21569,0.60114 -0.96317,-1.52351 2.06932,-1.95184 2.562,-3.398553 2.16511,-6.357597 -0.57307,-4.27265 -5.33109,-8.04871 -11.64224,-9.239536 -3.598,-0.678908 -9.65991,-0.401987 -12.35572,0.564425 l -1.67799,0.601544 0.32216,3.466393 c 0.38483,4.140595 -0.20147,5.568665 -3.55549,8.660311 -2.59982,2.39641 -7.53318,4.47579 -9.46723,3.99039 -3.84913,-0.96608 -2.50693,-7.578685 2.65937,-13.101874 1.85578,-1.983981 2.34594,-2.851161 2.12082,-3.752062 -0.46251,-1.850969 -2.77016,-8.157608 -3.10886,-8.496309 -0.16851,-0.168512 -0.72062,0.449396 -1.22676,1.373298 -0.50612,0.923903 -2.16479,3.687079 -3.68594,6.140393 -2.764194,4.458169 -2.765394,4.461938 -2.195677,6.953992 1.311427,5.736434 0.10173,9.625382 -3.825256,12.298352 -3.83636,2.61118 -10.49896,3.94668 -12.03357,2.41205 -1.28801,-1.28799 -0.50048,-2.93369 4.02973,-8.42108 2.55731,-3.097663 4.64968,-6.059654 4.64968,-6.582215 0,-0.522542 -0.45377,-1.839527 -1.00836,-2.926611 -0.55458,-1.087083 -1.28062,-3.057885 -1.61343,-4.379556 -0.3328,-1.321691 -0.81469,-2.53261 -1.07087,-2.690929 -0.25619,-0.158358 -0.9736,0.949912 -1.59426,2.462765 -1.85667,4.52571 -8.53757,17.846176 -10.45093,20.837226 -1.90082,2.97146 -4.33499,4.64455 -5.99217,4.11859 -1.39015,-0.44121 -2.55166,-2.88039 -2.55166,-5.3585 0,-1.13393 -0.19575,-2.18266 -0.43499,-2.33054 -0.23925,-0.14781 -1.30199,1.46197 -2.36162,3.57736 -2.18608,4.36413 -3.83487,5.92988 -6.24445,5.92988 -3.92237,0 -6.61443,-4.79064 -6.67728,-11.88252 -0.0215,-2.415253 0.15718,-5.611911 0.39703,-7.103676 0.34594,-2.152239 0.29137,-2.71231 -0.26421,-2.71231 -1.20024,0 -5.86008,3.367727 -5.75292,4.1577 0.056,0.412667 0.39379,2.319559 0.75073,4.237562 2.05708,11.054024 -5.59513,22.601834 -16.669,25.154824 -2.69753,0.62189 -6.34712,0.629 -8.39152,0.0156 z m 10.85435,-8.32833 c 2.74255,-1.27821 6.6611,-5.46088 8.0432,-8.58539 1.35912,-3.07251 1.81535,-8.778609 0.80847,-10.111626 -0.67702,-0.896293 -0.97905,-0.774898 -5.34064,2.146518 -7.77526,5.207888 -11.6097,9.895278 -11.58965,14.167658 0.01,2.081 0.43616,2.78469 2.07322,3.42169 1.51643,0.59005 3.09703,0.31664 6.0054,-1.03885 z m 28.78527,-13.06705 c 2.18658,-3.337138 7.91294,-19.801632 7.37478,-21.204064 -0.52897,-1.378415 -2.49143,-0.854819 -4.41679,1.178447 -3.69386,3.900852 -6.24875,10.417026 -6.24875,15.937227 0,4.86433 1.53379,6.76989 3.29076,4.08839 z m 30.22449,-1.05197 c 2.11441,-2.293877 2.6252,-3.369635 1.5999,-3.369635 -0.50839,0 -3.10372,2.706705 -4.53403,4.728615 -0.56435,0.79777 -0.55396,0.95431 0.0635,0.95431 0.40614,0 1.69798,-1.04098 2.87076,-2.31329 z m 17.417513,-2.671416 c 0.71489,-0.468415 1.63664,-1.503051 2.04834,-2.299194 0.95237,-1.841655 0.99765,-5.115246 0.0707,-5.115246 -1.23933,0 -4.48853,5.217232 -4.48853,7.207189 0,1.281227 0.64432,1.337587 2.36943,0.207251 z"
       id="path2179" />
  </g>
</svg>
