<?xml version="1.0" encoding="UTF-8" standalone="no"?>
<svg
   xmlns:dc="http://purl.org/dc/elements/1.1/"
   xmlns:cc="http://creativecommons.org/ns#"
   xmlns:rdf="http://www.w3.org/1999/02/22-rdf-syntax-ns#"
   xmlns:svg="http://www.w3.org/2000/svg"
   xmlns="http://www.w3.org/2000/svg"
   xmlns:xlink="http://www.w3.org/1999/xlink"
   xmlns:sodipodi="http://sodipodi.sourceforge.net/DTD/sodipodi-0.dtd"
   xmlns:inkscape="http://www.inkscape.org/namespaces/inkscape"
   width="717mm"
   height="150mm"
   viewBox="0 0 717 150"
   version="1.1"
   id="svg2146"
   inkscape:version="1.0.1 (3bc2e813f5, 2020-09-07)"
   sodipodi:docname="androidstudio.svg">
  <title
     id="title1091">Colored Badge Template</title>
  <defs
     id="defs2140">
    <linearGradient
       inkscape:collect="always"
       id="linearGradient1138">
      <stop
         style="stop-color:#d3d3d3;stop-opacity:1"
         offset="0"
         id="stop1134" />
      <stop
         style="stop-color:#ffffff;stop-opacity:1"
         offset="1"
         id="stop1136" />
    </linearGradient>
    <linearGradient
       inkscape:collect="always"
       id="linearGradient2974">
      <stop
         style="stop-color:#000000;stop-opacity:1"
         offset="0"
         id="stop2970" />
      <stop
         style="stop-color:#404040;stop-opacity:1"
         offset="1"
         id="stop2972" />
    </linearGradient>
    <linearGradient
       inkscape:collect="always"
       xlink:href="#linearGradient2974"
       id="linearGradient1030"
       gradientUnits="userSpaceOnUse"
       x1="-8.5265128e-14"
       y1="150"
       x2="-8.5265128e-14"
       y2="0"
       gradientTransform="scale(1.4474797,1)" />
    <linearGradient
       inkscape:collect="always"
       xlink:href="#linearGradient1138"
       id="linearGradient1038"
       x1="-8.5265128e-14"
       y1="150"
       x2="-8.5265128e-14"
       y2="0"
       gradientUnits="userSpaceOnUse"
       gradientTransform="translate(6.086914e-6,-1.5253906e-5)" />
    <linearGradient
       inkscape:collect="always"
       xlink:href="#linearGradient1138"
       id="linearGradient1038-0"
       x1="-8.5265128e-14"
       y1="150"
       x2="-8.5265128e-14"
       y2="0"
       gradientUnits="userSpaceOnUse"
       gradientTransform="matrix(0.17738398,0,0,1,123.3924,0)" />
  </defs>
  <sodipodi:namedview
     id="base"
     pagecolor="#ffffff"
     bordercolor="#666666"
     borderopacity="1.0"
     inkscape:pageopacity="0.0"
     inkscape:pageshadow="2"
     inkscape:zoom="0.22627417"
     inkscape:cx="507.44736"
     inkscape:cy="1533.442"
     inkscape:document-units="mm"
     inkscape:current-layer="layer3"
     inkscape:document-rotation="0"
     showgrid="false"
     inkscape:snap-bbox="true"
     inkscape:window-width="1920"
     inkscape:window-height="1017"
     inkscape:window-x="-8"
     inkscape:window-y="-8"
     inkscape:window-maximized="1" />
  <metadata
     id="metadata2143">
    <rdf:RDF>
      <cc:Work
         rdf:about="">
        <dc:format>image/svg+xml</dc:format>
        <dc:type
           rdf:resource="http://purl.org/dc/dcmitype/StillImage" />
        <dc:title>Colored Badge Template</dc:title>
      </cc:Work>
    </rdf:RDF>
  </metadata>
  <g
     inkscape:label="Text Background"
     inkscape:groupmode="layer"
     id="layer1">
    <rect
       style="opacity:0.996;fill:url(#linearGradient1030);fill-opacity:1;stroke-width:6.33681;stroke-linecap:square;paint-order:stroke fill markers"
       id="rect7"
       width="717"
       height="150"
       x="-8.5265128e-14"
       y="0"
       ry="15.000003" />
  </g>
  <g
     inkscape:groupmode="layer"
     id="layer4"
     inkscape:label="Text">
    <text
       xml:space="preserve"
       style="font-style:normal;font-weight:normal;font-size:67.3688px;line-height:1.25;font-family:sans-serif;fill:#ffffff;fill-opacity:1;stroke:none;stroke-width:0.350876"
       x="184.14473"
       y="98.980537"
       id="text13"><tspan
         sodipodi:role="line"
         id="tspan11"
         x="184.14473"
         y="98.980537"
         style="font-size:67.3688px;fill:#ffffff;stroke-width:0.350876">Android Studio</tspan></text>
  </g>
  <g
     inkscape:groupmode="layer"
     id="layer3"
     inkscape:label="Logo Background">
    <rect
       style="opacity:0.996;fill:url(#linearGradient1038);fill-opacity:1;stroke-width:2.89838;stroke-linecap:square;paint-order:stroke fill markers"
       id="rect7-3"
       width="150"
       height="150"
       x="6.6757202e-06"
       y="-1.5258789e-05"
       ry="15" />
    <rect
       style="opacity:0.996;fill:url(#linearGradient1038-0);fill-opacity:1;stroke-width:1.22071;stroke-linecap:square;paint-order:stroke fill markers"
       id="rect7-3-0"
       width="26.607597"
       height="150"
       x="123.3924"
       y="0" />
    <g
       id="g1115"
       transform="matrix(0.29184725,0,0,0.29184725,35.878322,-29.683566)">
      <g
         id="g1132"
         transform="translate(18.708867,-31.571213)">
        <path
           style="fill:#cececd;stroke-width:0.264583"
           d="m 1.1725913,562.69849 c -1.03659518,-0.679 -1.79307597,-1.83922 -1.79307597,-2.75008 0,-0.29829 0.1190625,-0.54231 0.26458334,-0.54231 0.14552083,0 0.26458333,0.11403 0.26458333,0.25341 0,0.13941 0.54175025,0.57092 1.2038886,0.95896 2.0596225,1.20703 2.4286236,1.07093 11.9378704,-4.40314 4.631981,-2.66645 9.769221,-5.61761 11.416091,-6.55812 1.695685,-0.9684 3.258574,-2.06521 3.603643,-2.52902 0.335135,-0.45043 6.657793,-11.29647 14.050349,-24.1023 7.392556,-12.80583 15.846925,-27.45052 18.787483,-32.54375 2.940561,-5.09323 5.522219,-9.29556 5.737021,-9.33852 0.214802,-0.043 1.687857,0.56908 3.273457,1.36008 22.615763,11.28224 49.524715,14.71854 74.876515,9.56179 10.14049,-2.06264 19.18155,-5.18102 28.4767,-9.82199 11.8228,-5.90298 21.2994,-12.72357 30.63971,-22.05228 9.03633,-9.02511 16.03853,-18.72212 21.7863,-30.17079 6.28225,-12.51328 9.90215,-24.57863 11.39067,-37.96593 0.55819,-5.02019 0.95472,-11.59387 0.71416,-11.83953 -0.10797,-0.11028 -7.45225,-0.16981 -16.32061,-0.13229 l -16.12429,0.0682 -0.1834,3.84344 c -0.76427,16.01655 -6.53718,32.15332 -16.18339,45.23677 -1.94964,2.64436 -3.8145,4.69194 -9.03321,9.91826 -4.95453,4.96176 -10.82748,9.4564 -16.93333,12.95929 -1.45521,0.83484 -2.82443,1.67117 -3.04271,1.8585 -1.21269,1.04074 -8.09723,3.99138 -12.94029,5.54606 -20.3157,6.52159 -42.29359,5.08237 -61.500121,-4.02732 l -2.606035,-1.23605 0.166566,-1.25564 c 0.135054,-1.0181 2.197349,-4.77357 10.90136,-19.85155 5.904135,-10.22776 10.79663,-18.69732 10.87222,-18.82124 0.13258,-0.21738 -22.89345,-23.45489 -23.241425,-23.45489 -0.0943,0 -11.874016,20.27039 -26.177139,45.04531 -14.303124,24.77492 -28.498075,49.36133 -31.544337,54.63646 -3.046262,5.27513 -5.686354,9.59114 -5.866868,9.59114 -0.517872,0 -5.672019,-4.77832 -10.7317145,-9.94918 -20.1192865,-20.5613 -34.3590725,-46.61244 -40.8412475,-74.71748 -1.759341,-7.62805 -3.375643,-18.31588 -3.301029,-21.82813 0.04201,-1.97755 0.067,-1.84693 0.506225,2.64584 1.943459,19.87933 8.513049,41.08188 18.250308,58.90062 8.2034717,15.01198 17.92965554,27.61233 30.745181,39.83063 4.076766,3.88681 5.160787,4.76221 5.486709,4.43082 0.12936,-0.13155 14.359046,-24.7065 31.621518,-54.61103 17.262473,-29.90453 31.501694,-54.48851 31.642712,-54.63106 0.166447,-0.16826 4.532236,4.01961 12.444386,11.93722 l 12.187991,12.1964 -0.46046,0.89507 c -0.25326,0.49229 -5.32466,9.31999 -11.269781,19.6171 -5.945124,10.29712 -10.809314,18.82123 -10.809314,18.94247 0,0.12125 1.279922,0.82578 2.844271,1.56562 19.308854,9.13202 42.867684,10.19254 63.144384,2.84251 4.4035,-1.59621 9.53338,-3.93922 9.62272,-4.39506 0.0401,-0.20439 -4.93079,-9.04085 -11.04635,-19.63658 -6.11556,-10.59573 -11.11919,-19.40678 -11.11919,-19.58011 0,-0.17333 5.41546,-5.72962 12.03436,-12.34732 10.44242,-10.44052 12.08267,-11.98038 12.39958,-11.64057 0.20087,0.21538 5.63948,9.55941 12.0858,20.76452 6.44632,11.2051 11.86729,20.53475 12.04659,20.73254 0.39955,0.44077 1.06463,-0.25036 3.45064,-3.58582 9.82685,-13.73718 15.34663,-29.95341 15.78821,-46.38318 l 0.0604,-2.24896 16.77591,-0.0681 16.77591,-0.0681 -0.16418,4.69835 c -0.97988,28.04019 -12.92619,56.14141 -32.26629,75.89967 -1.67313,1.70931 -2.33265,2.56464 -2.26917,2.9429 0.0492,0.29328 4.73293,8.58624 10.40824,18.4288 7.72206,13.39219 10.43,17.87828 10.76084,17.8269 0.71355,-0.11086 8.30678,-7.27654 12.34274,-11.64781 6.85535,-7.42491 11.17375,-12.9189 16.58257,-21.09692 14.37193,-21.73003 22.7479,-45.48964 25.51025,-72.36354 l 0.2176,-2.11666 0.0349,1.5875 c 0.0682,3.10422 -1.40649,13.00807 -3.01675,20.25976 -7.10798,32.01025 -24.30338,61.46885 -48.715,83.45695 -1.57807,1.42142 -2.90564,2.67769 -2.95015,2.7917 -0.0445,0.11404 2.34965,4.4141 5.32034,9.55569 2.97069,5.14162 7.2004,12.46055 9.39937,16.26428 l 3.99815,6.91589 0.0257,13.66703 c 0.0288,15.28717 0.10531,14.63508 -1.87589,15.98152 -0.7502,0.50985 -1.16954,0.60127 -2.36694,0.51604 -1.34202,-0.0955 -2.34016,-0.61364 -12.83229,-6.66075 -6.2574,-3.60646 -11.55568,-6.76476 -11.77396,-7.01847 -0.21828,-0.25373 -4.20687,-7.08461 -8.86354,-15.17975 -4.65667,-8.09514 -8.60871,-14.7234 -8.78232,-14.72949 -0.17361,-0.006 -2.73345,1.16517 -5.68854,2.60279 -6.11516,2.97489 -10.20034,4.73456 -15.46682,6.66226 -12.13785,4.44278 -24.98192,7.39383 -38.5894,8.86629 -6.11249,0.66143 -21.87568,0.80931 -28.575,0.26805 -20.996976,-1.6964 -40.26644,-7.10591 -59.330167,-16.65573 l -4.032247,-2.01994 -0.554609,0.86024 c -0.305033,0.4731 -4.265581,7.28898 -8.801214,15.14634 l -8.246605,14.28612 -3.835289,2.21515 C 1.923492,564.70298 3.2672049,564.07052 1.1725648,562.69849 Z M 135.11077,537.72135 c 20.86236,-2.1259 38.32185,-6.99542 55.95937,-15.60727 2.61938,-1.27894 5.02214,-2.5495 5.33947,-2.82345 l 0.57698,-0.49807 -10.17996,-17.59339 c -5.59897,-9.67637 -10.29051,-17.70397 -10.42564,-17.83909 -0.15119,-0.15119 -1.7494,0.47624 -4.15535,1.6313 -8.54316,4.10149 -16.93056,7.01598 -25.6055,8.89748 -25.90744,5.61912 -51.999433,2.57596 -76.041549,-8.86893 -2.095666,-0.9976 -3.885223,-1.81383 -3.976793,-1.81383 -0.192394,0 -0.742164,0.93573 -12.171712,20.71674 -4.902917,8.48543 -8.467577,14.9275 -8.382566,15.14904 0.08135,0.21201 2.443313,1.50862 5.248807,2.88142 18.450409,9.02811 37.308258,14.18378 58.149853,15.89791 5.02006,0.41288 21.13896,0.33131 25.66459,-0.12986 z M -37.081404,390.20506 c 0.0054,-0.43656 0.06469,-0.58313 0.131773,-0.32569 0.06708,0.25743 0.06267,0.61462 -0.0098,0.79375 -0.07248,0.17913 -0.127362,-0.0315 -0.121969,-0.46806 z m 316.706234,0 c 0.005,-0.43656 0.0647,-0.58313 0.13179,-0.32569 0.0671,0.25743 0.0627,0.61462 -0.01,0.79375 -0.0725,0.17913 -0.12734,-0.0315 -0.12197,-0.46806 z M -37.318282,384.7811 c 0,-0.80036 0.0496,-1.12778 0.110223,-0.7276 0.06062,0.40018 0.06062,1.05502 0,1.45521 -0.06062,0.40018 -0.110223,0.0728 -0.110223,-0.72761 z m 317.235422,0 c 0,-0.80036 0.0496,-1.12778 0.11023,-0.7276 0.0606,0.40018 0.0606,1.05502 0,1.45521 -0.0606,0.40018 -0.11023,0.0728 -0.11023,-0.72761 z M -37.325505,373.40402 c 0,-0.65484 0.0516,-0.92274 0.114662,-0.59531 0.06306,0.32742 0.06306,0.8632 0,1.19062 -0.06306,0.32742 -0.114662,0.0595 -0.114662,-0.59531 z m 317.235425,0 c 0,-0.65484 0.0516,-0.92274 0.11465,-0.59531 0.0631,0.32742 0.0631,0.8632 0,1.19062 -0.0631,0.32742 -0.11465,0.0595 -0.11465,-0.59531 z m -0.28509,-4.89479 c 0.005,-0.43657 0.0647,-0.58313 0.13179,-0.3257 0.0671,0.25743 0.0627,0.61462 -0.01,0.79375 -0.0725,0.17913 -0.12734,-0.0315 -0.12197,-0.46805 z m -316.716038,-0.13229 c 0,-0.36381 0.06005,-0.51263 0.133452,-0.33073 0.0734,0.1819 0.0734,0.47955 0,0.66145 -0.0734,0.18191 -0.133452,0.0331 -0.133452,-0.33072 z m 0.349516,-4.49792 c 0.197103,-4.91155 1.820677,-14.62401 3.737335,-22.35729 5.881802,-23.73175 17.084481,-45.65677 32.91875665,-64.42604 C 3.6338989,272.68675 11.62807,264.52201 16.048265,260.61758 c 21.317559,-18.83016 46.76861,-31.45105 74.497314,-36.94238 6.937349,-1.37386 15.088631,-2.41931 18.503731,-2.37323 1.86521,0.0252 1.6452,0.0712 -1.85209,0.38786 -26.153495,2.36769 -51.033954,11.05056 -72.886119,25.43605 -9.969251,6.56286 -17.372886,12.68573 -26.2057385,21.67239 -25.2959785,25.73645 -40.3309385,57.62606 -44.5781355,94.55158 l -0.380407,3.30729 z m 316.098052,1.39918 c -0.15777,-3.68708 -1.81525,-14.16143 -3.25681,-20.58147 -10.27845,-45.77546 -40.91929,-85.12366 -82.83349,-106.37273 -18.52971,-9.39393 -37.06819,-14.73814 -57.75842,-16.65041 -3.21682,-0.29731 -3.44309,-0.34643 -1.71979,-0.37335 1.0914,-0.017 3.59172,0.15235 5.55625,0.37643 28.07975,3.20287 54.66189,13.75417 77.12604,30.61378 30.16742,22.641 51.39941,55.10533 59.78096,91.40675 1.75004,7.57963 3.45477,18.77461 3.25472,21.37356 -0.0994,1.29077 -0.10287,1.29564 -0.14946,0.20744 z M 112.42778,221.08525 c 0.25743,-0.0671 0.61462,-0.0627 0.79375,0.01 0.17913,0.0725 -0.0315,0.12736 -0.46806,0.12197 -0.43656,-0.005 -0.58312,-0.0647 -0.32569,-0.13178 z m 17.19792,0 c 0.25743,-0.0671 0.61462,-0.0627 0.79375,0.01 0.17913,0.0725 -0.0315,0.12736 -0.46806,0.12197 -0.43656,-0.005 -0.58313,-0.0647 -0.32569,-0.13178 z m -8.44966,-0.25762 c 0.097,-0.097 0.25577,-0.097 0.35278,0 0.097,0.097 0.0176,0.17639 -0.17639,0.17639 -0.19402,0 -0.2734,-0.0794 -0.17639,-0.17639 z"
           id="path1125" />
        <path
           style="fill:#8cc64d;stroke-width:0.264583"
           d="m 109.44618,537.85121 c -8.19827,-0.67429 -15.775443,-1.83269 -23.546766,-3.5999 -5.961806,-1.35572 -14.640611,-3.86516 -13.594311,-3.93073 0.163606,-0.0103 0.800659,0.15889 1.415669,0.37587 2.150624,0.7588 8.640284,2.5074 12.713584,3.42561 33.970734,7.65784 69.601944,3.82326 101.557304,-10.92943 5.58511,-2.57844 8.55749,-4.22569 8.32802,-4.61523 -0.10173,-0.17272 -0.44639,-0.6712 -0.76592,-1.10776 -0.47252,-0.64561 -6.71986,-11.49855 -17.97178,-31.22083 -0.80208,-1.40589 -1.51495,-2.36348 -1.7404,-2.33785 -0.21002,0.0239 -2.28686,0.93119 -4.61519,2.01627 -12.02451,5.60377 -23.4247,8.80952 -37.04167,10.41612 -5.61002,0.66191 -19.52779,0.66175 -25.13541,0 -14.355607,-1.69482 -27.571833,-5.53998 -39.357785,-11.45085 -2.795449,-1.40197 -2.960864,-1.45135 -3.301798,-0.9857 -0.197403,0.26962 -1.388637,2.27615 -2.647191,4.45896 -1.258552,2.18282 -5.724655,9.90812 -9.924672,17.16736 -4.92874,8.51876 -7.578738,13.35019 -7.47378,13.62604 0.133966,0.35214 0.101584,0.36645 -0.183788,0.0813 -0.285456,-0.2852 -0.223742,-0.56452 0.350745,-1.5875 0.680506,-1.21177 19.326384,-33.40885 19.787449,-34.16831 0.190823,-0.31432 0.91467,-0.0586 4.029216,1.42367 20.110391,9.5706 41.355964,13.32149 62.930974,11.11045 13.79958,-1.4142 26.32937,-4.95996 38.96696,-11.02714 2.40595,-1.15506 4.00416,-1.78249 4.15535,-1.6313 0.13513,0.13512 4.82667,8.16272 10.42564,17.83909 l 10.17996,17.59339 -0.57698,0.49808 c -0.31733,0.27395 -2.72009,1.5445 -5.33947,2.82344 -17.63752,8.61185 -35.09701,13.48137 -55.95937,15.60727 -4.52563,0.46117 -20.64453,0.54274 -25.66459,0.12986 z m -40.481248,-8.4564 c -3.3577,-1.15819 -9.582968,-3.62101 -9.461013,-3.74298 0.05355,-0.0536 1.698164,0.53525 3.654708,1.30841 1.956541,0.77317 4.718206,1.79163 6.137034,2.26325 1.418828,0.47162 2.579688,0.9072 2.579688,0.96798 0,0.1855 -0.304983,0.10202 -2.910417,-0.79666 z m -12.303125,-4.90644 c -1.164167,-0.56086 -2.040202,-1.03005 -1.946743,-1.04267 0.09346,-0.0127 1.165021,0.44427 2.38125,1.01526 1.216228,0.57103 2.092264,1.04021 1.946743,1.04267 -0.145521,0.003 -1.217083,-0.45439 -2.38125,-1.01526 z m -6.283854,-2.93341 c -2.000912,-1.01203 -3.638021,-1.89954 -3.638021,-1.97228 0,-0.11827 7.381891,3.48806 7.650869,3.73774 0.423471,0.3931 -0.871993,-0.17684 -4.012848,-1.76546 z M 16.28547,498.37432 C 11.706897,494.35247 4.6786274,487.16331 0.37157848,482.09614 -18.782118,459.56212 -31.17926,432.15438 -35.508184,402.77277 c -0.872655,-5.92295 -1.544631,-13.11688 -1.773259,-18.98386 0,0 -1.161767,-3.26575 -0.167544,-4.29947 12.465665,-12.9609 53.94811,0 53.94811,0 0,0 37.333876,-6.88075 53.948113,0 2.356138,0.97579 5.410409,5.4092 5.410409,5.4092 l 5.410412,5.4092 -31.507049,54.57023 c -17.328875,30.01363 -31.628696,54.61078 -31.777379,54.66033 -0.148683,0.0496 -0.912855,-0.47429 -1.698159,-1.16408 z m 197.80342,-16.65456 c -5.67531,-9.84256 -10.35902,-18.13552 -10.40824,-18.4288 -0.0635,-0.37826 0.59604,-1.23359 2.26917,-2.9429 19.3401,-19.75826 31.28641,-47.85948 32.26629,-75.89967 l 0.16418,-4.69835 -16.77591,0.0681 -16.77591,0.0681 -0.0604,2.24896 c -0.44158,16.42977 -5.96136,32.646 -15.78821,46.38318 -2.38601,3.33546 -3.05109,4.02659 -3.45064,3.58582 -0.1793,-0.19779 -5.6016,-9.52744 -12.04956,-20.73254 -6.44795,-11.20511 -11.90313,-20.58128 -12.12262,-20.83594 -0.24058,-0.27913 -0.28172,-0.46302 -0.10359,-0.46302 0.34919,0 0.19095,-0.26741 16.20444,27.38437 2.94955,5.09323 6.04579,10.43473 6.88053,11.87001 l 1.51771,2.60958 1.23518,-1.55125 c 1.92334,-2.4155 5.49104,-7.87024 7.2445,-11.07625 4.08713,-7.47293 7.24689,-16.46927 8.75168,-24.91746 0.48841,-2.74208 1.24833,-9.9289 1.40787,-13.31483 l 0.0686,-1.45521 16.80104,-0.13229 c 9.24057,-0.0728 17.0043,-0.0416 17.25269,0.0694 0.24841,0.11091 9.6934,0.17045 20.98889,0.13229 l 20.53725,-0.0694 -0.1733,4.36562 c -1.21724,30.66163 -9.93931,58.23572 -26.19542,82.81458 -5.40882,8.17802 -9.72722,13.67201 -16.58257,21.09692 -4.03596,4.37127 -11.62919,11.53695 -12.34274,11.64781 -0.33084,0.0514 -3.03878,-4.43471 -10.76084,-17.8269 z m 14.09909,14.48767 c 22.65415,-21.00821 38.39057,-47.05259 45.9753,-76.09099 0.4922,-1.88436 0.83724,-3.48377 0.76679,-3.55423 -0.29562,-0.29561 -0.63741,0.57391 -1.69201,4.30434 -2.13892,7.56593 -4.59232,14.1479 -8.76763,23.52177 -1.18055,2.65035 -2.4623,5.5332 -2.84835,6.40632 -1.36631,3.09005 -4.95991,9.12223 -6.30489,10.58333 -0.26792,0.29105 -1.42205,1.93963 -2.56479,3.66353 -4.43002,6.68314 -10.1691,13.92116 -16.10503,20.31143 -4.0236,4.33154 -4.53795,4.78136 -3.596,3.14484 6.01861,-10.45652 40.43648,-72.34048 40.43648,-72.70549 0,-0.59597 -0.91369,-1.49847 -1.28482,-1.2691 -0.1429,0.0883 -1.74395,3.04678 -3.55785,6.57435 -12.81568,24.92293 -28.79558,48.37448 -45.77712,67.18087 l -2.53428,2.80662 0.46765,0.88919 c 0.2572,0.48905 1.12698,2.02027 1.93284,3.40272 0.80587,1.38245 1.54983,2.78143 1.65326,3.10886 0.10344,0.32742 0.30361,0.59531 0.44485,0.59531 0.14123,0 1.65125,-1.29315 3.3556,-2.87367 z m 14.31319,-47.48681 c 12.53154,-22.38676 22.7846,-40.93961 22.7846,-41.22856 0,-0.45012 -15.07911,-16.09081 -24.14509,-25.04432 l -2.22871,-2.20106 -0.17495,4.31773 c -0.86886,21.44135 -7.47813,41.89063 -19.35643,59.88924 -3.74505,5.67471 -8.2921,11.37883 -12.79779,16.05442 -1.68653,1.75012 -2.42828,2.70467 -2.32032,2.986 0.32894,0.85721 14.4373,24.98174 15.05175,25.7377 0.15072,0.18542 0.3029,0.30449 0.3382,0.26459 0.0353,-0.0399 10.31723,-18.38899 22.84874,-40.77574 z m -127.10186,14.19089 c -7.35218,-0.50502 -16.384765,-2.48964 -23.379639,-5.13695 -3.410826,-1.29087 -8.502656,-3.67181 -8.502656,-3.97584 0,-0.12124 4.863709,-8.64535 10.808243,-18.94247 5.944532,-10.29711 10.999922,-19.07921 11.234202,-19.51577 0.23427,-0.43657 0.43072,-0.64782 0.43654,-0.46946 0.006,0.17836 -4.8531,8.75086 -10.797625,19.04999 -5.944521,10.29915 -10.95203,18.99864 -11.127798,19.33222 -0.308743,0.58594 -0.227116,0.65002 2.407703,1.89016 7.238436,3.40692 15.99937,5.888 24.95228,7.06642 4.75899,0.62641 15.14597,0.63033 19.71146,0.007 7.39144,-1.00844 14.39711,-2.76925 20.32057,-5.1074 3.72314,-1.46962 7.19609,-3.17931 7.19609,-3.54254 0,-0.14527 -4.94109,-8.84438 -10.98021,-19.33136 -6.03911,-10.48697 -10.9802,-19.26575 -10.9802,-19.50841 0,-0.24265 0.28562,0.0937 0.63471,0.74733 0.3491,0.65369 5.41235,9.46288 11.25167,19.57598 5.83931,10.11311 10.58408,18.55511 10.54392,18.76001 -0.0895,0.45664 -5.21584,2.79849 -9.6229,4.39599 -10.36175,3.75599 -22.84626,5.47812 -34.10636,4.70466 z M -37.308613,376.31444 c 0,-1.09141 0.0467,-1.5379 0.103786,-0.99219 0.05708,0.5457 0.05708,1.43867 0,1.98437 -0.05708,0.54571 -0.103786,0.0992 -0.103786,-0.99218 z m 317.225753,-0.52917 c 0,-0.80037 0.0496,-1.12779 0.11023,-0.72761 0.0606,0.40019 0.0606,1.05503 0,1.45521 -0.0606,0.40019 -0.11023,0.0728 -0.11023,-0.7276 z m -316.817665,-3.83646 c -0.277201,-3.6701 1.196265,-16.14034 2.844914,-24.07708 5.4449,-26.21224 16.773931,-49.57574 34.1270726,-70.37917 5.2043356,-6.2391 15.2277604,-16.05924 21.7976374,-21.35556 9.085408,-7.32422 19.497669,-13.9053 30.289531,-19.14453 17.7169,-8.6012 35.606631,-13.53929 55.56776,-15.33835 5.74488,-0.51777 20.4208,-0.5965 25.92917,-0.1391 21.54984,1.78945 40.55514,7.14856 59.6105,16.80898 46.17772,23.41053 78.18907,68.34218 85.23511,119.63742 0.79992,5.82326 1.29273,11.71007 1.09345,13.06135 -0.13949,0.94586 -0.21117,0.53791 -0.34872,-1.98438 -0.54817,-10.05052 -2.76948,-22.65943 -5.8964,-33.46979 -6.21133,-21.47363 -16.48952,-40.53243 -31.46192,-58.33951 -3.50888,-4.17322 -13.44369,-14.16517 -17.5833,-17.68441 -23.15584,-19.68575 -50.54405,-32.0977 -80.32997,-36.40441 -8.23078,-1.19007 -12.28571,-1.45215 -22.48959,-1.45352 -10.21576,-10e-4 -14.68905,0.28611 -22.621871,1.45388 -4.766713,0.70169 -5.027084,0.7615 -5.027084,1.1546 0,0.22068 -1.03751,0.54185 -2.976562,0.92141 -7.35347,1.43944 -15.887131,3.74349 -22.555729,6.08995 -7.440253,2.61797 -15.318955,6.02119 -15.917352,6.87552 -0.207783,0.29665 -1.831065,1.27066 -3.6073,2.16446 -10.917312,5.4936 -24.744995,15.03101 -32.730557,22.57534 -5.306046,5.01287 -12.0472355,11.77471 -14.3942643,14.43836 -8.2773997,9.39406 -15.5690937,20.08407 -21.6567877,31.75 -9.728449,18.64277 -15.658808,41.26967 -16.677597,63.63229 -0.04857,1.06612 -0.0913,0.91205 -0.220141,-0.79375 z"
           id="path1123"
           sodipodi:nodetypes="cssssssssssscsssssssscsssscsssccssssssssscsssssssssscsccssssssscccsssssssscsssscssscsssssssssssssssssssscsssssssscssssssscsssscsssscssssssssccssssssssssssssssssssssscsssssssssss" />
        <path
           style="fill:#83b949;stroke-width:0.264583"
           d="m 114.91377,537.78514 c 0.90099,-0.11303 1.31183,-0.67037 0.80054,-1.08601 -0.17325,-0.14086 -1.2675,-0.32057 -2.43167,-0.39936 -4.17209,-0.28242 -11.55773,-1.09847 -13.758333,-1.52019 -5.859989,-1.12305 -6.958319,-1.35662 -7.540625,-1.60364 -1.24882,-0.52975 -4.583234,-1.28651 -5.668637,-1.28651 -0.597342,0 -1.501029,-0.22058 -2.008198,-0.49022 -0.507167,-0.26961 -1.576967,-0.63809 -2.377332,-0.81888 -2.163654,-0.48866 -4.233333,-1.14528 -4.233333,-1.34303 0,-0.0958 4.288602,-7.8346 9.530228,-17.19728 5.241624,-9.36268 9.438182,-17.1151 9.325682,-17.2276 -0.112499,-0.1125 -1.871023,-0.61598 -3.90783,-1.11885 -7.271279,-1.79522 -15.926123,-5.01279 -22.923881,-8.5223 -1.592834,-0.79884 -3.039502,-1.37174 -3.214817,-1.27311 -0.237802,0.13378 -0.24334,0.0974 -0.0218,-0.14323 0.2301,-0.24992 0.955926,0.008 3.223803,1.14533 11.768862,5.90229 24.993978,9.74891 39.341733,11.4428 5.60763,0.66204 19.5254,0.6622 25.13542,0 8.53816,-1.00738 16.50385,-2.73431 23.94479,-5.19118 5.02122,-1.65791 7.94967,-2.8262 13.09688,-5.22494 2.32833,-1.08508 4.40517,-1.9924 4.61519,-2.01627 0.22545,-0.0256 0.93832,0.93196 1.7404,2.33785 11.25192,19.72228 17.49925,30.57522 17.97178,31.22083 0.31953,0.43656 0.66419,0.93504 0.76592,1.10776 0.22947,0.38954 -2.74291,2.03679 -8.32802,4.61523 -21.6214,9.98185 -44.37248,14.9062 -68.09444,14.73864 -3.20146,-0.0225 -5.44401,-0.0884 -4.98346,-0.14613 z m 9.49965,-0.36904 c 0.27344,-0.44244 -0.41889,-0.75877 -1.60578,-0.73374 -1.3742,0.029 -2.31483,0.29948 -2.44983,0.70448 -0.14256,0.42767 3.79183,0.45606 4.05561,0.0293 z m -13.70347,0.10009 c 0.62231,-0.0559 1.57481,-0.0551 2.11666,0.003 0.54186,0.0569 0.0327,0.10258 -1.13147,0.10162 -1.16417,0 -1.6075,-0.0475 -0.98519,-0.10337 z m -3.44184,-0.26225 c 0.47555,-0.0589 1.18992,-0.0577 1.5875,0.003 0.39757,0.0603 0.008,0.10854 -0.86464,0.10705 -0.87312,-0.003 -1.19841,-0.0509 -0.72286,-0.10975 z m -2.91516,-0.25956 c 0.32742,-0.0631 0.86321,-0.0631 1.19063,0 0.32742,0.063 0.0595,0.11464 -0.59531,0.11464 -0.65485,0 -0.92274,-0.0516 -0.59532,-0.11464 z m -2.11358,-0.26501 c 0.32912,-0.0633 0.80537,-0.0609 1.05833,0.005 0.25297,0.0662 -0.0163,0.118 -0.59839,0.11506 -0.58209,-0.003 -0.78906,-0.0571 -0.45994,-0.12041 z m -2.252042,-0.25982 c 0.254662,-0.0666 0.671382,-0.0666 0.926042,0 0.25466,0.0666 0.0463,0.121 -0.46302,0.121 -0.509324,0 -0.717684,-0.0544 -0.463022,-0.121 z m -1.852084,-0.26458 c 0.254662,-0.0666 0.671381,-0.0666 0.926042,0 0.254662,0.0665 0.0463,0.12099 -0.463021,0.12099 -0.509323,0 -0.717682,-0.0544 -0.463021,-0.12099 z m -1.582464,-0.26556 c 0.257431,-0.0671 0.614619,-0.0627 0.79375,0.01 0.17913,0.0725 -0.03149,0.12734 -0.468056,0.12197 -0.436563,-0.005 -0.583126,-0.0647 -0.325694,-0.13179 z m -1.5875,-0.26459 c 0.257431,-0.0671 0.614619,-0.0627 0.79375,0.01 0.17913,0.0725 -0.03149,0.12735 -0.468056,0.12198 -0.436563,-0.005 -0.583126,-0.0647 -0.325694,-0.13179 z m -1.724827,-0.25646 c 0.181901,-0.0734 0.479557,-0.0734 0.661458,0 0.181901,0.0734 0.03307,0.13346 -0.330729,0.13346 -0.363802,0 -0.51263,-0.0601 -0.330729,-0.13346 z m -1.450173,-0.2727 c 0.257431,-0.0671 0.614619,-0.0627 0.79375,0.01 0.17913,0.0725 -0.03149,0.12734 -0.468056,0.12197 -0.436563,-0.005 -0.583126,-0.0647 -0.325694,-0.13179 z m -1.460244,-0.25646 c 0.181901,-0.0734 0.479557,-0.0734 0.661458,0 0.181902,0.0734 0.03307,0.13345 -0.330729,0.13345 -0.363802,0 -0.51263,-0.0601 -0.330729,-0.13345 z m -1.322916,-0.26459 c 0.181901,-0.0734 0.479557,-0.0734 0.661458,0 0.181901,0.0734 0.03307,0.13346 -0.330729,0.13346 -0.363802,0 -0.512631,-0.0601 -0.330729,-0.13346 z m -1.041797,-0.27008 c 0.190994,-0.0764 0.4192,-0.067 0.507119,0.0209 0.08792,0.0879 -0.06835,0.15047 -0.347266,0.13899 -0.308226,-0.0127 -0.370919,-0.0754 -0.159853,-0.15987 z m -1.322917,-0.26459 c 0.190995,-0.0764 0.419201,-0.067 0.507119,0.0209 0.08792,0.0879 -0.06835,0.15046 -0.347266,0.13898 -0.308226,-0.0127 -0.370919,-0.0754 -0.159853,-0.15986 z m -1.185114,-0.26024 c 0.09701,-0.097 0.255765,-0.097 0.35278,0 0.09701,0.097 0.01765,0.1764 -0.17639,0.1764 -0.194027,0 -0.273402,-0.0794 -0.17639,-0.1764 z m -1.058333,-0.26458 c 0.09701,-0.097 0.255765,-0.097 0.352779,0 0.09701,0.097 0.01765,0.17639 -0.176389,0.17639 -0.194027,0 -0.273402,-0.0794 -0.17639,-0.17639 z m -1.196136,-0.26893 c 0.190994,-0.0764 0.4192,-0.067 0.507119,0.0209 0.08792,0.0879 -0.06835,0.15046 -0.347266,0.13898 -0.308226,-0.0127 -0.370919,-0.0754 -0.159853,-0.15986 z m -1.058334,-0.26458 c 0.190995,-0.0764 0.419201,-0.067 0.507119,0.0209 0.08792,0.0879 -0.06835,0.15047 -0.347265,0.13899 -0.308227,-0.0127 -0.37092,-0.0754 -0.159854,-0.15986 z m -1.058333,-0.26458 c 0.190995,-0.0764 0.419201,-0.067 0.507119,0.0209 0.08792,0.0879 -0.06835,0.15047 -0.347266,0.13899 -0.308226,-0.0127 -0.370919,-0.0754 -0.159853,-0.15987 z m -0.92053,-0.26025 c 0.09701,-0.097 0.255764,-0.097 0.352779,0 0.09701,0.097 0.01765,0.1764 -0.17639,0.1764 -0.194027,0 -0.273402,-0.0794 -0.176389,-0.1764 z m -0.931553,-0.26892 c 0.190994,-0.0764 0.4192,-0.067 0.507119,0.0209 0.08792,0.0879 -0.06835,0.15047 -0.347266,0.13899 -0.308226,-0.0127 -0.370919,-0.0754 -0.159853,-0.15986 z m -1.058334,-0.26458 c 0.190995,-0.0764 0.419201,-0.067 0.507119,0.0209 0.08792,0.0879 -0.06835,0.15047 -0.347265,0.13899 -0.308227,-0.0127 -0.37092,-0.0754 -0.159854,-0.15987 z m -0.92053,-0.26025 c 0.09702,-0.097 0.255765,-0.097 0.352779,0 0.09701,0.097 0.01765,0.1764 -0.176389,0.1764 -0.194027,0 -0.273402,-0.0794 -0.17639,-0.1764 z m -0.79375,-0.26458 c 0.09701,-0.097 0.255765,-0.097 0.352779,0 0.09701,0.097 0.01765,0.1764 -0.176389,0.1764 -0.194027,0 -0.273402,-0.0794 -0.17639,-0.1764 z m -1.058333,-0.26458 c 0.09701,-0.097 0.255764,-0.097 0.352779,0 0.09701,0.097 0.01765,0.17639 -0.17639,0.17639 -0.194027,0 -0.273402,-0.0794 -0.176389,-0.17639 z m -0.79375,-0.26459 c 0.09701,-0.097 0.255764,-0.097 0.352779,0 0.09701,0.097 0.01765,0.1764 -0.17639,0.1764 -0.194027,0 -0.273402,-0.0794 -0.176389,-0.1764 z m -0.79375,-0.26458 c 0.09701,-0.097 0.255764,-0.097 0.352779,0 0.09701,0.097 0.01765,0.1764 -0.17639,0.1764 -0.194027,0 -0.273402,-0.0794 -0.176389,-0.1764 z m -0.79375,-0.26458 c 0.09701,-0.097 0.255764,-0.097 0.352779,0 0.09701,0.097 0.01765,0.17639 -0.17639,0.17639 -0.194027,0 -0.273402,-0.0794 -0.176389,-0.17639 z m -1.058334,-0.26459 c 0.09701,-0.097 0.255765,-0.097 0.35278,0 0.09701,0.097 0.01765,0.1764 -0.17639,0.1764 -0.194027,0 -0.273402,-0.0794 -0.17639,-0.1764 z m -0.61736,-0.22047 c 0,-0.0728 0.05953,-0.1323 0.132292,-0.1323 0.07276,0 0.132291,0.0595 0.132291,0.1323 0,0.0728 -0.05953,0.13229 -0.132291,0.13229 -0.07276,0 -0.132292,-0.0595 -0.132292,-0.13229 z m -0.79375,-0.26459 c 0,-0.0728 0.05953,-0.13229 0.132292,-0.13229 0.07276,0 0.132291,0.0595 0.132291,0.13229 0,0.0728 -0.05953,0.13229 -0.132291,0.13229 -0.07276,0 -0.132292,-0.0595 -0.132292,-0.13229 z m -0.79375,-0.26458 c 0,-0.0728 0.05953,-0.13229 0.132292,-0.13229 0.07276,0 0.132291,0.0595 0.132291,0.13229 0,0.0728 -0.05953,0.13229 -0.132291,0.13229 -0.07276,0 -0.132292,-0.0595 -0.132292,-0.13229 z m -0.79375,-0.26458 c 0,-0.0728 0.05953,-0.1323 0.132292,-0.1323 0.07276,0 0.132291,0.0595 0.132291,0.1323 0,0.0728 -0.05953,0.13229 -0.132291,0.13229 -0.07276,0 -0.132292,-0.0595 -0.132292,-0.13229 z m -0.705556,-0.30869 c 0.09701,-0.097 0.255764,-0.097 0.352779,0 0.09701,0.097 0.01765,0.17639 -0.17639,0.17639 -0.194027,0 -0.273402,-0.0794 -0.176389,-0.17639 z m -0.79375,-0.26459 c 0.09701,-0.097 0.255764,-0.097 0.352779,0 0.09701,0.097 0.01765,0.1764 -0.17639,0.1764 -0.194027,0 -0.273402,-0.0794 -0.176389,-0.1764 z m -0.79375,-0.26458 c 0.09701,-0.097 0.255764,-0.097 0.352779,0 0.09701,0.097 0.01765,0.1764 -0.17639,0.1764 -0.194027,0 -0.273402,-0.0794 -0.176389,-0.1764 z m -0.617361,-0.22048 c 0,-0.0728 0.05953,-0.13229 0.132292,-0.13229 0.07276,0 0.132292,0.0595 0.132292,0.13229 0,0.0728 -0.05953,0.13229 -0.132292,0.13229 -0.07276,0 -0.132292,-0.0595 -0.132292,-0.13229 z m -0.705556,-0.30869 c 0.09702,-0.097 0.255765,-0.097 0.352779,0 0.09701,0.097 0.01765,0.1764 -0.176389,0.1764 -0.194027,0 -0.273402,-0.0794 -0.17639,-0.1764 z m -0.79375,-0.26458 c 0.09701,-0.097 0.255765,-0.097 0.352779,0 0.09701,0.097 0.01765,0.1764 -0.176389,0.1764 -0.194027,0 -0.273402,-0.0794 -0.17639,-0.1764 z m -0.61736,-0.22048 c 0,-0.0728 0.05953,-0.13229 0.132291,-0.13229 0.07276,0 0.132292,0.0595 0.132292,0.13229 0,0.0728 -0.05953,0.13229 -0.132292,0.13229 -0.07276,0 -0.132291,-0.0595 -0.132291,-0.13229 z m -0.79375,-0.26458 c 0,-0.0728 0.05953,-0.13229 0.132291,-0.13229 0.07276,0 0.132292,0.0595 0.132292,0.13229 0,0.0728 -0.05953,0.13229 -0.132292,0.13229 -0.07276,0 -0.132291,-0.0595 -0.132291,-0.13229 z m -0.529167,-0.26458 c 0,-0.0728 0.05953,-0.1323 0.132292,-0.1323 0.07276,0 0.132291,0.0595 0.132291,0.1323 0,0.0728 -0.05953,0.13229 -0.132291,0.13229 -0.07276,0 -0.132292,-0.0595 -0.132292,-0.13229 z m -0.79375,-0.26459 c 0,-0.0728 0.05953,-0.13229 0.132292,-0.13229 0.07276,0 0.132291,0.0595 0.132291,0.13229 0,0.0728 -0.05953,0.13229 -0.132291,0.13229 -0.07276,0 -0.132292,-0.0595 -0.132292,-0.13229 z m -0.529167,-0.26458 c 0,-0.0728 0.05953,-0.13229 0.132292,-0.13229 0.07276,0 0.132292,0.0595 0.132292,0.13229 0,0.0728 -0.05953,0.13229 -0.132292,0.13229 -0.07276,0 -0.132292,-0.0595 -0.132292,-0.13229 z m -0.705556,-0.30869 c 0.09701,-0.097 0.255765,-0.097 0.352779,0 0.09701,0.097 0.01765,0.1764 -0.176389,0.1764 -0.194027,0 -0.273402,-0.0794 -0.17639,-0.1764 z m -0.61736,-0.22048 c 0,-0.0728 0.05953,-0.13229 0.132291,-0.13229 0.07276,0 0.132292,0.0595 0.132292,0.13229 0,0.0728 -0.05953,0.13229 -0.132292,0.13229 -0.07276,0 -0.132291,-0.0595 -0.132291,-0.13229 z m -0.705557,-0.30869 c 0.09701,-0.097 0.255765,-0.097 0.35278,0 0.09701,0.097 0.01765,0.1764 -0.17639,0.1764 -0.194027,0 -0.273402,-0.0794 -0.17639,-0.1764 z m -0.61736,-0.22047 c 0,-0.0728 0.05953,-0.1323 0.132292,-0.1323 0.07276,0 0.132291,0.0595 0.132291,0.1323 0,0.0728 -0.05953,0.13229 -0.132291,0.13229 -0.07276,0 -0.132292,-0.0595 -0.132292,-0.13229 z m -0.529167,-0.26459 c 0,-0.0728 0.05953,-0.13229 0.132292,-0.13229 0.07276,0 0.132292,0.0595 0.132292,0.13229 0,0.0728 -0.05953,0.13229 -0.132292,0.13229 -0.07276,0 -0.132292,-0.0595 -0.132292,-0.13229 z m -0.529166,-0.26458 c 0,-0.0728 0.05953,-0.13229 0.132291,-0.13229 0.07276,0 0.132292,0.0595 0.132292,0.13229 0,0.0728 -0.05953,0.13229 -0.132292,0.13229 -0.07276,0 -0.132291,-0.0595 -0.132291,-0.13229 z m -0.705557,-0.30869 c 0.09701,-0.097 0.255765,-0.097 0.35278,0 0.09701,0.097 0.01765,0.1764 -0.17639,0.1764 -0.194027,0 -0.273402,-0.0794 -0.17639,-0.1764 z m -0.61736,-0.22048 c 0,-0.0728 0.05953,-0.13229 0.132292,-0.13229 0.07276,0 0.132291,0.0595 0.132291,0.13229 0,0.0728 -0.05953,0.13229 -0.132291,0.13229 -0.07276,0 -0.132292,-0.0595 -0.132292,-0.13229 z m -0.529167,-0.26458 c 0,-0.0728 0.05953,-0.13229 0.132292,-0.13229 0.07276,0 0.132292,0.0595 0.132292,0.13229 0,0.0728 -0.05953,0.13229 -0.132292,0.13229 -0.07276,0 -0.132292,-0.0595 -0.132292,-0.13229 z m -0.529166,-0.26458 c 0,-0.0728 0.05953,-0.1323 0.132291,-0.1323 0.07276,0 0.132292,0.0595 0.132292,0.1323 0,0.0728 -0.05953,0.13229 -0.132292,0.13229 -0.07276,0 -0.132291,-0.0595 -0.132291,-0.13229 z m -0.705557,-0.30869 c 0.09701,-0.097 0.255765,-0.097 0.35278,0 0.09701,0.097 0.01765,0.17639 -0.17639,0.17639 -0.194027,0 -0.273402,-0.0794 -0.17639,-0.17639 z m -0.61736,-0.22048 c 0,-0.0728 0.05953,-0.13229 0.132292,-0.13229 0.07276,0 0.132291,0.0595 0.132291,0.13229 0,0.0728 -0.05953,0.13229 -0.132291,0.13229 -0.07276,0 -0.132292,-0.0595 -0.132292,-0.13229 z m -0.529167,-0.26458 c 0,-0.0728 0.05953,-0.1323 0.132292,-0.1323 0.07276,0 0.132292,0.0595 0.132292,0.1323 0,0.0728 -0.05953,0.13229 -0.132292,0.13229 -0.07276,0 -0.132292,-0.0595 -0.132292,-0.13229 z m -0.529166,-0.26459 c 0,-0.0728 0.05953,-0.13229 0.132291,-0.13229 0.07276,0 0.132292,0.0595 0.132292,0.13229 0,0.0728 -0.05953,0.13229 -0.132292,0.13229 -0.07276,0 -0.132291,-0.0595 -0.132291,-0.13229 z m -0.529167,-0.26458 c 0,-0.0728 0.05953,-0.13229 0.132292,-0.13229 0.07276,0 0.132291,0.0595 0.132291,0.13229 0,0.0728 -0.05953,0.13229 -0.132291,0.13229 -0.07276,0 -0.132292,-0.0595 -0.132292,-0.13229 z m -0.529167,-0.26458 c 0,-0.0728 0.05953,-0.1323 0.132292,-0.1323 0.07276,0 0.132292,0.0595 0.132292,0.1323 0,0.0728 -0.05953,0.13229 -0.132292,0.13229 -0.07276,0 -0.132292,-0.0595 -0.132292,-0.13229 z m -0.529166,-0.26459 c 0,-0.0728 0.05953,-0.13229 0.132291,-0.13229 0.07276,0 0.132292,0.0595 0.132292,0.13229 0,0.0728 -0.05953,0.13229 -0.132292,0.13229 -0.07276,0 -0.132291,-0.0595 -0.132291,-0.13229 z m -0.529167,-0.26458 c 0,-0.0728 0.05953,-0.13229 0.132292,-0.13229 0.07276,0 0.132291,0.0595 0.132291,0.13229 0,0.0728 -0.05953,0.13229 -0.132291,0.13229 -0.07276,0 -0.132292,-0.0595 -0.132292,-0.13229 z m -0.529167,-0.26458 c 0,-0.0728 0.05953,-0.1323 0.132292,-0.1323 0.07276,0 0.132292,0.0595 0.132292,0.1323 0,0.0728 -0.05953,0.13229 -0.132292,0.13229 -0.07276,0 -0.132292,-0.0595 -0.132292,-0.13229 z m -0.529166,-0.26459 c 0,-0.0728 0.05953,-0.13229 0.132291,-0.13229 0.07276,0 0.132292,0.0595 0.132292,0.13229 0,0.0728 -0.05953,0.13229 -0.132292,0.13229 -0.07276,0 -0.132291,-0.0595 -0.132291,-0.13229 z m -0.529167,-0.26458 c 0,-0.0728 0.05953,-0.13229 0.132292,-0.13229 0.07276,0 0.132291,0.0595 0.132291,0.13229 0,0.0728 -0.05953,0.13229 -0.132291,0.13229 -0.07276,0 -0.132292,-0.0595 -0.132292,-0.13229 z m -0.529167,-0.26458 c 0,-0.0728 0.05953,-0.1323 0.132292,-0.1323 0.07276,0 0.132292,0.0595 0.132292,0.1323 0,0.0728 -0.05953,0.13229 -0.132292,0.13229 -0.07276,0 -0.132292,-0.0595 -0.132292,-0.13229 z m -0.529166,-0.26459 c 0,-0.0728 0.05953,-0.13229 0.132291,-0.13229 0.07276,0 0.132292,0.0595 0.132292,0.13229 0,0.0728 -0.05953,0.13229 -0.132292,0.13229 -0.07276,0 -0.132291,-0.0595 -0.132291,-0.13229 z m -0.529167,-0.26458 c 0,-0.0728 0.05953,-0.13229 0.132292,-0.13229 0.07276,0 0.132291,0.0595 0.132291,0.13229 0,0.0728 -0.05953,0.13229 -0.132291,0.13229 -0.07276,0 -0.132292,-0.0595 -0.132292,-0.13229 z m -0.529167,-0.26458 c 0,-0.0728 0.05953,-0.1323 0.132292,-0.1323 0.07276,0 0.132292,0.0595 0.132292,0.1323 0,0.0728 -0.05953,0.13229 -0.132292,0.13229 -0.07276,0 -0.132292,-0.0595 -0.132292,-0.13229 z m -0.686723,-0.43776 c -0.116967,-0.18925 -0.07258,-0.23365 0.116676,-0.11668 0.304998,0.18849 0.409488,0.42214 0.188788,0.42214 -0.06417,0 -0.201631,-0.13745 -0.305464,-0.30546 z m -0.107027,-0.62058 c 0,-0.0728 0.05953,-0.13229 0.132292,-0.13229 0.07276,0 0.132292,0.0595 0.132292,0.13229 0,0.0728 -0.05953,0.13229 -0.132292,0.13229 -0.07276,0 -0.132292,-0.0595 -0.132292,-0.13229 z m 0.396875,-0.66146 c 0.08994,-0.14552 0.223052,-0.26458 0.295812,-0.26458 0.07276,0 0.05871,0.11906 -0.03123,0.26458 -0.08994,0.14553 -0.223052,0.26459 -0.295812,0.26459 -0.07276,0 -0.05871,-0.11906 0.03123,-0.26459 z m 0.661459,-1.05833 c 0.15576,-0.29104 0.342733,-0.52917 0.415493,-0.52917 0.07276,0 0.0048,0.23813 -0.15091,0.52917 -0.15576,0.29104 -0.342733,0.52917 -0.415494,0.52917 -0.07276,0 -0.0048,-0.23813 0.150911,-0.52917 z m 0.529166,-0.92604 c 0,-0.0728 0.05953,-0.13229 0.132292,-0.13229 0.07276,0 0.132292,0.0595 0.132292,0.13229 0,0.0728 -0.05953,0.13229 -0.132292,0.13229 -0.07276,0 -0.132292,-0.0595 -0.132292,-0.13229 z m 0.529167,-0.92604 c 0.15576,-0.29104 0.342733,-0.52917 0.415494,-0.52917 0.07276,0 0.0048,0.23813 -0.150911,0.52917 -0.15576,0.29104 -0.342733,0.52916 -0.415493,0.52916 -0.07276,0 -0.0048,-0.23812 0.15091,-0.52916 z m 0.79375,-1.32292 c 0.15576,-0.29104 0.342733,-0.52917 0.415494,-0.52917 0.07276,0 0.0048,0.23813 -0.150911,0.52917 -0.15576,0.29104 -0.342733,0.52917 -0.415493,0.52917 -0.07276,0 -0.0048,-0.23813 0.15091,-0.52917 z m 0.529167,-0.92604 c 0,-0.0728 0.05953,-0.13229 0.132291,-0.13229 0.07276,0 0.132292,0.0595 0.132292,0.13229 0,0.0728 -0.05953,0.13229 -0.132292,0.13229 -0.07276,0 -0.132291,-0.0595 -0.132291,-0.13229 z m 0.529166,-0.92604 c 0.155761,-0.29104 0.342734,-0.52917 0.415494,-0.52917 0.07276,0 0.0048,0.23813 -0.15091,0.52917 -0.155761,0.29104 -0.342734,0.52916 -0.415494,0.52916 -0.07276,0 -0.0048,-0.23812 0.15091,-0.52916 z m 0.529167,-0.92604 c 0,-0.0728 0.05953,-0.1323 0.132292,-0.1323 0.07276,0 0.132291,0.0595 0.132291,0.1323 0,0.0728 -0.05953,0.13229 -0.132291,0.13229 -0.07276,0 -0.132292,-0.0595 -0.132292,-0.13229 z m 0.529167,-0.92605 c 0.15576,-0.29104 0.342733,-0.52916 0.415493,-0.52916 0.07276,0 0.0048,0.23812 -0.15091,0.52916 -0.15576,0.29105 -0.342733,0.52917 -0.415494,0.52917 -0.07276,0 -0.0048,-0.23812 0.150911,-0.52917 z m 0.926041,-1.5875 c 0.225756,-0.43656 0.469996,-0.79375 0.542756,-0.79375 0.07276,0 -0.05242,0.35719 -0.278172,0.79375 -0.225756,0.43657 -0.469996,0.79375 -0.542756,0.79375 -0.07276,0 0.05242,-0.35718 0.278172,-0.79375 z m 0.926042,-1.5875 c 0.15576,-0.29104 0.342733,-0.52916 0.415494,-0.52916 0.07276,0 0.0048,0.23812 -0.150911,0.52916 -0.15576,0.29105 -0.342733,0.52917 -0.415493,0.52917 -0.07276,0 -0.0048,-0.23812 0.15091,-0.52917 z m 0.529167,-0.92604 c 0,-0.0728 0.05953,-0.13229 0.132291,-0.13229 0.07276,0 0.132292,0.0595 0.132292,0.13229 0,0.0728 -0.05953,0.1323 -0.132292,0.1323 -0.07276,0 -0.132291,-0.0595 -0.132291,-0.1323 z m 0.529166,-0.92604 c 0.155761,-0.29104 0.342734,-0.52916 0.415494,-0.52916 0.07276,0 0.0048,0.23812 -0.15091,0.52916 -0.155761,0.29104 -0.342734,0.52917 -0.415494,0.52917 -0.07276,0 -0.0048,-0.23813 0.15091,-0.52917 z m 0.79375,-1.32291 c 0.155761,-0.29105 0.342734,-0.52917 0.415494,-0.52917 0.07276,0 0.0048,0.23812 -0.15091,0.52917 -0.155761,0.29104 -0.342734,0.52916 -0.415494,0.52916 -0.07276,0 -0.0048,-0.23812 0.15091,-0.52916 z m 0.926042,-1.5875 c 0.225756,-0.43657 0.469995,-0.79375 0.542756,-0.79375 0.07276,0 -0.05242,0.35718 -0.278173,0.79375 -0.225755,0.43656 -0.469995,0.79375 -0.542755,0.79375 -0.07276,0 0.05242,-0.35719 0.278172,-0.79375 z m 0.742688,-1.25678 c 1.73523,-3.06181 2.63566,-4.56406 2.735667,-4.56406 0.06861,0 0.07414,0.0893 0.01228,0.19844 -1.73523,3.06181 -2.63566,4.56406 -2.735667,4.56406 -0.06861,0 -0.07414,-0.0893 -0.01228,-0.19844 z m 167.776785,-2.24895 c -0.10343,-0.32743 -0.84739,-1.72641 -1.65326,-3.10886 -0.80586,-1.38245 -1.67564,-2.91367 -1.93284,-3.40272 l -0.46765,-0.88919 2.53428,-2.80662 c 16.98154,-18.80639 32.96144,-42.25794 45.77712,-67.18087 1.8139,-3.52757 3.41495,-6.48603 3.55785,-6.57435 0.37113,-0.22937 1.28482,0.67313 1.28482,1.2691 0,0.36501 -34.41787,62.24897 -40.43648,72.70549 -0.94195,1.63652 -0.4276,1.1867 3.596,-3.14484 5.93593,-6.39027 11.67501,-13.62829 16.10503,-20.31143 1.14274,-1.7239 2.29687,-3.37248 2.56479,-3.66353 1.34498,-1.4611 4.93858,-7.49328 6.30489,-10.58333 0.38605,-0.87312 1.6678,-3.75597 2.84835,-6.40632 4.17531,-9.37387 6.62871,-15.95584 8.76763,-23.52177 1.0546,-3.73043 1.39639,-4.59995 1.69201,-4.30434 0.0704,0.0705 -0.27459,1.66987 -0.76679,3.55423 -6.78559,25.97886 -20.38858,50.08093 -39.17231,69.40632 -4.16602,4.28615 -9.76929,9.55834 -10.15859,9.55834 -0.14124,0 -0.34141,-0.26789 -0.44485,-0.59531 z M 59.836807,495.11235 c 0.225756,-0.43656 0.469995,-0.79375 0.542756,-0.79375 0.07276,0 -0.05242,0.35719 -0.278173,0.79375 -0.225755,0.43656 -0.469995,0.79375 -0.542755,0.79375 -0.07276,0 0.05242,-0.35719 0.278172,-0.79375 z m 0.742688,-1.25677 c 1.73523,-3.06181 2.63566,-4.56406 2.735667,-4.56406 0.06861,0 0.07414,0.0893 0.01228,0.19843 -1.73523,3.06181 -2.63566,4.56407 -2.735667,4.56407 -0.06861,0 -0.07414,-0.0893 -0.01228,-0.19844 z m 158.734735,-4.62381 c -0.61445,-0.75596 -14.72281,-24.88049 -15.05175,-25.7377 -0.10796,-0.28133 0.63379,-1.23588 2.32032,-2.986 4.50569,-4.67559 9.05274,-10.37971 12.79779,-16.05442 11.8783,-17.99861 18.48757,-38.44789 19.35643,-59.88924 l 0.17495,-4.31773 2.22871,2.20106 c 9.06598,8.95351 24.67426,24.5942 24.67426,25.04432 0,0.37227 -45.60408,81.37303 -46.16251,82.0043 -0.0353,0.0399 -0.18748,-0.0792 -0.3382,-0.26459 z M 63.805557,488.23318 c 0.225756,-0.43656 0.469995,-0.79375 0.542756,-0.79375 0.07276,0 -0.05242,0.35719 -0.278173,0.79375 -0.225755,0.43656 -0.469995,0.79375 -0.542755,0.79375 -0.07276,0 0.05242,-0.35719 0.278172,-0.79375 z m 1.314551,-2.24896 c 0.407095,-0.7276 0.863002,-1.44198 1.013126,-1.5875 0.150122,-0.14552 -0.06013,0.33073 -0.467228,1.05834 -0.407095,0.7276 -0.863002,1.44198 -1.013126,1.5875 -0.150122,0.14552 0.06013,-0.33073 0.467228,-1.05834 z m 51.072952,-23.31373 c -4.79078,-0.38466 -14.10294,-1.82985 -13.79231,-2.14049 0.0671,-0.0671 1.09769,0.0771 2.29026,0.3203 1.39217,0.28395 2.25964,0.35092 2.42347,0.18709 0.14034,-0.14034 2.31542,-3.93112 4.83353,-8.42395 3.08577,-5.5057 4.51269,-8.29818 4.37693,-8.56567 -0.13609,-0.26815 1.57833,-3.57218 5.28561,-10.18646 5.28804,-9.43454 5.53819,-9.82511 6.89735,-10.76918 1.5775,-1.09574 7.60644,-6.96813 7.88671,-7.68193 0.12887,-0.32822 3.33396,5.0176 11.22223,18.71774 6.07301,10.54745 11.04184,19.2956 11.04184,19.44034 0,0.36236 -3.47673,2.07344 -7.19609,3.54157 -5.92955,2.34056 -13.10644,4.14329 -20.18828,5.07102 -3.07654,0.40303 -12.39275,0.70548 -15.08125,0.48962 z m -15.61042,-2.48314 c -0.674216,-0.28972 0.0214,-0.28972 0.92604,0 0.53174,0.17029 0.55769,0.21336 0.13229,0.21961 -0.29104,0.004 -0.76729,-0.0945 -1.05833,-0.21961 z m -1.852083,-0.52917 c -0.333544,-0.14333 -0.38245,-0.22739 -0.132292,-0.22739 0.218282,0 0.635,0.10233 0.926042,0.22739 0.333544,0.14333 0.38245,0.22739 0.132292,0.22739 -0.218282,0 -0.635,-0.10232 -0.926042,-0.22739 z m -2.645833,-0.79375 c -0.727605,-0.26848 -1.144323,-0.48815 -0.926042,-0.48815 0.218281,0 0.992187,0.21967 1.719792,0.48815 0.727604,0.26849 1.144323,0.48816 0.926041,0.48816 -0.218281,0 -0.992187,-0.21967 -1.719791,-0.48816 z m -1.896182,-0.70555 c 0.09701,-0.097 0.255765,-0.097 0.35278,0 0.09701,0.097 0.01764,0.17639 -0.17639,0.17639 -0.194027,0 -0.273402,-0.0794 -0.17639,-0.17639 z m -3.479556,-1.18717 c -1.501447,-0.58852 -2.685947,-1.11399 -2.632224,-1.16772 0.09654,-0.0965 5.523897,1.94361 5.736956,2.15652 0.273502,0.27333 -0.570738,0.004 -3.104732,-0.9888 z m -5.14145,-2.22498 c -0.982265,-0.50417 -1.785937,-0.97606 -1.785937,-1.04865 0,-0.11825 3.677795,1.64305 3.946702,1.89008 0.361849,0.33241 -0.61464,-0.0478 -2.160765,-0.84143 z m -1.440124,-1.63698 c 1.73523,-3.06183 2.63566,-4.56407 2.735667,-4.56407 0.06861,0 0.07414,0.0893 0.01228,0.19844 -1.73523,3.06182 -2.63566,4.56406 -2.735668,4.56406 -0.06861,0 -0.07414,-0.0893 -0.01228,-0.19843 z m 3.226062,-5.6224 c 0.225755,-0.43656 0.469995,-0.79375 0.542755,-0.79375 0.07276,0 -0.05242,0.35719 -0.278172,0.79375 -0.225756,0.43656 -0.469995,0.79375 -0.542756,0.79375 -0.07276,0 0.05242,-0.35719 0.278173,-0.79375 z m 0.742688,-1.25677 c 1.73523,-3.06182 2.63566,-4.56406 2.735667,-4.56406 0.06861,0 0.07414,0.0893 0.01228,0.19843 -1.73523,3.06183 -2.63566,4.56407 -2.735668,4.56407 -0.06861,0 -0.07414,-0.0893 -0.01228,-0.19844 z m 3.259613,-5.6224 c 2.773135,-4.94874 14.504585,-25.10526 14.572295,-25.03755 0.11142,0.11142 -14.427009,25.34089 -14.809001,25.69901 -0.155223,0.14552 -0.0487,-0.15213 0.236706,-0.66146 z M 180.08928,422.0057 c -3.12834,-5.40183 -6.6544,-11.49259 -7.83568,-13.53503 -1.18129,-2.04244 -4.03879,-6.96583 -6.35,-10.94086 l -4.20221,-7.22734 5.16764,-5.14175 5.16765,-5.67093 16.13131,-0.16394 c 8.87222,-0.0902 16.24443,0.26032 16.38267,0.13211 0.14084,-0.13061 7.41174,-0.20536 16.53646,-0.16999 l 16.2851,0.0631 -16.40416,-1.98134 -16.40417,2.25199 -0.0686,1.45521 c -0.15954,3.38593 -0.91946,10.57275 -1.40787,13.31483 -1.90341,10.68612 -6.147,21.39132 -12.07577,30.46321 -1.69692,2.59654 -4.64685,6.60904 -5.03543,6.84919 -0.1095,0.0677 -2.75863,-4.29664 -5.88697,-9.69847 z m -74.08268,-6.92981 c 0,-0.0728 0.0595,-0.13229 0.13229,-0.13229 0.0728,0 0.13229,0.0595 0.13229,0.13229 0,0.0728 -0.0595,0.13229 -0.13229,0.13229 -0.0728,0 -0.13229,-0.0595 -0.13229,-0.13229 z m -0.26458,-0.79375 c 0,-0.0728 0.0595,-0.13229 0.13229,-0.13229 0.0728,0 0.13229,0.0595 0.13229,0.13229 0,0.0728 -0.0595,0.13229 -0.13229,0.13229 -0.0728,0 -0.13229,-0.0595 -0.13229,-0.13229 z m -30.008795,-29.50104 -5.274,-5.29166 H 16.49621 -37.466805 l 0.163998,-0.99219 c 0.0902,-0.54571 0.186334,-2.59953 0.213632,-4.56406 0.04202,-3.02387 0.07589,-3.28773 0.220774,-1.7198 l 0.171139,1.85209 0.0478,-1.98438 c 0.195368,-8.11122 2.07222,-20.78451 4.528614,-30.5791 5.403912,-21.54749 14.655541,-40.22495 28.8229295,-58.1886 4.7449793,-6.01644 8.4703656,-12.14555 17.7586875,-20.92066 7.985562,-7.54433 21.813245,-17.08174 32.730557,-22.57534 1.776235,-0.8938 4.987017,-1.33864 5.1948,-1.63529 0.598397,-0.85433 8.477099,-5.31588 15.917352,-7.93385 6.668598,-2.34646 14.143927,-4.65051 21.497396,-6.08995 1.939052,-0.37956 4.034895,-0.17157 4.034895,-0.39225 0,-0.3931 0.260371,0.0763 5.027084,-0.62543 7.932817,-1.16777 12.406107,-1.45526 22.621867,-1.45388 10.20388,0.001 14.25881,0.26345 22.48959,1.45352 29.78592,4.30671 57.17413,16.71866 80.32997,36.40441 4.13961,3.51924 14.07442,13.51119 17.5833,17.68441 14.9724,17.80708 25.25059,36.86588 31.46192,58.33951 3.12288,10.79641 5.33434,23.34012 5.90076,33.46979 0.11988,2.1443 0.22522,2.83144 0.32446,2.11667 0.0808,-0.58208 0.22069,1.02526 0.31083,3.57188 0.0901,2.54661 0.10925,5.24867 0.0425,5.35781 -0.17891,0.29245 -41.31141,0.24705 -41.84558,-0.0462 -0.24511,-0.13455 -14.95422,-14.76452 -33.3337,-33.15779 -25.10743,-25.12626 -33.71529,-34.95654 -34.61583,-36.334 -1.57677,-2.41182 -2.24788,-3.09425 -4.46277,-4.53806 -1.3272,-0.86516 -6.23247,-4.66051 -15.28262,-14.06797 l -12.3722,-12.86067 -16.71692,0.0731 c -9.19431,0.0402 -16.78322,0.13937 -16.86426,0.2203 -0.081,0.0809 -0.18729,5.67371 -0.23612,12.42841 l -0.0888,12.28127 -10.759129,0.004 c -8.660847,0.003 -11.08973,0.0818 -12.4543,0.40349 -5.134642,1.21032 -9.143363,5.61533 -9.815063,10.78534 -0.140753,1.08336 -0.250912,15.22499 -0.255558,32.80738 -0.0069,26.12799 0.04962,31.01364 0.365839,31.61771 0.205706,0.39295 2.570409,2.88735 5.254898,5.54311 2.684489,2.65575 4.808982,4.82864 4.721095,4.82864 -0.08789,0 -2.533094,-2.38125 -5.433793,-5.29166 z M 118.50816,221.07117 c 1.56435,-0.0468 4.12419,-0.0468 5.68854,0 1.56435,0.0468 0.28443,0.085 -2.84427,0.085 -3.1287,0 -4.40862,-0.0383 -2.84427,-0.085 z"
           id="path1121"
           sodipodi:nodetypes="csssssssssssssscscssssssssccsssssccccccccccssssccsccssssssssccccccccccsssscccccsssssssssssssssssssssssssssssssssssssssssssssssssssssssssssssssssssssssssssssssssssssssssssssssssssssssssssssssssssssssssssssssssssssssssssssssssssssssssssssssssssssssssssssssssssssssssssssssssssssssssssssssssssssssssssssssssssssssssssssssssssssssssssssssssssssssssssssssssssssssssssssssssssssssssssssssssssssssssssssssssssssssssssssssssssssssssssssssssssssscscscssscssssssssssssssssssssscscscssssscsssssssssssssssssssssssssssssscssssssssssssssscsscsssscscscssssscscscssssssscccssscccssssssssssssssssccccssscsssssssssscssssssssssssscssscccsssssscssss" />
        <path
           style="fill:#78a847;stroke-width:0.264583"
           d="m 110.7691,537.42557 c -17.712162,-1.2174 -35.201636,-5.31717 -50.932293,-11.93919 -3.39476,-1.42907 -12.031726,-5.53019 -13.049224,-6.1962 -0.599582,-0.39245 -0.603001,-0.4182 -0.147526,-1.11117 0.567899,-0.86397 6.685915,-11.38131 14.18762,-24.38958 3.063081,-5.31151 5.655596,-9.7552 5.761143,-9.87487 0.105548,-0.11968 1.504942,0.44093 3.109765,1.24577 7.019991,3.52066 15.66541,6.7358 22.945677,8.53324 2.036807,0.50287 3.795331,1.00635 3.90783,1.11885 0.1125,0.1125 -4.084058,7.86492 -9.325682,17.2276 -5.241626,9.36268 -9.530228,17.10145 -9.530228,17.19728 0,0.19775 2.069679,0.85437 4.233333,1.34303 0.800365,0.18079 1.870165,0.54927 2.377332,0.81888 0.507169,0.26964 1.410856,0.49022 2.008198,0.49022 1.085403,0 4.419817,0.75676 5.668637,1.28651 0.582306,0.24702 1.680636,0.48059 7.540625,1.60364 2.200603,0.42172 9.586243,1.23777 13.758333,1.52019 2.21269,0.14978 2.84446,0.40061 2.6018,1.03296 -0.15919,0.41484 -0.37365,0.41873 -5.11534,0.0928 z m 9.58871,-0.0387 c 0.135,-0.405 1.07563,-0.67551 2.44983,-0.70448 1.18689,-0.0251 1.87922,0.2913 1.60578,0.73374 -0.26378,0.4268 -4.19817,0.39841 -4.05561,-0.0293 z m -17.03684,-76.79625 c -5.382073,-1.18246 -13.059247,-3.80106 -17.290413,-5.89758 -1.018646,-0.50473 -1.88318,-0.94475 -1.921187,-0.97783 -0.03801,-0.0331 1.856248,-3.38263 4.209457,-7.44346 13.431423,-23.17803 17.732523,-30.71503 17.764583,-31.12968 0.0197,-0.25466 0.0919,-0.46302 0.16044,-0.46302 0.0686,0 1.91845,1.76601 4.11088,3.92447 4.12486,4.06095 5.44352,4.96821 8.11686,5.58451 2.81342,0.6486 6.6121,0.12915 8.96626,-1.22608 0.65484,-0.37698 2.92198,-2.39485 5.03808,-4.48416 2.1161,-2.08931 3.92066,-3.79874 4.01013,-3.79874 0.92176,0 -5.27711,6.53695 -7.97765,8.41275 -1.35982,0.94453 -1.60918,1.33387 -6.89786,10.76954 -3.71253,6.62364 -5.42169,9.91793 -5.28501,10.18646 0.3096,0.6082 -8.97612,17.05016 -9.66513,17.11377 -0.28683,0.0265 -1.78958,-0.23045 -3.33944,-0.57095 z m -26.875047,-75.3465 c -2.684489,-2.65575 -5.049192,-5.15015 -5.254898,-5.54311 -0.316217,-0.60406 -0.372748,-5.48971 -0.365839,-31.61771 0.0047,-17.58238 0.114805,-31.72401 0.255558,-32.80737 0.6717,-5.17001 4.680421,-9.57502 9.815063,-10.78534 1.36457,-0.32165 3.793453,-0.40034 12.4543,-0.40349 l 10.759133,-0.004 0.0888,-12.28127 c 0.0488,-6.7547 0.15509,-12.34748 0.23612,-12.42841 0.081,-0.0809 7.66995,-0.18006 16.86426,-0.2203 l 16.71692,-0.0731 12.90137,12.86067 c 9.24511,9.21593 13.42625,13.20281 14.75345,14.06797 2.21539,1.44414 2.88591,2.12611 4.46462,4.54088 0.90338,1.3818 9.42028,10.05911 34.41739,35.06565 18.26932,18.2762 33.21695,33.315 33.21695,33.41954 0,0.10454 -7.4176,0.19008 -16.48354,0.19008 -9.13879,0 -16.59554,0.10387 -16.7349,0.23311 -0.13824,0.12821 -7.51316,0.30692 -16.3887,0.39712 l -16.13735,0.16401 -5.0318,5.02684 c -4.47779,4.47338 -5.68829,5.50142 -5.68829,4.83088 0,-0.10777 2.2579,-2.45926 5.01755,-5.22552 l 5.01756,-5.02956 0.0307,-32.54375 c 0.034,-36.08658 0.1693,-33.25134 -1.73674,-36.38902 -1.80667,-2.9741 -5.32636,-5.47105 -8.56358,-6.07521 -0.80544,-0.15032 -6.06913,-0.26598 -12.10468,-0.26598 -5.87373,0 -10.7063,-0.0298 -10.73904,-0.0661 -0.0327,-0.0364 -0.12204,-5.60256 -0.19844,-12.36928 l -0.13891,-12.30312 H 121.3525 104.81604 l -0.13229,12.43542 -0.13229,12.43541 -11.773958,0.14186 c -7.357367,0.0886 -12.07262,0.24855 -12.570145,0.42628 -3.142909,1.12275 -5.886826,3.35234 -7.232269,5.87665 -1.707153,3.20295 -1.628836,1.44046 -1.628836,36.65666 v 32.01006 l 5.216811,5.2406 c 2.869245,2.88233 5.114885,5.2406 4.990314,5.2406 -0.124574,0 -2.422895,-2.17289 -5.107384,-4.82865 z M 118.5904,375.22907 c -7.05858,-0.94633 -13.60039,-5.92658 -16.33539,-12.43609 -1.84584,-4.39322 -2.17559,-9.52263 -0.89055,-13.85307 2.54816,-8.58703 9.52506,-14.27244 18.53276,-15.10216 3.50254,-0.32262 8.21612,0.72624 11.48557,2.55576 6.73035,3.76616 10.66864,10.49389 10.66864,18.22509 0,7.28014 -3.18907,13.19616 -9.39558,17.42965 -3.71835,2.53629 -9.35873,3.81183 -14.06545,3.18082 z"
           id="path1119" />
        <path
           style="fill:#686867;stroke-width:0.264583"
           d="m 118.36224,424.17874 c -0.5532,-0.13018 -1.6843,-0.55576 -2.51354,-0.94572 -1.85616,-0.87286 -3.71254,-2.6641 -27.106164,-26.15495 L 71.346182,379.60942 v -32.01898 c 0,-34.84015 -0.05958,-33.37421 1.479894,-36.41222 1.321689,-2.60822 4.202086,-5.01141 7.329501,-6.11519 0.55644,-0.19639 4.895088,-0.34801 12.621855,-0.44111 l 11.773958,-0.14186 0.13229,-12.43541 0.13229,-12.43542 h 16.53646 16.53646 l 0.13891,12.30312 c 0.0764,6.76672 0.1657,12.33289 0.19844,12.36928 0.0327,0.0364 4.86531,0.0661 10.73904,0.0661 6.03555,0 11.29924,0.11566 12.10468,0.26598 5.04718,0.94195 9.8316,5.96763 10.26134,10.77876 0.0878,0.98316 0.12321,15.87209 0.0787,33.08653 l -0.081,31.29898 -21.086,21.08852 c -15.17544,15.17726 -21.4938,21.32641 -22.54085,21.93721 -2.56199,1.49455 -6.41897,2.06237 -9.33983,1.37499 z m 8.14957,-49.45557 c 7.34554,-1.87056 13.01941,-7.53129 14.97991,-14.94519 0.7795,-2.94782 0.77681,-7.3902 -0.006,-10.31875 -2.98449,-11.16155 -13.92301,-17.70206 -25.16012,-15.04409 -2.38575,0.56432 -6.16537,2.44924 -8.1293,4.05416 -7.12853,5.82538 -9.549199,15.73601 -5.94104,24.32368 3.32206,7.90675 11.73639,13.10847 20.28805,12.54203 1.16416,-0.0771 2.9501,-0.35244 3.96875,-0.61184 z"
           id="path1117" />
      </g>
    </g>
  </g>
  <g
     inkscape:groupmode="layer"
     id="layer2"
     inkscape:label="Logo" />
</svg>
