<?xml version="1.0" encoding="UTF-8" standalone="no"?>
<svg
   xmlns:dc="http://purl.org/dc/elements/1.1/"
   xmlns:cc="http://creativecommons.org/ns#"
   xmlns:rdf="http://www.w3.org/1999/02/22-rdf-syntax-ns#"
   xmlns:svg="http://www.w3.org/2000/svg"
   xmlns="http://www.w3.org/2000/svg"
   xmlns:xlink="http://www.w3.org/1999/xlink"
   xmlns:sodipodi="http://sodipodi.sourceforge.net/DTD/sodipodi-0.dtd"
   xmlns:inkscape="http://www.inkscape.org/namespaces/inkscape"
   width="392mm"
   height="150mm"
   viewBox="0 0 392 150"
   version="1.1"
   id="svg2146"
   inkscape:version="1.0.1 (3bc2e813f5, 2020-09-07)"
   sodipodi:docname="atom.svg">
  <title
     id="title1091">Colored Badge Template</title>
  <defs
     id="defs2140">
    <linearGradient
       inkscape:collect="always"
       id="linearGradient1181">
      <stop
         style="stop-color:#20974c;stop-opacity:1"
         offset="0"
         id="stop1177" />
      <stop
         style="stop-color:#2cd469;stop-opacity:1"
         offset="1"
         id="stop1179" />
    </linearGradient>
    <linearGradient
       inkscape:collect="always"
       id="linearGradient2974">
      <stop
         style="stop-color:#000000;stop-opacity:1"
         offset="0"
         id="stop2970" />
      <stop
         style="stop-color:#404040;stop-opacity:1"
         offset="1"
         id="stop2972" />
    </linearGradient>
    <linearGradient
       inkscape:collect="always"
       xlink:href="#linearGradient2974"
       id="linearGradient1030"
       gradientUnits="userSpaceOnUse"
       x1="-8.5265128e-14"
       y1="150"
       x2="-8.5265128e-14"
       y2="0"
       gradientTransform="scale(0.79136965,1)" />
    <linearGradient
       inkscape:collect="always"
       xlink:href="#linearGradient1181"
       id="linearGradient1038"
       x1="-8.5265128e-14"
       y1="150"
       x2="-8.5265128e-14"
       y2="0"
       gradientUnits="userSpaceOnUse"
       gradientTransform="translate(6.086914e-6,-1.5253906e-5)" />
    <linearGradient
       inkscape:collect="always"
       xlink:href="#linearGradient1181"
       id="linearGradient1038-0"
       x1="-8.5265128e-14"
       y1="150"
       x2="-8.5265128e-14"
       y2="0"
       gradientUnits="userSpaceOnUse"
       gradientTransform="matrix(0.17738398,0,0,1,123.3924,0)" />
  </defs>
  <sodipodi:namedview
     id="base"
     pagecolor="#ffffff"
     bordercolor="#666666"
     borderopacity="1.0"
     inkscape:pageopacity="0.0"
     inkscape:pageshadow="2"
     inkscape:zoom="0.22627417"
     inkscape:cx="507.44736"
     inkscape:cy="1533.442"
     inkscape:document-units="mm"
     inkscape:current-layer="layer2"
     inkscape:document-rotation="0"
     showgrid="false"
     inkscape:snap-bbox="true"
     inkscape:window-width="1920"
     inkscape:window-height="1017"
     inkscape:window-x="-8"
     inkscape:window-y="-8"
     inkscape:window-maximized="1" />
  <metadata
     id="metadata2143">
    <rdf:RDF>
      <cc:Work
         rdf:about="">
        <dc:format>image/svg+xml</dc:format>
        <dc:type
           rdf:resource="http://purl.org/dc/dcmitype/StillImage" />
        <dc:title>Colored Badge Template</dc:title>
      </cc:Work>
    </rdf:RDF>
  </metadata>
  <g
     inkscape:label="Text Background"
     inkscape:groupmode="layer"
     id="layer1">
    <rect
       style="opacity:0.996;fill:url(#linearGradient1030);fill-opacity:1;stroke-width:4.68548;stroke-linecap:square;paint-order:stroke fill markers"
       id="rect7"
       width="392"
       height="150"
       x="-8.5265128e-14"
       y="0"
       ry="15.000003" />
  </g>
  <g
     inkscape:groupmode="layer"
     id="layer4"
     inkscape:label="Text">
    <text
       xml:space="preserve"
       style="font-style:normal;font-weight:normal;font-size:67.3689px;line-height:1.25;font-family:sans-serif;fill:#ffffff;fill-opacity:1;stroke:none;stroke-width:0.350876"
       x="184.14452"
       y="98.980659"
       id="text13"><tspan
         sodipodi:role="line"
         id="tspan11"
         x="184.14452"
         y="98.980659"
         style="font-size:67.3689px;fill:#ffffff;stroke-width:0.350876">Atom</tspan></text>
  </g>
  <g
     inkscape:groupmode="layer"
     id="layer3"
     inkscape:label="Logo Background">
    <rect
       style="opacity:0.996;fill:url(#linearGradient1038);fill-opacity:1;stroke-width:2.89838;stroke-linecap:square;paint-order:stroke fill markers"
       id="rect7-3"
       width="150"
       height="150"
       x="6.6757202e-06"
       y="-1.5258789e-05"
       ry="15" />
    <rect
       style="opacity:0.996;fill:url(#linearGradient1038-0);fill-opacity:1.0;stroke-width:1.22071;stroke-linecap:square;paint-order:stroke fill markers"
       id="rect7-3-0"
       width="26.607597"
       height="150"
       x="123.3924"
       y="0" />
    <circle
       style="opacity:0.996;fill:#2cd268;fill-opacity:1;stroke-width:5.15838;stroke-linecap:square;paint-order:stroke fill markers"
       id="path1183"
       cx="75"
       cy="75"
       r="40" />
  </g>
  <g
     inkscape:groupmode="layer"
     id="layer2"
     inkscape:label="Logo">
    <path
       style="fill:#ffffff;stroke-width:0.223219"
       d="m 68.40421,124.65296 c -3.288437,-0.44674 -6.107444,-1.10958 -9.425183,-2.21616 -18.078459,-6.0298 -31.147382,-21.97189 -33.647645,-41.044971 -0.441843,-3.37057 -0.441843,-9.41087 0,-12.78144 C 27.081393,55.2606 34.078776,43.14361 44.640273,35.17423 53.646216,28.37863 63.724404,25 74.989178,25 c 5.935532,0 10.506161,0.73269 16.010151,2.56648 18.071741,6.02106 31.147391,21.97095 33.647651,41.043909 0.67904,5.18004 0.35885,12.22889 -0.79151,17.42467 -0.71282,3.21957 -2.33618,7.8097 -3.87373,10.95314 -7.40659,15.142441 -21.814017,25.470021 -38.601848,27.670721 -3.213758,0.42128 -9.853251,0.41824 -12.975682,-0.006 z m 20.770124,-22.84642 c 1.255801,-0.72031 2.119037,-1.823901 2.830017,-3.617961 0.723727,-1.82626 0.824613,-6.95824 0.207903,-10.57647 -0.799597,-4.69132 -2.835221,-10.84992 -5.127504,-15.51285 -0.702333,-1.42869 -0.914987,-1.6847 -1.450358,-1.74608 -1.508807,-0.17301 -1.629325,0.92019 -0.39691,3.60042 2.097583,4.56182 3.854089,10.00124 4.602055,14.25142 0.180367,1.02486 0.328067,3.1828 0.328236,4.79541 4.47e-4,3.3829 -0.328742,4.74741 -1.460558,6.0558 -0.713165,0.82441 -0.739833,0.83371 -2.364653,0.82435 -1.389378,-0.008 -1.850566,-0.1164 -2.984145,-0.70127 -4.088619,-2.10949 -9.190124,-7.54959 -13.5019,-14.39803 -1.633753,-2.5949 -5.581859,-10.33931 -5.581859,-10.94909 0,-0.46685 1.919864,-3.64136 4.002826,-6.61871 l 1.466041,-2.095539 4.129554,0.12884 c 12.21986,0.38126 23.400243,3.589509 27.456921,7.878849 2.81078,2.97199 1.7244,5.28015 -3.795683,8.06443 -0.995876,0.5023 -1.24129,0.7377 -1.299646,1.24658 -0.175954,1.53452 1.059042,1.65006 3.585838,0.33547 2.048821,-1.06591 4.214531,-2.95534 4.920641,-4.2929 0.68945,-1.30599 0.67277,-3.67195 -0.0354,-5.01654 C 101.5803,67.528129 89.637,63.41697 73.332443,62.66323 72.719058,62.63493 72.195,62.49452 72.145966,62.34549 c -0.1198,-0.36412 5.966605,-6.4195 7.700366,-7.66114 3.546507,-2.53983 5.821706,-3.58293 7.878657,-3.6121 1.561418,-0.0221 2.429936,0.44653 3.147471,1.69844 0.490767,0.85625 0.523333,1.14183 0.523999,4.5961 4.39e-4,2.02571 0.08167,3.80867 0.180586,3.96214 0.335921,0.52108 1.450163,0.32843 1.878331,-0.32476 0.337364,-0.51466 0.395779,-1.13243 0.395779,-4.18536 0,-3.28714 -0.04336,-3.6775 -0.527526,-4.74835 -0.623365,-1.37877 -2.063354,-2.78343 -3.285982,-3.2054 -4.65146,-1.60535 -12.58515,3.12945 -19.918969,11.88759 l -1.620264,1.93494 -1.721266,0.14594 c -0.946692,0.0803 -2.559893,0.2432 -3.584884,0.36209 -1.306336,0.15149 -1.95065,0.1439 -2.154656,-0.0254 -0.476307,-0.3953 -0.838559,-3.69548 -0.7473,-6.80791 0.07542,-2.57258 0.152635,-3.04682 0.680355,-4.1795 0.742854,-1.59446 1.608806,-2.18024 3.224716,-2.18141 1.204775,-8.4e-4 3.038671,0.79651 5.584399,2.42811 1.264845,0.81067 1.978415,0.798 2.288647,-0.0407 0.296885,-0.80256 0.01569,-1.25195 -1.428423,-2.28241 -2.300795,-1.64181 -4.162802,-2.40071 -6.176338,-2.51727 -1.552585,-0.0899 -1.875564,-0.0358 -2.963442,0.49648 -2.938496,1.43768 -4.297949,5.58913 -3.681906,11.24375 0.156592,1.43736 0.292152,3.05839 0.301238,3.60231 l 0.01654,0.98893 -1.227707,0.30394 c -7.665556,1.897699 -12.277061,5.358649 -12.277061,9.213979 0,1.70969 0.635388,2.90916 2.546597,4.80737 1.680931,1.66952 4.033595,3.22853 4.872087,3.22853 0.508383,0 1.107147,-0.80239 1.025776,-1.3746 -0.05197,-0.36565 -0.633178,-0.89259 -1.971109,-1.78715 -4.41553,-2.95231 -5.095151,-5.22258 -2.322107,-7.75699 1.853933,-1.69438 6.336104,-3.61696 9.245915,-3.96592 l 1.008498,-0.12095 1.182967,3.57313 1.182959,3.57315 -0.673606,1.19523 c -1.741514,3.09011 -3.975298,8.92137 -4.947063,12.91424 -0.731869,3.00713 -0.751602,7.58539 -0.04041,9.3752 1.9289,4.854391 6.952298,5.211051 13.370928,0.94932 1.354172,-0.89913 1.687098,-1.61466 1.069022,-2.29763 -0.590927,-0.65297 -1.088536,-0.54655 -3.085925,0.65992 -2.495521,1.50735 -3.997511,2.06728 -5.650829,2.10657 -1.666808,0.0396 -2.394341,-0.39591 -3.139937,-1.87959 -1.15813,-2.30458 -0.816936,-6.64517 0.937571,-11.92726 1.228534,-3.69861 2.980679,-7.70105 3.371295,-7.70105 0.165248,0 0.491948,0.43291 0.726006,0.96203 1.701466,3.84645 5.952151,10.79262 8.791541,14.36652 2.052261,2.58316 4.967421,5.52805 6.955277,7.0262 2.951538,2.224431 4.988166,3.072901 7.39814,3.082081 1.321801,0.005 1.736141,-0.0936 2.68937,-0.64038 z M 62.84324,70.121839 c -0.06513,-0.10542 -0.380577,-1.0214 -0.700932,-2.03553 -0.386558,-1.22368 -0.507734,-1.91859 -0.360261,-2.066059 0.320592,-0.32059 4.02498,-0.73702 4.280779,-0.48123 0.128405,0.12841 -0.365779,1.079269 -1.292373,2.486589 -1.476731,2.24291 -1.691915,2.47695 -1.927213,2.09623 z m 14.21287,7.86276 c 1.366608,-0.7067 2.007176,-2.63398 1.402067,-4.21843 -0.443286,-1.16074 -1.162931,-1.79292 -2.429033,-2.13386 -2.505814,-0.67474 -4.92414,1.81602 -4.178747,4.30393 0.661685,2.20853 3.066293,3.1547 5.205713,2.04836 z"
       id="path1174" />
  </g>
</svg>
