<?xml version="1.0" encoding="UTF-8" standalone="no"?>
<svg
   xmlns:dc="http://purl.org/dc/elements/1.1/"
   xmlns:cc="http://creativecommons.org/ns#"
   xmlns:rdf="http://www.w3.org/1999/02/22-rdf-syntax-ns#"
   xmlns:svg="http://www.w3.org/2000/svg"
   xmlns="http://www.w3.org/2000/svg"
   xmlns:xlink="http://www.w3.org/1999/xlink"
   xmlns:sodipodi="http://sodipodi.sourceforge.net/DTD/sodipodi-0.dtd"
   xmlns:inkscape="http://www.inkscape.org/namespaces/inkscape"
   width="472mm"
   height="150mm"
   viewBox="0 0 472 150"
   version="1.1"
   id="svg2146"
   inkscape:version="1.0.1 (3bc2e813f5, 2020-09-07)"
   sodipodi:docname="blender.svg">
  <title
     id="title1091">Colored Badge Template</title>
  <defs
     id="defs2140">
    <linearGradient
       inkscape:collect="always"
       id="linearGradient2298">
      <stop
         style="stop-color:#c75819;stop-opacity:1"
         offset="0"
         id="stop2294" />
      <stop
         style="stop-color:#fd6f20;stop-opacity:1"
         offset="1"
         id="stop2296" />
    </linearGradient>
    <linearGradient
       inkscape:collect="always"
       id="linearGradient2974">
      <stop
         style="stop-color:#000000;stop-opacity:1"
         offset="0"
         id="stop2970" />
      <stop
         style="stop-color:#404040;stop-opacity:1"
         offset="1"
         id="stop2972" />
    </linearGradient>
    <linearGradient
       inkscape:collect="always"
       xlink:href="#linearGradient2974"
       id="linearGradient1030"
       gradientUnits="userSpaceOnUse"
       x1="-8.5265128e-14"
       y1="150"
       x2="-8.5265128e-14"
       y2="0"
       gradientTransform="scale(0.95287373,1)" />
    <linearGradient
       inkscape:collect="always"
       xlink:href="#linearGradient2298"
       id="linearGradient1038-4"
       x1="-6.8115232e-06"
       y1="150"
       x2="-8.5265128e-14"
       y2="0"
       gradientUnits="userSpaceOnUse"
       gradientTransform="translate(6.8115233e-6)" />
    <linearGradient
       inkscape:collect="always"
       xlink:href="#linearGradient2298"
       id="linearGradient1038-0-4"
       x1="5.7943904e-05"
       y1="150"
       x2="5.7943904e-05"
       y2="-2.7587889e-06"
       gradientUnits="userSpaceOnUse"
       gradientTransform="matrix(0.17738398,0,0,1,123.3924,1.8017578e-5)" />
  </defs>
  <sodipodi:namedview
     id="base"
     pagecolor="#ffffff"
     bordercolor="#666666"
     borderopacity="1.0"
     inkscape:pageopacity="0.0"
     inkscape:pageshadow="2"
     inkscape:zoom="0.35484626"
     inkscape:cx="804.10448"
     inkscape:cy="493.58411"
     inkscape:document-units="mm"
     inkscape:current-layer="layer1"
     inkscape:document-rotation="0"
     showgrid="false"
     inkscape:snap-bbox="true"
     inkscape:window-width="1920"
     inkscape:window-height="1017"
     inkscape:window-x="-8"
     inkscape:window-y="-8"
     inkscape:window-maximized="1" />
  <metadata
     id="metadata2143">
    <rdf:RDF>
      <cc:Work
         rdf:about="">
        <dc:format>image/svg+xml</dc:format>
        <dc:type
           rdf:resource="http://purl.org/dc/dcmitype/StillImage" />
        <dc:title>Colored Badge Template</dc:title>
      </cc:Work>
    </rdf:RDF>
  </metadata>
  <g
     inkscape:label="Text Background"
     inkscape:groupmode="layer"
     id="layer1">
    <rect
       style="opacity:0.996;fill:url(#linearGradient1030);fill-opacity:1;stroke-width:5.14139;stroke-linecap:square;paint-order:stroke fill markers"
       id="rect7"
       width="472"
       height="150"
       x="-8.5265128e-14"
       y="0"
       ry="15.000003" />
  </g>
  <g
     inkscape:groupmode="layer"
     id="layer4"
     inkscape:label="Text">
    <text
       xml:space="preserve"
       style="font-style:normal;font-weight:normal;font-size:67.369px;line-height:1.25;font-family:sans-serif;fill:#ffffff;fill-opacity:1;stroke:none;stroke-width:0.350877"
       x="185.00008"
       y="98.980667"
       id="text13"><tspan
         sodipodi:role="line"
         id="tspan11"
         x="185.00008"
         y="98.980667"
         style="font-size:67.369px;fill:#ffffff;stroke-width:0.350877">Blender</tspan></text>
  </g>
  <g
     inkscape:groupmode="layer"
     id="layer3"
     inkscape:label="Logo Background" />
  <g
     inkscape:groupmode="layer"
     id="layer2"
     inkscape:label="Logo">
    <rect
       style="opacity:0.996;fill:url(#linearGradient1038-4);fill-opacity:1;stroke-width:2.89838;stroke-linecap:square;paint-order:stroke fill markers"
       id="rect7-3-1"
       width="150"
       height="150"
       x="-8.5265128e-14"
       y="0"
       ry="15" />
    <rect
       style="opacity:0.996;fill:url(#linearGradient1038-0-4);fill-opacity:1;stroke-width:1.22071;stroke-linecap:square;paint-order:stroke fill markers"
       id="rect7-3-0-6"
       width="26.607597"
       height="150"
       x="123.39241"
       y="1.5258789e-05" />
    <g
       id="g2282"
       transform="matrix(0.47309272,0,0,0.47309272,103.22518,-87.449637)"
       style="fill:#ffffff">
      <path
         style="fill:#ffffff;stroke-width:0.264583"
         d="m -34.64712,425.99969 c -17.359289,-1.76006 -32.023317,-7.97742 -44.428336,-18.83706 -9.376249,-8.20819 -16.820706,-19.94427 -19.863647,-31.31476 -1.390507,-5.19587 -1.585227,-6.68958 -1.572017,-12.05906 0.007,-2.80128 -0.0537,-5.09157 -0.13465,-5.08954 -0.081,0.002 -7.94578,6.38525 -17.47739,14.18493 -23.9139,19.56864 -24.88754,20.34031 -27.01698,21.41268 -4.72217,2.37805 -10.38741,2.62125 -14.32044,0.61477 -1.90481,-0.97176 -3.99989,-3.20952 -4.99126,-5.33117 -0.82731,-1.77057 -0.89408,-2.11005 -0.89666,-4.55886 -0.005,-4.38694 1.44155,-7.85252 4.74098,-11.36121 1.04502,-1.1113 14.7333,-11.75412 39.17707,-30.46069 20.66395,-15.81393 37.865779,-29.03607 38.226274,-29.38254 l 0.655447,-0.62994 -21.557531,-0.005 c -17.51579,-0.004 -21.88711,-0.0745 -23.31541,-0.37719 -8.23779,-1.74604 -10.46836,-10.10265 -4.30648,-16.13379 2.78743,-2.7283 6.28741,-4.27332 10.55226,-4.65819 1.46072,-0.13182 21.03117,-0.24368 43.48988,-0.24858 29.449054,-0.006 40.807119,-0.0896 40.737513,-0.29846 -0.05309,-0.15925 -6.334178,-5.36824 -13.957986,-11.57552 -15.795675,-12.86079 -15.498085,-12.55231 -15.482247,-16.04846 0.01066,-2.35498 0.817144,-4.00162 2.88589,-5.89234 4.022391,-3.67624 10.783771,-4.56622 15.71321,-2.06828 1.393505,0.70614 67.224609,51.09143 71.142787,54.4507 11.557376,9.90878 19.273044,23.36864 21.960001,38.30888 0.608402,3.38288 0.692582,4.57157 0.712023,10.05417 0.02365,6.67386 -0.251269,9.21172 -1.60166,14.7845 -2.141122,8.83598 -6.635716,17.8443 -12.689073,25.43216 -2.272276,2.84829 -7.49672,8.06735 -10.422192,10.41144 -10.462609,8.38338 -23.2728798,13.94302 -37.041667,16.07604 -2.818964,0.4367 -5.077698,0.56956 -10.715625,0.6303 -3.929063,0.0423 -7.62,0.0287 -8.202084,-0.0303 z m 16.139584,-0.79455 c 13.5562156,-1.45358 26.6328819,-6.58837 37.570834,-14.75286 5.7952,-4.32575 12.794062,-11.83468 16.674814,-17.89004 9.597155,-14.97498 12.356354,-33.00928 7.667726,-50.11671 -2.200571,-8.02926 -6.564577,-16.42077 -12.119835,-23.30516 -2.324412,-2.88054 -6.565403,-7.11153 -9.660893,-9.63811 -5.645814,-4.60818 -68.264009,-52.48433 -69.439312,-53.09139 -4.197649,-2.16814 -9.920571,-1.83649 -14.094219,0.81677 -2.644815,1.68136 -3.943816,3.86013 -3.943816,6.61481 0,2.25924 0.560935,3.46196 2.409306,5.16589 0.70647,0.65126 7.147116,5.93865 14.312546,11.74976 8.425643,6.83313 13.028057,10.73331 13.028057,11.04025 0,0.45416 -1.866262,0.47803 -43.325521,0.5542 -48.301571,0.0887 -44.094591,-0.0807 -48.187261,1.94081 -2.49854,1.23413 -5.19662,3.84263 -6.26973,6.06159 -0.66109,1.36697 -0.76823,1.89992 -0.77126,3.83646 -0.003,2.00722 0.0818,2.40317 0.79023,3.68365 0.93918,1.69755 2.71696,3.18374 4.82809,4.0362 l 1.52191,0.61452 22.75417,0.1323 c 19.920621,0.11582 22.754163,0.18137 22.754163,0.52645 0,0.21678 -17.204531,13.57776 -38.232293,29.69107 -27.06594,20.74028 -38.77605,29.8673 -40.09405,31.24985 -6.16049,6.46224 -6.12434,15.64173 0.0778,19.74984 3.75581,2.48775 9.95061,2.50099 14.83551,0.0317 2.1997,-1.11193 2.84891,-1.62448 24.77723,-19.56194 11.05592,-9.04378 20.25058,-16.44324 20.43257,-16.44324 0.258134,0 0.296049,1.00355 0.17244,4.56406 -0.13806,3.97676 -0.0832,5.00464 0.42656,7.98792 1.375687,8.05148 4.580609,15.95758 9.391181,23.16677 9.208487,13.79995 22.994412,23.74559 40.095364,28.92618 9.748163,2.95313 20.465286,3.85421 31.617709,2.65838 z m -13.78439,-30.79498 c -20.564912,-1.99948 -37.015418,-16.42144 -39.969856,-35.04109 -0.559824,-3.52816 -0.357626,-10.40597 0.401945,-13.67236 3.00977,-12.94294 12.358417,-23.78143 25.174176,-29.18604 5.964838,-2.51547 10.945381,-3.58254 17.656572,-3.7829 8.166404,-0.24381 15.060253,1.11018 21.9625783,4.31356 12.6832203,5.8863 21.2803977,16.42043 24.0621797,29.48341 0.665988,3.12742 0.66548,10.80287 -0.0011,14.11269 -1.038056,5.15561 -3.447241,10.68392 -6.615483,15.18042 -1.9503844,2.76808 -6.4176412,7.33094 -9.1753272,9.3717 -7.958254,5.88932 -17.1470798,9.02771 -27.3465588,9.34007 -2.05809,0.063 -4.825272,0.009 -6.149289,-0.11946 z m 9.62763,-0.54028 c 8.109963,-0.88341 15.2191639,-3.41909 21.75119467,-7.75811 3.55884173,-2.36403 8.96895183,-7.71485 11.34017433,-11.2159 3.231798,-4.77166 5.37945,-10.12048 6.290987,-15.66798 0.554379,-3.37387 0.350785,-10.27503 -0.39919,-13.53118 -1.817724,-7.89201 -5.467715,-14.21311 -11.6094114,-20.10533 -2.7491029,-2.63743 -6.9932471,-5.67009 -10.1836856,-7.27677 -4.806603,-2.42057 -10.933803,-4.28186 -16.041566,-4.87304 -3.515834,-0.40692 -11.540869,-0.19386 -14.655792,0.38911 -9.775434,1.82949 -18.466883,6.42756 -25.009029,13.23063 -7.195666,7.48265 -10.970863,16.64073 -10.968177,26.60718 0.0021,7.43595 2.001303,14.17118 6.086808,20.50521 8.810509,13.65952 26.231469,21.56607 43.397687,19.69618 z"
         id="path2288" />
      <path
         style="fill:#ffffff;stroke-width:0.264583"
         d="m -32.133578,425.62926 c -10.94472,-0.62767 -20.557191,-3.14162 -30.294792,-7.92299 -7.206575,-3.53858 -12.69636,-7.36762 -18.220614,-12.70861 -10.272659,-9.93186 -16.784341,-21.79395 -18.962806,-34.54385 -0.50973,-2.98328 -0.56462,-4.01116 -0.42656,-7.98792 0.123609,-3.56051 0.08569,-4.56406 -0.17244,-4.56406 -0.18199,0 -9.37665,7.39946 -20.43257,16.44324 -21.92832,17.93746 -22.57753,18.45001 -24.77723,19.56194 -4.8849,2.46927 -11.0797,2.45603 -14.83551,-0.0317 -6.20212,-4.10811 -6.23827,-13.2876 -0.0778,-19.74984 1.318,-1.38255 13.02811,-10.50957 40.09405,-31.24985 21.027762,-16.11331 38.232293,-29.47429 38.232293,-29.69107 0,-0.34508 -2.833542,-0.41063 -22.754163,-0.52645 l -22.75417,-0.1323 -1.52191,-0.61452 c -2.11113,-0.85246 -3.88891,-2.33865 -4.82809,-4.0362 -0.70843,-1.28048 -0.79337,-1.67643 -0.79023,-3.68365 0.003,-1.93654 0.11017,-2.46949 0.77126,-3.83646 1.07311,-2.21896 3.77119,-4.82746 6.26973,-6.06159 4.09267,-2.02152 -0.11431,-1.85208 48.187261,-1.94081 41.459259,-0.0762 43.325521,-0.10004 43.325521,-0.5542 0,-0.30694 -4.602414,-4.20712 -13.028057,-11.04025 -7.16543,-5.81111 -13.606076,-11.0985 -14.312546,-11.74976 -1.848371,-1.70393 -2.409306,-2.90665 -2.409306,-5.16589 0,-2.75468 1.299001,-4.93345 3.943816,-6.61481 4.173648,-2.65326 9.89657,-2.98491 14.094219,-0.81677 1.175303,0.60706 63.793498,48.48321 69.439312,53.09139 10.482355,8.55582 18.364076,20.4769 21.780728,32.94327 2.524077,9.20962 2.929075,18.94812 1.167601,28.07588 -1.825072,9.45731 -5.790967,18.24087 -11.982601,26.53875 -2.67339,3.58281 -9.683647,10.52289 -13.52754,13.39212 -14.4853002,10.81237 -32.772835,16.23359 -51.196876,15.17698 z m 12.805773,-31.73957 c 10.0431969,-1.71697 18.33141813,-5.96367 25.2942276,-12.96021 5.7105654,-5.73823 9.5029494,-12.7162 11.0283094,-20.29205 0.666417,-3.30982 0.666925,-10.98527 0.0011,-14.11269 -3.855514,-18.10513 -18.9626299,-31.16629 -38.881009,-33.61538 -3.276547,-0.40287 -10.873687,-0.19536 -14.084697,0.38471 -9.501113,1.71637 -18.253937,6.17364 -24.729458,12.59317 -5.695469,5.64622 -9.392979,12.20926 -11.160343,19.80947 -0.759571,3.26639 -0.961768,10.1442 -0.401944,13.67236 1.513171,9.5364 6.54086,18.12684 14.46362,24.71292 6.709326,5.57736 16.209579,9.42428 25.506236,10.32817 3.421703,0.33268 9.370769,0.0938 12.96412,-0.52047 z"
         id="path2286" />
      <path
         style="fill:#ffffff;stroke-width:0.264583"
         d="m -30.67837,377.99145 c -11.383081,-1.5621 -20.460639,-8.95647 -23.591872,-19.2174 -0.639948,-2.09708 -0.710242,-2.73332 -0.710242,-6.42847 0,-3.69427 0.07038,-4.33168 0.709607,-6.42629 1.270566,-4.16339 3.00894,-7.16994 5.965923,-10.31816 5.608585,-5.97131 12.988357,-9.04263 21.727626,-9.04263 8.128286,0 14.959733,2.59881 20.4672834,7.78612 3.5439351,3.33788 6.13617179,7.58821 7.3478656,12.04783 0.757473,2.78787 0.8351414,8.59894 0.1514607,11.33182 -2.4830511,9.92547 -10.8068085,17.53703 -21.7522987,19.89113 -2.34642,0.50465 -7.90231,0.7072 -10.315353,0.37605 z"
         id="path2284" />
    </g>
  </g>
</svg>
