<?xml version="1.0" encoding="UTF-8" standalone="no"?>
<svg
   xmlns:dc="http://purl.org/dc/elements/1.1/"
   xmlns:cc="http://creativecommons.org/ns#"
   xmlns:rdf="http://www.w3.org/1999/02/22-rdf-syntax-ns#"
   xmlns:svg="http://www.w3.org/2000/svg"
   xmlns="http://www.w3.org/2000/svg"
   xmlns:xlink="http://www.w3.org/1999/xlink"
   xmlns:sodipodi="http://sodipodi.sourceforge.net/DTD/sodipodi-0.dtd"
   xmlns:inkscape="http://www.inkscape.org/namespaces/inkscape"
   width="516mm"
   height="150mm"
   viewBox="0 0 516 150"
   version="1.1"
   id="svg2146"
   inkscape:version="1.0.1 (3bc2e813f5, 2020-09-07)"
   sodipodi:docname="inkscape.svg">
  <title
     id="title1091">Colored Badge Template</title>
  <defs
     id="defs2140">
    <linearGradient
       inkscape:collect="always"
       id="linearGradient2974">
      <stop
         style="stop-color:#000000;stop-opacity:1"
         offset="0"
         id="stop2970" />
      <stop
         style="stop-color:#404040;stop-opacity:1"
         offset="1"
         id="stop2972" />
    </linearGradient>
    <linearGradient
       inkscape:collect="always"
       xlink:href="#linearGradient2974"
       id="linearGradient1030"
       gradientUnits="userSpaceOnUse"
       x1="-8.5265128e-14"
       y1="150"
       x2="-8.5265128e-14"
       y2="0"
       gradientTransform="scale(1.0417009,1)" />
    <linearGradient
       inkscape:collect="always"
       xlink:href="#linearGradient1138"
       id="linearGradient1038-4"
       x1="-6.8115232e-06"
       y1="150"
       x2="-8.5265128e-14"
       y2="0"
       gradientUnits="userSpaceOnUse"
       gradientTransform="translate(6.8115233e-6)" />
    <linearGradient
       inkscape:collect="always"
       xlink:href="#linearGradient1138"
       id="linearGradient1038-0-4"
       x1="5.7943904e-05"
       y1="150"
       x2="5.7943904e-05"
       y2="-2.7587889e-06"
       gradientUnits="userSpaceOnUse"
       gradientTransform="matrix(0.17738398,0,0,1,123.3924,1.8017578e-5)" />
    <linearGradient
       inkscape:collect="always"
       id="linearGradient1138">
      <stop
         style="stop-color:#d3d3d3;stop-opacity:1"
         offset="0"
         id="stop1134" />
      <stop
         style="stop-color:#ffffff;stop-opacity:1"
         offset="1"
         id="stop1136" />
    </linearGradient>
  </defs>
  <sodipodi:namedview
     id="base"
     pagecolor="#ffffff"
     bordercolor="#666666"
     borderopacity="1.0"
     inkscape:pageopacity="0.0"
     inkscape:pageshadow="2"
     inkscape:zoom="0.35484626"
     inkscape:cx="804.10448"
     inkscape:cy="493.58411"
     inkscape:document-units="mm"
     inkscape:current-layer="layer2"
     inkscape:document-rotation="0"
     showgrid="false"
     inkscape:snap-bbox="true"
     inkscape:window-width="1920"
     inkscape:window-height="1017"
     inkscape:window-x="-8"
     inkscape:window-y="-8"
     inkscape:window-maximized="1" />
  <metadata
     id="metadata2143">
    <rdf:RDF>
      <cc:Work
         rdf:about="">
        <dc:format>image/svg+xml</dc:format>
        <dc:type
           rdf:resource="http://purl.org/dc/dcmitype/StillImage" />
        <dc:title>Colored Badge Template</dc:title>
      </cc:Work>
    </rdf:RDF>
  </metadata>
  <g
     inkscape:label="Text Background"
     inkscape:groupmode="layer"
     id="layer1">
    <rect
       style="opacity:0.996;fill:url(#linearGradient1030);fill-opacity:1;stroke-width:5.37569;stroke-linecap:square;paint-order:stroke fill markers"
       id="rect7"
       width="516"
       height="150"
       x="-8.5265128e-14"
       y="0"
       ry="15.000003" />
  </g>
  <g
     inkscape:groupmode="layer"
     id="layer4"
     inkscape:label="Text">
    <text
       xml:space="preserve"
       style="font-style:normal;font-weight:normal;font-size:67.369px;line-height:1.25;font-family:sans-serif;fill:#ffffff;fill-opacity:1;stroke:none;stroke-width:0.350877"
       x="185.00008"
       y="98.980667"
       id="text13"><tspan
         sodipodi:role="line"
         x="185.00008"
         y="98.980667"
         style="font-size:67.369px;fill:#ffffff;stroke-width:0.350877"
         id="tspan2317">Inkscape</tspan></text>
  </g>
  <g
     inkscape:groupmode="layer"
     id="layer3"
     inkscape:label="Logo Background" />
  <g
     inkscape:groupmode="layer"
     id="layer2"
     inkscape:label="Logo">
    <rect
       style="opacity:0.996;fill:url(#linearGradient1038-4);fill-opacity:1.0;stroke-width:2.89838;stroke-linecap:square;paint-order:stroke fill markers"
       id="rect7-3-1"
       width="150"
       height="150"
       x="-8.5265128e-14"
       y="0"
       ry="15" />
    <rect
       style="opacity:0.996;fill:url(#linearGradient1038-0-4);fill-opacity:1.0;stroke-width:1.22071;stroke-linecap:square;paint-order:stroke fill markers"
       id="rect7-3-0-6"
       width="26.607597"
       height="150"
       x="123.39241"
       y="1.5258789e-05" />
    <path
       style="fill:#020202;stroke-width:0.515505"
       d="m 70.79828,123.38365 c -0.82204,-0.30124 -1.61232,-1.1572 -1.98518,-2.1502 -0.34069,-0.90736 -0.886,-2.20963 -1.21179,-2.89395 -0.66679,-1.40053 -3.6383,-2.86074 -6.89214,-3.38682 -2.48976,-0.40255 -4.7836,-1.98433 -4.7836,-3.29866 0,-0.49255 1.0439,-2.1185 2.31977,-3.61322 2.52462,-2.95768 2.74459,-3.68156 1.49769,-4.92847 -1.32027,-1.32028 -3.2839,-2.17511 -11.17557,-4.865044 -13.79331,-4.70159 -14.38059,-5.50808 -6.81832,-9.363444 3.33253,-1.69896 4.68407,-2.66739 4.79761,-3.43768 0.18217,-1.23642 -0.92684,-1.66656 -10.91719,-4.23432 -8.57216,-2.20325 -10.64002,-3.63222 -10.62952,-7.34543 0.01,-3.33333 2.79118,-6.65724 22.35427,-26.71132 20.93953,-21.46505 21.77264,-22.15193 26.87171,-22.15509 4.56688,-0.002 6.89078,1.56772 15.71107,10.61789 4.38818,4.50253 13.35031,13.66063 19.91588,20.35133 13.83345,14.09711 15.15183,15.72593 15.14702,18.71391 -0.008,5.00682 -4.03901,7.74584 -18.92204,12.85747 -9.30832,3.19698 -11.48942,4.17658 -11.48942,5.160164 0,0.95928 1.89272,2.5373 5.091153,4.24464 1.524247,0.81365 3.104427,1.98768 3.511507,2.60896 0.65909,1.005924 0.6232,1.358794 -0.32778,3.222884 -1.25976,2.46932 -2.46133,3.16171 -8.13789,4.68933 -4.74802,1.27772 -9.93162,4.50543 -9.93162,6.1842 0,0.59443 0.79792,1.4181 2.06204,2.12858 1.13411,0.63741 2.06202,1.42821 2.06202,1.75735 0,2.19817 -10.22238,6.48711 -15.20744,6.38048 -0.85058,-0.0175 -2.16109,-0.25828 -2.91224,-0.53354 z m 5.75788,-31.134224 c 0.35863,-0.432154 0.48656,-0.951224 0.28428,-1.153524 -0.2023,-0.20228 -4.46893,-1.21962 -9.48145,-2.26077 -5.01251,-1.04113 -9.51961,-2.05471 -10.01578,-2.25241 -0.50942,-0.20298 -0.90214,-0.12742 -0.90214,0.17379 0,0.72659 4.99745,3.05271 10.31013,4.79897 4.95077,1.627304 8.80402,1.900024 9.80496,0.693974 z M 76.03031,53.598912 c 2.47141,-1.5594 4.81631,-2.83408 5.2109,-2.83264 0.39458,0.002 1.64532,0.57417 2.77944,1.27268 1.13411,0.69853 2.32526,1.27729 2.64702,1.28613 0.32465,0.01 0.73968,-1.22219 0.93264,-2.76664 0.19114,-1.5305 0.50816,-3.38274 0.70428,-4.11609 l 0.35659,-1.33336 3.60807,2.88011 3.60803,2.88012 0.16054,-1.8647 c 0.15256,-1.77259 -0.22953,-2.27346 -7.73259,-10.13721 -4.34118,-4.54987 -8.75373,-8.72204 -9.80565,-9.27146 -1.05195,-0.54944 -2.90777,-0.99811 -4.12406,-0.99705 -3.69292,0.004 -5.67827,1.57046 -16.15009,12.74892 -5.16949,5.51834 -5.90833,6.52904 -5.90833,8.0824 0,2.9216 0.99146,3.45633 6.09247,3.28592 l 4.43381,-0.14807 2.34057,-3.96129 c 1.28733,-2.17871 2.49255,-4.10917 2.67831,-4.28994 0.18568,-0.18081 0.99766,2.47003 1.80427,5.89066 0.8066,3.42062 1.55741,6.22101 1.66846,6.22309 0.11106,0.002 2.22399,-1.27211 4.6954,-2.83152 z M 47.67746,112.25515 c -1.30519,-0.46841 -3.09303,-2.34081 -3.09303,-3.23932 0,-1.32953 2.09262,-2.96827 4.67,-3.65711 2.46894,-0.65986 4.24597,-0.45035 5.7959,0.68331 0.88592,0.64799 0.87388,0.76133 -0.25951,2.44318 -1.69223,2.5111 -5.29728,4.42171 -7.11336,3.76994 z m 58.3669,-1.97978 c -1.29362,-0.90609 -1.41002,-1.66196 -0.54745,-3.55505 0.71516,-1.56963 1.6806,-1.64846 3.86638,-0.31566 1.87193,1.14143 2.60569,2.83449 1.70089,3.92468 -0.81777,0.98535 -3.57834,0.95568 -5.01982,-0.054 z m 5.59283,-7.4909 c -1.25555,-0.24631 -2.49646,-0.66149 -2.75762,-0.92265 -1.3345,-1.33449 1.68951,-4.232324 5.07201,-4.860424 3.56258,-0.66151 8.18208,1.69504 7.85133,4.005214 -0.2815,1.96615 -4.99971,2.79131 -10.16572,1.77786 z"
       id="path2314" />
  </g>
</svg>
