<?xml version="1.0" encoding="UTF-8" standalone="no"?>
<svg
   xmlns:dc="http://purl.org/dc/elements/1.1/"
   xmlns:cc="http://creativecommons.org/ns#"
   xmlns:rdf="http://www.w3.org/1999/02/22-rdf-syntax-ns#"
   xmlns:svg="http://www.w3.org/2000/svg"
   xmlns="http://www.w3.org/2000/svg"
   xmlns:xlink="http://www.w3.org/1999/xlink"
   xmlns:sodipodi="http://sodipodi.sourceforge.net/DTD/sodipodi-0.dtd"
   xmlns:inkscape="http://www.inkscape.org/namespaces/inkscape"
   width="631mm"
   height="150mm"
   viewBox="0 0 631 150"
   version="1.1"
   id="svg2146"
   inkscape:version="1.0.1 (3bc2e813f5, 2020-09-07)"
   sodipodi:docname="intellijidea.svg">
  <title
     id="title1091">Colored Badge Template</title>
  <defs
     id="defs2140">
    <linearGradient
       inkscape:collect="always"
       id="linearGradient1087">
      <stop
         style="stop-color:#000000;stop-opacity:1"
         offset="0"
         id="stop1083" />
      <stop
         style="stop-color:#1d1d1d;stop-opacity:1"
         offset="1"
         id="stop1085" />
    </linearGradient>
    <linearGradient
       inkscape:collect="always"
       id="linearGradient2974">
      <stop
         style="stop-color:#000000;stop-opacity:1"
         offset="0"
         id="stop2970" />
      <stop
         style="stop-color:#404040;stop-opacity:1"
         offset="1"
         id="stop2972" />
    </linearGradient>
    <linearGradient
       inkscape:collect="always"
       xlink:href="#linearGradient2974"
       id="linearGradient1030"
       gradientUnits="userSpaceOnUse"
       x1="-8.5265128e-14"
       y1="150"
       x2="-8.5265128e-14"
       y2="0"
       gradientTransform="scale(1.2738629,1)" />
    <linearGradient
       inkscape:collect="always"
       xlink:href="#linearGradient1087"
       id="linearGradient1038"
       x1="-8.5265128e-14"
       y1="150"
       x2="-8.5265128e-14"
       y2="0"
       gradientUnits="userSpaceOnUse"
       gradientTransform="translate(6.086914e-6,-1.5253906e-5)" />
    <linearGradient
       inkscape:collect="always"
       xlink:href="#linearGradient1087"
       id="linearGradient1038-0"
       x1="-8.5265128e-14"
       y1="150"
       x2="-8.5265128e-14"
       y2="0"
       gradientUnits="userSpaceOnUse"
       gradientTransform="matrix(0.17738398,0,0,1,123.3924,0)" />
  </defs>
  <sodipodi:namedview
     id="base"
     pagecolor="#ffffff"
     bordercolor="#666666"
     borderopacity="1.0"
     inkscape:pageopacity="0.0"
     inkscape:pageshadow="2"
     inkscape:zoom="0.32"
     inkscape:cx="963.10984"
     inkscape:cy="427.83078"
     inkscape:document-units="mm"
     inkscape:current-layer="layer3"
     inkscape:document-rotation="0"
     showgrid="false"
     inkscape:snap-bbox="true"
     inkscape:window-width="1920"
     inkscape:window-height="1017"
     inkscape:window-x="-8"
     inkscape:window-y="-8"
     inkscape:window-maximized="1" />
  <metadata
     id="metadata2143">
    <rdf:RDF>
      <cc:Work
         rdf:about="">
        <dc:format>image/svg+xml</dc:format>
        <dc:type
           rdf:resource="http://purl.org/dc/dcmitype/StillImage" />
        <dc:title>Colored Badge Template</dc:title>
      </cc:Work>
    </rdf:RDF>
  </metadata>
  <g
     inkscape:label="Text Background"
     inkscape:groupmode="layer"
     id="layer1">
    <rect
       style="opacity:0.996;fill:url(#linearGradient1030);fill-opacity:1;stroke-width:5.94464;stroke-linecap:square;paint-order:stroke fill markers"
       id="rect7"
       width="631"
       height="150"
       x="-8.5265128e-14"
       y="0"
       ry="15.000003" />
  </g>
  <g
     inkscape:groupmode="layer"
     id="layer4"
     inkscape:label="Text">
    <text
       xml:space="preserve"
       style="font-style:normal;font-weight:normal;font-size:67.3688px;line-height:1.25;font-family:sans-serif;fill:#ffffff;fill-opacity:1;stroke:none;stroke-width:0.350876"
       x="180.49339"
       y="98.980537"
       id="text13"><tspan
         sodipodi:role="line"
         id="tspan11"
         x="180.49339"
         y="98.980537"
         style="font-size:67.3688px;fill:#ffffff;stroke-width:0.350876">IntelliJ IDEA</tspan></text>
  </g>
  <g
     inkscape:groupmode="layer"
     id="layer3"
     inkscape:label="Logo Background">
    <rect
       style="opacity:0.996;fill:url(#linearGradient1038);fill-opacity:1;stroke-width:2.89838;stroke-linecap:square;paint-order:stroke fill markers"
       id="rect7-3"
       width="150"
       height="150"
       x="6.6757202e-06"
       y="-1.5258789e-05"
       ry="15" />
    <rect
       style="opacity:0.996;fill:url(#linearGradient1038-0);fill-opacity:1.0;stroke-width:1.22071;stroke-linecap:square;paint-order:stroke fill markers"
       id="rect7-3-0"
       width="26.607597"
       height="150"
       x="123.3924"
       y="0" />
    <rect
       style="opacity:0.996;fill:#ffffff;fill-opacity:1;stroke-width:5.29167;stroke-linecap:square;paint-order:stroke fill markers"
       id="rect1081"
       width="50.389446"
       height="51.900578"
       x="42.490242"
       y="50.465431"
       ry="14.999997" />
  </g>
  <g
     inkscape:groupmode="layer"
     id="layer2"
     inkscape:label="Logo">
    <g
       id="g1056"
       transform="translate(139.21404,15.161925)">
      <g
         id="g1079"
         transform="matrix(0.35664478,0,0,0.35664478,-97.654083,-20.078307)">
        <path
           style="fill:#3c6aed;stroke-width:0.264583"
           d="m 114.77698,363.9153 c -0.19385,-0.19383 -0.82606,-0.65574 -1.4049,-1.02643 -0.57884,-0.37068 -1.46916,-1.03354 -1.97848,-1.47304 -0.50933,-0.43947 -1.234,-1.06566 -1.61038,-1.39155 l -0.68434,-0.59248 0.81663,-1.37541 c 0.44914,-0.75648 6.17444,-11.07769 12.72288,-22.93602 l 11.90625,-21.56061 19.57643,-0.1988 c 10.76704,-0.10934 12.74256,-11.6905 19.7776,-0.32313 0.0685,0.11061 -16.34697,-1.38244 -7.03504,-11.36737 4.08819,-4.38366 -4.68611,-20.01712 -1.54698,-33.29785 l 7.41218,-31.35873 c 18.07289,-18.15403 9.50554,-37.89227 12.8912,-58.68843 28.48993,15.68605 7.93245,3.78998 20.08189,-17.57025 6.09143,-7.29472 15.74474,8.91462 17.33425,6.87756 0.64844,-0.83101 1.20621,-1.48368 1.23952,-1.45038 0.0333,0.0333 -0.0511,3.57072 -0.18751,7.86093 -3.14201,98.80024 -4.79227,148.31015 -4.94795,148.44452 -0.10644,0.0919 -5.13461,2.14284 -11.17372,4.55771 -6.03912,2.41487 -20.50521,8.21639 -32.14687,12.89226 -35.13137,14.11052 -53.84548,21.60715 -56.35625,22.57558 -1.30969,0.50517 -2.82061,1.10654 -3.35761,1.33643 -0.81317,0.34809 -1.03525,0.35904 -1.3288,0.0655 z m 59.47473,-207.26505 c -0.1058,-6.07103 -0.24981,-11.13119 -0.32002,-11.24479 -0.0702,-0.11361 -13.44244,-0.20656 -29.71606,-0.20656 -27.79865,0 -29.62087,-0.028 -30.12496,-0.46302 -0.77423,-0.66813 -6.66582,-7.46474 -6.66582,-7.68977 0,-0.1041 3.66117,-4.60341 8.13593,-9.99846 4.47477,-5.39506 11.74982,-14.17419 16.16678,-19.50918 4.41697,-5.33499 8.17132,-9.699985 8.343,-9.699985 0.17168,0 1.08218,0.632364 2.02332,1.405254 0.94115,0.772891 14.09159,11.394301 29.2232,23.603151 15.13162,12.20884 27.75224,22.40169 28.04583,22.65079 0.2936,0.2491 2.55787,2.13743 5.03172,4.19628 5.24247,4.36303 6.89521,5.9803 6.14736,6.01541 -0.17958,0.008 -8.35538,2.70718 -18.16843,5.99722 -9.81306,3.29004 -17.86162,5.98189 -17.8857,5.98189 -0.0241,0 -0.13035,-4.9672 -0.23615,-11.03823 z"
           id="path1070"
           sodipodi:nodetypes="sssscsscsssscccsscssssssssssssssssssscsss" />
        <path
           style="fill:#3c6aed;fill-opacity:1;stroke-width:0.264583"
           d="m 115.36235,364.1416 c 0,-0.0728 0.0595,-0.13229 0.13229,-0.13229 0.0728,0 0.13229,0.0595 0.13229,0.13229 0,0.0728 -0.0595,0.13229 -0.13229,0.13229 -0.0728,0 -0.13229,-0.0595 -0.13229,-0.13229 z m -1.05834,-0.52917 c 0,-0.0728 0.0595,-0.13229 0.1323,-0.13229 0.0728,0 0.13229,0.0595 0.13229,0.13229 0,0.0728 -0.0595,0.13229 -0.13229,0.13229 -0.0728,0 -0.1323,-0.0595 -0.1323,-0.13229 z m 2.38125,0 c 0,-0.0728 0.0595,-0.13229 0.1323,-0.13229 0.0728,0 0.13229,0.0595 0.13229,0.13229 0,0.0728 -0.0595,0.13229 -0.13229,0.13229 -0.0728,0 -0.1323,-0.0595 -0.1323,-0.13229 z m -3.06797,-0.43775 c -0.11697,-0.18926 -0.0726,-0.23366 0.11668,-0.11668 0.30499,0.18849 0.40948,0.42214 0.18878,0.42214 -0.0642,0 -0.20163,-0.13745 -0.30546,-0.30546 z m 3.59714,0.17317 c 0,-0.0728 0.0595,-0.13229 0.13229,-0.13229 0.0728,0 0.13229,0.0595 0.13229,0.13229 0,0.0728 -0.0595,0.13229 -0.13229,0.13229 -0.0728,0 -0.13229,-0.0595 -0.13229,-0.13229 z m 0.79375,-0.26459 c 0,-0.0728 0.0595,-0.13229 0.13229,-0.13229 0.0728,0 0.13229,0.0595 0.13229,0.13229 0,0.0728 -0.0595,0.1323 -0.13229,0.1323 -0.0728,0 -0.13229,-0.0595 -0.13229,-0.1323 z m -5.02708,-0.26458 c 0,-0.0728 0.0595,-0.13229 0.13229,-0.13229 0.0728,0 0.13229,0.0595 0.13229,0.13229 0,0.0728 -0.0595,0.13229 -0.13229,0.13229 -0.0728,0 -0.13229,-0.0595 -0.13229,-0.13229 z m 5.55625,0 c 0,-0.0728 0.0595,-0.13229 0.13229,-0.13229 0.0728,0 0.13229,0.0595 0.13229,0.13229 0,0.0728 -0.0595,0.13229 -0.13229,0.13229 -0.0728,0 -0.13229,-0.0595 -0.13229,-0.13229 z M 70.678016,335.15533 c -1.019924,-0.7608 -13.708645,-7.05333 -13.788583,-7.26165 -6.337791,-21.00259 5.739399,-21.58287 14.911352,-24.19558 1.905842,-2.46251 33.777445,-2.34964 35.555375,-4.67252 2.74127,-3.58386 20.6281,11.53687 39.69861,11.51759 55.56944,6.31392 37.6966,-93.81371 4.20464,-75.55146 25.59854,-21.39335 22.97252,-47.28728 22.59881,-68.67065 -0.0126,-11.0113 -0.0952,-20.20888 -0.18356,-20.43906 -0.14512,-0.37818 -3.01212,-0.41852 -29.7467,-0.41852 h -29.58611 l -3.4585,-3.95705 c -1.90218,-2.17638 -3.4585,-4.0277 -3.4585,-4.11405 0,-0.0864 1.37908,1.42643 3.06463,3.36174 1.68555,1.9353 3.30609,3.7271 3.60119,3.98176 0.50409,0.43501 2.32631,0.46302 30.12496,0.46302 16.27362,0 29.64585,0.093 29.71606,0.20656 0.0702,0.1136 0.21422,5.17376 0.32002,11.24479 0.1058,6.07103 0.21206,11.03823 0.23615,11.03823 0.0241,0 -37.40262,-5.17232 -27.58956,-8.46236 9.81305,-3.29004 63.45461,-3.50832 63.6226,-3.51675 0.49593,-0.0249 -0.13953,-0.84884 -1.76064,-2.28287 -3.32326,-2.93973 -3.07135,-2.79145 1.5875,0.93447 6.13039,4.9028 13.24247,10.653 13.73505,11.10496 0.31742,0.29125 0.21071,0.55371 -0.70969,1.74569 -35.27528,36.39933 -49.2921,86.9864 -49.27312,134.80343 -9e-5,5.99414 1.24944,17.89874 4.6719,16.2615 -20.13412,-4.61624 -25.99421,-3.37893 -40.69417,13.43598 -8.3886,14.72812 -19.65532,11.68321 -28.16222,26.34386 l -0.81663,1.37541 0.68434,0.59127 c 2.53888,2.1936 3.05078,2.65364 2.93329,2.63593 C 99.216432,352.6692 84.599006,345.31668 70.678016,335.15533 Z M 119.3311,362.5541 c 0,-0.0728 0.0595,-0.13229 0.13229,-0.13229 0.0728,0 0.13229,0.0595 0.13229,0.13229 0,0.0728 -0.0595,0.13229 -0.13229,0.13229 -0.0728,0 -0.13229,-0.0595 -0.13229,-0.13229 z m 1.32291,-0.52917 c 0,-0.0728 0.0595,-0.13229 0.1323,-0.13229 0.0728,0 0.13229,0.0595 0.13229,0.13229 0,0.0728 -0.0595,0.13229 -0.13229,0.13229 -0.0728,0 -0.1323,-0.0595 -0.1323,-0.13229 z m 1.32292,-0.52917 c 0,-0.0728 0.0595,-0.13229 0.13229,-0.13229 0.0728,0 0.13229,0.0595 0.13229,0.13229 0,0.0728 -0.0595,0.1323 -0.13229,0.1323 -0.0728,0 -0.13229,-0.0595 -0.13229,-0.1323 z M 224.14787,169.27598 c 0,-0.3638 0.0601,-0.51263 0.13346,-0.33073 0.0734,0.1819 0.0734,0.47956 0,0.66146 -0.0734,0.1819 -0.13346,0.0331 -0.13346,-0.33073 z m -19.65469,-19.51302 c -0.32911,-0.41964 -0.31975,-0.429 0.0999,-0.0999 0.44073,0.34564 0.58089,0.56291 0.36313,0.56291 -0.0549,0 -0.2633,-0.20836 -0.46302,-0.46302 z m -1.44673,-1.16536 c -0.11696,-0.18925 -0.0726,-0.23364 0.11668,-0.11667 0.168,0.10383 0.30546,0.24129 0.30546,0.30546 0,0.2207 -0.23364,0.11621 -0.42214,-0.18879 z m -1.46369,-1.21589 c -0.32911,-0.41964 -0.31975,-0.429 0.0999,-0.0999 0.44072,0.34564 0.58088,0.56291 0.36312,0.56291 -0.0549,0 -0.2633,-0.20836 -0.46302,-0.46302 z m -1.55375,-1.25677 c 0,-0.0728 0.0595,-0.13229 0.13229,-0.13229 0.0728,0 0.13229,0.0595 0.13229,0.13229 0,0.0728 -0.0595,0.13229 -0.13229,0.13229 -0.0728,0 -0.13229,-0.0595 -0.13229,-0.13229 z m -1.05833,-0.79375 c 0,-0.0728 0.0595,-0.13229 0.13229,-0.13229 0.0728,0 0.13229,0.0595 0.13229,0.13229 -0.13029,0.21198 -0.15143,0.0781 -0.26458,0 z m -91.28125,-8.99583 c 0,-0.0728 0.0595,-0.13229 0.13229,-0.13229 0.0728,0 0.13229,0.0595 0.13229,0.13229 0,0.0728 -0.0595,0.13229 -0.13229,0.13229 -0.0728,0 -0.13229,-0.0595 -0.13229,-0.13229 z m 1.32292,-1.5875 c 0,-0.0728 0.0595,-0.13229 0.13229,-0.13229 0.0728,0 0.13229,0.0595 0.13229,0.13229 0,0.0728 -0.0595,0.13229 -0.13229,0.13229 -0.0728,0 -0.13229,-0.0595 -0.13229,-0.13229 z m 1.32291,-1.5875 c 0,-0.0728 0.0595,-0.13229 0.1323,-0.13229 0.0728,0 0.13229,0.0595 0.13229,0.13229 0,0.0728 -0.0595,0.13229 -0.13229,0.13229 -0.0728,0 -0.1323,-0.0595 -0.1323,-0.13229 z m 1.19063,-1.45521 c 0.0899,-0.14552 0.22305,-0.26458 0.29581,-0.26458 0.0728,0 0.0587,0.11906 -0.0312,0.26458 -0.0899,0.14552 -0.22305,0.26458 -0.29581,0.26458 -0.0728,0 -0.0587,-0.11906 0.0312,-0.26458 z m 1.32292,-1.5875 c 0.0899,-0.14552 0.22305,-0.26458 0.29581,-0.26458 0.0728,0 0.0587,0.11906 -0.0312,0.26458 -0.0899,0.14552 -0.22305,0.26458 -0.29581,0.26458 -0.0728,0 -0.0587,-0.11906 0.0312,-0.26458 z m 1.32291,-1.5875 c 0.0899,-0.14552 0.22305,-0.26458 0.29581,-0.26458 0.0728,0 0.0587,0.11906 -0.0312,0.26458 -0.0899,0.14552 -0.22306,0.26458 -0.29582,0.26458 -0.0728,0 -0.0587,-0.11906 0.0312,-0.26458 z m 1.32292,-1.5875 c 0.0899,-0.14552 0.22305,-0.26458 0.29581,-0.26458 0.0728,0 0.0587,0.11906 -0.0312,0.26458 -0.0899,0.14552 -0.22305,0.26458 -0.29581,0.26458 -0.0728,0 -0.0587,-0.11906 0.0312,-0.26458 z m 1.32292,-1.5875 c 0.0899,-0.14552 0.22305,-0.26458 0.29581,-0.26458 0.0728,0 0.0587,0.11906 -0.0312,0.26458 -0.0899,0.14552 -0.22305,0.26458 -0.29581,0.26458 -0.0728,0 -0.0587,-0.11906 0.0312,-0.26458 z m 1.19062,-1.45521 c 0,-0.0728 0.0595,-0.13229 0.13229,-0.13229 0.0728,0 0.13229,0.0595 0.13229,0.13229 0,0.0728 -0.0595,0.13229 -0.13229,0.13229 -0.0728,0 -0.13229,-0.0595 -0.13229,-0.13229 z m 1.32292,-1.5875 c 0,-0.0728 0.0595,-0.13229 0.13229,-0.13229 0.0728,0 0.13229,0.0595 0.13229,0.13229 0,0.0728 -0.0595,0.13229 -0.13229,0.13229 -0.0728,0 -0.13229,-0.0595 -0.13229,-0.13229 z m 1.32291,-1.5875 c 0,-0.0728 0.0595,-0.13229 0.1323,-0.13229 0.0728,0 0.13229,0.0595 0.13229,0.13229 0,0.0728 -0.0595,0.13229 -0.13229,0.13229 -0.0728,0 -0.1323,-0.0595 -0.1323,-0.13229 z m 1.32292,-1.5875 c 0,-0.0728 0.0595,-0.13229 0.13229,-0.13229 0.0728,0 0.13229,0.0595 0.13229,0.13229 0,0.0728 -0.0595,0.13229 -0.13229,0.13229 -0.0728,0 -0.13229,-0.0595 -0.13229,-0.13229 z m 1.32292,-1.5875 c 0,-0.0728 0.0595,-0.13229 0.13229,-0.13229 0.0728,0 0.13229,0.0595 0.13229,0.13229 0,0.0728 -0.0595,0.13229 -0.13229,0.13229 -0.0728,0 -0.13229,-0.0595 -0.13229,-0.13229 z m 1.05833,-1.32291 c 0,-0.0728 0.0595,-0.1323 0.13229,-0.1323 0.0728,0 0.13229,0.0595 0.13229,0.1323 0,0.0728 -0.0595,0.13229 -0.13229,0.13229 -0.0728,0 -0.13229,-0.0595 -0.13229,-0.13229 z m 1.32292,-1.5875 c 0,-0.0728 0.0595,-0.1323 0.13229,-0.1323 0.0728,0 0.13229,0.0595 0.13229,0.1323 0,0.0728 -0.0595,0.13229 -0.13229,0.13229 -0.0728,0 -0.13229,-0.0595 -0.13229,-0.13229 z m 1.32291,-1.5875 c 0,-0.0728 0.0595,-0.1323 0.13229,-0.1323 0.0728,0 0.1323,0.0595 0.1323,0.1323 0,0.0728 -0.0595,0.13229 -0.1323,0.13229 -0.0728,0 -0.13229,-0.0595 -0.13229,-0.13229 z m 1.32292,-1.5875 c 0,-0.0728 0.0595,-0.1323 0.13229,-0.1323 0.0728,0 0.13229,0.0595 0.13229,0.1323 0,0.0728 -0.0595,0.13229 -0.13229,0.13229 -0.0728,0 -0.13229,-0.0595 -0.13229,-0.13229 z m 7.67292,-9.26042 c 0,-0.0728 0.0595,-0.13229 0.13229,-0.13229 0.0728,0 0.13229,0.0595 0.13229,0.13229 0,0.0728 -0.0595,0.13229 -0.13229,0.13229 -0.0728,0 -0.13229,-0.0595 -0.13229,-0.13229 z m 1.32291,-1.5875 c 0,-0.0728 0.0595,-0.13229 0.13229,-0.13229 0.0728,0 0.1323,0.0595 0.1323,0.13229 0,0.0728 -0.0595,0.13229 -0.1323,0.13229 -0.0728,0 -0.13229,-0.0595 -0.13229,-0.13229 z"
           id="path1068"
           sodipodi:nodetypes="ssssssssssssssssssssssssssssssssssssssscccccccsscsssssssssssssccccccsccsssssssssssssssssssssssssssssssssssssscsccssssssssssssssssssssssssssssssssssssssssssssssssssssssssssssssssssssssssssssssssssssssssssssssss" />
        <path
           style="fill:#e57d12;stroke-width:0.264583"
           d="m -23.411604,268.7223 c -10.623021,-8.43349 -19.470949,-15.48866 -19.662064,-15.67816 -0.28641,-0.28397 1.678226,-4.1066 11.178174,-21.74957 6.339112,-11.77278 11.558171,-21.50196 11.597912,-21.6204 0.07543,-0.22483 8.910086,2.69168 20.10645001,6.63759 l 6.55172329,2.30901 -0.069432,16.27188 -0.069432,16.27187 -4.8676769,16.07624 c -2.6772207,8.84194 -4.9989394,16.24251 -5.1593748,16.44571 -0.2357067,0.29854 -3.9990313,-2.57375 -19.6062796,-14.96417 z"
           id="path1066" />
        <path
           style="fill:#eb2c5c;stroke-width:0.264583"
           d="m -3.4741347,282.92322 c 0.2313939,-0.64348 0.4656613,-1.12501 0.5205967,-1.07008 0.1450393,0.14504 -0.4824862,1.95647 -0.7309722,2.11005 -0.1156891,0.0715 -0.021008,-0.39649 0.2103755,-1.03997 z m 0.5677376,-1.72849 c 0,-0.19403 0.079375,-0.27341 0.1763897,-0.17639 0.097012,0.097 0.097012,0.25576 0,0.35278 -0.097015,0.097 -0.1763897,0.0176 -0.1763897,-0.17639 z m 0.3017757,-0.79375 c 0,-0.21828 0.102325,-0.635 0.2273909,-0.92605 0.1433301,-0.33354 0.2273908,-0.38245 0.2273908,-0.13229 0,0.21828 -0.1023249,0.635 -0.2273908,0.92604 -0.1433301,0.33355 -0.2273909,0.38245 -0.2273909,0.1323 z m 0.4919742,-1.85209 c 0,-0.19402 0.079375,-0.2734 0.1763898,-0.17639 0.097012,0.097 0.097012,0.25577 0,0.35278 -0.097015,0.097 -0.1763898,0.0176 -0.1763898,-0.17639 z m 0.3017758,-0.79375 c 0,-0.21828 0.102325,-0.635 0.2273909,-0.92604 0.14333,-0.33354 0.2273908,-0.38245 0.2273908,-0.13229 0,0.21828 -0.102325,0.635 -0.2273908,0.92604 -0.1433301,0.33355 -0.2273909,0.38245 -0.2273909,0.13229 z m 0.4919742,-1.85208 c 0,-0.19403 0.079375,-0.2734 0.1763897,-0.17639 0.097012,0.097 0.097012,0.25577 0,0.35278 -0.097015,0.097 -0.1763897,0.0176 -0.1763897,-0.17639 z m 0.3017758,-0.79375 c 0,-0.21828 0.10232492,-0.635 0.22739081,-0.92604 0.14333008,-0.33355 0.22739085,-0.38245 0.22739085,-0.13229 0,0.21828 -0.10232496,0.635 -0.22739085,0.92604 -0.14333007,0.33354 -0.22739081,0.38245 -0.22739081,0.13229 z m 0.49197413,-1.85208 c 0,-0.19403 0.079375,-0.27341 0.17638977,-0.17639 0.0970121,0.097 0.0970121,0.25576 0,0.35278 -0.0970148,0.097 -0.17638977,0.0176 -0.17638977,-0.17639 z m 0.30484232,-0.79375 c 0,-0.21828 0.16047772,-0.8136 0.35661599,-1.32292 0.19613826,-0.50932 0.35661598,-0.74745 0.35661598,-0.52917 0,0.21828 -0.16047772,0.8136 -0.35661598,1.32292 -0.19613827,0.50932 -0.35661599,0.74745 -0.35661599,0.52917 z m 0.79374996,-2.64584 c 0,-0.21828 0.16047772,-0.81359 0.35661599,-1.32291 0.1961383,-0.50933 0.356616,-0.74745 0.356616,-0.52917 0,0.21828 -0.1604777,0.81359 -0.356616,1.32292 -0.19613827,0.50932 -0.35661599,0.74744 -0.35661599,0.52916 z M 1.367195,267.17181 c 0,-0.21828 0.1604777,-0.81359 0.356616,-1.32292 0.1961382,-0.50932 0.3566159,-0.74744 0.3566159,-0.52916 0,0.21828 -0.1604777,0.81359 -0.3566159,1.32291 -0.1961383,0.50933 -0.356616,0.74745 -0.356616,0.52917 z m 0.7937499,-2.64583 c 0,-0.21828 0.1604778,-0.8136 0.356616,-1.32292 0.1961383,-0.50932 0.356616,-0.74745 0.356616,-0.52917 0,0.21829 -0.1604777,0.8136 -0.356616,1.32292 -0.1961382,0.50932 -0.356616,0.74745 -0.356616,0.52917 z m 0.79375,-2.64584 c 0,-0.21828 0.1604777,-0.81359 0.356616,-1.32291 0.1961382,-0.50933 0.356616,-0.74745 0.356616,-0.52917 0,0.21828 -0.1604778,0.81359 -0.356616,1.32292 -0.1961383,0.50932 -0.356616,0.74745 -0.356616,0.52916 z m 0.753491,-2.49882 c 0,-0.43071 1.946939,-6.75493 2.0483247,-6.65354 0.058592,0.0586 -0.3314251,1.57629 -0.8667036,3.37268 -0.9019142,3.02678 -1.1816211,3.80341 -1.1816211,3.28086 z m 2.1166665,-7.29076 c 0,-0.19403 0.079375,-0.2734 0.1763898,-0.17639 0.097012,0.097 0.097012,0.25577 0,0.35278 -0.097015,0.097 -0.1763898,0.0176 -0.1763898,-0.17639 z M 0.13631104,216.45224 c -7.66670384,-2.747 -18.64485304,-6.5098 -33.39110904,-11.44492 -6.868964,-2.29883 -12.673721,-4.25056 -12.89946,-4.33719 -0.3659,-0.1404 -0.36843,-0.26601 -0.02332,-1.15759 0.212911,-0.55006 8.974146,-24.57448 19.469409,-53.3876 10.495265,-28.81312 19.1644167,-52.473341 19.2647837,-52.578263 0.1550697,-0.162108 84.0164593,9.954153 84.8754983,10.238593 0.451067,0.14936 24.175167,27.33839 28.008357,32.09902 0.72761,0.90365 2.66237,3.27478 4.29948,5.26917 1.63711,1.9944 2.97656,3.7011 2.97656,3.79268 0,0.32265 -24.341728,0.51734 -64.683483,0.51734 -32.225957,0 -40.8726221,0.0694 -41.2058939,0.33073 -0.3803359,0.29824 -0.4372425,3.51528 -0.5791676,32.74219 -0.086564,17.8263 -0.2302484,33.13851 -0.3193018,34.02712 l -0.1619171,1.61567 -1.703353,0.99642 c -1.5863966,0.928 -1.6683063,1.02096 -1.1929506,1.35392 0.2807229,0.19662 1.080164,0.56905 1.776542,0.8276 0.6963754,0.25856 1.3157306,0.61889 1.376344,0.80073 0.060613,0.18184 0.01098,0.3204 -0.110281,0.30791 -0.1212665,-0.0125 -2.7207976,-0.91859 -5.77673496,-2.01353 z"
           id="path1064" />
        <path
           style="fill:#8a489f;stroke-width:0.264583"
           d="m -24.602229,357.08007 c 0,-0.43395 15.3433927,-54.42222 18.5587415,-65.30201 1.1826769,-4.00182 2.3160566,-7.63323 2.5186268,-8.06979 0.3925015,-0.8459 8.8716931,-28.90042 9.4761601,-31.35313 0.308446,-1.25156 0.3617172,2.84766 0.3806772,29.2933 0.021987,30.65832 0.023627,30.74935 0.5613003,31.0371 0.384683,0.20588 11.2668921,0.25992 37.9648811,0.18852 20.584095,-0.055 37.397132,-0.0732 37.362305,-0.0405 -0.03483,0.0328 -1.766099,0.19256 -3.847272,0.35505 l -3.783946,0.29544 -17.699812,14.40963 c -29.671107,11.54714 -49.0808894,17.86529 -80.89635,29.40864 -0.410534,0.1062 -0.595312,0.0372 -0.595312,-0.22237 z m 46.46268,-65.45594 c -0.317079,-0.8263 -0.178199,-9.7768 0.156901,-10.1119 0.460994,-0.461 62.139419,-0.461 62.600413,0 0.3351,0.3351 0.47398,9.2856 0.156901,10.1119 -0.145193,0.37836 -3.162861,0.41851 -31.457108,0.41851 -28.294246,0 -31.311914,-0.0401 -31.457107,-0.41851 z m 62.485341,-4.9393 0.07198,-4.96094 H 53.323398 22.229018 v 4.8507 c 0,2.66788 0.07987,4.93056 0.177483,5.02817 0.09762,0.0976 14.057693,0.14723 31.022394,0.11025 l 30.844912,-0.0672 z M 94.436098,237.3919 c -2.171695,-0.39322 -5.218062,-1.40991 -7.119583,-2.37608 -3.271335,-1.66217 -9.415793,-6.90877 -9.173987,-7.83344 0.13313,-0.50909 8.843919,-10.40674 9.366543,-10.64275 0.178668,-0.0807 1.071636,0.57653 1.984375,1.46048 2.859002,2.76881 5.438087,4.25285 8.500734,4.89143 4.28389,0.89321 8.4085,-0.76498 9.92437,-3.98984 1.19049,-2.53265 1.18348,-2.38876 1.34041,-27.53301 l 0.15026,-24.07708 h 7.80521 7.80521 v 25.13541 c 0,23.33018 -0.0347,25.29694 -0.48268,27.38438 -0.63273,2.94812 -1.77489,5.7615 -3.22386,7.94106 -1.45555,2.18947 -4.81406,5.43084 -6.81078,6.57325 -1.75133,1.00201 -6.08046,2.5109 -8.83835,3.08056 -2.40169,0.49608 -8.451459,0.48834 -11.227872,-0.0144 z m 12.062712,-0.62271 c 3.32729,-0.81395 6.68211,-2.09204 8.4924,-3.23534 0.91436,-0.57747 2.61944,-2.06091 3.78907,-3.29655 2.46662,-2.60582 4.15072,-5.68787 5.11863,-9.36757 l 0.59156,-2.24896 v -25.53229 -25.53229 h -7.40833 -7.40833 l -0.13907,24.34167 c -0.14609,25.57367 -0.11981,25.0307 -1.32661,27.40242 -0.6308,1.23971 -2.39889,2.81585 -3.9259,3.49969 -1.86168,0.83372 -5.303552,0.93409 -7.644876,0.22293 -2.137457,-0.64923 -5.099489,-2.51443 -7.320025,-4.60945 -0.864085,-0.81524 -1.670442,-1.42084 -1.791904,-1.34577 -0.585978,0.36215 -8.940159,9.94764 -8.940159,10.25783 0,0.48146 3.459037,3.73709 5.57427,5.24649 3.496315,2.49492 7.781144,4.14828 12.152812,4.68934 2.842495,0.3518 7.694882,0.11736 10.186462,-0.49215 z m -74.096664,-0.36066 c -0.07096,-0.18492 -0.09699,-3.13171 -0.05784,-6.54844 l 0.07117,-6.21224 4.894792,-0.13229 4.894791,-0.13229 0.06773,-21.26994 c 0.04934,-15.49423 -0.01333,-21.36763 -0.230833,-21.62969 -0.23132,-0.27872 -1.363882,-0.35974 -5.028665,-0.35974 h -4.730105 v -6.48418 -6.48418 l 17.528645,0.068 17.528645,0.068 v 6.35 6.35 l -4.536754,0.0723 c -3.392038,0.054 -4.610801,0.1615 -4.830228,0.42589 -0.210799,0.254 -0.274394,6.34566 -0.225745,21.62356 l 0.06773,21.26994 4.478771,0.0728 c 2.754924,0.0447 4.613436,0.18451 4.828646,0.36312 0.270965,0.22489 0.349874,1.62081 0.349874,6.18946 0,3.2445 -0.07227,6.08742 -0.160599,6.3176 -0.14418,0.37573 -1.930236,0.41852 -17.470802,0.41852 -13.754404,0 -17.336706,-0.0691 -17.439219,-0.3362 z m 34.541453,-6.27838 v -6.08542 l -4.43177,-0.004 c -2.437474,-0.002 -4.581295,-0.099 -4.764048,-0.21501 -0.263157,-0.16707 -0.318196,-4.74824 -0.264583,-22.02251 l 0.06769,-21.81155 4.701214,-0.0723 4.701217,-0.0723 -0.07101,-6.14543 -0.07101,-6.14544 H 49.745684 32.680059 v 6.08542 6.08541 l 4.894792,0.13229 4.894791,0.1323 0.06768,21.89427 c 0.03722,12.04184 0.03722,21.91721 0,21.94526 -0.03722,0.028 -2.270331,0.11734 -4.962466,0.19843 l -4.894792,0.14745 -0.07111,6.01927 -0.07111,6.01927 H 49.740728 66.94361 Z m 106.650941,-7.32658 c 0.02,-1.73141 0.0637,-1.92821 0.26993,-1.21482 0.22685,0.78486 0.30014,0.83076 0.93887,0.58791 0.38104,-0.14487 0.7473,-0.20891 0.81391,-0.1423 0.13884,0.13884 -1.39118,2.43029 -1.78541,2.67394 -0.16403,0.10138 -0.25229,-0.60701 -0.2373,-1.90473 z M 6.0043193,218.11913 c -0.077951,-0.20313 -0.7157667,-0.56417 -1.4173702,-0.80229 -0.7016009,-0.23812 -1.4900592,-0.59549 -1.7521316,-0.79415 -0.4379066,-0.33196 -0.3629157,-0.4273 0.9260416,-1.17741 0.7713953,-0.44892 1.5759535,-0.92983 1.7879112,-1.06871 0.3165078,-0.20737 0.4145359,-1.63849 0.5485527,-8.00831 l 0.1631791,-7.75582 0.046757,9.98802 c 0.025717,5.49341 -3.44e-5,9.98802 -0.057224,9.98802 -0.057192,0 -0.1677644,-0.16621 -0.2457158,-0.36935 z M -20.63348,209.36035 c 0,-0.0728 0.05953,-0.13229 0.132292,-0.13229 0.07276,0 0.132292,0.0595 0.132292,0.13229 0,0.0728 -0.05953,0.1323 -0.132292,0.1323 -0.07276,0 -0.132292,-0.0595 -0.132292,-0.1323 z m -0.529166,-0.26458 c 0,-0.0728 0.05953,-0.13229 0.132291,-0.13229 0.07276,0 0.132292,0.0595 0.132292,0.13229 0,0.0728 -0.05953,0.13229 -0.132292,0.13229 -0.07276,0 -0.132291,-0.0595 -0.132291,-0.13229 z m -0.705556,-0.30868 c 0.09701,-0.097 0.255764,-0.097 0.352778,0 0.09701,0.097 0.01764,0.17639 -0.176389,0.17639 -0.194028,0 -0.273403,-0.0794 -0.176389,-0.17639 z m -0.79375,-0.26458 c 0.09701,-0.097 0.255764,-0.097 0.352778,0 0.09701,0.097 0.01764,0.17639 -0.176389,0.17639 -0.194028,0 -0.273403,-0.0794 -0.176389,-0.17639 z m -0.79375,-0.26459 c 0.09701,-0.097 0.255764,-0.097 0.352778,0 0.09701,0.097 0.01764,0.17639 -0.176389,0.17639 -0.194027,0 -0.273402,-0.0794 -0.176389,-0.17639 z m -0.79375,-0.26458 c 0.09701,-0.097 0.255764,-0.097 0.352778,0 0.09701,0.097 0.01764,0.17639 -0.176389,0.17639 -0.194027,0 -0.273402,-0.0794 -0.176389,-0.17639 z m -0.881944,-0.22048 c 0,-0.0728 0.05953,-0.1323 0.132292,-0.1323 0.07276,0 0.132291,0.0595 0.132291,0.1323 0,0.0728 -0.05953,0.13229 -0.132291,0.13229 -0.07276,0 -0.132292,-0.0595 -0.132292,-0.13229 z m -0.79375,-0.26459 c 0,-0.0728 0.05953,-0.13229 0.132292,-0.13229 0.07276,0 0.132291,0.0595 0.132291,0.13229 0,0.0728 -0.05953,0.13229 -0.132291,0.13229 -0.07276,0 -0.132292,-0.0595 -0.132292,-0.13229 z m -0.79375,-0.26458 c 0,-0.0728 0.05953,-0.13229 0.132292,-0.13229 0.07276,0 0.132291,0.0595 0.132291,0.13229 0,0.0728 -0.05953,0.13229 -0.132291,0.13229 -0.07276,0 -0.132292,-0.0595 -0.132292,-0.13229 z m -0.79375,-0.26458 c 0,-0.0728 0.05953,-0.1323 0.132292,-0.1323 0.07276,0 0.132291,0.0595 0.132291,0.1323 0,0.0728 -0.05953,0.13229 -0.132291,0.13229 -0.07276,0 -0.132292,-0.0595 -0.132292,-0.13229 z m -0.79375,-0.26459 c 0,-0.0728 0.05953,-0.13229 0.132292,-0.13229 0.07276,0 0.132291,0.0595 0.132291,0.13229 0,0.0728 -0.05953,0.13229 -0.132291,0.13229 -0.07276,0 -0.132292,-0.0595 -0.132292,-0.13229 z m -0.79375,-0.26458 c 0,-0.0728 0.05953,-0.13229 0.132292,-0.13229 0.07276,0 0.132291,0.0595 0.132291,0.13229 0,0.0728 -0.05953,0.13229 -0.132291,0.13229 -0.07276,0 -0.132292,-0.0595 -0.132292,-0.13229 z m -0.79375,-0.26458 c 0,-0.0728 0.05953,-0.1323 0.132292,-0.1323 0.07276,0 0.132291,0.0595 0.132291,0.1323 0,0.0728 -0.05953,0.13229 -0.132291,0.13229 -0.07276,0 -0.132292,-0.0595 -0.132292,-0.13229 z m -0.79375,-0.26459 c 0,-0.0728 0.05953,-0.13229 0.132292,-0.13229 0.07276,0 0.132292,0.0595 0.132292,0.13229 0,0.0728 -0.05953,0.13229 -0.132292,0.13229 -0.07276,0 -0.132292,-0.0595 -0.132292,-0.13229 z m -0.79375,-0.26458 c 0,-0.0728 0.05953,-0.13229 0.132292,-0.13229 0.07276,0 0.132292,0.0595 0.132292,0.13229 0,0.0728 -0.05953,0.13229 -0.132292,0.13229 -0.07276,0 -0.132292,-0.0595 -0.132292,-0.13229 z m -0.79375,-0.26458 c 0,-0.0728 0.05953,-0.1323 0.132292,-0.1323 0.07276,0 0.132292,0.0595 0.132292,0.1323 0,0.0728 -0.05953,0.13229 -0.132292,0.13229 -0.07276,0 -0.132292,-0.0595 -0.132292,-0.13229 z m -0.79375,-0.26459 c 0,-0.0728 0.05953,-0.13229 0.132292,-0.13229 0.07276,0 0.132292,0.0595 0.132292,0.13229 0,0.0728 -0.05953,0.13229 -0.132292,0.13229 -0.07276,0 -0.132292,-0.0595 -0.132292,-0.13229 z m -0.79375,-0.26458 c 0,-0.0728 0.05953,-0.13229 0.132292,-0.13229 0.07276,0 0.132292,0.0595 0.132292,0.13229 0,0.0728 -0.05953,0.13229 -0.132292,0.13229 -0.07276,0 -0.132292,-0.0595 -0.132292,-0.13229 z m -0.79375,-0.26458 c 0,-0.0728 0.05953,-0.1323 0.132292,-0.1323 0.07276,0 0.132292,0.0595 0.132292,0.1323 0,0.0728 -0.05953,0.13229 -0.132292,0.13229 -0.07276,0 -0.132292,-0.0595 -0.132292,-0.13229 z m -11.377082,-5.82084 c 0,-0.0728 0.05953,-0.13229 0.132291,-0.13229 0.07276,0 0.132292,0.0595 0.132292,0.13229 0,0.0728 -0.05953,0.13229 -0.132292,0.13229 -0.07276,0 -0.132291,-0.0595 -0.132291,-0.13229 z M 104.71287,145.26519 c 4.402,-0.0407 8.00364,-0.16664 8.00364,-0.2798 0,-0.11316 -1.36279,-1.86759 -3.02842,-3.89872 -1.66563,-2.03114 -3.35654,-4.1097 -3.75759,-4.61902 l -0.72916,-0.92604 0.91078,0.79375 c 0.50092,0.43656 0.95553,0.89482 1.01023,1.01835 0.0547,0.12353 1.57152,1.90947 3.37071,3.96875 1.79919,2.05928 3.27363,3.83344 3.27652,3.94259 0.003,0.10914 -3.8345,0.17048 -8.52754,0.13631 l -8.532817,-0.0621 z m -0.21847,-10.58348 -0.64143,-0.7276 0.72761,0.64143 c 0.40018,0.35279 0.7276,0.68021 0.7276,0.7276 0,0.20751 -0.21426,0.0386 -0.81378,-0.64143 z m -1.85208,-2.11666 -0.64143,-0.72761 0.7276,0.64143 c 0.40019,0.35279 0.72761,0.68022 0.72761,0.72761 0,0.20751 -0.21426,0.0386 -0.81378,-0.64143 z m -1.7249,-1.98438 -0.50403,-0.59531 0.59531,0.50403 c 0.32742,0.27721 0.59531,0.5451 0.59531,0.59531 0,0.21173 -0.21293,0.0554 -0.68659,-0.50403 z m -1.587502,-1.85208 -0.504028,-0.59531 0.595312,0.50402 c 0.327422,0.27722 0.595308,0.54511 0.595308,0.59532 0,0.21173 -0.21293,0.0554 -0.686592,-0.50403 z m -1.728404,-1.98438 c -0.329107,-0.41964 -0.319749,-0.429 0.0999,-0.0999 0.44073,0.34564 0.580888,0.56291 0.363125,0.56291 -0.05494,0 -0.2633,-0.20836 -0.463021,-0.46302 z m -1.852083,-2.11666 c -0.329107,-0.41965 -0.319749,-0.42901 0.0999,-0.0999 0.44073,0.34564 0.580888,0.56292 0.363125,0.56292 -0.05494,0 -0.2633,-0.20836 -0.463021,-0.46302 z m -1.711306,-1.95911 c -0.116967,-0.18926 -0.07258,-0.23365 0.116676,-0.11668 0.304998,0.1885 0.409487,0.42214 0.188788,0.42214 -0.06417,0 -0.201631,-0.13746 -0.305464,-0.30546 z m -1.852084,-2.11667 c -0.116967,-0.18926 -0.07258,-0.23364 0.116676,-0.11668 0.304999,0.1885 0.409488,0.42214 0.188789,0.42214 -0.06417,0 -0.201631,-0.13745 -0.305465,-0.30546 z m -1.694526,-1.94349 c 0,-0.0728 0.05953,-0.1323 0.132292,-0.1323 0.07276,0 0.132291,0.0595 0.132291,0.1323 0,0.0728 -0.05953,0.13229 -0.132291,0.13229 -0.07276,0 -0.132292,-0.0595 -0.132292,-0.13229 z"
           id="path1062"
           sodipodi:nodetypes="csssssssscccccssssssccccsssccsssssssscccssssssssssscccccsssssssssssscccsssccccccccssccsssssscccsscccccccccccsssccccccsssssssssssscssssssssssssssssssssssssssssssssssssssssssssssssssssssssssssssssssssssssssssssssssssssssssssssssssscssscssscsccscsssscsssscsssscssssssssssssssssssssssssss" />
        <path
           style="fill:#6a57b0;stroke-width:0.264583"
           d="m 173.66227,145.86036 c -208.584207,-107.34819 -104.292103,-53.674095 0,0 z m 49.65007,19.05 c 0,-0.0728 0.0595,-0.13229 0.13229,-0.13229 0.0728,0 0.1323,0.0595 0.1323,0.13229 0,0.0728 -0.0595,0.13229 -0.1323,0.13229 -0.0728,0 -0.13229,-0.0595 -0.13229,-0.13229 z m -1.32291,-1.05834 c 0,-0.0728 0.0595,-0.13229 0.13229,-0.13229 0.0728,0 0.13229,0.0595 0.13229,0.13229 0,0.0728 -0.0595,0.1323 -0.13229,0.1323 -0.0728,0 -0.13229,-0.0595 -0.13229,-0.1323 z m -108.58754,-19.11615 -0.76984,-0.99218 0.91354,0.85875 0.91353,0.85874 29.62193,0.0684 29.62192,0.0685 -29.76562,0.065 -29.76563,0.065 z m -1.75795,-2.11666 -0.9118,-0.99219 0.99219,0.9118 c 0.9235,0.84868 1.11384,1.07258 0.9118,1.07258 -0.0442,0 -0.4907,-0.44648 -0.99219,-0.99219 z m -2.63159,-2.97656 c -0.9031,-1.01865 -1.58247,-1.85208 -1.50971,-1.85208 0.0728,0 0.87119,0.83343 1.77429,1.85208 0.9031,1.01865 1.58247,1.85208 1.50971,1.85208 -0.0728,0 -0.8712,-0.83343 -1.77429,-1.85208 z m -1.85209,-2.38125 c 0,-0.19403 0.0794,-0.2734 0.17639,-0.17639 0.097,0.097 0.097,0.25577 0,0.35278 -0.097,0.097 -0.17639,0.0176 -0.17639,-0.17639 z"
           id="path1060"
           sodipodi:nodetypes="ccsssssssssscccccccccscssssssssssss" />
        <path
           style="fill:#010101;stroke-width:0.264583"
           d="m 6.8170399,312.66744 c -0.4394015,-0.26399 -0.4630208,-4.52192 -0.4630208,-83.46718 0,-81.97573 0.00746,-83.19299 0.5117729,-83.46289 0.6028981,-0.32265 54.130816,-0.36549 122.056448,-0.0977 l 44.64844,0.17604 v 83.4322 83.4322 l -38.8276,0.0154 c -21.35519,0.008 -58.770575,0.0682 -83.145313,0.13273 -30.718491,0.0814 -44.4597876,0.032 -44.7807271,-0.16077 z M 84.774666,291.62413 c 0.317079,-0.8263 0.178199,-9.7768 -0.156901,-10.1119 -0.460994,-0.461 -62.139419,-0.461 -62.600413,0 -0.3351,0.3351 -0.47398,9.2856 -0.156901,10.1119 0.145193,0.37836 3.162861,0.41851 31.457107,0.41851 28.294247,0 31.311915,-0.0401 31.457108,-0.41851 z m 20.889304,-54.21786 c 2.75789,-0.56966 7.08702,-2.07855 8.83835,-3.08056 1.99672,-1.14241 5.35523,-4.38378 6.81078,-6.57325 1.44897,-2.17956 2.59113,-4.99294 3.22386,-7.94106 0.44801,-2.08744 0.48268,-4.0542 0.48268,-27.38438 v -25.13541 h -7.80521 -7.80521 l -0.15026,24.07708 c -0.15693,25.14425 -0.14992,25.00036 -1.34041,27.53301 -1.51587,3.22486 -5.64048,4.88305 -9.92437,3.98984 -3.062647,-0.63858 -5.641732,-2.12262 -8.500734,-4.89143 -0.912739,-0.88395 -1.805707,-1.54116 -1.984375,-1.46048 -0.522624,0.23601 -9.233413,10.13366 -9.366543,10.64275 -0.241806,0.92467 5.902652,6.17127 9.173987,7.83344 1.901521,0.96617 4.947888,1.98286 7.119583,2.37608 2.776413,0.50271 8.826182,0.51045 11.227872,0.0144 z m -38.351803,-1.08006 c 0.08833,-0.23018 0.160599,-3.0731 0.160599,-6.3176 0,-4.56865 -0.07891,-5.96457 -0.349874,-6.18946 -0.21521,-0.17861 -2.073722,-0.31837 -4.828646,-0.36312 l -4.478771,-0.0728 -0.06773,-21.26994 c -0.04865,-15.2779 0.01495,-21.36956 0.225745,-21.62356 0.219427,-0.26439 1.43819,-0.37185 4.830228,-0.42589 l 4.536754,-0.0723 v -6.35 -6.35 l -17.528645,-0.068 -17.528645,-0.068 v 6.48418 6.48418 h 4.730105 c 3.664783,0 4.797345,0.081 5.028665,0.35974 0.21749,0.26206 0.28017,6.13546 0.230833,21.62969 l -0.06773,21.26994 -4.894791,0.13229 -4.894792,0.13229 -0.07117,6.21224 c -0.03915,3.41673 -0.01312,6.36352 0.05784,6.54844 0.102513,0.26714 3.684815,0.3362 17.439219,0.3362 15.540566,0 17.326622,-0.0428 17.470802,-0.41852 z"
           id="path1058" />
      </g>
    </g>
  </g>
</svg>
