<?xml version="1.0" encoding="UTF-8" standalone="no"?>
<svg
   xmlns:dc="http://purl.org/dc/elements/1.1/"
   xmlns:cc="http://creativecommons.org/ns#"
   xmlns:rdf="http://www.w3.org/1999/02/22-rdf-syntax-ns#"
   xmlns:svg="http://www.w3.org/2000/svg"
   xmlns="http://www.w3.org/2000/svg"
   xmlns:xlink="http://www.w3.org/1999/xlink"
   xmlns:sodipodi="http://sodipodi.sourceforge.net/DTD/sodipodi-0.dtd"
   xmlns:inkscape="http://www.inkscape.org/namespaces/inkscape"
   width="657mm"
   height="150mm"
   viewBox="0 0 657 150"
   version="1.1"
   id="svg2146"
   inkscape:version="1.0.1 (3bc2e813f5, 2020-09-07)"
   sodipodi:docname="visualstudio.svg">
  <title
     id="title1091">Colored Badge Template</title>
  <defs
     id="defs2140">
    <linearGradient
       inkscape:collect="always"
       id="linearGradient979">
      <stop
         style="stop-color:#4e1e84;stop-opacity:1"
         offset="0"
         id="stop975" />
      <stop
         style="stop-color:#834ac5;stop-opacity:1"
         offset="1"
         id="stop977" />
    </linearGradient>
    <linearGradient
       inkscape:collect="always"
       id="linearGradient2974">
      <stop
         style="stop-color:#000000;stop-opacity:1"
         offset="0"
         id="stop2970" />
      <stop
         style="stop-color:#404040;stop-opacity:1"
         offset="1"
         id="stop2972" />
    </linearGradient>
    <linearGradient
       inkscape:collect="always"
       xlink:href="#linearGradient2974"
       id="linearGradient1030"
       gradientUnits="userSpaceOnUse"
       x1="-8.5265128e-14"
       y1="150"
       x2="-8.5265128e-14"
       y2="0"
       gradientTransform="scale(1.3263517,1)" />
    <linearGradient
       inkscape:collect="always"
       xlink:href="#linearGradient979"
       id="linearGradient1038"
       x1="-8.5265128e-14"
       y1="150"
       x2="-8.5265128e-14"
       y2="0"
       gradientUnits="userSpaceOnUse"
       gradientTransform="translate(6.086914e-6,-1.5253906e-5)" />
    <linearGradient
       inkscape:collect="always"
       xlink:href="#linearGradient979"
       id="linearGradient1038-0"
       x1="-8.5265128e-14"
       y1="150"
       x2="-8.5265128e-14"
       y2="0"
       gradientUnits="userSpaceOnUse"
       gradientTransform="matrix(0.17738398,0,0,1,123.3924,0)" />
  </defs>
  <sodipodi:namedview
     id="base"
     pagecolor="#ffffff"
     bordercolor="#666666"
     borderopacity="1.0"
     inkscape:pageopacity="0.0"
     inkscape:pageshadow="2"
     inkscape:zoom="0.38391123"
     inkscape:cx="804.10448"
     inkscape:cy="493.58411"
     inkscape:document-units="mm"
     inkscape:current-layer="layer3"
     inkscape:document-rotation="0"
     showgrid="false"
     inkscape:snap-bbox="true"
     inkscape:window-width="1920"
     inkscape:window-height="1017"
     inkscape:window-x="-8"
     inkscape:window-y="-8"
     inkscape:window-maximized="1" />
  <metadata
     id="metadata2143">
    <rdf:RDF>
      <cc:Work
         rdf:about="">
        <dc:format>image/svg+xml</dc:format>
        <dc:type
           rdf:resource="http://purl.org/dc/dcmitype/StillImage" />
        <dc:title>Colored Badge Template</dc:title>
      </cc:Work>
    </rdf:RDF>
  </metadata>
  <g
     inkscape:label="Text Background"
     inkscape:groupmode="layer"
     id="layer1">
    <rect
       style="opacity:0.996;fill:url(#linearGradient1030);fill-opacity:1;stroke-width:6.06587;stroke-linecap:square;paint-order:stroke fill markers"
       id="rect7"
       width="657"
       height="150"
       x="-8.5265128e-14"
       y="0"
       ry="15.000003" />
  </g>
  <g
     inkscape:groupmode="layer"
     id="layer4"
     inkscape:label="Text">
    <text
       xml:space="preserve"
       style="font-style:normal;font-weight:normal;font-size:67.3688px;line-height:1.25;font-family:sans-serif;fill:#ffffff;fill-opacity:1;stroke:none;stroke-width:0.350876"
       x="184.14473"
       y="98.980537"
       id="text13"><tspan
         sodipodi:role="line"
         id="tspan11"
         x="184.14473"
         y="98.980537"
         style="font-size:67.3688px;fill:#ffffff;stroke-width:0.350876">Visual Studio</tspan></text>
  </g>
  <g
     inkscape:groupmode="layer"
     id="layer3"
     inkscape:label="Logo Background">
    <rect
       style="opacity:0.996;fill:url(#linearGradient1038);fill-opacity:1;stroke-width:2.89838;stroke-linecap:square;paint-order:stroke fill markers"
       id="rect7-3"
       width="150"
       height="150"
       x="6.6757202e-06"
       y="-1.5258789e-05"
       ry="15" />
    <rect
       style="opacity:0.996;fill:url(#linearGradient1038-0);fill-opacity:1.0;stroke-width:1.22071;stroke-linecap:square;paint-order:stroke fill markers"
       id="rect7-3-0"
       width="26.607597"
       height="150"
       x="123.3924"
       y="0" />
  </g>
  <g
     inkscape:groupmode="layer"
     id="layer2"
     inkscape:label="Logo">
    <g
       id="g951"
       transform="matrix(0.30039699,0,0,0.30039699,94.039438,0.63289431)">
      <path
         style="fill:#af77ef;stroke-width:0.264583"
         d="m 10.811197,412.17298 c -2.4106186,-0.44006 -5.5307968,-1.52543 -7.4454276,-2.58993 -2.3806149,-1.32358 -3.99192733,-2.79853 -8.512598,-7.79217 -5.4710804,-6.0435 -8.3258814,-9.2008 -14.7147484,-16.27399 -10.123461,-11.2078 -11.311705,-12.52003 -14.967849,-16.5296 -1.964531,-2.15443 -4.167187,-4.59955 -4.894792,-5.43362 -0.727604,-0.83407 -3.098508,-3.47043 -5.268674,-5.85859 -7.490248,-8.24272 -30.983024,-34.20672 -32.302157,-35.7001 -0.727605,-0.8237 -2.930261,-3.26319 -4.894792,-5.42108 -1.964531,-2.15788 -4.28625,-4.72018 -5.159375,-5.69398 -3.096585,-3.45365 -8.226274,-9.12718 -9.921874,-10.97379 -0.945886,-1.03012 -3.20807,-3.52934 -5.02708,-5.55381 -5.87559,-6.53924 -9.03113,-9.92333 -9.25315,-9.92333 -0.11937,0 -1.98555,1.45188 -4.14705,3.22639 -2.16151,1.77451 -5.25173,4.30459 -6.86716,5.6224 -1.61543,1.3178 -6.1398,5.02313 -10.05416,8.23407 -3.91436,3.21093 -9.80103,8.03618 -13.08147,10.72277 -3.28045,2.6866 -6.49513,5.32059 -7.14375,5.85331 -0.64862,0.53274 -3.03964,2.49405 -5.31339,4.35848 -14.48297,11.87578 -16.94774,13.91743 -20.23867,16.76432 -5.91544,5.11731 -7.54513,5.88844 -12.40432,5.86941 -2.57094,-0.01 -3.15732,-0.10398 -5.02709,-0.8052 -1.87494,-0.70318 -7.06456,-2.85917 -11.24479,-4.67159 -0.80036,-0.34703 -2.64583,-1.10511 -4.10104,-1.68466 -3.90768,-1.55622 -9.91164,-4.12882 -11.39899,-4.88423 -2.885,-1.46526 -5.50804,-4.6014 -6.63526,-7.93317 l -0.61887,-1.82924 0.003,-76.50538 c 0.003,-84.14379 -0.13534,-77.31844 1.6372,-80.6849 1.01077,-1.91969 3.246,-4.27376 5.07066,-5.34027 1.12789,-0.65925 4.32278,-2.07304 8.10595,-3.58701 0.65484,-0.26206 3.45281,-1.424 6.2177,-2.5821 15.77861,-6.60901 14.56498,-6.1934 18.1092,-6.20146 4.84404,-0.011 6.45056,0.78187 12.69971,6.26786 3.24736,2.85079 10.14685,8.55617 22.8917,18.92978 3.51713,2.86276 18.02098,14.76433 21.44106,17.59411 2.89599,2.39615 15.43349,12.66857 19.61849,16.07412 1.20709,0.98227 2.28736,1.78566 2.4006,1.78532 0.11325,-2.7e-4 1.63466,-1.57242 3.38091,-3.4935 1.74625,-1.92109 3.95574,-4.33183 4.90998,-5.3572 0.95424,-1.02537 2.32346,-2.53026 3.04271,-3.34419 0.719247,-0.81394 3.450848,-3.84496 6.070223,-6.7356 4.844547,-5.34627 7.952528,-8.78475 18.776393,-20.77313 3.342005,-3.70157 7.753032,-8.5756 9.80231,-10.83118 5.97781,-6.57964 18.090117,-19.97266 20.104628,-22.2304 1.018646,-1.14165 2.864114,-3.19099 4.101041,-4.5541 3.473292,-3.82761 12.14792,-13.43272 15.710958,-17.39616 1.763713,-1.96192 3.980656,-4.40432 4.926542,-5.42756 1.910953,-2.06724 12.3131783,-13.570453 16.7420915,-18.514114 3.34435965,-3.73307 5.1912042,-5.342294 7.7318655,-6.737098 4.8207082,-2.646538 10.157301,-3.201539 16.007291,-1.664746 1.01436,0.266474 5.084339,2.132645 12.832291,5.883885 2.764896,1.338649 5.741458,2.766209 6.614583,3.172355 0.873125,0.406145 4.087813,1.952275 7.14375,3.435844 3.055937,1.483569 6.568281,3.178868 7.805208,3.767331 2.904119,1.381622 7.187618,3.440603 20.505208,9.856323 5.966353,2.87428 12.321142,5.93285 14.121737,6.79682 1.800596,0.86397 4.124272,2.14472 5.163714,2.84613 4.410763,2.97636 7.692976,7.82397 8.791236,12.98414 0.55808,2.62206 0.54673,229.49718 -0.0117,232.0398 -1.12508,5.12355 -4.454177,10.10314 -8.622661,12.89759 -1.264126,0.84746 -4.694264,2.60929 -10.578888,5.43369 -1.964531,0.94292 -5.357812,2.57659 -7.540625,3.63043 -2.182812,1.05383 -5.278437,2.54225 -6.879166,3.30761 -1.600729,0.76533 -4.636823,2.22353 -6.746875,3.24043 -9.798737,4.72223 -18.13425,8.73263 -21.034374,10.12007 -5.583846,2.67137 -9.402392,4.50686 -14.419791,6.93127 -7.852674,3.79439 -11.532049,4.68304 -16.007291,3.86612 z m 0.163645,-2.97268 c 2.033984,-0.61735 3.448658,-1.47031 5.153236,-3.10713 1.998636,-1.91918 3.171217,-4.27895 3.540681,-7.12547 0.152426,-1.17414 0.257492,-17.86271 0.262387,-41.67079 l 0.0082,-39.71231 -2.050521,-1.7106 c -1.127786,-0.94083 -5.205677,-4.26862 -9.0619784,-7.3951 -13.3661939,-10.83656 -14.4275699,-11.70175 -16.0072911,-13.0484 -0.8731249,-0.74431 -2.1828124,-1.82403 -2.9104165,-2.39938 -0.727604,-0.57536 -2.699279,-2.18066 -4.3815,-3.56735 -1.682247,-1.38668 -4.882224,-4.00952 -7.111074,-5.82853 -2.228849,-1.81901 -6.150768,-5.0363 -8.715374,-7.14953 -2.56458,-2.11323 -8.830072,-7.25247 -13.923301,-11.42052 -18.189759,-14.88562 -21.695832,-17.82647 -21.695832,-18.19817 0,-0.37498 2.856574,-2.84799 10.859769,-9.40157 6.410405,-5.24931 13.3849,-10.96714 17.053771,-13.98107 1.819011,-1.49429 6.045729,-4.96435 9.392708,-7.71125 3.346979,-2.7469 6.918854,-5.68076 7.9375,-6.51969 8.481113,-6.98482 32.008735,-26.22773 36.675429,-29.99633 l 3.931655,-3.175 8e-5,-40.87812 C 19.933077,90.459307 20.027666,93.144448 18.339783,89.977637 15.45048,84.556752 8.118268,82.068284 2.7781298,84.696204 0.72530722,85.706422 -0.44497127,86.850947 -8.0149383,95.251905 -13.213313,101.02089 -20.662365,109.2691 -30.826677,120.51093 c -1.83769,2.03251 -4.003411,4.41376 -4.812718,5.29167 -0.809281,0.8779 -3.071468,3.37596 -5.027083,5.55125 -6.954097,7.73532 -19.129957,21.21917 -21.395451,23.69389 -1.265582,1.38245 -5.14432,5.6687 -8.61941,9.525 -10.649453,11.81765 -18.171715,20.13907 -19.975142,22.09721 -0.945885,1.02704 -3.803385,4.18184 -6.35,7.01068 -2.546614,2.82883 -5.404109,5.98412 -6.349999,7.01175 -0.94589,1.02763 -3.14197,3.44142 -4.88019,5.36397 -1.73825,1.92256 -3.27281,3.49556 -3.41016,3.49556 -0.29416,0 -3.00796,-2.1801 -13.67009,-10.9817 -1.81901,-1.50159 -4.39192,-3.60382 -5.71758,-4.67163 -1.32566,-1.06781 -4.64949,-3.78693 -7.3863,-6.04251 -2.73681,-2.25557 -6.07514,-4.99401 -7.41851,-6.08541 -2.75005,-2.23425 -5.22714,-4.26532 -20.48803,-16.79893 -7.93981,-6.52089 -9.98287,-8.23051 -12.17083,-10.18445 -5.74541,-5.13091 -7.30558,-5.88522 -12.20801,-5.90237 -1.86925,-0.007 -3.42929,0.12105 -3.96875,0.3246 -1.20967,0.45643 -1.78639,0.68818 -2.87324,1.1546 -0.50932,0.21858 -1.9976,0.83621 -3.30729,1.37251 -2.56431,1.05006 -3.28424,1.35636 -5.22264,2.222 -0.68964,0.30797 -1.34787,0.55995 -1.46273,0.55995 -0.17672,0 -1.24617,0.44821 -6.27921,2.63164 -0.29105,0.12626 -1.03012,0.41624 -1.6424,0.6444 -0.61227,0.22816 -1.6243,0.64681 -2.24896,0.93033 -0.62465,0.28352 -2.06726,0.93767 -3.2058,1.45367 -3.57001,1.61797 -5.27962,3.18496 -7.12037,6.52637 -1.64525,2.98654 -1.52546,-3.32382 -1.52232,80.1939 0.003,83.41273 -0.12651,76.87753 1.58908,80.09632 1.71516,3.21795 3.69797,4.95545 7.57384,6.63677 2.93917,1.27497 4.18935,1.80742 5.05557,2.15318 0.32742,0.13067 0.86321,0.35528 1.19063,0.49916 2.98472,1.31135 16.93435,7.08234 18.58698,7.68948 1.84474,0.6777 2.47356,0.77727 4.89479,0.77504 4.30281,-0.004 6.44569,-0.96038 10.99482,-4.90741 1.59269,-1.38189 4.8008,-4.08469 7.12913,-6.00623 2.32834,-1.92153 5.379,-4.44784 6.77926,-5.61401 1.40025,-1.16617 3.9601,-3.27382 5.68854,-4.68366 1.72844,-1.40985 7.01215,-5.74002 11.74158,-9.62261 4.72943,-3.8826 9.67052,-7.92563 10.98021,-8.98452 1.30968,-1.05889 7.62,-6.22075 14.02291,-11.4708 6.40292,-5.25005 11.76319,-9.54875 11.91173,-9.55266 0.14853,-0.004 3.36322,3.41293 7.14375,7.59297 3.78053,4.18005 7.647594,8.44451 8.59348,9.47658 0.945885,1.03208 3.208072,3.52828 5.027083,5.54711 1.81901,2.01884 4.503261,4.98742 5.964978,6.59686 3.602805,3.96685 26.035554,28.79766 33.710958,37.31462 3.413389,3.78765 7.401983,8.20444 8.863541,9.81512 1.461558,1.61065 4.145677,4.58221 5.964687,6.60347 1.819011,2.02123 4.140729,4.57658 5.159375,5.67854 1.018646,1.10194 3.876146,4.25977 6.35,7.01736 2.473854,2.75759 5.214937,5.79006 6.091316,6.7388 0.87638,0.94875 4.798113,5.29688 8.7149517,9.66251 10.26845232,11.44495 11.2556921,12.3775 14.0333143,13.25594 1.4321895,0.45294 5.2766116,0.44924 6.778228,-0.007 z M -188.11136,293.7776 c -0.097,-0.097 -0.17639,-21.29387 -0.17639,-47.10413 0,-41.4803 0.0461,-46.94544 0.39708,-47.08013 0.25784,-0.0989 0.83771,0.34057 1.65364,1.25338 1.90289,2.12881 14.36917,15.90112 16.98041,18.75935 1.26298,1.38245 4.06102,4.47808 6.21786,6.87917 6.12449,6.81806 10.18409,11.30734 12.06628,13.3434 3.68649,3.98786 5.81181,6.45835 5.81181,6.75571 0,0.17058 -1.39899,1.86412 -3.10886,3.76343 -1.70987,1.8993 -3.82322,4.25758 -4.69635,5.24062 -0.87312,0.98304 -3.73062,4.14935 -6.35,7.03625 -2.61937,2.8869 -7.08422,7.82005 -9.92187,10.96256 -2.83766,3.14251 -7.3025,8.0666 -9.92188,10.94243 -2.61937,2.87583 -5.57991,6.17278 -6.57897,7.32656 -1.7982,2.0767 -2.02987,2.2643 -2.37276,1.9214 z m 6.58391,-7.09965 c 2.87861,-3.20146 7.32742,-8.13434 9.88624,-10.96196 2.55883,-2.82762 5.36679,-5.93698 6.23991,-6.9097 0.87313,-0.97271 4.80219,-5.31775 8.73125,-9.65565 10.12179,-11.17501 11.05077,-12.25615 10.89039,-12.6741 -0.0777,-0.20255 -2.85752,-3.3699 -6.17731,-7.03856 -3.3198,-3.66866 -6.75037,-7.47436 -7.62349,-8.45711 -0.87313,-0.98276 -4.32594,-4.81109 -7.67292,-8.50742 -3.34698,-3.69632 -9.28546,-10.2566 -13.19663,-14.57841 -3.91117,-4.3218 -7.21515,-7.79358 -7.34218,-7.71507 -0.27236,0.16832 -0.31937,92.80368 -0.0472,93.07582 0.22119,0.22119 -0.13761,0.5951 6.31198,-6.57784 z M 19.674738,246.72587 c 0,-41.95684 -0.09633,-69.71771 -0.241961,-69.71771 -0.133086,0 -0.936757,0.59044 -1.785938,1.31209 -0.84918,0.72166 -4.650634,3.84705 -8.4476952,6.94532 -3.7970353,3.09827 -10.4567034,8.55024 -14.7992565,12.1155 -4.3425532,3.56526 -9.2850493,7.61339 -10.9833303,8.99584 -1.698281,1.38244 -9.249515,7.57369 -16.780509,13.75833 -7.53102,6.18464 -14.790393,12.13776 -16.131963,13.22917 -9.590537,7.80222 -15.903786,13.07278 -15.966122,13.32919 -0.04027,0.1657 1.018249,1.19324 2.352278,2.28343 1.334056,1.0902 3.217201,2.63701 4.184809,3.43738 0.967581,0.80036 3.65289,3.00302 5.967306,4.89479 2.314443,1.89177 4.929082,4.0385 5.81033,4.7705 0.881247,0.73201 2.880756,2.37088 4.443385,3.64195 1.56263,1.27106 7.515754,6.15048 13.229167,10.84315 10.928878,8.97633 14.703133,12.07121 17.682579,14.4997 0.996077,0.81187 3.2746423,2.6791 5.0634636,4.14941 4.8923309,4.02118 15.4600534,12.66232 19.7554844,16.15392 2.091716,1.70025 4.331361,3.53785 4.97705,4.08356 0.645663,0.5457 1.285769,0.99219 1.422427,0.99219 0.154305,0 0.248496,-26.42549 0.248496,-69.71771 z"
         id="path961" />
      <path
         style="fill:#834ac5;stroke-width:0.264583"
         d="m 4.196614,409.20681 c -2.7776222,-0.87844 -3.76486198,-1.81099 -14.0333143,-13.25594 -3.9168387,-4.36563 -7.8385717,-8.71376 -8.7149517,-9.66251 -0.876379,-0.94874 -3.617462,-3.98121 -6.091316,-6.7388 -2.473854,-2.75759 -5.331354,-5.91542 -6.35,-7.01736 -1.018646,-1.10196 -3.340364,-3.65731 -5.159375,-5.67854 -1.81901,-2.02126 -4.503129,-4.99282 -5.964687,-6.60347 -1.461558,-1.61068 -5.450152,-6.02747 -8.863541,-9.81512 -7.675404,-8.51696 -30.108153,-33.34777 -33.710958,-37.31462 -1.461717,-1.60944 -4.145968,-4.57802 -5.964978,-6.59686 -1.819011,-2.01883 -4.081198,-4.51503 -5.027083,-5.54711 -0.945886,-1.03207 -4.81295,-5.29653 -8.59348,-9.47658 -3.78053,-4.18004 -6.98585,-7.60007 -7.12292,-7.60007 -0.13707,0 -0.49672,0.2075 -0.79922,0.46112 -0.39661,0.33252 -0.37064,0.25823 0.0931,-0.26636 l 0.64311,-0.7275 -0.66564,-0.72582 c -0.3661,-0.3992 -2.85816,-3.1573 -5.5379,-6.1291 -2.67974,-2.97181 -6.12241,-6.78634 -7.65038,-8.47673 -1.52797,-1.69039 -6.45262,-7.14681 -10.94366,-12.12536 -4.49104,-4.97856 -8.23742,-9.05192 -8.32528,-9.05192 -0.0879,0 -0.75909,0.56554 -1.4916,1.25677 l -1.33184,1.25677 1.12431,-1.20064 c 0.61838,-0.66035 1.12432,-1.35729 1.12432,-1.54875 0,-0.33115 -2.0139,-2.68529 -5.81181,-6.79367 -1.88219,-2.03606 -5.94179,-6.52534 -12.06628,-13.3434 -2.15684,-2.40109 -4.95488,-5.49672 -6.21786,-6.87917 -2.61124,-2.85823 -15.07752,-16.63054 -16.98041,-18.75935 -0.72454,-0.81057 -1.40719,-1.34795 -1.61234,-1.26923 -0.24848,0.0953 -0.32231,-0.0385 -0.24482,-0.44384 0.0852,-0.44559 -0.61564,-1.38196 -3.01787,-4.03221 -1.72085,-1.89851 -6.28397,-6.94762 -10.14028,-11.22026 -3.8563,-4.27264 -7.6195,-8.43017 -8.36267,-9.23896 -0.74318,-0.80879 -2.53675,-2.78021 -3.98572,-4.38094 -2.07142,-2.28836 -2.99845,-3.09973 -4.33732,-3.79616 -1.63379,-0.84983 -1.79936,-0.88135 -4.08408,-0.77743 -1.57481,0.0716 -2.67781,0.26466 -3.25695,0.56998 -1.1423,0.60222 -2.91421,2.20739 -3.5433,3.20986 l -0.49811,0.79375 0.17651,-0.79375 c 0.50338,-2.26358 2.83368,-5.85952 4.72022,-7.28387 0.75686,-0.57143 2.32123,-1.46743 3.47637,-1.9911 1.15514,-0.52367 2.61134,-1.1841 3.23599,-1.46762 0.62466,-0.28352 1.63669,-0.70217 2.24896,-0.93033 0.61228,-0.22816 1.35135,-0.51814 1.6424,-0.6444 5.03304,-2.18343 6.10249,-2.63164 6.27921,-2.63164 0.11486,0 0.77309,-0.25198 1.46273,-0.55995 1.9384,-0.86564 2.65833,-1.17194 5.22264,-2.222 1.30969,-0.5363 2.79797,-1.15393 3.30729,-1.37251 1.08685,-0.46642 1.66357,-0.69817 2.87324,-1.1546 0.53946,-0.20355 2.0995,-0.33115 3.96875,-0.3246 4.90243,0.0171 6.4626,0.77146 12.20801,5.90237 2.18796,1.95394 4.23102,3.66356 12.17083,10.18445 15.26089,12.53361 17.73798,14.56468 20.48803,16.79893 1.34337,1.0914 4.6817,3.82984 7.41851,6.08541 2.73681,2.25558 6.06064,4.9747 7.3863,6.04251 1.32566,1.06781 3.89857,3.17004 5.71758,4.67163 10.39183,8.57847 13.37703,10.9817 13.64101,10.9817 0.12136,0 0.58436,-0.32742 1.02888,-0.72761 l 0.80823,-0.7276 -0.7276,0.80823 c -0.40018,0.44452 -0.72761,0.93249 -0.72761,1.08436 0,0.23252 3.60385,3.25469 12.549953,10.52435 1.779907,1.44637 8.022587,6.56683 14.702133,12.0592 2.401093,1.97434 7.323719,6.00936 10.939144,8.96671 l 6.573547,5.377 1.099026,-1.02138 1.099052,-1.02139 -0.889291,0.96933 c -0.489108,0.53313 -0.809016,1.09923 -0.710882,1.258 0.181954,0.29443 5.195094,4.44053 23.542254,19.4706 5.685763,4.65781 11.781763,9.65844 13.546639,11.1125 1.764877,1.45406 5.031952,4.13202 7.26014,5.95103 2.228215,1.81901 5.427662,4.44185 7.10991,5.82853 1.68222,1.38669 3.653895,2.99199 4.3815,3.56735 0.7276037,0.57535 2.0372911,1.65507 2.9104161,2.39938 1.5797212,1.34665 2.6410972,2.21184 16.007291,13.0484 3.8563019,3.12648 7.9341919,6.45427 9.0619789,7.3951 l 2.050521,1.7106 -0.0082,39.71231 c -0.005,23.80808 -0.109961,40.49665 -0.262388,41.67079 -0.628438,4.84164 -3.997774,8.80727 -8.693917,10.2326 -1.5016158,0.45575 -5.346038,0.45945 -6.7782275,0.007 z m 8.334375,-1.13451 c 2.242528,-1.02743 4.495112,-3.1029 5.420492,-4.99427 1.528471,-3.12412 1.453224,-0.77833 1.442693,-44.96258 l -0.0098,-40.74583 -2.699147,-2.14132 c -5.775933,-4.5823 -9.9403956,-7.78056 -10.1310014,-7.78056 -0.1096169,0 -0.4027223,-0.18411 -0.6513777,-0.40913 -0.4261379,-0.38566 -0.453046,1.41574 -0.468921,31.39443 -0.010054,18.7973 -0.1153319,31.86782 -0.2576513,31.96069 -0.1324504,0.0864 -0.2577835,1.81671 -0.2785533,3.84509 -0.020637,2.02837 -0.1441979,3.75478 -0.2743464,3.83645 -0.1301486,0.0817 -0.2499255,1.06426 -0.2661973,2.1835 -0.016404,1.11925 -0.1483519,2.34739 -0.2935023,2.72921 -0.1451769,0.38182 -0.2639483,1.10318 -0.2639483,1.60303 0,0.49985 -0.1025261,0.90882 -0.2278327,0.90882 -0.1253067,0 -0.2941373,0.73107 -0.3751527,1.62459 -0.081015,0.89355 -0.2886604,1.71196 -0.4614069,1.81875 -0.1979877,0.12234 -0.2793735,0.69556 -0.2201598,1.55054 0.062839,0.90741 -0.00767,1.35638 -0.213307,1.35628 -0.3509698,-1.9e-4 -0.5614458,1.76887 -0.7790127,6.54827 -0.1161785,2.55247 -0.2272771,3.24115 -0.5228431,3.24115 -0.22391688,0 -0.375285,0.26678 -0.375285,0.66146 0,0.41158 0.14993937,0.66146 0.396875,0.66146 0.2204773,0 0.396875,0.23519 0.396875,0.52916 0,0.29398 -0.1763977,0.52917 -0.396875,0.52917 -0.24693563,0 -0.396875,0.24987 -0.396875,0.66146 0,0.41158 0.14993937,0.66146 0.396875,0.66146 0.2591329,0 0.396875,0.25945 0.396875,0.74763 0,1.79279 2.8380001,2.96635 6.8791664,2.84469 2.1301075,-0.0641 2.7759025,-0.19587 4.2333335,-0.8636 z M -190.669,344.48806 c 1.81901,-0.0906 3.66448,-0.29356 4.10104,-0.45101 0.43656,-0.15745 1.03187,-0.37719 1.32291,-0.48829 0.29105,-0.1111 0.45497,-0.11874 0.36428,-0.0169 -0.0907,0.10176 -0.80338,0.41839 -1.58376,0.70363 -1.14431,0.41826 -2.00839,0.50882 -4.46532,0.46802 l -3.04644,-0.0506 z m -4.23334,-0.26323 c -0.61575,-0.1972 -0.6214,-0.21365 -0.0818,-0.23821 0.31884,-0.0146 0.65328,0.0927 0.74322,0.23821 0.0899,0.14552 0.12673,0.2527 0.0818,0.2382 -0.045,-0.0145 -0.37941,-0.12168 -0.74322,-0.2382 z m -1.4552,-0.52917 c -0.43138,-0.18537 -0.44649,-0.23082 -0.0818,-0.24598 0.24608,-0.0103 0.52099,0.10046 0.61093,0.24598 0.18803,0.30424 0.17884,0.30424 -0.52916,0 z m -1.45521,-0.52917 c -0.21828,-0.14107 -0.27782,-0.25648 -0.13229,-0.25648 0.14552,0 0.44317,0.11541 0.66145,0.25648 0.21828,0.14108 0.27782,0.25649 0.1323,0.25649 -0.14553,0 -0.44318,-0.11541 -0.66146,-0.25649 z m 13.22916,0.13229 c 0,-0.0728 0.0595,-0.13229 0.13229,-0.13229 0.0728,0 0.1323,0.0595 0.1323,0.13229 0,0.0728 -0.0595,0.1323 -0.1323,0.1323 -0.0728,0 -0.13229,-0.0595 -0.13229,-0.1323 z m 0.52917,-0.19843 c 0.0728,-0.0816 0.84667,-0.6772 1.71979,-1.32348 0.87313,-0.64627 2.7969,-2.24837 4.27506,-3.5602 1.47815,-1.31183 4.27612,-3.67917 6.2177,-5.26071 1.94159,-1.58155 4.67582,-3.83048 6.07608,-4.99761 1.40025,-1.16714 4.00854,-3.31269 5.79619,-4.7679 3.36442,-2.73874 8.71379,-7.11988 10.90632,-8.93227 0.69123,-0.57139 1.25678,-0.97763 1.25678,-0.90276 0,0.12464 -4.16119,3.5786 -12.27075,10.18524 -1.72844,1.40811 -4.28829,3.51435 -5.68854,4.68052 -1.40026,1.16617 -4.45092,3.69248 -6.77926,5.61401 -2.32833,1.92154 -5.50719,4.59934 -7.06414,5.95064 -1.55694,1.35131 -3.22382,2.68327 -3.70416,2.95995 -0.48035,0.27665 -0.81383,0.43622 -0.74107,0.35457 z m -14.55208,-0.33073 c 0,-0.0728 0.0595,-0.13229 0.13229,-0.13229 0.0728,0 0.13229,0.0595 0.13229,0.13229 0,0.0728 -0.0595,0.13229 -0.13229,0.13229 -0.0728,0 -0.13229,-0.0595 -0.13229,-0.13229 z m -0.52917,-0.26459 c 0,-0.0728 0.0595,-0.13229 0.13229,-0.13229 0.0728,0 0.13229,0.0595 0.13229,0.13229 0,0.0728 -0.0595,0.1323 -0.13229,0.1323 -0.0728,0 -0.13229,-0.0595 -0.13229,-0.1323 z m -1.98437,-0.78795 c -0.72761,-0.34277 -1.20386,-0.62582 -1.05834,-0.629 0.14552,-0.003 0.8599,0.27467 1.5875,0.61741 0.72761,0.34277 1.20386,0.62582 1.05834,0.62899 -0.14553,0.003 -0.8599,-0.27466 -1.5875,-0.6174 z m -2.24896,-0.93184 c -0.21828,-0.14107 -0.27782,-0.25648 -0.13229,-0.25648 0.14552,0 0.44317,0.11541 0.66145,0.25648 0.21829,0.14108 0.27782,0.25649 0.1323,0.25649 -0.14553,0 -0.44318,-0.11541 -0.66146,-0.25649 z m -0.79375,-0.39687 c 0,-0.0728 0.0595,-0.13229 0.13229,-0.13229 0.0728,0 0.13229,0.0595 0.13229,0.13229 0,0.0728 -0.0595,0.13229 -0.13229,0.13229 -0.0728,0 -0.13229,-0.0595 -0.13229,-0.13229 z m -0.70556,-0.30869 c 0.097,-0.097 0.25577,-0.097 0.35278,0 0.097,0.097 0.0177,0.1764 -0.17639,0.1764 -0.19403,0 -0.2734,-0.0794 -0.17639,-0.1764 z m -0.61736,-0.22048 c 0,-0.0728 0.0595,-0.13229 0.13229,-0.13229 0.0728,0 0.13229,0.0595 0.13229,0.13229 0,0.0728 -0.0595,0.13229 -0.13229,0.13229 -0.0728,0 -0.13229,-0.0595 -0.13229,-0.13229 z m -1.05833,-0.39687 c -0.21828,-0.14108 -0.27782,-0.25649 -0.13229,-0.25649 0.14552,0 0.44317,0.11541 0.66145,0.25649 0.21829,0.14107 0.27782,0.25648 0.1323,0.25648 -0.14553,0 -0.44318,-0.11541 -0.66146,-0.25648 z m -1.19063,-0.52917 c -0.43138,-0.18537 -0.44648,-0.23082 -0.0818,-0.24598 0.24607,-0.0103 0.52099,0.10046 0.61093,0.24598 0.18803,0.30424 0.17883,0.30424 -0.52917,0 z m -0.92604,-0.39688 c 0,-0.0728 0.0595,-0.13229 0.13229,-0.13229 0.0728,0 0.13229,0.0595 0.13229,0.13229 0,0.0728 -0.0595,0.1323 -0.13229,0.1323 -0.0728,0 -0.13229,-0.0595 -0.13229,-0.1323 z m -0.70556,-0.30869 c 0.097,-0.097 0.25577,-0.097 0.35278,0 0.097,0.097 0.0177,0.1764 -0.17639,0.1764 -0.19402,0 -0.2734,-0.0794 -0.17639,-0.1764 z m -1.5434,-0.60287 c -0.58208,-0.27544 -0.98358,-0.51044 -0.8922,-0.52224 0.25692,-0.0331 2.08283,0.76303 2.08283,0.90818 0,0.17735 -8e-4,0.17706 -1.19063,-0.38594 z m -1.98437,-0.80823 c -0.21828,-0.14107 -0.27781,-0.25648 -0.13229,-0.25648 0.14552,0 0.44317,0.11541 0.66145,0.25648 0.21829,0.14108 0.27782,0.25649 0.1323,0.25649 -0.14552,0 -0.44318,-0.11541 -0.66146,-0.25649 z m -1.18875,-0.52612 c -0.0927,-0.14999 0.0135,-0.19436 0.24896,-0.10401 0.45837,0.1759 0.54224,0.36555 0.16165,0.36555 -0.13693,0 -0.32171,-0.11769 -0.41061,-0.26154 z m -1.30954,-0.50753 c -0.0815,-0.13194 0.09,-0.17761 0.38126,-0.10144 0.6178,0.16156 0.69589,0.34134 0.14827,0.34134 -0.20969,0 -0.44798,-0.10795 -0.52953,-0.2399 z m -1.32292,-0.52916 c -0.0815,-0.13195 0.09,-0.17762 0.38126,-0.10144 0.6178,0.16155 0.69589,0.34134 0.14827,0.34134 -0.20969,0 -0.44798,-0.10795 -0.52953,-0.2399 z m -0.8531,-0.46567 c 0.097,-0.097 0.25577,-0.097 0.35278,0 0.097,0.097 0.0177,0.1764 -0.17639,0.1764 -0.19403,0 -0.2734,-0.0794 -0.17639,-0.1764 z m -1.5434,-0.60288 c -0.58208,-0.27543 -0.98358,-0.51043 -0.89221,-0.52223 0.25692,-0.0331 2.08283,0.76303 2.08283,0.90818 0,0.17735 -7.9e-4,0.17706 -1.19062,-0.38595 z m -1.98438,-0.80822 c -0.21828,-0.14108 -0.27781,-0.25649 -0.13229,-0.25649 0.14552,0 0.44318,0.11541 0.66146,0.25649 0.21828,0.14108 0.27781,0.25649 0.13229,0.25649 -0.14552,0 -0.44317,-0.11541 -0.66146,-0.25649 z m -0.79375,-0.39688 c 0,-0.0728 0.0595,-0.13229 0.1323,-0.13229 0.0728,0 0.13229,0.0595 0.13229,0.13229 0,0.0728 -0.0595,0.1323 -0.13229,0.1323 -0.0728,0 -0.1323,-0.0595 -0.1323,-0.1323 z m -0.52916,-0.26458 c 0,-0.0728 0.0595,-0.13229 0.13229,-0.13229 0.0728,0 0.13229,0.0595 0.13229,0.13229 0,0.0728 -0.0595,0.13229 -0.13229,0.13229 -0.0728,0 -0.13229,-0.0595 -0.13229,-0.13229 z m -0.52917,-0.26458 c 0,-0.0728 0.0595,-0.13229 0.13229,-0.13229 0.0728,0 0.13229,0.0595 0.13229,0.13229 0,0.0728 -0.0595,0.13229 -0.13229,0.13229 -0.0728,0 -0.13229,-0.0595 -0.13229,-0.13229 z m -1.78145,-1.33554 c -0.75651,-0.66178 -1.63098,-1.58451 -1.94325,-2.05052 -0.47944,-0.71546 -0.4284,-0.68872 0.3281,0.17191 0.49273,0.56054 1.42877,1.47972 2.08009,2.04263 0.65132,0.5629 1.12264,1.02698 1.04738,1.03134 -0.0753,0.004 -0.7558,-0.53358 -1.51232,-1.19536 z m -2.98105,-3.55925 c -0.15576,-0.29105 -0.22367,-0.52917 -0.15091,-0.52917 0.0728,0 0.25973,0.23812 0.41549,0.52917 0.15577,0.29104 0.22368,0.52916 0.15092,0.52916 -0.0728,0 -0.25974,-0.23812 -0.4155,-0.52916 z m -0.52917,-0.92605 c 0,-0.0728 0.0595,-0.13229 0.1323,-0.13229 0.0728,0 0.13229,0.0595 0.13229,0.13229 0,0.0728 -0.0595,0.1323 -0.13229,0.1323 -0.0728,0 -0.1323,-0.0595 -0.1323,-0.1323 z m -0.37986,-0.84848 c -0.14358,-0.37708 -0.11319,-0.40747 0.14811,-0.14811 0.18083,0.17947 0.26212,0.39297 0.18066,0.47443 -0.0815,0.0815 -0.22941,-0.0654 -0.32877,-0.32632 z m -0.393,-1.02565 c 0.0127,-0.30822 0.0754,-0.37092 0.15985,-0.15985 0.0764,0.19099 0.067,0.4192 -0.0209,0.50712 -0.0879,0.0879 -0.15045,-0.0683 -0.13897,-0.34727 z m -0.28547,-0.90399 c 0,-0.19403 0.0794,-0.2734 0.17639,-0.17639 0.097,0.097 0.097,0.25576 0,0.35278 -0.097,0.097 -0.17639,0.0176 -0.17639,-0.17639 z m -0.19786,-1.45521 c 0.003,-0.58208 0.0571,-0.78905 0.12041,-0.45994 0.0633,0.32912 0.0609,0.80537 -0.005,1.05834 -0.0662,0.25296 -0.118,-0.0163 -0.11506,-0.5984 z m 82.35098,-9.65729 c 0.26339,-0.29104 0.53843,-0.52917 0.61119,-0.52917 0.0728,0 -0.0832,0.23813 -0.3466,0.52917 -0.26339,0.29104 -0.53843,0.52917 -0.61119,0.52917 -0.0728,0 0.0832,-0.23813 0.3466,-0.52917 z m 0.92604,-0.64705 c 0,-0.0668 1.39899,-1.27639 3.10886,-2.68789 1.70987,-1.4115 3.39594,-2.81615 3.74683,-3.12144 0.35089,-0.30529 0.55689,-0.41381 0.45779,-0.24115 -0.20454,0.35636 -7.31348,6.23762 -7.31348,6.05048 z m 8.35851,-6.93932 c 0.71425,-0.65322 5.18676,-4.36137 6.90889,-5.72815 0.33418,-0.26522 0.6076,-0.43099 0.6076,-0.36837 0,0.13686 -4.97604,4.28147 -6.93911,5.77967 -0.76739,0.58567 -1.02721,0.72825 -0.57738,0.31685 z m 8.31024,-6.83342 c 0.34178,-0.36381 0.68094,-0.66146 0.7537,-0.66146 0.0728,0 -0.14734,0.29765 -0.48911,0.66146 -0.34178,0.3638 -0.68094,0.66146 -0.7537,0.66146 -0.0728,0 0.14734,-0.29766 0.48911,-0.66146 z m 1.05834,-0.76267 c 0,-0.0682 1.33945,-1.22311 2.97656,-2.56651 3.27004,-2.68337 4.2313,-3.41631 2.99112,-2.28064 -1.30627,1.19618 -5.96768,4.98234 -5.96768,4.84715 z m -57.30401,-5.65348 c 1.10023,-1.27331 3.08502,-3.4462 4.41067,-4.82864 2.06688,-2.15546 2.14026,-2.212 0.51507,-0.39688 -1.04236,1.16417 -2.9739,3.33706 -4.29233,4.82865 -1.31842,1.49158 -2.45039,2.71198 -2.51548,2.71198 -0.0651,0 0.78184,-1.0418 1.88207,-2.31511 z m -2.49182,1.91823 c 0,-0.0728 0.0595,-0.13229 0.13229,-0.13229 0.0728,0 0.13229,0.0595 0.13229,0.13229 0,0.0728 -0.0595,0.13229 -0.13229,0.13229 -0.0728,0 -0.13229,-0.0595 -0.13229,-0.13229 z m 67.33645,-2.51354 c 0.26339,-0.29104 0.53842,-0.52917 0.61118,-0.52917 0.0728,0 -0.0832,0.23813 -0.34659,0.52917 -0.26339,0.29104 -0.53843,0.52917 -0.61119,0.52917 -0.0728,0 0.0832,-0.23813 0.3466,-0.52917 z m 1.45521,-1.19063 c 0.34178,-0.3638 0.68094,-0.66145 0.7537,-0.66145 0.0728,0 -0.14734,0.29765 -0.48912,0.66145 -0.34177,0.36381 -0.68094,0.66146 -0.7537,0.66146 -0.0728,0 0.14735,-0.29765 0.48912,-0.66146 z m 1.5875,-1.32291 c 0.34178,-0.36381 0.68094,-0.66146 0.7537,-0.66146 0.0728,0 -0.14734,0.29765 -0.48912,0.66146 -0.34177,0.3638 -0.68094,0.66146 -0.7537,0.66146 -0.0728,0 0.14735,-0.29766 0.48912,-0.66146 z m 1.29942,-1.01509 c 0.3868,-0.48153 1.87558,-1.61541 1.87558,-1.42846 0,0.0583 -0.50602,0.50816 -1.12448,0.99966 -0.61846,0.49149 -0.95646,0.68446 -0.7511,0.4288 z m 2.80162,-2.2922 c 0.26339,-0.29105 0.53842,-0.52917 0.61118,-0.52917 0.0728,0 -0.0832,0.23812 -0.34659,0.52917 -0.26339,0.29104 -0.53843,0.52916 -0.61119,0.52916 -0.0728,0 0.0832,-0.23812 0.3466,-0.52916 z m -63.13565,-3.40395 c 1.17776,-1.29009 2.35131,-2.51048 2.60787,-2.71198 0.25656,-0.2015 -0.65113,0.85402 -2.01709,2.34561 -1.36596,1.49159 -2.5395,2.71198 -2.60787,2.71198 -0.0684,0 0.83932,-1.05552 2.01709,-2.34561 z m 3.99022,-4.33512 c 0.64876,-0.69122 1.21431,-1.25677 1.25677,-1.25677 0.19867,0 -0.0114,0.23755 -1.17956,1.33398 l -1.25678,1.17956 z m 2.38125,-2.64583 c 1.09643,-1.16819 1.33398,-1.37824 1.33398,-1.17957 0,0.0425 -0.56555,0.60801 -1.25677,1.25677 l -1.25678,1.17957 z m 4.86106,-5.43119 c 2.00453,-2.20754 3.78381,-4.09974 3.95397,-4.2049 0.17015,-0.10516 -1.3307,1.61496 -3.33522,3.82249 -2.00453,2.20753 -3.78382,4.09973 -3.95397,4.2049 -0.17016,0.10516 1.33069,-1.61496 3.33522,-3.82249 z m 6.23467,-6.87194 c 1.22027,-1.34606 2.27413,-2.44739 2.34191,-2.44739 0.16811,0 -3.5116,4.06947 -4.09413,4.5278 -0.25655,0.20184 0.53195,-0.73434 1.75222,-2.08041 z m 3.86429,-4.29948 c 0.86401,-0.87312 1.63046,-1.5875 1.70322,-1.5875 0.0728,0 -0.57462,0.71438 -1.43864,1.5875 -0.86402,0.87313 -1.63047,1.5875 -1.70323,1.5875 -0.0728,0 0.57463,-0.71437 1.43865,-1.5875 z m 1.71979,-1.93487 c 0,-0.0455 0.38695,-0.43249 0.85989,-0.8599 l 0.8599,-0.7771 -0.7771,0.8599 c -0.72438,0.80154 -0.94269,0.98151 -0.94269,0.7771 z m 3.04271,-3.35679 c 0.71666,-0.72761 1.36255,-1.32292 1.43531,-1.32292 0.0728,0 -0.45407,0.59531 -1.17073,1.32292 -0.71666,0.7276 -1.36256,1.32291 -1.43532,1.32291 -0.0728,0 0.45407,-0.59531 1.17074,-1.32291 z m 2.51354,-2.77813 c 0.49365,-0.50932 0.95708,-0.92604 1.02984,-0.92604 0.0728,0 -0.2716,0.41672 -0.76526,0.92604 -0.49365,0.50933 -0.95708,0.92604 -1.02984,0.92604 -0.0728,0 0.2716,-0.41671 0.76526,-0.92604 z m 84.137495,-5.52385 c 0,-0.0549 0.208359,-0.2633 0.463021,-0.46302 0.419655,-0.32911 0.428995,-0.31975 0.09991,0.0999 -0.345652,0.44073 -0.562928,0.58089 -0.562928,0.36313 z m 1.322917,-1.04123 c 0,-0.0455 0.386953,-0.43249 0.859895,-0.8599 l 0.859896,-0.7771 -0.777107,0.8599 c -0.724377,0.80154 -0.942684,0.98151 -0.942684,0.7771 z m 2.248958,-2.03388 c 0.263393,-0.29104 0.538427,-0.52916 0.611187,-0.52916 0.07276,0 -0.08321,0.23812 -0.346604,0.52916 -0.263392,0.29105 -0.538427,0.52917 -0.611187,0.52917 -0.07276,0 0.08321,-0.23812 0.346604,-0.52917 z m 1.272778,-0.97719 c 0.222409,-0.35987 2.299097,-2.03545 2.299097,-1.85504 0,0.0675 -0.559991,0.58153 -1.244441,1.14238 -0.684451,0.56085 -1.159034,0.88155 -1.054656,0.71266 z m 3.092847,-2.59468 c 0.341762,-0.3638 0.680931,-0.66146 0.753692,-0.66146 0.07276,0 -0.147347,0.29766 -0.489109,0.66146 -0.341762,0.3638 -0.680932,0.66146 -0.753692,0.66146 -0.07276,0 0.147346,-0.29766 0.489109,-0.66146 z m 1.5875,-1.32292 c 0.341762,-0.3638 0.680931,-0.66146 0.753692,-0.66146 0.07276,0 -0.147347,0.29766 -0.489109,0.66146 -0.341762,0.3638 -0.680932,0.66146 -0.753692,0.66146 -0.07276,0 0.147346,-0.29766 0.489109,-0.66146 z m 1.297463,-1.00949 c 0.410448,-0.51464 2.406703,-2.14417 2.406703,-1.96458 0,0.0622 -0.625078,0.63448 -1.389062,1.2717 -0.763985,0.63723 -1.221925,0.94902 -1.017641,0.69288 z m 2.671286,-2.11623 c 0,-0.0728 0.595313,-0.63072 1.322917,-1.2399 0.727604,-0.60919 1.322917,-1.04808 1.322917,-0.97532 0,0.0728 -0.595313,0.63072 -1.322917,1.2399 -0.727604,0.60919 -1.322917,1.04808 -1.322917,0.97532 z m 2.974526,-2.45251 c 0.09591,-0.15516 1.09802,-1.04612 2.226918,-1.97992 1.128898,-0.9338 1.974083,-1.57086 1.878198,-1.4157 -0.09591,0.15516 -1.098021,1.04612 -2.226919,1.97992 -1.128897,0.9338 -1.974082,1.57086 -1.878197,1.4157 z m 4.962974,-4.21135 c 0.341762,-0.3638 0.680932,-0.66146 0.753692,-0.66146 0.07276,0 -0.147346,0.29766 -0.489109,0.66146 -0.341762,0.3638 -0.680931,0.66146 -0.753692,0.66146 -0.07276,0 0.147347,-0.29766 0.489109,-0.66146 z m 1.852083,-1.4553 c 1.124056,-1.01761 11.634152,-9.67373 12.796679,-10.53934 1.614805,-1.20242 -0.856615,0.91193 -6.540712,5.59568 -5.826151,4.8008 -7.966313,6.49202 -6.255967,4.94366 z m 14.2875,-11.77387 c 0.341762,-0.3638 0.680931,-0.66146 0.753692,-0.66146 0.07276,0 -0.147347,0.29766 -0.489109,0.66146 -0.341762,0.3638 -0.680931,0.66146 -0.753692,0.66146 -0.07276,0 0.147347,-0.29766 0.489109,-0.66146 z m 1.058333,-0.76266 c 0,-0.0682 1.339453,-1.22857 2.976563,-2.57863 1.637109,-1.35005 2.825802,-2.26714 2.641573,-2.03797 -0.410263,0.51029 -5.618136,4.78977 -5.618136,4.6166 z m 6.085417,-4.98732 c 0,-0.0789 1.190625,-1.11696 2.645833,-2.30681 1.455208,-1.18985 2.645833,-2.10694 2.645833,-2.03797 0,0.069 -0.982266,0.92864 -2.182812,1.91037 -1.200547,0.98174 -2.391172,1.96338 -2.645834,2.18142 -0.254661,0.21805 -0.46302,0.33189 -0.46302,0.25299 z m -89.164577,-1.65835 c 0.79042,-0.80037 1.49666,-1.45521 1.56942,-1.45521 0.0728,0 -0.51442,0.65484 -1.30484,1.45521 -0.79042,0.80036 -1.49666,1.45521 -1.56942,1.45521 -0.0728,0 0.51442,-0.65485 1.30484,-1.45521 z m 3.64926,-4.0349 c 1.01928,-1.12778 2.18699,-2.34817 2.59491,-2.71198 0.40792,-0.3638 -0.37465,0.55894 -1.73905,2.05052 -1.36439,1.49159 -2.5321,2.71198 -2.59491,2.71198 -0.0628,0 0.71977,-0.92273 1.73905,-2.05052 z m 91.600733,0.59532 c 0.341762,-0.36381 0.680932,-0.66146 0.753692,-0.66146 0.07276,0 -0.147346,0.29765 -0.489109,0.66146 -0.341762,0.3638 -0.680931,0.66145 -0.753692,0.66145 -0.07276,0 0.147347,-0.29765 0.489109,-0.66145 z m 1.058333,-0.74448 c 0,-0.0728 0.595313,-0.63072 1.322917,-1.2399 0.727604,-0.60918 1.3229165,-1.04808 1.3229165,-0.97532 0,0.0728 -0.5953125,0.63072 -1.3229165,1.2399 -0.727604,0.60919 -1.322917,1.04808 -1.322917,0.97532 z m 3.3072918,-2.8274 c 0.2633927,-0.29104 0.5384271,-0.52917 0.6111875,-0.52917 0.07276,0 -0.083212,0.23813 -0.3466042,0.52917 -0.2633927,0.29104 -0.538427,0.52917 -0.6111874,0.52917 -0.07276,0 0.083211,-0.23813 0.3466041,-0.52917 z m -90.6154308,-2.91519 c 1.198055,-1.31231 2.312268,-2.46666 2.476027,-2.56521 0.163756,-0.0985 -0.758719,0.97515 -2.049947,2.38602 -1.291227,1.41087 -2.405437,2.56521 -2.476027,2.56521 -0.0706,0 0.85189,-1.07371 2.049947,-2.38602 z m 91.6191806,2.21155 c 0.2271183,-0.36966 2.8327084,-2.57341 2.8327084,-2.39585 0,0.0686 -0.6797675,0.7048 -1.5105856,1.41371 -0.8308445,0.7089 -1.4257866,1.15086 -1.3221228,0.98214 z m 3.1794448,-2.65481 c 0.2224088,-0.35986 2.2990968,-2.03545 2.2990968,-1.85503 0,0.0675 -0.5599906,0.58153 -1.2444412,1.14238 -0.6844506,0.56085 -1.1590337,0.88155 -1.0546556,0.71265 z m 2.7740768,-2.2556 c 0.4199996,-0.51734 6.9333531,-5.83948 6.9333531,-5.66533 0,0.0686 -1.6371093,1.4663 -3.6380207,3.10606 -2.0009114,1.63976 -3.4838216,2.79143 -3.2953324,2.55927 z M -94.747455,191.1743 c 1.304137,-1.4492 3.092085,-3.41373 3.973216,-4.36563 0.881134,-0.9519 3.719293,-4.08163 6.30705,-6.95496 2.587731,-2.87333 4.839361,-5.30729 5.003588,-5.40879 0.164227,-0.1015 -2.435807,2.83345 -5.777865,6.52211 -3.342084,3.68867 -7.10031,7.84903 -8.351636,9.24525 -1.251323,1.39622 -2.556467,2.77671 -2.900322,3.06775 -0.343853,0.29104 0.441833,-0.65654 1.745969,-2.10573 z m 99.8701106,-3.13666 c 0,-0.0728 0.5953125,-0.63072 1.3229166,-1.2399 0.7276041,-0.60918 1.3229166,-1.04808 1.3229166,-0.97532 0,0.0728 -0.5953125,0.63072 -1.3229166,1.2399 -0.7276041,0.60919 -1.3229166,1.04808 -1.3229166,0.97532 z m 3.3072915,-2.8274 c 0.2633927,-0.29104 0.5384271,-0.52917 0.6111875,-0.52917 0.07276,0 -0.083211,0.23813 -0.3466042,0.52917 -0.2633927,0.29104 -0.538427,0.52917 -0.6111874,0.52917 -0.07276,0 0.083211,-0.23813 0.3466041,-0.52917 z m 0.9260416,-0.60468 c 0,-0.0686 0.6797673,-0.7048 1.5105853,-1.4137 0.830845,-0.7089 1.425787,-1.15087 1.322123,-0.98215 -0.227118,0.36966 -2.8327083,2.57341 -2.8327083,2.39585 z m 3.5718753,-3.09949 c 0.263392,-0.29104 0.538427,-0.52916 0.611187,-0.52916 0.07276,0 -0.08321,0.23812 -0.346604,0.52916 -0.263393,0.29104 -0.538427,0.52917 -0.611188,0.52917 -0.07276,0 0.08321,-0.23813 0.346605,-0.52917 z m 1.455208,-1.19062 c 0.341762,-0.3638 0.680932,-0.66146 0.753692,-0.66146 0.07276,0 -0.147347,0.29766 -0.489109,0.66146 -0.341762,0.3638 -0.680931,0.66146 -0.753692,0.66146 -0.07276,0 0.147347,-0.29766 0.489109,-0.66146 z m 1.058333,-0.76136 c 0,-0.0549 0.20836,-0.2633 0.463021,-0.46302 0.419656,-0.3291 0.428995,-0.31975 0.09991,0.0999 -0.345652,0.44073 -0.562928,0.58089 -0.562928,0.36312 z m 1.5875,-1.35531 c 0.341762,-0.3638 0.680932,-0.66146 0.753692,-0.66146 0.07276,0 -0.147346,0.29766 -0.489109,0.66146 -0.341762,0.3638 -0.680931,0.66146 -0.753692,0.66146 -0.07276,0 0.147347,-0.29766 0.489109,-0.66146 z m 1.455208,-1.19062 c 0.263393,-0.29105 0.538427,-0.52917 0.611188,-0.52917 0.07276,0 -0.08321,0.23812 -0.346604,0.52917 -0.263393,0.29104 -0.538427,0.52916 -0.611188,0.52916 -0.07276,0 0.08321,-0.23812 0.346604,-0.52916 z m 1.133052,-40.96953 C 19.668679,108.17808 19.603936,95.130702 19.408118,93.978693 18.677233,89.677043 15.805154,86.254798 11.604947,84.680784 9.5891131,83.925358 6.2100137,83.847653 4.0211952,84.50639 2.0279568,85.106266 0.71329514,86.076761 -2.24091,89.129181 l -2.4688005,2.550849 2.3046001,-2.55943 c 3.5899459,-3.986908 5.5293417,-5.149679 9.0379018,-5.418693 5.9475416,-0.456021 11.3873226,3.439741 12.9387326,9.266218 0.298159,1.119793 0.362056,8.530495 0.364649,42.286395 0.0026,22.51076 -0.08615,40.98385 -0.195289,41.05131 -0.10914,0.0675 -0.164809,-18.05278 -0.123719,-40.2672 z m -96.544417,35.47942 c 1.365964,-1.49159 2.539497,-2.71198 2.607865,-2.71198 0.166794,0 -4.03307,4.59274 -4.624969,5.0576 -0.256566,0.2015 0.65114,-0.85403 2.017104,-2.34562 z m -152.568778,-0.19844 c 0.003,-0.58208 0.0571,-0.78905 0.12041,-0.45993 0.0633,0.32912 0.0609,0.80537 -0.005,1.05833 -0.0662,0.25297 -0.118,-0.0163 -0.11506,-0.5984 z m 157.459071,-5.23999 c 1.291246,-1.41087 2.40546,-2.56521 2.47605,-2.56521 0.171265,0 -4.145253,4.7221 -4.525988,4.95123 -0.163751,0.0985 0.758719,-0.97515 2.049938,-2.38602 z m 6.052265,-6.66932 c 1.960562,-2.18449 3.788568,-4.14902 4.062227,-4.36562 0.581289,-0.46004 -3.812514,4.41613 -6.075786,6.74284 -0.853096,0.87703 0.053,-0.19272 2.013559,-2.37722 z m 5.358394,-5.95006 c 0.568378,-0.58208 1.092967,-1.05833 1.165728,-1.05833 0.07276,0 -0.332767,0.47625 -0.901145,1.05833 -0.568378,0.58208 -1.092967,1.05833 -1.165727,1.05833 -0.07276,0 0.332766,-0.47625 0.901144,-1.05833 z m 2.38125,-2.64583 c 0.71665,-0.72761 1.362551,-1.32292 1.435311,-1.32292 0.07276,0 -0.454077,0.59531 -1.170728,1.32292 -0.71665,0.7276 -1.362551,1.32291 -1.435311,1.32291 -0.07276,0 0.454077,-0.59531 1.170728,-1.32291 z m 2.502482,-2.71198 c 1.096433,-1.16819 1.333976,-1.37824 1.333976,-1.17957 0,0.0425 -0.565547,0.60801 -1.256771,1.25677 l -1.256771,1.17957 z m 2.38125,-2.64584 c 1.096433,-1.16818 1.333976,-1.37824 1.333976,-1.17956 0,0.0425 -0.565547,0.60801 -1.256771,1.25677 l -1.256771,1.17956 z m 3.686148,-4.10104 c 1.365964,-1.49159 2.539497,-2.71198 2.607866,-2.71198 0.166793,0 -4.03307,4.59274 -4.62497,5.05759 -0.256566,0.20151 0.65114,-0.85402 2.017104,-2.34561 z m 5.061241,-5.62791 c 1.344507,-1.45824 2.577994,-2.73143 2.741083,-2.82932 0.163089,-0.0979 -0.878999,1.09522 -2.315765,2.65134 -1.436794,1.55613 -2.670281,2.82933 -2.741084,2.82933 -0.07083,0 0.971286,-1.19311 2.315766,-2.65135 z m 5.022003,-5.55073 c 1.195652,-1.30969 2.233454,-2.38125 2.306214,-2.38125 0.07276,0 -0.845979,1.07156 -2.041631,2.38125 -1.195652,1.30968 -2.233453,2.38125 -2.306214,2.38125 -0.07276,0 0.845979,-1.07157 2.041631,-2.38125 z m 4.661905,-5.15119 c 1.292252,-1.4507 3.168677,-3.47476 4.16986,-4.49791 1.427506,-1.45888 1.313339,-1.29272 -0.529167,0.77006 -1.292225,1.44669 -3.16865,3.47075 -4.169859,4.49792 -1.418458,1.45521 -1.301618,1.28518 0.529166,-0.77007 z m 6.715178,-7.41652 c 0.493659,-0.50933 0.957077,-0.92604 1.029838,-0.92604 0.07276,0 -0.271595,0.41671 -0.765255,0.92604 -0.493659,0.50932 -0.957077,0.92604 -1.029837,0.92604 -0.07276,0 0.271594,-0.41672 0.765254,-0.92604 z m 4.607454,-5.09323 c 2.009325,-2.2192 3.708585,-4.0349 3.776133,-4.0349 0.166079,0 -6.050174,6.87399 -6.819106,7.54063 -0.335703,0.29104 1.033648,-1.28654 3.042973,-3.50573 z m 10.499513,-11.64167 c 3.6587109,-4.038202 7.0825779,-7.758906 7.608596,-8.268228 l 0.9563893,-0.926042 -0.9448535,1.058333 c -4.4143082,4.944425 -14.0390028,15.478127 -14.1424548,15.478127 -0.07144,0 2.863612,-3.30399 6.522323,-7.34219 z"
         id="path959" />
      <path
         style="fill:#7a45b8;stroke-width:0.264583"
         d="m 4.7257806,408.68008 c -2.407867,-0.7542 -3.3072915,-1.45825 -3.3072915,-2.58887 0,-0.48818 -0.1377421,-0.74763 -0.396875,-0.74763 -0.24693563,0 -0.396875,-0.24988 -0.396875,-0.66146 0,-0.41159 0.14993937,-0.66146 0.396875,-0.66146 0.2204773,0 0.396875,-0.23519 0.396875,-0.52917 0,-0.29397 -0.1763977,-0.52916 -0.396875,-0.52916 -0.24693563,0 -0.396875,-0.24988 -0.396875,-0.66146 0,-0.39468 0.15136812,-0.66146 0.375285,-0.66146 0.295566,0 0.4066646,-0.68868 0.5228431,-3.24115 0.2175669,-4.7794 0.4280429,-6.54846 0.7790127,-6.54827 0.2055283,1e-4 0.2761456,-0.44887 0.213307,-1.35628 -0.059214,-0.85498 0.022225,-1.4282 0.2201598,-1.55054 0.1727465,-0.10679 0.3803915,-0.9252 0.4614069,-1.81875 0.081015,-0.89352 0.249846,-1.62459 0.3751527,-1.62459 0.1253066,0 0.2278327,-0.40897 0.2278327,-0.90882 0,-0.49985 0.1187714,-1.22121 0.2639483,-1.60303 0.1451504,-0.38182 0.2772304,-1.60996 0.2935023,-2.72921 0.016404,-1.11924 0.1360487,-2.10182 0.2661973,-2.1835 0.1301485,-0.0817 0.2536031,-1.80808 0.2743464,-3.83645 0.020902,-2.02838 0.1461029,-3.75865 0.2785533,-3.84509 0.1423194,-0.0929 0.2477029,-13.16339 0.2576513,-31.96069 0.015875,-29.97869 0.042783,-31.78009 0.468921,-31.39443 0.2486554,0.22502 0.5417608,0.40913 0.6513777,0.40913 0.1906058,0 4.3550684,3.19826 10.1311074,7.78056 l 2.699146,2.14132 0.0098,40.74583 c 0.01058,44.18425 0.08578,41.83846 -1.442693,44.96258 -0.925381,1.89137 -3.177964,3.96684 -5.420493,4.99427 -1.45743,0.66773 -2.103225,0.79947 -4.2333327,0.8636 -1.4932554,0.045 -2.9431455,-0.0589 -3.5718749,-0.25582 z M 19.110223,383.31701 c -0.01958,-7.60346 -0.115993,-13.24303 -0.214524,-12.53236 -0.145891,1.05201 -0.153326,8.37714 -0.0254,24.96778 0.0058,0.76399 0.07025,1.38906 0.143007,1.38906 0.07276,0 0.116391,-6.22101 0.09694,-13.82448 z m 0.03535,-14.08906 c 0,-0.0728 -0.05953,-0.13229 -0.132292,-0.13229 -0.07276,0 -0.132292,0.0595 -0.132292,0.13229 0,0.0728 0.05953,0.13229 0.132292,0.13229 0.07276,0 0.132292,-0.0595 0.132292,-0.13229 z m -0.07744,-1.78284 c -0.06329,-0.32914 -0.117475,-0.12216 -0.120412,0.45992 -0.0029,0.58209 0.04884,0.85135 0.115068,0.59841 0.06622,-0.25297 0.06863,-0.72922 0.0053,-1.05833 z m 0.07744,-0.86299 c 0,-0.0728 -0.05953,-0.13229 -0.132292,-0.13229 -0.07276,0 -0.132292,0.0595 -0.132292,0.13229 0,0.0728 0.05953,0.13229 0.132292,0.13229 0.07276,0 0.132292,-0.0595 0.132292,-0.13229 z m -0.07744,-1.78284 c -0.06329,-0.32915 -0.117475,-0.12216 -0.120412,0.45992 -0.0029,0.58208 0.04884,0.85135 0.115068,0.59841 0.06622,-0.25297 0.06863,-0.72922 0.0053,-1.05833 z m 0.07744,-0.863 c 0,-0.0728 -0.05953,-0.13229 -0.132292,-0.13229 -0.07276,0 -0.132292,0.0595 -0.132292,0.13229 0,0.0728 0.05953,0.1323 0.132292,0.1323 0.07276,0 0.132292,-0.0595 0.132292,-0.1323 z m -0.06718,-7.72533 c -0.04765,-1.42636 -0.08686,-0.33123 -0.08713,2.43367 -2.38e-4,2.76489 0.03876,3.93194 0.08668,2.59342 0.04792,-1.3385 0.04813,-3.60069 0,-5.02709 z m -0.0042,-5.29949 c -0.05728,-0.54896 -0.105093,-0.16465 -0.106283,0.85399 0,1.01865 0.04569,1.46778 0.10414,0.99809 0.05845,-0.46969 0.05943,-1.30313 0.0026,-1.85208 z m 0.07141,-1.26268 c 0,-0.0728 -0.05953,-0.13229 -0.132292,-0.13229 -0.07276,0 -0.132292,0.0595 -0.132292,0.13229 0,0.0728 0.05953,0.1323 0.132292,0.1323 0.07276,0 0.132292,-0.0595 0.132292,-0.1323 z m -0.08385,-0.97565 c -0.08445,-0.21105 -0.147161,-0.14837 -0.159861,0.15986 -0.01138,0.2789 0.05107,0.43519 0.138986,0.34727 0.08792,-0.0879 0.09731,-0.31612 0.0209,-0.50713 z m 0.08385,-0.61185 c 0,-0.0728 -0.05953,-0.13229 -0.132292,-0.13229 -0.07276,0 -0.132292,0.0595 -0.132292,0.13229 0,0.0728 0.05953,0.1323 0.132292,0.1323 0.07276,0 0.132292,-0.0595 0.132292,-0.1323 z m -0.07149,-2.97066 c -0.05728,-0.54896 -0.105092,-0.16465 -0.106283,0.854 0,1.01864 0.04569,1.46777 0.10414,0.99809 0.05845,-0.46969 0.05943,-1.30313 0.0026,-1.85209 z m 0,-3.70416 c -0.05728,-0.54896 -0.105092,-0.16465 -0.106283,0.85399 0,1.01865 0.04569,1.46778 0.10414,0.99809 0.05845,-0.46969 0.05943,-1.30313 0.0026,-1.85208 z m -0.0026,-3.30846 c -0.05887,-0.47554 -0.108267,-0.15026 -0.109749,0.72287 -0.0026,0.87312 0.0467,1.26222 0.107051,0.86463 0.06038,-0.39756 0.0616,-1.11194 0.0026,-1.5875 z m 0.07414,-1.12922 c 0,-0.0728 -0.05953,-0.13229 -0.132292,-0.13229 -0.07276,0 -0.132292,0.0595 -0.132292,0.13229 0,0.0728 0.05953,0.1323 0.132292,0.1323 0.07276,0 0.132292,-0.0595 0.132292,-0.1323 z m -0.07472,-2.17918 c -0.06083,-0.40217 -0.112209,-0.13592 -0.114194,0.59168 -0.0026,0.72761 0.04778,1.05667 0.11057,0.73123 0.06281,-0.32541 0.06443,-0.92072 0.0037,-1.32291 z m 0.07472,-0.99582 c 0,-0.0728 -0.05953,-0.13229 -0.132292,-0.13229 -0.07276,0 -0.132292,0.0595 -0.132292,0.13229 0,0.0728 0.05953,0.1323 0.132292,0.1323 0.07276,0 0.132292,-0.0595 0.132292,-0.1323 z m -0.004,-1.38906 c -0.0026,-0.63246 -0.08403,-0.86609 -0.224631,-0.64436 -0.204232,0.3221 -0.10205,1.63655 0.127238,1.63655 0.0558,0 0.09962,-0.44649 0.09739,-0.99219 z m 0.004,-1.25677 c 0,-0.0728 -0.05953,-0.13229 -0.132292,-0.13229 -0.07276,0 -0.132292,0.0595 -0.132292,0.13229 0,0.0728 0.05953,0.13229 0.132292,0.13229 0.07276,0 0.132292,-0.0595 0.132292,-0.13229 z m -0.08385,-0.97565 c -0.08445,-0.21106 -0.147161,-0.14838 -0.159861,0.15986 -0.01138,0.2789 0.05107,0.43519 0.138986,0.34727 0.08792,-0.0879 0.09731,-0.31613 0.0209,-0.50713 z m 0.08385,-0.61185 c 0,-0.0728 -0.05953,-0.13229 -0.132292,-0.13229 -0.07276,0 -0.132292,0.0595 -0.132292,0.13229 0,0.0728 0.05953,0.13229 0.132292,0.13229 0.07276,0 0.132292,-0.0595 0.132292,-0.13229 z m 0,-0.52917 c 0,-0.0728 -0.05953,-0.13229 -0.132292,-0.13229 -0.07276,0 -0.132292,0.0595 -0.132292,0.13229 0,0.0728 0.05953,0.1323 0.132292,0.1323 0.07276,0 0.132292,-0.0595 0.132292,-0.1323 z m 0,-0.52916 c 0,-0.0728 -0.05953,-0.13229 -0.132292,-0.13229 -0.07276,0 -0.132292,0.0595 -0.132292,0.13229 0,0.0728 0.05953,0.13229 0.132292,0.13229 0.07276,0 0.132292,-0.0595 0.132292,-0.13229 z m -0.07125,-3.91059 c -0.05548,-0.61407 -0.100224,-0.0449 -0.0994,1.26475 0,1.30969 0.0462,1.81211 0.100886,1.1165 0.05466,-0.69562 0.05403,-1.76718 -0.0026,-2.38125 z m 0.0026,-5.40632 c -0.05268,-0.84205 -0.09626,-0.22132 -0.09684,1.37941 0,1.60073 0.04249,2.28968 0.09575,1.53101 0.05326,-0.75867 0.05374,-2.06836 0,-2.91042 z m -213.317843,25.05962 c -0.0899,-0.14552 -0.44712,-0.26459 -0.79375,-0.26459 -0.34662,0 -0.70381,-0.11906 -0.79375,-0.26458 -0.0899,-0.14552 -0.33404,-0.26458 -0.54245,-0.26458 -0.47232,0 -4.13881,-1.62465 -3.99378,-1.76967 0.0583,-0.0583 0.89739,0.25651 1.8647,0.69956 0.96731,0.44304 1.87644,0.80552 2.02029,0.80552 0.14385,0 0.46829,0.10745 0.72098,0.23879 1.2544,0.65201 2.78791,0.86222 5.67192,0.77753 1.69068,-0.0497 2.93592,-0.003 2.76719,0.10411 -0.47157,0.29882 -6.73301,0.24263 -6.92135,-0.0621 z m 8.46667,-0.71867 c 1.61518,-0.65137 3.58161,-2.02226 6.11233,-4.26119 2.03095,-1.79678 5.71547,-4.89762 11.60639,-9.76778 1.01405,-0.83833 4.58592,-3.76074 7.9375,-6.49424 3.35158,-2.7335 6.68567,-5.47193 7.4091,-6.08541 1.39894,-1.18633 11.40496,-9.3887 16.64426,-13.64402 5.27248,-4.28227 10.41233,-8.32178 9.2925,-7.30315 -0.99092,0.90137 -2.18986,1.88861 -10.3326,8.50815 -1.75387,1.42579 -4.78997,3.91646 -6.74688,5.53482 -3.24915,2.68703 -7.75935,6.37869 -16.22564,13.2809 -1.72844,1.40912 -4.28829,3.51697 -5.68854,4.68411 -1.40026,1.16713 -4.13449,3.41606 -6.07608,4.99761 -1.94158,1.58154 -4.73955,3.94888 -6.2177,5.26071 -4.23903,3.76208 -7.22664,5.78458 -8.46418,5.72995 -0.16984,-0.007 0.16745,-0.20572 0.74954,-0.44046 z m -17.93576,-3.04233 c -1.42446,-0.58807 -2.54117,-1.11797 -2.48159,-1.17756 0.0596,-0.0596 0.45115,0.03 0.87014,0.1991 0.41898,0.16907 0.99992,0.39947 1.29096,0.51194 1.15202,0.44524 3.42414,1.54922 3.175,1.54268 -0.14552,-0.004 -1.43005,-0.48807 -2.85451,-1.07616 z m -3.49549,-1.53067 c -0.0899,-0.14552 -0.0445,-0.26458 0.10106,-0.26458 0.14552,0 0.33817,0.11906 0.42811,0.26458 0.0899,0.14552 0.0444,0.26458 -0.10107,0.26458 -0.14552,0 -0.33816,-0.11906 -0.4281,-0.26458 z m -1.98438,-0.74851 c -0.50932,-0.25455 -1.91291,-0.86034 -3.11908,-1.34622 -1.20618,-0.48588 -2.13317,-0.9433 -2.05998,-1.01648 0.0732,-0.0732 0.52427,0.0492 1.00242,0.27202 0.47814,0.22278 1.94092,0.84473 3.2506,1.38213 1.30969,0.53742 2.43086,1.02555 2.4915,1.08479 0.29005,0.28334 -0.7421,0.0353 -1.56546,-0.37624 z m -6.35,-2.69107 c -0.21828,-0.14108 -0.27781,-0.25649 -0.13229,-0.25649 0.14552,0 0.44318,0.11541 0.66146,0.25649 0.21828,0.14107 0.27781,0.25648 0.13229,0.25648 -0.14552,0 -0.44317,-0.11541 -0.66146,-0.25648 z m -2.24895,-0.93187 c -0.72761,-0.35023 -1.14433,-0.63563 -0.92605,-0.63426 0.21829,0.003 0.93266,0.28943 1.5875,0.64008 1.54135,0.82535 1.05645,0.82109 -0.66145,-0.006 z m -3.5354,-1.49566 c -3.26351,-1.37911 -6.85266,-5.49995 -7.56438,-8.68497 l -0.1478,-0.66146 0.29819,0.66146 c 1.46221,3.24352 2.59852,4.88523 4.54837,6.57137 1.13029,0.97743 3.76172,2.42446 4.40887,2.42446 0.13262,0 0.31471,0.11906 0.40465,0.26458 0.21506,0.34798 0.28907,0.36984 -1.9479,-0.57544 z m -7.97398,-9.74331 c 0,-0.19402 0.0794,-0.2734 0.17639,-0.17639 0.097,0.097 0.097,0.25577 0,0.35278 -0.097,0.097 -0.17639,0.0176 -0.17639,-0.17639 z m -0.13413,-76.46458 c 0,-41.10964 0.0306,-57.92722 0.068,-37.3724 0.0374,20.55482 0.0374,54.18998 0,74.74479 -0.0374,20.55482 -0.068,3.73724 -0.068,-37.37239 z m 104.24767,47.625 c 0.26339,-0.29104 0.53842,-0.52917 0.61118,-0.52917 0.0728,0 -0.0832,0.23813 -0.3466,0.52917 -0.26339,0.29104 -0.53842,0.52917 -0.61118,0.52917 -0.0728,0 0.0832,-0.23813 0.3466,-0.52917 z m -62.83854,-0.29385 c -0.33744,-0.24252 -0.32909,-0.26353 0.0557,-0.14028 0.32623,0.10448 0.99118,-0.47289 2.38125,-2.06762 1.06074,-1.21692 5.67909,-6.34989 10.263,-11.4066 4.58391,-5.05671 9.68922,-10.69326 11.34515,-12.52565 1.65593,-1.83239 4.39437,-4.85895 6.08542,-6.72568 1.69105,-1.86672 3.72948,-4.13999 4.52985,-5.0517 3.60671,-4.1085 8.5201,-9.41362 8.7185,-9.41362 0.11998,0 3.89263,4.07336 8.38367,9.05192 4.49104,4.97855 9.41569,10.43497 10.94366,12.12536 1.52797,1.69039 4.97064,5.50492 7.65038,8.47673 2.67974,2.9718 5.18006,5.7423 5.55625,6.15665 l 0.68399,0.75337 -1.32291,1.18351 c -1.39483,1.24785 -2.77813,2.31165 -2.77813,2.13646 0,-0.0573 0.77391,-0.73201 1.71979,-1.49945 0.94589,-0.76744 1.71979,-1.53372 1.71979,-1.70286 0,-0.28648 -2.7033,-3.3466 -12.54716,-14.2033 -2.17152,-2.39494 -7.58192,-8.38647 -12.02312,-13.31451 l -8.0749,-8.96008 -1.20605,1.28828 c -0.66333,0.70855 -2.63481,2.89106 -4.38106,4.85001 -1.74625,1.95896 -3.89984,4.33971 -4.78575,5.29055 -0.88591,0.95085 -2.30649,2.56225 -3.15684,3.5809 -0.85035,1.01865 -2.52082,2.92365 -3.71215,4.23333 -1.19134,1.30969 -4.05335,4.46485 -6.36004,7.01146 -2.30669,2.54662 -5.43644,5.99943 -6.955,7.67292 -3.97753,4.38334 -4.29701,4.73717 -8.36125,9.26042 -2.02669,2.25557 -3.75022,4.12887 -3.83005,4.16288 -0.0798,0.034 -0.32376,-0.0665 -0.54204,-0.2234 z m 63.88038,-0.47322 c 0.0999,-0.16171 1.27563,-1.16749 2.61264,-2.23507 1.33702,-1.06759 3.20484,-2.56638 4.15073,-3.33065 0.94588,-0.76427 1.24354,-0.95036 0.66146,-0.41354 -1.51039,1.39296 -7.64216,6.33091 -7.42483,5.97926 z m -64.28014,-46.99022 c 0,-25.90271 0.0311,-36.46008 0.069,-23.46081 0.038,12.99926 0.038,34.19239 -1e-5,47.09583 -0.038,12.90345 -0.069,2.26768 -0.069,-23.63502 z m 115.864608,-4.71421 c -10.437627,-8.58848 -25.762489,-21.16267 -26.989203,-22.1449 -5.699825,-4.56387 -11.746485,-9.66619 -11.746485,-9.91197 0,-0.17085 0.32743,-0.59929 0.72761,-0.95208 l 0.7276,-0.64143 -0.66146,0.75008 -0.66145,0.75008 0.53898,0.44055 c 0.29643,0.2423 2.78564,2.28601 5.53156,4.54158 2.74592,2.25558 6.380739,5.23214 8.077374,6.61459 3.384913,2.75808 15.712927,12.87009 24.460924,20.06399 3.06713,2.52224 5.732516,4.65106 5.923095,4.73073 0.190579,0.0797 0.726361,-0.19779 1.190625,-0.61657 0.814811,-0.73499 0.812456,-0.727 -0.06771,0.23022 -0.501491,0.54539 -0.977741,0.98359 -1.058333,0.97378 -0.08059,-0.01 -2.77749,-2.18271 -5.99313,-4.82865 z m 8.095562,2.93482 c 0,-0.0572 0.684609,-0.68628 1.521354,-1.39789 0.836745,-0.7116 1.283229,-1.01885 0.992187,-0.68277 -0.552688,0.63822 -2.513541,2.26137 -2.513541,2.08066 z m 3.175,-2.66175 c 0,-0.0686 0.679767,-0.7048 1.510585,-1.4137 0.830845,-0.70891 1.425787,-1.15087 1.322123,-0.98215 -0.227118,0.36966 -2.832708,2.57341 -2.832708,2.39585 z m 3.174999,-2.6194 c 0,-0.0721 0.922735,-0.90506 2.050521,-1.85101 1.127787,-0.94596 2.437474,-2.0471 2.910417,-2.44698 0.472942,-0.39988 0.859896,-0.66502 0.859896,-0.5892 0,0.0758 -1.101329,1.06016 -2.447396,2.18742 -1.346068,1.12727 -2.655755,2.22537 -2.910417,2.44022 -0.254661,0.21485 -0.463021,0.33165 -0.463021,0.25955 z m 6.085417,-5.03526 c 0,-0.20402 8.240342,-7.07145 19.711457,-16.42736 0.873125,-0.71213 2.361407,-1.93074 3.307292,-2.70803 0.945885,-0.77729 3.217307,-2.64075 5.047615,-4.14103 4.310168,-3.533 9.588473,-7.86599 12.025179,-9.87153 1.811153,-1.49069 4.8781761,-3.98157 17.2568921,-14.01516 2.8012759,-2.27058 5.0932289,-4.0719 5.0932289,-4.00293 0,0.069 -2.8195057,2.42486 -6.2655447,5.23529 -3.44606549,2.81043 -7.3602053,6.00285 -8.6981238,7.09425 -1.337945,1.09141 -6.6409885,5.43719 -11.7845945,9.6573 -5.143605,4.2201 -10.371587,8.50635 -11.617774,9.525 -4.437962,3.6277 -16.982413,13.93152 -23.744898,19.50373 -0.181901,0.14989 -0.330729,0.2176 -0.330729,0.15047 z m -56.753116,-27.724 c 0.71666,-0.7276 1.36255,-1.32291 1.43531,-1.32291 0.0728,0 -0.45407,0.59531 -1.17073,1.32291 -0.71667,0.72761 -1.36256,1.32292 -1.43532,1.32292 -0.0728,0 0.45407,-0.59531 1.17074,-1.32292 z m 2.76706,-2.97656 c 0.64876,-0.69122 1.21431,-1.25677 1.25677,-1.25677 0.19867,0 -0.0114,0.23755 -1.17956,1.33397 l -1.25677,1.17957 z m 2.65689,-2.97656 c 0.79042,-0.80037 1.49667,-1.45521 1.56943,-1.45521 0.0728,0 -0.51442,0.65484 -1.30484,1.45521 -0.79042,0.80036 -1.49667,1.45521 -1.56943,1.45521 -0.0728,0 0.51442,-0.65485 1.30484,-1.45521 z m -84.93124,-1.87371 c 0,-0.23018 -1.41593,-1.98635 -3.1465,-3.90261 -7.6934,-8.51887 -11.78388,-13.04295 -15.10975,-16.71144 -1.96453,-2.1669 -4.81398,-5.31597 -6.3321,-6.99791 -4.27724,-4.73881 -5.62961,-5.57692 -8.98086,-5.56581 -2.73156,0.009 -5.09324,1.30262 -6.63911,3.63645 -0.84552,1.27651 -1.05965,1.32742 -0.42554,0.10119 0.47202,-0.91278 2.45211,-2.75418 3.62808,-3.37397 0.59483,-0.3135 1.68017,-0.50507 3.2714,-0.57745 2.28472,-0.10392 2.45029,-0.0724 4.08408,0.77743 1.33887,0.69643 2.2659,1.5078 4.33732,3.79616 1.44897,1.60073 3.24254,3.57215 3.98572,4.38094 0.74317,0.80879 4.50637,4.96632 8.36267,9.23896 3.85631,4.27264 8.41045,9.31189 10.12032,11.19834 1.70987,1.88645 3.10885,3.65228 3.10885,3.92406 0,0.27179 -0.0595,0.49416 -0.13229,0.49416 -0.0728,0 -0.13229,-0.18832 -0.13229,-0.4185 z m 90.123374,-3.77831 c 2.019274,-2.23549 4.385784,-4.86947 5.258909,-5.85329 0.873124,-0.98382 4.802187,-5.33452 8.731249,-9.66823 3.929063,-4.3337 8.929687,-9.8626 11.1125,-12.28643 2.182812,-2.42383 5.576093,-6.18002 7.540624,-8.34707 1.964532,-2.16706 5.893594,-6.51392 8.73125,-9.65968 2.837656,-3.14577 6.770555,-7.49735 8.739769,-9.67018 1.969215,-2.17283 5.293122,-5.8556 7.386479,-8.18394 2.093357,-2.32833 4.530301,-5.01166 5.415438,-5.96295 0.885137,-0.95129 3.038105,-3.32392 4.784355,-5.27251 1.74625,-1.94858 4.425156,-4.92348 5.953124,-6.61088 1.527969,-1.6874 6.277531,-6.93477 10.554573,-11.66083 4.2770425,-4.726052 9.1586048,-10.119782 10.8479164,-11.986061 2.92703236,-3.233662 5.6489068,-5.482881 6.6073599,-5.459951 0.2380721,0.0057 0.040349,0.180873 -0.439367,0.389283 -1.6248856,0.70592 -3.13904305,2.003664 -5.767599,4.943226 -8.6794973,9.706431 -10.3796833,11.601093 -11.5937233,12.919863 -1.697302,1.8437 -5.334159,5.86448 -6.82371,7.54405 -1.05029,1.18426 -8.133609,9.02673 -13.439616,14.88 -1.236927,1.3645 -3.022864,3.34449 -3.96875,4.39997 -3.910277,4.36338 -16.350455,18.12212 -17.605533,19.47159 -0.744378,0.80036 -1.939448,2.11005 -2.655702,2.91041 -0.71628,0.80037 -1.363451,1.51474 -1.438195,1.5875 -0.07475,0.0728 -1.622558,1.79545 -3.439584,3.82819 -1.817026,2.03274 -4.13713,4.59588 -5.155776,5.69587 -1.018646,1.09998 -3.280833,3.6001 -5.027083,5.55582 -1.74625,1.95571 -3.948906,4.40126 -4.894792,5.43455 -3.744859,4.09093 -13.057695,14.39255 -14.682736,16.24169 -0.979832,1.11496 -5.05764,5.45264 -6.980334,7.42518 -0.78235,0.80263 0.22968,-0.3697 2.248954,-2.60519 z M 10.779923,183.14417 c 0.223309,-0.36132 4.132316,-3.57629 4.132316,-3.39863 0,0.0691 -0.971206,0.92906 -2.15826,1.91112 -1.187053,0.98207 -2.075365,1.65145 -1.974056,1.48751 z m 4.396899,-3.59008 c 0,-0.0549 0.208359,-0.2633 0.463021,-0.46302 0.419655,-0.3291 0.428995,-0.31975 0.09991,0.0999 -0.345651,0.44073 -0.562927,0.58089 -0.562927,0.36312 z m 1.5875,-1.35531 c 0.341762,-0.3638 0.680931,-0.66146 0.753692,-0.66146 0.07276,0 -0.147347,0.29766 -0.489109,0.66146 -0.341762,0.3638 -0.680932,0.66146 -0.753692,0.66146 -0.07276,0 0.147347,-0.29766 0.489109,-0.66146 z m 1.058333,-0.73996 c 0,-0.0556 0.416719,-0.48026 0.926042,-0.94373 0.509323,-0.46348 0.926041,-0.7505 0.926041,-0.63783 0,0.11267 -0.416718,0.53735 -0.926041,0.94374 -0.509323,0.40638 -0.926042,0.6934 -0.926042,0.63782 z m 1.629278,-82.206915 c 0,-0.363802 0.06006,-0.51263 0.133456,-0.330729 0.0734,0.181901 0.0734,0.479557 0,0.661458 -0.0734,0.181901 -0.133456,0.03307 -0.133456,-0.330729 z m -0.285486,-1.74184 c 0.0127,-0.308226 0.07541,-0.370919 0.159862,-0.159853 0.07644,0.190995 0.06705,0.419198 -0.0209,0.507119 -0.08792,0.08792 -0.150468,-0.06835 -0.138985,-0.347266 z m -0.264583,-1.058333 c 0.0127,-0.308226 0.07541,-0.370919 0.159861,-0.159853 0.07644,0.190995 0.06705,0.419198 -0.0209,0.507119 -0.08792,0.08792 -0.150468,-0.06835 -0.138985,-0.347266 z M 18.616405,91.68003 c 0,-0.07276 0.05953,-0.132292 0.132292,-0.132292 0.07276,0 0.132291,0.05953 0.132291,0.132292 0,0.07276 -0.05953,0.132291 -0.132291,0.132291 -0.07276,0 -0.132292,-0.05953 -0.132292,-0.132291 z M 18.005403,90.351164 C 17.406307,89.094873 15.58936,87.165563 13.989716,86.08719 13.26407,85.597992 12.766362,85.197738 12.883731,85.197738 c 1.191392,0 6.278721,5.362972 5.667322,5.974391 -0.05741,0.05741 -0.302974,-0.312025 -0.54565,-0.820965 z m -5.738998,-5.285718 c 0,-0.07276 0.05953,-0.132291 0.132292,-0.132291 0.07276,0 0.132292,0.05953 0.132292,0.132291 0,0.07276 -0.05953,0.132292 -0.132292,0.132292 -0.07276,0 -0.132292,-0.05953 -0.132292,-0.132292 z m -0.705564,-0.30868 c 0.09702,-0.09701 0.255773,-0.09701 0.352795,0 0.097,0.09701 0.01762,0.176389 -0.176397,0.176389 -0.194019,0 -0.273394,-0.07937 -0.176398,-0.176389 z M 4.4611973,84.403988 c 0.2910416,-0.125065 0.7077604,-0.227391 0.9260416,-0.227391 0.2501635,0 0.2012421,0.08406 -0.1322917,0.227391 -0.2910416,0.125065 -0.7077603,0.227391 -0.9260416,0.227391 -0.2501635,0 -0.2012421,-0.08406 0.1322917,-0.227391 z m 5.4239581,0 C 9.3534223,84.233695 9.3274667,84.190627 9.7528637,84.184375 c 0.2910413,-0.0043 0.7672913,0.09455 1.0583333,0.219613 0.674211,0.289721 -0.02143,0.289721 -0.9260416,0 z M 7.0408847,83.957021 c 0.2546614,-0.06655 0.6713802,-0.06655 0.9260416,0 0.2546615,0.06655 0.046302,0.121 -0.4630208,0.121 -0.5093229,0 -0.7176823,-0.05445 -0.4630208,-0.121 z"
         id="path957" />
      <path
         style="fill:#6831ab;stroke-width:0.264583"
         d="m 18.870273,395.75243 c -0.1279,-16.59064 -0.120465,-23.91577 0.0254,-24.96778 0.09853,-0.71067 0.195077,4.9289 0.214524,12.53236 0.01931,7.60347 -0.02408,13.82448 -0.09694,13.82448 -0.07276,0 -0.137108,-0.62507 -0.143008,-1.38906 z m 0.01071,-26.52448 c 0,-0.0728 0.05953,-0.13229 0.132292,-0.13229 0.07276,0 0.132292,0.0595 0.132292,0.13229 0,0.0728 -0.05953,0.13229 -0.132292,0.13229 -0.07276,0 -0.132292,-0.0595 -0.132292,-0.13229 z m 0.06673,-1.32292 c 0.0029,-0.58208 0.05712,-0.78906 0.120412,-0.45992 0.06329,0.32911 0.06088,0.80536 -0.0053,1.05833 -0.06622,0.25294 -0.118004,-0.0164 -0.115067,-0.59841 z m -0.06673,-1.32291 c 0,-0.0728 0.05953,-0.13229 0.132292,-0.13229 0.07276,0 0.132292,0.0595 0.132292,0.13229 0,0.0728 -0.05953,0.13229 -0.132292,0.13229 -0.07276,0 -0.132292,-0.0595 -0.132292,-0.13229 z m 0.06673,-1.32292 c 0.0029,-0.58208 0.05712,-0.78907 0.120412,-0.45992 0.06329,0.32911 0.06088,0.80536 -0.0053,1.05833 -0.06622,0.25294 -0.118004,-0.0164 -0.115067,-0.59841 z m -0.06673,-1.32292 c 0,-0.0728 0.05953,-0.13229 0.132292,-0.13229 0.07276,0 0.132292,0.0595 0.132292,0.13229 0,0.0728 -0.05953,0.1323 -0.132292,0.1323 -0.07276,0 -0.132292,-0.0595 -0.132292,-0.1323 z m 0.110279,-5.29166 c 2.64e-4,-2.7649 0.03948,-3.86003 0.08713,-2.43367 0.04768,1.4264 0.04747,3.68859 0,5.02709 -0.04792,1.33852 -0.08692,0.17147 -0.08668,-2.59342 z m -0.02355,-6.87917 c 0,-1.01864 0.049,-1.40295 0.106283,-0.85399 0.05728,0.54895 0.0563,1.38239 -0.0026,1.85208 -0.05845,0.46969 -0.105304,0.0206 -0.10414,-0.99809 z m -0.08681,-2.11667 c 0,-0.0728 0.05953,-0.13229 0.132292,-0.13229 0.07276,0 0.132291,0.0595 0.132291,0.13229 0,0.0728 -0.05953,0.1323 -0.132291,0.1323 -0.07276,0 -0.132292,-0.0595 -0.132292,-0.1323 z m 0.0209,-0.81579 c 0.0127,-0.30823 0.07541,-0.37091 0.159861,-0.15986 0.07644,0.19101 0.06705,0.41921 -0.0209,0.50713 -0.08792,0.0879 -0.150468,-0.0684 -0.138985,-0.34727 z m -0.02082,-0.77171 c 0,-0.0728 0.05953,-0.13229 0.132292,-0.13229 0.07276,0 0.132292,0.0595 0.132292,0.13229 0,0.0728 -0.05953,0.1323 -0.132292,0.1323 -0.07276,0 -0.132292,-0.0595 -0.132292,-0.1323 z m 0.08681,-2.11666 c 0,-1.01865 0.049,-1.40296 0.106283,-0.854 0.05728,0.54896 0.0563,1.3824 -0.0026,1.85209 -0.05845,0.46968 -0.105304,0.0206 -0.10414,-0.99809 z m -213.473262,-2.04364 c -0.43656,-0.14717 -1.00049,-0.37262 -1.25318,-0.50102 -0.25269,-0.1284 -0.57713,-0.23347 -0.72098,-0.23347 -0.14385,0 -1.04142,-0.35718 -1.99459,-0.79375 -0.95318,-0.43656 -1.78634,-0.79375 -1.85148,-0.79375 -0.1334,0 -2.92825,-1.23798 -3.63503,-1.61017 -0.25269,-0.13303 -0.57713,-0.24191 -0.72098,-0.24191 -0.14386,0 -1.00867,-0.33822 -1.92182,-0.7516 -0.91315,-0.41336 -2.79137,-1.20796 -4.17382,-1.76573 -1.38244,-0.55776 -2.62665,-1.11252 -2.76489,-1.23277 -0.13825,-0.12025 -0.41076,-0.21865 -0.60558,-0.21865 -0.19482,0 -1.33187,-0.4322 -2.52677,-0.96041 -1.1949,-0.52822 -2.52973,-1.11096 -2.9663,-1.295 -3.39742,-1.43209 -4.98599,-2.56429 -6.62665,-4.72298 -0.94129,-1.2385 -2.07389,-3.21454 -2.29369,-4.00182 -0.0813,-0.29104 -0.24366,-0.76393 -0.36088,-1.05087 -0.11723,-0.28694 0.49434,0.20008 1.35904,1.08226 2.03838,2.07958 3.92075,2.85616 6.49332,2.67885 3.46322,-0.2387 2.78345,0.39281 19.56079,-18.17182 13.1762,-14.57986 13.23249,-14.6454 13.05606,-15.20128 -0.16113,-0.50767 -0.14703,-0.51107 0.29323,-0.0708 0.25437,0.25437 0.54376,0.42741 0.64309,0.38453 0.0993,-0.0429 1.8388,-1.92342 3.86549,-4.17899 4.06424,-4.52325 4.38372,-4.87708 8.36125,-9.26042 1.51856,-1.67349 4.64831,-5.1263 6.955,-7.67292 2.30669,-2.54661 5.1687,-5.70177 6.36004,-7.01146 1.19133,-1.30968 2.8618,-3.21468 3.71215,-4.23333 0.85035,-1.01865 2.27093,-2.63005 3.15684,-3.5809 0.88591,-0.95084 3.0395,-3.33159 4.78575,-5.29055 1.74625,-1.95895 3.71773,-4.14146 4.38106,-4.85001 l 1.20605,-1.28828 8.0749,8.96008 c 4.4412,4.92804 9.8516,10.91957 12.02312,13.31451 9.87301,10.88884 12.54716,13.91737 12.54716,14.20988 0,0.17276 -1.4518,1.4838 -3.22623,2.91343 -1.77442,1.42964 -4.3045,3.47697 -5.62239,4.54963 -1.31789,1.07266 -4.6991,3.8111 -7.51379,6.08542 -8.78724,7.10023 -9.83358,7.95264 -17.09261,13.92471 -3.89137,3.20146 -7.51067,6.17783 -8.04291,6.61416 -0.53223,0.43633 -3.87215,3.17477 -7.42204,6.08542 -3.5499,2.91065 -7.0414,5.76833 -7.7589,6.35042 -2.95925,2.40075 -8.74853,7.27615 -10.89525,9.17535 -4.65687,4.11993 -6.61353,4.99412 -11.08319,4.9517 -1.63165,-0.0156 -3.32383,-0.14853 -3.76039,-0.29569 z m 81.62395,-60.48931 c 0,-0.29926 -1.02811,-1.21776 -1.18616,-1.05971 -0.17513,0.17513 0.63364,1.28328 0.93658,1.28328 0.13727,0 0.24958,-0.10061 0.24958,-0.22357 z m -1.55966,-0.66893 c -0.16585,-0.19984 -0.22653,-0.55885 -0.13483,-0.79781 0.1177,-0.30672 -0.42553,-1.03444 -1.84752,-2.47497 -1.47497,-1.49422 -2.01155,-1.90044 -2.00422,-1.51731 0.006,0.29771 0.52001,0.92234 1.1933,1.44926 0.6508,0.50932 1.24963,1.1344 1.33073,1.38906 0.0811,0.25466 0.25475,0.46302 0.3859,0.46302 0.13114,0 0.16242,0.19813 0.0695,0.44028 -0.11361,0.29604 -0.0675,0.3776 0.14059,0.24897 0.20554,-0.12703 0.30955,0.0362 0.30955,0.48576 0,0.44817 0.14513,0.67708 0.42927,0.67708 0.33397,0 0.36232,-0.0807 0.12773,-0.36334 z m -2.67367,-2.67937 c 0,-0.21828 -0.11203,-0.39688 -0.24897,-0.39688 -0.33363,0 -0.57258,0.41317 -0.3612,0.62456 0.29797,0.29796 0.61017,0.18147 0.61017,-0.22768 z m -1.5875,-2.87975 c 0,-0.32923 -1.65785,-2.23795 -4.63021,-5.33088 -0.58208,-0.60569 -1.94405,-2.13148 -3.02659,-3.39063 -1.08254,-1.25915 -2.06481,-2.28937 -2.18281,-2.28937 -0.51386,0 -0.11564,0.67215 1.24065,2.09409 0.80037,0.8391 1.45521,1.65453 1.45521,1.81208 0,0.15756 0.36503,0.65149 0.81118,1.09763 0.50187,0.50188 0.73472,0.9384 0.61067,1.14484 -0.15962,0.2656 -0.11853,0.26733 0.20147,0.008 0.33356,-0.26986 0.50407,-0.18715 1.0017,0.48593 0.33693,0.45573 0.54223,1.03097 0.46853,1.31282 -0.11093,0.42417 -0.0526,0.45961 0.37747,0.22943 0.62431,-0.33412 1.21142,-0.0619 0.78537,0.36419 -0.4208,0.42079 -0.35103,0.7919 0.11524,0.61298 0.39202,-0.15043 0.70195,0.0994 1.8922,1.52542 0.64632,0.77432 0.87992,0.86008 0.87992,0.32303 z m -9.08403,-8.54144 c -0.097,-0.097 -0.17639,-0.0176 -0.17639,0.17639 0,0.19403 0.0794,0.27341 0.17639,0.17639 0.097,-0.097 0.097,-0.25576 0,-0.35278 z m -3.29269,-5.40078 c -1.26921,-1.43789 -2.45648,-2.61672 -2.63838,-2.61963 -0.1819,-0.003 -0.33073,-0.17886 -0.33073,-0.39101 0,-0.51012 -2.06233,-2.66722 -2.31166,-2.41789 -0.10669,0.10669 0.0861,0.40524 0.42841,0.66345 0.47238,0.35631 0.57673,0.61334 0.43295,1.06636 -0.16441,0.51803 -0.11608,0.5736 0.36584,0.42064 0.54694,-0.17359 0.66502,0.0807 0.6303,1.35721 -0.005,0.18164 0.25308,0.25976 0.63139,0.19116 0.35187,-0.0638 0.78799,0.0361 0.96918,0.222 0.79629,0.81704 2.29317,2.95901 2.29317,3.28143 0,0.19459 0.30476,0.43028 0.67724,0.52377 0.46446,0.11657 0.62881,0.29617 0.52311,0.57163 -0.12645,0.32953 -0.0831,0.34272 0.24135,0.0734 0.33825,-0.28072 0.0615,-0.70652 -1.91217,-2.94255 z m -2.96911,-2.22803 c 0,-0.0728 0.0595,-0.1323 0.13229,-0.1323 0.0728,0 0.13229,0.0595 0.13229,0.1323 0,0.0728 -0.0595,0.13229 -0.13229,0.13229 -0.0728,0 -0.13229,-0.0595 -0.13229,-0.13229 z m -3.03081,-4.32547 c -0.41788,-0.40911 -0.42471,-0.38863 -0.10686,0.32058 0.18674,0.41669 0.38762,0.61335 0.4464,0.43704 0.0588,-0.17632 -0.094,-0.51725 -0.33954,-0.75762 z m -0.67336,-0.57162 c 0,-0.2199 -1.11357,-1.53935 -3.31259,-3.92504 -0.26553,-0.28808 -0.30176,-0.22004 -0.1911,0.35887 0.0847,0.44284 -0.003,0.81233 -0.2304,0.97217 -0.26081,0.18327 -0.16209,0.21334 0.3413,0.10397 0.55465,-0.1205 0.82644,-0.004 1.25317,0.53886 0.2997,0.38101 0.47946,0.79865 0.39945,0.9281 -0.08,0.12944 0.0705,0.31483 0.33434,0.41197 0.26388,0.0971 0.575,0.33442 0.69137,0.5273 0.24901,0.41269 0.71446,0.46729 0.71446,0.0838 z m -3.70417,-3.04041 c 0,-0.0728 -0.0595,-0.1323 -0.13229,-0.1323 -0.0728,0 -0.13229,0.0595 -0.13229,0.1323 0,0.0728 0.0595,0.13229 0.13229,0.13229 0.0728,0 0.13229,-0.0595 0.13229,-0.13229 z m -0.53447,-1.85848 c -0.18408,-0.2218 -0.38917,-0.34878 -0.45577,-0.28219 -0.18348,0.18349 0.18933,0.68546 0.50909,0.68546 0.17544,0 0.15537,-0.15181 -0.0533,-0.40327 z m -1.22854,-0.77014 c 0.0834,-0.21736 -0.29569,-0.86768 -0.88688,-1.52135 -0.73729,-0.81521 -1.03567,-1.00929 -1.04342,-0.67868 -0.006,0.25466 0.16774,0.46302 0.38602,0.46302 0.21828,0 0.39688,0.17859 0.39688,0.39688 0,0.21828 0.11906,0.39687 0.26458,0.39687 0.14552,0 0.25049,0.0893 0.23325,0.19844 -0.15171,0.96084 0.34717,1.53288 0.64957,0.74482 z m 162.187322,91.7932 c 0,-1.01864 0.049,-1.40295 0.106283,-0.85399 0.05728,0.54895 0.0563,1.38239 -0.0026,1.85208 -0.05845,0.46969 -0.105304,0.0206 -0.10414,-0.99809 z m -0.0048,-3.43958 c 0.0026,-0.87313 0.05088,-1.19841 0.109749,-0.72287 0.0589,0.47556 0.05768,1.18994 -0.0026,1.5875 -0.06035,0.39759 -0.108532,0.008 -0.10705,-0.86463 z m -0.08199,-1.85209 c 0,-0.0728 0.05953,-0.13229 0.132292,-0.13229 0.07276,0 0.132292,0.0595 0.132292,0.13229 0,0.0728 -0.05953,0.1323 -0.132292,0.1323 -0.07276,0 -0.132292,-0.0595 -0.132292,-0.1323 z m 0.07567,-1.5875 c 0.0026,-0.7276 0.05337,-0.99385 0.114194,-0.59168 0.0608,0.40219 0.05919,0.9975 -0.0037,1.32291 -0.06279,0.32544 -0.112554,-0.004 -0.110569,-0.73123 z m -0.07567,-1.5875 c 0,-0.0728 0.05953,-0.13229 0.132292,-0.13229 0.07276,0 0.132292,0.0595 0.132292,0.13229 0,0.0728 -0.05953,0.1323 -0.132292,0.1323 -0.07276,0 -0.132292,-0.0595 -0.132292,-0.1323 z m -0.06149,-1.04124 c -0.06773,-0.35438 -0.02381,-0.80086 0.09739,-0.99218 0.1406,-0.22173 0.222039,0.0119 0.224631,0.64436 0.0045,1.1343 -0.141499,1.29215 -0.322024,0.34782 z m 0.06144,-1.60459 c 0,-0.0728 0.05953,-0.13229 0.132292,-0.13229 0.07276,0 0.132292,0.0595 0.132292,0.13229 0,0.0728 -0.05953,0.13229 -0.132292,0.13229 -0.07276,0 -0.132292,-0.0595 -0.132292,-0.13229 z m 0.0209,-0.81579 c 0.0127,-0.30824 0.07541,-0.37092 0.159862,-0.15986 0.07644,0.191 0.06705,0.41921 -0.0209,0.50713 -0.08792,0.0879 -0.150469,-0.0684 -0.138986,-0.34727 z m -0.0209,-0.77171 c 0,-0.0728 0.05953,-0.13229 0.132292,-0.13229 0.07276,0 0.132292,0.0595 0.132292,0.13229 0,0.0728 -0.05953,0.13229 -0.132292,0.13229 -0.07276,0 -0.132292,-0.0595 -0.132292,-0.13229 z m 0,-0.52917 c 0,-0.0728 0.05953,-0.13229 0.132292,-0.13229 0.07276,0 0.132292,0.0595 0.132292,0.13229 0,0.0728 -0.05953,0.1323 -0.132292,0.1323 -0.07276,0 -0.132292,-0.0595 -0.132292,-0.1323 z m 0,-0.52916 c 0,-0.0728 0.05953,-0.13229 0.132292,-0.13229 0.07276,0 0.132292,0.0595 0.132292,0.13229 0,0.0728 -0.05953,0.13229 -0.132292,0.13229 -0.07276,0 -0.132292,-0.0595 -0.132292,-0.13229 z m 0.09393,-2.64584 c 0,-1.30968 0.04392,-1.87882 0.0994,-1.26475 0.05551,0.61407 0.05615,1.68563 0.0026,2.38125 -0.05469,0.69561 -0.100092,0.19319 -0.100885,-1.1165 z m 0.005,-5.29166 c 0,-1.60073 0.04416,-2.22146 0.09684,-1.37941 0.05265,0.84206 0.05218,2.15175 0,2.91042 -0.05326,0.75867 -0.09636,0.0697 -0.09575,-1.53101 z m -248.206052,1.45521 c 0,-0.65485 0.0516,-0.92274 0.11467,-0.59532 0.0631,0.32743 0.0631,0.86321 0,1.19063 -0.0631,0.32742 -0.11467,0.0595 -0.11467,-0.59531 z M -72.42034,241.6256 c -11.104774,-9.12197 -21.547139,-17.68526 -24.592879,-20.16744 -9.268251,-7.55334 -14.016201,-11.49751 -14.016201,-11.6434 0,-0.17681 10.7951,-12.08702 14.526013,-16.02653 1.251265,-1.32122 2.632951,-2.8095 3.070413,-3.30729 1.625041,-1.84914 10.937877,-12.15076 14.682736,-16.24169 0.945886,-1.03329 3.148542,-3.47884 4.894792,-5.43455 1.74625,-1.95572 4.008437,-4.45584 5.027083,-5.55582 1.018646,-1.09999 3.33875,-3.66313 5.155776,-5.69587 1.817026,-2.03274 3.364839,-3.75543 3.439584,-3.82819 0.07474,-0.0728 0.721915,-0.78713 1.438195,-1.5875 0.716254,-0.80036 1.911324,-2.11005 2.655702,-2.91041 1.255078,-1.34947 13.695256,-15.10821 17.605533,-19.47159 0.945886,-1.05548 2.731823,-3.03547 3.96875,-4.39997 5.306007,-5.85327 12.389326,-13.69574 13.439616,-14.88 1.489551,-1.67957 5.126408,-5.70035 6.82371,-7.54405 1.214913,-1.3197 3.070807,-3.387938 11.6189646,-12.948363 3.02863234,-3.387279 4.6133277,-4.58735 7.0265128,-5.321127 6.2079446,-1.887652 12.7079636,1.783404 14.7689086,8.341137 0.368935,1.173919 0.42463,5.902841 0.494506,41.987003 l 0.07874,40.66408 -0.601001,0.5699 c -0.330544,0.31345 -2.267876,1.91495 -4.305167,3.5589 -2.037292,1.64395 -6.7402603,5.45702 -10.4510414,8.47349 -3.71078108,3.01647 -8.4550246,6.86909 -10.5427723,8.56139 -2.0877476,1.6923 -4.6632283,3.79128 -5.7233073,4.66441 -2.288831,1.88516 -7.405238,6.08573 -12.023804,9.87153 -1.830308,1.50028 -4.10173,3.36374 -5.047615,4.14103 -0.945885,0.77729 -2.434167,1.9959 -3.307292,2.70803 -5.179509,4.22443 -14.173225,11.62823 -16.668749,13.72201 -8.948208,7.5077 -17.339653,14.40337 -17.520205,14.39723 -0.113771,-0.004 -2.775743,-2.11723 -5.915501,-4.69635 z m 6.105498,3.70071 c 0,-0.45667 -1.971039,-2.4369 -2.425594,-2.4369 -0.794702,0 -0.563245,0.39607 0.90424,1.54719 1.517888,1.19067 1.521354,1.19269 1.521354,0.88971 z m -3.604947,-3.17714 c 0.232516,-0.37621 -0.226193,-0.83125 -0.603118,-0.59829 -0.196718,0.12157 -0.275828,0.3534 -0.175842,0.5152 0.21246,0.34378 0.592772,0.38434 0.77896,0.0831 z m -1.159219,-1.0457 c 0,-0.10914 -0.359251,-0.40191 -0.796264,-0.65059 -0.437038,-0.24869 -1.043358,-0.87377 -1.34739,-1.38907 -0.537978,-0.9118 -1.029679,-1.22462 -1.029679,-0.65508 0,0.155 -0.648018,-0.34368 -1.440021,-1.10818 -0.792004,-0.7645 -1.389248,-1.47214 -1.327203,-1.57252 0.06204,-0.10039 -0.227912,-0.25067 -0.644314,-0.33395 -0.685032,-0.13701 -2.928699,-2.14324 -2.935604,-2.62499 -0.0026,-0.10914 -0.240983,-0.19843 -0.532025,-0.19843 -0.411585,0 -0.529166,-0.17639 -0.529166,-0.79375 0,-0.43657 -0.119063,-0.79375 -0.264584,-0.79375 -0.14552,0 -0.264583,0.16885 -0.264583,0.37523 0,0.20638 -0.06495,0.54452 -0.144357,0.75142 -0.09133,0.23803 0.418783,0.82879 1.389063,1.60863 0.843386,0.67784 1.704922,1.3815 1.914551,1.56369 0.209603,0.18218 0.983509,0.81091 1.719792,1.39718 0.736256,0.58627 1.636315,1.32735 2.000117,1.64683 2.821861,2.47814 4.236958,3.4069 4.231667,2.77733 z m -2.90875,-3.37344 c 0,-0.0728 -0.05953,-0.13229 -0.132292,-0.13229 -0.07276,0 -0.132291,0.0595 -0.132291,0.13229 0,0.0728 0.05953,0.13229 0.132291,0.13229 0.07276,0 0.132292,-0.0595 0.132292,-0.13229 z m -8.983503,-6.19465 c -0.148961,-0.27836 -0.392457,-0.54664 -0.541073,-0.59618 -0.148643,-0.0496 -0.324856,-0.37369 -0.39161,-0.72032 -0.161528,-0.83865 -0.317077,-0.95898 -0.762159,-0.58959 -0.411162,0.34124 -0.698738,-0.0905 -0.698738,-1.04902 0,-0.55528 -0.42246,-0.69536 -0.589121,-0.19534 -0.06091,0.18271 -0.300911,0.23665 -0.57867,0.13006 -0.299985,-0.11512 -0.414735,-0.33818 -0.311865,-0.60623 0.115941,-0.30216 0.04831,-0.38019 -0.235241,-0.27138 -0.511016,0.19609 -1.45235,-0.80204 -1.642453,-1.74152 -0.0803,-0.39692 -0.327422,-0.87223 -0.54917,-1.05626 -0.347583,-0.28847 -0.376025,-0.24914 -0.206348,0.28546 0.18587,0.58566 0.147637,0.61042 -0.689438,0.44645 l -0.886235,-0.17359 0.926041,0.82048 c 0.509323,0.45127 1.387343,1.12348 1.951144,1.4938 0.563827,0.37033 1.433724,1.08194 1.933151,1.58137 0.499428,0.49941 1.367579,1.19812 1.92921,1.55267 0.561657,0.35455 1.097756,0.76853 1.191339,0.91995 0.302075,0.48877 0.431033,0.29198 0.151236,-0.23081 z m -8.524822,-7.02943 c -0.164484,-0.361 -0.519118,-0.72621 -0.788077,-0.81158 -0.268957,-0.0854 -0.489014,-0.24713 -0.489014,-0.35949 0,-0.11236 -0.297656,-0.3399 -0.661458,-0.50567 -0.994804,-0.45326 -0.80219,-0.0707 0.595312,1.18246 1.449263,1.29955 1.762691,1.41488 1.343237,0.49428 z m -2.864591,-2.81152 c 0,-0.39319 -0.120036,-0.51141 -0.407334,-0.40116 -0.556717,0.21363 -1.444749,-0.38426 -1.444749,-0.9727 0,-0.26463 -0.119952,-0.40701 -0.266557,-0.3164 -0.146606,0.0906 -0.787167,-0.37862 -1.423472,-1.04272 -0.636301,-0.6641 -1.349787,-1.20746 -1.585526,-1.20746 -0.280797,0 -0.428612,-0.22812 -0.428612,-0.66146 0,-0.72221 -0.247616,-0.83717 -0.740836,-0.34396 -0.24694,0.24695 -0.3175,0.18815 -0.3175,-0.26458 0,-0.36204 -0.1633,-0.58208 -0.43198,-0.58208 -0.2376,0 -0.62582,-0.20836 -0.86273,-0.46302 -0.60596,-0.65138 -1.56639,-1.15374 -1.72259,-0.90101 -0.0723,0.11696 0.32133,0.561 0.87469,0.98677 0.55336,0.42577 1.58924,1.27436 2.30196,1.88576 3.285832,2.81869 5.896987,4.8415 6.249679,4.8415 0.113056,0 0.205557,-0.25086 0.205557,-0.55748 z m 1.058334,0.1606 c 0,-0.0728 -0.05953,-0.13229 -0.132292,-0.13229 -0.07276,0 -0.132292,0.0595 -0.132292,0.13229 0,0.0728 0.05953,0.13229 0.132292,0.13229 0.07276,0 0.132292,-0.0595 0.132292,-0.13229 z m -2.910417,-2.38125 c 0,-0.0728 -0.05953,-0.13229 -0.132292,-0.13229 -0.07276,0 -0.132291,0.0595 -0.132291,0.13229 0,0.0728 0.05953,0.13229 0.132291,0.13229 0.07276,0 0.132292,-0.0595 0.132292,-0.13229 z m -6.879163,-5.29166 c 0,-0.0728 -0.0595,-0.1323 -0.1323,-0.1323 -0.0728,0 -0.13229,0.0595 -0.13229,0.1323 0,0.0728 0.0595,0.13229 0.13229,0.13229 0.0728,0 0.1323,-0.0595 0.1323,-0.13229 z m -1.23216,-0.33073 c 0.0671,-0.10914 -0.27979,-0.4961 -0.77085,-0.8599 -0.89629,-0.66401 -1.1358,-1.05833 -0.64283,-1.05833 0.14552,0 0.26459,-0.11609 0.26459,-0.25797 0,-0.14552 -0.346,-0.18877 -0.79375,-0.0992 -0.67704,0.13541 -0.79375,0.0784 -0.79375,-0.38787 0,-0.30065 -0.11907,-0.62021 -0.26459,-0.71015 -0.14552,-0.0899 -0.26458,0.0221 -0.26458,0.24897 0,0.59554 -0.17795,0.5221 -1.24433,-0.51355 -0.52443,-0.50933 -1.05431,-0.92605 -1.17751,-0.92605 -0.53751,0 -0.11574,0.53179 1.38278,1.74349 0.88373,0.71457 2.08361,1.68618 2.6664,2.15912 1.0799,0.87634 1.42153,1.01426 1.63842,0.66146 z m -3.59098,-4.34909 c -0.0576,-0.17281 -0.2462,-0.36135 -0.4191,-0.41899 -0.19334,-0.0644 -0.25248,0.0565 -0.15359,0.3142 0.18455,0.48093 0.73143,0.581 0.57269,0.10479 z M 19.128797,135.53472 c -0.0095,-22.69845 -0.115702,-39.90548 -0.244369,-39.586773 -0.289798,0.717738 -0.245031,79.737293 0.04516,79.737293 0.118772,0 0.208439,-18.06774 0.199205,-40.15052 z m -207.645107,63.87413 c -0.0394,-0.53116 -0.43731,-0.98605 -13.00061,-14.86193 -4.72943,-5.22355 -9.88764,-10.93191 -11.46271,-12.68525 -1.57506,-1.75334 -3.361,-3.5742 -3.96875,-4.04635 -3.53629,-2.74731 -8.67183,-1.8907 -11.26551,1.87908 -0.43109,0.62658 -0.83012,1.60299 -0.88882,2.17488 l -0.1065,1.03783 -0.0445,-1.07911 c -0.0333,-0.80788 0.15714,-1.38351 0.75762,-2.29008 1.54587,-2.33383 3.90755,-3.6274 6.63911,-3.63645 3.35125,-0.0111 4.70362,0.827 8.98086,5.56581 1.51812,1.68194 4.36757,4.83101 6.3321,6.99791 3.33488,3.67844 7.49929,8.28431 15.12829,16.73204 2.47646,2.74224 3.14006,3.63445 3.05023,4.10105 -0.0845,0.43918 -0.12429,0.46832 -0.15083,0.11057 z"
         id="path955" />
      <path
         style="fill:#4e1e84;stroke-width:0.264583"
         d="m -224.53567,326.98749 c -0.98918,-0.38979 -1.93402,-1.062 -2.95037,-2.09906 l -1.49516,-1.52563 -0.17355,-2.46742 c -0.0954,-1.35709 -0.137,-35.62634 -0.0923,-76.15389 l 0.0812,-73.68646 0.86715,-1.24884 c 2.69962,-3.8879 7.76491,-4.77636 11.35035,-1.99087 0.60775,0.47215 2.39369,2.29301 3.96875,4.04635 1.57507,1.75334 6.73328,7.4617 11.46271,12.68525 4.72943,5.22355 9.58027,10.59403 10.77966,11.9344 l 2.18071,2.43705 0.0158,47.98083 0.0158,47.98083 -4.87478,5.42396 c -20.66421,22.99218 -22.95329,25.44715 -24.5254,26.30274 -1.93636,1.05382 -4.52425,1.20288 -6.61058,0.38076 z m 110.74921,-43.9316 c -0.22318,-0.31864 -0.34973,-0.63541 -0.28121,-0.70393 0.15805,-0.15805 1.18616,0.76045 1.18616,1.05971 0,0.42029 -0.49869,0.22424 -0.90495,-0.35578 z m -1.21171,-0.62689 c 0,-0.44957 -0.10401,-0.61279 -0.30955,-0.48576 -0.20813,0.12863 -0.2542,0.0471 -0.14059,-0.24897 0.0929,-0.24215 0.0616,-0.44028 -0.0695,-0.44028 -0.13115,0 -0.3048,-0.20836 -0.3859,-0.46302 -0.0811,-0.25466 -0.67993,-0.87974 -1.33073,-1.38906 -0.67329,-0.52692 -1.1876,-1.15155 -1.1933,-1.44926 -0.007,-0.38313 0.52925,0.0231 2.00422,1.51731 1.42199,1.44053 1.96522,2.16825 1.84752,2.47497 -0.0917,0.23896 -0.031,0.59797 0.13483,0.79781 0.23459,0.28267 0.20624,0.36333 -0.12773,0.36333 -0.28414,0 -0.42927,-0.2289 -0.42927,-0.67707 z m -2.72684,-2.13795 c -0.21138,-0.21139 0.0276,-0.62456 0.3612,-0.62456 0.13694,0 0.24897,0.1786 0.24897,0.39688 0,0.40915 -0.3122,0.52564 -0.61017,0.22768 z m -1.85725,-3.43046 c -1.19025,-1.426 -1.50018,-1.67585 -1.8922,-1.52541 -0.46627,0.17892 -0.53604,-0.1922 -0.11524,-0.61299 0.42605,-0.42605 -0.16106,-0.69831 -0.78537,-0.36419 -0.43009,0.23018 -0.4884,0.19474 -0.37747,-0.22943 0.0737,-0.28184 -0.1316,-0.85709 -0.46853,-1.31281 -0.49763,-0.67308 -0.66814,-0.7558 -1.0017,-0.48594 -0.32,0.25889 -0.36109,0.25716 -0.20147,-0.008 0.12405,-0.20644 -0.1088,-0.64296 -0.61067,-1.14483 -0.44615,-0.44615 -0.81118,-0.94008 -0.81118,-1.09764 0,-0.15755 -0.65484,-0.97298 -1.45521,-1.81208 -1.35629,-1.42194 -1.75451,-2.09409 -1.24065,-2.09409 0.118,0 1.10027,1.03022 2.18281,2.28937 1.08254,1.25915 2.44451,2.78494 3.02659,3.39063 2.97236,3.09293 4.63021,5.00165 4.63021,5.33088 0,0.53705 -0.2336,0.45129 -0.87992,-0.32303 z m -8.3805,-8.04202 c 0,-0.19402 0.0794,-0.2734 0.17639,-0.17639 0.097,0.097 0.097,0.25577 0,0.35278 -0.097,0.097 -0.17639,0.0176 -0.17639,-0.17639 z m -1.44548,-2.70805 c 0.1057,-0.27546 -0.0587,-0.45506 -0.52311,-0.57163 -0.37248,-0.0935 -0.67724,-0.32918 -0.67724,-0.52377 0,-0.32242 -1.49688,-2.46439 -2.29317,-3.28143 -0.18119,-0.18591 -0.61731,-0.28581 -0.96918,-0.222 -0.37831,0.0686 -0.63633,-0.01 -0.63139,-0.19116 0.0347,-1.27652 -0.0834,-1.5308 -0.6303,-1.35721 -0.48192,0.15296 -0.53025,0.0974 -0.36584,-0.42064 0.14378,-0.45302 0.0394,-0.71005 -0.43295,-1.06636 -0.34231,-0.25821 -0.5351,-0.55676 -0.42841,-0.66345 0.24933,-0.24933 2.31166,1.90777 2.31166,2.41789 0,0.21215 0.14883,0.38811 0.33073,0.39101 0.1819,0.003 1.36917,1.18174 2.63838,2.61963 1.97372,2.23603 2.25042,2.66183 1.91217,2.94255 -0.32447,0.26929 -0.3678,0.2561 -0.24135,-0.0734 z m -4.37535,-5.09715 c 0,-0.0728 -0.0595,-0.1323 -0.13229,-0.1323 -0.0728,0 -0.13229,0.0595 -0.13229,0.1323 0,0.0728 0.0595,0.13229 0.13229,0.13229 0.0728,0 0.13229,-0.0595 0.13229,-0.13229 z m -3.40225,-4.00489 c -0.31785,-0.70921 -0.31102,-0.72969 0.10686,-0.32058 0.24552,0.24037 0.39831,0.5813 0.33954,0.75762 -0.0588,0.17631 -0.25966,-0.0204 -0.4464,-0.43704 z m -1.28096,-0.976 c -0.11637,-0.19288 -0.42749,-0.43016 -0.69137,-0.5273 -0.26389,-0.0971 -0.41434,-0.28253 -0.33434,-0.41197 0.08,-0.12945 -0.0998,-0.54709 -0.39945,-0.9281 -0.42673,-0.54249 -0.69852,-0.65936 -1.25317,-0.53886 -0.50339,0.10937 -0.60211,0.0793 -0.3413,-0.10397 0.22749,-0.15984 0.31506,-0.52933 0.2304,-0.97217 -0.11066,-0.57891 -0.0744,-0.64695 0.1911,-0.35887 3.17772,3.44747 3.72136,4.19192 3.06116,4.19192 -0.13829,0 -0.34665,-0.15781 -0.46303,-0.35068 z m -3.25429,-2.95661 c 0,-0.0728 0.0595,-0.1323 0.13229,-0.1323 0.0728,0 0.13229,0.0595 0.13229,0.1323 0,0.0728 -0.0595,0.13229 -0.13229,0.13229 -0.0728,0 -0.13229,-0.0595 -0.13229,-0.13229 z m -0.67234,-1.7374 c -0.28476,-0.46075 0.0396,-0.55833 0.40245,-0.12108 0.20869,0.25146 0.22876,0.40327 0.0533,0.40327 -0.15475,0 -0.35984,-0.12699 -0.45577,-0.28219 z m -1.47566,-0.97458 c -0.0172,-0.25466 -0.0172,-0.55232 0,-0.66146 0.0172,-0.10914 -0.0877,-0.19844 -0.23325,-0.19844 -0.14552,0 -0.26458,-0.17859 -0.26458,-0.39687 0,-0.21829 -0.1786,-0.39688 -0.39688,-0.39688 -0.21828,0 -0.39199,-0.20836 -0.38602,-0.46302 0.008,-0.33061 0.30613,-0.13653 1.04342,0.67868 0.59119,0.65367 0.97029,1.30399 0.88688,1.52135 -0.20256,0.52788 -0.61176,0.47536 -0.64957,-0.0834 z m 76.032894,-5.92729 c -1.467485,-1.15112 -1.698942,-1.54719 -0.90424,-1.54719 0.454555,0 2.425594,1.98023 2.425594,2.4369 0,0.30298 -0.0034,0.30096 -1.521354,-0.88971 z m -2.862553,-2.37052 c -0.09999,-0.1618 -0.0209,-0.39363 0.175842,-0.5152 0.376925,-0.23296 0.835634,0.22208 0.603118,0.59829 -0.186188,0.30125 -0.5665,0.26069 -0.77896,-0.0831 z m -2.495259,-1.9673 c -0.800364,-0.65546 -1.752864,-1.45315 -2.116667,-1.77264 -0.363802,-0.31948 -1.263861,-1.06056 -2.000117,-1.64683 -0.736283,-0.58627 -1.510189,-1.215 -1.719792,-1.39718 -0.209629,-0.18219 -1.071165,-0.88585 -1.914551,-1.56369 -0.97028,-0.77984 -1.480397,-1.3706 -1.389063,-1.60863 0.0794,-0.2069 0.144357,-0.54504 0.144357,-0.75142 0,-0.20638 0.119063,-0.37523 0.264583,-0.37523 0.145521,0 0.264584,0.35718 0.264584,0.79375 0,0.61736 0.117581,0.79375 0.529166,0.79375 0.291042,0 0.530463,0.0893 0.532025,0.19843 0.0069,0.48175 2.250572,2.48798 2.935604,2.62499 0.416402,0.0833 0.706359,0.23356 0.644314,0.33395 -0.06204,0.10038 0.535199,0.80802 1.327203,1.57252 0.792003,0.7645 1.440021,1.26318 1.440021,1.10818 0,-0.56954 0.491701,-0.25672 1.029679,0.65508 0.304032,0.5153 0.910352,1.14038 1.34739,1.38907 0.437013,0.24868 0.795338,0.54145 0.796264,0.65059 0.004,0.46871 -0.757608,0.10694 -2.115,-1.00469 z m -1.058333,-2.36875 c 0,-0.0728 0.05953,-0.13229 0.132291,-0.13229 0.07276,0 0.132292,0.0595 0.132292,0.13229 0,0.0728 -0.05953,0.13229 -0.132292,0.13229 -0.07276,0 -0.132291,-0.0595 -0.132291,-0.13229 z m -8.870156,-5.96384 c -0.09358,-0.15142 -0.629682,-0.5654 -1.191339,-0.91995 -0.561631,-0.35455 -1.429782,-1.05326 -1.92921,-1.55267 -0.499427,-0.49943 -1.369324,-1.21104 -1.933151,-1.58137 -0.563801,-0.37032 -1.441821,-1.04253 -1.951144,-1.4938 l -0.926041,-0.82048 0.886235,0.17359 c 0.837075,0.16397 0.875308,0.13921 0.689438,-0.44645 -0.169677,-0.5346 -0.141235,-0.57393 0.206348,-0.28546 0.221748,0.18403 0.468868,0.65934 0.54917,1.05626 0.190103,0.93948 1.131437,1.93761 1.642453,1.74152 0.283554,-0.10881 0.351182,-0.0308 0.235241,0.27138 -0.10287,0.26805 0.01191,0.49111 0.311865,0.60623 0.277759,0.10659 0.517763,0.0526 0.57867,-0.13006 0.166661,-0.50002 0.589121,-0.35994 0.589121,0.19534 0,0.9585 0.287576,1.39026 0.698738,1.04902 0.445082,-0.36939 0.600631,-0.24906 0.762159,0.58959 0.06675,0.34663 0.242967,0.67077 0.39161,0.72032 0.148616,0.0495 0.392112,0.31782 0.541073,0.59618 0.279797,0.52279 0.150839,0.71958 -0.151236,0.23081 z m -9.716823,-7.75452 c -1.397502,-1.25313 -1.590116,-1.63572 -0.595312,-1.18246 0.363802,0.16577 0.661458,0.39331 0.661458,0.50567 0,0.11236 0.220057,0.27413 0.489014,0.35949 0.470749,0.14941 1.288232,1.48032 0.894376,1.4561 -0.106021,-0.007 -0.758312,-0.51898 -1.449536,-1.1388 z m -3.37322,-2.84232 c -1.464937,-1.10073 -2.28977,-1.77426 -4.60337,-3.75894 -0.71272,-0.6114 -1.7486,-1.45999 -2.30196,-1.88576 -0.55336,-0.42577 -0.94697,-0.86981 -0.87469,-0.98677 0.1562,-0.25273 1.11663,0.24963 1.72259,0.90101 0.23691,0.25466 0.62513,0.46302 0.86273,0.46302 0.26868,0 0.43198,0.22004 0.43198,0.58208 0,0.45273 0.0706,0.51153 0.3175,0.26458 0.49322,-0.49321 0.740836,-0.37825 0.740836,0.34396 0,0.43334 0.147815,0.66146 0.428612,0.66146 0.235739,0 0.949225,0.54336 1.585526,1.20746 0.636305,0.6641 1.276866,1.13333 1.423472,1.04272 0.146605,-0.0906 0.266557,0.0518 0.266557,0.3164 0,0.58844 0.888032,1.18633 1.444749,0.9727 0.287298,-0.11025 0.407334,0.008 0.407334,0.40116 0,0.77104 -0.203798,0.71325 -1.851866,-0.52508 z m 2.645616,0.68568 c 0,-0.0728 0.05953,-0.13229 0.132292,-0.13229 0.07276,0 0.132292,0.0595 0.132292,0.13229 0,0.0728 -0.05953,0.13229 -0.132292,0.13229 -0.07276,0 -0.132292,-0.0595 -0.132292,-0.13229 z m -2.910416,-2.38125 c 0,-0.0728 0.05953,-0.13229 0.132291,-0.13229 0.07276,0 0.132292,0.0595 0.132292,0.13229 0,0.0728 -0.05953,0.13229 -0.132292,0.13229 -0.07276,0 -0.132291,-0.0595 -0.132291,-0.13229 z m -6.87917,-5.29166 c 0,-0.0728 0.0595,-0.1323 0.13229,-0.1323 0.0728,0 0.1323,0.0595 0.1323,0.1323 0,0.0728 -0.0595,0.13229 -0.1323,0.13229 -0.0728,0 -0.13229,-0.0595 -0.13229,-0.13229 z m -2.60599,-0.99219 c -0.58279,-0.47294 -1.78267,-1.44455 -2.6664,-2.15912 -1.49852,-1.2117 -1.92029,-1.74349 -1.38278,-1.74349 0.1232,0 0.65308,0.41672 1.17751,0.92605 1.06638,1.03565 1.24433,1.10909 1.24433,0.51355 0,-0.22687 0.11906,-0.33891 0.26458,-0.24897 0.14552,0.0899 0.26459,0.4095 0.26459,0.71015 0,0.46624 0.11671,0.52328 0.79375,0.38787 0.44775,-0.0896 0.79375,-0.0463 0.79375,0.0992 0,0.14188 -0.11907,0.25797 -0.26459,0.25797 -0.49297,0 -0.25346,0.39432 0.64283,1.05833 0.81597,0.60451 0.99627,1.05833 0.42046,1.05833 -0.12562,0 -0.70523,-0.38695 -1.28803,-0.85989 z m -2.52525,-3.79242 c -0.0989,-0.25768 -0.0397,-0.37864 0.15359,-0.3142 0.39551,0.13184 0.61327,0.73318 0.26551,0.73318 -0.14208,0 -0.33067,-0.18854 -0.4191,-0.41898 z M 18.685197,136.09847 c -0.01561,-21.77273 0.07403,-39.840461 0.199231,-40.150523 0.128667,-0.318707 0.234897,16.888323 0.244369,39.586773 0.0093,22.08278 -0.08043,40.15052 -0.199205,40.15052 -0.118798,0 -0.228785,-17.81405 -0.244395,-39.58677 z"
         id="path953" />
    </g>
  </g>
</svg>
